<?xml version="1.0" encoding="iso-8859-1"?>
<!-- Generator: Adobe Illustrator 19.0.0, SVG Export Plug-In . SVG Version: 6.00 Build 0)  -->
<svg version="1.1" id="Capa_1" xmlns="http://www.w3.org/2000/svg" xmlns:xlink="http://www.w3.org/1999/xlink" x="0px" y="0px"
	 viewBox="0 0 512 512" style="enable-background:new 0 0 512 512;" xml:space="preserve">
<polygon style="fill:#8C9AA2;" points="447.699,502 64.301,502 64.301,107.045 256,10 447.699,107.045 "/>
<rect x="124.8" y="241.251" style="fill:#E7ECED;" width="260.17" height="260.75"/>
<rect x="124.8" y="196.18" style="fill:#3ABEB6;" width="260.17" height="45.06"/>
<rect x="124.8" y="151.12" style="fill:#009D93;" width="260.17" height="45.06"/>
<g>
	<rect x="124.8" y="390.22" style="fill:#FDB845;" width="130.09" height="111.78"/>
	<rect x="254.88" y="390.22" style="fill:#FDB845;" width="130.09" height="111.78"/>
</g>
<rect x="190.96" y="278.44" style="fill:#FFD480;" width="130.09" height="111.78"/>
<path d="M452.215,98.123L260.517,1.079c-2.84-1.438-6.193-1.438-9.033,0L59.785,98.123c-3.363,1.703-5.483,5.152-5.483,8.922V502
	c0,5.522,4.478,10,10,10h383.396c5.522,0,10-4.477,10-10V107.045C457.698,103.275,455.578,99.826,452.215,98.123z M374.969,186.183
	H134.798v-25.064h240.171V186.183z M374.969,206.183v25.064H134.798v-25.064H374.969z M374.969,251.247v128.976h-43.926v-101.78
	c0-5.522-4.478-10-10-10H190.957c-5.522,0-10,4.478-10,10v101.779h-46.159V251.247H374.969z M151.78,400.222h76.12l-38.06,32.704
	L151.78,400.222z M174.496,446.111l-39.698,34.111V412L174.496,446.111z M271.345,334.332l39.698-34.112v68.223L271.345,334.332z
	 M294.061,380.222H217.94L256,347.517L294.061,380.222z M256,321.147l-38.06-32.704h76.121L256,321.147z M240.655,334.332
	l-39.698,34.112v-68.223L240.655,334.332z M244.883,412v68.222l-39.698-34.111L244.883,412z M264.883,412l39.698,34.111
	l-39.698,34.111V412z M281.866,400.222h76.121l-38.06,32.704L281.866,400.222z M151.78,492l38.06-32.704L227.9,492H151.78z
	 M281.866,492l38.06-32.704L357.986,492H281.866z M374.969,480.222l-39.698-34.111L374.969,412V480.222z M437.698,492h-42.729
	V151.118c0-5.522-4.478-10-10-10H124.798c-5.522,0-10,4.478-10,10V492H74.302v-378.81L256,21.208l181.698,91.982V492z"/>
<path d="M376.06,124.61c-0.66,0-1.31-0.06-1.96-0.19c-0.64-0.13-1.27-0.32-1.87-0.57s-1.18-0.56-1.72-0.92
	c-0.55-0.37-1.06-0.78-1.52-1.24c-0.471-0.47-0.881-0.979-1.25-1.52c-0.36-0.55-0.671-1.13-0.921-1.73
	c-0.25-0.6-0.439-1.229-0.569-1.87c-0.13-0.649-0.19-1.3-0.19-1.96c0-0.649,0.061-1.3,0.19-1.949c0.13-0.641,0.319-1.271,0.569-1.87
	c0.25-0.601,0.561-1.181,0.921-1.73c0.369-0.54,0.779-1.05,1.25-1.52c0.46-0.46,0.97-0.88,1.52-1.24c0.54-0.36,1.12-0.67,1.72-0.92
	c0.601-0.25,1.23-0.44,1.87-0.57c1.29-0.26,2.62-0.26,3.91,0c0.64,0.13,1.27,0.32,1.87,0.57s1.18,0.56,1.729,0.92
	c0.54,0.36,1.061,0.78,1.521,1.24c0.46,0.47,0.88,0.979,1.24,1.52c0.359,0.55,0.67,1.13,0.92,1.73c0.25,0.6,0.44,1.229,0.569,1.87
	c0.131,0.649,0.2,1.3,0.2,1.949c0,0.66-0.069,1.31-0.2,1.96c-0.13,0.641-0.319,1.271-0.569,1.87c-0.25,0.601-0.56,1.181-0.92,1.73
	c-0.36,0.54-0.78,1.05-1.24,1.52c-0.46,0.46-0.98,0.87-1.521,1.24c-0.55,0.36-1.13,0.67-1.729,0.92s-1.23,0.44-1.87,0.57
	C377.37,124.551,376.71,124.61,376.06,124.61z"/>
<path d="M339.372,124.616H124.798c-5.522,0-10-4.478-10-10s4.478-10,10-10h214.574c5.522,0,10,4.478,10,10
	C349.372,120.139,344.895,124.616,339.372,124.616z"/>
<g>
</g>
<g>
</g>
<g>
</g>
<g>
</g>
<g>
</g>
<g>
</g>
<g>
</g>
<g>
</g>
<g>
</g>
<g>
</g>
<g>
</g>
<g>
</g>
<g>
</g>
<g>
</g>
<g>
</g>
</svg>
