<?xml version="1.0" encoding="iso-8859-1"?>
<!-- Generator: Adobe Illustrator 19.0.0, SVG Export Plug-In . SVG Version: 6.00 Build 0)  -->
<svg version="1.1" id="Capa_1" xmlns="http://www.w3.org/2000/svg" xmlns:xlink="http://www.w3.org/1999/xlink" x="0px" y="0px"
	 viewBox="0 0 512 512" style="enable-background:new 0 0 512 512;" xml:space="preserve">
<g>
	<polyline style="fill:#E7ECED;" points="21.59,150.073 21.59,412.03 115.101,412.03 115.101,190.094 	"/>
	<path style="fill:#E7ECED;" d="M115.101,110.052V56.755C115.101,30.933,94.168,10,68.345,10l0,0
		C42.523,10,21.59,30.933,21.59,56.755v93.318"/>
</g>
<path style="fill:#C4C6C9;" d="M174.753,190.094c14.461,49.348,60.068,85.387,114.092,85.387l0,0
	c65.653,0,118.875-53.222,118.875-118.875v-6.533h-71.543"/>
<path style="fill:#FDB845;" d="M336.177,150.073h92.741v-0.001C428.918,72.836,366.081,10,288.845,10
	c-63.336,0-116.988,42.254-134.249,100.052"/>
<path style="fill:#009D93;" d="M263.563,110.052H61.611c-22.103,0-40.021,17.918-40.021,40.021l0,0
	c0,22.103,17.918,40.021,40.021,40.021h201.952"/>
<rect x="174.1" y="327.1" style="fill:#FFD480;" width="229.49" height="84.931"/>
<path style="fill:#FDB845;" d="M115.101,412.03H21.59v-43.277c0-25.822,20.933-46.755,46.755-46.755l0,0
	c25.822,0,46.755,20.933,46.755,46.755L115.101,412.03L115.101,412.03z"/>
<circle style="fill:#E7ECED;" cx="288.85" cy="150.07" r="47.33"/>
<path style="fill:#009D93;" d="M490.41,502H21.59v-89.97h378.85C450.129,412.03,490.41,452.311,490.41,502L490.41,502z"/>
<path d="M203.63,160c-0.65,0-1.311-0.07-1.95-0.2c-0.64-0.13-1.27-0.32-1.87-0.57c-0.609-0.25-1.189-0.56-1.73-0.92
	c-0.55-0.359-1.061-0.779-1.52-1.24c-0.46-0.46-0.88-0.97-1.24-1.52c-0.359-0.54-0.67-1.12-0.92-1.73
	c-0.25-0.6-0.439-1.23-0.569-1.869c-0.13-0.641-0.2-1.301-0.2-1.95c0-0.65,0.07-1.311,0.2-1.95c0.13-0.64,0.319-1.27,0.569-1.88
	c0.25-0.601,0.561-1.18,0.92-1.72c0.36-0.551,0.78-1.061,1.24-1.52c0.46-0.46,0.971-0.88,1.52-1.24c0.54-0.37,1.12-0.67,1.73-0.92
	c0.601-0.25,1.23-0.45,1.87-0.58c1.29-0.25,2.62-0.25,3.91,0c0.63,0.13,1.26,0.33,1.87,0.58c0.6,0.25,1.18,0.55,1.72,0.92
	c0.55,0.36,1.061,0.78,1.52,1.24c0.46,0.46,0.88,0.97,1.25,1.52c0.359,0.54,0.67,1.119,0.92,1.72c0.25,0.61,0.439,1.24,0.569,1.88
	s0.19,1.3,0.19,1.95c0,0.649-0.061,1.31-0.19,1.95c-0.13,0.64-0.319,1.27-0.569,1.869c-0.25,0.61-0.561,1.19-0.92,1.73
	c-0.37,0.55-0.79,1.06-1.25,1.52c-0.46,0.461-0.971,0.881-1.52,1.24c-0.54,0.36-1.12,0.67-1.72,0.92c-0.61,0.25-1.24,0.44-1.87,0.57
	C204.939,159.93,204.28,160,203.63,160z"/>
<path d="M115.92,453.109c-0.65,0-1.311-0.069-1.95-0.199c-0.64-0.13-1.27-0.32-1.87-0.57c-0.609-0.25-1.189-0.56-1.729-0.92
	c-0.551-0.36-1.061-0.78-1.521-1.24c-0.46-0.46-0.88-0.97-1.24-1.52c-0.359-0.54-0.67-1.12-0.92-1.721
	c-0.25-0.609-0.439-1.239-0.569-1.88c-0.13-0.64-0.2-1.3-0.2-1.95c0-0.649,0.07-1.31,0.2-1.949c0.13-0.641,0.319-1.271,0.569-1.87
	c0.25-0.61,0.561-1.19,0.92-1.73c0.36-0.55,0.78-1.06,1.24-1.52s0.97-0.88,1.521-1.24c0.54-0.36,1.12-0.67,1.729-0.92
	c0.601-0.25,1.23-0.45,1.87-0.57c1.29-0.26,2.62-0.26,3.91,0c0.64,0.12,1.27,0.32,1.87,0.57c0.6,0.25,1.18,0.56,1.72,0.92
	c0.55,0.36,1.061,0.78,1.52,1.24c0.47,0.46,0.88,0.97,1.25,1.52c0.359,0.54,0.67,1.12,0.92,1.73c0.25,0.6,0.439,1.229,0.569,1.87
	c0.13,0.64,0.2,1.3,0.2,1.949c0,0.65-0.07,1.31-0.2,1.95c-0.13,0.641-0.319,1.271-0.569,1.88c-0.25,0.6-0.561,1.181-0.92,1.721
	c-0.37,0.55-0.79,1.06-1.25,1.52s-0.971,0.88-1.52,1.24c-0.54,0.36-1.12,0.67-1.72,0.92c-0.601,0.25-1.23,0.44-1.87,0.57
	C117.229,453.04,116.58,453.109,115.92,453.109z"/>
<path d="M413.59,402.892V327.1c0-5.523-4.478-10-10-10H174.1c-5.522,0-10,4.477-10,10v74.931h-38.999V200.094h42.4
	c8.38,23.293,23.596,44.094,43.41,59.16c22.566,17.158,49.516,26.228,77.934,26.228c69.903,0,126.985-55.943,128.829-125.409h11.245
	c5.522,0,10-4.478,10-10C438.918,67.322,371.596,0,288.845,0c-32.924,0-64.197,10.505-90.44,30.38
	c-23.368,17.698-41.296,42.23-51.056,69.673h-22.247V56.755C125.101,25.46,99.641,0,68.346,0S11.59,25.46,11.59,56.755V502
	c0,5.522,4.478,10,10,10h468.82c5.522,0,10-4.478,10-10C500.41,451.333,462.522,409.349,413.59,402.892z M184.1,372.333h152.078
	c5.522,0,10-4.478,10-10c0-5.523-4.478-10-10-10H184.1V337.1h209.49v64.931H184.1V372.333z M31.59,368.753
	c0-20.267,16.488-36.755,36.756-36.755c20.267,0,36.755,16.488,36.755,36.755v33.277H31.59V368.753z M105.101,325.54
	c-9.91-8.441-22.748-13.542-36.755-13.542S41.5,317.099,31.59,325.541V190.059c8.367,6.298,18.766,10.035,30.022,10.035h43.489
	C105.101,200.094,105.101,325.54,105.101,325.54z M240.017,120.053c-5.391,8.737-8.504,19.022-8.504,30.021
	s3.113,21.284,8.504,30.021H61.611c-13.077,0-24.228-8.404-28.335-20.095h133.689c5.523,0,10-4.477,10-10c0-5.522-4.477-10-10-10
	H33.329c4.149-11.613,15.261-19.946,28.282-19.946L240.017,120.053L240.017,120.053z M251.513,150.073
	c0-20.585,16.747-37.332,37.332-37.332c20.586,0,37.333,16.747,37.333,37.332s-16.747,37.332-37.333,37.332
	C268.26,187.405,251.513,170.658,251.513,150.073z M288.845,265.481c-43.44,0-82.738-26.301-99.836-65.388h29.517
	c15.057,24.311,41.547,39.21,70.32,39.21c32.142,0,61.632-18.899,75.131-48.148c2.314-5.015,0.125-10.956-4.89-13.271
	c-5.013-2.313-10.955-0.125-13.271,4.89c-10.24,22.19-32.603,36.529-56.971,36.529c-17.278,0-33.473-7.093-45.137-19.21h17.142
	c8.284,4.655,17.836,7.312,27.996,7.312c28.203,0,51.715-20.469,56.46-47.332h52.361
	C395.826,218.507,347.717,265.481,288.845,265.481z M288.845,20c68.357,0,124.566,53.008,129.692,120.073h-73.233
	c-4.744-26.863-28.257-47.332-56.46-47.332c-10.16,0-19.711,2.657-27.996,7.311H168.78C188.794,52.312,236.367,20,288.845,20z
	 M68.346,20c20.267,0,36.755,16.488,36.755,36.755v43.298h-43.49c-11.255,0-21.654,3.737-30.022,10.035V56.755
	C31.59,36.488,48.078,20,68.346,20z M31.59,492v-69.97h368.85c14.802,0,28.677,4.042,40.579,11.08H152.59c-5.522,0-10,4.477-10,10
	c0,5.522,4.478,10,10,10h311.096c8.551,11.037,14.283,24.364,16.103,38.89H31.59z"/>
<g>
</g>
<g>
</g>
<g>
</g>
<g>
</g>
<g>
</g>
<g>
</g>
<g>
</g>
<g>
</g>
<g>
</g>
<g>
</g>
<g>
</g>
<g>
</g>
<g>
</g>
<g>
</g>
<g>
</g>
</svg>
