<?xml version="1.0" encoding="iso-8859-1"?>
<!-- Generator: Adobe Illustrator 19.0.0, SVG Export Plug-In . SVG Version: 6.00 Build 0)  -->
<svg version="1.1" id="Capa_1" xmlns="http://www.w3.org/2000/svg" xmlns:xlink="http://www.w3.org/1999/xlink" x="0px" y="0px"
	 viewBox="0 0 512.001 512.001" style="enable-background:new 0 0 512.001 512.001;" xml:space="preserve">
<g>
	<rect x="77.984" y="274.46" style="fill:#FFD480;" width="125.24" height="107.62"/>
	<rect x="308.77" y="274.46" style="fill:#FFD480;" width="125.24" height="107.62"/>
</g>
<path style="fill:#8C9AA2;" d="M442.039,502.001H69.962C36.846,502.001,10,475.155,10,442.038l0,0
	c0-33.116,26.846-59.962,59.962-59.962h372.077c33.116,0,59.962,26.846,59.962,59.962l0,0
	C502.001,475.155,475.155,502.001,442.039,502.001z"/>
<g>
	<circle style="fill:#E7ECED;" cx="79" cy="442.04" r="32.02"/>
	<circle style="fill:#E7ECED;" cx="236.13" cy="442.04" r="32.02"/>
	<circle style="fill:#E7ECED;" cx="393.26" cy="442.04" r="32.02"/>
</g>
<g>
	<rect x="58.01" y="192.67" style="fill:#3ABEB6;" width="165.18" height="36.3"/>
	<rect x="288.81" y="192.67" style="fill:#3ABEB6;" width="165.18" height="36.3"/>
</g>
<g>
	<polyline style="fill:#E7ECED;" points="345.936,138.243 345.936,192.674 396.857,192.674 396.857,138.243 	"/>
	<polyline style="fill:#E7ECED;" points="115.144,138.243 115.144,192.674 166.065,192.674 166.065,138.243 	"/>
</g>
<rect x="21.18" y="10" style="fill:#009D93;" width="469.64" height="76.995"/>
<g>
	<path style="fill:#C4C6C9;" d="M315.377,86.996c-0.01,0.438-0.015,0.877-0.015,1.318c0,30.947,25.087,56.034,56.034,56.034
		s56.034-25.087,56.034-56.034c0-0.44-0.005-0.88-0.015-1.318C427.415,86.996,315.377,86.996,315.377,86.996z"/>
	<path style="fill:#C4C6C9;" d="M84.586,86.996c-0.01,0.438-0.015,0.877-0.015,1.318c0,30.947,25.087,56.034,56.034,56.034
		s56.034-25.087,56.034-56.034c0-0.44-0.005-0.88-0.015-1.318C196.624,86.996,84.586,86.996,84.586,86.996z"/>
</g>
<path d="M444.017,372.104V274.46c0-5.523-4.478-10-10-10H308.775c-5.522,0-10,4.477-10,10v97.616h-85.549V274.46
	c0-5.523-4.477-10-10-10H77.984c-5.523,0-10,4.477-10,10v97.644C30.318,373.155,0,404.123,0,442.038
	C0,480.615,31.385,512,69.962,512h372.076c38.578,0,69.963-31.385,69.963-69.962C512.002,404.123,481.684,373.155,444.017,372.104z
	 M424.017,360.943l-38.027-32.675l38.027-32.675V360.943z M370.851,315.26l-35.844-30.8h71.689L370.851,315.26z M355.712,328.268
	l-36.938,31.739v-63.478L355.712,328.268z M370.851,341.276l35.844,30.8h-71.689L370.851,341.276z M156.288,328.268l36.938-31.74
	v63.479L156.288,328.268z M141.15,315.26l-35.845-30.8h71.689L141.15,315.26z M126.011,328.268l-38.027,32.676v-65.351
	L126.011,328.268z M141.15,341.276l35.844,30.8h-71.689L141.15,341.276z M442.039,492.001H69.962
	C42.413,492.001,20,469.588,20,442.038c0-27.549,22.413-49.962,49.962-49.962h372.076c27.55,0,49.963,22.413,49.963,49.962
	C492.002,469.588,469.588,492.001,442.039,492.001z"/>
<path d="M150.757,415.397c-5.523,0-10,4.477-10,10v6.642H119.82c-4.498-18.359-21.093-32.021-40.819-32.021
	c-23.171,0-42.021,18.851-42.021,42.021c0,23.17,18.851,42.021,42.021,42.021c19.726,0,36.32-13.662,40.819-32.021h20.938v6.642
	c0,5.523,4.477,10,10,10s10-4.477,10-10v-33.283C160.757,419.874,156.28,415.397,150.757,415.397z M79.001,464.059
	c-12.143,0-22.021-9.878-22.021-22.021s9.879-22.021,22.021-22.021s22.021,9.878,22.021,22.021S91.144,464.059,79.001,464.059z"/>
<path d="M307.889,415.397c-5.522,0-10,4.477-10,10v6.642h-20.938c-4.498-18.359-21.093-32.021-40.819-32.021
	c-23.17,0-42.021,18.851-42.021,42.021c0,23.17,18.851,42.021,42.021,42.021c19.726,0,36.32-13.662,40.819-32.021h20.938v6.642
	c0,5.523,4.478,10,10,10s10-4.477,10-10v-33.283C317.889,419.874,313.412,415.397,307.889,415.397z M236.133,464.059
	c-12.143,0-22.021-9.878-22.021-22.021s9.878-22.021,22.021-22.021c12.143,0,22.021,9.878,22.021,22.021
	S248.275,464.059,236.133,464.059z"/>
<path d="M465.021,415.397c-5.523,0-10,4.477-10,10v6.642h-20.938c-4.498-18.359-21.093-32.021-40.818-32.021
	c-23.171,0-42.021,18.851-42.021,42.021c0,23.17,18.851,42.021,42.021,42.021c19.725,0,36.32-13.662,40.818-32.021h20.938v6.642
	c0,5.523,4.477,10,10,10c5.522,0,10-4.477,10-10v-33.283C475.021,419.874,470.544,415.397,465.021,415.397z M393.265,464.059
	c-12.142,0-22.021-9.878-22.021-22.021s9.879-22.021,22.021-22.021c12.143,0,22.021,9.878,22.021,22.021
	S405.408,464.059,393.265,464.059z"/>
<path d="M21.178,96.996h53.961c2.603,19.729,13.949,36.741,30.006,47.002v38.676h-47.13c-5.523,0-10,4.477-10,10v36.297
	c0,5.523,4.477,10,10,10h165.182c5.523,0,10-4.477,10-10v-36.297c0-5.523-4.477-10-10-10h-47.13v-38.676
	c16.057-10.261,27.403-27.273,30.005-47.002h99.86c2.603,19.729,13.949,36.741,30.006,47.002v38.676h-47.131
	c-5.523,0-10,4.477-10,10v36.297c0,5.523,4.477,10,10,10h165.182c5.522,0,10-4.477,10-10v-36.297c0-5.523-4.478-10-10-10h-47.13
	v-38.676c16.057-10.261,27.402-27.272,30.005-47.001h53.961c5.522,0,10-4.477,10-10V10.001c0-5.523-4.478-10-10-10H21.178
	c-5.523,0-10,4.477-10,10v76.995C11.178,92.519,15.655,96.996,21.178,96.996z M213.196,218.97H68.014v-16.297h145.182
	L213.196,218.97L213.196,218.97z M156.065,182.674h-30.921V152.52c4.961,1.194,10.138,1.828,15.46,1.828s10.5-0.633,15.46-1.828
	L156.065,182.674L156.065,182.674z M140.605,134.348c-22.416,0-41.142-16.104-45.213-37.352h90.426
	C181.747,118.243,163.022,134.348,140.605,134.348z M443.987,218.97H298.805v-16.297h145.182V218.97z M386.857,182.674h-30.921
	V152.52c4.961,1.194,10.138,1.828,15.46,1.828s10.5-0.633,15.461-1.828V182.674z M371.396,134.348
	c-22.416,0-41.142-16.104-45.213-37.352h90.426C412.538,118.243,393.812,134.348,371.396,134.348z M480.823,20.001v56.995H31.178
	V58.498H405.62c5.522,0,10-4.477,10-10s-4.478-10-10-10H31.178V20.001H480.823z"/>
<path d="M441.161,58.501c-0.66,0-1.311-0.07-1.96-0.2c-0.641-0.13-1.271-0.32-1.87-0.57c-0.601-0.25-1.181-0.56-1.73-0.92
	c-0.54-0.36-1.05-0.78-1.52-1.24c-0.46-0.46-0.88-0.97-1.24-1.52c-0.36-0.54-0.67-1.12-0.92-1.73c-0.25-0.6-0.44-1.23-0.57-1.87
	s-0.2-1.3-0.2-1.95s0.07-1.31,0.2-1.96c0.13-0.63,0.32-1.26,0.57-1.87c0.25-0.6,0.56-1.18,0.92-1.72c0.36-0.55,0.78-1.06,1.24-1.52
	c0.47-0.46,0.979-0.88,1.52-1.25c0.55-0.36,1.13-0.67,1.73-0.92s1.229-0.44,1.87-0.57c1.29-0.26,2.619-0.26,3.909,0
	c0.641,0.13,1.271,0.32,1.87,0.57c0.601,0.25,1.181,0.56,1.73,0.92c0.54,0.37,1.06,0.79,1.52,1.25s0.87,0.97,1.24,1.52
	c0.36,0.54,0.67,1.12,0.92,1.72c0.25,0.61,0.441,1.24,0.57,1.87c0.13,0.65,0.189,1.31,0.189,1.96c0,0.65-0.06,1.31-0.189,1.95
	c-0.13,0.64-0.32,1.27-0.57,1.87c-0.25,0.61-0.559,1.19-0.92,1.73c-0.37,0.55-0.78,1.06-1.24,1.52s-0.979,0.88-1.52,1.24
	c-0.55,0.36-1.13,0.67-1.73,0.92s-1.229,0.44-1.87,0.57C442.47,58.43,441.81,58.501,441.161,58.501z"/>
<g>
</g>
<g>
</g>
<g>
</g>
<g>
</g>
<g>
</g>
<g>
</g>
<g>
</g>
<g>
</g>
<g>
</g>
<g>
</g>
<g>
</g>
<g>
</g>
<g>
</g>
<g>
</g>
<g>
</g>
</svg>
