<?xml version="1.0" encoding="iso-8859-1"?>
<!-- Generator: Adobe Illustrator 19.0.0, SVG Export Plug-In . SVG Version: 6.00 Build 0)  -->
<svg version="1.1" id="Capa_1" xmlns="http://www.w3.org/2000/svg" xmlns:xlink="http://www.w3.org/1999/xlink" x="0px" y="0px"
	 viewBox="0 0 512 512" style="enable-background:new 0 0 512 512;" xml:space="preserve">
<rect x="10.825" y="424.03" style="fill:#8C9AA2;" width="490.35" height="77.97"/>
<path d="M70.57,473.44c-2.64,0-5.21-1.06-7.07-2.92c-1.87-1.87-2.93-4.44-2.93-7.08c0-0.65,0.06-1.3,0.19-1.95
	c0.13-0.64,0.32-1.27,0.57-1.87s0.56-1.18,0.92-1.73c0.37-0.54,0.78-1.06,1.25-1.52c2.32-2.32,5.77-3.38,9.02-2.73
	c0.64,0.13,1.27,0.32,1.87,0.57c0.6,0.25,1.19,0.56,1.73,0.92c0.55,0.37,1.06,0.78,1.52,1.24s0.88,0.98,1.24,1.52
	c0.36,0.55,0.67,1.13,0.92,1.73s0.44,1.23,0.57,1.87c0.13,0.65,0.2,1.3,0.2,1.95c0,2.64-1.07,5.22-2.93,7.08
	c-0.46,0.46-0.97,0.87-1.52,1.24c-0.54,0.36-1.13,0.67-1.73,0.92c-0.6,0.25-1.23,0.44-1.87,0.57
	C71.88,473.38,71.22,473.44,70.57,473.44z"/>
<rect x="183.28" y="215.12" style="fill:#E7ECED;" width="145.43" height="36.35"/>
<rect x="363.1" y="316.25" style="fill:#FDB845;" width="125.43" height="107.78"/>
<g>
	<rect x="193.28" y="316.25" style="fill:#FFD480;" width="125.43" height="107.78"/>
	<rect x="23.471" y="316.25" style="fill:#FFD480;" width="125.43" height="107.78"/>
</g>
<rect x="353.1" y="279.9" style="fill:#E7ECED;" width="145.43" height="36.35"/>
<polyline style="fill:#8C9AA2;" points="230.501,138.434 230.501,186.681 256,215.117 281.499,186.681 281.499,138.434 "/>
<rect x="10.825" y="10" style="fill:#009D93;" width="490.35" height="77.11"/>
<path style="fill:#C4C6C9;" d="M199.897,87.111c-0.01,0.439-0.015,0.878-0.015,1.32c0,30.993,25.125,56.119,56.119,56.119
	s56.119-25.125,56.119-56.119c0-0.441-0.005-0.881-0.016-1.32H199.897z"/>
<path d="M501.175,414.03h-2.646v-87.778c5.523,0,10-4.477,10-10v-36.351c0-5.523-4.477-10-10-10H353.1c-5.523,0-10,4.477-10,10
	v36.351c0,5.523,4.477,10,10,10v87.778h-24.385v-97.778c0-5.523-4.477-10-10-10h-125.43c-5.523,0-10,4.477-10,10v97.778H158.9
	v-97.778c0-5.523-4.477-10-10-10H23.471c-5.523,0-10,4.477-10,10v97.778h-2.646c-5.523,0-10,4.477-10,10V502c0,5.523,4.477,10,10,10
	h490.35c5.523,0,10-4.477,10-10v-77.97C511.175,418.507,506.698,414.03,501.175,414.03z M363.1,289.901h125.429v16.351h-125.41
	c-0.006,0-0.013,0-0.019,0L363.1,289.901L363.1,289.901z M410.47,370.141l-37.37,32.112V338.03L410.47,370.141z M390.081,326.252
	h71.466l-35.733,30.704L390.081,326.252z M425.814,383.326l35.733,30.704h-71.466L425.814,383.326z M441.158,370.141l37.371-32.112
	v64.224L441.158,370.141z M256,356.957l-35.733-30.705h71.467L256,356.957z M308.715,338.03v64.224l-37.371-32.112L308.715,338.03z
	 M240.656,370.141l-37.371,32.112V338.03L240.656,370.141z M256,383.326l35.733,30.705h-71.467L256,383.326z M86.186,356.957
	l-35.733-30.704h71.466L86.186,356.957z M138.9,338.03v64.224l-37.371-32.112L138.9,338.03z M70.842,370.141l-37.371,32.112V338.03
	L70.842,370.141z M86.186,383.326l35.733,30.704H50.453L86.186,383.326z M491.175,453.445H106.156c-5.523,0-10,4.477-10,10
	s4.477,10,10,10h385.018V492H20.825v-57.97h470.35L491.175,453.445L491.175,453.445z"/>
<path d="M501.175,0H10.825c-5.523,0-10,4.477-10,10v77.111c0,5.523,4.477,10,10,10h179.624
	c2.603,19.763,13.968,36.803,30.052,47.079v42.491c0,2.464,0.91,4.841,2.555,6.676l10.546,11.761h-50.317c-5.523,0-10,4.477-10,10
	v36.351c0,5.523,4.477,10,10,10h145.43c5.523,0,10-4.477,10-10v-36.351c0-5.523-4.477-10-10-10h-50.317l10.546-11.761
	c1.645-1.834,2.555-4.212,2.555-6.676V144.19c16.085-10.276,27.449-27.316,30.053-47.079h179.624c5.523,0,10-4.477,10-10V10
	C511.175,4.477,506.698,0,501.175,0z M318.715,225.117v16.351h-125.43v-16.351H318.715z M240.501,182.854v-30.14
	c4.973,1.199,10.163,1.835,15.499,1.835c5.336,0,10.526-0.636,15.499-1.835v30.14L256,200.138L240.501,182.854z M256,134.549
	c-22.464,0-41.227-16.143-45.299-37.438H301.3C297.228,118.406,278.464,134.549,256,134.549z M491.175,77.111H20.825V58.555h385.019
	c5.523,0,10-4.477,10-10s-4.477-10-10-10H20.825V20h470.35L491.175,77.111L491.175,77.111z"/>
<path d="M441.43,58.55c-0.65,0-1.3-0.06-1.95-0.19c-0.64-0.13-1.27-0.32-1.87-0.57s-1.19-0.56-1.73-0.92
	c-0.55-0.37-1.06-0.78-1.52-1.24c-1.86-1.86-2.93-4.44-2.93-7.07c0-0.66,0.07-1.31,0.2-1.96c0.13-0.64,0.32-1.27,0.57-1.87
	s0.56-1.18,0.92-1.73c0.36-0.54,0.78-1.05,1.24-1.52c0.46-0.46,0.97-0.87,1.52-1.24c0.54-0.36,1.13-0.67,1.73-0.92
	s1.23-0.44,1.87-0.57c3.25-0.65,6.7,0.41,9.02,2.73c0.46,0.47,0.88,0.98,1.25,1.52c0.36,0.55,0.67,1.13,0.92,1.73
	s0.44,1.23,0.57,1.87c0.13,0.65,0.19,1.3,0.19,1.96c0,2.63-1.06,5.21-2.93,7.07C446.64,57.49,444.07,58.55,441.43,58.55z"/>
<g>
</g>
<g>
</g>
<g>
</g>
<g>
</g>
<g>
</g>
<g>
</g>
<g>
</g>
<g>
</g>
<g>
</g>
<g>
</g>
<g>
</g>
<g>
</g>
<g>
</g>
<g>
</g>
<g>
</g>
</svg>
