<?xml version="1.0" encoding="iso-8859-1"?>
<!-- Generator: Adobe Illustrator 19.0.0, SVG Export Plug-In . SVG Version: 6.00 Build 0)  -->
<svg version="1.1" id="Capa_1" xmlns="http://www.w3.org/2000/svg" xmlns:xlink="http://www.w3.org/1999/xlink" x="0px" y="0px"
	 viewBox="0 0 512.001 512.001" style="enable-background:new 0 0 512.001 512.001;" xml:space="preserve">
<rect x="182" y="64.946" style="fill:#009D93;" width="147.99" height="72.66"/>
<g>
	<path style="fill:#E7ECED;" d="M311.141,64.946C311.036,34.582,286.389,10,256.001,10l0,0c-30.388,0-55.035,24.582-55.14,54.945
		H311.141z"/>
	<rect x="200.86" y="137.6" style="fill:#E7ECED;" width="110.28" height="274.43"/>
</g>
<rect x="330" y="64.946" style="fill:#3ABEB6;" width="147.99" height="72.66"/>
<g>
	<path style="fill:#E7ECED;" d="M459.133,64.946C459.028,34.582,434.381,10,403.993,10l0,0c-30.388,0-55.035,24.582-55.14,54.945
		H459.133z"/>
	<rect x="348.85" y="137.6" style="fill:#E7ECED;" width="110.28" height="274.43"/>
</g>
<rect x="34.01" y="64.946" style="fill:#3ABEB6;" width="147.99" height="72.66"/>
<g>
	<path style="fill:#E7ECED;" d="M163.149,64.946C163.044,34.582,138.397,10,108.009,10l0,0c-30.388,0-55.035,24.582-55.14,54.945
		H163.149z"/>
	<rect x="52.868" y="137.6" style="fill:#E7ECED;" width="110.28" height="274.43"/>
</g>
<rect x="52.868" y="339" style="fill:#FDB845;" width="110.28" height="73.03"/>
<rect x="200.86" y="339" style="fill:#FFD480;" width="110.28" height="73.03"/>
<rect x="348.85" y="339" style="fill:#FDB845;" width="110.28" height="73.03"/>
<path d="M256.001,268.12c-0.65,0-1.31-0.07-1.95-0.2s-1.27-0.32-1.87-0.57c-0.61-0.25-1.19-0.56-1.73-0.92
	c-0.55-0.36-1.06-0.78-1.52-1.24c-1.86-1.86-2.93-4.44-2.93-7.07c0-2.64,1.07-5.22,2.93-7.07c0.46-0.47,0.97-0.88,1.52-1.25
	c0.54-0.36,1.12-0.67,1.73-0.92c0.6-0.25,1.23-0.44,1.87-0.57c1.29-0.26,2.62-0.26,3.9,0c0.64,0.13,1.27,0.32,1.869,0.57
	c0.61,0.25,1.19,0.56,1.73,0.92c0.55,0.37,1.06,0.78,1.52,1.25c1.86,1.86,2.931,4.43,2.931,7.07c0,2.63-1.07,5.211-2.931,7.07
	c-0.46,0.46-0.97,0.88-1.52,1.24c-0.54,0.36-1.12,0.67-1.73,0.92c-0.6,0.25-1.229,0.44-1.869,0.57
	C257.31,268.051,256.65,268.12,256.001,268.12z"/>
<path style="fill:#8C9AA2;" d="M54.985,412.031h402.031c24.844,0,44.985,20.14,44.985,44.985l0,0
	c0,24.844-20.141,44.985-44.985,44.985H54.985C30.14,502.001,10,481.859,10,457.016l0,0C10,432.171,30.14,412.031,54.985,412.031z"
	/>
<path d="M453.283,467.016h-51.467c-5.522,0-10-4.477-10-10s4.478-10,10-10h51.467c5.522,0,10,4.477,10,10
	S458.805,467.016,453.283,467.016z"/>
<path d="M366.281,467.021c-0.65,0-1.311-0.07-1.961-0.2c-0.63-0.13-1.26-0.32-1.869-0.57c-0.601-0.25-1.181-0.56-1.721-0.92
	c-0.55-0.37-1.06-0.78-1.52-1.24c-0.46-0.47-0.88-0.98-1.25-1.52c-0.36-0.55-0.66-1.13-0.91-1.73s-0.45-1.23-0.57-1.87
	c-0.13-0.65-0.199-1.3-0.199-1.95c0-0.66,0.069-1.31,0.199-1.96c0.12-0.64,0.32-1.27,0.57-1.87s0.55-1.18,0.91-1.73
	c0.37-0.54,0.79-1.06,1.25-1.52s0.97-0.88,1.52-1.24c0.54-0.36,1.12-0.67,1.721-0.92c0.609-0.25,1.239-0.44,1.869-0.57
	c1.29-0.26,2.62-0.26,3.91,0c0.641,0.13,1.271,0.32,1.87,0.57c0.61,0.25,1.19,0.56,1.73,0.92c0.55,0.36,1.059,0.78,1.52,1.24
	c0.46,0.47,0.88,0.98,1.24,1.52c0.36,0.55,0.67,1.13,0.92,1.73s0.44,1.23,0.57,1.87c0.13,0.65,0.2,1.3,0.2,1.96
	c0,2.63-1.07,5.2-2.931,7.07c-0.46,0.46-0.97,0.87-1.52,1.24c-0.54,0.36-1.12,0.67-1.73,0.92c-0.6,0.25-1.23,0.44-1.87,0.57
	C367.59,466.95,366.93,467.021,366.281,467.021z"/>
<path d="M299.502,467.016h-51.466c-5.523,0-10-4.477-10-10s4.477-10,10-10h51.466c5.522,0,10,4.477,10,10
	S305.024,467.016,299.502,467.016z"/>
<path d="M212.501,467.021c-0.65,0-1.31-0.07-1.96-0.2c-0.63-0.13-1.26-0.32-1.87-0.57c-0.6-0.25-1.18-0.56-1.72-0.92
	c-0.55-0.36-1.06-0.78-1.52-1.24s-0.88-0.98-1.25-1.52c-0.36-0.55-0.66-1.13-0.91-1.73s-0.45-1.23-0.58-1.87
	c-0.13-0.65-0.19-1.3-0.19-1.96c0-0.65,0.06-1.3,0.19-1.95c0.13-0.64,0.33-1.27,0.58-1.87s0.55-1.18,0.91-1.73
	c0.37-0.54,0.79-1.05,1.25-1.52c0.46-0.46,0.97-0.87,1.52-1.24c0.54-0.36,1.12-0.67,1.72-0.92c0.61-0.25,1.24-0.44,1.87-0.57
	c1.29-0.26,2.62-0.26,3.91,0c0.64,0.13,1.27,0.32,1.87,0.57c0.61,0.25,1.19,0.56,1.73,0.92c0.55,0.37,1.06,0.78,1.52,1.24
	c0.46,0.47,0.88,0.98,1.24,1.52c0.36,0.55,0.67,1.13,0.92,1.73s0.44,1.23,0.57,1.87c0.13,0.65,0.2,1.3,0.2,1.95
	c0,0.66-0.07,1.31-0.2,1.96c-0.13,0.64-0.32,1.27-0.57,1.87s-0.56,1.18-0.92,1.73c-0.36,0.54-0.78,1.05-1.24,1.52
	c-0.46,0.46-0.97,0.88-1.52,1.24c-0.54,0.36-1.12,0.67-1.73,0.92c-0.6,0.25-1.23,0.44-1.87,0.57
	C213.811,466.95,213.15,467.021,212.501,467.021z"/>
<path d="M145.721,467.016H94.254c-5.523,0-10-4.477-10-10s4.477-10,10-10h51.467c5.523,0,10,4.477,10,10
	S151.244,467.016,145.721,467.016z"/>
<path d="M58.72,467.01c-0.65,0-1.31-0.06-1.96-0.19c-0.63-0.13-1.26-0.32-1.87-0.57c-0.6-0.25-1.18-0.56-1.72-0.92
	c-0.55-0.37-1.06-0.78-1.52-1.24c-0.46-0.47-0.88-0.98-1.25-1.52c-0.36-0.55-0.67-1.13-0.92-1.73s-0.44-1.23-0.57-1.87
	c-0.13-0.65-0.19-1.3-0.19-1.95c0-0.66,0.06-1.31,0.19-1.96c0.13-0.64,0.32-1.27,0.57-1.87s0.56-1.18,0.92-1.73
	c0.37-0.54,0.79-1.06,1.25-1.52s0.97-0.88,1.52-1.24c0.54-0.36,1.12-0.67,1.72-0.92c0.61-0.25,1.24-0.44,1.87-0.57
	c1.29-0.26,2.62-0.26,3.91,0c0.64,0.13,1.27,0.32,1.87,0.57c0.61,0.25,1.19,0.56,1.73,0.92c0.55,0.36,1.06,0.78,1.52,1.24
	s0.88,0.98,1.24,1.52c0.36,0.55,0.67,1.13,0.92,1.73s0.44,1.23,0.57,1.87c0.13,0.65,0.2,1.3,0.2,1.96c0,0.65-0.07,1.3-0.2,1.95
	c-0.13,0.64-0.32,1.27-0.57,1.87s-0.56,1.18-0.92,1.73c-0.36,0.54-0.78,1.05-1.24,1.52c-0.46,0.46-0.97,0.87-1.52,1.24
	c-0.54,0.36-1.12,0.67-1.73,0.92c-0.6,0.25-1.23,0.44-1.87,0.57C60.03,466.95,59.37,467.01,58.72,467.01z"/>
<polygon style="fill:#C4C6C9;" points="86.34,137.6 86.34,203.619 102.78,221.309 113.238,221.309 129.678,203.619 129.678,137.6 
	"/>
<polygon style="fill:#8C9AA2;" points="234.331,137.6 234.331,203.619 250.771,221.309 261.23,221.309 277.67,203.619 277.67,137.6 
	"/>
<polygon style="fill:#C4C6C9;" points="382.323,137.6 382.323,203.619 398.763,221.309 409.221,221.309 425.661,203.619 
	425.661,137.6 "/>
<path d="M469.133,403.376V147.6h8.854c5.522,0,10-4.477,10-10V64.946c0-5.523-4.478-10-10-10h-9.654
	C463.416,23.868,436.397,0,403.991,0c-32.407,0-59.425,23.867-64.341,54.945h-19.308C315.425,23.868,288.406,0,256,0
	s-59.425,23.867-64.342,54.945H172.35C167.433,23.868,140.414,0,108.008,0S48.583,23.868,43.666,54.945h-9.654
	c-5.523,0-10,4.477-10,10V137.6c0,5.523,4.477,10,10,10h8.854v255.776C18.359,408.91,0,430.859,0,457.016
	C0,487.335,24.666,512,54.985,512h402.031c30.319,0,54.985-24.666,54.985-54.985C512.002,430.859,493.643,408.91,469.133,403.376z
	 M358.851,349.001h90.282v53.03h-90.282V349.001z M358.851,329.001v-181.4h13.472v56.019c0,2.526,0.956,4.958,2.675,6.808
	l16.44,17.689c0.746,0.802,1.61,1.467,2.554,1.98v17.293c0,5.523,4.478,10,10,10s10-4.477,10-10v-17.292
	c0.944-0.512,1.809-1.178,2.555-1.98l16.44-17.689c1.719-1.85,2.675-4.282,2.675-6.808v-56.019h13.472v181.4h-90.283V329.001z
	 M404.863,211.309h-1.741l-10.799-11.619V147.6h23.339v52.089L404.863,211.309z M403.993,20c21.355,0,39.335,14.958,43.977,34.945
	h-87.954C364.657,34.958,382.636,20,403.993,20z M339.997,74.946h127.991v52.655H339.997V74.946z M321.141,147.6h17.71v254.43
	h-17.71V147.6z M256.001,20c21.355,0,39.336,14.958,43.978,34.945h-87.955C216.665,34.958,234.645,20,256.001,20z M192.005,74.946
	h127.992v52.655H192.005V74.946z M266.001,329.001v-34.218c0-5.523-4.478-10-10-10c-5.523,0-10,4.477-10,10v34.218H210.86v-181.4
	h13.472v56.019c0,2.525,0.956,4.958,2.675,6.808l16.439,17.689c1.892,2.036,4.546,3.192,7.325,3.192h10.459
	c2.779,0,5.434-1.157,7.325-3.192l16.439-17.689c1.719-1.85,2.675-4.282,2.675-6.808v-56.019h13.472v181.4H266.001z
	 M301.141,349.001v53.03H266v-53.03H301.141z M246.001,349.001v53.03H210.86v-53.03H246.001z M244.332,199.69V147.6h23.338v52.09
	l-10.798,11.619h-1.742L244.332,199.69z M173.15,147.6h17.709v254.43H173.15V147.6z M62.868,349.001h90.282v53.03H62.868V349.001z
	 M62.868,329.001v-181.4H76.34v56.019c0,2.525,0.955,4.958,2.675,6.808l16.44,17.689c0.746,0.803,1.61,1.468,2.554,1.98v17.292
	c0,5.523,4.477,10,10,10s10-4.477,10-10v-17.292c0.944-0.512,1.809-1.178,2.555-1.98l16.439-17.689
	c1.719-1.85,2.675-4.282,2.675-6.808v-56.019h13.472v181.4L62.868,329.001L62.868,329.001z M108.88,211.309h-1.742L96.34,199.69
	V147.6h23.338v52.09L108.88,211.309z M108.009,20c21.356,0,39.336,14.958,43.978,34.945H64.031C68.673,34.958,86.653,20,108.009,20z
	 M44.013,74.946h127.992v52.655H44.013V74.946z M457.016,492.001H54.985C35.694,492.001,20,476.306,20,457.016
	s15.694-34.985,34.985-34.985h402.031c19.291,0,34.985,15.694,34.985,34.985C492.002,476.306,476.307,492.001,457.016,492.001z"/>
<g>
</g>
<g>
</g>
<g>
</g>
<g>
</g>
<g>
</g>
<g>
</g>
<g>
</g>
<g>
</g>
<g>
</g>
<g>
</g>
<g>
</g>
<g>
</g>
<g>
</g>
<g>
</g>
<g>
</g>
</svg>
