<?xml version="1.0" encoding="iso-8859-1"?>
<!-- Generator: Adobe Illustrator 19.0.0, SVG Export Plug-In . SVG Version: 6.00 Build 0)  -->
<svg version="1.1" id="Capa_1" xmlns="http://www.w3.org/2000/svg" xmlns:xlink="http://www.w3.org/1999/xlink" x="0px" y="0px"
	 viewBox="0 0 512 512" style="enable-background:new 0 0 512 512;" xml:space="preserve">
<rect x="143.279" y="276.98" style="fill:#FFD480;" width="225.43" height="147.78"/>
<rect x="163.139" y="87.24" style="fill:#009D93;" width="185.72" height="68.972"/>
<polygon style="fill:#FDB845;" points="388.926,211.904 123.073,211.904 123.106,156.212 388.892,156.212 "/>
<rect x="39.999" y="10" style="fill:#C4C6C9;" width="432" height="77.24"/>
<path d="M471.998,0H40c-5.522,0-10,4.477-10,10v77.24c0,5.523,4.478,10,10,10h113.14v48.972h-30.033c-5.521,0-9.997,4.474-10,9.994
	l-0.028,45.699h-11.656c-5.522,0-10,4.477-10,10s4.478,10,10,10h309.154c5.523,0,10-4.477,10-10s-4.477-10-10-10h-11.656
	l-0.028-45.699c-0.003-5.52-4.48-9.994-10-9.994H358.86V97.24H472c5.523,0,10-4.477,10-10V10C481.998,4.477,477.521,0,471.998,0z
	 M378.92,201.904H133.078l0.022-35.692h245.797L378.92,201.904z M338.858,146.212h-72.859v-21.465c0-5.523-4.478-10-10-10
	c-5.523,0-10,4.477-10,10v21.465H173.14V97.24h165.719L338.858,146.212L338.858,146.212z M461.998,77.24H50V58.62h340.531
	c5.522,0,10-4.477,10-10s-4.478-10-10-10H50V20h411.998V77.24z"/>
<path d="M426.179,58.62c-0.649,0-1.31-0.059-1.95-0.19c-0.64-0.13-1.27-0.33-1.87-0.58c-0.609-0.25-1.19-0.56-1.729-0.92
	c-0.55-0.36-1.061-0.78-1.521-1.24c-0.46-0.46-0.88-0.97-1.239-1.52c-0.36-0.54-0.67-1.12-0.92-1.73c-0.25-0.6-0.45-1.23-0.57-1.87
	c-0.13-0.64-0.2-1.3-0.2-1.95s0.07-1.31,0.2-1.95c0.12-0.64,0.32-1.27,0.57-1.87c0.25-0.61,0.56-1.19,0.92-1.73
	c0.359-0.55,0.779-1.06,1.239-1.52c0.46-0.46,0.971-0.88,1.521-1.24c0.54-0.36,1.12-0.671,1.729-0.921
	c0.601-0.25,1.23-0.45,1.87-0.57c1.29-0.26,2.62-0.26,3.91,0c0.63,0.12,1.26,0.32,1.87,0.57c0.6,0.25,1.18,0.56,1.72,0.921
	c0.551,0.36,1.061,0.78,1.521,1.24c1.859,1.86,2.93,4.44,2.93,7.07c0,0.65-0.06,1.31-0.189,1.95c-0.131,0.64-0.32,1.27-0.57,1.87
	c-0.25,0.61-0.56,1.19-0.92,1.73c-0.37,0.55-0.79,1.06-1.25,1.52s-0.97,0.88-1.521,1.24c-0.54,0.36-1.12,0.67-1.72,0.92
	c-0.61,0.25-1.24,0.45-1.87,0.58C427.489,58.56,426.829,58.62,426.179,58.62z"/>
<rect x="39.999" y="424.76" style="fill:#8C9AA2;" width="432" height="77.24"/>
<path d="M84.639,473.38c-0.649,0-1.31-0.06-1.95-0.19s-1.27-0.33-1.87-0.58c-0.609-0.25-1.189-0.56-1.729-0.92
	c-0.55-0.36-1.06-0.78-1.521-1.24c-0.46-0.46-0.88-0.97-1.239-1.52c-0.36-0.54-0.67-1.12-0.92-1.73c-0.25-0.6-0.44-1.23-0.57-1.87
	c-0.13-0.64-0.2-1.3-0.2-1.95c0-0.65,0.07-1.31,0.2-1.95c0.13-0.64,0.32-1.27,0.57-1.88c0.25-0.6,0.56-1.18,0.92-1.72
	c0.359-0.55,0.779-1.06,1.239-1.52c0.461-0.46,0.971-0.88,1.521-1.24c0.54-0.36,1.12-0.67,1.729-0.92
	c0.601-0.25,1.23-0.45,1.87-0.57c1.29-0.26,2.62-0.26,3.91,0c0.63,0.12,1.26,0.32,1.87,0.57c0.6,0.25,1.18,0.56,1.72,0.92
	c0.551,0.36,1.061,0.78,1.521,1.24s0.88,0.97,1.24,1.52c0.359,0.54,0.67,1.12,0.92,1.72c0.25,0.61,0.449,1.24,0.569,1.88
	c0.13,0.64,0.2,1.3,0.2,1.95c0,0.65-0.07,1.31-0.2,1.95c-0.12,0.64-0.319,1.27-0.569,1.87c-0.25,0.61-0.561,1.19-0.92,1.73
	c-0.36,0.55-0.78,1.06-1.24,1.52C89.849,472.31,87.269,473.38,84.639,473.38z"/>
<g>
	<path style="fill:#3ABEB6;" d="M419.999,424.76h-51.285v-46.579c0-14.162,11.481-25.643,25.643-25.643l0,0
		c14.162,0,25.643,11.481,25.643,25.643v46.579H419.999z"/>
	<path style="fill:#3ABEB6;" d="M143.284,424.76H91.999v-46.579c0-14.162,11.481-25.643,25.643-25.643l0,0
		c14.162,0,25.643,11.481,25.643,25.643L143.284,424.76L143.284,424.76z"/>
</g>
<path d="M471.998,414.76h-41.999v-36.579c0-19.653-15.989-35.643-35.643-35.643c-5.608,0-10.917,1.302-15.643,3.62v-69.177
	c0-5.523-4.478-10-10-10h-225.43c-5.523,0-10,4.477-10,10v69.177c-4.725-2.318-10.035-3.62-15.643-3.62
	c-19.652,0.001-35.641,15.99-35.641,35.643v36.579H40c-5.522,0-10,4.477-10,10V502c0,5.523,4.478,10,10,10h431.998
	c5.523,0,10-4.477,10-10v-77.24C481.998,419.237,477.521,414.76,471.998,414.76z M394.356,362.539
	c8.625,0,15.643,7.017,15.643,15.643v36.579h-31.285v-36.579C378.714,369.556,385.731,362.539,394.356,362.539z M358.714,406.247
	l-84.475-55.376l84.475-55.376V406.247z M335.219,414.76h-158.44l79.22-51.932L335.219,414.76z M335.219,286.982l-79.22,51.932
	l-79.22-51.932H335.219z M153.284,295.495l84.475,55.376l-84.475,55.376V295.495z M101.999,378.181
	c0-8.626,7.018-15.643,15.643-15.643s15.643,7.017,15.643,15.643v36.579h-31.286V378.181z M50,492v-57.24h411.998v18.62H120.29
	c-5.522,0-10,4.477-10,10s4.478,10,10,10h341.708V492H50z"/>
<g>
</g>
<g>
</g>
<g>
</g>
<g>
</g>
<g>
</g>
<g>
</g>
<g>
</g>
<g>
</g>
<g>
</g>
<g>
</g>
<g>
</g>
<g>
</g>
<g>
</g>
<g>
</g>
<g>
</g>
</svg>
