<?xml version="1.0" encoding="iso-8859-1"?>
<!-- Generator: Adobe Illustrator 19.0.0, SVG Export Plug-In . SVG Version: 6.00 Build 0)  -->
<svg version="1.1" id="Capa_1" xmlns="http://www.w3.org/2000/svg" xmlns:xlink="http://www.w3.org/1999/xlink" x="0px" y="0px"
	 viewBox="0 0 512.003 512.003" style="enable-background:new 0 0 512.003 512.003;" xml:space="preserve">
<g>
	<rect x="58.37" y="443.721" style="fill:#E7ECED;" width="52.27" height="58.28"/>
	<rect x="401.36" y="443.721" style="fill:#E7ECED;" width="52.27" height="58.28"/>
</g>
<rect x="34.14" y="245.971" style="fill:#FFD480;" width="125.43" height="107.78"/>
<rect x="193.29" y="245.971" style="fill:#FDB845;" width="125.43" height="107.78"/>
<rect x="352.43" y="245.971" style="fill:#FFD480;" width="125.43" height="107.78"/>
<path style="fill:#8C9AA2;" d="M10,353.753h492.001v44.985c0,24.844-20.14,44.985-44.985,44.985H54.985
	c-24.844,0-44.985-20.14-44.985-44.985V353.753z"/>
<path d="M502.002,343.753h-14.139v-97.778c0-5.523-4.478-10-10-10h-125.43c-5.522,0-10,4.477-10,10v97.778h-13.718v-97.778
	c0-5.523-4.477-10-10-10h-125.43c-5.522,0-10,4.477-10,10v97.778h-13.718v-97.778c0-5.523-4.478-10-10-10H34.139
	c-5.522,0-10,4.477-10,10v97.778H10c-5.522,0-10,4.477-10,10v44.985c0,28.082,21.161,51.314,48.375,54.589v48.674
	c0,5.523,4.478,10,10,10h52.266c5.522,0,10-4.477,10-10v-48.279h270.721v48.279c0,5.523,4.478,10,10,10h52.266
	c5.522,0,10-4.477,10-10v-48.674c27.214-3.275,48.375-26.508,48.375-54.589v-44.985C512.002,348.23,507.524,343.753,502.002,343.753
	z M415.148,286.679l-35.733-30.704h71.466L415.148,286.679z M467.863,267.753v64.223l-37.371-32.111L467.863,267.753z
	 M399.804,299.864l-37.371,32.111v-64.223L399.804,299.864z M415.148,313.049l35.733,30.704h-71.466L415.148,313.049z
	 M256.001,286.679l-35.733-30.704h71.466L256.001,286.679z M308.716,267.753v64.223l-37.371-32.111L308.716,267.753z
	 M240.657,299.864l-37.371,32.111v-64.223L240.657,299.864z M256.001,313.049l35.733,30.704h-71.466L256.001,313.049z
	 M96.854,286.679l-35.733-30.704h71.465L96.854,286.679z M149.568,267.753v64.223l-37.371-32.111L149.568,267.753z M81.509,299.864
	l-37.371,32.111v-64.223L81.509,299.864z M96.854,313.049l35.733,30.704H61.121L96.854,313.049z M100.641,492.002H68.375v-38.279
	h32.266V492.002z M443.627,492.002h-32.266v-38.279h32.266V492.002z M492.002,398.738c0,19.291-15.694,34.984-34.985,34.984H54.985
	C35.694,433.723,20,418.029,20,398.738v-34.985h472.002V398.738z"/>
<path d="M453.283,408.738h-51.467c-5.522,0-10-4.477-10-10s4.478-10,10-10h51.467c5.522,0,10,4.477,10,10
	S458.806,408.738,453.283,408.738z"/>
<path d="M366.281,408.742c-2.631,0-5.211-1.07-7.07-2.93c-0.46-0.46-0.88-0.98-1.25-1.52c-0.36-0.54-0.67-1.13-0.91-1.73
	c-0.25-0.6-0.45-1.23-0.57-1.87c-0.13-0.64-0.199-1.3-0.199-1.95c0-0.66,0.069-1.31,0.199-1.96c0.12-0.64,0.32-1.27,0.57-1.87
	c0.24-0.6,0.55-1.18,0.91-1.73c0.37-0.54,0.79-1.06,1.25-1.52s0.97-0.87,1.52-1.24c0.54-0.36,1.12-0.67,1.721-0.92
	c0.609-0.25,1.239-0.44,1.869-0.57c1.301-0.26,2.62-0.26,3.91,0c0.641,0.13,1.271,0.32,1.87,0.57c0.61,0.25,1.19,0.56,1.73,0.92
	c0.55,0.37,1.06,0.78,1.52,1.24s0.88,0.98,1.24,1.52c0.36,0.55,0.67,1.13,0.92,1.73s0.44,1.23,0.57,1.87c0.13,0.65,0.2,1.3,0.2,1.96
	c0,0.65-0.07,1.31-0.2,1.95s-0.32,1.27-0.57,1.87s-0.56,1.18-0.92,1.73c-0.36,0.54-0.78,1.06-1.24,1.52s-0.97,0.88-1.52,1.24
	c-0.54,0.36-1.12,0.67-1.73,0.92c-0.6,0.25-1.229,0.44-1.87,0.57C367.591,408.672,366.931,408.742,366.281,408.742z"/>
<path d="M299.502,408.738h-51.466c-5.522,0-10-4.477-10-10s4.478-10,10-10h51.466c5.522,0,10,4.477,10,10
	S305.024,408.738,299.502,408.738z"/>
<path d="M212.501,408.742c-0.65,0-1.311-0.07-1.95-0.2c-0.64-0.13-1.27-0.32-1.88-0.57c-0.601-0.25-1.18-0.56-1.72-0.92
	c-0.551-0.36-1.061-0.78-1.521-1.24c-0.46-0.46-0.88-0.98-1.25-1.52c-0.36-0.54-0.66-1.13-0.91-1.73s-0.45-1.23-0.58-1.87
	c-0.13-0.64-0.189-1.3-0.189-1.95s0.06-1.31,0.189-1.96c0.13-0.63,0.33-1.26,0.58-1.87c0.25-0.6,0.55-1.18,0.91-1.72
	c0.37-0.55,0.79-1.06,1.25-1.53c0.46-0.46,0.97-0.87,1.521-1.24c0.54-0.36,1.119-0.67,1.72-0.92c0.61-0.25,1.24-0.44,1.88-0.57
	c1.28-0.26,2.61-0.26,3.9,0c0.64,0.13,1.27,0.32,1.869,0.57c0.61,0.25,1.191,0.56,1.73,0.92c0.55,0.37,1.06,0.78,1.52,1.24
	c0.461,0.47,0.881,0.98,1.24,1.53c0.36,0.54,0.67,1.12,0.92,1.72c0.25,0.61,0.44,1.24,0.57,1.87c0.13,0.65,0.2,1.31,0.2,1.96
	s-0.07,1.31-0.2,1.95c-0.13,0.64-0.32,1.27-0.57,1.87s-0.56,1.19-0.92,1.73c-0.359,0.54-0.779,1.06-1.24,1.52
	c-0.46,0.46-0.97,0.88-1.52,1.24c-0.54,0.36-1.12,0.67-1.73,0.92c-0.6,0.25-1.229,0.44-1.869,0.57S213.15,408.742,212.501,408.742z"
	/>
<path d="M145.722,408.738H94.255c-5.522,0-10-4.477-10-10s4.478-10,10-10h51.467c5.523,0,10,4.477,10,10
	S151.244,408.738,145.722,408.738z"/>
<path d="M58.721,408.742c-0.65,0-1.309-0.07-1.96-0.2c-0.63-0.13-1.26-0.32-1.87-0.57c-0.6-0.25-1.18-0.56-1.72-0.92
	c-0.55-0.36-1.06-0.78-1.521-1.24c-0.46-0.46-0.88-0.98-1.25-1.52c-0.359-0.55-0.67-1.13-0.92-1.73s-0.439-1.23-0.569-1.87
	c-0.13-0.64-0.191-1.3-0.191-1.95s0.061-1.31,0.191-1.96c0.13-0.63,0.319-1.26,0.569-1.87c0.25-0.6,0.561-1.18,0.92-1.72
	c0.37-0.55,0.79-1.06,1.25-1.52c0.46-0.47,0.971-0.88,1.521-1.25c0.54-0.36,1.12-0.67,1.72-0.92c0.61-0.25,1.24-0.44,1.87-0.57
	c1.29-0.26,2.62-0.26,3.91,0c0.64,0.13,1.27,0.32,1.87,0.57c0.609,0.25,1.189,0.56,1.729,0.92c0.54,0.37,1.061,0.78,1.521,1.25
	c0.46,0.46,0.88,0.97,1.24,1.52c0.359,0.54,0.67,1.12,0.92,1.72c0.25,0.61,0.439,1.24,0.569,1.87c0.13,0.65,0.2,1.3,0.2,1.96
	c0,0.65-0.07,1.31-0.2,1.95s-0.319,1.27-0.569,1.87s-0.561,1.18-0.92,1.73c-0.36,0.54-0.78,1.06-1.24,1.52s-0.98,0.88-1.521,1.24
	c-0.54,0.36-1.12,0.67-1.729,0.92c-0.601,0.25-1.23,0.44-1.87,0.57S59.371,408.742,58.721,408.742z"/>
<rect x="226.75" y="72.501" style="fill:#8C9AA2;" width="58.5" height="78.66"/>
<g>
	<rect x="385.9" y="72.501" style="fill:#E7ECED;" width="58.5" height="38.655"/>
	<rect x="67.6" y="72.501" style="fill:#E7ECED;" width="58.5" height="38.655"/>
</g>
<rect x="10.111" y="10.001" style="fill:#009D93;" width="491.78" height="62.5"/>
<path d="M429.791,51.252c-0.65,0-1.31-0.07-1.95-0.2s-1.27-0.32-1.87-0.57c-0.61-0.25-1.189-0.56-1.729-0.92
	c-0.551-0.36-1.061-0.78-1.521-1.24c-0.46-0.46-0.88-0.97-1.24-1.52c-0.359-0.54-0.67-1.12-0.92-1.73
	c-0.25-0.6-0.45-1.23-0.569-1.87c-0.131-0.64-0.2-1.3-0.2-1.95s0.069-1.31,0.2-1.95c0.119-0.64,0.319-1.27,0.569-1.88
	c0.25-0.6,0.56-1.18,0.92-1.72c0.36-0.55,0.78-1.06,1.24-1.52s0.97-0.88,1.521-1.25c0.54-0.36,1.119-0.67,1.729-0.92
	c0.6-0.25,1.23-0.44,1.87-0.57c1.29-0.26,2.61-0.26,3.9,0c0.64,0.13,1.27,0.32,1.869,0.57c0.61,0.25,1.19,0.56,1.73,0.92
	c0.55,0.37,1.06,0.79,1.52,1.25s0.881,0.97,1.25,1.52c0.36,0.54,0.66,1.12,0.91,1.72c0.25,0.61,0.45,1.24,0.58,1.88
	c0.13,0.64,0.19,1.3,0.19,1.95s-0.06,1.31-0.19,1.95s-0.33,1.27-0.58,1.87c-0.25,0.61-0.55,1.19-0.91,1.73
	c-0.369,0.55-0.79,1.06-1.25,1.52s-0.97,0.88-1.52,1.24c-0.54,0.36-1.12,0.67-1.73,0.92c-0.6,0.25-1.23,0.44-1.869,0.57
	C431.101,51.182,430.44,51.252,429.791,51.252z"/>
<path d="M501.891,0.002H10.111c-5.522,0-10,4.477-10,10V72.5c0,5.523,4.477,10,10,10h47.493v28.655c0,0.348,0.018,0.691,0.053,1.03
	l-22.183,27.164c-2.646,3.239-2.996,7.783-0.878,11.39l17.621,30c1.863,3.171,5.202,4.938,8.633,4.937
	c1.72,0,3.464-0.444,5.055-1.379c4.763-2.797,6.356-8.925,3.559-13.687l-14.098-24l20.788-25.455h41.4l20.788,25.455l-14.098,24
	c-2.797,4.762-1.204,10.89,3.559,13.687c1.591,0.935,3.334,1.379,5.055,1.379c3.43,0,6.77-1.766,8.633-4.937l17.621-30
	c2.118-3.606,1.768-8.15-0.878-11.39l-22.182-27.163c0.035-0.339,0.053-0.683,0.053-1.031V82.5h80.649v66.488l-40.176,28.534
	c-3.369,2.393-4.92,6.61-3.902,10.615l7.622,30c1.15,4.527,5.219,7.54,9.686,7.54c0.814,0,1.643-0.101,2.47-0.311
	c5.352-1.36,8.589-6.802,7.229-12.154l-5.934-23.355l40.411-28.702h43.685l40.411,28.702l-5.934,23.355
	c-1.359,5.352,1.877,10.794,7.23,12.154c0.827,0.21,1.655,0.311,2.47,0.311c4.466,0,8.535-3.014,9.686-7.54l7.622-30
	c1.018-4.005-0.533-8.223-3.902-10.615l-40.176-28.534V82.5h80.649v28.655c0,0.348,0.018,0.692,0.053,1.031l-22.183,27.163
	c-2.646,3.239-2.996,7.783-0.878,11.39l17.621,30c1.863,3.171,5.202,4.938,8.633,4.937c1.72,0,3.464-0.444,5.055-1.379
	c4.763-2.797,6.355-8.925,3.559-13.687l-14.098-24l20.788-25.455h41.4l20.788,25.455l-14.098,24
	c-2.797,4.762-1.204,10.89,3.559,13.687c1.591,0.935,3.334,1.379,5.055,1.379c3.43,0,6.77-1.766,8.633-4.937l17.621-30
	c2.118-3.606,1.768-8.15-0.878-11.39l-22.183-27.164c0.035-0.339,0.052-0.682,0.052-1.03V82.5h47.493c5.522,0,10-4.477,10-10V10.002
	C511.891,4.479,507.413,0.002,501.891,0.002z M116.103,101.155H77.604V82.5h38.498L116.103,101.155L116.103,101.155z
	 M275.25,141.155h-38.498V82.5h38.498V141.155z M434.397,101.155h-38.498V82.5h38.498L434.397,101.155L434.397,101.155z
	 M491.891,62.5H20.111V51.251h373.014c5.522,0,10-4.477,10-10s-4.478-10-10-10H20.111V20.002H491.89V62.5H491.891z"/>
<g>
</g>
<g>
</g>
<g>
</g>
<g>
</g>
<g>
</g>
<g>
</g>
<g>
</g>
<g>
</g>
<g>
</g>
<g>
</g>
<g>
</g>
<g>
</g>
<g>
</g>
<g>
</g>
<g>
</g>
</svg>
