<?xml version="1.0" encoding="iso-8859-1"?>
<!-- Generator: Adobe Illustrator 19.0.0, SVG Export Plug-In . SVG Version: 6.00 Build 0)  -->
<svg version="1.1" id="Capa_1" xmlns="http://www.w3.org/2000/svg" xmlns:xlink="http://www.w3.org/1999/xlink" x="0px" y="0px"
	 viewBox="0 0 512 512" style="enable-background:new 0 0 512 512;" xml:space="preserve">
<rect x="10" y="10" style="fill:#8C9AA2;" width="246" height="246"/>
<path style="fill:#3ABEB6;" d="M96.763,212.567C66.575,198.799,45.586,168.353,45.586,133c0-48.277,39.138-87.414,87.414-87.414
	S220.414,84.724,220.414,133c0,35.353-20.989,65.799-51.177,79.567"/>
<g>
	<path style="fill:#E7ECED;" d="M169.237,212.567c-11.036,5.046-23.314,7.847-36.237,7.847s-25.201-2.801-36.237-7.847
		c0.566-19.529,16.579-35.174,36.237-35.174S168.671,193.038,169.237,212.567z"/>
	<rect x="256" y="10" style="fill:#E7ECED;" width="246" height="246"/>
</g>
<path style="fill:#009D93;" d="M342.763,212.567c-30.188-13.768-51.177-44.214-51.177-79.567c0-48.277,39.138-87.414,87.414-87.414
	S466.414,84.724,466.414,133c0,35.353-20.989,65.799-51.177,79.567"/>
<path style="fill:#E7ECED;" d="M415.237,212.567c-11.036,5.046-23.314,7.847-36.237,7.847s-25.201-2.801-36.237-7.847
	c0.566-19.529,16.579-35.174,36.237-35.174S414.671,193.038,415.237,212.567z"/>
<path d="M133,35.586c-53.714,0-97.414,43.7-97.414,97.414c0,38.063,22.384,72.865,57.027,88.665
	c0.016,0.008,0.033,0.014,0.049,0.022c12.685,5.791,26.256,8.727,40.338,8.727c14.087,0,27.662-2.938,40.35-8.733
	c0.012-0.005,0.024-0.011,0.036-0.016c34.643-15.8,57.028-50.602,57.028-88.665C230.414,79.286,186.714,35.586,133,35.586z
	 M133,210.414c-8.703,0-17.153-1.407-25.209-4.19c3.171-10.963,13.214-18.831,25.209-18.831s22.038,7.868,25.209,18.831
	C150.153,209.007,141.703,210.414,133,210.414z M176.285,197.185c-5.445-14.497-17.9-25.392-33.285-28.727v-24.531
	c0-5.523-4.477-10-10-10c-5.523,0-10,4.477-10,10v24.531c-15.386,3.335-27.84,14.23-33.286,28.728
	C71.39,184.793,59.12,165.004,56.238,143h12.279c5.523,0,10-4.477,10-10c0-5.522-4.477-10-10-10H56.229
	c1.798-13.877,7.284-26.612,15.44-37.188l8.663,8.664c1.953,1.952,4.512,2.929,7.071,2.929s5.118-0.977,7.071-2.929
	c3.905-3.905,3.906-10.236,0-14.143l-8.663-8.664c10.576-8.156,23.312-13.642,37.188-15.44v12.288c0,5.522,4.477,10,10,10
	c5.523,0,10-4.478,10-10V56.229c13.876,1.798,26.612,7.284,37.188,15.44l-8.664,8.664c-3.905,3.905-3.905,10.237,0,14.143
	c1.953,1.952,4.512,2.929,7.071,2.929s5.119-0.977,7.071-2.929l8.664-8.664c8.156,10.576,13.643,23.312,15.44,37.188h-12.288
	c-5.523,0-10,4.478-10,10c0,5.523,4.477,10,10,10h12.279C206.88,165.004,194.61,184.793,176.285,197.185z"/>
<path d="M379,35.586c-53.714,0-97.414,43.7-97.414,97.414c0,38.063,22.385,72.865,57.028,88.665
	c0.012,0.006,0.024,0.011,0.037,0.016c12.688,5.795,26.263,8.733,40.35,8.733c14.082,0,27.653-2.937,40.338-8.727
	c0.016-0.007,0.033-0.014,0.049-0.022c34.643-15.8,57.027-50.602,57.027-88.665C476.414,79.286,432.714,35.586,379,35.586z
	 M379,210.414c-8.703,0-17.153-1.407-25.209-4.19c3.171-10.963,13.214-18.831,25.209-18.831s22.038,7.868,25.209,18.831
	C396.153,209.007,387.703,210.414,379,210.414z M422.286,197.185c-5.445-14.498-17.9-25.392-33.286-28.728v-24.531
	c0-5.523-4.477-10-10-10s-10,4.477-10,10v24.531c-15.386,3.335-27.84,14.23-33.286,28.727
	c-18.324-12.391-30.594-32.18-33.476-54.184h12.279c5.523,0,10-4.477,10-10c0-5.522-4.477-10-10-10h-12.288
	c1.798-13.877,7.284-26.612,15.44-37.188l8.664,8.664c1.953,1.952,4.512,2.929,7.071,2.929c2.559,0,5.119-0.977,7.071-2.929
	c3.905-3.905,3.906-10.237,0-14.143l-8.664-8.664c10.576-8.156,23.312-13.642,37.188-15.44v12.288c0,5.522,4.477,10,10,10
	s10-4.478,10-10V56.229c13.876,1.798,26.612,7.284,37.188,15.44l-8.663,8.664c-3.905,3.906-3.905,10.237,0.001,14.143
	c1.953,1.952,4.512,2.929,7.071,2.929c2.559,0,5.119-0.977,7.071-2.929l8.663-8.664c8.156,10.576,13.643,23.312,15.44,37.188
	h-12.288c-5.523,0-10,4.478-10,10c0,5.523,4.477,10,10,10h12.279C452.88,165.004,440.61,184.793,422.286,197.185z"/>
<rect x="96.38" y="256" style="fill:#FDB845;" width="319.24" height="71.18"/>
<path d="M371.71,301.59c-0.66,0-1.31-0.07-1.96-0.2c-0.64-0.12-1.27-0.32-1.87-0.57s-1.18-0.56-1.73-0.92
	c-0.54-0.359-1.05-0.779-1.52-1.239c-0.46-0.46-0.87-0.971-1.24-1.521c-0.36-0.54-0.67-1.12-0.92-1.729
	c-0.25-0.601-0.44-1.23-0.57-1.87c-0.13-0.641-0.2-1.3-0.2-1.95c0-2.63,1.07-5.21,2.93-7.07c0.47-0.46,0.98-0.88,1.52-1.25
	c0.55-0.359,1.13-0.66,1.73-0.91s1.23-0.449,1.87-0.579c3.25-0.65,6.7,0.42,9.03,2.739c0.46,0.46,0.88,0.971,1.24,1.521
	c0.36,0.54,0.67,1.12,0.92,1.72c0.25,0.61,0.44,1.24,0.57,1.87c0.13,0.65,0.2,1.31,0.2,1.96s-0.07,1.31-0.2,1.95
	s-0.32,1.27-0.57,1.87c-0.25,0.609-0.56,1.189-0.92,1.729c-0.36,0.55-0.78,1.061-1.24,1.521s-0.98,0.88-1.52,1.239
	c-0.55,0.36-1.13,0.67-1.73,0.92s-1.23,0.45-1.87,0.57C373.01,301.52,372.36,301.59,371.71,301.59z"/>
<path d="M502,0H10C4.477,0,0,4.477,0,10v246c0,5.522,4.477,10,10,10h76.381v61.178c0,5.522,4.477,10,10,10h319.238
	c5.523,0,10-4.478,10-10V266H502c5.523,0,10-4.478,10-10V10C512,4.477,507.523,0,502,0z M20,20h226v226H20V20z M405.619,317.178
	H106.381v-15.589h228.902c5.523,0,10-4.478,10-10s-4.477-10-10-10H106.381V266h299.238L405.619,317.178L405.619,317.178z M492,246
	H266V20h226V246z"/>
<g>
	<polyline style="fill:#3ABEB6;" points="133.729,447.617 31.326,447.617 31.326,502 162.135,502 	"/>
	<polyline style="fill:#3ABEB6;" points="349.865,502 480.674,502 480.674,447.617 378.271,447.617 	"/>
</g>
<path style="fill:#E7ECED;" d="M162.135,393.234c-15.688,0-28.406,12.718-28.406,28.406v51.954
	c0,15.688,12.718,28.406,28.406,28.406H256V393.234H162.135z"/>
<path style="fill:#8C9AA2;" d="M349.865,393.234H256V502h93.865c15.688,0,28.406-12.718,28.406-28.406V421.64
	C378.271,405.952,365.553,393.234,349.865,393.234z"/>
<path d="M480.674,437.617H388.27V421.64c0-21.178-17.228-38.406-38.406-38.406H162.135c-21.177,0-38.406,17.228-38.406,38.406
	v15.977H31.326c-5.523,0-10,4.478-10,10V502c0,5.522,4.477,10,10,10h449.348c5.523,0,10-4.478,10-10v-54.383
	C490.674,442.095,486.197,437.617,480.674,437.617z M143.729,421.641c0-10.149,8.257-18.406,18.406-18.406H246V492h-83.865
	c-10.149,0-18.406-8.257-18.406-18.406V421.641z M41.326,457.617h82.403v15.977c0,6.664,1.707,12.938,4.705,18.406H41.326V457.617z
	 M266,403.234h83.865c10.149,0,18.406,8.257,18.406,18.406v51.953c0,10.149-8.257,18.406-18.406,18.406H266V403.234z M470.674,492
	h-87.109c2.999-5.469,4.705-11.742,4.705-18.406v-15.977h82.403V492H470.674z"/>
<circle style="fill:#3ABEB6;" cx="194.4" cy="447.62" r="25.16"/>
<path d="M194.402,482.782c-19.39,0-35.165-15.775-35.165-35.165s15.775-35.165,35.165-35.165s35.165,15.775,35.165,35.165
	C229.566,467.007,213.791,482.782,194.402,482.782z M194.402,432.452c-8.362,0-15.165,6.803-15.165,15.165
	s6.803,15.165,15.165,15.165s15.165-6.803,15.165-15.165C209.566,439.255,202.764,432.452,194.402,432.452z"/>
<path d="M337.942,457.617h-46.356c-5.523,0-10-4.478-10-10s4.477-10,10-10h46.356c5.523,0,10,4.478,10,10
	C347.942,453.14,343.465,457.617,337.942,457.617z"/>
<g>
</g>
<g>
</g>
<g>
</g>
<g>
</g>
<g>
</g>
<g>
</g>
<g>
</g>
<g>
</g>
<g>
</g>
<g>
</g>
<g>
</g>
<g>
</g>
<g>
</g>
<g>
</g>
<g>
</g>
</svg>
