<?xml version="1.0" encoding="iso-8859-1"?>
<!-- Generator: Adobe Illustrator 19.0.0, SVG Export Plug-In . SVG Version: 6.00 Build 0)  -->
<svg version="1.1" id="Capa_1" xmlns="http://www.w3.org/2000/svg" xmlns:xlink="http://www.w3.org/1999/xlink" x="0px" y="0px"
	 viewBox="0 0 512 512" style="enable-background:new 0 0 512 512;" xml:space="preserve">
<g>
	<polyline style="fill:#8C9AA2;" points="169.753,337.388 473.142,337.388 473.142,238.41 400.891,238.41 400.891,286.093 
		342.248,286.093 342.248,238.41 211.278,238.41 	"/>
	<polyline style="fill:#8C9AA2;" points="69.585,238.41 38.858,238.41 38.858,337.388 111.11,337.388 	"/>
</g>
<polyline style="fill:#E7ECED;" points="111.11,310.758 111.11,451.25 169.753,451.25 169.753,310.758 "/>
<path style="fill:#FDB845;" d="M140.431,317.076c-39.277,0-71.232-31.955-71.232-71.232s31.955-71.232,71.232-71.232
	s71.232,31.955,71.232,71.232S179.709,317.076,140.431,317.076z"/>
<polygon style="fill:#C4C6C9;" points="169.753,403.022 169.753,451.25 111.11,451.25 111.11,403.022 38.858,403.022 38.858,502 
	473.142,502 473.142,403.022 "/>
<path style="fill:#FDB845;" d="M109.199,245.844c0-17.221,14.011-31.232,31.232-31.232"/>
<path d="M109.199,255.844c-5.523,0-10-4.477-10-10c0-22.735,18.497-41.232,41.232-41.232c5.523,0,10,4.477,10,10s-4.477,10-10,10
	c-11.708,0-21.232,9.524-21.232,21.232C119.199,251.367,114.722,255.844,109.199,255.844z"/>
<polyline style="fill:#E7ECED;" points="342.248,146.146 342.248,286.093 400.891,286.093 400.891,146.146 "/>
<g>
	<path style="fill:#009D93;" d="M371.57,152.464c-39.277,0-71.232-31.955-71.232-71.232C300.337,41.955,332.292,10,371.57,10
		c39.277,0,71.232,31.955,71.232,71.232C442.801,120.509,410.847,152.464,371.57,152.464z"/>
	<path style="fill:#009D93;" d="M340.337,81.232C340.337,64.011,354.348,50,371.57,50"/>
</g>
<path d="M340.337,91.232c-5.522,0-10-4.477-10-10C330.337,58.497,348.834,40,371.57,40c5.523,0,10,4.477,10,10s-4.477,10-10,10
	c-11.708,0-21.232,9.524-21.232,21.232C350.337,86.755,345.86,91.232,340.337,91.232z"/>
<path d="M235.27,296.09c-0.65,0-1.31-0.06-1.96-0.19c-0.63-0.13-1.26-0.32-1.87-0.57c-0.6-0.25-1.18-0.56-1.72-0.92
	c-0.55-0.37-1.06-0.79-1.52-1.25s-0.88-0.97-1.25-1.52c-0.36-0.54-0.67-1.12-0.92-1.72c-0.25-0.61-0.44-1.23-0.57-1.87
	c-0.13-0.65-0.19-1.31-0.19-1.96s0.06-1.31,0.19-1.95s0.32-1.27,0.57-1.87c0.25-0.61,0.56-1.19,0.92-1.73
	c0.37-0.55,0.79-1.06,1.25-1.52s0.97-0.88,1.52-1.24c0.54-0.36,1.12-0.67,1.72-0.92c0.61-0.25,1.24-0.44,1.87-0.57
	c3.25-0.66,6.71,0.41,9.03,2.73c0.46,0.46,0.88,0.97,1.24,1.52c0.36,0.54,0.67,1.12,0.92,1.73c0.25,0.6,0.44,1.23,0.57,1.87
	c0.13,0.64,0.2,1.3,0.2,1.95c0,0.65-0.07,1.31-0.2,1.96c-0.13,0.64-0.32,1.26-0.57,1.87c-0.25,0.6-0.56,1.18-0.92,1.72
	c-0.36,0.55-0.78,1.06-1.24,1.52C240.48,295.03,237.9,296.09,235.27,296.09z"/>
<path d="M405.9,461.25c-0.649,0-1.31-0.07-1.949-0.2c-0.641-0.12-1.271-0.32-1.881-0.57c-0.6-0.25-1.18-0.56-1.72-0.92
	c-0.55-0.36-1.06-0.78-1.52-1.24s-0.88-0.97-1.25-1.52c-0.36-0.54-0.67-1.12-0.92-1.73c-0.25-0.6-0.44-1.23-0.57-1.87
	c-0.13-0.64-0.19-1.3-0.19-1.95c0-0.65,0.061-1.31,0.19-1.95c0.13-0.64,0.32-1.27,0.57-1.88c0.25-0.6,0.56-1.18,0.92-1.72
	c0.37-0.55,0.79-1.06,1.25-1.52s0.97-0.88,1.52-1.24c0.54-0.36,1.12-0.67,1.72-0.92c0.61-0.25,1.24-0.45,1.881-0.57
	c1.279-0.26,2.609-0.26,3.899,0c0.641,0.12,1.271,0.32,1.87,0.57c0.61,0.25,1.19,0.56,1.73,0.92c0.55,0.36,1.06,0.78,1.52,1.24
	s0.88,0.97,1.24,1.52c0.359,0.54,0.67,1.12,0.92,1.72c0.25,0.61,0.439,1.24,0.57,1.88c0.13,0.64,0.199,1.3,0.199,1.95
	c0,0.65-0.069,1.31-0.199,1.95c-0.131,0.64-0.32,1.27-0.57,1.87c-0.25,0.61-0.561,1.19-0.92,1.73c-0.36,0.55-0.78,1.06-1.24,1.52
	s-0.97,0.88-1.52,1.24c-0.54,0.36-1.12,0.67-1.73,0.92c-0.6,0.25-1.23,0.45-1.87,0.57C407.21,461.18,406.55,461.25,405.9,461.25z"/>
<path d="M473.142,347.388c5.523,0,10-4.477,10-10V238.41c0-5.523-4.477-10-10-10h-62.251v-76.114
	c24.973-13.873,41.91-40.528,41.91-71.065C452.801,36.44,416.361,0,371.57,0c-44.792,0-81.232,36.44-81.232,81.232
	c0,30.536,16.937,57.191,41.91,71.064v76.114H219.78c-8-36.442-40.539-63.798-79.348-63.798s-71.349,27.356-79.348,63.798H38.858
	c-5.523,0-10,4.477-10,10v98.978c0,5.523,4.477,10,10,10h62.252v45.634H38.858c-5.523,0-10,4.477-10,10V502c0,5.523,4.477,10,10,10
	h434.284c5.523,0,10-4.477,10-10v-98.978c0-5.523-4.477-10-10-10H179.753v-45.634H473.142z M463.142,248.41v27.683h-52.251V248.41
	H463.142z M310.337,81.232C310.337,47.469,337.806,20,371.57,20c33.763,0,61.232,27.469,61.232,61.232
	c0,24.72-14.724,46.065-35.863,55.726c-0.118,0.051-0.236,0.104-0.351,0.159c-7.642,3.435-16.111,5.346-25.017,5.346
	c-8.911,0-17.383-1.914-25.028-5.351c-0.11-0.052-0.221-0.102-0.332-0.151C325.065,127.302,310.337,105.955,310.337,81.232z
	 M371.57,162.464c6.656,0,13.127-0.805,19.321-2.322v115.951h-38.644V160.142C358.442,161.659,364.914,162.464,371.57,162.464z
	 M332.247,276.093h-60.314c-5.522,0-10,4.477-10,10s4.478,10,10,10h191.208v31.295H179.753v-10.48
	c24.271-13.483,40.952-39.039,41.871-68.498h110.624v27.683H332.247z M121.11,324.754c6.195,1.517,12.666,2.322,19.322,2.322
	s13.127-0.805,19.321-2.322V441.25H121.11V324.754z M140.431,184.612c31.595,0,57.678,24.055,60.897,54.812
	c0.001,0.008,0.002,0.017,0.003,0.026c0.219,2.102,0.332,4.236,0.332,6.395c0,24.714-14.718,46.056-35.85,55.72
	c-0.127,0.055-0.253,0.112-0.378,0.171c-7.639,3.431-16.103,5.341-25.004,5.341c-8.907,0-17.376-1.912-25.017-5.346
	c-0.117-0.056-0.234-0.109-0.353-0.16C93.923,291.909,79.2,270.564,79.2,245.845c0-2.159,0.113-4.293,0.332-6.395
	c0.001-0.008,0.002-0.017,0.003-0.026C82.753,208.666,108.836,184.612,140.431,184.612z M48.858,327.388V248.41H59.24
	c0.919,29.459,17.599,55.015,41.87,68.498v10.48L48.858,327.388L48.858,327.388z M101.11,413.022v28.228H48.858v-28.228H101.11z
	 M463.142,413.022V492H48.858v-30.75h320.375c5.522,0,10-4.477,10-10s-4.478-10-10-10h-189.48v-28.228H463.142z"/>
<g>
</g>
<g>
</g>
<g>
</g>
<g>
</g>
<g>
</g>
<g>
</g>
<g>
</g>
<g>
</g>
<g>
</g>
<g>
</g>
<g>
</g>
<g>
</g>
<g>
</g>
<g>
</g>
<g>
</g>
</svg>
