<?xml version="1.0" encoding="iso-8859-1"?>
<!-- Generator: Adobe Illustrator 19.0.0, SVG Export Plug-In . SVG Version: 6.00 Build 0)  -->
<svg version="1.1" id="Capa_1" xmlns="http://www.w3.org/2000/svg" xmlns:xlink="http://www.w3.org/1999/xlink" x="0px" y="0px"
	 viewBox="0 0 512.001 512.001" style="enable-background:new 0 0 512.001 512.001;" xml:space="preserve">
<g>
	<polyline style="fill:#E7ECED;" points="160.54,221.823 265.381,221.823 265.381,170.845 160.54,170.845 	"/>
	<path style="fill:#E7ECED;" d="M160.54,170.845h8.775v-47.158c-7.65,3.9-16.313,6.1-25.489,6.1l0,0c-9.176,0-17.838-2.2-25.489-6.1
		v55.933c5.447-8.29,14.829-13.763,25.489-13.763c6.204,0,11.975,1.855,16.79,5.039C160.591,170.879,160.566,170.862,160.54,170.845
		z"/>
</g>
<path style="fill:#009D93;" d="M20.826,10v77.111h68.453c-1.07-4.332-1.648-8.858-1.648-13.521V48.556h112.393V73.59
	c0,4.663-0.578,9.189-1.648,13.521h292.801V10H20.826z"/>
<path d="M441.43,58.56c-2.63,0-5.21-1.069-7.07-2.93c-0.46-0.47-0.88-0.98-1.24-1.521c-0.36-0.55-0.67-1.13-0.92-1.729
	c-0.25-0.6-0.44-1.23-0.57-1.87c-0.13-0.65-0.2-1.3-0.2-1.95c0-0.66,0.07-1.31,0.2-1.96c0.13-0.64,0.32-1.27,0.57-1.87
	s0.56-1.18,0.92-1.729c0.36-0.54,0.78-1.05,1.24-1.521c0.46-0.46,0.97-0.87,1.52-1.239c0.54-0.36,1.12-0.671,1.73-0.921
	c0.6-0.25,1.23-0.439,1.87-0.569c3.25-0.65,6.7,0.41,9.03,2.729c0.46,0.471,0.87,0.98,1.24,1.521c0.36,0.55,0.67,1.13,0.92,1.729
	c0.25,0.601,0.44,1.23,0.57,1.87c0.13,0.65,0.19,1.3,0.19,1.96c0,0.65-0.06,1.3-0.19,1.95c-0.13,0.64-0.32,1.271-0.57,1.87
	c-0.25,0.6-0.56,1.18-0.92,1.729c-0.37,0.54-0.79,1.051-1.25,1.521C446.64,57.491,444.07,58.56,441.43,58.56z"/>
<rect x="265.38" y="170.84" style="fill:#3ABEB6;" width="93.2" height="50.978"/>
<polygon style="fill:#8C9AA2;" points="345.478,266.034 311.978,286.034 278.478,266.034 278.478,221.823 345.478,221.823 "/>
<path style="fill:#FDB845;" d="M143.826,129.786L143.826,129.786c-31.036,0-56.196-25.16-56.196-56.196V48.556h112.393V73.59
	C200.023,104.626,174.863,129.786,143.826,129.786z"/>
<circle style="fill:#3ABEB6;" cx="143.83" cy="196.33" r="30.477"/>
<path d="M491.175,0H20.826c-5.523,0-10,4.477-10,10v77.11c0,5.522,4.477,10,10,10h61.121c5.111,13.401,14.456,24.728,26.391,32.338
	v47.434c-3.178,5.776-4.988,12.406-4.988,19.451c0,22.319,18.158,40.478,40.477,40.478c7.045,0,13.676-1.81,19.451-4.988h105.201
	v34.212c0,3.521,1.851,6.781,4.874,8.586l28.626,17.09V311.3c0,5.523,4.477,10,10,10s10-4.477,10-10v-19.589l28.626-17.09
	c3.023-1.805,4.874-5.065,4.874-8.586v-34.212h3.098c5.523,0,10-4.478,10-10v-50.978c0-5.522-4.477-10-10-10H179.315v-31.397
	c11.935-7.61,21.28-18.937,26.391-32.337h285.469c5.523,0,10-4.478,10-10V10C501.175,4.478,496.698,0,491.175,0z M30.826,77.111
	V58.556H77.63V73.59c0,0.147,0.001,0.294,0.002,0.44l0,0c0.007,1.032,0.037,2.059,0.091,3.08L30.826,77.111L30.826,77.111z
	 M190.023,73.59c0,0.174-0.001,0.348-0.003,0.521c0,0.042-0.001,0.084-0.001,0.126c-0.002,0.155-0.005,0.309-0.009,0.463
	c-0.002,0.067-0.003,0.134-0.005,0.201c-0.003,0.089-0.006,0.178-0.008,0.267c-0.006,0.164-0.012,0.327-0.019,0.49
	c-0.001,0.017-0.001,0.034-0.002,0.051c-0.14,3.029-0.578,6.048-1.308,9.003c-0.01,0.042-0.019,0.083-0.029,0.125
	c-5.035,20.055-23.216,34.95-44.811,34.95s-39.776-14.895-44.811-34.95c-0.01-0.041-0.019-0.083-0.029-0.125
	c-0.73-2.955-1.168-5.974-1.307-9.003c-0.001-0.017-0.002-0.034-0.002-0.051c-0.007-0.163-0.014-0.327-0.019-0.49
	c-0.003-0.089-0.006-0.178-0.008-0.267c-0.002-0.067-0.004-0.134-0.005-0.201c-0.004-0.154-0.007-0.308-0.009-0.463
	c-0.001-0.042-0.001-0.084-0.001-0.126c-0.002-0.174-0.003-0.347-0.003-0.521V58.556h92.393V73.59H190.023z M123.35,196.333
	c0-11.291,9.186-20.477,20.477-20.477s20.477,9.186,20.477,20.477s-9.186,20.478-20.477,20.478S123.35,207.624,123.35,196.333z
	 M335.478,260.358l-23.5,14.03l-23.5-14.03v-28.535h47V260.358z M348.576,211.823H275.38v-30.978h73.196V211.823z M255.38,211.823
	h-74.158c1.984-4.774,3.081-10.006,3.081-15.489s-1.097-10.715-3.081-15.488h74.158V211.823z M159.315,158.938
	c-4.774-1.984-10.006-3.081-15.489-3.081s-10.715,1.097-15.489,3.081v-20.981c4.97,1.196,10.157,1.83,15.489,1.83
	s10.519-0.634,15.489-1.83V158.938z M481.175,77.111H209.93c0.054-1.021,0.085-2.048,0.091-3.08l0,0
	c0.001-0.147,0.002-0.293,0.002-0.44V58.556h195.822c5.523,0,10-4.478,10-10s-4.477-10-10-10H30.826V20h450.35v57.111H481.175z"/>
<g>
	<polygon style="fill:#FDB845;" points="459.551,412.03 459.551,384.915 423.934,361.578 388.318,384.915 388.318,412.03 	"/>
	<polygon style="fill:#FDB845;" points="347.595,412.03 347.595,384.915 311.978,361.578 276.362,384.915 276.362,412.03 	"/>
</g>
<g>
	<polygon style="fill:#FFD480;" points="235.639,412.03 235.639,384.915 200.023,361.578 164.406,384.915 164.406,412.03 	"/>
	<polygon style="fill:#FFD480;" points="123.683,412.03 123.683,384.915 88.067,361.578 52.45,384.915 52.45,412.03 	"/>
</g>
<path style="fill:#8C9AA2;" d="M54.985,412.031h402.031c24.844,0,44.985,20.14,44.985,44.985l0,0
	c0,24.845-20.141,44.985-44.985,44.985H54.985C30.14,502,10,481.86,10,457.016l0,0C10,432.171,30.14,412.031,54.985,412.031z"/>
<path d="M469.551,403.472v-18.557c0-3.372-1.699-6.517-4.52-8.364l-35.617-23.337c-3.328-2.182-7.633-2.182-10.961,0l-35.616,23.337
	c-2.82,1.848-4.52,4.992-4.52,8.364v17.115h-20.723v-17.115c0-3.372-1.699-6.517-4.52-8.364l-35.616-23.337
	c-3.328-2.182-7.633-2.182-10.961,0l-35.616,23.337c-2.82,1.848-4.52,4.992-4.52,8.364v17.115h-20.724v-17.115
	c0-3.372-1.699-6.517-4.52-8.364l-35.616-23.337c-3.328-2.182-7.633-2.182-10.961,0l-35.616,23.337
	c-2.82,1.848-4.52,4.992-4.52,8.364v17.115h-20.723v-17.115c0-3.372-1.699-6.517-4.52-8.364l-35.617-23.337
	c-3.328-2.182-7.633-2.182-10.961,0L46.97,376.551c-2.82,1.848-4.52,4.992-4.52,8.364v18.557C18.151,409.159,0,431.008,0,457.016
	C0,487.335,24.666,512,54.985,512h402.031c30.319,0,54.985-24.666,54.985-54.985C512.001,431.008,493.85,409.159,469.551,403.472z
	 M286.362,390.319l25.616-16.785l25.616,16.785v11.711h-51.232V390.319z M174.406,390.319l25.616-16.785l25.616,16.785v11.711
	h-51.232V390.319z M398.318,390.319l25.616-16.785l25.617,16.785v11.711h-51.233V390.319z M62.45,390.319l25.616-16.785
	l25.617,16.785v11.711H62.45V390.319z M457.016,492H54.985C35.694,492,20,476.306,20,457.016c0-19.29,15.694-34.984,34.985-34.984
	h402.031c19.291,0,34.985,15.694,34.985,34.984C492.001,476.306,476.307,492,457.016,492z"/>
<path d="M453.283,467.016h-51.466c-5.523,0-10-4.478-10-10s4.477-10,10-10h51.466c5.523,0,10,4.478,10,10
	C463.283,462.538,458.806,467.016,453.283,467.016z"/>
<path d="M366.28,467.01c-2.64,0-5.21-1.06-7.07-2.93c-0.46-0.46-0.88-0.971-1.24-1.521c-0.37-0.54-0.67-1.12-0.92-1.72
	c-0.26-0.61-0.45-1.23-0.58-1.87c-0.13-0.65-0.19-1.3-0.19-1.95c0-0.66,0.06-1.309,0.19-1.96c0.13-0.64,0.32-1.27,0.57-1.87
	s0.56-1.18,0.92-1.729c0.37-0.54,0.79-1.061,1.25-1.521s0.97-0.88,1.52-1.239c0.54-0.36,1.12-0.67,1.72-0.92
	c0.61-0.25,1.24-0.44,1.87-0.57c1.29-0.26,2.62-0.26,3.91,0c0.64,0.13,1.27,0.32,1.87,0.57c0.61,0.25,1.19,0.56,1.73,0.92
	c0.55,0.359,1.06,0.779,1.52,1.239c0.461,0.46,0.88,0.98,1.24,1.521c0.36,0.55,0.67,1.13,0.92,1.729c0.25,0.6,0.45,1.23,0.57,1.87
	c0.13,0.65,0.2,1.3,0.2,1.96c0,0.65-0.07,1.3-0.2,1.95c-0.12,0.64-0.32,1.26-0.57,1.87c-0.25,0.6-0.56,1.18-0.92,1.72
	c-0.36,0.55-0.78,1.061-1.24,1.521c-0.46,0.47-0.97,0.88-1.52,1.25c-0.54,0.359-1.12,0.67-1.73,0.92c-0.6,0.25-1.23,0.44-1.87,0.569
	C367.59,466.951,366.93,467.01,366.28,467.01z"/>
<path d="M299.502,467.016h-51.467c-5.523,0-10-4.478-10-10s4.477-10,10-10h51.467c5.523,0,10,4.478,10,10
	C309.502,462.538,305.025,467.016,299.502,467.016z"/>
<path d="M212.501,467.01c-0.65,0-1.31-0.06-1.96-0.19c-0.63-0.13-1.26-0.319-1.87-0.569c-0.6-0.25-1.18-0.56-1.72-0.92
	c-0.55-0.37-1.06-0.78-1.52-1.25c-0.46-0.46-0.88-0.971-1.25-1.521c-0.36-0.54-0.66-1.12-0.91-1.72c-0.25-0.61-0.45-1.23-0.57-1.87
	c-0.13-0.65-0.2-1.3-0.2-1.95c0-0.66,0.07-1.309,0.2-1.96c0.12-0.64,0.32-1.27,0.57-1.87s0.55-1.18,0.91-1.729
	c0.37-0.54,0.79-1.061,1.25-1.521s0.97-0.88,1.52-1.239c0.54-0.36,1.12-0.67,1.72-0.92c0.61-0.25,1.24-0.44,1.87-0.57
	c1.29-0.26,2.62-0.26,3.91,0c0.64,0.13,1.27,0.32,1.87,0.57c0.61,0.25,1.19,0.56,1.73,0.92c0.55,0.359,1.06,0.779,1.52,1.239
	c0.46,0.46,0.88,0.98,1.24,1.521c0.36,0.55,0.67,1.13,0.92,1.729c0.25,0.6,0.44,1.23,0.57,1.87c0.13,0.65,0.2,1.3,0.2,1.96
	c0,0.65-0.07,1.3-0.2,1.95c-0.13,0.64-0.32,1.26-0.57,1.87c-0.25,0.6-0.56,1.18-0.92,1.72c-0.36,0.55-0.78,1.061-1.24,1.521
	c-0.46,0.47-0.97,0.88-1.52,1.25c-0.54,0.359-1.12,0.67-1.73,0.92c-0.6,0.25-1.23,0.44-1.87,0.569
	C213.811,466.951,213.15,467.01,212.501,467.01z"/>
<path d="M145.721,467.016H94.254c-5.523,0-10-4.478-10-10s4.477-10,10-10h51.467c5.523,0,10,4.478,10,10
	C155.721,462.538,151.244,467.016,145.721,467.016z"/>
<path d="M58.72,467.01c-0.65,0-1.31-0.06-1.96-0.19c-0.63-0.13-1.26-0.319-1.87-0.569c-0.6-0.25-1.18-0.56-1.72-0.92
	c-0.55-0.37-1.06-0.78-1.52-1.25c-0.46-0.46-0.88-0.971-1.25-1.521c-0.36-0.54-0.67-1.12-0.92-1.72c-0.25-0.61-0.44-1.23-0.57-1.87
	c-0.13-0.65-0.19-1.3-0.19-1.95c0-0.66,0.06-1.309,0.19-1.96c0.13-0.64,0.32-1.27,0.57-1.87s0.56-1.18,0.92-1.729
	c0.37-0.54,0.79-1.061,1.25-1.521s0.97-0.88,1.52-1.239c0.54-0.36,1.12-0.67,1.72-0.92c0.61-0.25,1.24-0.44,1.87-0.57
	c1.29-0.26,2.62-0.26,3.91,0c0.64,0.13,1.27,0.32,1.87,0.57c0.61,0.25,1.19,0.56,1.73,0.92c0.55,0.359,1.06,0.779,1.52,1.239
	c0.46,0.46,0.88,0.98,1.24,1.521c0.36,0.55,0.67,1.13,0.92,1.729c0.25,0.6,0.44,1.23,0.57,1.87c0.13,0.65,0.2,1.3,0.2,1.96
	c0,0.65-0.07,1.3-0.2,1.95c-0.13,0.64-0.32,1.26-0.57,1.87c-0.25,0.6-0.56,1.18-0.92,1.72c-0.36,0.55-0.78,1.061-1.24,1.521
	c-0.46,0.47-0.97,0.88-1.52,1.25c-0.54,0.359-1.12,0.67-1.73,0.92c-0.6,0.25-1.23,0.44-1.87,0.569
	C60.03,466.951,59.37,467.01,58.72,467.01z"/>
<g>
</g>
<g>
</g>
<g>
</g>
<g>
</g>
<g>
</g>
<g>
</g>
<g>
</g>
<g>
</g>
<g>
</g>
<g>
</g>
<g>
</g>
<g>
</g>
<g>
</g>
<g>
</g>
<g>
</g>
</svg>
