<?xml version="1.0" encoding="iso-8859-1"?>
<!-- Generator: Adobe Illustrator 19.0.0, SVG Export Plug-In . SVG Version: 6.00 Build 0)  -->
<svg version="1.1" id="Capa_1" xmlns="http://www.w3.org/2000/svg" xmlns:xlink="http://www.w3.org/1999/xlink" x="0px" y="0px"
	 viewBox="0 0 512 512" style="enable-background:new 0 0 512 512;" xml:space="preserve">
<g>
	<rect x="295.49" y="360.06" style="fill:#FDB845;" width="83.01" height="51.51"/>
	<rect x="295.49" y="207.95" style="fill:#FDB845;" width="83.01" height="38.16"/>
</g>
<polygon style="fill:#C4C6C9;" points="366.84,460.264 337,478.079 307.16,460.264 307.16,411.571 366.84,411.571 "/>
<g>
	<rect x="277" y="315.78" style="fill:#E7ECED;" width="120" height="44.28"/>
	<path style="fill:#E7ECED;" d="M212.791,115.883L72.357,256.317c-13.603,13.603-13.603,35.658,0,49.261
		c13.603,13.603,35.659,13.603,49.262,0l159.28-159.28"/>
</g>
<rect x="10.825" y="10" style="fill:#009D93;" width="490.35" height="77.11"/>
<path style="fill:#FFD480;" d="M200.752,87.111c6.134,33.944,35.831,59.692,71.543,59.692l0,0c35.712,0,65.409-25.747,71.543-59.692
	C343.838,87.111,200.752,87.111,200.752,87.111z"/>
<path style="fill:#8C9AA2;" d="M406.6,246.114H181.083l-59.464,59.464c-6.802,6.802-15.716,10.202-24.631,10.202H406.6
	c19.238,0,34.833-15.595,34.833-34.833l0,0C441.434,261.71,425.839,246.114,406.6,246.114z"/>
<path d="M501.175,0H10.825c-5.523,0-10,4.477-10,10v77.11c0,5.522,4.477,10,10,10h182.006c1.764,6.13,4.205,11.942,7.23,17.36
	L65.286,249.245c-17.48,17.48-17.48,45.924,0,63.404c8.468,8.468,19.727,13.131,31.702,13.131H267v34.281c0,5.523,4.478,10,10,10
	h8.494v31.51h-9.955c-5.522,0-10,4.478-10,10c0,5.523,4.478,10,10,10h21.621v38.693c0,3.521,1.852,6.781,4.874,8.586L327,483.755
	V502c0,5.522,4.478,10,10,10s10-4.478,10-10v-18.245l24.966-14.905c3.023-1.805,4.874-5.065,4.874-8.586v-38.693h21.621
	c5.522,0,10-4.477,10-10c0-5.522-4.478-10-10-10h-9.955v-31.51H397c5.522,0,10-4.477,10-10v-34.284
	c24.538-0.215,44.434-20.243,44.434-44.831c0-24.721-20.112-44.833-44.833-44.833h-18.095V207.95c0-5.523-4.478-10-10-10h-83.012
	c-5.522,0-10,4.477-10,10v28.163h-80.269l80.378-80.379c31.386-5.077,57.295-27.838,66.156-58.625h149.415c5.522,0,10-4.478,10-10
	V10C511.175,4.477,506.697,0,501.175,0z M79.429,263.388l132.594-132.594c11.956,12.697,27.839,21.517,45.539,24.699
	L114.548,298.507c-0.075,0.075-0.15,0.149-0.225,0.222c-0.019,0.018-0.037,0.036-0.056,0.054c-0.058,0.056-0.115,0.111-0.173,0.167
	c-0.017,0.016-0.034,0.031-0.05,0.047c-0.061,0.058-0.122,0.115-0.183,0.172c-0.008,0.008-0.016,0.015-0.024,0.022
	c-9.727,8.994-24.96,8.766-34.408-0.684C69.746,288.824,69.746,273.07,79.429,263.388z M387,350.061H287V325.78h100V350.061z
	 M356.84,454.588L337,466.433l-19.84-11.845v-33.017h39.68V454.588z M368.507,401.571h-63.012v-31.51h63.012V401.571z
	 M431.434,280.947c0,13.693-11.14,24.833-24.833,24.833H135.56l49.666-49.666h221.375
	C420.294,256.114,431.434,267.254,431.434,280.947z M305.494,217.951h63.012v18.163h-63.012V217.951z M272.296,136.802
	c-20.727,0-39.398-10.089-50.876-25.979c-0.27-0.46-0.581-0.903-0.931-1.324c-2.618-3.831-4.827-7.979-6.558-12.388h116.731
	C321.405,120.687,298.493,136.802,272.296,136.802z M491.175,77.11H20.825V58.556h395.019c5.522,0,10-4.478,10-10s-4.478-10-10-10
	H20.825V20h470.35L491.175,77.11L491.175,77.11z"/>
<path d="M451.43,58.56c-0.649,0-1.31-0.069-1.95-0.2c-0.64-0.13-1.27-0.319-1.87-0.569s-1.18-0.561-1.729-0.92
	c-0.54-0.36-1.061-0.78-1.521-1.24c-0.46-0.46-0.88-0.981-1.239-1.521c-0.36-0.55-0.67-1.13-0.92-1.729
	c-0.25-0.6-0.44-1.231-0.57-1.87c-0.13-0.65-0.19-1.3-0.19-1.95c0-0.66,0.06-1.31,0.19-1.96c0.13-0.64,0.32-1.27,0.57-1.87
	s0.56-1.18,0.92-1.729c0.359-0.54,0.779-1.061,1.239-1.521c0.46-0.46,0.98-0.87,1.521-1.239c0.55-0.36,1.13-0.671,1.729-0.921
	c0.601-0.25,1.23-0.439,1.87-0.569c1.29-0.26,2.62-0.26,3.91,0c0.63,0.13,1.26,0.319,1.87,0.569c0.6,0.25,1.18,0.561,1.72,0.921
	c0.551,0.369,1.061,0.779,1.521,1.239c0.47,0.471,0.88,0.98,1.25,1.521c0.359,0.55,0.67,1.13,0.92,1.729
	c0.25,0.601,0.44,1.23,0.57,1.87c0.13,0.65,0.189,1.3,0.189,1.96c0,0.65-0.06,1.3-0.189,1.95c-0.131,0.64-0.32,1.271-0.57,1.87
	c-0.25,0.6-0.56,1.18-0.92,1.729c-0.37,0.54-0.78,1.06-1.25,1.521c-0.46,0.46-0.97,0.88-1.521,1.24c-0.54,0.359-1.12,0.67-1.72,0.92
	c-0.61,0.25-1.24,0.439-1.87,0.569C452.74,58.49,452.08,58.56,451.43,58.56z"/>
<path d="M403.128,293.018h-9.333c-5.522,0-10-4.478-10-10c0-5.523,4.478-10,10-10h9.333c5.522,0,10,4.477,10,10
	C413.128,288.54,408.649,293.018,403.128,293.018z"/>
<path d="M93.688,294.247c-2.56,0-5.118-0.977-7.071-2.929c-3.905-3.905-3.905-10.237,0-14.143l6.6-6.6
	c3.906-3.904,10.236-3.904,14.143,0c3.905,3.905,3.905,10.237,0,14.143l-6.6,6.6C98.807,293.271,96.248,294.247,93.688,294.247z"/>
<g>
</g>
<g>
</g>
<g>
</g>
<g>
</g>
<g>
</g>
<g>
</g>
<g>
</g>
<g>
</g>
<g>
</g>
<g>
</g>
<g>
</g>
<g>
</g>
<g>
</g>
<g>
</g>
<g>
</g>
</svg>
