<?xml version="1.0" encoding="iso-8859-1"?>
<!-- Generator: Adobe Illustrator 19.0.0, SVG Export Plug-In . SVG Version: 6.00 Build 0)  -->
<svg version="1.1" id="Capa_1" xmlns="http://www.w3.org/2000/svg" xmlns:xlink="http://www.w3.org/1999/xlink" x="0px" y="0px"
	 viewBox="0 0 512 512" style="enable-background:new 0 0 512 512;" xml:space="preserve">
<g>
	<polyline style="fill:#E7ECED;" points="221.822,246.198 221.822,141.357 170.844,141.357 170.844,237.423 	"/>
	<path style="fill:#E7ECED;" d="M123.686,288.401h55.934c-8.29-5.447-13.763-14.829-13.763-25.489
		c0-10.66,5.473-20.042,13.763-25.489h-55.933c3.9,7.65,6.1,16.313,6.1,25.489l0,0C129.786,272.088,127.586,280.75,123.686,288.401z
		"/>
</g>
<path style="fill:#009D93;" d="M73.59,319.108H48.555V206.715H73.59c4.661,0,9.19,0.568,13.521,1.637V10.825H10v490.35h77.111
	V317.47C82.78,318.54,78.251,319.108,73.59,319.108z"/>
<rect x="170.84" y="48.16" style="fill:#3ABEB6;" width="50.978" height="93.2"/>
<polygon style="fill:#8C9AA2;" points="266.034,61.259 286.034,94.759 266.034,128.259 221.822,128.259 221.822,61.259 "/>
<path style="fill:#FDB845;" d="M129.786,262.911L129.786,262.911c0,31.036-25.16,56.196-56.196,56.196H48.555V206.715H73.59
	C104.626,206.715,129.786,231.875,129.786,262.911z"/>
<circle style="fill:#3ABEB6;" cx="196.33" cy="262.91" r="30.477"/>
<path d="M48.56,70.569c-0.66,0-1.31-0.069-1.96-0.199c-0.64-0.13-1.27-0.32-1.87-0.57s-1.18-0.56-1.729-0.92
	c-0.54-0.36-1.061-0.78-1.521-1.24s-0.88-0.97-1.239-1.52c-0.36-0.54-0.671-1.13-0.921-1.73c-0.25-0.6-0.439-1.229-0.569-1.87
	c-0.13-0.64-0.2-1.3-0.2-1.95c0-0.649,0.07-1.31,0.2-1.96c0.13-0.63,0.319-1.26,0.569-1.869c0.25-0.601,0.561-1.181,0.921-1.721
	c0.359-0.55,0.779-1.06,1.239-1.52c0.46-0.47,0.98-0.88,1.521-1.25c0.55-0.36,1.13-0.67,1.729-0.92c0.601-0.25,1.23-0.441,1.87-0.57
	c3.25-0.65,6.71,0.41,9.03,2.74c0.46,0.46,0.88,0.97,1.24,1.52c0.359,0.54,0.67,1.12,0.92,1.721c0.25,0.609,0.439,1.239,0.569,1.869
	c0.131,0.65,0.2,1.31,0.2,1.96c0,0.65-0.069,1.311-0.2,1.95c-0.13,0.641-0.319,1.271-0.569,1.87c-0.25,0.601-0.561,1.19-0.92,1.73
	c-0.36,0.55-0.78,1.06-1.24,1.52c-0.46,0.46-0.981,0.88-1.521,1.24c-0.55,0.36-1.13,0.67-1.729,0.92c-0.6,0.25-1.231,0.44-1.87,0.57
	C49.859,70.5,49.21,70.569,48.56,70.569z"/>
<rect x="424.89" y="10.825" style="fill:#8C9AA2;" width="77.11" height="490.35"/>
<path d="M463.44,461.43c-0.65,0-1.31-0.06-1.949-0.189c-0.641-0.131-1.271-0.32-1.87-0.57c-0.601-0.25-1.181-0.56-1.73-0.92
	c-0.54-0.37-1.05-0.78-1.52-1.25c-0.46-0.46-0.88-0.971-1.24-1.521c-0.36-0.54-0.67-1.12-0.92-1.72c-0.25-0.61-0.44-1.24-0.57-1.87
	c-0.13-0.649-0.2-1.309-0.2-1.96c0-0.65,0.07-1.31,0.2-1.95s0.32-1.27,0.57-1.87s0.56-1.18,0.92-1.729
	c0.36-0.54,0.78-1.061,1.24-1.521c0.47-0.46,0.98-0.88,1.52-1.239c0.55-0.36,1.13-0.67,1.73-0.92s1.23-0.44,1.87-0.57
	c1.29-0.26,2.619-0.26,3.909,0c0.631,0.13,1.261,0.32,1.87,0.57c0.601,0.25,1.181,0.56,1.721,0.92
	c0.55,0.359,1.06,0.779,1.529,1.239c0.46,0.46,0.88,0.98,1.24,1.521c0.36,0.55,0.67,1.13,0.92,1.729c0.25,0.601,0.44,1.23,0.57,1.87
	c0.13,0.641,0.19,1.3,0.19,1.95c0,2.63-1.06,5.21-2.92,7.07c-0.47,0.47-0.979,0.88-1.529,1.25c-0.54,0.359-1.12,0.67-1.721,0.92
	c-0.609,0.25-1.239,0.44-1.87,0.57C464.75,461.37,464.09,461.43,463.44,461.43z"/>
<rect x="356.03" y="57.42" style="fill:#FDB845;" width="68.857" height="87.4"/>
<g>
	<rect x="356.03" y="203.37" style="fill:#FFD480;" width="68.857" height="87.4"/>
	<rect x="356.03" y="349.31" style="fill:#FFD480;" width="68.857" height="87.4"/>
</g>
<path d="M502,0.825h-77.11c-5.522,0-10,4.477-10,10v36.598h-58.857c-5.522,0-10,4.477-10,10v77.402H324c-5.522,0-10,4.478-10,10
	c0,5.523,4.478,10,10,10h90.89v38.541h-58.857c-5.522,0-10,4.478-10,10v77.402H324c-5.522,0-10,4.478-10,10s4.478,10,10,10h90.89
	v38.541h-58.857c-5.522,0-10,4.478-10,10v77.401H324c-5.522,0-10,4.478-10,10s4.478,10,10,10h90.89v44.464H97.11V324.791
	c13.401-5.111,24.728-14.456,32.337-26.391h47.434c5.776,3.178,12.406,4.988,19.451,4.988c22.319,0,40.478-18.158,40.478-40.478
	c0-7.045-1.81-13.676-4.988-19.451v-105.2h34.212c3.52,0,6.781-1.852,8.586-4.874l17.09-28.626h19.589c5.522,0,10-4.477,10-10
	c0-5.522-4.478-10-10-10H291.71l-17.09-28.626c-1.805-3.022-5.065-4.874-8.586-4.874h-34.212v-3.098c0-5.522-4.478-10-10-10h-50.978
	c-5.522,0-10,4.478-10,10v179.262h-31.396c-7.61-11.936-18.937-21.281-32.338-26.392V10.825c0-5.523-4.478-10-10-10H10
	c-5.523,0-10,4.477-10,10v490.35c0,5.522,4.477,10,10,10h492c5.522,0,10-4.478,10-10V10.825C512,5.303,507.522,0.825,502,0.825z
	 M366.032,134.825V67.423h48.857v67.402H366.032z M366.032,280.769v-67.402h48.857v67.402H366.032z M366.032,426.711V359.31h48.857
	v67.401H366.032z M211.822,225.516c-4.774-1.984-10.006-3.081-15.489-3.081s-10.715,1.096-15.488,3.081v-74.158h30.978
	L211.822,225.516L211.822,225.516z M196.333,283.389c-11.291,0-20.477-9.187-20.477-20.478c0-11.291,9.186-20.477,20.477-20.477
	s20.478,9.186,20.478,20.477C216.811,274.202,207.624,283.389,196.333,283.389z M260.357,71.259l14.03,23.5l-14.03,23.5h-28.535v-47
	H260.357z M180.845,58.161h30.978v73.196h-30.978V58.161z M158.937,247.423c-1.984,4.773-3.081,10.005-3.081,15.488
	c0,5.484,1.097,10.716,3.081,15.489h-20.981c1.196-4.97,1.83-10.157,1.83-15.489s-0.634-10.518-1.83-15.488H158.937z
	 M119.786,262.911c0,24.477-19.136,44.569-43.233,46.102c0,0-0.001,0-0.002,0c-0.193,0.012-0.387,0.023-0.581,0.033
	c-0.007,0-0.014,0.001-0.021,0.001c-0.191,0.009-0.383,0.018-0.575,0.026c-0.001,0-0.002,0-0.003,0
	c-0.179,0.007-0.359,0.012-0.538,0.017c-0.031,0.001-0.063,0.002-0.094,0.002c-0.172,0.004-0.344,0.008-0.517,0.01
	c-0.032,0-0.064,0.001-0.096,0.001c-0.179,0.002-0.358,0.003-0.537,0.003H58.556v-92.393H73.59c0.179,0,0.357,0.001,0.536,0.004
	c0.033,0,0.065,0.001,0.098,0.001c0.171,0.002,0.342,0.005,0.512,0.01c0.035,0.001,0.069,0.002,0.103,0.003
	c0.176,0.005,0.351,0.01,0.526,0.017c0.01,0,0.019,0.001,0.029,0.001c0.178,0.007,0.357,0.015,0.535,0.024
	c0.017,0.001,0.035,0.001,0.052,0.002c0.186,0.01,0.371,0.02,0.557,0.032c0.011,0.001,0.022,0.001,0.033,0.002
	C100.659,218.351,119.786,238.44,119.786,262.911z M20,20.825h57.11v175.982c-1.018-0.054-2.042-0.084-3.072-0.091
	c-0.003,0-0.006,0-0.008,0c-0.146-0.001-0.293-0.001-0.44-0.001H58.556V96.156c0-5.523-4.478-10-10-10s-10,4.477-10,10v395.018H20
	V20.825z M58.556,491.175V329.107H73.59c0.147,0,0.294,0,0.44-0.001c0.003,0,0.007,0,0.01,0c1.029-0.007,2.053-0.038,3.071-0.091
	v162.16H58.556z M434.89,491.175V20.825h18.555v395.019c0,5.522,4.478,10,10,10s10-4.478,10-10V20.825H492v470.35L434.89,491.175
	L434.89,491.175z"/>
<g>
</g>
<g>
</g>
<g>
</g>
<g>
</g>
<g>
</g>
<g>
</g>
<g>
</g>
<g>
</g>
<g>
</g>
<g>
</g>
<g>
</g>
<g>
</g>
<g>
</g>
<g>
</g>
<g>
</g>
</svg>
