<?xml version="1.0" encoding="iso-8859-1"?>
<!-- Generator: Adobe Illustrator 19.0.0, SVG Export Plug-In . SVG Version: 6.00 Build 0)  -->
<svg version="1.1" id="Capa_1" xmlns="http://www.w3.org/2000/svg" xmlns:xlink="http://www.w3.org/1999/xlink" x="0px" y="0px"
	 viewBox="0 0 512 512" style="enable-background:new 0 0 512 512;" xml:space="preserve">
<path style="fill:#FFD480;" d="M68.227,126.455L68.227,126.455C36.069,126.455,10,100.385,10,68.227l0,0
	C10,36.069,36.069,10,68.227,10l0,0c32.158,0,58.227,26.069,58.227,58.227l0,0C126.455,100.385,100.385,126.455,68.227,126.455z"/>
<path d="M68.227,136.455C30.606,136.455,0,105.849,0,68.228S30.606,0,68.227,0s68.227,30.606,68.227,68.228
	S105.848,136.455,68.227,136.455z M68.227,20C41.635,20,20,41.635,20,68.228s21.635,48.228,48.227,48.228
	c26.593,0,48.228-21.635,48.228-48.228S94.82,20,68.227,20z"/>
<path d="M91.94,58.228H78.227V44.514c0-5.522-4.477-10-10-10s-10,4.478-10,10v13.714H44.514c-5.523,0-10,4.478-10,10
	c0,5.522,4.477,10,10,10h13.713V91.94c0,5.522,4.477,10,10,10s10-4.478,10-10V78.228H91.94c5.523,0,10-4.478,10-10
	C101.94,62.705,97.463,58.228,91.94,58.228z"/>
<path style="fill:#009D93;" d="M443.773,126.455L443.773,126.455c-32.158,0-58.227-26.069-58.227-58.227l0,0
	c0-32.158,26.069-58.227,58.227-58.227l0,0C475.931,10,502,36.069,502,68.227l0,0C502,100.385,475.931,126.455,443.773,126.455z"/>
<path d="M443.772,136.455c-37.621,0-68.228-30.606-68.228-68.228S406.151,0,443.772,0S512,30.606,512,68.228
	S481.394,136.455,443.772,136.455z M443.772,20c-26.593,0-48.228,21.635-48.228,48.228s21.635,48.228,48.228,48.228
	S492,94.821,492,68.228S470.365,20,443.772,20z"/>
<path d="M467.486,78.228H420.06c-5.522,0-10-4.478-10-10s4.478-10,10-10h47.427c5.522,0,10,4.478,10,10
	C477.486,73.75,473.009,78.228,467.486,78.228z"/>
<rect x="78" y="335" style="fill:#8C9AA2;" width="356" height="153.54"/>
<g>
	<rect x="434" y="321.55" style="fill:#E7ECED;" width="68" height="180.45"/>
	<rect x="10" y="321.55" style="fill:#E7ECED;" width="68" height="180.45"/>
</g>
<rect x="167.67" y="398.43" style="fill:#C4C6C9;" width="176.67" height="90.12"/>
<rect x="167.67" y="289.94" style="fill:#009D93;" width="176.67" height="45.06"/>
<path d="M210.42,441.35c-0.65,0-1.31-0.07-1.96-0.2c-0.63-0.13-1.26-0.319-1.87-0.569c-0.6-0.25-1.18-0.561-1.72-0.92
	c-0.55-0.36-1.06-0.78-1.52-1.24s-0.88-0.97-1.25-1.52c-0.36-0.54-0.67-1.12-0.92-1.73c-0.25-0.601-0.44-1.23-0.57-1.87
	c-0.13-0.64-0.19-1.3-0.19-1.95c0-0.649,0.06-1.31,0.19-1.96c0.13-0.63,0.32-1.26,0.57-1.87c0.25-0.6,0.56-1.18,0.92-1.72
	c0.37-0.55,0.79-1.06,1.25-1.521c0.46-0.47,0.97-0.88,1.52-1.25c0.54-0.359,1.12-0.67,1.72-0.92c0.61-0.25,1.24-0.44,1.87-0.569
	c3.26-0.65,6.71,0.41,9.03,2.739c0.46,0.461,0.88,0.971,1.24,1.521c0.36,0.54,0.67,1.12,0.92,1.72c0.25,0.61,0.44,1.24,0.57,1.87
	c0.13,0.65,0.2,1.311,0.2,1.96c0,0.65-0.07,1.311-0.2,1.95c-0.13,0.64-0.32,1.27-0.57,1.87c-0.25,0.609-0.56,1.19-0.92,1.73
	c-0.36,0.551-0.78,1.061-1.24,1.52c-0.46,0.46-0.97,0.88-1.52,1.24c-0.54,0.359-1.12,0.67-1.73,0.92
	c-0.6,0.25-1.23,0.439-1.87,0.569C211.73,441.279,211.07,441.35,210.42,441.35z"/>
<polygon style="fill:#FDB845;" points="329.047,165.981 292.157,195.845 219.843,195.845 182.953,165.981 128.511,165.981 
	128.511,222.094 166.628,222.094 203.518,251.958 308.482,251.958 345.372,222.094 383.489,222.094 383.489,165.981 "/>
<g>
	<path style="fill:#E7ECED;" d="M287.626,195.845v-4.395c0-17.467-14.159-31.626-31.626-31.626s-31.626,14.16-31.626,31.626v4.395
		L287.626,195.845L287.626,195.845z"/>
	<rect x="224.37" y="251.96" style="fill:#E7ECED;" width="63.25" height="37.985"/>
</g>
<path d="M502,311.553h-68c-5.522,0-10,4.478-10,10v3.452h-69.667v-35.062c0-5.522-4.478-10-10-10h-46.707v-17.985h10.855
	c2.291,0,4.512-0.786,6.292-2.228l34.139-27.637h34.577c5.522,0,10-4.478,10-10v-56.112c0-5.522-4.478-10-10-10h-54.441
	c-2.29,0-4.512,0.786-6.292,2.228l-26.767,21.668c-5.026-17.34-21.051-30.053-39.989-30.053s-34.963,12.713-39.989,30.053
	l-26.767-21.668c-1.78-1.441-4.001-2.228-6.292-2.228h-54.441c-5.523,0-10,4.478-10,10v56.112c0,5.522,4.477,10,10,10h34.576
	l34.139,27.637c1.78,1.441,4.001,2.228,6.292,2.228h10.856v17.985h-46.708c-5.523,0-10,4.478-10,10v35.062H88v-3.452
	c0-5.522-4.477-10-10-10H10c-5.523,0-10,4.478-10,10V502c0,5.522,4.477,10,10,10h68c5.523,0,10-4.478,10-10v-3.452h336V502
	c0,5.522,4.478,10,10,10h68c5.522,0,10-4.478,10-10V321.553C512,316.03,507.522,311.553,502,311.553z M256,169.824
	c9.986,0,18.414,6.805,20.89,16.02h-41.78C237.586,176.629,246.014,169.824,256,169.824z M172.919,214.321
	c-1.78-1.441-4.001-2.228-6.292-2.228h-28.116v-36.112h40.901l34.139,27.636c1.78,1.441,4.001,2.227,6.292,2.227h72.313
	c2.29,0,4.512-0.786,6.292-2.227l34.14-27.636h40.901v36.112h-28.117c-2.291,0-4.512,0.786-6.292,2.228l-34.139,27.637h-97.883
	L172.919,214.321z M234.374,261.958h43.252v17.985h-43.252L234.374,261.958L234.374,261.958z M177.666,299.943h156.667v25.062
	H177.666V299.943z M68,492H20V331.553h48V492z M177.666,478.548v-70.123h156.667v12.923h-87.248c-5.523,0-10,4.478-10,10
	s4.477,10,10,10h87.248v37.2H177.666z M354.333,478.548v-80.123c0-5.522-4.478-10-10-10H167.666c-5.523,0-10,4.478-10,10v80.123H88
	V345.005h336v133.543H354.333z M492,492h-48V331.553h48V492z"/>
<path d="M391.58,377.52c-0.65,0-1.311-0.069-1.95-0.2c-0.64-0.13-1.271-0.319-1.87-0.569c-0.61-0.25-1.19-0.56-1.729-0.92
	c-0.551-0.36-1.061-0.78-1.521-1.24s-0.88-0.97-1.24-1.521c-0.359-0.54-0.67-1.119-0.92-1.729c-0.25-0.6-0.439-1.23-0.569-1.87
	c-0.131-0.64-0.2-1.3-0.2-1.95c0-0.649,0.069-1.31,0.2-1.96c0.13-0.63,0.319-1.26,0.569-1.87c0.25-0.6,0.561-1.18,0.92-1.72
	c0.36-0.55,0.78-1.06,1.24-1.52s0.97-0.881,1.521-1.25c0.539-0.36,1.119-0.671,1.729-0.921c0.6-0.25,1.23-0.439,1.87-0.569
	c3.24-0.66,6.7,0.41,9.02,2.74c0.46,0.46,0.881,0.97,1.24,1.52c0.36,0.54,0.67,1.12,0.92,1.72c0.25,0.61,0.45,1.24,0.58,1.87
	c0.13,0.65,0.191,1.31,0.191,1.96s-0.061,1.311-0.191,1.95c-0.13,0.64-0.33,1.271-0.58,1.87c-0.25,0.61-0.56,1.189-0.92,1.729
	c-0.359,0.551-0.78,1.061-1.24,1.521s-0.97,0.88-1.52,1.24c-0.54,0.359-1.12,0.67-1.72,0.92c-0.61,0.25-1.24,0.44-1.87,0.569
	C392.89,377.45,392.229,377.52,391.58,377.52z"/>
<path d="M354.915,377.519H120.418c-5.523,0-10-4.478-10-10s4.477-10,10-10h234.497c5.522,0,10,4.478,10,10
	C364.915,373.041,360.438,377.519,354.915,377.519z"/>
<g>
</g>
<g>
</g>
<g>
</g>
<g>
</g>
<g>
</g>
<g>
</g>
<g>
</g>
<g>
</g>
<g>
</g>
<g>
</g>
<g>
</g>
<g>
</g>
<g>
</g>
<g>
</g>
<g>
</g>
</svg>
