<?xml version="1.0" encoding="iso-8859-1"?>
<!-- Generator: Adobe Illustrator 19.0.0, SVG Export Plug-In . SVG Version: 6.00 Build 0)  -->
<svg version="1.1" id="Capa_1" xmlns="http://www.w3.org/2000/svg" xmlns:xlink="http://www.w3.org/1999/xlink" x="0px" y="0px"
	 viewBox="0 0 512 512" style="enable-background:new 0 0 512 512;" xml:space="preserve">
<rect x="316.7" y="384.05" style="fill:#FFD480;" width="80.67" height="43.566"/>
<polygon style="fill:#FDB845;" points="397.372,327.069 364.23,289.859 349.844,289.859 316.702,327.069 316.702,384.05 
	397.372,384.05 "/>
<rect x="114.63" y="384.05" style="fill:#FFD480;" width="80.67" height="43.566"/>
<polygon style="fill:#FDB845;" points="195.299,327.069 162.156,289.859 147.77,289.859 114.628,327.069 114.628,384.05 
	195.299,384.05 "/>
<rect x="80.84" y="427.62" style="fill:#8C9AA2;" width="350.31" height="56.833"/>
<g>
	<rect x="10" y="27.55" style="fill:#E7ECED;" width="70.843" height="456.9"/>
	<rect x="431.16" y="27.55" style="fill:#E7ECED;" width="70.843" height="456.9"/>
</g>
<rect x="80.84" y="66.06" style="fill:#3ABEB6;" width="148.24" height="52.53"/>
<g>
	<rect x="125.69" y="37.38" style="fill:#E7ECED;" width="58.54" height="28.674"/>
	<rect x="125.69" y="118.59" style="fill:#E7ECED;" width="58.54" height="28.674"/>
</g>
<rect x="282.92" y="66.06" style="fill:#3ABEB6;" width="148.24" height="52.53"/>
<g>
	<rect x="327.77" y="37.38" style="fill:#E7ECED;" width="58.54" height="28.674"/>
	<rect x="327.77" y="118.59" style="fill:#E7ECED;" width="58.54" height="28.674"/>
</g>
<g>
	<rect x="130.95" y="213.26" style="fill:#009D93;" width="48.03" height="48.03"/>
	<rect x="333.02" y="241.83" style="fill:#009D93;" width="48.03" height="48.03"/>
</g>
<path d="M45.42,87.78c-0.65,0-1.31-0.07-1.95-0.2c-0.64-0.12-1.27-0.32-1.87-0.57c-0.61-0.25-1.19-0.55-1.73-0.91
	c-0.55-0.37-1.059-0.789-1.52-1.25c-0.46-0.46-0.88-0.97-1.24-1.52c-0.36-0.54-0.67-1.12-0.92-1.73c-0.25-0.6-0.44-1.23-0.57-1.87
	s-0.2-1.3-0.2-1.95c0-0.65,0.07-1.31,0.2-1.95s0.32-1.27,0.57-1.87c0.25-0.61,0.56-1.19,0.92-1.73c0.36-0.55,0.78-1.06,1.24-1.52
	c0.46-0.46,0.97-0.88,1.52-1.24c0.54-0.36,1.12-0.67,1.73-0.92c0.6-0.25,1.23-0.45,1.87-0.57c1.29-0.26,2.62-0.26,3.91,0
	c0.63,0.12,1.26,0.32,1.87,0.57c0.6,0.25,1.18,0.56,1.72,0.92c0.55,0.36,1.06,0.78,1.52,1.24s0.88,0.97,1.25,1.52
	c0.36,0.54,0.67,1.12,0.92,1.73c0.25,0.6,0.44,1.23,0.57,1.87s0.19,1.3,0.19,1.95c0,2.63-1.07,5.21-2.93,7.07
	c-0.46,0.461-0.97,0.88-1.52,1.25c-0.54,0.36-1.12,0.66-1.72,0.91c-0.61,0.25-1.24,0.45-1.87,0.57
	C46.73,87.71,46.07,87.78,45.42,87.78z"/>
<path d="M466.58,451.42c-0.65,0-1.31-0.06-1.95-0.19s-1.27-0.32-1.88-0.57c-0.6-0.25-1.18-0.56-1.72-0.92
	c-0.55-0.37-1.06-0.79-1.52-1.25s-0.88-0.97-1.25-1.52c-0.36-0.54-0.67-1.12-0.92-1.72c-0.25-0.61-0.44-1.24-0.57-1.88
	s-0.19-1.3-0.19-1.95c0-0.65,0.059-1.31,0.19-1.95c0.13-0.64,0.32-1.27,0.57-1.87c0.25-0.61,0.56-1.19,0.92-1.73
	c0.37-0.55,0.79-1.059,1.25-1.52c0.46-0.46,0.97-0.88,1.52-1.24c0.54-0.36,1.12-0.67,1.72-0.92c0.61-0.25,1.24-0.44,1.88-0.57
	c1.28-0.26,2.61-0.26,3.9,0c0.64,0.13,1.27,0.32,1.87,0.57c0.61,0.25,1.19,0.56,1.73,0.92c0.55,0.36,1.06,0.78,1.52,1.24
	c0.46,0.461,0.88,0.97,1.24,1.52c0.36,0.54,0.671,1.12,0.921,1.73c0.25,0.6,0.44,1.23,0.57,1.87c0.13,0.64,0.2,1.3,0.2,1.95
	c0,0.65-0.07,1.31-0.2,1.95s-0.32,1.27-0.57,1.88c-0.25,0.6-0.56,1.18-0.921,1.72c-0.36,0.55-0.78,1.06-1.24,1.52
	s-0.97,0.88-1.52,1.25c-0.54,0.36-1.12,0.67-1.73,0.92c-0.6,0.25-1.23,0.44-1.87,0.57C467.89,451.36,467.23,451.42,466.58,451.42z"
	/>
<path d="M502,17.55h-70.843c-5.523,0-10,4.477-10,10v28.505h-24.852V37.381c0-5.523-4.477-10-10-10h-58.537c-5.523,0-10,4.477-10,10
	v18.674h-34.852c-5.523,0-10,4.477-10,10v18.136h-33.833V66.055c0-5.523-4.477-10-10-10h-34.852V37.381c0-5.523-4.477-10-10-10
	h-58.537c-5.523,0-10,4.477-10,10v18.674H90.843V27.55c0-5.523-4.477-10-10-10H10c-5.523,0-10,4.477-10,10v456.9
	c0,5.523,4.477,10,10,10h492c5.523,0,10-4.477,10-10V27.55C512,22.027,507.523,17.55,502,17.55z M205.299,417.617V394.05h101.403
	v23.566H205.299V417.617z M90.843,417.617V394.05h13.785v23.566H90.843V417.617z M185.299,374.05h-60.671v-43.173l27.627-31.018
	h5.417l27.627,31.018V374.05z M124.628,394.05h60.671v23.566h-60.671C124.628,417.616,124.628,394.05,124.628,394.05z
	 M343.021,279.859v-28.032h28.032v28.032H343.021z M354.329,299.859h5.417l27.627,31.018v43.173h-60.67v-43.173L354.329,299.859z
	 M326.702,394.05h60.67v23.566h-60.67L326.702,394.05L326.702,394.05z M407.372,394.05h13.785v23.566h-13.785V394.05z
	 M337.769,47.381h38.537v8.674h-38.537V47.381z M292.917,76.055h128.241v32.532H292.917V76.055z M376.305,137.262h-38.537v-8.674
	h38.537V137.262z M272.917,104.191v14.396c0,5.523,4.477,10,10,10h34.852v18.674c0,2.155,0.682,4.151,1.841,5.783l-5.985,26.561
	c-0.558,2.477-0.153,5.074,1.133,7.263l17.633,30.02c1.863,3.171,5.202,4.936,8.632,4.936c1.721,0,3.464-0.444,5.056-1.379
	c4.762-2.797,6.355-8.925,3.558-13.688l-15.632-26.612l5.157-22.885h35.752l5.157,22.885l-15.631,26.612
	c-2.797,4.762-1.204,10.89,3.558,13.687c1.591,0.935,3.334,1.379,5.055,1.379c3.43,0,6.769-1.766,8.632-4.936l17.633-30.02
	c1.286-2.189,1.691-4.786,1.133-7.263l-5.985-26.56c1.16-1.633,1.841-3.629,1.841-5.784v-18.674h24.852V374.05h-13.785v-46.981
	c0-2.453-0.901-4.82-2.533-6.651l-19.27-21.636c3.254-1.65,5.483-5.026,5.483-8.924v-48.032c0-5.523-4.477-10-10-10h-48.032
	c-5.523,0-10,4.477-10,10v48.032c0,3.898,2.23,7.274,5.483,8.924l-19.27,21.636c-1.631,1.831-2.533,4.198-2.533,6.651v46.981
	H205.299v-46.981c0-2.453-0.901-4.82-2.533-6.651l-33.143-37.211c-1.897-2.13-4.614-3.349-7.467-3.349H147.77
	c-2.853,0-5.57,1.219-7.467,3.349l-33.142,37.211c-1.631,1.831-2.533,4.198-2.533,6.651v46.981H90.843V128.587h24.852v18.674
	c0,2.155,0.682,4.151,1.841,5.784l-5.985,26.56c-0.558,2.477-0.153,5.074,1.133,7.263l11.293,19.226
	c-1.868,1.817-3.03,4.357-3.03,7.17v48.032c0,5.523,4.477,10,10,10h48.032c5.523,0,10-4.477,10-10v-48.032
	c0-2.812-1.161-5.353-3.03-7.169l11.293-19.226c1.286-2.189,1.691-4.786,1.133-7.263l-5.985-26.561
	c1.159-1.633,1.841-3.628,1.841-5.783v-18.674h34.852c5.523,0,10-4.477,10-10v-14.396L272.917,104.191L272.917,104.191z
	 M172.839,157.262l5.157,22.885l-13.579,23.118H145.51l-13.579-23.118l5.157-22.885H172.839z M140.947,223.265h28.032v28.032
	h-28.032V223.265z M174.231,137.262h-38.537v-8.674h38.537V137.262z M135.695,47.381h38.537v8.674h-38.537V47.381z M219.083,76.055
	v32.532H90.843V76.055H219.083z M20,37.55h50.843v436.9H55.421V114.472c0-5.523-4.477-10-10-10s-10,4.477-10,10V474.45H20V37.55z
	 M90.843,437.617h330.314v36.833H90.843V437.617z M492,474.45h-50.843V37.55h15.421v367.18c0,5.523,4.477,10,10,10s10-4.477,10-10
	V37.55H492V474.45z"/>
<g>
</g>
<g>
</g>
<g>
</g>
<g>
</g>
<g>
</g>
<g>
</g>
<g>
</g>
<g>
</g>
<g>
</g>
<g>
</g>
<g>
</g>
<g>
</g>
<g>
</g>
<g>
</g>
<g>
</g>
</svg>
