<?xml version="1.0" encoding="iso-8859-1"?>
<!-- Generator: Adobe Illustrator 19.0.0, SVG Export Plug-In . SVG Version: 6.00 Build 0)  -->
<svg version="1.1" id="Capa_1" xmlns="http://www.w3.org/2000/svg" xmlns:xlink="http://www.w3.org/1999/xlink" x="0px" y="0px"
	 viewBox="0 0 512 512" style="enable-background:new 0 0 512 512;" xml:space="preserve">
<polygon style="fill:#FDB845;" points="389.389,267.357 371.638,286.611 371.638,381.707 417.758,381.707 417.758,286.611 
	400.007,267.357 "/>
<polygon style="fill:#FFD480;" points="301.128,267.357 283.377,286.611 283.377,381.707 329.496,381.707 329.496,286.611 
	311.745,267.357 "/>
<polygon style="fill:#FDB845;" points="212.867,267.357 195.116,286.611 195.116,381.707 241.235,381.707 241.235,286.611 
	223.484,267.357 "/>
<polygon style="fill:#FFD480;" points="124.605,267.357 106.854,286.611 106.854,381.707 152.974,381.707 152.974,286.611 
	135.223,267.357 "/>
<rect x="375.48" y="162.3" style="fill:#3ABEB6;" width="38.44" height="30.651"/>
<path style="fill:#8C9AA2;" d="M442.039,501.631H69.962C36.846,501.631,10,474.785,10,441.669l0,0
	c0-33.116,26.846-59.962,59.962-59.962h372.077c33.116,0,59.962,26.846,59.962,59.962l0,0
	C502.001,474.785,475.155,501.631,442.039,501.631z"/>
<g>
	<path style="fill:#E7ECED;" d="M69.962,381.707h36.892V88.85H40.953v300.328C49.55,384.417,59.439,381.707,69.962,381.707z"/>
	<circle style="fill:#E7ECED;" cx="79" cy="441.67" r="32.02"/>
	<circle style="fill:#E7ECED;" cx="236.13" cy="441.67" r="32.02"/>
	<circle style="fill:#E7ECED;" cx="393.26" cy="441.67" r="32.02"/>
</g>
<polyline style="fill:#009D93;" points="362.372,23.685 40.953,23.685 40.953,88.85 362.373,88.85 "/>
<circle style="fill:#FDB845;" cx="394.7" cy="56.27" r="45.898"/>
<path d="M73.9,150.15c-0.65,0-1.31-0.07-1.95-0.2c-0.64-0.13-1.27-0.32-1.87-0.57c-0.61-0.25-1.19-0.56-1.73-0.92
	c-0.55-0.36-1.06-0.78-1.52-1.24s-0.88-0.97-1.24-1.52c-0.36-0.54-0.67-1.12-0.92-1.73c-0.25-0.6-0.44-1.23-0.57-1.87
	c-0.13-0.64-0.2-1.3-0.2-1.95s0.07-1.31,0.2-1.96c0.13-0.63,0.32-1.26,0.57-1.87c0.25-0.6,0.56-1.18,0.92-1.72
	c0.36-0.55,0.78-1.06,1.24-1.52s0.97-0.88,1.52-1.25c0.54-0.36,1.12-0.67,1.73-0.92c0.6-0.25,1.23-0.44,1.87-0.57
	c1.29-0.26,2.62-0.26,3.91,0c0.64,0.13,1.26,0.32,1.87,0.57c0.6,0.25,1.18,0.56,1.72,0.92c0.55,0.37,1.06,0.79,1.52,1.25
	s0.88,0.97,1.25,1.52c0.36,0.54,0.67,1.12,0.92,1.72c0.25,0.61,0.44,1.24,0.57,1.87c0.13,0.65,0.19,1.31,0.19,1.96
	c0,0.65-0.06,1.31-0.19,1.95c-0.13,0.64-0.32,1.27-0.57,1.87c-0.25,0.61-0.56,1.19-0.92,1.73c-0.37,0.55-0.79,1.06-1.25,1.52
	C79.11,149.081,76.541,150.15,73.9,150.15z"/>
<path d="M304.45,66.27c-0.65,0-1.31-0.07-1.95-0.2s-1.27-0.32-1.87-0.57c-0.61-0.25-1.19-0.56-1.73-0.92
	c-0.55-0.36-1.06-0.78-1.52-1.24c-0.46-0.46-0.88-0.97-1.24-1.52c-0.36-0.54-0.67-1.13-0.92-1.73s-0.45-1.23-0.57-1.87
	c-0.13-0.64-0.2-1.3-0.2-1.95s0.07-1.31,0.2-1.96c0.12-0.63,0.32-1.26,0.57-1.87c0.25-0.6,0.56-1.18,0.92-1.72
	c0.36-0.55,0.78-1.06,1.24-1.52c0.46-0.47,0.97-0.88,1.52-1.25c0.54-0.36,1.12-0.67,1.73-0.92c0.6-0.25,1.23-0.44,1.87-0.57
	c1.29-0.26,2.61-0.26,3.9,0c0.64,0.13,1.27,0.32,1.87,0.57c0.61,0.25,1.19,0.56,1.73,0.92c0.55,0.37,1.06,0.78,1.52,1.25
	c0.46,0.46,0.88,0.97,1.24,1.52c0.36,0.54,0.67,1.12,0.92,1.72c0.25,0.61,0.45,1.24,0.57,1.87c0.13,0.65,0.2,1.31,0.2,1.96
	c0,0.65-0.07,1.31-0.2,1.95c-0.12,0.64-0.32,1.27-0.57,1.87s-0.56,1.19-0.92,1.73c-0.36,0.55-0.78,1.06-1.24,1.52
	s-0.97,0.88-1.52,1.24c-0.54,0.36-1.12,0.67-1.73,0.92c-0.6,0.25-1.23,0.44-1.87,0.57S305.1,66.27,304.45,66.27z"/>
<path d="M442.039,371.707h-14.281v-85.096c0-2.512-0.945-4.932-2.648-6.778l-17.751-19.254c-1.893-2.054-4.559-3.222-7.352-3.222
	h-10.618c-2.793,0-5.459,1.168-7.352,3.222l-17.751,19.254c-1.703,1.847-2.648,4.267-2.648,6.778v85.096h-22.142v-85.096
	c0-2.512-0.945-4.932-2.648-6.778l-17.75-19.254c-1.894-2.054-4.56-3.222-7.353-3.222h-10.618c-2.793,0-5.459,1.168-7.352,3.222
	l-17.751,19.254c-1.703,1.847-2.648,4.267-2.648,6.778v85.096h-22.142v-85.096c0-2.512-0.945-4.932-2.648-6.778l-17.75-19.254
	c-1.894-2.054-4.56-3.222-7.353-3.222h-10.618c-2.793,0-5.459,1.168-7.352,3.222l-17.751,19.254
	c-1.703,1.847-2.648,4.267-2.648,6.778v85.096h-22.142v-85.096c0-2.512-0.945-4.932-2.648-6.778l-17.751-19.254
	c-1.893-2.054-4.559-3.222-7.352-3.222h-10.618c-2.793,0-5.459,1.168-7.352,3.222l-0.398,0.432V98.85h241.67
	c7.341,6.246,16.311,10.631,26.174,12.419v41.029h-9.22c-5.523,0-10,4.477-10,10v29.553l-20.88,18.008
	c-2.87,2.476-4.094,6.361-3.161,10.035l7.61,29.955c1.15,4.527,5.218,7.54,9.685,7.54c0.815,0,1.643-0.101,2.47-0.311
	c5.352-1.359,8.589-6.801,7.23-12.154l-6.087-23.96l20.889-18.016h22.93l20.889,18.016l-6.087,23.96
	c-1.359,5.353,1.877,10.795,7.23,12.154c0.827,0.21,1.654,0.311,2.47,0.311c4.466,0,8.535-3.014,9.685-7.54l7.61-29.955
	c0.933-3.674-0.291-7.559-3.161-10.035l-20.88-18.008v-29.553c0-5.523-4.477-10-10-10h-9.22v-41.029
	c26.067-4.727,45.897-27.592,45.897-55.002c0-30.822-25.076-55.898-55.897-55.898c-13.783,0-26.418,5.015-36.174,13.316H40.954
	c-5.523,0-10,4.477-10,10v359.932C12.295,396.196,0,417.523,0,441.669c0,38.577,31.385,69.962,69.962,69.962h372.076
	c38.577,0,69.962-31.385,69.962-69.962C512.001,403.092,480.616,371.707,442.039,371.707z M403.918,182.949h-18.44v-10.651h18.44
	V182.949z M381.638,290.517l12.133-13.16h1.854l12.133,13.16v81.189h-26.12V290.517z M293.377,290.517l12.133-13.16h1.854
	l12.132,13.16v81.189h-26.119V290.517z M205.116,290.517l12.133-13.16h1.854l12.132,13.16v81.189h-26.119V290.517z M128.987,277.357
	h1.854l12.133,13.16v81.189h-26.119v-81.189L128.987,277.357z M430.596,56.268c0,19.794-16.104,35.898-35.897,35.898
	c-19.795,0-35.898-16.104-35.898-35.898s16.103-35.898,35.898-35.898C414.492,20.37,430.596,36.474,430.596,56.268z M343.567,33.685
	c-3.063,6.909-4.766,14.551-4.766,22.583s1.703,15.673,4.766,22.583H50.954V66.268H267.84c5.523,0,10-4.477,10-10s-4.477-10-10-10
	H50.954V33.685H343.567z M50.954,98.85h45.901v272.857H83.904V176.76c0-5.523-4.477-10-10-10s-10,4.477-10,10v195.207
	c-4.447,0.383-8.777,1.184-12.95,2.364V98.85z M442.039,491.631H69.962C42.413,491.631,20,469.218,20,441.669
	c0-22.993,15.612-42.407,36.792-48.201c0.085-0.023,0.17-0.046,0.255-0.069c0.033-0.009,0.065-0.017,0.098-0.026
	c3.398-0.898,6.895-1.441,10.425-1.61c0.057-0.003,0.115-0.005,0.172-0.008c0.153-0.007,0.306-0.013,0.459-0.018
	c0.114-0.004,0.228-0.008,0.342-0.011c0.065-0.002,0.129-0.004,0.194-0.005c0.173-0.004,0.346-0.008,0.52-0.01
	c0.047-0.001,0.094-0.001,0.141-0.002c0.188-0.002,0.376-0.004,0.565-0.004h372.076c27.549,0,49.962,22.413,49.962,49.962
	C492.001,469.218,469.588,491.631,442.039,491.631z"/>
<path d="M150.757,415.027c-5.523,0-10,4.477-10,10v6.642H119.82c-4.498-18.359-21.093-32.021-40.819-32.021
	c-23.171,0-42.021,18.85-42.021,42.021s18.851,42.021,42.021,42.021c19.726,0,36.32-13.662,40.819-32.021h20.938v6.642
	c0,5.523,4.477,10,10,10s10-4.477,10-10v-33.283C160.757,419.504,156.28,415.027,150.757,415.027z M79.001,463.69
	c-12.143,0-22.021-9.879-22.021-22.021c0-12.143,9.879-22.021,22.021-22.021s22.021,9.878,22.021,22.021
	C101.022,453.811,91.144,463.69,79.001,463.69z"/>
<path d="M307.889,415.027c-5.523,0-10,4.477-10,10v6.642h-20.938c-4.498-18.359-21.093-32.021-40.819-32.021
	c-23.17,0-42.021,18.85-42.021,42.021s18.851,42.021,42.021,42.021c19.726,0,36.321-13.662,40.819-32.021h20.938v6.642
	c0,5.523,4.477,10,10,10s10-4.477,10-10v-33.283C317.889,419.504,313.412,415.027,307.889,415.027z M236.133,463.69
	c-12.143,0-22.021-9.879-22.021-22.021c0-12.143,9.878-22.021,22.021-22.021c12.143,0,22.021,9.878,22.021,22.021
	C258.154,453.811,248.275,463.69,236.133,463.69z"/>
<path d="M465.022,415.027c-5.523,0-10,4.477-10,10v6.642h-20.938c-4.498-18.359-21.093-32.021-40.819-32.021
	c-23.171,0-42.021,18.85-42.021,42.021s18.851,42.021,42.021,42.021c19.726,0,36.321-13.662,40.819-32.021h20.938v6.642
	c0,5.523,4.477,10,10,10s10-4.477,10-10v-33.283C475.022,419.504,470.544,415.027,465.022,415.027z M393.265,463.69
	c-12.142,0-22.021-9.879-22.021-22.021c0-12.143,9.879-22.021,22.021-22.021c12.143,0,22.021,9.878,22.021,22.021
	C415.286,453.811,405.408,463.69,393.265,463.69z"/>
<g>
</g>
<g>
</g>
<g>
</g>
<g>
</g>
<g>
</g>
<g>
</g>
<g>
</g>
<g>
</g>
<g>
</g>
<g>
</g>
<g>
</g>
<g>
</g>
<g>
</g>
<g>
</g>
<g>
</g>
</svg>
