<?xml version="1.0" encoding="iso-8859-1"?>
<!-- Generator: Adobe Illustrator 19.0.0, SVG Export Plug-In . SVG Version: 6.00 Build 0)  -->
<svg version="1.1" id="Capa_1" xmlns="http://www.w3.org/2000/svg" xmlns:xlink="http://www.w3.org/1999/xlink" x="0px" y="0px"
	 viewBox="0 0 512 512" style="enable-background:new 0 0 512 512;" xml:space="preserve">
<rect x="10" y="424.76" style="fill:#8C9AA2;" width="492" height="77.24"/>
<path d="M54.639,473.38c-0.65,0-1.31-0.07-1.95-0.2c-0.64-0.12-1.27-0.32-1.87-0.57c-0.61-0.25-1.19-0.56-1.73-0.92
	c-0.55-0.359-1.06-0.779-1.52-1.239c-0.46-0.46-0.88-0.971-1.24-1.521c-0.36-0.54-0.67-1.12-0.92-1.729
	c-0.25-0.601-0.44-1.23-0.57-1.87c-0.13-0.641-0.2-1.3-0.2-1.95c0-0.65,0.07-1.311,0.2-1.95c0.13-0.64,0.32-1.27,0.57-1.87
	c0.25-0.609,0.56-1.19,0.92-1.729c0.36-0.55,0.78-1.061,1.24-1.521c0.46-0.46,0.97-0.88,1.52-1.25c0.54-0.359,1.12-0.66,1.73-0.91
	c0.6-0.25,1.23-0.449,1.87-0.58c1.29-0.26,2.62-0.26,3.91,0c0.63,0.131,1.26,0.33,1.87,0.58c0.6,0.25,1.18,0.551,1.72,0.91
	c0.55,0.37,1.06,0.79,1.52,1.25s0.88,0.971,1.25,1.521c0.36,0.54,0.67,1.12,0.92,1.729c0.25,0.601,0.44,1.23,0.57,1.87
	c0.13,0.64,0.19,1.3,0.19,1.95c0,0.65-0.06,1.31-0.19,1.95c-0.13,0.64-0.32,1.27-0.57,1.87c-0.25,0.609-0.56,1.189-0.92,1.729
	c-0.37,0.55-0.79,1.061-1.25,1.521C59.849,472.31,57.279,473.38,54.639,473.38z"/>
<g>
	<polygon style="fill:#C4C6C9;" points="346.608,37.813 337.958,115.053 501.999,115.053 501.999,37.813 	"/>
	<polygon style="fill:#C4C6C9;" points="165.391,37.813 10,37.813 10,115.053 174.042,115.053 	"/>
</g>
<path d="M456.18,86.43c-0.65,0-1.31-0.06-1.95-0.19c-0.64-0.131-1.27-0.32-1.87-0.57c-0.61-0.25-1.19-0.561-1.73-0.92
	c-0.55-0.37-1.06-0.79-1.52-1.25s-0.88-0.97-1.24-1.521c-0.36-0.54-0.67-1.12-0.92-1.72c-0.25-0.61-0.44-1.24-0.57-1.87
	c-0.13-0.649-0.2-1.31-0.2-1.96c0-0.649,0.07-1.31,0.2-1.95s0.32-1.27,0.57-1.87c0.25-0.609,0.56-1.189,0.92-1.729
	c0.36-0.55,0.78-1.061,1.24-1.521c0.46-0.46,0.97-0.88,1.52-1.239c0.54-0.36,1.12-0.67,1.73-0.92c0.6-0.25,1.23-0.44,1.87-0.57
	c1.29-0.26,2.62-0.26,3.91,0c0.63,0.13,1.26,0.32,1.87,0.57c0.6,0.25,1.18,0.56,1.72,0.92c0.55,0.359,1.06,0.779,1.52,1.239
	s0.88,0.971,1.25,1.521c0.36,0.54,0.67,1.12,0.92,1.729c0.25,0.601,0.44,1.23,0.57,1.87c0.13,0.641,0.19,1.301,0.19,1.95
	c0,0.65-0.06,1.31-0.19,1.96c-0.13,0.63-0.32,1.26-0.57,1.87c-0.25,0.6-0.56,1.18-0.92,1.72c-0.37,0.551-0.79,1.061-1.25,1.521
	C461.39,85.359,458.81,86.43,456.18,86.43z"/>
<polygon style="fill:#009D93;" points="334.844,142.866 177.156,142.866 162.276,10 349.723,10 "/>
<g>
	<rect x="372.16" y="358" style="fill:#FDB845;" width="108" height="66.76"/>
	<path style="fill:#FDB845;" d="M453.409,358h-54.5v-27.25c0-15.05,12.2-27.25,27.25-27.25l0,0c15.05,0,27.25,12.2,27.25,27.25V358z
		"/>
</g>
<rect x="201.999" y="358" style="fill:#FFD480;" width="108" height="66.76"/>
<path style="fill:#FDB845;" d="M283.25,296h-54.5v-27.25c0-15.05,12.2-27.25,27.25-27.25l0,0c15.05,0,27.25,12.2,27.25,27.25V296z"
	/>
<rect x="31.84" y="358" style="fill:#FFD480;" width="108" height="66.76"/>
<rect x="222.749" y="142.87" style="fill:#E7ECED;" width="66.5" height="45.19"/>
<path d="M502,414.76h-11.84V358c0-5.522-4.477-10-10-10h-16.751v-17.25c0-20.54-16.71-37.25-37.25-37.25s-37.249,16.71-37.249,37.25
	V348h-16.75c-5.523,0-10,4.478-10,10v56.76H320V358c0-5.522-4.477-10-10-10h-108c-5.523,0-10,4.478-10,10v56.76H149.84V358
	c0-5.522-4.477-10-10-10h-108c-5.523,0-10,4.478-10,10v56.76h-11.84c-5.523,0-10,4.478-10,10V502c0,5.522,4.477,10,10,10H502
	c5.523,0,10-4.478,10-10v-77.24C512,419.237,507.522,414.76,502,414.76z M408.909,330.75c0-9.512,7.738-17.25,17.25-17.25
	c9.511,0,17.249,7.738,17.249,17.25V348h-34.499V330.75z M382.159,368h88v46.76h-88V368z M211.999,368h88v46.76h-88V368z M41.84,368
	h88v46.76h-88C41.841,414.76,41.841,368,41.84,368z M20,492v-57.24H492v18.62H90.29c-5.523,0-10,4.477-10,10c0,5.522,4.477,10,10,10
	H492V492H20z"/>
<path d="M502,27.813H357.79l1.87-16.699c0.316-2.829-0.587-5.658-2.484-7.779S352.569,0,349.723,0H162.276
	c-2.846,0-5.557,1.213-7.454,3.334c-1.897,2.121-2.8,4.95-2.484,7.779l1.87,16.699H10c-5.523,0-10,4.478-10,10v77.24
	c0,5.523,4.477,10,10,10h155.098l2.12,18.927c0.567,5.06,4.846,8.887,9.938,8.887h35.594v35.193c0,0.724,0.078,1.43,0.224,2.11
	l-23.227,31.156c-2.862,3.838-2.601,9.166,0.621,12.707l28.531,31.358c-0.099,1.107-0.15,2.228-0.15,3.36V296
	c0,5.522,4.477,10,10,10h54.5c5.523,0,10-4.478,10-10v-27.25c0-1.132-0.051-2.253-0.15-3.36l28.533-31.358
	c3.222-3.541,3.482-8.869,0.621-12.707l-23.227-31.156c0.146-0.68,0.224-1.386,0.224-2.11v-35.193h35.594
	c5.092,0,9.371-3.826,9.938-8.887l2.12-18.927H502c5.523,0,10-4.477,10-10v-77.24C512,32.29,507.522,27.813,502,27.813z
	 M156.449,47.813l2.085,18.62H20v-18.62C20,47.813,156.449,47.813,156.449,47.813z M20,105.053v-18.62h140.773l2.085,18.62H20z
	 M273.25,286h-34.5v-17.25c0-9.512,7.738-17.25,17.25-17.25c9.512,0,17.25,7.738,17.25,17.25V286z M284.645,244.963
	c-6.839-8.221-17.141-13.463-28.645-13.463c-11.504,0-21.806,5.242-28.645,13.463l-16.646-18.294l21.328-28.609h47.926
	l21.328,28.609L284.645,244.963z M279.25,178.06h-46.5v-25.193h46.5V178.06z M186.098,132.866L173.46,20h165.08L325.9,132.866
	H186.098z M492,105.053H349.141l2.085-18.62h69.306c5.523,0,10-4.478,10-10s-4.477-10-10-10h-67.066l2.085-18.62H492V105.053z"/>
<circle style="fill:#FFD480;" cx="216.779" cy="76.1" r="18.989"/>
<path d="M216.775,105.089c-15.984,0-28.989-13.005-28.989-28.989s13.004-28.989,28.989-28.989c15.984,0,28.989,13.005,28.989,28.989
	S232.76,105.089,216.775,105.089z M216.775,67.11c-4.957,0-8.989,4.032-8.989,8.989s4.032,8.989,8.989,8.989
	c4.956,0,8.989-4.032,8.989-8.989S221.732,67.11,216.775,67.11z"/>
<circle style="fill:#FFD480;" cx="295.22" cy="76.1" r="18.989"/>
<path d="M295.224,105.089c-15.984,0-28.989-13.005-28.989-28.989s13.004-28.989,28.989-28.989c15.984,0,28.989,13.005,28.989,28.989
	S311.208,105.089,295.224,105.089z M295.224,67.11c-4.957,0-8.989,4.032-8.989,8.989s4.032,8.989,8.989,8.989
	s8.989-4.032,8.989-8.989S300.18,67.11,295.224,67.11z"/>
<g>
</g>
<g>
</g>
<g>
</g>
<g>
</g>
<g>
</g>
<g>
</g>
<g>
</g>
<g>
</g>
<g>
</g>
<g>
</g>
<g>
</g>
<g>
</g>
<g>
</g>
<g>
</g>
<g>
</g>
</svg>
