<?xml version="1.0" encoding="iso-8859-1"?>
<!-- Generator: Adobe Illustrator 19.0.0, SVG Export Plug-In . SVG Version: 6.00 Build 0)  -->
<svg version="1.1" id="Capa_1" xmlns="http://www.w3.org/2000/svg" xmlns:xlink="http://www.w3.org/1999/xlink" x="0px" y="0px"
	 viewBox="0 0 512 512" style="enable-background:new 0 0 512 512;" xml:space="preserve">
<polyline style="fill:#C4C6C9;" points="159.01,381.036 159.01,84.996 84.014,84.996 84.014,381.036 "/>
<polyline style="fill:#8C9AA2;" points="190.012,502 458.988,502 458.988,381.054 159.037,381.054 "/>
<path style="fill:#FDB845;" d="M383.465,381.054h-89.5v-49.55c0-24.715,20.035-44.75,44.75-44.75l0,0
	c24.715,0,44.75,20.035,44.75,44.75V381.054z"/>
<g>
	<rect x="84.01" y="10" style="fill:#009D93;" width="374.95" height="74.996"/>
	<path style="fill:#009D93;" d="M190.012,502h-137v-63.63c0-37.831,30.668-68.5,68.5-68.5l0,0c37.831,0,68.5,30.669,68.5,68.5V502z"
		/>
</g>
<path style="fill:#3ABEB6;" d="M93.012,462v-23.63c0-15.715,12.785-28.5,28.5-28.5s28.5,12.785,28.5,28.5V462H93.012z"/>
<path d="M150.012,472h-57c-5.523,0-10-4.478-10-10v-23.63c0-21.228,17.271-38.5,38.5-38.5s38.5,17.272,38.5,38.5V462
	C160.012,467.522,155.535,472,150.012,472z M103.012,452h37v-13.63c0-10.201-8.299-18.5-18.5-18.5s-18.5,8.299-18.5,18.5
	C103.012,438.37,103.012,452,103.012,452z"/>
<rect x="284.21" y="381.05" style="fill:#C4C6C9;" width="109" height="70.28"/>
<path d="M121.1,339.359c-0.65,0-1.31-0.069-1.95-0.199s-1.27-0.32-1.87-0.57c-0.61-0.25-1.19-0.56-1.73-0.92
	c-0.55-0.36-1.06-0.78-1.52-1.24c-0.46-0.46-0.88-0.97-1.24-1.52c-0.36-0.54-0.67-1.12-0.92-1.73c-0.25-0.6-0.44-1.229-0.57-1.87
	c-0.13-0.64-0.2-1.3-0.2-1.95c0-0.649,0.07-1.31,0.2-1.96c0.13-0.63,0.32-1.26,0.57-1.869c0.25-0.601,0.56-1.181,0.92-1.721
	c0.36-0.55,0.78-1.06,1.24-1.52c0.46-0.46,0.97-0.88,1.52-1.25c0.54-0.36,1.12-0.67,1.73-0.92c0.6-0.25,1.23-0.44,1.87-0.57
	c3.25-0.65,6.7,0.41,9.02,2.74c0.46,0.46,0.88,0.97,1.25,1.52c0.36,0.54,0.67,1.12,0.92,1.721c0.25,0.609,0.44,1.239,0.57,1.869
	c0.13,0.65,0.19,1.311,0.19,1.96c0,0.65-0.06,1.31-0.19,1.95c-0.13,0.641-0.32,1.271-0.57,1.87c-0.25,0.61-0.56,1.19-0.92,1.73
	c-0.37,0.55-0.79,1.06-1.25,1.52C126.31,338.29,123.74,339.359,121.1,339.359z"/>
<rect x="294.38" y="84.995" style="fill:#C4C6C9;" width="88.66" height="98.27"/>
<polygon style="fill:#3ABEB6;" points="338.715,233.589 306.845,183.26 370.585,183.26 "/>
<rect x="267.97" y="43.647" style="fill:#E7ECED;" width="141.5" height="41.35"/>
<path d="M458.988,371.054h-65.523v-39.55c0-30.189-24.56-54.75-54.75-54.75c-30.189,0-54.75,24.561-54.75,54.75v39.55H169.01V94.996
	h115.375v78.265h-1.312c-5.523,0-10,4.478-10,10c0,5.523,4.477,10,10,10h18.268l28.925,45.678c1.833,2.895,5.022,4.65,8.449,4.65
	s6.615-1.755,8.449-4.65l28.925-45.678h18.268c5.523,0,10-4.477,10-10c0-5.522-4.477-10-10-10h-1.312V94.996h65.92
	c5.523,0,10-4.478,10-10V10c0-5.523-4.477-10-10-10H84.014c-5.523,0-10,4.477-10,10v365.909
	c-18.829,14.353-31.002,37.012-31.002,62.461V502c0,5.522,4.477,10,10,10h405.977c5.523,0,10-4.478,10-10V381.054
	C468.988,375.531,464.51,371.054,458.988,371.054z M294.215,391.054h89v50.279h-89V391.054z M303.965,331.504
	c0-19.161,15.589-34.75,34.75-34.75s34.75,15.589,34.75,34.75v39.55h-69.5V331.504z M399.463,74.994H277.966V53.647h121.497V74.994z
	 M304.384,109.91l56.57,63.351h-56.57V109.91z M338.715,214.898l-13.701-21.637h27.402L338.715,214.898z M373.045,156.774
	L317.88,94.996h55.165V156.774z M94.014,20h354.951v54.996h-29.502V43.647c0-5.522-4.477-10-10-10H267.966c-5.523,0-10,4.478-10,10
	v31.349H94.014V20z M94.014,94.996h17.088v198.772c0,5.522,4.477,10,10,10c5.523,0,10-4.478,10-10V94.996h17.908V364.84
	c-8.562-3.212-17.828-4.97-27.498-4.97s-18.937,1.758-27.498,4.97C94.014,364.84,94.014,94.996,94.014,94.996z M63.012,438.37
	c0-32.257,26.243-58.5,58.5-58.5s58.5,26.243,58.5,58.5V492h-117C63.012,492,63.012,438.37,63.012,438.37z M448.988,492H200.012
	v-53.63c0-17.754-5.924-34.151-15.9-47.316h90.104v60.279c0,5.522,4.477,10,10,10h109c5.523,0,10-4.478,10-10v-60.279h45.773V492
	H448.988z"/>
<g>
</g>
<g>
</g>
<g>
</g>
<g>
</g>
<g>
</g>
<g>
</g>
<g>
</g>
<g>
</g>
<g>
</g>
<g>
</g>
<g>
</g>
<g>
</g>
<g>
</g>
<g>
</g>
<g>
</g>
</svg>
