<?xml version="1.0" encoding="iso-8859-1"?>
<!-- Generator: Adobe Illustrator 19.0.0, SVG Export Plug-In . SVG Version: 6.00 Build 0)  -->
<svg version="1.1" id="Capa_1" xmlns="http://www.w3.org/2000/svg" xmlns:xlink="http://www.w3.org/1999/xlink" x="0px" y="0px"
	 viewBox="0 0 512 512" style="enable-background:new 0 0 512 512;" xml:space="preserve">
<polyline style="fill:#009D93;" points="356.549,95.468 502,95.468 502,40.206 356.549,40.206 "/>
<rect x="76" y="408.04" style="fill:#8C9AA2;" width="360" height="73.44"/>
<g>
	<polygon style="fill:#FFD480;" points="381.78,259.036 348.659,231.85 314.283,231.85 281.163,259.036 281.163,305.979 
		381.78,305.979 	"/>
	<polygon style="fill:#FFD480;" points="230.837,361.099 197.717,333.913 163.34,333.913 130.22,361.099 130.22,408.042 
		230.837,408.042 	"/>
</g>
<polyline style="fill:#009D93;" points="155.452,40.206 10,40.206 10,95.468 155.452,95.468 "/>
<path style="fill:#3ABEB6;" d="M204.778,242.745H156.28v-16.448c0-13.392,10.857-24.249,24.249-24.249l0,0
	c13.392,0,24.249,10.857,24.249,24.249L204.778,242.745L204.778,242.745z"/>
<rect x="10" y="95.47" style="fill:#E7ECED;" width="66" height="386.01"/>
<circle style="fill:#FDB845;" cx="180.53" cy="67.837" r="37.31"/>
<path d="M43,156.85c-0.65,0-1.31-0.07-1.95-0.2c-0.64-0.13-1.27-0.32-1.88-0.57c-0.6-0.25-1.18-0.56-1.72-0.92
	c-0.55-0.37-1.06-0.78-1.52-1.25c-0.46-0.46-0.88-0.97-1.24-1.52c-0.36-0.54-0.67-1.12-0.92-1.72c-0.25-0.61-0.45-1.23-0.57-1.87
	c-0.13-0.65-0.2-1.3-0.2-1.96c0-0.65,0.07-1.3,0.2-1.95c0.12-0.64,0.32-1.27,0.57-1.87c0.25-0.6,0.56-1.19,0.92-1.73
	c0.36-0.54,0.78-1.06,1.24-1.52c0.46-0.46,0.97-0.88,1.52-1.24c0.54-0.36,1.12-0.67,1.72-0.92c0.61-0.25,1.24-0.44,1.88-0.57
	c1.29-0.26,2.61-0.26,3.9,0c0.64,0.13,1.27,0.32,1.87,0.57c0.61,0.25,1.19,0.56,1.73,0.92c0.55,0.36,1.06,0.78,1.52,1.24
	s0.88,0.98,1.24,1.52c0.36,0.54,0.67,1.13,0.92,1.73c0.25,0.6,0.45,1.23,0.58,1.87c0.13,0.65,0.19,1.3,0.19,1.95
	c0,0.66-0.06,1.31-0.19,1.96c-0.13,0.64-0.33,1.26-0.58,1.87c-0.25,0.6-0.56,1.18-0.92,1.72c-0.36,0.55-0.78,1.06-1.24,1.52
	c-0.46,0.47-0.97,0.88-1.52,1.25c-0.54,0.36-1.12,0.67-1.73,0.92c-0.6,0.25-1.23,0.44-1.87,0.57
	C44.31,156.78,43.65,156.85,43,156.85z"/>
<path style="fill:#3ABEB6;" d="M307.222,188.154h48.498v-16.448c0-13.392-10.857-24.249-24.249-24.249l0,0
	c-13.392,0-24.249,10.857-24.249,24.249V188.154z"/>
<rect x="436" y="95.47" style="fill:#E7ECED;" width="66" height="386.01"/>
<circle style="fill:#FDB845;" cx="331.47" cy="67.837" r="37.31"/>
<path d="M469,411.64c-0.65,0-1.31-0.06-1.95-0.19s-1.27-0.32-1.87-0.57c-0.61-0.25-1.19-0.56-1.73-0.92
	c-0.55-0.37-1.06-0.79-1.52-1.25c-1.86-1.86-2.93-4.43-2.93-7.07c0-0.65,0.07-1.31,0.2-1.95c0.12-0.64,0.32-1.27,0.57-1.87
	c0.25-0.61,0.55-1.19,0.92-1.73c0.36-0.55,0.78-1.06,1.24-1.52s0.97-0.88,1.52-1.24c0.54-0.36,1.12-0.67,1.73-0.92
	c0.6-0.25,1.23-0.44,1.87-0.57c3.25-0.65,6.7,0.41,9.02,2.73c0.46,0.46,0.88,0.97,1.24,1.52c0.36,0.54,0.67,1.12,0.92,1.73
	c0.25,0.6,0.45,1.23,0.57,1.87c0.13,0.64,0.2,1.3,0.2,1.95c0,2.64-1.07,5.21-2.93,7.07C474.21,410.58,471.63,411.64,469,411.64z"/>
<g>
	<path style="fill:#3ABEB6;" d="M208.376,481.477h-55.693V466.18c0-15.379,12.467-27.847,27.847-27.847l0,0
		c15.379,0,27.847,12.467,27.847,27.847v15.297H208.376z"/>
	<path style="fill:#3ABEB6;" d="M359.318,481.477h-55.693V466.18c0-15.379,12.467-27.847,27.847-27.847l0,0
		c15.379,0,27.847,12.467,27.847,27.847L359.318,481.477L359.318,481.477z"/>
</g>
<path d="M502,30.206H360.119c-7.957-6.072-17.889-9.683-28.648-9.683c-26.089,0-47.314,21.225-47.314,47.314
	c0,22.659,16.011,41.649,37.314,46.25v24.86c-14.022,4.289-24.249,17.352-24.249,32.759v15.355l-20.917,18.04
	c-2.746,2.369-3.995,6.038-3.263,9.59l6.708,32.566l-4.927,4.044c-0.074,0.061-0.147,0.122-0.219,0.185
	c-0.001,0.001-0.002,0.002-0.004,0.003c-0.064,0.055-0.126,0.112-0.188,0.169c-0.021,0.019-0.041,0.038-0.062,0.058
	c-0.042,0.039-0.083,0.078-0.125,0.118c-0.026,0.025-0.051,0.049-0.076,0.074c-0.037,0.037-0.074,0.074-0.111,0.111
	c-0.025,0.025-0.05,0.051-0.074,0.076c-0.037,0.038-0.074,0.077-0.11,0.116c-0.023,0.024-0.045,0.048-0.067,0.073
	c-0.045,0.049-0.09,0.1-0.134,0.15c-0.012,0.014-0.024,0.027-0.036,0.041c-0.119,0.136-0.234,0.276-0.345,0.419
	c0,0,0,0.001-0.001,0.001c-1.156,1.484-1.903,3.303-2.071,5.287c-0.001,0.008-0.001,0.016-0.002,0.025
	c-0.007,0.079-0.012,0.158-0.017,0.237c-0.001,0.014-0.002,0.029-0.003,0.043c-0.004,0.072-0.007,0.143-0.009,0.215
	c-0.001,0.021-0.002,0.042-0.002,0.063c-0.002,0.09-0.004,0.18-0.004,0.271v46.943c0,5.523,4.477,10,10,10H381.78
	c5.523,0,10-4.477,10-10v-46.943c0-0.091-0.001-0.181-0.004-0.271c0-0.021-0.002-0.042-0.002-0.063
	c-0.002-0.072-0.005-0.144-0.009-0.215c-0.001-0.014-0.002-0.029-0.003-0.043c-0.005-0.079-0.01-0.158-0.017-0.237
	c-0.001-0.008-0.001-0.016-0.002-0.025c-0.168-1.984-0.914-3.803-2.071-5.287l-0.001-0.001c-0.111-0.143-0.226-0.283-0.345-0.419
	c-0.012-0.014-0.024-0.027-0.036-0.041c-0.044-0.05-0.089-0.1-0.134-0.15c-0.022-0.024-0.045-0.048-0.068-0.073
	c-0.036-0.039-0.073-0.078-0.11-0.116c-0.025-0.025-0.049-0.051-0.074-0.076c-0.037-0.037-0.074-0.074-0.111-0.111
	c-0.025-0.025-0.05-0.05-0.076-0.074c-0.041-0.04-0.083-0.079-0.125-0.118c-0.021-0.019-0.041-0.039-0.062-0.058
	c-0.062-0.057-0.125-0.113-0.189-0.169c-0.001-0.001-0.003-0.002-0.004-0.003c-0.072-0.063-0.145-0.124-0.219-0.185l-4.927-4.044
	l6.708-32.566c0.731-3.552-0.517-7.222-3.263-9.59l-20.916-18.04v-15.355c0-15.407-10.227-28.47-24.249-32.759v-24.86
	c6.891-1.488,13.227-4.482,18.648-8.619H426v292.574H240.837v-36.943c0-2.994-1.341-5.83-3.655-7.729l-33.12-27.186
	c-1.789-1.468-4.031-2.271-6.345-2.271H163.34c-2.314,0-4.556,0.802-6.345,2.271l-33.12,27.186
	c-2.314,1.899-3.655,4.736-3.655,7.729v36.943H86V105.468h65.881c5.421,4.136,11.757,7.13,18.648,8.619v79.45
	c-14.022,4.289-24.249,17.352-24.249,32.76v15.355l-20.917,18.04c-2.87,2.476-4.094,6.361-3.161,10.035l7.621,30
	c1.15,4.527,5.219,7.54,9.685,7.54c0.815,0,1.644-0.101,2.47-0.31c5.353-1.36,8.589-6.802,7.23-12.155l-6.098-24.005l20.931-18.052
	h32.977l20.931,18.052l-6.098,24.005c-1.359,5.353,1.878,10.795,7.23,12.155c0.827,0.209,1.654,0.31,2.47,0.31
	c4.466,0,8.535-3.014,9.685-7.54l7.621-30c0.933-3.673-0.291-7.559-3.161-10.035l-20.917-18.04v-15.355
	c0-15.407-10.227-28.471-24.249-32.76v-79.45c21.303-4.601,37.314-23.591,37.314-46.25c0-26.089-21.225-47.314-47.314-47.314
	c-10.759,0-20.691,3.61-28.648,9.683H10c-5.523,0-10,4.477-10,10v441.271c0,5.523,4.477,10,10,10h492c5.523,0,10-4.477,10-10V40.206
	C512,34.683,507.523,30.206,502,30.206z M492,85.468H375.377c2.197-5.452,3.408-11.403,3.408-17.631s-1.211-12.18-3.408-17.631H492
	V85.468z M304.157,67.837c0-15.061,12.253-27.314,27.314-27.314s27.314,12.253,27.314,27.314s-12.253,27.314-27.314,27.314
	S304.157,82.898,304.157,67.837z M291.163,295.979v-26.943h80.617v26.943H291.163z M309.107,249.036l8.754-7.186h27.22l8.754,7.186
	H309.107z M365.725,232.921l-10.721-8.8c-1.789-1.468-4.031-2.27-6.345-2.27h-34.377c-2.314,0-4.556,0.802-6.345,2.27l-10.721,8.8
	l-3.401-16.511l21.167-18.255h32.976l21.167,18.255L365.725,232.921z M345.72,171.706v6.448h-28.498v-6.448
	c0-7.856,6.392-14.249,14.249-14.249S345.72,163.85,345.72,171.706z M166.919,343.913h27.22l15.132,12.42h-57.483L166.919,343.913z
	 M140.22,376.333h80.617v21.708H140.22V376.333z M194.778,226.297v6.448H166.28v-6.448c0-7.857,6.392-14.249,14.249-14.249
	C188.386,212.048,194.778,218.44,194.778,226.297z M207.843,67.837c0,15.061-12.253,27.314-27.314,27.314
	c-15.061,0-27.314-12.253-27.314-27.314s12.253-27.314,27.314-27.314C195.59,40.523,207.843,52.776,207.843,67.837z M20,50.206
	h116.623c-2.197,5.451-3.408,11.403-3.408,17.631s1.211,12.18,3.408,17.631H20V50.206z M20,105.468h46v366.009H53V183.511
	c0-5.523-4.477-10-10-10s-10,4.477-10,10v287.966H20V105.468z M86,418.042h340v53.435h-56.682v-5.297
	c0-20.869-16.978-37.847-37.847-37.847s-37.847,16.978-37.847,37.847v5.297h-75.249v-5.297c0-20.869-16.978-37.847-37.847-37.847
	s-37.847,16.978-37.847,37.847v5.297H86V418.042z M162.682,471.477v-5.297c0-9.841,8.006-17.847,17.847-17.847
	s17.847,8.006,17.847,17.847v5.297H162.682z M313.625,471.477v-5.297c0-9.841,8.006-17.847,17.847-17.847
	c9.841,0,17.847,8.006,17.847,17.847v5.297H313.625z M492,471.477h-46V105.468h13v259.508c0,5.523,4.477,10,10,10s10-4.477,10-10
	V105.468h13V471.477z"/>
<g>
</g>
<g>
</g>
<g>
</g>
<g>
</g>
<g>
</g>
<g>
</g>
<g>
</g>
<g>
</g>
<g>
</g>
<g>
</g>
<g>
</g>
<g>
</g>
<g>
</g>
<g>
</g>
<g>
</g>
</svg>
