<?xml version="1.0" encoding="iso-8859-1"?>
<!-- Generator: Adobe Illustrator 19.0.0, SVG Export Plug-In . SVG Version: 6.00 Build 0)  -->
<svg version="1.1" id="Capa_1" xmlns="http://www.w3.org/2000/svg" xmlns:xlink="http://www.w3.org/1999/xlink" x="0px" y="0px"
	 viewBox="0 0 512 512" style="enable-background:new 0 0 512 512;" xml:space="preserve">
<rect x="224.15" y="361.891" style="fill:#FFD480;" width="63.696" height="41.31"/>
<polygon style="fill:#FDB845;" points="287.848,316.898 261.679,287.518 250.321,287.518 224.152,316.898 224.152,361.889 
	287.848,361.889 "/>
<rect x="337.47" y="361.891" style="fill:#FFD480;" width="63.696" height="41.31"/>
<polygon style="fill:#FDB845;" points="401.166,316.898 374.997,287.518 363.638,287.518 337.47,316.898 337.47,361.889 
	401.166,361.889 "/>
<rect x="110.83" y="361.891" style="fill:#FFD480;" width="63.696" height="41.31"/>
<polygon style="fill:#FDB845;" points="174.53,316.898 148.362,287.518 137.003,287.518 110.834,316.898 110.834,361.889 
	174.53,361.889 "/>
<g>
	<path style="fill:#3ABEB6;" d="M166.931,182.151h-48.498v-16.448c0-13.392,10.856-24.249,24.249-24.249l0,0
		c13.392,0,24.249,10.857,24.249,24.249V182.151z"/>
	<path style="fill:#3ABEB6;" d="M280.249,257.793h-48.498v-16.448c0-13.392,10.856-24.249,24.249-24.249l0,0
		c13.392,0,24.249,10.857,24.249,24.249V257.793z"/>
	<path style="fill:#3ABEB6;" d="M393.567,182.151h-48.498v-16.448c0-13.392,10.857-24.249,24.249-24.249l0,0
		c13.392,0,24.249,10.857,24.249,24.249L393.567,182.151L393.567,182.151z"/>
</g>
<rect x="76" y="403.201" style="fill:#8C9AA2;" width="360" height="73.44"/>
<rect x="10" y="90.63" style="fill:#E7ECED;" width="66" height="386.01"/>
<path d="M43,152c-0.65,0-1.31-0.06-1.95-0.19s-1.27-0.32-1.87-0.57c-0.61-0.25-1.19-0.56-1.73-0.92c-0.55-0.37-1.06-0.79-1.52-1.25
	s-0.88-0.97-1.24-1.52c-0.36-0.54-0.67-1.12-0.92-1.72c-0.25-0.61-0.45-1.24-0.57-1.87c-0.13-0.65-0.2-1.31-0.2-1.96
	c0-0.65,0.07-1.31,0.2-1.95c0.12-0.64,0.32-1.27,0.57-1.87c0.25-0.61,0.56-1.19,0.92-1.73c0.36-0.55,0.78-1.06,1.24-1.52
	c0.46-0.46,0.97-0.88,1.52-1.24c0.54-0.36,1.12-0.67,1.73-0.92c0.6-0.25,1.23-0.44,1.87-0.57c1.29-0.26,2.61-0.26,3.9,0
	c0.64,0.13,1.27,0.32,1.87,0.57c0.61,0.25,1.19,0.56,1.73,0.92c0.55,0.36,1.06,0.78,1.52,1.24s0.88,0.97,1.24,1.52
	c0.36,0.54,0.67,1.12,0.92,1.73c0.25,0.6,0.45,1.23,0.57,1.87c0.13,0.64,0.2,1.3,0.2,1.95s-0.07,1.31-0.2,1.96
	c-0.12,0.63-0.32,1.26-0.57,1.87c-0.25,0.6-0.56,1.18-0.92,1.72c-0.36,0.55-0.78,1.06-1.24,1.52c-0.46,0.46-0.97,0.88-1.52,1.25
	c-0.54,0.36-1.12,0.67-1.73,0.92c-0.6,0.25-1.23,0.44-1.87,0.57S43.65,152,43,152z"/>
<rect x="436" y="90.63" style="fill:#E7ECED;" width="66" height="386.01"/>
<rect x="10" y="35.36" style="fill:#009D93;" width="492" height="55.26"/>
<path d="M469,406.8c-0.65,0-1.31-0.06-1.95-0.19s-1.27-0.32-1.87-0.57c-0.61-0.25-1.19-0.56-1.73-0.92
	c-0.55-0.37-1.06-0.79-1.52-1.25s-0.88-0.97-1.24-1.52c-0.36-0.54-0.67-1.12-0.92-1.72c-0.25-0.61-0.44-1.24-0.57-1.87
	c-0.13-0.65-0.2-1.31-0.2-1.96s0.07-1.31,0.2-1.95s0.32-1.27,0.57-1.87c0.25-0.61,0.56-1.19,0.92-1.73
	c0.36-0.55,0.78-1.06,1.24-1.52s0.97-0.88,1.52-1.24c0.54-0.36,1.12-0.67,1.73-0.92c0.6-0.25,1.23-0.44,1.87-0.57
	c1.28-0.26,2.61-0.26,3.9,0c0.64,0.13,1.27,0.32,1.87,0.57c0.61,0.25,1.19,0.56,1.73,0.92c0.55,0.36,1.06,0.78,1.52,1.24
	s0.88,0.97,1.24,1.52c0.36,0.54,0.67,1.12,0.92,1.73c0.25,0.6,0.45,1.23,0.57,1.87c0.13,0.64,0.2,1.3,0.2,1.95s-0.07,1.31-0.2,1.96
	c-0.12,0.63-0.32,1.26-0.57,1.87c-0.25,0.6-0.56,1.18-0.92,1.72c-0.36,0.55-0.78,1.06-1.24,1.52s-0.97,0.88-1.52,1.25
	c-0.54,0.36-1.12,0.67-1.73,0.92c-0.6,0.25-1.23,0.44-1.87,0.57S469.65,406.8,469,406.8z"/>
<path d="M502,25.364H10c-5.523,0-10,4.477-10,10v441.271c0,5.523,4.477,10,10,10h492c5.523,0,10-4.477,10-10V35.364
	C512,29.841,507.523,25.364,502,25.364z M20,45.364h472v35.262H20V45.364z M426,393.201h-14.834v-76.302
	c0-2.453-0.901-4.82-2.533-6.651l-26.169-29.381c-1.897-2.13-4.614-3.349-7.467-3.349h-11.358c-2.853,0-5.57,1.219-7.467,3.349
	l-26.169,29.381c-1.631,1.831-2.533,4.198-2.533,6.651v76.302h-29.622v-76.302c0-0.88-0.117-1.748-0.341-2.585l6.871-29.751
	c0.658-2.85,0.036-5.845-1.704-8.197l-12.553-16.971c0.084-0.522,0.128-1.057,0.128-1.602v-16.448
	c0-15.407-10.227-28.471-24.249-32.76V100.627h93.318v32.317c-14.022,4.289-24.249,17.352-24.249,32.759v16.448
	c0,0.545,0.044,1.08,0.128,1.602l-12.553,16.971c-1.785,2.413-2.392,5.5-1.653,8.409l7.621,30c1.15,4.527,5.219,7.541,9.685,7.541
	c0.815,0,1.643-0.101,2.47-0.31c5.353-1.36,8.589-6.802,7.23-12.155l-6.454-25.403l12.318-16.654h30.912l12.318,16.654
	l-6.454,25.403c-1.359,5.353,1.877,10.795,7.23,12.155c0.827,0.21,1.654,0.31,2.47,0.31c4.466,0,8.535-3.014,9.685-7.541l7.621-30
	c0.739-2.909,0.132-5.996-1.653-8.409l-12.553-16.971c0.084-0.522,0.128-1.057,0.128-1.602v-16.448
	c0-15.407-10.227-28.47-24.249-32.759v-32.317H426V393.201z M391.166,351.889H347.47v-31.183l20.654-23.188h2.389l20.654,23.188
	v31.183H391.166z M347.47,371.889h43.696v21.312H347.47V371.889z M184.53,393.201v-76.302c0-2.453-0.901-4.819-2.533-6.651
	l-26.169-29.381c-1.898-2.13-4.614-3.349-7.467-3.349h-11.359c-2.853,0-5.57,1.219-7.467,3.349l-26.169,29.381
	c-1.631,1.831-2.533,4.198-2.533,6.651v76.302H86V100.627h46.682v32.317c-14.022,4.289-24.249,17.352-24.249,32.759v16.448
	c0,0.545,0.044,1.08,0.128,1.602l-12.553,16.971c-1.785,2.413-2.392,5.5-1.653,8.409l7.621,30c1.15,4.527,5.219,7.541,9.685,7.541
	c0.815,0,1.644-0.101,2.47-0.31c5.353-1.36,8.589-6.802,7.23-12.155l-6.454-25.403l12.318-16.654h30.912l12.318,16.654
	l-6.454,25.403c-1.359,5.353,1.878,10.795,7.23,12.155c0.827,0.21,1.654,0.31,2.47,0.31c4.466,0,8.535-3.014,9.685-7.541l7.621-30
	c0.739-2.909,0.132-5.996-1.653-8.409l-12.553-16.971c0.084-0.522,0.128-1.057,0.128-1.602v-16.448
	c0-15.407-10.227-28.47-24.249-32.759v-32.317H246v107.959c-14.022,4.289-24.249,17.352-24.249,32.76v16.448
	c0,0.545,0.044,1.08,0.128,1.602l-12.553,16.971c-1.74,2.352-2.362,5.347-1.704,8.197l6.871,29.751
	c-0.224,0.837-0.341,1.705-0.341,2.585v76.302L184.53,393.201L184.53,393.201z M164.53,351.889h-43.696v-31.183l20.654-23.188h2.389
	l20.653,23.188L164.53,351.889L164.53,351.889z M120.834,371.889h43.696v21.312h-43.696V371.889z M156.931,172.151h-28.498v-6.448
	c0-7.856,6.392-14.249,14.249-14.249s14.249,6.392,14.249,14.249L156.931,172.151L156.931,172.151z M234.152,320.706l20.653-23.188
	h2.389l20.653,23.188v31.183h-43.695L234.152,320.706L234.152,320.706z M269.147,280.867c-1.898-2.13-4.614-3.349-7.467-3.349
	h-11.358c-2.853,0-5.57,1.219-7.467,3.349L230.5,294.74l-2.352-10.185l12.398-16.761h30.912l12.398,16.761l-2.352,10.185
	L269.147,280.867z M270.249,247.793h-28.498v-6.448c0-7.857,6.392-14.249,14.249-14.249c7.857,0,14.249,6.392,14.249,14.249V247.793
	z M234.152,371.889h43.695v21.312h-43.695L234.152,371.889L234.152,371.889z M383.567,172.151h-28.498v-6.448
	c0-7.856,6.392-14.249,14.249-14.249s14.249,6.392,14.249,14.249V172.151z M20,100.627h46v366.009H53V178.669
	c0-5.523-4.477-10-10-10s-10,4.477-10,10v287.966H20V100.627z M86,413.201h340v53.435H86V413.201z M492,466.636h-46V100.627h13
	v259.508c0,5.523,4.477,10,10,10s10-4.477,10-10V100.627h13V466.636z"/>
<g>
</g>
<g>
</g>
<g>
</g>
<g>
</g>
<g>
</g>
<g>
</g>
<g>
</g>
<g>
</g>
<g>
</g>
<g>
</g>
<g>
</g>
<g>
</g>
<g>
</g>
<g>
</g>
<g>
</g>
</svg>
