<?xml version="1.0" encoding="iso-8859-1"?>
<!-- Generator: Adobe Illustrator 19.0.0, SVG Export Plug-In . SVG Version: 6.00 Build 0)  -->
<svg version="1.1" id="Capa_1" xmlns="http://www.w3.org/2000/svg" xmlns:xlink="http://www.w3.org/1999/xlink" x="0px" y="0px"
	 viewBox="0 0 512.002 512.002" style="enable-background:new 0 0 512.002 512.002;" xml:space="preserve">
<g>
	<polygon style="fill:#009D93;" points="10,113.628 10,179.166 87.285,179.166 48.352,113.628 	"/>
	<polygon style="fill:#009D93;" points="181.594,113.628 142.661,179.166 502.001,179.166 502.001,113.628 	"/>
</g>
<g>
	<rect x="87.28" y="179.17" style="fill:#C4C6C9;" width="55.38" height="46.694"/>
	<rect x="10" y="10" style="fill:#C4C6C9;" width="209.94" height="39.07"/>
</g>
<polygon style="fill:#E7ECED;" points="142.661,179.166 87.285,179.166 10.001,49.07 219.945,49.07 "/>
<path d="M464.951,156.391c-0.65,0-1.31-0.059-1.95-0.189c-0.64-0.131-1.27-0.32-1.88-0.57c-0.6-0.25-1.18-0.561-1.72-0.92
	c-0.55-0.36-1.06-0.78-1.52-1.24s-0.88-0.98-1.25-1.52c-0.36-0.551-0.67-1.131-0.92-1.73c-0.25-0.6-0.44-1.23-0.57-1.87
	s-0.19-1.3-0.19-1.95c0-0.649,0.06-1.31,0.19-1.96c0.13-0.64,0.32-1.26,0.57-1.87c0.25-0.6,0.56-1.18,0.92-1.72
	c0.37-0.55,0.79-1.06,1.25-1.52c0.46-0.471,0.97-0.88,1.52-1.25c0.54-0.36,1.12-0.67,1.72-0.92c0.61-0.25,1.24-0.44,1.88-0.57
	c1.29-0.26,2.61-0.26,3.9,0c0.64,0.13,1.27,0.32,1.87,0.57c0.61,0.25,1.19,0.56,1.73,0.92c0.55,0.37,1.06,0.779,1.52,1.25
	c0.46,0.46,0.88,0.97,1.24,1.52c0.36,0.54,0.67,1.12,0.92,1.72c0.25,0.61,0.44,1.23,0.57,1.87c0.13,0.65,0.2,1.311,0.2,1.96
	c0,0.65-0.07,1.311-0.2,1.95c-0.13,0.641-0.32,1.27-0.57,1.87c-0.25,0.6-0.56,1.18-0.92,1.73c-0.36,0.54-0.78,1.06-1.24,1.52
	s-0.97,0.88-1.52,1.24c-0.54,0.359-1.12,0.67-1.73,0.92c-0.6,0.25-1.23,0.439-1.87,0.57
	C466.261,156.331,465.601,156.391,464.951,156.391z"/>
<path style="fill:#8C9AA2;" d="M10.001,412.031h447.016c24.844,0,44.985,20.14,44.985,44.985l0,0
	c0,24.844-20.14,44.985-44.985,44.985H10.001l0,0V412.031z"/>
<path d="M453.284,467.016h-51.467c-5.523,0-10-4.478-10-10s4.477-10,10-10h51.467c5.523,0,10,4.478,10,10
	S458.807,467.016,453.284,467.016z"/>
<path d="M366.281,467.021c-0.65,0-1.31-0.069-1.95-0.2c-0.64-0.13-1.27-0.319-1.87-0.569c-0.61-0.25-1.19-0.561-1.73-0.92
	c-0.55-0.36-1.06-0.78-1.52-1.24c-1.86-1.87-2.93-4.44-2.93-7.07c0-0.66,0.07-1.31,0.2-1.96c0.12-0.64,0.32-1.27,0.57-1.87
	s0.55-1.18,0.91-1.729c0.37-0.54,0.79-1.061,1.25-1.521s0.97-0.88,1.52-1.239c0.54-0.36,1.12-0.671,1.73-0.921
	c0.6-0.25,1.23-0.44,1.87-0.569c1.29-0.26,2.62-0.26,3.9,0c0.64,0.13,1.27,0.319,1.87,0.569c0.61,0.25,1.19,0.56,1.73,0.921
	c0.55,0.359,1.06,0.779,1.52,1.239c0.461,0.46,0.88,0.98,1.24,1.521c0.36,0.55,0.67,1.13,0.92,1.729c0.25,0.6,0.45,1.23,0.57,1.87
	c0.13,0.641,0.2,1.3,0.2,1.96c0,0.65-0.07,1.3-0.2,1.95c-0.12,0.64-0.32,1.271-0.57,1.87c-0.25,0.6-0.56,1.18-0.92,1.72
	c-0.36,0.55-0.78,1.06-1.24,1.53c-0.46,0.46-0.97,0.88-1.52,1.24c-0.54,0.359-1.12,0.67-1.73,0.92c-0.6,0.25-1.23,0.439-1.87,0.569
	C367.591,466.951,366.931,467.021,366.281,467.021z"/>
<path d="M299.503,467.016h-51.466c-5.523,0-10-4.478-10-10s4.477-10,10-10h51.466c5.523,0,10,4.478,10,10
	S305.025,467.016,299.503,467.016z"/>
<path d="M212.501,467.021c-0.65,0-1.31-0.069-1.95-0.2c-0.64-0.13-1.27-0.319-1.88-0.569c-0.6-0.25-1.18-0.561-1.72-0.92
	c-0.55-0.36-1.06-0.78-1.52-1.24c-0.46-0.47-0.88-0.98-1.25-1.53c-0.36-0.54-0.66-1.12-0.91-1.72s-0.45-1.23-0.58-1.87
	c-0.13-0.65-0.19-1.3-0.19-1.95c0-0.66,0.06-1.31,0.19-1.96c0.13-0.64,0.33-1.27,0.58-1.87s0.55-1.18,0.91-1.729
	c0.37-0.54,0.79-1.061,1.25-1.521s0.97-0.88,1.52-1.239c0.54-0.36,1.12-0.671,1.72-0.921c0.61-0.25,1.24-0.44,1.88-0.569
	c1.28-0.26,2.61-0.26,3.9,0c0.64,0.13,1.27,0.319,1.87,0.569c0.61,0.25,1.19,0.56,1.73,0.921c0.55,0.359,1.06,0.779,1.52,1.239
	c0.46,0.46,0.88,0.98,1.24,1.521c0.36,0.55,0.67,1.13,0.92,1.729c0.25,0.6,0.45,1.23,0.57,1.87c0.13,0.65,0.2,1.3,0.2,1.96
	c0,0.65-0.07,1.3-0.2,1.95c-0.12,0.64-0.32,1.271-0.57,1.87c-0.25,0.6-0.56,1.18-0.92,1.72c-0.36,0.55-0.78,1.06-1.24,1.53
	c-0.46,0.46-0.97,0.88-1.52,1.24c-0.54,0.359-1.12,0.67-1.73,0.92c-0.6,0.25-1.23,0.439-1.87,0.569S213.151,467.021,212.501,467.021
	z"/>
<path d="M145.722,467.016H94.255c-5.523,0-10-4.478-10-10s4.477-10,10-10h51.466c5.523,0,10,4.478,10,10
	C155.722,462.538,151.245,467.016,145.722,467.016z"/>
<path d="M58.721,467.021c-0.65,0-1.31-0.069-1.96-0.2c-0.63-0.13-1.26-0.319-1.87-0.569c-0.6-0.25-1.18-0.561-1.72-0.92
	c-0.55-0.36-1.06-0.78-1.52-1.24c-0.46-0.47-0.88-0.98-1.25-1.53c-0.36-0.54-0.67-1.12-0.92-1.72s-0.44-1.23-0.57-1.87
	c-0.13-0.65-0.19-1.3-0.19-1.95c0-0.66,0.06-1.319,0.19-1.96c0.13-0.64,0.32-1.27,0.57-1.87s0.56-1.18,0.92-1.729
	c0.37-0.54,0.79-1.061,1.25-1.521s0.97-0.88,1.52-1.239c0.54-0.36,1.12-0.671,1.72-0.921c0.61-0.25,1.24-0.44,1.87-0.569
	c1.29-0.26,2.62-0.26,3.91,0c0.64,0.13,1.27,0.319,1.87,0.569c0.61,0.25,1.19,0.56,1.73,0.921c0.55,0.359,1.06,0.779,1.52,1.239
	c0.46,0.46,0.88,0.98,1.24,1.521c0.36,0.55,0.67,1.13,0.92,1.729c0.25,0.6,0.44,1.23,0.57,1.87c0.13,0.65,0.2,1.3,0.2,1.96
	c0,2.63-1.07,5.2-2.93,7.07c-0.46,0.46-0.97,0.88-1.52,1.24c-0.54,0.359-1.12,0.67-1.73,0.92c-0.6,0.25-1.23,0.439-1.87,0.569
	S59.371,467.021,58.721,467.021z"/>
<rect x="70.42" y="302.92" style="fill:#E7ECED;" width="89.11" height="61.738"/>
<path style="fill:#FDB845;" d="M70.418,364.66v2.817c0,24.607,19.948,44.554,44.554,44.554l0,0
	c24.607,0,44.554-19.948,44.554-44.554v-2.817H70.418z"/>
<rect x="229.22" y="302.92" style="fill:#E7ECED;" width="89.11" height="32.738"/>
<path style="fill:#FDB845;" d="M229.215,335.66v31.817c0,24.607,19.948,44.554,44.554,44.554l0,0
	c24.607,0,44.554-19.948,44.554-44.554V335.66H229.215z"/>
<rect x="374.21" y="302.92" style="fill:#E7ECED;" width="89.11" height="32.738"/>
<g>
	<path style="fill:#FDB845;" d="M374.215,335.66v31.817c0,24.607,19.948,44.554,44.554,44.554l0,0
		c24.607,0,44.554-19.948,44.554-44.554V335.66H374.215z"/>
	<path style="fill:#FDB845;" d="M393.945,113.628H348V90.656c0-12.687,10.285-22.972,22.972-22.972l0,0
		c12.687,0,22.972,10.285,22.972,22.972v22.972H393.945z"/>
</g>
<path style="fill:#3ABEB6;" d="M439.89,113.628h-45.945V90.656c0-12.687,10.285-22.972,22.972-22.972l0,0
	c12.687,0,22.972,10.285,22.972,22.972v22.972H439.89z"/>
<path d="M10,189.166h67.285v36.694c0,5.522,4.477,10,10,10h55.377c5.523,0,10-4.478,10-10v-36.694h349.34c5.523,0,10-4.477,10-10
	v-65.538c0-5.522-4.477-10-10-10H449.89V90.656c0-18.182-14.792-32.973-32.973-32.973c-8.923,0-17.03,3.563-22.972,9.341
	c-5.942-5.778-14.049-9.341-22.972-9.341C352.792,57.684,338,72.475,338,90.656v12.972H199.166L228.47,54.3
	c0.782-1.272,1.287-2.733,1.432-4.298c0.002-0.022,0.004-0.045,0.006-0.067c0.004-0.049,0.008-0.098,0.012-0.148
	c0.004-0.055,0.007-0.11,0.01-0.164c0.001-0.026,0.003-0.053,0.004-0.079c0.003-0.071,0.006-0.143,0.008-0.214v-0.001
	c0.002-0.078,0.003-0.157,0.003-0.235c0-0.008,0-0.015,0-0.022V10.001c0-5.523-4.477-10-10-10H10c-5.523,0-10,4.477-10,10V49.07
	c0,0.008,0,0.015,0,0.022c0,0.079,0.001,0.157,0.003,0.235v0.001c0.002,0.071,0.005,0.143,0.008,0.214
	c0.001,0.026,0.002,0.053,0.004,0.079c0.003,0.055,0.006,0.11,0.01,0.164c0.003,0.049,0.008,0.099,0.012,0.148
	C0.039,49.955,0.041,49.978,0.043,50c0.145,1.565,0.65,3.026,1.432,4.298l29.304,49.328H10c-5.523,0-10,4.478-10,10v65.538
	C0,184.689,4.477,189.166,10,189.166z M132.661,215.86H97.285v-26.694h35.377v26.694H132.661z M416.918,77.684
	c7.153,0,12.972,5.819,12.972,12.973v12.972h-25.945V90.656C403.945,83.503,409.765,77.684,416.918,77.684z M358,90.656
	c0-7.153,5.819-12.973,12.973-12.973c7.153,0,12.972,5.819,12.972,12.973v12.972H358V90.656z M492.001,123.628v45.538H160.233
	l7.585-12.768h260.465c5.523,0,10-4.478,10-10c0-5.523-4.477-10-10-10H179.699l7.586-12.77
	C187.285,123.628,492.001,123.628,492.001,123.628z M20,20.001h189.944V39.07H20V20.001z M202.373,59.07L136.97,169.166H92.976
	L27.572,59.07H202.373z M20,123.628h22.661l2.832,4.767l24.22,40.771H20V123.628z"/>
<path d="M460.847,402.163c7.791-9.435,12.477-21.524,12.477-34.687v-64.555c0-5.522-4.477-10-10-10h-89.109c-5.523,0-10,4.478-10,10
	v64.555c0,13.102,4.643,25.139,12.369,34.555h-60.629c7.726-9.415,12.369-21.453,12.369-34.555v-64.555c0-5.522-4.477-10-10-10
	h-89.109c-5.523,0-10,4.478-10,10v64.555c0,13.102,4.643,25.139,12.369,34.555h-74.425c7.726-9.415,12.369-21.453,12.369-34.555
	v-64.555c0-5.522-4.477-10-10-10h-89.11c-5.523,0-10,4.478-10,10v64.555c0,13.102,4.643,25.139,12.369,34.555H10
	c-2.652,0-5.196,1.054-7.071,2.929C1.054,406.836,0,409.379,0,412.031l0.001,89.97c0,5.522,4.477,10,10,10h447.016
	c30.319,0,54.985-24.666,54.985-54.985C512.002,427.984,489.386,404.136,460.847,402.163z M384.215,312.922h69.109v12.738h-69.109
	V312.922z M384.215,367.477V345.66h69.109v21.816c0,19.054-15.501,34.555-34.554,34.555
	C399.716,402.031,384.215,386.53,384.215,367.477z M239.215,312.922h69.109v12.738h-69.109V312.922z M239.215,367.477V345.66h69.109
	v21.816c0,19.054-15.501,34.555-34.554,34.555C254.716,402.031,239.215,386.53,239.215,367.477z M80.418,312.922h69.109v41.738
	H80.418V312.922z M81.169,374.66h67.607c-3.314,15.618-17.212,27.371-33.804,27.371C98.381,402.031,84.484,390.278,81.169,374.66z
	 M457.017,492.001H20v-69.97h437.017c19.29,0,34.985,15.694,34.985,34.984C492.002,476.307,476.308,492.001,457.017,492.001z"/>
<g>
</g>
<g>
</g>
<g>
</g>
<g>
</g>
<g>
</g>
<g>
</g>
<g>
</g>
<g>
</g>
<g>
</g>
<g>
</g>
<g>
</g>
<g>
</g>
<g>
</g>
<g>
</g>
<g>
</g>
</svg>
