<?xml version="1.0" encoding="iso-8859-1"?>
<!-- Generator: Adobe Illustrator 19.0.0, SVG Export Plug-In . SVG Version: 6.00 Build 0)  -->
<svg version="1.1" id="Capa_1" xmlns="http://www.w3.org/2000/svg" xmlns:xlink="http://www.w3.org/1999/xlink" x="0px" y="0px"
	 viewBox="0 0 512 512" style="enable-background:new 0 0 512 512;" xml:space="preserve">
<rect x="37.971" y="82.65" style="fill:#009D93;" width="269.75" height="73.835"/>
<g>
	<polygon style="fill:#C4C6C9;" points="307.719,429.5 29.799,429.5 10,372.083 307.719,372.083 	"/>
	<rect x="131.98" y="156.48" style="fill:#C4C6C9;" width="81.73" height="90.59"/>
</g>
<polygon style="fill:#3ABEB6;" points="172.845,293.465 143.466,247.07 202.224,247.07 "/>
<rect x="107.63" y="118.37" style="fill:#E7ECED;" width="130.44" height="38.12"/>
<rect x="307.72" y="22.14" style="fill:#8C9AA2;" width="194.28" height="467.71"/>
<rect x="347.32" y="61.741" style="fill:#E7ECED;" width="115.08" height="166.44"/>
<path d="M382.66,109.14c-0.65,0-1.311-0.07-1.95-0.2c-0.641-0.13-1.271-0.319-1.87-0.569c-0.61-0.25-1.19-0.561-1.73-0.92
	c-0.55-0.36-1.06-0.78-1.52-1.24s-0.88-0.97-1.24-1.521c-0.359-0.54-0.67-1.12-0.92-1.729c-0.25-0.601-0.439-1.23-0.57-1.87
	c-0.13-0.64-0.199-1.3-0.199-1.95c0-0.649,0.069-1.309,0.199-1.96c0.131-0.63,0.32-1.26,0.57-1.87c0.25-0.6,0.561-1.18,0.92-1.72
	c0.36-0.55,0.78-1.061,1.24-1.521c0.46-0.46,0.97-0.88,1.52-1.25c0.54-0.359,1.12-0.67,1.73-0.92c0.6-0.25,1.23-0.439,1.87-0.569
	c3.24-0.65,6.7,0.41,9.02,2.739c0.46,0.46,0.88,0.971,1.25,1.521c0.36,0.54,0.67,1.12,0.92,1.72c0.25,0.61,0.44,1.24,0.57,1.87
	c0.13,0.65,0.19,1.311,0.19,1.96c0,0.65-0.061,1.311-0.19,1.95c-0.13,0.64-0.32,1.27-0.57,1.87c-0.25,0.609-0.56,1.189-0.92,1.729
	c-0.37,0.551-0.79,1.061-1.25,1.521c-0.46,0.46-0.97,0.88-1.52,1.24c-0.54,0.359-1.12,0.67-1.72,0.92
	c-0.61,0.25-1.23,0.439-1.87,0.569C383.97,109.069,383.31,109.14,382.66,109.14z"/>
<path d="M427.06,198.479c-2.63,0-5.21-1.069-7.069-2.939c-1.87-1.86-2.931-4.431-2.931-7.061c0-0.66,0.06-1.31,0.19-1.96
	c0.13-0.64,0.319-1.27,0.569-1.87c0.25-0.6,0.561-1.18,0.921-1.73c0.369-0.54,0.779-1.06,1.25-1.52
	c1.859-1.859,4.439-2.93,7.069-2.93s5.21,1.07,7.07,2.93c0.46,0.46,0.88,0.98,1.24,1.52c0.359,0.55,0.67,1.13,0.92,1.73
	c0.25,0.601,0.439,1.23,0.569,1.87c0.131,0.65,0.19,1.3,0.19,1.96c0,2.63-1.06,5.21-2.92,7.061
	C432.269,197.41,429.689,198.479,427.06,198.479z"/>
<rect x="347.32" y="270.27" style="fill:#009D93;" width="57.54" height="63.938"/>
<rect x="404.86" y="270.27" style="fill:#FDB845;" width="57.54" height="63.938"/>
<rect x="110.29" y="323.17" style="fill:#FFD480;" width="125.11" height="48.913"/>
<path d="M502,12.144H307.719c-5.523,0-10,4.477-10,10V72.65H37.971c-5.523,0-10,4.478-10,10v279.434H10
	c-3.232,0-6.266,1.563-8.143,4.194c-1.876,2.633-2.365,6.01-1.311,9.065l19.799,57.417c1.188,3.446,4.132,5.923,7.625,6.572v50.525
	c0,5.523,4.477,10,10,10H502c5.522,0,10-4.477,10-10V22.144C512,16.621,507.522,12.144,502,12.144z M47.971,92.649h249.748v53.834
	h-49.654v-28.115c0-5.522-4.477-10-10-10H107.626c-5.523,0-10,4.478-10,10v28.115H47.971V92.649z M141.979,237.069V181.5
	l49.621,55.569H141.979z M184.056,257.069l-11.211,17.704l-11.21-17.704H184.056z M203.711,220.606l-48.329-54.122h48.329V220.606z
	 M117.626,146.483v-18.115h110.438v18.115H117.626z M47.971,166.483h74.008v70.586h-0.428c-5.523,0-10,4.478-10,10s4.477,10,10,10
	h16.411l26.435,41.745c1.834,2.896,5.022,4.65,8.449,4.65s6.615-1.755,8.449-4.65l26.434-41.745h16.411c5.523,0,10-4.478,10-10
	s-4.477-10-10-10h-0.428v-70.586h74.008v195.6H245.4V323.17c0-5.522-4.477-10-10-10H110.29c-5.523,0-10,4.478-10,10v38.913H47.971
	V166.483z M225.4,362.083H120.29V333.17H225.4V362.083z M297.719,382.083V419.5H36.928l-12.902-37.417H297.719z M47.971,439.5
	h249.748v40.356H47.971V439.5z M492,479.856H317.719V32.144H492V479.856z"/>
<path d="M347.317,238.182h115.085c5.523,0,10-4.477,10-10V61.741c0-5.522-4.477-10-10-10H347.317c-5.522,0-10,4.478-10,10v166.44
	C337.317,233.704,341.795,238.182,347.317,238.182z M357.317,71.741h59.739v80.762c0,5.523,4.478,10,10,10s10-4.477,10-10V71.741
	h15.346v146.44h-59.739V135.11c0-5.522-4.478-10-10-10s-10,4.478-10,10v83.071h-15.346L357.317,71.741L357.317,71.741z"/>
<path d="M347.317,344.205h115.085c5.523,0,10-4.478,10-10v-63.938c0-5.523-4.477-10-10-10H347.317c-5.522,0-10,4.477-10,10v63.938
	C337.317,339.727,341.795,344.205,347.317,344.205z M452.402,324.205H414.86v-43.938h37.542L452.402,324.205L452.402,324.205z
	 M357.317,280.268h37.543v43.938h-37.543V280.268z"/>
<g>
</g>
<g>
</g>
<g>
</g>
<g>
</g>
<g>
</g>
<g>
</g>
<g>
</g>
<g>
</g>
<g>
</g>
<g>
</g>
<g>
</g>
<g>
</g>
<g>
</g>
<g>
</g>
<g>
</g>
</svg>
