<?xml version="1.0" encoding="iso-8859-1"?>
<!-- Generator: Adobe Illustrator 19.0.0, SVG Export Plug-In . SVG Version: 6.00 Build 0)  -->
<svg version="1.1" id="Capa_1" xmlns="http://www.w3.org/2000/svg" xmlns:xlink="http://www.w3.org/1999/xlink" x="0px" y="0px"
	 viewBox="0 0 512.002 512.002" style="enable-background:new 0 0 512.002 512.002;" xml:space="preserve">
<polygon style="fill:#3ABEB6;" points="298.375,176.921 213.627,176.921 140.285,116.682 140.285,382.076 371.717,382.076 
	371.717,116.682 "/>
<rect x="95.35" y="10" style="fill:#C4C6C9;" width="321.3" height="69.776"/>
<polygon style="fill:#E7ECED;" points="298.375,176.921 213.627,176.921 95.352,79.777 416.65,79.777 "/>
<rect x="234.6" y="223.54" style="fill:#FFD480;" width="42.795" height="36.654"/>
<polygon style="fill:#FDB845;" points="173.199,176.921 338.803,176.921 338.77,223.543 173.232,223.543 "/>
<path d="M371.991,55.501c-0.65,0-1.311-0.061-1.95-0.19c-0.641-0.13-1.27-0.319-1.87-0.569c-0.61-0.25-1.19-0.561-1.73-0.921
	c-0.55-0.369-1.06-0.79-1.52-1.25s-0.88-0.97-1.24-1.52c-0.36-0.54-0.67-1.12-0.92-1.72c-0.25-0.61-0.45-1.24-0.57-1.87
	c-0.13-0.65-0.199-1.311-0.199-1.96c0-0.65,0.069-1.311,0.199-1.95c0.12-0.64,0.32-1.271,0.57-1.87c0.25-0.61,0.56-1.189,0.92-1.729
	c0.36-0.551,0.78-1.061,1.24-1.521s0.97-0.88,1.52-1.24c0.54-0.359,1.12-0.67,1.73-0.92c0.6-0.25,1.229-0.439,1.87-0.569
	c1.29-0.261,2.62-0.261,3.9,0c0.641,0.13,1.271,0.319,1.87,0.569c0.61,0.25,1.19,0.561,1.73,0.92c0.55,0.36,1.06,0.78,1.52,1.24
	c0.46,0.46,0.88,0.97,1.25,1.521c0.36,0.54,0.67,1.119,0.92,1.729c0.25,0.6,0.44,1.231,0.57,1.87c0.13,0.64,0.19,1.3,0.19,1.95
	c0,0.649-0.061,1.31-0.19,1.96c-0.13,0.63-0.33,1.26-0.58,1.87c-0.25,0.6-0.56,1.18-0.92,1.72c-0.36,0.55-0.78,1.06-1.24,1.52
	s-0.97,0.881-1.52,1.25c-0.54,0.36-1.12,0.671-1.73,0.921c-0.6,0.25-1.23,0.439-1.87,0.569
	C373.301,55.44,372.641,55.501,371.991,55.501z"/>
<path d="M187.77,123.471c-0.649,0-1.309-0.06-1.95-0.19c-0.64-0.13-1.27-0.319-1.869-0.569c-0.61-0.25-1.19-0.561-1.73-0.92
	c-0.55-0.37-1.06-0.79-1.52-1.25s-0.881-0.971-1.24-1.521c-0.36-0.54-0.67-1.12-0.92-1.72c-0.25-0.61-0.45-1.24-0.58-1.87
	c-0.13-0.65-0.191-1.31-0.191-1.96c0-2.63,1.07-5.21,2.931-7.07c0.46-0.46,0.97-0.88,1.52-1.239c0.54-0.36,1.12-0.67,1.73-0.92
	c0.6-0.25,1.229-0.44,1.869-0.57c3.24-0.66,6.7,0.41,9.021,2.729c1.86,1.86,2.93,4.44,2.93,7.07c0,0.65-0.069,1.31-0.2,1.96
	c-0.13,0.63-0.319,1.26-0.569,1.87c-0.25,0.6-0.561,1.18-0.92,1.72c-0.36,0.55-0.78,1.061-1.24,1.521
	C192.98,122.4,190.4,123.471,187.77,123.471z"/>
<path style="fill:#8C9AA2;" d="M442.039,502.001H69.963C36.847,502.001,10,475.155,10,442.039l0,0
	c0-33.116,26.846-59.962,59.962-59.962h372.077c33.116,0,59.962,26.846,59.962,59.962l0,0
	C502.002,475.155,475.155,502.001,442.039,502.001z"/>
<g>
	<circle style="fill:#E7ECED;" cx="79" cy="442.04" r="32.02"/>
	<circle style="fill:#E7ECED;" cx="236.13" cy="442.04" r="32.02"/>
	<circle style="fill:#E7ECED;" cx="393.26" cy="442.04" r="32.02"/>
	<rect x="173.2" y="303.01" style="fill:#E7ECED;" width="165.6" height="39.535"/>
</g>
<rect x="173.2" y="342.54" style="fill:#FDB845;" width="165.6" height="39.535"/>
<path d="M442.039,372.076h-60.322V121.409l41.268-33.895c0.037-0.031,0.074-0.062,0.111-0.093c0.022-0.019,0.044-0.037,0.066-0.056
	c0.028-0.024,0.056-0.049,0.083-0.073c0.03-0.027,0.061-0.053,0.091-0.081c0.022-0.02,0.044-0.04,0.065-0.059
	c0.041-0.037,0.081-0.075,0.121-0.112c0.012-0.011,0.024-0.022,0.035-0.033c0.113-0.107,0.222-0.217,0.329-0.329
	c0.002-0.002,0.004-0.004,0.005-0.006c0.051-0.053,0.1-0.106,0.15-0.161l0.022-0.024c0.045-0.05,0.09-0.101,0.134-0.151
	c0.007-0.008,0.014-0.016,0.021-0.024c0.1-0.116,0.197-0.234,0.292-0.354c0.01-0.012,0.019-0.025,0.029-0.037
	c0.034-0.044,0.068-0.088,0.101-0.132c0.018-0.024,0.036-0.049,0.055-0.073c0.023-0.031,0.045-0.062,0.068-0.093
	c0.023-0.032,0.046-0.064,0.069-0.096c0.012-0.017,0.023-0.033,0.034-0.049c0.977-1.405,1.603-3.073,1.75-4.877
	c0.001-0.008,0.001-0.015,0.002-0.023c0.003-0.035,0.005-0.071,0.008-0.106c0.003-0.046,0.006-0.092,0.009-0.138
	c0.001-0.025,0.003-0.05,0.004-0.076c0.008-0.167,0.012-0.333,0.012-0.501V10.001c0-5.523-4.478-10-10-10H95.353
	c-5.522,0-10,4.477-10,10v69.758c0,0.167,0.004,0.334,0.012,0.501c0.001,0.025,0.003,0.05,0.004,0.076
	c0.003,0.046,0.006,0.092,0.009,0.138c0.002,0.035,0.005,0.071,0.008,0.106c0.001,0.007,0.001,0.015,0.002,0.023
	c0.147,1.803,0.773,3.471,1.75,4.877c0.011,0.017,0.023,0.033,0.034,0.049c0.023,0.032,0.046,0.064,0.069,0.096
	c0.022,0.031,0.045,0.062,0.068,0.093c0.018,0.024,0.036,0.049,0.054,0.073c0.033,0.044,0.067,0.088,0.101,0.132
	c0.01,0.012,0.019,0.025,0.029,0.037c0.094,0.12,0.192,0.238,0.292,0.354c0.007,0.008,0.014,0.016,0.021,0.024
	c0.044,0.051,0.089,0.101,0.134,0.151l0.022,0.024c0.049,0.054,0.099,0.108,0.149,0.161c0.002,0.002,0.004,0.004,0.005,0.006
	c0.107,0.112,0.216,0.221,0.329,0.329c0.012,0.011,0.024,0.022,0.035,0.033c0.04,0.038,0.08,0.075,0.12,0.112
	c0.022,0.02,0.044,0.04,0.065,0.059c0.03,0.027,0.06,0.054,0.091,0.081c0.028,0.024,0.056,0.049,0.083,0.073
	c0.022,0.018,0.044,0.037,0.066,0.056c0.037,0.031,0.074,0.063,0.111,0.093l41.268,33.895v250.667H69.963
	C31.385,372.076,0,403.461,0,442.039c0,38.577,31.385,69.962,69.963,69.962h372.076c38.578,0,69.963-31.386,69.963-69.963
	C512.002,403.461,480.617,372.076,442.039,372.076z M244.604,233.543h22.795v16.654h-22.795L244.604,233.543L244.604,233.543z
	 M183.226,213.543l-0.02-26.622h145.59l-0.02,26.622H183.226z M406.649,20.001v49.776H105.353V55.503h230.028
	c5.522,0,10-4.478,10-10s-4.478-10-10-10H105.353V20.001H406.649z M388.719,89.777l-16.674,13.695H224.382c-5.522,0-10,4.478-10,10
	s4.478,10,10,10h123.312l-52.899,43.448h-77.588l-70.575-57.967c-0.01-0.008-0.02-0.016-0.03-0.024l-23.319-19.153L388.719,89.777
	L388.719,89.777z M150.285,137.836l35.411,29.085h-12.497c-2.653,0-5.198,1.055-7.073,2.932c-1.876,1.877-2.929,4.422-2.927,7.075
	l0.033,46.622c0.004,5.52,4.479,9.993,10,9.993h51.371v26.654c0,5.522,4.478,10,10,10h42.795c5.522,0,10-4.478,10-10v-26.654h51.371
	c5.521,0,9.996-4.473,10-9.993l0.033-46.622c0.002-2.653-1.051-5.198-2.927-7.075c-1.875-1.877-4.42-2.932-7.073-2.932h-12.497
	l35.411-29.085v234.24h-12.914v-69.07c0-5.522-4.478-10-10-10H173.199c-5.522,0-10,4.478-10,10v69.07h-12.914V137.836z
	 M328.803,332.541H183.199v-19.535h145.604V332.541z M183.199,352.541h145.604v19.535H183.199V352.541z M442.039,492.001H69.963
	c-27.55,0-49.963-22.413-49.963-49.962c0-27.55,22.413-49.963,49.963-49.963h372.076c27.55,0,49.963,22.413,49.963,49.963
	C492.002,469.588,469.589,492.001,442.039,492.001z"/>
<path d="M150.758,415.397c-5.522,0-10,4.477-10,10v6.643H119.82c-4.498-18.359-21.093-32.021-40.819-32.021
	c-23.17,0-42.021,18.851-42.021,42.021c0,23.17,18.851,42.021,42.021,42.021c19.726,0,36.321-13.662,40.819-32.021h20.938v6.642
	c0,5.522,4.478,10,10,10c5.523,0,10-4.478,10-10v-33.284C160.758,419.874,156.28,415.397,150.758,415.397z M79.001,464.06
	c-12.143,0-22.021-9.878-22.021-22.021s9.878-22.021,22.021-22.021s22.021,9.879,22.021,22.021
	C101.022,454.182,91.144,464.06,79.001,464.06z"/>
<path d="M307.89,415.397c-5.523,0-10,4.477-10,10v6.643h-20.938c-4.498-18.359-21.093-32.021-40.818-32.021
	c-23.171,0-42.021,18.851-42.021,42.021c0,23.17,18.851,42.021,42.021,42.021c19.725,0,36.32-13.662,40.818-32.021h20.938v6.642
	c0,5.522,4.477,10,10,10c5.522,0,10-4.478,10-10v-33.284C317.89,419.874,313.412,415.397,307.89,415.397z M236.134,464.06
	c-12.143,0-22.021-9.878-22.021-22.021s9.879-22.021,22.021-22.021c12.143,0,22.02,9.879,22.02,22.021
	C258.154,454.182,248.276,464.06,236.134,464.06z"/>
<path d="M465.022,415.397c-5.523,0-10,4.477-10,10v6.643h-20.938c-4.498-18.359-21.093-32.021-40.818-32.021
	c-23.171,0-42.021,18.851-42.021,42.021c0,23.17,18.851,42.021,42.021,42.021c19.725,0,36.32-13.662,40.818-32.021h20.938v6.642
	c0,5.522,4.477,10,10,10c5.522,0,10-4.478,10-10v-33.284C475.022,419.874,470.544,415.397,465.022,415.397z M393.266,464.06
	c-12.142,0-22.021-9.878-22.021-22.021s9.879-22.021,22.021-22.021c12.143,0,22.021,9.879,22.021,22.021
	C415.286,454.182,405.408,464.06,393.266,464.06z"/>
<g>
</g>
<g>
</g>
<g>
</g>
<g>
</g>
<g>
</g>
<g>
</g>
<g>
</g>
<g>
</g>
<g>
</g>
<g>
</g>
<g>
</g>
<g>
</g>
<g>
</g>
<g>
</g>
<g>
</g>
</svg>
