<?xml version="1.0" encoding="iso-8859-1"?>
<!-- Generator: Adobe Illustrator 19.0.0, SVG Export Plug-In . SVG Version: 6.00 Build 0)  -->
<svg version="1.1" id="Capa_1" xmlns="http://www.w3.org/2000/svg" xmlns:xlink="http://www.w3.org/1999/xlink" x="0px" y="0px"
	 viewBox="0 0 512 512" style="enable-background:new 0 0 512 512;" xml:space="preserve">
<path style="fill:#FFD480;" d="M276.612,10v39.069h104.672v95.264h39.069V55.26c0-24.997-20.264-45.26-45.26-45.26H276.612z"/>
<rect x="123.949" y="179.16" style="fill:#C4C6C9;" width="75.38" height="46.694"/>
<rect x="46.666" y="10" style="fill:#8C9AA2;" width="229.94" height="39.07"/>
<rect x="21.524" y="431.95" style="fill:#009D93;" width="280.23" height="70.05"/>
<rect x="85.309" y="365.28" style="fill:#FDB845;" width="152.67" height="66.67"/>
<rect x="105.309" y="298.61" style="fill:#C4C6C9;" width="112.67" height="34.386"/>
<rect x="105.309" y="333" style="fill:#FFD480;" width="112.67" height="32.28"/>
<rect x="25.149" y="144.33" style="fill:#3ABEB6;" width="276.6" height="34.832"/>
<polygon style="fill:#E7ECED;" points="220.02,144.333 276.612,49.069 46.666,49.069 103.258,144.333 "/>
<rect x="301.75" y="144.33" style="fill:#8C9AA2;" width="188.72" height="357.67"/>
<rect x="341.75" y="184.33" style="fill:#E7ECED;" width="108.72" height="94.79"/>
<path d="M450.476,289.119H341.753c-5.522,0-10-4.478-10-10v-94.786c0-5.522,4.478-10,10-10h108.722c5.522,0,10,4.478,10,10v94.786
	C460.476,284.642,455.997,289.119,450.476,289.119z M351.753,269.119h88.722v-74.786h-88.722L351.753,269.119L351.753,269.119z"/>
<circle style="fill:#FDB845;" cx="396.109" cy="342.3" r="30.694"/>
<path d="M396.114,382.994c-22.438,0-40.693-18.255-40.693-40.693c0-22.439,18.255-40.694,40.693-40.694s40.694,18.256,40.694,40.694
	C436.808,364.739,418.552,382.994,396.114,382.994z M396.114,321.606c-11.41,0-20.693,9.283-20.693,20.694
	c0,11.41,9.283,20.693,20.693,20.693c11.411,0,20.694-9.283,20.694-20.693C416.808,330.89,407.524,321.606,396.114,321.606z"/>
<circle style="fill:#009D93;" cx="396.109" cy="431.95" r="30.694"/>
<path d="M396.114,472.642c-22.438,0-40.693-18.256-40.693-40.694c0-22.439,18.255-40.693,40.693-40.693s40.694,18.255,40.694,40.693
	C436.808,454.386,418.552,472.642,396.114,472.642z M396.114,411.254c-11.41,0-20.693,9.283-20.693,20.693
	c0,11.411,9.283,20.694,20.693,20.694c11.411,0,20.694-9.283,20.694-20.694C416.808,420.537,407.524,411.254,396.114,411.254z"/>
<path d="M214.108,97.17c-0.649,0-1.31-0.07-1.96-0.2c-0.63-0.13-1.26-0.32-1.869-0.57c-0.601-0.25-1.181-0.56-1.721-0.92
	c-0.55-0.359-1.06-0.779-1.52-1.239c-0.471-0.461-0.88-0.971-1.25-1.52c-0.36-0.54-0.67-1.13-0.92-1.73
	c-0.25-0.601-0.44-1.23-0.57-1.87c-0.13-0.641-0.19-1.301-0.19-1.95c0-0.65,0.061-1.311,0.19-1.96c0.13-0.641,0.32-1.271,0.57-1.87
	c0.25-0.6,0.56-1.18,0.92-1.73c0.37-0.54,0.779-1.05,1.25-1.51c0.46-0.47,0.97-0.88,1.52-1.25c0.54-0.359,1.12-0.67,1.721-0.92
	c0.609-0.25,1.239-0.44,1.869-0.57c1.29-0.26,2.62-0.26,3.91,0c0.641,0.131,1.27,0.32,1.87,0.57c0.601,0.25,1.18,0.56,1.73,0.92
	c0.54,0.37,1.059,0.78,1.52,1.25c0.46,0.46,0.88,0.97,1.24,1.51c0.36,0.551,0.67,1.131,0.92,1.73c0.25,0.6,0.441,1.229,0.57,1.87
	c0.13,0.649,0.199,1.31,0.199,1.96c0,0.649-0.069,1.31-0.199,1.95s-0.32,1.27-0.57,1.87c-0.25,0.6-0.559,1.19-0.92,1.73
	c-0.36,0.55-0.78,1.06-1.24,1.52s-0.98,0.88-1.52,1.239c-0.551,0.36-1.13,0.67-1.73,0.92c-0.6,0.25-1.23,0.44-1.87,0.57
	C215.419,97.1,214.759,97.17,214.108,97.17z"/>
<path d="M60.299,476.979c-0.65,0-1.31-0.069-1.95-0.2c-0.64-0.13-1.27-0.319-1.88-0.569c-0.6-0.25-1.18-0.561-1.72-0.92
	c-0.55-0.37-1.061-0.78-1.521-1.25c-0.46-0.46-0.88-0.971-1.25-1.521c-0.359-0.54-0.67-1.12-0.92-1.72
	c-0.25-0.61-0.44-1.24-0.569-1.87c-0.131-0.65-0.19-1.3-0.19-1.96c0-0.65,0.06-1.31,0.19-1.95c0.13-0.64,0.319-1.27,0.569-1.87
	c0.25-0.609,0.56-1.189,0.92-1.73c0.37-0.55,0.79-1.06,1.25-1.52s0.971-0.88,1.521-1.239c0.54-0.36,1.12-0.67,1.72-0.92
	c0.61-0.25,1.24-0.44,1.88-0.57c1.28-0.26,2.61-0.26,3.9,0c0.64,0.13,1.27,0.32,1.87,0.57c0.609,0.25,1.189,0.56,1.729,0.92
	c0.55,0.359,1.061,0.779,1.521,1.239c0.46,0.46,0.88,0.971,1.239,1.52c0.36,0.54,0.671,1.12,0.921,1.73
	c0.25,0.601,0.439,1.23,0.569,1.87c0.13,0.641,0.2,1.3,0.2,1.95c0,0.66-0.07,1.31-0.2,1.96c-0.13,0.63-0.319,1.26-0.569,1.87
	c-0.25,0.6-0.561,1.18-0.921,1.72c-0.359,0.55-0.779,1.061-1.239,1.521C65.509,475.91,62.929,476.979,60.299,476.979z"/>
<path d="M490.474,134.333h-60.122V55.26c0-30.471-24.789-55.26-55.26-55.26H46.666c-5.522,0-10,4.477-10,10v39.069
	c0,0.011,0,0.022,0,0.033c0,0.071,0.001,0.143,0.003,0.214c0,0.012,0.001,0.023,0.001,0.035c0.002,0.061,0.004,0.121,0.007,0.182
	c0.001,0.032,0.003,0.064,0.005,0.096c0.002,0.038,0.005,0.076,0.007,0.114c0.005,0.071,0.01,0.143,0.016,0.213
	c0.001,0.01,0.002,0.019,0.003,0.028c0.143,1.571,0.648,3.036,1.432,4.313l47.546,80.035H25.15c-5.522,0-10,4.478-10,10v34.832
	c0,5.523,4.478,10,10,10h88.8v36.694c0,5.522,4.478,10,10,10h75.376c5.522,0,10-4.478,10-10v-36.694h82.427v232.782h-43.781V365.28
	c0-5.523-4.478-10-10-10h-10v-56.667c0-5.522-4.478-10-10-10H105.306c-5.522,0-10,4.478-10,10v56.667H85.305
	c-5.522,0-10,4.477-10,10v56.666h-53.78c-5.523,0-10,4.478-10,10V502c0,5.522,4.477,10,10,10h468.949c5.522,0,10-4.478,10-10
	V144.333C500.474,138.811,495.997,134.333,490.474,134.333z M410.352,55.26v79.073h-19.068V49.068c0-5.523-4.478-10-10-10h-94.673
	V20h88.482C394.534,20,410.352,35.817,410.352,55.26z M237.591,134.333l44.711-75.265h88.982v75.265H237.591z M266.61,20v19.068
	H56.666V20H266.61z M86.871,97.167h90.569c5.523,0,10-4.478,10-10s-4.477-10-10-10H74.99L64.239,59.069h194.799l-44.71,75.264
	H108.949L86.871,97.167z M189.326,215.859H133.95v-26.694h55.376V215.859z M35.15,169.165v-14.832h256.603v14.832H35.15z
	 M115.306,308.614h92.666V323h-92.666C115.306,323,115.306,308.614,115.306,308.614z M115.306,343h92.666v12.281h-92.666
	C115.306,355.281,115.306,343,115.306,343z M95.305,375.281h132.667v46.666H95.305V375.281z M31.524,441.947h260.229v15.026H96.965
	c-5.522,0-10,4.478-10,10s4.478,10,10,10h194.788V492H31.524V441.947z M480.474,492H311.753V154.333h168.721V492L480.474,492z"/>
<g>
</g>
<g>
</g>
<g>
</g>
<g>
</g>
<g>
</g>
<g>
</g>
<g>
</g>
<g>
</g>
<g>
</g>
<g>
</g>
<g>
</g>
<g>
</g>
<g>
</g>
<g>
</g>
<g>
</g>
</svg>
