<?xml version="1.0" encoding="iso-8859-1"?>
<!-- Generator: Adobe Illustrator 19.0.0, SVG Export Plug-In . SVG Version: 6.00 Build 0)  -->
<svg version="1.1" id="Capa_1" xmlns="http://www.w3.org/2000/svg" xmlns:xlink="http://www.w3.org/1999/xlink" x="0px" y="0px"
	 viewBox="0 0 512 512" style="enable-background:new 0 0 512 512;" xml:space="preserve">
<path style="fill:#FDB845;" d="M466.028,180.422v-45.945H479c12.687,0,22.972,10.285,22.972,22.972l0,0
	c0,12.687-10.285,22.972-22.972,22.972h-12.972V180.422z"/>
<path style="fill:#E7ECED;" d="M466.028,226.367v-45.945H479c12.687,0,22.972,10.285,22.972,22.972l0,0
	c0,12.687-10.285,22.972-22.972,22.972h-12.972V226.367z"/>
<rect x="87.27" y="213.14" style="fill:#3ABEB6;" width="68.972" height="85.72"/>
<polygon style="fill:#FFD480;" points="211.932,173.073 211.932,338.926 156.238,338.893 156.238,173.107 "/>
<rect x="10.03" y="10" style="fill:#8C9AA2;" width="77.24" height="492"/>
<path d="M48.649,64.64c-0.659,0-1.31-0.06-1.96-0.189c-0.63-0.131-1.26-0.32-1.87-0.57c-0.6-0.25-1.18-0.561-1.72-0.92
	c-0.55-0.37-1.06-0.79-1.52-1.25c-0.471-0.46-0.88-0.97-1.25-1.521c-0.36-0.54-0.67-1.12-0.92-1.72c-0.25-0.61-0.44-1.24-0.57-1.87
	c-0.13-0.649-0.19-1.31-0.19-1.96c0-0.649,0.061-1.309,0.19-1.95c0.13-0.64,0.32-1.27,0.57-1.87c0.25-0.609,0.56-1.189,0.92-1.729
	c0.37-0.55,0.779-1.06,1.25-1.521c0.46-0.46,0.97-0.88,1.52-1.239c0.54-0.36,1.12-0.67,1.72-0.92c0.61-0.25,1.24-0.44,1.87-0.57
	c1.29-0.26,2.62-0.26,3.91,0c0.641,0.13,1.27,0.32,1.87,0.57c0.61,0.25,1.19,0.56,1.73,0.92c0.55,0.359,1.06,0.779,1.52,1.239
	c0.46,0.461,0.88,0.971,1.24,1.521c0.359,0.54,0.67,1.12,0.92,1.729c0.25,0.601,0.439,1.23,0.57,1.87
	c0.13,0.641,0.199,1.301,0.199,1.95c0,0.65-0.069,1.311-0.199,1.96c-0.131,0.63-0.32,1.26-0.57,1.87c-0.25,0.6-0.561,1.18-0.92,1.72
	c-0.36,0.551-0.78,1.061-1.24,1.521c-0.46,0.46-0.97,0.88-1.52,1.25c-0.54,0.359-1.12,0.67-1.73,0.92
	c-0.6,0.25-1.229,0.439-1.87,0.57C49.96,64.58,49.3,64.64,48.649,64.64z"/>
<rect x="399.5" y="70.821" style="fill:#009D93;" width="66.52" height="350.36"/>
<rect x="256.03" y="194.71" style="fill:#FDB845;" width="143.48" height="122.58"/>
<rect x="87.27" y="421.18" style="fill:#E7ECED;" width="378.76" height="80.82"/>
<path d="M424.27,471.59c-0.649,0-1.31-0.07-1.95-0.19c-0.64-0.13-1.27-0.33-1.869-0.58c-0.61-0.25-1.19-0.56-1.73-0.92
	c-0.55-0.359-1.06-0.779-1.52-1.239c-1.86-1.86-2.931-4.44-2.931-7.07c0-0.65,0.07-1.311,0.2-1.95c0.12-0.64,0.32-1.27,0.57-1.87
	c0.25-0.609,0.56-1.189,0.92-1.729c0.359-0.55,0.78-1.061,1.24-1.521s0.97-0.88,1.52-1.25c0.54-0.359,1.12-0.66,1.73-0.91
	c0.6-0.25,1.229-0.449,1.869-0.58c3.24-0.649,6.7,0.421,9.021,2.74c0.46,0.46,0.88,0.971,1.24,1.521
	c0.359,0.54,0.67,1.12,0.92,1.729c0.25,0.601,0.45,1.23,0.569,1.87c0.131,0.64,0.2,1.3,0.2,1.95c0,2.63-1.069,5.21-2.93,7.07
	C429.479,470.52,426.898,471.59,424.27,471.59z"/>
<path d="M511.973,157.45c0-18.182-14.791-32.973-32.973-32.973h-2.973V70.82c0-5.522-4.478-10-10-10H154.236
	c-5.522,0-10,4.478-10,10s4.478,10,10,10h235.269v103.891H256.027c-5.522,0-10,4.478-10,10v122.577c0,5.522,4.478,10,10,10h133.478
	v83.892H97.268V308.86h48.972v30.033c0,5.52,4.474,9.997,9.994,10l45.698,0.027v11.657c0,5.523,4.478,10,10,10
	c5.523,0,10-4.477,10-10V151.423c0-5.522-4.477-10-10-10c-5.522,0-10,4.478-10,10v11.656l-45.698,0.027
	c-5.52,0.003-9.994,4.48-9.994,10v30.034H97.268V10c0-5.523-4.478-10-10-10h-77.24c-5.522,0-10,4.477-10,10v491.999
	c0,5.523,4.478,10,10,10l0,0c0.025,0-0.026,0,0,0l456,0.001c5.522,0,10-4.478,10-10V236.367H479
	c18.182,0,32.973-14.791,32.973-32.973c0-8.923-3.563-17.029-9.341-22.972C508.409,174.48,511.973,166.374,511.973,157.45z
	 M479,144.477c7.153,0,12.973,5.819,12.973,12.973c0,7.153-5.819,12.973-12.973,12.973h-2.973v-25.945L479,144.477L479,144.477z
	 M456.027,80.82v330.358h-46.522V80.82H456.027z M266.027,307.288V204.711h123.478v102.577H266.027z M166.238,183.101l35.692-0.021
	v145.84l-35.692-0.021V183.101z M146.238,223.141V246h-31.465c-5.522,0-10,4.477-10,10c0,5.522,4.478,10,10,10h31.465v22.859H97.268
	V223.14L146.238,223.141L146.238,223.141z M20.027,20h57.24v471.999h-18.62V90.291c0-5.522-4.478-10-10-10s-10,4.478-10,10v401.708
	h-18.62C20.026,491.999,20.026,20,20.027,20z M456.027,492H97.268v-20.41h290.336c5.523,0,10-4.478,10-10s-4.477-10-10-10H97.268
	v-20.41h358.76V492H456.027z M479,216.367h-2.973v-25.944H479c7.153,0,12.973,5.819,12.973,12.972S486.153,216.367,479,216.367z"/>
<path d="M351.349,246h-13.582v-13.583c0-5.523-4.478-10-10-10s-10,4.477-10,10V246h-13.583c-5.522,0-10,4.477-10,10
	c0,5.522,4.478,10,10,10h13.583v13.582c0,5.522,4.478,10,10,10s10-4.478,10-10V266h13.582c5.522,0,10-4.478,10-10
	C361.349,250.477,356.871,246,351.349,246z"/>
<g>
</g>
<g>
</g>
<g>
</g>
<g>
</g>
<g>
</g>
<g>
</g>
<g>
</g>
<g>
</g>
<g>
</g>
<g>
</g>
<g>
</g>
<g>
</g>
<g>
</g>
<g>
</g>
<g>
</g>
</svg>
