<?xml version="1.0" encoding="iso-8859-1"?>
<!-- Generator: Adobe Illustrator 19.0.0, SVG Export Plug-In . SVG Version: 6.00 Build 0)  -->
<svg version="1.1" id="Capa_1" xmlns="http://www.w3.org/2000/svg" xmlns:xlink="http://www.w3.org/1999/xlink" x="0px" y="0px"
	 viewBox="0 0 512 512" style="enable-background:new 0 0 512 512;" xml:space="preserve">
<rect x="10" y="19.306" style="fill:#009D93;" width="492" height="80.32"/>
<rect x="73.16" y="291.59" style="fill:#FFD480;" width="140.66" height="120.87"/>
<rect x="99.4" y="99.63" style="fill:#C4C6C9;" width="88.19" height="97.74"/>
<polygon style="fill:#3ABEB6;" points="143.497,247.192 111.796,197.373 175.197,197.373 "/>
<rect x="73.12" y="58.5" style="fill:#E7ECED;" width="140.74" height="41.13"/>
<rect x="298.17" y="291.59" style="fill:#FDB845;" width="140.66" height="120.87"/>
<rect x="324.41" y="99.63" style="fill:#C4C6C9;" width="88.19" height="97.74"/>
<polygon style="fill:#3ABEB6;" points="368.503,247.192 336.803,197.373 400.204,197.373 "/>
<rect x="298.13" y="58.5" style="fill:#E7ECED;" width="140.74" height="41.13"/>
<rect x="10" y="412.46" style="fill:#8C9AA2;" width="492" height="80.23"/>
<path d="M451.74,463c-0.65,0-1.3-0.06-1.95-0.19c-0.64-0.13-1.27-0.33-1.87-0.58s-1.19-0.55-1.73-0.91
	c-0.54-0.37-1.06-0.79-1.52-1.25s-0.88-0.97-1.24-1.52c-0.36-0.54-0.67-1.12-0.92-1.72c-0.25-0.61-0.44-1.24-0.57-1.87
	c-0.13-0.65-0.2-1.31-0.2-1.96s0.07-1.31,0.2-1.95s0.32-1.27,0.57-1.87c0.25-0.61,0.56-1.19,0.92-1.73
	c0.36-0.55,0.78-1.06,1.24-1.52s0.98-0.88,1.52-1.24c0.54-0.36,1.13-0.67,1.73-0.92s1.23-0.44,1.87-0.57c1.29-0.26,2.62-0.26,3.91,0
	c0.64,0.13,1.27,0.32,1.87,0.57s1.18,0.56,1.73,0.92c0.54,0.36,1.05,0.78,1.52,1.24c0.46,0.46,0.88,0.97,1.24,1.52
	c0.36,0.54,0.67,1.12,0.92,1.73c0.25,0.6,0.44,1.23,0.57,1.87c0.13,0.64,0.2,1.3,0.2,1.95c0,0.65-0.07,1.31-0.2,1.96
	c-0.13,0.63-0.32,1.26-0.57,1.87c-0.25,0.6-0.56,1.18-0.92,1.72c-0.36,0.55-0.78,1.06-1.24,1.52c-0.47,0.46-0.98,0.88-1.52,1.25
	c-0.55,0.36-1.13,0.66-1.73,0.91s-1.23,0.45-1.87,0.58C453.05,462.94,452.4,463,451.74,463z"/>
<path d="M502,9.307H10c-5.523,0-10,4.477-10,10V99.63c0,5.523,4.477,10,10,10h79.402v77.744H88.15c-5.523,0-10,4.477-10,10
	s4.477,10,10,10h18.156l18.974,29.818H69.192c-5.523,0-10,4.477-10,10s4.477,10,10,10h148.609c5.523,0,10-4.477,10-10
	s-4.477-10-10-10h-56.089l18.975-29.818h18.156c5.523,0,10-4.477,10-10s-4.477-10-10-10h-1.252V109.63h116.817v77.744h-1.252
	c-5.523,0-10,4.477-10,10s4.477,10,10,10h18.156l18.975,29.818h-56.089c-5.523,0-10,4.477-10,10s4.477,10,10,10h148.609
	c5.523,0,10-4.477,10-10s-4.477-10-10-10H386.72l18.974-29.818h18.156c5.523,0,10-4.477,10-10s-4.477-10-10-10h-1.252V109.63H502
	c5.523,0,10-4.477,10-10V19.307C512,13.784,507.523,9.307,502,9.307z M109.402,124.553l56.096,62.821h-56.096V124.553z
	 M143.497,228.565l-13.484-21.191h26.969L143.497,228.565z M177.591,170.888L122.89,109.63h54.701V170.888z M83.124,89.63V68.502
	h120.745V89.63H83.124z M334.409,124.553l56.096,62.82h-56.096V124.553z M368.503,228.565l-13.484-21.191h26.969L368.503,228.565z
	 M402.598,170.889l-54.702-61.259h54.702V170.889z M308.131,89.63V68.502h120.745V89.63H308.131z M492,89.63h-43.125V58.502
	c0-5.523-4.477-10-10-10H298.131c-5.523,0-10,4.477-10,10V89.63h-64.262V58.502c0-5.523-4.477-10-10-10H73.124
	c-5.523,0-10,4.477-10,10V89.63H20V29.307h472V89.63z"/>
<path d="M502,402.46h-53.165V291.591c0-5.523-4.477-10-10-10H298.171c-5.523,0-10,4.477-10,10V402.46h-64.342V291.591
	c0-5.523-4.477-10-10-10H73.165c-5.523,0-10,4.477-10,10V402.46H10c-5.523,0-10,4.477-10,10v80.233c0,5.523,4.477,10,10,10h492
	c5.523,0,10-4.477,10-10V412.46C512,406.937,507.523,402.46,502,402.46z M383.847,352.025l44.988-38.657v77.315L383.847,352.025z
	 M368.503,338.841l-43.351-37.25h86.702L368.503,338.841z M353.159,352.025l-44.989,38.657v-77.315L353.159,352.025z
	 M368.503,365.21l43.351,37.25h-86.702L368.503,365.21z M158.84,352.025l44.989-38.657v77.315L158.84,352.025z M143.497,338.841
	l-43.351-37.25h86.702L143.497,338.841z M128.153,352.025l-44.988,38.657v-77.315L128.153,352.025z M143.497,365.21l43.351,37.25
	h-86.702L143.497,365.21z M492,482.693H20v-19.692h395.272c5.523,0,10-4.477,10-10s-4.477-10-10-10H20V422.46h472V482.693z"/>
<g>
</g>
<g>
</g>
<g>
</g>
<g>
</g>
<g>
</g>
<g>
</g>
<g>
</g>
<g>
</g>
<g>
</g>
<g>
</g>
<g>
</g>
<g>
</g>
<g>
</g>
<g>
</g>
<g>
</g>
</svg>
