<?xml version="1.0" encoding="iso-8859-1"?>
<!-- Generator: Adobe Illustrator 19.0.0, SVG Export Plug-In . SVG Version: 6.00 Build 0)  -->
<svg version="1.1" id="Capa_1" xmlns="http://www.w3.org/2000/svg" xmlns:xlink="http://www.w3.org/1999/xlink" x="0px" y="0px"
	 viewBox="0 0 512.001 512.001" style="enable-background:new 0 0 512.001 512.001;" xml:space="preserve">
<rect x="133.13" y="127.069" style="fill:#3ABEB6;" width="54" height="30.886"/>
<rect x="110.02" y="325.9" style="fill:#FFD480;" width="100.23" height="86.13"/>
<rect x="324.87" y="127.069" style="fill:#3ABEB6;" width="54" height="30.886"/>
<rect x="301.75" y="325.9" style="fill:#FFD480;" width="100.23" height="86.13"/>
<path style="fill:#8C9AA2;" d="M54.985,412.031h402.031c24.844,0,44.985,20.14,44.985,44.985l0,0
	c0,24.845-20.14,44.985-44.985,44.985H54.985C30.141,502,10,481.86,10,457.016l0,0C10,432.172,30.141,412.031,54.985,412.031z"/>
<path d="M453.283,467.016h-51.467c-5.522,0-10-4.477-10-10s4.478-10,10-10h51.467c5.522,0,10,4.477,10,10
	S458.806,467.016,453.283,467.016z"/>
<path d="M366.281,467.021c-0.65,0-1.311-0.07-1.961-0.2c-0.63-0.13-1.26-0.32-1.869-0.57c-0.601-0.25-1.181-0.56-1.721-0.92
	c-0.55-0.37-1.06-0.78-1.52-1.24c-0.46-0.47-0.88-0.98-1.25-1.52c-0.36-0.55-0.67-1.13-0.92-1.73s-0.44-1.23-0.57-1.87
	c-0.13-0.65-0.189-1.3-0.189-1.96c0-2.63,1.069-5.2,2.93-7.07c0.46-0.46,0.97-0.88,1.52-1.24c0.54-0.36,1.12-0.67,1.721-0.92
	c0.609-0.25,1.239-0.44,1.869-0.57c1.29-0.26,2.62-0.26,3.91,0c0.641,0.13,1.271,0.32,1.87,0.57c0.61,0.25,1.19,0.56,1.73,0.92
	c0.55,0.36,1.06,0.78,1.52,1.24s0.88,0.98,1.24,1.52c0.36,0.55,0.67,1.13,0.92,1.73s0.44,1.23,0.57,1.87c0.13,0.65,0.2,1.3,0.2,1.95
	c0,0.66-0.07,1.31-0.2,1.96c-0.13,0.64-0.32,1.27-0.57,1.87s-0.56,1.18-0.92,1.73c-0.36,0.54-0.78,1.05-1.24,1.52
	C371.491,465.951,368.911,467.021,366.281,467.021z"/>
<path d="M299.502,467.016h-51.466c-5.522,0-10-4.477-10-10s4.478-10,10-10h51.466c5.522,0,10,4.477,10,10
	S305.024,467.016,299.502,467.016z"/>
<path d="M212.501,467.021c-0.65,0-1.311-0.07-1.96-0.2c-0.63-0.13-1.26-0.32-1.87-0.57c-0.601-0.25-1.18-0.56-1.72-0.92
	c-0.551-0.36-1.061-0.78-1.521-1.24c-0.46-0.46-0.88-0.98-1.25-1.52c-0.36-0.55-0.66-1.13-0.91-1.73s-0.45-1.23-0.58-1.87
	c-0.13-0.65-0.189-1.3-0.189-1.95c0-0.66,0.06-1.31,0.189-1.96c0.13-0.64,0.33-1.27,0.58-1.87s0.55-1.18,0.91-1.73
	c0.37-0.54,0.79-1.06,1.25-1.52s0.97-0.88,1.521-1.24c0.54-0.36,1.119-0.67,1.72-0.92c0.61-0.25,1.24-0.44,1.87-0.57
	c1.3-0.26,2.62-0.26,3.91,0c0.64,0.13,1.27,0.32,1.869,0.57c0.61,0.25,1.191,0.56,1.73,0.92c0.55,0.36,1.06,0.78,1.52,1.24
	c0.461,0.46,0.881,0.98,1.24,1.52c0.36,0.55,0.67,1.13,0.92,1.73s0.45,1.23,0.57,1.87c0.13,0.65,0.2,1.3,0.2,1.96
	c0,0.65-0.07,1.3-0.2,1.95c-0.12,0.64-0.32,1.27-0.57,1.87s-0.56,1.18-0.92,1.73c-0.359,0.54-0.779,1.06-1.24,1.52
	c-0.46,0.46-0.97,0.88-1.52,1.24c-0.54,0.36-1.12,0.67-1.73,0.92c-0.6,0.25-1.229,0.44-1.869,0.57S213.15,467.021,212.501,467.021z"
	/>
<path d="M145.722,467.016H94.255c-5.522,0-10-4.477-10-10s4.478-10,10-10h51.467c5.523,0,10,4.477,10,10
	S151.244,467.016,145.722,467.016z"/>
<path d="M58.721,467.021c-0.65,0-1.309-0.07-1.96-0.2c-0.64-0.13-1.26-0.32-1.87-0.57c-0.6-0.25-1.18-0.56-1.72-0.92
	c-0.55-0.36-1.06-0.78-1.521-1.24c-0.46-0.47-0.88-0.98-1.25-1.52c-0.359-0.55-0.67-1.13-0.92-1.73s-0.439-1.23-0.569-1.87
	c-0.13-0.65-0.191-1.3-0.191-1.95c0-0.66,0.061-1.31,0.191-1.96c0.13-0.64,0.319-1.27,0.569-1.87s0.561-1.18,0.92-1.73
	c0.37-0.54,0.79-1.06,1.25-1.52s0.971-0.88,1.521-1.24c0.54-0.36,1.12-0.67,1.72-0.92c0.61-0.25,1.24-0.44,1.87-0.57
	c1.29-0.26,2.62-0.26,3.91,0c0.64,0.13,1.27,0.32,1.87,0.57c0.609,0.25,1.189,0.56,1.729,0.92c0.54,0.36,1.061,0.78,1.521,1.24
	c0.46,0.46,0.88,0.98,1.24,1.52c0.359,0.55,0.67,1.13,0.92,1.73s0.439,1.23,0.569,1.87c0.13,0.65,0.2,1.3,0.2,1.96
	c0,0.65-0.07,1.3-0.2,1.95c-0.13,0.64-0.319,1.27-0.569,1.87s-0.561,1.18-0.92,1.73c-0.36,0.54-0.78,1.05-1.24,1.52
	c-0.46,0.46-0.98,0.88-1.521,1.24c-0.54,0.36-1.12,0.67-1.729,0.92c-0.601,0.25-1.23,0.44-1.87,0.57S59.371,467.021,58.721,467.021z
	"/>
<rect x="10" y="10" style="fill:#009D93;" width="492" height="64.799"/>
<g>
	<polygon style="fill:#E7ECED;" points="273.941,74.799 303.436,127.071 400.305,127.071 429.8,74.799 	"/>
	<polygon style="fill:#E7ECED;" points="82.202,74.799 111.698,127.071 208.566,127.071 238.061,74.799 	"/>
</g>
<path d="M449.761,51.401c-0.66,0-1.31-0.07-1.96-0.2c-0.64-0.12-1.27-0.32-1.87-0.57s-1.18-0.56-1.729-0.92
	c-0.54-0.36-1.051-0.78-1.521-1.24c-0.46-0.46-0.87-0.97-1.24-1.52c-0.359-0.54-0.67-1.12-0.92-1.73
	c-0.25-0.6-0.439-1.23-0.569-1.87c-0.131-0.64-0.19-1.3-0.19-1.95s0.06-1.31,0.19-1.95s0.319-1.27,0.569-1.88
	c0.25-0.6,0.561-1.18,0.92-1.72c0.37-0.55,0.78-1.06,1.24-1.52c0.47-0.46,0.98-0.88,1.521-1.25c0.55-0.36,1.13-0.66,1.729-0.91
	c0.601-0.25,1.23-0.45,1.87-0.57c1.29-0.26,2.62-0.26,3.91,0c0.64,0.12,1.27,0.32,1.87,0.57s1.18,0.55,1.73,0.91
	c0.54,0.37,1.05,0.79,1.52,1.25c0.46,0.46,0.88,0.97,1.239,1.52c0.36,0.54,0.671,1.12,0.921,1.72c0.25,0.61,0.439,1.24,0.569,1.88
	s0.2,1.3,0.2,1.95s-0.07,1.31-0.2,1.95s-0.319,1.27-0.569,1.87c-0.25,0.61-0.561,1.19-0.921,1.73c-0.359,0.55-0.779,1.06-1.239,1.52
	c-0.471,0.46-0.98,0.88-1.52,1.24c-0.55,0.36-1.13,0.67-1.73,0.92c-0.601,0.25-1.23,0.45-1.87,0.57
	C451.061,51.331,450.411,51.401,449.761,51.401z"/>
<path d="M457.017,402.031h-45.029v-76.128c0-5.523-4.478-10-10-10H361.87v-29.297h103.24c5.522,0,10-4.477,10-10V84.799h26.891
	c5.522,0,10-4.477,10-10V10.001c0-5.523-4.477-10-10-10h-492c-5.523,0-10,4.477-10,10v64.799c0,5.523,4.477,10,10,10h26.891v191.806
	c0,5.523,4.478,10,10,10h103.24v29.297h-40.117c-5.522,0-10,4.477-10,10v76.128h-45.03C24.666,402.031,0,426.697,0,457.016
	S24.666,512,54.985,512h402.031c30.319,0,54.985-24.666,54.985-54.985C512.002,426.697,487.336,402.031,457.017,402.031z
	 M375.005,335.903l-23.135,19.879l-23.135-19.879H375.005z M367.215,368.967l24.772-21.286v42.573L367.215,368.967z
	 M336.526,368.967l-24.772,21.286V347.68L336.526,368.967z M351.871,382.152l23.135,19.879h-46.27L351.871,382.152z M20.001,64.799
	V51.4H413.09c5.522,0,10-4.477,10-10s-4.478-10-10-10H20.001V20h472v44.799H20.001z M309.276,117.071l-18.21-32.272h121.608
	l-18.21,32.272C394.464,117.072,309.276,117.072,309.276,117.071z M368.87,137.072v10.886h-34v-10.886H368.87z M117.537,117.071
	l-18.21-32.272h121.608l-18.21,32.272C202.725,117.072,117.537,117.072,117.537,117.071z M177.132,137.072v10.886h-34v-10.886
	H177.132z M56.892,266.605V84.799h19.471l26.625,47.187c1.773,3.143,5.101,5.086,8.709,5.086h11.435v20.886c0,5.523,4.478,10,10,10
	h17v15.13c0,5.523,4.478,10,10,10c8.663,0,15.711,7.048,15.711,15.711s-7.048,15.711-15.711,15.711s-15.711-7.048-15.711-15.711
	c0-5.523-4.477-10-10-10c-5.522,0-10,4.477-10,10c0,19.691,16.02,35.711,35.711,35.711s35.711-16.02,35.711-35.711
	c0-16.221-10.871-29.951-25.711-34.286v-6.555h17c5.522,0,10-4.477,10-10v-20.886h11.434c3.608,0,6.936-1.943,8.709-5.086
	L243.9,84.799h24.202l26.625,47.187c1.772,3.143,5.1,5.086,8.709,5.086h11.434v20.886c0,5.523,4.478,10,10,10h17v15.13
	c0,5.523,4.478,10,10,10c8.663,0,15.711,7.048,15.711,15.711s-7.048,15.711-15.711,15.711s-15.711-7.048-15.711-15.711
	c0-5.523-4.478-10-10-10c-5.523,0-10,4.477-10,10c0,19.691,16.02,35.711,35.711,35.711s35.711-16.02,35.711-35.711
	c0-16.221-10.871-29.951-25.711-34.286v-6.555h17c5.523,0,10-4.477,10-10v-20.886h11.435c3.608,0,6.937-1.943,8.709-5.086
	l26.625-47.187h19.471v181.806L56.892,266.605L56.892,266.605z M170.132,286.605H341.87v29.297h-40.116c-5.522,0-10,4.477-10,10
	v76.128h-71.506v-76.128c0-5.523-4.478-10-10-10h-40.116V286.605z M183.266,335.903l-23.135,19.879l-23.135-19.879H183.266z
	 M175.476,368.967l24.772-21.286v42.573L175.476,368.967z M144.787,368.967l-24.772,21.286V347.68L144.787,368.967z
	 M160.131,382.152l23.135,19.879h-46.27L160.131,382.152z M457.017,492.001H54.985C35.694,492.001,20,476.307,20,457.016
	c0-19.29,15.694-34.985,34.985-34.985h402.031c19.291,0,34.985,15.694,34.985,34.985
	C492.002,476.307,476.308,492.001,457.017,492.001z"/>
<g>
</g>
<g>
</g>
<g>
</g>
<g>
</g>
<g>
</g>
<g>
</g>
<g>
</g>
<g>
</g>
<g>
</g>
<g>
</g>
<g>
</g>
<g>
</g>
<g>
</g>
<g>
</g>
<g>
</g>
</svg>
