<?xml version="1.0" encoding="iso-8859-1"?>
<!-- Generator: Adobe Illustrator 19.0.0, SVG Export Plug-In . SVG Version: 6.00 Build 0)  -->
<svg version="1.1" id="Capa_1" xmlns="http://www.w3.org/2000/svg" xmlns:xlink="http://www.w3.org/1999/xlink" x="0px" y="0px"
	 viewBox="0 0 512 512" style="enable-background:new 0 0 512 512;" xml:space="preserve">
<path style="fill:#C4C6C9;" d="M266.357,90.352c-4.954-8.035-7.813-17.499-7.813-27.631s2.858-19.597,7.812-27.631H115.549
	c4.954,8.035,7.812,17.499,7.812,27.631s-2.858,19.597-7.813,27.631H266.357z"/>
<path style="fill:#8C9AA2;" d="M37.641,103.838v304.324c9.033-7.259,20.509-11.603,33-11.603s23.967,4.344,33,11.603V103.838"/>
<path style="fill:#009D93;" d="M108.473,485.997h322.498c34.854,0,63.108-28.255,63.108-63.108v-10.327H108.473"/>
<circle style="fill:#FDB845;" cx="311.26" cy="62.721" r="52.721"/>
<circle style="fill:#E7ECED;" cx="70.64" cy="62.721" r="52.721"/>
<path d="M70.64,156.84c-0.65,0-1.31-0.059-1.95-0.19c-0.64-0.13-1.27-0.319-1.87-0.569c-0.61-0.25-1.19-0.561-1.73-0.92
	c-0.55-0.37-1.06-0.78-1.52-1.25c-0.46-0.46-0.88-0.971-1.24-1.521c-0.36-0.54-0.67-1.12-0.92-1.72c-0.25-0.61-0.44-1.23-0.57-1.87
	c-0.13-0.65-0.2-1.3-0.2-1.96c0-0.65,0.07-1.309,0.2-1.95c0.13-0.64,0.32-1.27,0.57-1.87c0.25-0.609,0.56-1.189,0.92-1.73
	c0.36-0.55,0.78-1.06,1.24-1.52s0.97-0.88,1.52-1.239c0.54-0.36,1.12-0.671,1.73-0.921c0.6-0.25,1.23-0.439,1.87-0.569
	c1.29-0.26,2.62-0.26,3.91,0c0.63,0.13,1.26,0.319,1.87,0.569c0.6,0.25,1.18,0.561,1.72,0.921c0.55,0.359,1.06,0.779,1.52,1.239
	c0.46,0.46,0.88,0.971,1.25,1.52c0.36,0.54,0.66,1.12,0.92,1.73c0.25,0.601,0.44,1.23,0.57,1.87c0.13,0.641,0.19,1.3,0.19,1.95
	c0,0.66-0.06,1.31-0.19,1.96c-0.13,0.64-0.32,1.26-0.57,1.87c-0.26,0.6-0.56,1.18-0.92,1.72c-0.37,0.55-0.79,1.061-1.25,1.521
	c-0.46,0.47-0.97,0.88-1.52,1.25c-0.54,0.359-1.12,0.67-1.72,0.92c-0.61,0.25-1.24,0.439-1.87,0.569
	C71.95,156.78,71.29,156.84,70.64,156.84z"/>
<path style="fill:#FDB845;" d="M349.192,357.185h-75.853V315.19c0-20.946,16.98-37.926,37.926-37.926l0,0
	c20.946,0,37.926,16.98,37.926,37.926v41.995H349.192z"/>
<g>
	<path style="fill:#FFD480;" d="M478.635,412.562h-75.853v-41.994c0-20.946,16.98-37.926,37.926-37.926l0,0
		c20.946,0,37.926,16.98,37.926,37.926v41.994H478.635z"/>
	<path style="fill:#FFD480;" d="M219.749,412.562h-75.853v-41.994c0-20.946,16.98-37.926,37.926-37.926l0,0
		c20.946,0,37.926,16.98,37.926,37.926v41.994H219.749z"/>
</g>
<circle style="fill:#E7ECED;" cx="70.64" cy="449.28" r="52.721"/>
<rect x="273.34" y="181.48" style="fill:#8C9AA2;" width="75.853" height="43.03"/>
<path d="M439.97,454c-2.63,0-5.21-1.07-7.07-2.931c-0.46-0.46-0.88-0.97-1.24-1.52c-0.36-0.54-0.67-1.12-0.92-1.73
	c-0.25-0.6-0.44-1.229-0.57-1.869c-0.13-0.641-0.2-1.301-0.2-1.95c0-0.65,0.07-1.31,0.2-1.95s0.32-1.27,0.57-1.87
	c0.25-0.61,0.56-1.189,0.92-1.729c0.36-0.551,0.78-1.061,1.24-1.521c2.33-2.32,5.78-3.39,9.03-2.729
	c0.64,0.119,1.26,0.319,1.87,0.569c0.6,0.25,1.18,0.561,1.72,0.92c0.55,0.36,1.06,0.78,1.52,1.24s0.88,0.97,1.25,1.521
	c0.36,0.54,0.67,1.119,0.92,1.729c0.25,0.601,0.44,1.23,0.57,1.87c0.13,0.64,0.19,1.3,0.19,1.95c0,0.649-0.06,1.31-0.19,1.95
	s-0.32,1.27-0.57,1.869c-0.25,0.61-0.56,1.19-0.92,1.73c-0.37,0.55-0.79,1.06-1.25,1.52C445.18,452.93,442.61,454,439.97,454z"/>
<path d="M494.08,402.561h-5.445v-31.994c0-26.427-21.5-47.926-47.926-47.926s-47.926,21.499-47.926,47.926v31.994H229.749v-31.994
	c0-26.427-21.5-47.926-47.927-47.926s-47.926,21.499-47.926,47.926v31.994h-20.255v-294.22c2.602-2.454,4.994-5.127,7.148-7.99
	h140.329c9.551,12.696,23.803,21.663,40.148,24.293v46.839H273.34c-5.523,0-10,4.478-10,10v43.033c0,4.911,3.541,8.996,8.209,9.84
	c-6.279,8.325-10.007,18.678-10.007,29.885c0,9.698,2.845,19.161,8.103,27.207c-4.011,7.003-6.305,15.11-6.305,23.742v41.994
	c0,5.522,4.477,10,10,10h75.853c5.523,0,10-4.478,10-10V315.19c0-8.633-2.295-16.739-6.305-23.742
	c5.257-8.046,8.103-17.51,8.103-27.207c0-11.207-3.727-21.56-10.007-29.885c4.668-0.844,8.209-4.929,8.209-9.84v-43.033
	c0-5.522-4.477-10-10-10h-27.926v-46.839c29.848-4.803,52.72-30.743,52.72-61.924C373.986,28.137,345.85,0,311.266,0
	c-20.477,0-38.693,9.864-50.148,25.09H120.789C109.335,9.864,91.118,0,70.641,0C36.057,0,7.92,28.137,7.92,62.721
	c0,17.957,7.586,34.176,19.721,45.62v295.318C15.506,415.103,7.92,431.322,7.92,449.279C7.92,483.863,36.057,512,70.641,512
	c16.045,0,30.702-6.056,41.806-16.003h318.525c40.312,0,73.108-32.796,73.108-73.108v-10.327
	C504.08,407.039,499.603,402.561,494.08,402.561z M340.99,264.241c0,4.02-0.817,7.972-2.365,11.619
	c-7.763-5.416-17.196-8.596-27.359-8.596c-10.162,0-19.596,3.18-27.359,8.596c-1.548-3.648-2.365-7.599-2.365-11.619
	c0-16.391,13.334-29.725,29.724-29.725C327.656,234.517,340.99,247.851,340.99,264.241z M339.192,347.185h-55.853V315.19
	c0-15.398,12.528-27.926,27.927-27.926c15.398,0,27.926,12.527,27.926,27.926V347.185z M339.192,214.517h-55.853v-23.033h55.853
	V214.517z M412.782,370.567c0-15.398,12.528-27.926,27.926-27.926s27.926,12.527,27.926,27.926v31.994h-55.853v-31.994H412.782z
	 M153.896,370.567c0-15.398,12.528-27.926,27.926-27.926c15.399,0,27.927,12.527,27.927,27.926v31.994h-55.853V370.567z M311.266,20
	c23.556,0,42.72,19.164,42.72,42.721s-19.164,42.721-42.72,42.721s-42.721-19.164-42.721-42.721S287.71,20,311.266,20z
	 M251.067,45.09c-1.641,5.595-2.522,11.512-2.522,17.631s0.881,12.036,2.522,17.631H130.839c1.641-5.595,2.522-11.512,2.522-17.631
	s-0.881-12.036-2.522-17.631C130.839,45.09,251.067,45.09,251.067,45.09z M70.641,20c23.556,0,42.721,19.164,42.721,42.721
	s-19.164,42.721-42.721,42.721c-23.556,0-42.721-19.164-42.721-42.721S47.085,20,70.641,20z M47.641,121.074
	c7.125,2.818,14.885,4.367,23,4.367s15.875-1.549,23-4.367v269.852c-4.137-1.636-8.489-2.845-13-3.571V183.511
	c0-5.522-4.477-10-10-10s-10,4.478-10,10v203.844c-4.511,0.726-8.862,1.934-13,3.571V121.074z M27.92,449.279
	c0-23.557,19.165-42.721,42.721-42.721s42.721,19.164,42.721,42.721S94.197,492,70.641,492S27.92,472.836,27.92,449.279z
	 M484.08,422.889c0,29.284-23.824,53.108-53.108,53.108h-303.59c3.197-6.762,5.219-14.182,5.804-21.997h270.121
	c5.523,0,10-4.478,10-10s-4.477-10-10-10H131.48c-0.999-3.976-2.379-7.802-4.098-11.439H484.08V422.889z"/>
<g>
</g>
<g>
</g>
<g>
</g>
<g>
</g>
<g>
</g>
<g>
</g>
<g>
</g>
<g>
</g>
<g>
</g>
<g>
</g>
<g>
</g>
<g>
</g>
<g>
</g>
<g>
</g>
<g>
</g>
</svg>
