<?xml version="1.0" encoding="iso-8859-1"?>
<!-- Generator: Adobe Illustrator 19.0.0, SVG Export Plug-In . SVG Version: 6.00 Build 0)  -->
<svg version="1.1" id="Capa_1" xmlns="http://www.w3.org/2000/svg" xmlns:xlink="http://www.w3.org/1999/xlink" x="0px" y="0px"
	 viewBox="0 0 512 512" style="enable-background:new 0 0 512 512;" xml:space="preserve">
<g>
	<rect x="237.279" y="305.02" style="fill:#FFD480;" width="100.08" height="85.997"/>
	<rect x="389.31" y="305.02" style="fill:#FFD480;" width="100.08" height="85.997"/>
</g>
<polyline style="fill:#E7ECED;" points="103.075,383.17 103.075,89.825 37.175,89.825 37.175,383.17 "/>
<path style="fill:#8C9AA2;" d="M216.983,391.017c-30.647,0-55.492,24.844-55.492,55.491l0,0c0,30.647,24.844,55.491,55.492,55.491
	h272.409V391.017H216.983z"/>
<g>
	<circle style="fill:#E7ECED;" cx="235.329" cy="446.51" r="29.634"/>
	<circle style="fill:#E7ECED;" cx="380.75" cy="446.51" r="29.634"/>
</g>
<path d="M499.393,305.02c0-5.522-4.478-10-10-10H389.311c-5.522,0-10,4.478-10,10v75.997h-31.944V305.02c0-5.522-4.478-10-10-10
	H237.283c-5.523,0-10,4.478-10,10v75.997h-10.3c-36.112,0-65.492,29.379-65.492,65.491S180.871,512,216.983,512h272.408
	c5.522,0,10-4.478,10-10V305.02H499.393z M479.393,369.239l-24.696-21.22l24.696-21.221V369.239z M439.352,334.833l-23.058-19.813
	h46.117L439.352,334.833z M424.007,348.018l-24.696,21.22v-42.441L424.007,348.018z M439.352,361.203l23.058,19.813h-46.117
	L439.352,361.203z M287.325,334.833l-23.059-19.814h46.117L287.325,334.833z M327.366,326.797v42.441l-24.696-21.221
	L327.366,326.797z M271.98,348.018l-24.697,21.221v-42.442L271.98,348.018z M287.325,361.203l23.059,19.814h-46.117L287.325,361.203
	z M479.393,492H216.983c-25.084,0-45.492-20.408-45.492-45.492c0-25.084,20.408-45.491,45.492-45.491h262.408V492H479.393z"/>
<path d="M380.75,406.874c-21.854,0-39.634,17.779-39.634,39.634c0,21.854,17.779,39.634,39.634,39.634
	c18.401,0,33.913-12.605,38.356-29.634h18.051v5.401c0,5.522,4.478,10,10,10s10-4.478,10-10v-30.802c0-5.522-4.478-10-10-10
	s-10,4.478-10,10v5.4h-18.051C414.663,419.479,399.151,406.874,380.75,406.874z M380.75,466.142
	c-10.826,0-19.634-8.808-19.634-19.634s8.808-19.634,19.634-19.634s19.634,8.808,19.634,19.634S391.576,466.142,380.75,466.142z"/>
<path d="M301.74,421.107c-5.522,0-10,4.478-10,10v5.4h-18.05c-4.443-17.029-19.955-29.634-38.356-29.634
	c-21.854,0-39.633,17.779-39.633,39.634c0,21.854,17.779,39.634,39.633,39.634c18.401,0,33.913-12.605,38.356-29.634h18.051v5.401
	c0,5.522,4.478,10,10,10s10-4.478,10-10v-30.802C311.74,425.585,307.263,421.107,301.74,421.107z M235.332,466.142
	c-10.826,0-19.633-8.808-19.633-19.634s8.808-19.634,19.633-19.634c10.826,0,19.634,8.808,19.634,19.634
	S246.16,466.142,235.332,466.142z"/>
<polyline style="fill:#009D93;" points="253.115,24.661 37.175,24.661 37.175,89.825 253.115,89.825 "/>
<path style="fill:#3ABEB6;" d="M311.536,221.901h-48.424v-16.423c0-13.372,10.84-24.212,24.212-24.212l0,0
	c13.372,0,24.212,10.84,24.212,24.212V221.901z"/>
<circle style="fill:#FDB845;" cx="287.32" cy="57.24" r="47.24"/>
<path d="M70.129,146.13c-0.66,0-1.31-0.07-1.96-0.2c-0.64-0.12-1.27-0.32-1.87-0.57s-1.18-0.56-1.73-0.92
	c-0.54-0.359-1.05-0.779-1.52-1.239c-0.46-0.46-0.87-0.971-1.24-1.52c-0.36-0.54-0.67-1.12-0.92-1.73
	c-0.25-0.601-0.44-1.23-0.57-1.87c-0.13-0.641-0.19-1.3-0.19-1.95s0.06-1.311,0.19-1.95c0.13-0.64,0.32-1.27,0.57-1.87
	c0.25-0.609,0.56-1.189,0.92-1.73c0.37-0.55,0.78-1.061,1.24-1.52c0.47-0.46,0.98-0.88,1.52-1.25c0.55-0.35,1.13-0.66,1.73-0.91
	s1.23-0.449,1.87-0.569c1.29-0.261,2.62-0.261,3.91,0c0.64,0.12,1.27,0.319,1.87,0.569c0.6,0.25,1.18,0.561,1.73,0.91
	c0.54,0.37,1.06,0.79,1.52,1.25s0.88,0.971,1.24,1.52c0.36,0.54,0.67,1.12,0.92,1.73c0.25,0.601,0.44,1.23,0.57,1.87
	s0.2,1.3,0.2,1.95c0,2.63-1.07,5.21-2.93,7.07c-0.46,0.46-0.98,0.88-1.52,1.239c-0.55,0.36-1.13,0.67-1.73,0.92
	c-0.6,0.25-1.23,0.45-1.87,0.57C71.429,146.06,70.779,146.13,70.129,146.13z"/>
<path style="fill:#3ABEB6;" d="M117.643,501.255H22.606v-83.848c0-26.244,21.275-47.518,47.518-47.518l0,0
	c26.244,0,47.518,21.275,47.518,47.518L117.643,501.255L117.643,501.255z"/>
<path d="M199.619,67.24c-0.65,0-1.309-0.06-1.95-0.19c-0.64-0.13-1.27-0.32-1.88-0.57c-0.6-0.25-1.18-0.56-1.72-0.92
	c-0.55-0.37-1.06-0.779-1.52-1.25c-0.46-0.46-0.88-0.97-1.25-1.52c-0.36-0.54-0.66-1.12-0.91-1.721
	c-0.25-0.609-0.45-1.239-0.579-1.869c-0.12-0.65-0.191-1.311-0.191-1.96c0-0.65,0.07-1.311,0.191-1.95
	c0.13-0.641,0.329-1.271,0.579-1.87c0.25-0.61,0.55-1.19,0.91-1.73c0.37-0.55,0.79-1.06,1.25-1.52s0.97-0.88,1.52-1.24
	c0.54-0.36,1.12-0.67,1.72-0.92c0.61-0.25,1.24-0.44,1.88-0.57c1.29-0.26,2.61-0.26,3.9,0c0.64,0.13,1.27,0.32,1.87,0.57
	c0.61,0.25,1.19,0.56,1.73,0.92c0.55,0.36,1.06,0.78,1.52,1.24c0.46,0.46,0.88,0.97,1.24,1.52c0.36,0.54,0.67,1.12,0.92,1.73
	c0.25,0.6,0.44,1.229,0.57,1.87c0.13,0.64,0.2,1.3,0.2,1.95c0,0.649-0.07,1.31-0.2,1.96c-0.13,0.63-0.32,1.26-0.57,1.869
	c-0.25,0.601-0.56,1.181-0.92,1.721c-0.36,0.55-0.78,1.06-1.24,1.52c-0.46,0.471-0.97,0.88-1.52,1.25
	c-0.54,0.36-1.12,0.67-1.73,0.92c-0.6,0.25-1.23,0.44-1.87,0.57C200.929,67.18,200.27,67.24,199.619,67.24z"/>
<path d="M342.417,238.811l-20.88-18.009v-15.325c0-15.387-10.211-28.433-24.212-32.721V113.61
	c26.813-4.743,47.242-28.215,47.242-56.368C344.566,25.679,318.889,0,287.325,0c-14.674,0-28.076,5.55-38.217,14.661H37.175
	c-5.523,0-10,4.478-10,10v354.528c-9.058,10.168-14.568,23.562-14.568,38.219v83.848c0,5.522,4.477,10,10,10h95.037
	c5.523,0,10-4.478,10-10v-83.848c0-14.657-5.511-28.05-14.568-38.218V99.824h136.032c7.784,6.994,17.49,11.889,28.217,13.786v59.146
	c-14.001,4.288-24.212,17.334-24.212,32.721v15.325l-20.88,18.009c-2.87,2.476-4.094,6.361-3.161,10.034l7.61,29.954
	c1.15,4.527,5.219,7.541,9.685,7.54c0.815,0,1.644-0.1,2.47-0.31c5.353-1.36,8.589-6.802,7.23-12.154l-6.086-23.96l20.887-18.015
	h32.918l20.887,18.015l-6.087,23.96c-1.359,5.352,1.877,10.794,7.23,12.154c0.826,0.21,1.654,0.31,2.469,0.31
	c4.466,0,8.535-3.014,9.686-7.54l7.609-29.954C346.51,245.172,345.286,241.287,342.417,238.811z M324.566,57.243
	c0,20.535-16.707,37.242-37.242,37.242c-20.536,0-37.243-16.707-37.243-37.242c0-20.536,16.707-37.243,37.243-37.243
	C307.859,20,324.566,36.707,324.566,57.243z M234.725,34.661c-2.987,6.932-4.643,14.567-4.643,22.582
	c0,8.014,1.656,15.649,4.643,22.581H47.175V67.243h115.832c5.523,0,10-4.478,10-10s-4.477-10-10-10H47.175V34.661H234.725z
	 M107.643,491.255H32.606v-73.848c0-20.688,16.831-37.518,37.518-37.518c20.688,0,37.519,16.831,37.519,37.518V491.255z
	 M93.075,364.667c-4.092-1.787-8.431-3.112-12.95-3.908V172.741c0-5.522-4.477-10-10-10s-10,4.478-10,10v188.018
	c-4.519,0.795-8.858,2.12-12.95,3.908V99.824h45.9C93.076,99.824,93.076,364.667,93.075,364.667z M273.113,205.477
	c0-7.837,6.375-14.212,14.212-14.212s14.212,6.375,14.212,14.212v6.424h-28.424V205.477z"/>
<g>
</g>
<g>
</g>
<g>
</g>
<g>
</g>
<g>
</g>
<g>
</g>
<g>
</g>
<g>
</g>
<g>
</g>
<g>
</g>
<g>
</g>
<g>
</g>
<g>
</g>
<g>
</g>
<g>
</g>
</svg>
