<?xml version="1.0" encoding="iso-8859-1"?>
<!-- Generator: Adobe Illustrator 19.0.0, SVG Export Plug-In . SVG Version: 6.00 Build 0)  -->
<svg version="1.1" id="Capa_1" xmlns="http://www.w3.org/2000/svg" xmlns:xlink="http://www.w3.org/1999/xlink" x="0px" y="0px"
	 viewBox="0 0 512 512" style="enable-background:new 0 0 512 512;" xml:space="preserve">
<g>
	<rect x="10" y="36.92" style="fill:#E7ECED;" width="155.25" height="77.24"/>
	<rect x="346.75" y="36.92" style="fill:#E7ECED;" width="155.25" height="77.24"/>
</g>
<rect x="165.249" y="10" style="fill:#009D93;" width="181.49" height="131.08"/>
<circle style="fill:#E7ECED;" cx="217.99" cy="76.1" r="18.989"/>
<path d="M217.988,105.089c-15.984,0-28.989-13.005-28.989-28.989s13.005-28.989,28.989-28.989s28.988,13.005,28.988,28.989
	S233.973,105.089,217.988,105.089z M217.988,67.11c-4.957,0-8.989,4.032-8.989,8.989s4.032,8.989,8.989,8.989
	c4.956,0,8.988-4.032,8.988-8.989S222.945,67.11,217.988,67.11z"/>
<circle style="fill:#E7ECED;" cx="296.44" cy="76.1" r="18.989"/>
<path d="M296.436,105.089c-15.984,0-28.989-13.005-28.989-28.989s13.005-28.989,28.989-28.989s28.989,13.005,28.989,28.989
	S312.421,105.089,296.436,105.089z M296.436,67.11c-4.957,0-8.989,4.032-8.989,8.989s4.032,8.989,8.989,8.989
	s8.989-4.032,8.989-8.989S301.394,67.11,296.436,67.11z"/>
<rect x="83.689" y="446.8" style="fill:#8C9AA2;" width="344.63" height="55.2"/>
<path d="M428.315,512H83.685c-5.522,0-10-4.478-10-10v-55.203c0-5.522,4.478-10,10-10h344.629c5.522,0,10,4.478,10,10V502
	C438.315,507.522,433.837,512,428.315,512z M93.685,492h324.629v-35.203H93.685V492z"/>
<path style="fill:#3ABEB6;" d="M255.999,383.547L255.999,383.547c-25.059,0-45.373-20.314-45.373-45.373v-24.381h90.746v24.381
	C301.372,363.233,281.059,383.547,255.999,383.547z"/>
<path d="M456.18,85.54c-0.649,0-1.31-0.07-1.95-0.2c-0.64-0.12-1.27-0.32-1.87-0.57c-0.609-0.25-1.19-0.56-1.729-0.92
	c-0.55-0.359-1.061-0.78-1.521-1.24s-0.88-0.97-1.239-1.52c-0.36-0.54-0.67-1.12-0.92-1.73c-0.25-0.6-0.44-1.229-0.57-1.869
	c-0.13-0.641-0.2-1.301-0.2-1.95c0-0.65,0.07-1.311,0.2-1.95c0.13-0.64,0.32-1.271,0.57-1.87c0.25-0.61,0.56-1.189,0.92-1.73
	c0.359-0.551,0.779-1.06,1.239-1.52c0.46-0.46,0.971-0.88,1.521-1.24c0.54-0.359,1.12-0.67,1.729-0.92
	c0.601-0.25,1.23-0.45,1.87-0.569c1.29-0.261,2.62-0.261,3.91,0c0.63,0.119,1.26,0.319,1.87,0.569c0.6,0.25,1.18,0.561,1.72,0.92
	c0.551,0.36,1.061,0.78,1.521,1.24s0.88,0.97,1.25,1.52c0.359,0.54,0.67,1.119,0.92,1.73c0.25,0.6,0.44,1.23,0.57,1.87
	s0.189,1.3,0.189,1.95c0,0.649-0.06,1.31-0.189,1.95c-0.131,0.64-0.33,1.27-0.58,1.869c-0.25,0.61-0.551,1.19-0.91,1.73
	c-0.37,0.55-0.79,1.06-1.25,1.52s-0.97,0.881-1.521,1.24c-0.54,0.36-1.12,0.67-1.72,0.92c-0.61,0.25-1.24,0.45-1.87,0.57
	C457.49,85.47,456.829,85.54,456.18,85.54z"/>
<g>
	<polygon style="fill:#FFD480;" points="189.272,141.08 189.272,249.12 297.312,141.08 	"/>
	<polygon style="fill:#FFD480;" points="322.727,229.795 238.729,313.793 322.727,313.793 	"/>
</g>
<polygon style="fill:#FDB845;" points="322.727,141.08 297.312,141.08 189.272,249.12 189.272,313.793 238.729,313.793 
	322.727,229.795 "/>
<path d="M223.809,280.109c-2.63,0-5.21-1.06-7.069-2.92c-0.46-0.46-0.881-0.98-1.25-1.52c-0.36-0.55-0.671-1.13-0.921-1.73
	c-0.25-0.609-0.439-1.23-0.569-1.87c-0.13-0.649-0.19-1.3-0.19-1.96c0-0.649,0.061-1.3,0.19-1.949
	c0.13-0.641,0.319-1.271,0.569-1.87c0.25-0.6,0.561-1.181,0.921-1.73c0.369-0.54,0.79-1.06,1.25-1.52s0.97-0.88,1.52-1.24
	c0.54-0.36,1.12-0.67,1.72-0.92c0.61-0.25,1.24-0.44,1.87-0.57c1.3-0.26,2.62-0.26,3.91,0c0.64,0.13,1.271,0.32,1.87,0.57
	c0.61,0.25,1.189,0.56,1.73,0.92c0.551,0.36,1.061,0.78,1.52,1.24c1.86,1.859,2.93,4.439,2.93,7.069c0,2.641-1.069,5.21-2.93,7.08
	c-0.46,0.46-0.97,0.87-1.52,1.24c-0.54,0.36-1.119,0.67-1.73,0.92c-0.6,0.25-1.23,0.44-1.87,0.57
	C225.119,280.05,224.46,280.109,223.809,280.109z"/>
<path d="M501.999,26.92H356.745V10c0-5.523-4.477-10-10-10h-181.49c-5.522,0-10,4.477-10,10v16.92H10c-5.523,0-10,4.478-10,10v77.24
	c0,5.522,4.477,10,10,10h145.254v16.92c0,5.522,4.478,10,10,10h14.018v162.713c0,5.522,4.477,10,10,10h11.354v14.381
	c0,27.12,19.596,49.748,45.373,54.468v18.929c0,5.523,4.477,10,10,10c5.522,0,10-4.477,10-10v-18.929
	c25.777-4.721,45.373-27.348,45.373-54.468v-14.381h11.355c5.522,0,10-4.478,10-10V151.08h14.018c5.523,0,10-4.478,10-10v-16.92H502
	c5.523,0,10-4.478,10-10V36.92C511.999,31.397,507.522,26.92,501.999,26.92z M155.255,46.92v18.62H20V46.92H155.255z M20,104.16
	V85.54h135.254v18.62H20z M199.272,151.08h73.897l-73.897,73.897L199.272,151.08L199.272,151.08z M291.372,338.174
	c0,19.505-15.868,35.373-35.373,35.373s-35.373-15.868-35.373-35.373v-14.381h70.746V338.174z M312.728,303.793h-49.855
	l49.855-49.855V303.793z M312.728,167.083c-0.161,0.142-0.32,0.289-0.474,0.443l-69.589,69.589c-3.905,3.905-3.905,10.237,0,14.143
	c1.953,1.952,4.512,2.929,7.071,2.929c2.56,0,5.118-0.976,7.071-2.929l55.92-55.92v30.314l-78.141,78.141h-35.314v-50.53
	L301.454,151.08h11.272v16.003H312.728z M336.745,131.08h-161.49V20h161.49V131.08z M491.999,104.16H356.745V85.54h63.787
	c5.522,0,10-4.478,10-10s-4.478-10-10-10h-63.787V46.92h135.254V104.16z"/>
<g>
</g>
<g>
</g>
<g>
</g>
<g>
</g>
<g>
</g>
<g>
</g>
<g>
</g>
<g>
</g>
<g>
</g>
<g>
</g>
<g>
</g>
<g>
</g>
<g>
</g>
<g>
</g>
<g>
</g>
</svg>
