<?xml version="1.0" encoding="iso-8859-1"?>
<!-- Generator: Adobe Illustrator 19.0.0, SVG Export Plug-In . SVG Version: 6.00 Build 0)  -->
<svg version="1.1" id="Capa_1" xmlns="http://www.w3.org/2000/svg" xmlns:xlink="http://www.w3.org/1999/xlink" x="0px" y="0px"
	 viewBox="0 0 512.001 512.001" style="enable-background:new 0 0 512.001 512.001;" xml:space="preserve">
<path style="fill:#E7ECED;" d="M148.772,502v-72.661h288.424l0,0c-7.111,23.698-7.111,48.963,0,72.661h-20H148.772z"/>
<path d="M373.399,477.02c-0.649,0-1.31-0.06-1.96-0.19c-0.63-0.13-1.26-0.32-1.87-0.57c-0.6-0.25-1.18-0.56-1.72-0.92
	c-0.55-0.37-1.06-0.79-1.52-1.25s-0.88-0.97-1.25-1.52c-0.36-0.54-0.67-1.12-0.92-1.72s-0.44-1.23-0.57-1.87
	c-0.13-0.65-0.19-1.31-0.19-1.96c0-2.63,1.07-5.21,2.931-7.07c0.46-0.46,0.97-0.88,1.52-1.24c0.54-0.36,1.12-0.67,1.72-0.92
	c0.61-0.25,1.24-0.44,1.87-0.57c1.29-0.26,2.62-0.26,3.91,0c0.641,0.13,1.271,0.32,1.87,0.57c0.61,0.25,1.19,0.56,1.73,0.92
	c0.55,0.36,1.06,0.78,1.52,1.24c1.86,1.86,2.93,4.44,2.93,7.07c0,0.65-0.069,1.31-0.199,1.96c-0.131,0.64-0.32,1.26-0.57,1.87
	c-0.25,0.6-0.561,1.18-0.92,1.72c-0.36,0.55-0.78,1.06-1.24,1.52s-0.97,0.88-1.52,1.25c-0.54,0.36-1.12,0.67-1.73,0.92
	c-0.6,0.25-1.23,0.44-1.87,0.57C374.71,476.96,374.05,477.02,373.399,477.02z"/>
<rect x="148.76" y="10" style="fill:#009D93;" width="287.95" height="419.34"/>
<path style="fill:#8C9AA2;" d="M148.757,10H100.28c-14.07,0-25.477,11.406-25.477,25.477v441.047
	c0,14.071,11.406,25.477,25.477,25.477h48.477V10z"/>
<rect x="192.91" y="95.08" style="fill:#FFD480;" width="199.64" height="57.88"/>
<path d="M392.555,162.958H192.913c-5.522,0-10-4.477-10-10v-57.88c0-5.523,4.478-10,10-10h199.642c5.522,0,10,4.477,10,10v57.88
	C402.555,158.48,398.077,162.958,392.555,162.958z M202.913,142.958h179.642v-37.88H202.913V142.958z"/>
<path style="fill:#E7ECED;" d="M385.607,305.286V277.01l-24.593-3.789c-1.777-7.106-4.585-13.803-8.258-19.922l14.085-19.444
	l-19.994-19.994l-19.444,14.085c-6.12-3.673-12.816-6.481-19.922-8.258l-3.789-23.702h-28.276l-3.789,23.702
	c-7.106,1.777-13.803,4.585-19.923,8.258L232.26,213.86l-19.994,19.994l14.085,19.444c-3.673,6.12-6.481,12.816-8.258,19.922
	l-24.045,4.017v28.276l24.045,3.561c1.777,7.106,4.585,13.803,8.258,19.922l-14.085,19.444l19.994,19.994l19.444-14.085
	c6.12,3.673,12.816,6.481,19.923,8.258l3.789,23.703h28.276l3.789-23.703c7.106-1.777,13.803-4.585,19.922-8.258l19.444,14.085
	l19.994-19.994l-14.085-19.444c3.673-6.12,6.481-12.816,8.258-19.922L385.607,305.286z"/>
<path d="M303.691,396.311h-28.276c-4.914,0-9.1-3.57-9.875-8.422l-2.792-17.473c-3.521-1.19-6.956-2.614-10.288-4.265
	l-14.334,10.383c-3.978,2.882-9.464,2.448-12.938-1.028l-19.994-19.995c-3.475-3.474-3.909-8.958-1.027-12.938l10.383-14.333
	c-1.639-3.308-3.055-6.718-4.238-10.21l-17.729-2.626c-4.904-0.727-8.535-4.935-8.535-9.892v-28.276
	c0-4.887,3.532-9.058,8.353-9.863l17.869-2.985c1.192-3.537,2.622-6.988,4.28-10.335l-10.383-14.333
	c-2.882-3.979-2.447-9.463,1.027-12.938l19.994-19.994c3.475-3.475,8.957-3.91,12.938-1.027l14.334,10.383
	c3.332-1.651,6.768-3.075,10.288-4.265l2.792-17.473c0.775-4.852,4.961-8.422,9.875-8.422h28.276c4.913,0,9.099,3.569,9.875,8.421
	l2.793,17.474c3.52,1.19,6.955,2.614,10.287,4.265l14.334-10.383c3.979-2.881,9.464-2.447,12.938,1.027l19.994,19.994
	c3.474,3.475,3.909,8.958,1.027,12.938l-10.383,14.334c1.646,3.32,3.066,6.743,4.252,10.249l18.321,2.823
	c4.878,0.751,8.478,4.948,8.478,9.883v28.276c0,4.935-3.6,9.132-8.478,9.883l-18.321,2.823c-1.186,3.506-2.607,6.929-4.252,10.25
	l10.383,14.333c2.882,3.979,2.446,9.463-1.027,12.937l-19.994,19.995c-3.475,3.474-8.959,3.91-12.938,1.028l-14.334-10.383
	c-3.331,1.65-6.768,3.075-10.287,4.265l-2.793,17.474C312.79,392.742,308.605,396.311,303.691,396.311z M283.943,376.311h11.22
	l2.442-15.281c0.633-3.955,3.563-7.151,7.449-8.123c6.053-1.514,11.84-3.913,17.201-7.131c3.435-2.061,7.767-1.875,11.013,0.476
	l12.537,9.082l7.934-7.934l-9.081-12.537c-2.35-3.244-2.537-7.577-0.477-11.011c3.219-5.364,5.618-11.152,7.132-17.204
	c0.977-3.905,4.2-6.844,8.179-7.457l16.115-2.483v-11.122l-16.115-2.483c-3.979-0.613-7.202-3.552-8.179-7.457
	c-1.514-6.051-3.913-11.839-7.132-17.204c-2.06-3.434-1.873-7.767,0.477-11.011l9.081-12.538l-7.934-7.933l-12.537,9.082
	c-3.245,2.35-7.578,2.538-11.012,0.475c-5.362-3.218-11.149-5.617-17.202-7.13c-3.886-0.972-6.816-4.168-7.449-8.123l-2.442-15.281
	h-11.22l-2.441,15.281c-0.633,3.955-3.564,7.152-7.449,8.123c-6.052,1.513-11.84,3.913-17.203,7.131
	c-3.435,2.062-7.768,1.874-11.012-0.476l-12.537-9.082l-7.934,7.933l9.082,12.538c2.35,3.244,2.537,7.578,0.476,11.012
	c-3.219,5.363-5.618,11.151-7.131,17.202c-0.965,3.861-4.128,6.782-8.054,7.438l-15.692,2.622v11.18l15.51,2.297
	c4.004,0.593,7.255,3.54,8.236,7.467c1.513,6.051,3.912,11.838,7.131,17.202c2.061,3.435,1.874,7.768-0.476,11.012l-9.082,12.537
	l7.934,7.934l12.537-9.082c3.244-2.35,7.578-2.538,11.012-0.476c5.363,3.218,11.151,5.618,17.203,7.131
	c3.886,0.971,6.816,4.168,7.449,8.123L283.943,376.311z M385.607,305.286h0.01H385.607z"/>
<circle style="fill:#FDB845;" cx="289.83" cy="291.15" r="35"/>
<path d="M289.827,336.148c-24.813,0-45-20.187-45-45s20.187-45,45-45c24.814,0,45,20.187,45,45S314.641,336.148,289.827,336.148z
	 M289.827,266.148c-13.785,0-25,11.215-25,25s11.215,25,25,25s25-11.215,25-25S303.612,266.148,289.827,266.148z"/>
<path d="M111.78,88.59c-0.65,0-1.311-0.07-1.95-0.2c-0.641-0.13-1.271-0.32-1.87-0.57c-0.61-0.25-1.19-0.56-1.73-0.92
	c-0.55-0.36-1.06-0.78-1.52-1.24s-0.88-0.98-1.25-1.52c-0.36-0.55-0.67-1.13-0.92-1.73c-0.25-0.6-0.44-1.23-0.57-1.87
	c-0.13-0.65-0.189-1.3-0.189-1.95c0-0.66,0.06-1.31,0.189-1.96c0.13-0.64,0.32-1.27,0.57-1.87c0.25-0.6,0.56-1.18,0.92-1.73
	c0.37-0.54,0.79-1.06,1.25-1.52s0.97-0.88,1.52-1.24c0.54-0.36,1.12-0.67,1.73-0.92c0.6-0.25,1.229-0.44,1.87-0.57
	c1.279-0.26,2.609-0.26,3.899,0c0.641,0.13,1.271,0.32,1.87,0.57c0.61,0.25,1.19,0.56,1.73,0.92c0.55,0.36,1.06,0.78,1.52,1.24
	s0.88,0.98,1.25,1.52c0.351,0.55,0.66,1.13,0.91,1.73c0.25,0.6,0.45,1.23,0.57,1.87c0.13,0.65,0.2,1.3,0.2,1.96
	c0,0.65-0.07,1.3-0.2,1.95c-0.12,0.64-0.32,1.27-0.57,1.87c-0.25,0.6-0.56,1.18-0.91,1.73c-0.37,0.54-0.79,1.06-1.25,1.52
	s-0.97,0.88-1.52,1.24c-0.54,0.36-1.12,0.67-1.73,0.92c-0.6,0.25-1.229,0.44-1.87,0.57C113.09,88.52,112.43,88.59,111.78,88.59z"/>
<path d="M446.774,432.213c0.591-1.969,0.553-4.043-0.064-5.951V10c0-5.523-4.477-10-10-10H100.28
	C80.719,0,64.804,15.915,64.804,35.477v441.047c0,19.562,15.915,35.477,35.477,35.477l0,0c0.002,0,48.482,0,48.484,0
	c0.002,0-48.487,0-48.484,0h336.916c3.161,0,6.136-1.495,8.023-4.031c1.887-2.536,2.463-5.815,1.555-8.843
	C440.207,477.238,440.207,454.1,446.774,432.213z M426.711,419.338H158.758V20h267.953V419.338z M138.758,492H121.78V115.252
	c0-5.523-4.478-10-10-10s-10,4.477-10,10V492h-1.5c-8.534,0-15.477-6.943-15.477-15.477V35.477C84.804,26.943,91.746,20,100.28,20
	h38.477L138.758,492L138.758,492z M158.772,492v-14.977h176.365c5.522,0,10-4.477,10-10s-4.478-10-10-10H158.772v-17.685h265.651
	c-3.436,17.409-3.436,35.252,0.001,52.661L158.772,492L158.772,492z"/>
<g>
</g>
<g>
</g>
<g>
</g>
<g>
</g>
<g>
</g>
<g>
</g>
<g>
</g>
<g>
</g>
<g>
</g>
<g>
</g>
<g>
</g>
<g>
</g>
<g>
</g>
<g>
</g>
<g>
</g>
</svg>
