<?xml version="1.0" encoding="iso-8859-1"?>
<!-- Generator: Adobe Illustrator 19.0.0, SVG Export Plug-In . SVG Version: 6.00 Build 0)  -->
<svg version="1.1" id="Capa_1" xmlns="http://www.w3.org/2000/svg" xmlns:xlink="http://www.w3.org/1999/xlink" x="0px" y="0px"
	 viewBox="0 0 512 512" style="enable-background:new 0 0 512 512;" xml:space="preserve">
<rect x="380" y="262.75" style="fill:#8C9AA2;" width="122" height="237"/>
<polygon style="fill:#E7ECED;" points="488.126,262.75 475.32,132.131 406.68,132.131 393.874,262.75 "/>
<rect x="420" y="302.75" style="fill:#008079;" width="42" height="157"/>
<path d="M462,469.75h-42c-5.523,0-10-4.477-10-10v-157c0-5.523,4.477-10,10-10h42c5.523,0,10,4.477,10,10v157
	C472,465.273,467.523,469.75,462,469.75z M430,449.75h22v-137h-22V449.75z"/>
<polygon style="fill:#FDB845;" points="264,327.475 264,272.75 148,327.475 148,272.75 10,339.75 10,499.75 380,499.75 380,272.75 
	"/>
<rect x="384.75" y="72.13" style="fill:#C4C6C9;" width="112.49" height="59.997"/>
<rect x="54.725" y="401.25" style="fill:#E7ECED;" width="281.99" height="98.5"/>
<path style="fill:#3ABEB6;" d="M315.421,67.268c0-30.386-24.632-55.018-55.018-55.018s-55.018,24.632-55.018,55.018
	s24.633,55.018,55.018,55.018c6.562,0,12.855-1.15,18.691-3.257c5.376,14.861,19.611,25.481,36.327,25.481
	c21.33,0,38.621-17.291,38.621-38.621S336.751,67.268,315.421,67.268z"/>
<path d="M315.421,154.51c-17.231,0-33.013-9.187-41.688-23.593c-4.362,0.91-8.82,1.369-13.33,1.369
	c-35.851,0-65.018-29.167-65.018-65.018S224.552,2.25,260.403,2.25c32.766,0,59.948,24.361,64.384,55.923
	c22.344,4.377,39.254,24.108,39.254,47.716C364.042,132.699,342.231,154.51,315.421,154.51z M279.093,109.026
	c4.092,0,7.932,2.531,9.404,6.601c4.086,11.294,14.906,18.883,26.924,18.883c15.781,0,28.621-12.839,28.621-28.621
	s-12.839-28.621-28.621-28.621c-5.523,0-10-4.477-10-10c0-24.823-20.195-45.018-45.018-45.018s-45.018,20.195-45.018,45.018
	s20.195,45.018,45.018,45.018c5.256,0,10.401-0.896,15.294-2.663C276.819,109.218,277.966,109.026,279.093,109.026z M325.421,67.268
	h0.01H325.421z"/>
<path d="M290.52,443.95c-0.65,0-1.3-0.06-1.95-0.19c-0.64-0.13-1.27-0.32-1.87-0.57s-1.18-0.56-1.73-0.92
	c-0.54-0.37-1.06-0.79-1.52-1.25s-0.88-0.97-1.24-1.52c-0.36-0.54-0.67-1.12-0.92-1.72c-0.25-0.61-0.44-1.24-0.57-1.87
	c-0.13-0.65-0.2-1.31-0.2-1.96s0.07-1.31,0.2-1.95s0.32-1.27,0.57-1.87c0.25-0.61,0.56-1.19,0.92-1.73
	c0.36-0.55,0.78-1.06,1.24-1.52s0.98-0.88,1.52-1.24c0.55-0.36,1.13-0.67,1.73-0.92s1.23-0.44,1.87-0.57c1.29-0.26,2.62-0.26,3.91,0
	c0.64,0.13,1.27,0.32,1.87,0.57s1.18,0.56,1.73,0.92c0.539,0.36,1.05,0.78,1.51,1.24c0.47,0.46,0.88,0.97,1.25,1.52
	c0.36,0.54,0.67,1.12,0.92,1.73c0.25,0.6,0.44,1.23,0.57,1.87c0.13,0.64,0.19,1.3,0.19,1.95c0,0.65-0.06,1.31-0.19,1.96
	c-0.13,0.63-0.32,1.26-0.57,1.87c-0.25,0.6-0.56,1.18-0.92,1.72c-0.37,0.55-0.78,1.06-1.25,1.52c-0.46,0.46-0.97,0.88-1.51,1.25
	c-0.55,0.36-1.13,0.67-1.73,0.92s-1.23,0.44-1.87,0.57C291.83,443.89,291.18,443.95,290.52,443.95z"/>
<path d="M502,252.75h-4.806l-10.845-110.619h10.899c5.523,0,10-4.477,10-10V72.134c0-5.523-4.477-10-10-10H384.753
	c-5.523,0-10,4.477-10,10v59.997c0,5.523,4.477,10,10,10h10.899L384.806,252.75H380c-5.523,0-10,4.477-10,10v3.661L274,311.7v-38.95
	c0-3.425-1.753-6.612-4.646-8.446c-2.893-1.835-6.522-2.06-9.621-0.598L158,311.7v-38.95c0-3.445-1.773-6.647-4.693-8.476
	c-2.919-1.828-6.575-2.026-9.674-0.52l-138,67C2.188,332.427,0,335.92,0,339.75v160c0,5.523,4.477,10,10,10h492
	c5.523,0,10-4.477,10-10v-237C512,257.227,507.523,252.75,502,252.75z M394.753,82.134h92.494v39.997h-92.494V82.134z
	 M415.747,142.131h50.506l10.845,110.619h-72.196L415.747,142.131z M20,346.011l118-57.29v38.753c0,3.425,1.753,6.612,4.646,8.446
	c2.894,1.835,6.523,2.061,9.621,0.598L254,288.524v38.95c0,3.425,1.753,6.612,4.646,8.446c2.893,1.835,6.523,2.061,9.621,0.598
	L370,288.524V489.75h-23.289v-88.496c0-5.523-4.477-10-10-10H54.725c-5.523,0-10,4.477-10,10v88.496H20V346.011z M64.725,489.75
	v-45.799h189.133c5.523,0,10-4.477,10-10s-4.477-10-10-10H64.725v-12.697h261.986v78.496H64.725z M492,489.75H390v-217h102V489.75z"
	/>
<path d="M55.73,379.45c-0.66,0-1.31-0.06-1.96-0.19c-0.64-0.13-1.27-0.32-1.87-0.57s-1.18-0.56-1.73-0.92
	c-0.54-0.37-1.06-0.78-1.52-1.24c-0.46-0.47-0.88-0.98-1.24-1.52c-0.36-0.55-0.67-1.13-0.92-1.73s-0.44-1.23-0.57-1.87
	c-0.13-0.65-0.19-1.3-0.19-1.95c0-0.66,0.06-1.31,0.19-1.96c0.13-0.64,0.32-1.27,0.57-1.87s0.56-1.18,0.92-1.73
	c0.36-0.54,0.78-1.06,1.24-1.52c0.46-0.46,0.98-0.88,1.52-1.24c0.55-0.36,1.13-0.67,1.73-0.92s1.23-0.44,1.87-0.57
	c1.29-0.26,2.62-0.26,3.91,0c0.64,0.13,1.27,0.32,1.87,0.57s1.18,0.56,1.73,0.92c0.54,0.36,1.05,0.78,1.52,1.24
	c0.46,0.46,0.87,0.98,1.24,1.52c0.36,0.55,0.67,1.13,0.92,1.73s0.44,1.23,0.57,1.87c0.13,0.65,0.19,1.3,0.19,1.96
	c0,0.65-0.06,1.3-0.19,1.95c-0.13,0.64-0.32,1.27-0.57,1.87s-0.56,1.18-0.92,1.73c-0.36,0.54-0.78,1.05-1.24,1.52
	c-0.47,0.46-0.98,0.88-1.52,1.24c-0.55,0.36-1.13,0.67-1.73,0.92s-1.23,0.44-1.87,0.57C57.03,379.39,56.38,379.45,55.73,379.45z"/>
<path d="M336.711,379.455H92.392c-5.523,0-10-4.477-10-10s4.477-10,10-10h244.319c5.523,0,10,4.477,10,10
	S342.234,379.455,336.711,379.455z"/>
<g>
</g>
<g>
</g>
<g>
</g>
<g>
</g>
<g>
</g>
<g>
</g>
<g>
</g>
<g>
</g>
<g>
</g>
<g>
</g>
<g>
</g>
<g>
</g>
<g>
</g>
<g>
</g>
<g>
</g>
</svg>
