<?xml version="1.0" encoding="iso-8859-1"?>
<!-- Generator: Adobe Illustrator 19.0.0, SVG Export Plug-In . SVG Version: 6.00 Build 0)  -->
<svg version="1.1" id="Capa_1" xmlns="http://www.w3.org/2000/svg" xmlns:xlink="http://www.w3.org/1999/xlink" x="0px" y="0px"
	 viewBox="0 0 512 512" style="enable-background:new 0 0 512 512;" xml:space="preserve">
<rect x="10" y="266.9" style="fill:#E7ECED;" width="227.02" height="218.53"/>
<rect x="147.96" y="396.72" style="fill:#3ABEB6;" width="50.807" height="48.598"/>
<path d="M198.771,455.314h-50.807c-5.523,0-10-4.477-10-10v-48.598c0-5.523,4.477-10,10-10h50.807c5.523,0,10,4.477,10,10v48.598
	C208.771,450.837,204.294,455.314,198.771,455.314z M157.964,435.314h30.807v-28.598h-30.807L157.964,435.314L157.964,435.314z"/>
<rect x="48.25" y="396.72" style="fill:#3ABEB6;" width="50.807" height="48.598"/>
<path d="M99.053,455.314H48.247c-5.523,0-10-4.477-10-10v-48.598c0-5.523,4.477-10,10-10h50.807c5.523,0,10,4.477,10,10v48.598
	C109.053,450.837,104.576,455.314,99.053,455.314z M58.247,435.314h30.807v-28.598H58.247V435.314z"/>
<rect x="147.96" y="307.01" style="fill:#3ABEB6;" width="50.807" height="48.598"/>
<path d="M198.771,365.603h-50.807c-5.523,0-10-4.477-10-10v-48.598c0-5.523,4.477-10,10-10h50.807c5.523,0,10,4.477,10,10v48.598
	C208.771,361.126,204.294,365.603,198.771,365.603z M157.964,345.603h30.807v-28.598h-30.807L157.964,345.603L157.964,345.603z"/>
<rect x="48.25" y="307.01" style="fill:#3ABEB6;" width="50.807" height="48.598"/>
<path d="M99.053,365.603H48.247c-5.523,0-10-4.477-10-10v-48.598c0-5.523,4.477-10,10-10h50.807c5.523,0,10,4.477,10,10v48.598
	C109.053,361.126,104.576,365.603,99.053,365.603z M58.247,345.603h30.807v-28.598H58.247V345.603z"/>
<polygon style="fill:#009D93;" points="33.509,266.896 213.509,266.896 183.509,219.091 63.509,219.091 "/>
<g>
	<rect x="382.49" y="26.576" style="fill:#8C9AA2;" width="105.41" height="45.09"/>
	<rect x="369.51" y="306.13" style="fill:#8C9AA2;" width="132.49" height="179.29"/>
</g>
<polygon style="fill:#E7ECED;" points="485.001,306.13 470.657,71.668 400.852,71.668 386.507,306.13 "/>
<rect x="409.51" y="346.13" style="fill:#FDB845;" width="52.49" height="99.29"/>
<path d="M462,455.424h-52.491c-5.523,0-10-4.477-10-10v-99.293c0-5.523,4.477-10,10-10H462c5.523,0,10,4.477,10,10v99.293
	C472,450.947,467.523,455.424,462,455.424z M419.509,435.424H452v-79.293h-32.491V435.424z"/>
<g>
	<rect x="250" y="26.576" style="fill:#8C9AA2;" width="105.41" height="45.09"/>
	<rect x="237.02" y="306.13" style="fill:#8C9AA2;" width="132.49" height="179.29"/>
</g>
<polygon style="fill:#E7ECED;" points="352.51,306.13 338.166,71.668 268.36,71.668 254.016,306.13 "/>
<rect x="277.02" y="346.13" style="fill:#FDB845;" width="52.49" height="99.29"/>
<path d="M329.509,455.424h-52.492c-5.523,0-10-4.477-10-10v-99.293c0-5.523,4.477-10,10-10h52.492c5.523,0,10,4.477,10,10v99.293
	C339.509,450.947,335.032,455.424,329.509,455.424z M287.017,435.424h32.492v-79.293h-32.492V435.424z"/>
<path d="M435.2,129.5c-0.65,0-1.31-0.07-1.96-0.2c-0.63-0.13-1.26-0.32-1.87-0.57c-0.6-0.25-1.18-0.56-1.72-0.92
	c-0.55-0.36-1.06-0.78-1.52-1.24s-0.88-0.98-1.25-1.52c-0.36-0.55-0.67-1.13-0.92-1.73s-0.44-1.23-0.57-1.87s-0.19-1.3-0.19-1.95
	s0.06-1.31,0.19-1.96c0.13-0.64,0.32-1.26,0.57-1.87c0.25-0.6,0.56-1.18,0.92-1.72c0.37-0.55,0.79-1.06,1.25-1.52
	c0.46-0.47,0.97-0.88,1.52-1.25c0.54-0.36,1.12-0.67,1.72-0.92c0.61-0.25,1.24-0.44,1.87-0.57c1.29-0.26,2.62-0.26,3.91,0
	c0.64,0.13,1.27,0.32,1.87,0.57c0.61,0.25,1.19,0.56,1.73,0.92c0.55,0.37,1.06,0.78,1.52,1.25c0.46,0.46,0.88,0.97,1.24,1.52
	c0.36,0.54,0.67,1.12,0.92,1.72c0.25,0.61,0.44,1.23,0.57,1.87c0.13,0.65,0.2,1.31,0.2,1.96c0,2.63-1.07,5.21-2.93,7.07
	c-0.46,0.46-0.97,0.88-1.52,1.24c-0.54,0.36-1.12,0.67-1.73,0.92c-0.6,0.25-1.23,0.44-1.87,0.57
	C436.51,129.43,435.85,129.5,435.2,129.5z"/>
<path d="M303.26,129.5c-0.65,0-1.31-0.07-1.95-0.2c-0.64-0.13-1.27-0.32-1.87-0.57c-0.61-0.25-1.19-0.56-1.73-0.92
	c-0.55-0.36-1.06-0.78-1.52-1.24s-0.88-0.97-1.24-1.52c-0.36-0.54-0.67-1.13-0.92-1.73s-0.44-1.23-0.57-1.87s-0.2-1.3-0.2-1.95
	c0-0.66,0.07-1.31,0.2-1.96c0.13-0.64,0.32-1.27,0.57-1.87s0.56-1.18,0.92-1.72c0.36-0.55,0.78-1.06,1.24-1.52
	c0.46-0.47,0.97-0.88,1.52-1.25c0.54-0.36,1.12-0.67,1.73-0.92c0.6-0.25,1.23-0.44,1.87-0.57c3.25-0.65,6.7,0.41,9.02,2.74
	c0.46,0.46,0.88,0.97,1.25,1.52c0.36,0.54,0.67,1.12,0.92,1.72s0.44,1.23,0.57,1.87c0.13,0.65,0.19,1.3,0.19,1.96
	c0,0.65-0.06,1.31-0.19,1.95s-0.32,1.27-0.57,1.87s-0.56,1.19-0.92,1.73c-0.37,0.55-0.79,1.06-1.25,1.52
	C308.47,128.43,305.9,129.5,303.26,129.5z"/>
<path d="M502,296.13h-7.592l-13.12-214.462h6.616c5.523,0,10-4.477,10-10V26.576c0-5.523-4.477-10-10-10H382.492
	c-5.523,0-10,4.477-10,10v45.092c0,5.523,4.477,10,10,10h7.729L377.1,296.13h-15.184l-13.12-214.462h6.617c5.523,0,10-4.477,10-10
	V26.576c0-5.523-4.477-10-10-10H250c-5.523,0-10,4.477-10,10v45.092c0,5.523,4.477,10,10,10h7.729l-11.152,182.288
	c-1.256-4.088-5.061-7.06-9.56-7.06h-17.978l-27.06-43.12c-1.829-2.915-5.029-4.685-8.47-4.685h-120c-3.441,0-6.641,1.77-8.47,4.685
	l-27.06,43.12H10c-5.523,0-10,4.477-10,10v218.529c0,5.523,4.477,10,10,10h492c5.523,0,10-4.477,10-10V306.13
	C512,300.607,507.523,296.13,502,296.13z M392.492,36.576h85.412v25.092h-85.412V36.576z M410.258,81.668h50.992l13.121,214.463
	h-29.173V156.163c0-5.523-4.477-10-10-10s-10,4.477-10,10V296.13h-28.06L410.258,81.668z M260,36.576h85.412v25.092H260V36.576z
	 M328.759,81.668L341.88,296.13h-28.617V156.163c0-5.523-4.477-10-10-10s-10,4.477-10,10V296.13h-28.616l13.121-214.463
	L328.759,81.668L328.759,81.668z M69.039,229.091h108.939l17.449,27.805H51.59L69.039,229.091z M20,276.896h207.017v198.529H20
	V276.896z M247.017,316.13h112.492v159.294H247.017V316.13z M492,475.424H379.509V316.13H492V475.424z"/>
<g>
</g>
<g>
</g>
<g>
</g>
<g>
</g>
<g>
</g>
<g>
</g>
<g>
</g>
<g>
</g>
<g>
</g>
<g>
</g>
<g>
</g>
<g>
</g>
<g>
</g>
<g>
</g>
<g>
</g>
</svg>
