<?xml version="1.0" encoding="iso-8859-1"?>
<!-- Generator: Adobe Illustrator 19.0.0, SVG Export Plug-In . SVG Version: 6.00 Build 0)  -->
<svg version="1.1" id="Capa_1" xmlns="http://www.w3.org/2000/svg" xmlns:xlink="http://www.w3.org/1999/xlink" x="0px" y="0px"
	 viewBox="0 0 512 512" style="enable-background:new 0 0 512 512;" xml:space="preserve">
<path style="fill:#3ABEB6;" d="M90.726,74.83c-14.661-14.661-38.432-14.661-53.093,0s-14.661,38.432,0,53.093
	c6.917,6.917,15.861,10.567,24.92,10.957c1.467,4.469,3.969,8.672,7.522,12.225c12.104,12.104,31.729,12.104,43.832,0
	c12.104-12.104,12.104-31.728,0-43.832c-3.553-3.553-7.756-6.055-12.225-7.522C101.292,90.692,97.643,81.747,90.726,74.83z"/>
<path d="M91.991,170.164c-10.497,0-20.995-3.996-28.987-11.987c-2.992-2.992-5.457-6.35-7.37-10.03
	c-9.456-1.719-18.188-6.268-25.072-13.151c-18.536-18.537-18.537-48.698,0-67.235c18.537-18.536,48.698-18.536,67.235,0
	c6.884,6.884,11.432,15.616,13.151,25.072c3.681,1.913,7.038,4.378,10.031,7.37c15.984,15.984,15.984,41.992,0.001,57.976
	C112.987,166.168,102.489,170.164,91.991,170.164z M64.179,73.848c-7.053,0-14.105,2.685-19.475,8.054
	c-10.738,10.739-10.738,28.212,0,38.951c4.886,4.886,11.377,7.74,18.279,8.038c4.159,0.179,7.772,2.916,9.071,6.871
	c1.032,3.143,2.745,5.926,5.092,8.273c8.187,8.187,21.505,8.186,29.69,0c8.186-8.186,8.186-21.504,0-29.69
	c-2.347-2.347-5.13-4.06-8.272-5.091c-3.956-1.298-6.693-4.912-6.872-9.071c-0.297-6.902-3.152-13.394-8.038-18.279
	C78.285,76.532,71.232,73.848,64.179,73.848z"/>
<rect x="10" y="311.42" style="fill:#8C9AA2;" width="188.61" height="173.44"/>
<rect x="69.11" y="379.33" style="fill:#FFD480;" width="70.39" height="105.53"/>
<rect x="198.61" y="322.65" style="fill:#E7ECED;" width="303.39" height="162.2"/>
<g>
	<rect x="253.17" y="412.73" style="fill:#FDB845;" width="74.87" height="72.05"/>
	<rect x="372.57" y="412.73" style="fill:#FDB845;" width="74.87" height="72.05"/>
	<polygon style="fill:#FDB845;" points="405.334,268.083 405.334,64.329 372.214,27.144 327.837,27.144 294.717,64.329 
		294.717,268.083 	"/>
</g>
<rect x="329.12" y="98.07" style="fill:#E7ECED;" width="41.817" height="170.02"/>
<polygon style="fill:#008079;" points="480.391,322.654 220.22,322.654 230.22,268.083 470.391,268.083 "/>
<rect x="55.688" y="197.71" style="fill:#8C9AA2;" width="97.23" height="42.757"/>
<polygon style="fill:#E7ECED;" points="134.341,240.47 74.271,240.47 53.937,311.418 154.674,311.418 "/>
<path d="M456.27,366.3c-0.649,0-1.3-0.07-1.95-0.2c-0.64-0.12-1.27-0.32-1.869-0.57c-0.601-0.25-1.181-0.56-1.721-0.92
	c-0.55-0.36-1.06-0.78-1.52-1.24c-0.47-0.46-0.891-0.97-1.25-1.52c-0.36-0.54-0.67-1.12-0.92-1.73c-0.25-0.6-0.44-1.23-0.57-1.87
	c-0.13-0.64-0.2-1.3-0.2-1.95s0.07-1.31,0.2-1.95s0.32-1.27,0.57-1.87c0.25-0.61,0.56-1.19,0.92-1.73
	c0.359-0.55,0.78-1.06,1.25-1.52c0.46-0.46,0.97-0.88,1.52-1.25c0.54-0.36,1.12-0.67,1.721-0.92c0.6-0.25,1.229-0.44,1.869-0.57
	c1.29-0.26,2.62-0.26,3.91,0c0.641,0.13,1.271,0.32,1.87,0.57c0.601,0.25,1.181,0.56,1.73,0.92c0.54,0.37,1.059,0.79,1.52,1.25
	c0.46,0.46,0.88,0.97,1.24,1.52c0.36,0.54,0.67,1.12,0.92,1.73c0.25,0.6,0.44,1.23,0.57,1.87c0.13,0.64,0.2,1.3,0.2,1.95
	s-0.07,1.31-0.2,1.95s-0.32,1.27-0.57,1.87c-0.25,0.61-0.56,1.19-0.92,1.73c-0.36,0.55-0.78,1.06-1.24,1.52
	c-0.46,0.461-0.98,0.88-1.52,1.24c-0.55,0.36-1.13,0.67-1.73,0.92s-1.23,0.45-1.87,0.57C457.58,366.23,456.93,366.3,456.27,366.3z"
	/>
<path d="M502,312.654h-13.275l-8.498-46.374c-0.87-4.749-5.008-8.198-9.836-8.198h-55.058V64.329c0-2.453-0.901-4.82-2.532-6.651
	l-33.12-37.186c-1.897-2.131-4.615-3.349-7.468-3.349h-44.377c-2.853,0-5.57,1.218-7.468,3.349l-33.12,37.186
	c-1.631,1.831-2.532,4.198-2.532,6.651v193.754H230.22c-4.828,0-8.966,3.449-9.836,8.198l-8.498,46.374h-3.275v-1.237
	c0-5.523-4.477-10-10-10H162.21l-14.602-50.948h5.314c5.523,0,10-4.477,10-10v-42.758c0-5.523-4.477-10-10-10H55.688
	c-5.523,0-10,4.477-10,10v42.758c0,5.523,4.477,10,10,10h5.314L46.4,301.418H10c-5.523,0-10,4.477-10,10v173.439
	c0,5.523,4.477,10,10,10h492c5.522,0,10-4.477,10-10V322.654C512,317.131,507.522,312.654,502,312.654z M65.688,207.712h77.234
	v22.758H65.688V207.712z M141.406,301.418h-74.2l14.602-50.948h44.997L141.406,301.418z M79.11,474.856V389.33h50.391v85.527H79.11
	V474.856z M188.611,474.856h-39.11V379.33c0-5.523-4.477-10-10-10H69.11c-5.523,0-10,4.477-10,10v95.527H20V321.418h168.611V474.856
	z M304.717,68.137l27.604-30.993h35.408l27.605,30.993v189.946h-14.399V98.066c0-5.523-4.478-10-10-10h-41.817
	c-5.522,0-10,4.477-10,10v160.017h-14.4V68.137H304.717z M360.935,108.066v150.017h-21.817V108.066H360.935z M238.554,278.083
	h223.503l6.335,34.571H232.219L238.554,278.083z M243.174,474.856h-34.563V422.73h34.563V474.856z M318.044,474.78h-54.87v-52.05
	h54.87V474.78z M362.567,474.856h-24.523V422.73h24.523V474.856z M437.438,474.78h-54.87v-52.05h54.87V474.78z M492,474.856h-34.563
	V422.73H492V474.856z M492,402.73H208.611v-36.431h210.997c5.522,0,10-4.477,10-10s-4.478-10-10-10H208.611v-13.645H492V402.73z"/>
<g>
</g>
<g>
</g>
<g>
</g>
<g>
</g>
<g>
</g>
<g>
</g>
<g>
</g>
<g>
</g>
<g>
</g>
<g>
</g>
<g>
</g>
<g>
</g>
<g>
</g>
<g>
</g>
<g>
</g>
</svg>
