<?xml version="1.0" encoding="iso-8859-1"?>
<!-- Generator: Adobe Illustrator 19.0.0, SVG Export Plug-In . SVG Version: 6.00 Build 0)  -->
<svg version="1.1" id="Capa_1" xmlns="http://www.w3.org/2000/svg" xmlns:xlink="http://www.w3.org/1999/xlink" x="0px" y="0px"
	 viewBox="0 0 512.001 512.001" style="enable-background:new 0 0 512.001 512.001;" xml:space="preserve">
<path style="fill:#3ABEB6;" d="M300.384,53.724C300.384,29.576,280.808,10,256.66,10s-43.724,19.576-43.724,43.724
	s19.576,43.724,43.724,43.724c5.215,0,10.217-0.914,14.854-2.589c4.273,11.81,15.586,20.25,28.87,20.25
	c16.951,0,30.693-13.742,30.693-30.693C331.077,67.466,317.335,53.724,300.384,53.724z"/>
<path d="M300.384,125.11c-13.926,0-26.72-7.169-34.121-18.519c-3.152,0.57-6.361,0.857-9.604,0.857
	c-29.623,0-53.724-24.101-53.724-53.724S227.037,0,256.66,0c26.579,0,48.712,19.402,52.981,44.786
	c17.993,4.201,31.436,20.375,31.436,39.631C341.077,106.855,322.822,125.11,300.384,125.11z M271.513,84.856
	c4.093,0,7.933,2.531,9.404,6.601c2.954,8.166,10.777,13.652,19.467,13.652c11.41,0,20.692-9.283,20.692-20.693
	s-9.282-20.693-20.692-20.693c-5.522,0-10-4.477-10-10c0-18.596-15.129-33.724-33.725-33.724s-33.724,15.128-33.724,33.724
	s15.128,33.724,33.724,33.724c3.939,0,7.794-0.671,11.457-1.994C269.239,85.049,270.385,84.856,271.513,84.856z M310.384,53.724
	h0.01H310.384z"/>
<rect x="49.726" y="344.27" style="fill:#C4C6C9;" width="412.55" height="157.73"/>
<rect x="105.671" y="417.36" style="fill:#3ABEB6;" width="68.758" height="51.57"/>
<path d="M174.428,478.928H105.67c-5.522,0-10-4.477-10-10v-51.569c0-5.523,4.478-10,10-10h68.758c5.523,0,10,4.477,10,10v51.569
	C184.428,474.451,179.951,478.928,174.428,478.928z M115.67,458.928h48.758v-31.569H115.67
	C115.67,427.359,115.67,458.928,115.67,458.928z"/>
<rect x="221.621" y="417.36" style="fill:#3ABEB6;" width="68.758" height="51.57"/>
<path d="M290.379,478.928h-68.758c-5.523,0-10-4.477-10-10v-51.569c0-5.523,4.477-10,10-10h68.758c5.523,0,10,4.477,10,10v51.569
	C300.379,474.451,295.902,478.928,290.379,478.928z M231.622,458.928h48.758v-31.569h-48.758V458.928z"/>
<rect x="337.571" y="417.36" style="fill:#3ABEB6;" width="68.758" height="51.57"/>
<path d="M406.332,478.928h-68.759c-5.523,0-10-4.477-10-10v-51.569c0-5.523,4.477-10,10-10h68.759c5.522,0,10,4.477,10,10v51.569
	C416.332,474.451,411.854,478.928,406.332,478.928z M347.573,458.928h48.759v-31.569h-48.759V458.928z"/>
<polygon style="fill:#FDB845;" points="235.299,242.708 235.299,198.734 163.292,242.708 163.292,198.734 77.629,250.328 
	77.629,344.273 307.305,344.273 307.305,198.734 "/>
<rect x="307.301" y="146.03" style="fill:#E7ECED;" width="63.53" height="198.25"/>
<rect x="370.841" y="59.853" style="fill:#8C9AA2;" width="63.53" height="284.42"/>
<rect x="117.951" y="291.59" style="fill:#E7ECED;" width="154.06" height="52.687"/>
<path d="M405.461,390.469c-0.66,0-1.311-0.07-1.96-0.2c-0.641-0.12-1.271-0.32-1.87-0.57s-1.18-0.56-1.73-0.92
	c-0.54-0.36-1.05-0.78-1.52-1.24c-1.86-1.86-2.93-4.44-2.93-7.07s1.069-5.21,2.93-7.07c0.47-0.46,0.979-0.88,1.52-1.24
	c0.551-0.36,1.131-0.67,1.73-0.92s1.229-0.45,1.87-0.58c3.25-0.65,6.7,0.42,9.03,2.74c1.859,1.86,2.93,4.44,2.93,7.07
	s-1.07,5.21-2.93,7.07C410.661,389.399,408.09,390.469,405.461,390.469z"/>
<rect x="355.091" y="10" style="fill:#E7ECED;" width="95.04" height="49.853"/>
<path d="M462.275,334.273h-17.903V69.854h5.752c5.522,0,10-4.477,10-10V10c0-5.523-4.478-10-10-10h-95.036c-5.522,0-10,4.477-10,10
	v49.854c0,5.523,4.478,10,10,10h5.751v66.173h-53.533c-5.522,0-10,4.477-10,10v47.097l-52.006,31.76v-26.149
	c0-3.617-1.953-6.952-5.107-8.721c-3.153-1.769-7.018-1.699-10.105,0.187l-56.795,34.684v-26.149c0-3.606-1.941-6.932-5.08-8.706
	c-3.139-1.774-6.991-1.721-10.079,0.14l-85.663,51.594c-3.004,1.81-4.841,5.06-4.841,8.566v83.945H49.726c-5.523,0-10,4.477-10,10
	v157.726c0,5.523,4.477,10,10,10h412.549c5.522,0,10-4.477,10-10V344.273C472.275,338.75,467.797,334.273,462.275,334.273z
	 M365.087,20h75.036v29.854h-75.036V20z M424.372,69.854v264.419h-43.533V69.854H424.372z M317.305,156.027h43.533v178.246h-43.533
	V156.027z M87.629,255.979l65.663-39.548v26.277c0,3.617,1.953,6.952,5.107,8.721c3.153,1.769,7.017,1.699,10.105-0.186
	l56.795-34.684v26.149c0,3.617,1.953,6.952,5.108,8.721c3.152,1.769,7.017,1.699,10.104-0.187l56.794-34.684v117.715h-15.299
	v-42.686c0-5.523-4.478-10-10-10H117.949c-5.522,0-10,4.477-10,10v42.686h-20.32V255.979z M262.006,334.273H127.949v-32.686h134.058
	L262.006,334.273L262.006,334.273z M452.275,491.999H59.726V390.47h309.05c5.522,0,10-4.477,10-10s-4.478-10-10-10H59.726v-16.197
	h392.549L452.275,491.999L452.275,491.999z"/>
<g>
</g>
<g>
</g>
<g>
</g>
<g>
</g>
<g>
</g>
<g>
</g>
<g>
</g>
<g>
</g>
<g>
</g>
<g>
</g>
<g>
</g>
<g>
</g>
<g>
</g>
<g>
</g>
<g>
</g>
</svg>
