<?xml version="1.0" encoding="iso-8859-1"?>
<!-- Generator: Adobe Illustrator 19.0.0, SVG Export Plug-In . SVG Version: 6.00 Build 0)  -->
<svg version="1.1" id="Capa_1" xmlns="http://www.w3.org/2000/svg" xmlns:xlink="http://www.w3.org/1999/xlink" x="0px" y="0px"
	 viewBox="0 0 512 512" style="enable-background:new 0 0 512 512;" xml:space="preserve">
<rect x="46.11" y="10" style="fill:#008079;" width="105.41" height="45.09"/>
<rect x="33.13" y="291.57" style="fill:#8C9AA2;" width="134.74" height="210.43"/>
<g>
	<polygon style="fill:#E7ECED;" points="64.208,55.092 51.106,291.574 147.645,291.574 134.544,55.092 	"/>
	<rect x="73.13" y="322.65" style="fill:#E7ECED;" width="52.49" height="179.35"/>
</g>
<path d="M99.38,111.4c-2.64,0-5.21-1.07-7.07-2.93c-0.47-0.46-0.88-0.98-1.25-1.52c-0.359-0.55-0.67-1.13-0.92-1.73
	c-0.25-0.6-0.439-1.23-0.57-1.87c-0.13-0.65-0.189-1.3-0.189-1.96c0-0.65,0.06-1.3,0.189-1.95c0.131-0.64,0.32-1.27,0.57-1.87
	s0.561-1.18,0.92-1.73c0.37-0.54,0.78-1.06,1.25-1.52c1.86-1.86,4.431-2.93,7.07-2.93c2.63,0,5.21,1.07,7.07,2.93
	c0.46,0.46,0.88,0.98,1.239,1.52c0.36,0.55,0.67,1.13,0.92,1.73s0.44,1.23,0.57,1.87c0.13,0.65,0.19,1.3,0.19,1.95
	c0,0.66-0.061,1.31-0.19,1.96c-0.13,0.64-0.32,1.27-0.57,1.87c-0.25,0.6-0.56,1.18-0.92,1.73c-0.359,0.54-0.779,1.06-1.239,1.52
	C104.59,110.33,102.01,111.4,99.38,111.4z"/>
<polygon style="fill:#FDB845;" points="478.87,502 478.87,52.329 442.022,10.958 392.651,10.958 355.803,52.329 355.803,502 "/>
<g>
	<rect x="394.07" y="89.86" style="fill:#E7ECED;" width="46.524" height="412.14"/>
	<rect x="167.87" y="291.57" style="fill:#E7ECED;" width="187.93" height="210.43"/>
</g>
<g>
	<rect x="226.98" y="449.24" style="fill:#008079;" width="70.39" height="52.763"/>
	<rect x="226.98" y="327.24" style="fill:#008079;" width="70.39" height="52.763"/>
</g>
<path d="M297.374,390h-70.391c-5.522,0-10-4.477-10-10v-52.763c0-5.523,4.478-10,10-10h70.391c5.523,0,10,4.477,10,10V380
	C307.374,385.523,302.897,390,297.374,390z M236.983,370h50.391v-32.763h-50.391V370z"/>
<rect x="213.56" y="99.35" style="fill:#8C9AA2;" width="97.23" height="42.757"/>
<polygon style="fill:#C4C6C9;" points="290.353,142.111 234.005,142.111 211.81,291.574 312.547,291.574 "/>
<path d="M320.42,423.3c-0.65,0-1.31-0.07-1.95-0.2s-1.27-0.32-1.88-0.57c-0.6-0.25-1.18-0.56-1.72-0.92
	c-0.551-0.36-1.06-0.78-1.52-1.24s-0.88-0.97-1.24-1.52c-0.369-0.54-0.67-1.12-0.92-1.73c-0.25-0.6-0.449-1.23-0.58-1.87
	c-0.13-0.64-0.19-1.3-0.19-1.95s0.06-1.31,0.19-1.96c0.131-0.63,0.33-1.26,0.58-1.87c0.25-0.6,0.551-1.18,0.92-1.72
	c0.36-0.55,0.78-1.06,1.24-1.52s0.97-0.88,1.52-1.25c0.54-0.36,1.12-0.67,1.72-0.91c0.61-0.25,1.24-0.45,1.88-0.57
	c1.28-0.26,2.61-0.26,3.9,0c0.64,0.12,1.27,0.32,1.87,0.57c0.609,0.24,1.189,0.55,1.729,0.91c0.55,0.37,1.061,0.79,1.521,1.25
	s0.88,0.97,1.239,1.52c0.36,0.54,0.67,1.12,0.92,1.72c0.25,0.61,0.45,1.24,0.57,1.87c0.13,0.65,0.2,1.31,0.2,1.96
	s-0.07,1.31-0.2,1.95c-0.12,0.64-0.32,1.27-0.57,1.87c-0.25,0.61-0.56,1.19-0.92,1.73c-0.359,0.55-0.779,1.06-1.239,1.52
	c-0.46,0.461-0.971,0.88-1.521,1.24c-0.54,0.36-1.12,0.67-1.729,0.92c-0.601,0.25-1.23,0.44-1.87,0.57
	C321.729,423.23,321.069,423.3,320.42,423.3z"/>
<path d="M486.338,45.678L449.49,4.308c-1.897-2.131-4.615-3.349-7.468-3.349h-49.371c-2.853,0-5.57,1.218-7.468,3.349
	l-36.849,41.371c-1.631,1.832-2.532,4.199-2.532,6.651v229.245h-24.63l-19.225-129.462h8.849c5.522,0,10-4.477,10-10V99.354
	c0-5.523-4.478-10-10-10h-97.234c-5.522,0-10,4.477-10,10v42.757c0,5.523,4.478,10,10,10h8.849l-19.224,129.462h-46.08
	L145.113,65.092h6.412c5.522,0,10-4.477,10-10V10c0-5.523-4.478-10-10-10H46.113c-5.522,0-10,4.477-10,10v45.092
	c0,5.523,4.478,10,10,10h7.526L41.646,281.574H33.13c-5.523,0-10,4.477-10,10V502c0,5.523,4.478,10,10,10h445.74
	c5.523,0,10-4.477,10-10V52.329C488.87,49.876,487.969,47.509,486.338,45.678z M223.561,109.354h77.234v22.757h-77.234V109.354z
	 M242.63,152.111h39.098l19.226,129.462h-77.548L242.63,152.111z M56.113,20h85.412v25.092H56.113V20z M99.376,128.061
	c-5.522,0-10,4.477-10,10v143.512h-27.7L73.669,65.092h51.414l11.992,216.482h-27.699V138.061
	C109.376,132.539,104.898,128.061,99.376,128.061z M115.621,492H83.13V332.654h32.491V492z M157.873,492h-22.252V322.654
	c0-5.523-4.477-10-10-10H73.13c-5.522,0-10,4.477-10,10V492h-20V301.574h114.743L157.873,492L157.873,492z M236.983,492v-32.763
	h50.391V492H236.983z M345.803,492h-38.429v-42.763c0-5.523-4.477-10-10-10h-70.391c-5.522,0-10,4.477-10,10V492h-39.11v-68.702
	h105.881c5.522,0,10-4.477,10-10s-4.478-10-10-10H177.873V301.574h167.93L345.803,492L345.803,492z M430.599,492h-26.524V99.863
	h26.524V492z M468.87,492h-18.271V89.863c0-5.523-4.478-10-10-10h-46.524c-5.522,0-10,4.477-10,10V492h-18.271V56.137l31.333-35.178
	h40.402l31.332,35.178V492H468.87z"/>
<g>
</g>
<g>
</g>
<g>
</g>
<g>
</g>
<g>
</g>
<g>
</g>
<g>
</g>
<g>
</g>
<g>
</g>
<g>
</g>
<g>
</g>
<g>
</g>
<g>
</g>
<g>
</g>
<g>
</g>
</svg>
