<?xml version="1.0" encoding="iso-8859-1"?>
<!-- Generator: Adobe Illustrator 19.0.0, SVG Export Plug-In . SVG Version: 6.00 Build 0)  -->
<svg version="1.1" id="Capa_1" xmlns="http://www.w3.org/2000/svg" xmlns:xlink="http://www.w3.org/1999/xlink" x="0px" y="0px"
	 viewBox="0 0 512 512" style="enable-background:new 0 0 512 512;" xml:space="preserve">
<rect x="43.776" y="442.91" style="fill:#8C9AA2;" width="416.9" height="59.09"/>
<polygon style="fill:#C4C6C9;" points="413.792,442.911 366.812,224 137.636,224 90.656,442.911 "/>
<rect x="132.65" y="133.93" style="fill:#E7ECED;" width="239.16" height="39.09"/>
<polygon style="fill:#8C9AA2;" points="148.164,173.017 137.636,224 366.812,224 356.284,173.017 "/>
<path style="fill:#FDB845;" d="M306.621,370.806c8.541-11.367,13.603-25.497,13.603-40.81c0-37.556-30.445-68-68-68v68
	L306.621,370.806z"/>
<path style="fill:#FFD480;" d="M252.224,329.996l-54.397,40.81c12.406,16.511,32.155,27.19,54.397,27.19s41.991-10.68,54.397-27.19
	L252.224,329.996z"/>
<path style="fill:#FDB845;" d="M252.224,261.996c-37.555,0-68,30.444-68,68c0,15.313,5.062,29.443,13.603,40.81l54.397-40.81
	V261.996z"/>
<g>
	<path style="fill:#3ABEB6;" d="M434.05,10H210.863c-12.207,0-22.103,9.896-22.103,22.103l0,0c0,12.207,9.896,22.103,22.103,22.103
		h-55.754c-12.207,0-22.103,9.896-22.103,22.103l0,0c0,12.207,9.896,22.103,22.103,22.103h193.186
		c12.207,0,22.103-9.896,22.103-22.103l0,0c0-12.207-9.896-22.103-22.103-22.103h85.754c12.207,0,22.103-9.896,22.103-22.103l0,0
		C456.153,19.896,446.257,10,434.05,10z"/>
	<path style="fill:#3ABEB6;" d="M446.121,85.309h-23.886c-12.207,0-22.103,9.896-22.103,22.103l0,0
		c0,12.207,9.896,22.103,22.103,22.103h23.886c12.207,0,22.103-9.896,22.103-22.103l0,0
		C468.224,95.205,458.328,85.309,446.121,85.309z"/>
</g>
<path d="M446.121,139.515h-23.886c-17.702,0-32.103-14.401-32.103-32.103s14.401-32.103,32.103-32.103h23.886
	c17.702,0,32.103,14.401,32.103,32.103S463.823,139.515,446.121,139.515z M422.235,95.309c-6.674,0-12.103,5.429-12.103,12.103
	c0,6.674,5.429,12.103,12.103,12.103h23.886c6.674,0,12.103-5.429,12.103-12.103c0-6.674-5.429-12.103-12.103-12.103H422.235z"/>
<path d="M304.02,64.21c-0.65,0-1.31-0.07-1.95-0.2c-0.64-0.13-1.27-0.32-1.87-0.57c-0.61-0.25-1.19-0.56-1.73-0.92
	c-0.55-0.36-1.06-0.78-1.52-1.24c-0.46-0.46-0.88-0.98-1.24-1.52c-0.36-0.55-0.67-1.13-0.92-1.73s-0.44-1.23-0.57-1.87
	s-0.2-1.3-0.2-1.95c0-0.66,0.07-1.31,0.2-1.96c0.13-0.64,0.32-1.27,0.57-1.87s0.56-1.18,0.92-1.72c0.36-0.55,0.78-1.06,1.24-1.53
	c0.46-0.46,0.97-0.87,1.52-1.24c0.54-0.36,1.12-0.67,1.73-0.92c0.6-0.25,1.23-0.44,1.87-0.57c1.29-0.26,2.62-0.26,3.91,0
	c0.63,0.13,1.26,0.32,1.87,0.57c0.6,0.25,1.18,0.56,1.72,0.92c0.55,0.37,1.06,0.78,1.52,1.24c0.46,0.47,0.88,0.98,1.25,1.53
	c0.36,0.54,0.67,1.12,0.92,1.72c0.24,0.6,0.44,1.23,0.57,1.87c0.13,0.65,0.19,1.3,0.19,1.96c0,0.65-0.06,1.31-0.19,1.95
	s-0.33,1.27-0.57,1.87c-0.25,0.6-0.56,1.19-0.92,1.73c-0.37,0.54-0.79,1.06-1.25,1.52s-0.97,0.88-1.52,1.24
	c-0.54,0.36-1.12,0.67-1.72,0.92c-0.61,0.25-1.24,0.44-1.87,0.57C305.33,64.14,304.67,64.21,304.02,64.21z"/>
<path d="M75.85,481.74c-0.65,0-1.31-0.07-1.95-0.2c-0.64-0.12-1.27-0.32-1.87-0.57s-1.18-0.55-1.73-0.91
	c-0.55-0.37-1.06-0.79-1.52-1.25s-0.88-0.97-1.24-1.52c-0.36-0.54-0.67-1.12-0.92-1.72c-0.25-0.61-0.44-1.24-0.57-1.88
	s-0.2-1.3-0.2-1.95c0-0.65,0.07-1.31,0.2-1.95s0.32-1.27,0.57-1.87c0.25-0.61,0.56-1.19,0.92-1.73c0.36-0.55,0.78-1.06,1.24-1.52
	s0.97-0.88,1.52-1.24c0.54-0.36,1.13-0.67,1.73-0.92s1.23-0.44,1.87-0.57c1.29-0.26,2.62-0.26,3.91,0c0.64,0.13,1.27,0.32,1.87,0.57
	c0.6,0.25,1.18,0.56,1.72,0.92c0.55,0.36,1.06,0.78,1.53,1.24c0.46,0.46,0.87,0.97,1.24,1.52c0.36,0.54,0.67,1.12,0.92,1.73
	c0.25,0.6,0.44,1.23,0.57,1.87c0.13,0.64,0.19,1.3,0.19,1.95c0,0.65-0.06,1.31-0.19,1.95c-0.13,0.64-0.32,1.27-0.57,1.88
	c-0.25,0.6-0.56,1.18-0.92,1.72c-0.37,0.55-0.78,1.06-1.24,1.52c-0.47,0.46-0.98,0.88-1.53,1.25c-0.54,0.36-1.12,0.66-1.72,0.91
	c-0.61,0.25-1.23,0.45-1.87,0.57C77.16,481.67,76.51,481.74,75.85,481.74z"/>
<path d="M460.672,432.911h-38.798L368.56,183.017h3.243c5.523,0,10-4.477,10-10v-39.089c0-5.523-4.477-10-10-10H132.645
	c-5.523,0-10,4.477-10,10v39.089c0,5.523,4.477,10,10,10h3.244L82.575,432.911H43.776c-5.523,0-10,4.477-10,10V502
	c0,5.523,4.477,10,10,10h416.896c5.523,0,10-4.477,10-10v-59.089C470.672,437.388,466.195,432.911,460.672,432.911z
	 M142.645,143.928h219.159v19.089h-5.475c-0.015,0-0.03-0.001-0.044-0.001h-208.12c-0.015,0-0.03,0.001-0.044,0.001h-5.476
	L142.645,143.928L142.645,143.928z M348.138,183.017L354.536,214H149.912l6.398-30.983H348.138z M145.718,234H358.73l42.688,198.911
	H103.03L145.718,234z M53.776,492v-39.089h396.896v8.83H112.521c-5.523,0-10,4.477-10,10s4.477,10,10,10h338.151V492H53.776z"/>
<path d="M252.224,251.996c-43.009,0-78,34.991-78,78c0,17.039,5.397,33.228,15.608,46.817
	c14.891,19.817,37.632,31.183,62.392,31.183s47.501-11.366,62.392-31.183c10.211-13.589,15.608-29.778,15.608-46.817
	C330.224,286.987,295.233,251.996,252.224,251.996z M242.224,272.859v52.138l-41.72,31.298c-4.13-8.085-6.28-17.021-6.28-26.299
	C194.224,301.425,214.993,277.612,242.224,272.859z M252.224,387.996c-15.021,0-29.043-5.627-39.714-15.705l39.714-29.794
	l39.714,29.794C281.268,382.369,267.244,387.996,252.224,387.996z M303.944,356.295l-41.72-31.298v-52.138
	c27.232,4.753,48,28.566,48,57.137C310.224,339.274,308.074,348.211,303.944,356.295z"/>
<path d="M155.109,108.412h193.187c17.702,0,32.103-14.401,32.103-32.103c0-4.28-0.842-8.366-2.368-12.103h56.02
	c17.702,0,32.103-14.401,32.103-32.103C466.153,14.401,451.751,0,434.05,0H210.863c-17.702,0-32.103,14.401-32.103,32.103
	c0,4.28,0.842,8.366,2.368,12.103h-26.02c-17.702,0-32.103,14.401-32.103,32.103C123.006,94.011,137.407,108.412,155.109,108.412z
	 M155.109,64.206h112.246c5.523,0,10-4.477,10-10s-4.477-10-10-10h-56.491c-6.674,0-12.103-5.429-12.103-12.103
	S204.19,20,210.864,20H434.05c6.674,0,12.103,5.429,12.103,12.103s-5.429,12.103-12.103,12.103h-85.754c-5.523,0-10,4.477-10,10
	s4.477,10,10,10c6.674,0,12.103,5.429,12.103,12.103c0,6.674-5.429,12.103-12.103,12.103H155.109
	c-6.674,0-12.103-5.429-12.103-12.103S148.435,64.206,155.109,64.206z"/>
<g>
</g>
<g>
</g>
<g>
</g>
<g>
</g>
<g>
</g>
<g>
</g>
<g>
</g>
<g>
</g>
<g>
</g>
<g>
</g>
<g>
</g>
<g>
</g>
<g>
</g>
<g>
</g>
<g>
</g>
</svg>
