<?xml version="1.0" encoding="iso-8859-1"?>
<!-- Generator: Adobe Illustrator 19.0.0, SVG Export Plug-In . SVG Version: 6.00 Build 0)  -->
<svg version="1.1" id="Capa_1" xmlns="http://www.w3.org/2000/svg" xmlns:xlink="http://www.w3.org/1999/xlink" x="0px" y="0px"
	 viewBox="0 0 512 512" style="enable-background:new 0 0 512 512;" xml:space="preserve">
<polygon style="fill:#C4C6C9;" points="10,502 231.97,502 231.97,308.874 112.288,308.874 10,397.996 "/>
<polygon style="fill:#E7ECED;" points="50,462 50,416.198 127.269,348.874 191.97,348.874 191.97,462 "/>
<path d="M191.97,472H50c-5.523,0-10-4.477-10-10v-45.802c0-2.891,1.251-5.641,3.431-7.54l77.269-67.324
	c1.821-1.587,4.154-2.461,6.569-2.461h64.701c5.523,0,10,4.477,10,10V462C201.97,467.523,197.493,472,191.97,472z M60,452h121.97
	v-93.126h-50.956L60,420.748V452z"/>
<rect x="372.74" y="149.69" style="fill:#E7ECED;" width="45.755" height="352.31"/>
<rect x="418.49" y="10" style="fill:#8C9AA2;" width="83.51" height="492"/>
<polygon style="fill:#FDB845;" points="372.736,502 372.736,160.52 339.615,70.219 265.09,70.219 231.97,160.52 231.97,502 "/>
<path d="M460.25,75.1c-0.66,0-1.31-0.07-1.96-0.2c-0.64-0.12-1.27-0.32-1.87-0.57s-1.18-0.55-1.73-0.91
	c-0.54-0.37-1.05-0.79-1.52-1.25c-0.46-0.46-0.88-0.97-1.24-1.52c-0.36-0.54-0.67-1.12-0.92-1.72c-0.25-0.61-0.44-1.24-0.57-1.88
	s-0.19-1.3-0.19-1.95c0-2.63,1.06-5.21,2.92-7.07c0.47-0.46,0.98-0.88,1.52-1.24c0.55-0.36,1.13-0.67,1.73-0.92s1.23-0.44,1.87-0.57
	c1.29-0.26,2.62-0.26,3.91,0c0.64,0.13,1.27,0.32,1.87,0.57s1.18,0.56,1.73,0.92c0.54,0.36,1.06,0.78,1.52,1.24
	c1.86,1.86,2.93,4.44,2.93,7.07c0,0.65-0.07,1.31-0.2,1.95s-0.32,1.27-0.57,1.88c-0.25,0.6-0.56,1.18-0.92,1.72
	c-0.36,0.55-0.78,1.06-1.24,1.52C465.46,74.03,462.88,75.1,460.25,75.1z"/>
<path d="M502,0h-83.509c-5.523,0-10,4.477-10,10v129.689h-32.744l-26.743-72.914c-1.445-3.938-5.194-6.557-9.389-6.557H265.09
	c-4.195,0-7.944,2.618-9.388,6.557l-33.121,90.301c-0.404,1.103-0.611,2.268-0.611,3.443v138.354H112.288
	c-2.415,0-4.748,0.874-6.569,2.461L3.431,390.457C1.251,392.355,0,395.105,0,397.996V502c0,5.523,4.477,10,10,10h492
	c5.523,0,10-4.477,10-10V10C512,4.477,507.523,0,502,0z M20,402.546l96.033-83.672H221.97V492H20V402.546z M241.97,162.295
	l30.104-82.077h60.557l30.104,82.077V492h-19.71V182.5c0-5.523-4.477-10-10-10s-10,4.477-10,10v49.626H281.68V182.5
	c0-5.523-4.477-10-10-10s-10,4.477-10,10V492h-19.71V162.295z M323.026,365.124H281.68v-46.499h41.346V365.124z M281.68,385.124
	h41.346v46.499H281.68V385.124z M323.026,298.625H281.68v-46.499h41.346V298.625z M281.68,451.623h41.346V492H281.68V451.623z
	 M382.735,159.689h25.755V492h-25.755V159.689z M492,492h-21.754V101.767c0-5.523-4.477-10-10-10s-10,4.477-10,10V492h-21.755V20
	H492V492z"/>
<g>
</g>
<g>
</g>
<g>
</g>
<g>
</g>
<g>
</g>
<g>
</g>
<g>
</g>
<g>
</g>
<g>
</g>
<g>
</g>
<g>
</g>
<g>
</g>
<g>
</g>
<g>
</g>
<g>
</g>
</svg>
