<?xml version="1.0" encoding="iso-8859-1"?>
<!-- Generator: Adobe Illustrator 19.0.0, SVG Export Plug-In . SVG Version: 6.00 Build 0)  -->
<svg version="1.1" id="Capa_1" xmlns="http://www.w3.org/2000/svg" xmlns:xlink="http://www.w3.org/1999/xlink" x="0px" y="0px"
	 viewBox="0 0 512 512" style="enable-background:new 0 0 512 512;" xml:space="preserve">
<g>
	<polygon style="fill:#E7ECED;" points="145.931,353.357 146.34,346.672 128.501,55.092 58.696,55.092 39.759,364.621 
		110.122,328.4 110.122,370.251 146.726,352.982 146.726,352.982 	"/>
	<polygon style="fill:#E7ECED;" points="198.834,328.4 198.834,370.251 251.739,345.292 233.984,55.092 164.179,55.092 
		145.931,353.357 	"/>
</g>
<rect x="145.82" y="10" style="fill:#008079;" width="105.41" height="45.09"/>
<path d="M198.53,112.92c-0.66,0-1.31-0.06-1.96-0.19c-0.64-0.13-1.27-0.33-1.87-0.58s-1.18-0.55-1.73-0.92
	c-0.54-0.36-1.05-0.78-1.52-1.24c-0.46-0.46-0.87-0.97-1.24-1.52c-0.36-0.54-0.67-1.12-0.92-1.73c-0.25-0.6-0.44-1.23-0.57-1.87
	s-0.19-1.3-0.19-1.95c0-2.63,1.06-5.21,2.92-7.07c0.47-0.46,0.98-0.88,1.52-1.24c0.55-0.36,1.13-0.67,1.73-0.92s1.23-0.45,1.87-0.57
	c1.29-0.26,2.62-0.26,3.91,0c0.64,0.12,1.27,0.32,1.87,0.57c0.6,0.25,1.18,0.56,1.73,0.92c0.54,0.36,1.06,0.78,1.52,1.24
	c1.86,1.86,2.92,4.44,2.92,7.07c0,0.65-0.06,1.31-0.19,1.95s-0.32,1.27-0.57,1.87c-0.25,0.61-0.56,1.19-0.92,1.73
	c-0.36,0.55-0.78,1.06-1.24,1.52s-0.98,0.88-1.52,1.24c-0.55,0.37-1.13,0.67-1.73,0.92c-0.6,0.25-1.23,0.45-1.87,0.58
	C199.83,112.86,199.18,112.92,198.53,112.92z"/>
<rect x="40.34" y="10" style="fill:#008079;" width="105.41" height="45.09"/>
<path d="M93.04,112.92c-0.65,0-1.31-0.07-1.95-0.2c-0.64-0.12-1.27-0.32-1.87-0.57c-0.61-0.25-1.19-0.56-1.73-0.92
	c-0.55-0.36-1.06-0.78-1.52-1.24s-0.88-0.97-1.24-1.52c-0.36-0.54-0.67-1.12-0.92-1.72c-0.25-0.61-0.44-1.24-0.57-1.88
	s-0.2-1.3-0.2-1.95s0.07-1.31,0.2-1.95s0.32-1.27,0.57-1.87c0.25-0.61,0.56-1.19,0.92-1.73c0.36-0.55,0.78-1.06,1.24-1.52
	s0.97-0.88,1.52-1.24c0.54-0.36,1.12-0.67,1.73-0.92c0.6-0.25,1.23-0.45,1.87-0.57c1.29-0.26,2.62-0.26,3.91,0
	c0.63,0.12,1.26,0.32,1.87,0.57c0.6,0.25,1.18,0.56,1.72,0.92c0.55,0.36,1.06,0.78,1.52,1.24s0.88,0.97,1.25,1.52
	c0.36,0.54,0.67,1.12,0.92,1.73c0.25,0.6,0.44,1.23,0.57,1.87s0.19,1.3,0.19,1.95s-0.06,1.31-0.19,1.95
	c-0.13,0.64-0.32,1.27-0.57,1.88c-0.25,0.6-0.56,1.18-0.92,1.72c-0.37,0.55-0.79,1.06-1.25,1.52s-0.97,0.88-1.52,1.24
	c-0.54,0.36-1.12,0.67-1.72,0.92c-0.61,0.25-1.24,0.45-1.87,0.57C94.35,112.85,93.69,112.92,93.04,112.92z"/>
<polygon style="fill:#8C9AA2;" points="198.834,370.251 198.834,328.4 110.122,370.251 110.122,328.4 10.585,379.639 10.585,502 
	287.546,502 287.546,328.4 "/>
<polygon style="fill:#C4C6C9;" points="501.415,372.487 416.419,323.803 416.419,231.221 287.546,160.05 287.546,502 501.415,502 
	"/>
<g>
	<rect x="337.05" y="412.27" style="fill:#FFD480;" width="112.55" height="89.73"/>
	<polygon style="fill:#FFD480;" points="337.052,375.498 337.052,241.242 375.082,263 375.082,375.498 	"/>
</g>
<path d="M375.081,385.498h-38.028c-5.522,0-10-4.477-10-10V241.243c0-3.566,1.898-6.861,4.983-8.65
	c3.085-1.789,6.888-1.8,9.982-0.029l38.028,21.757c3.113,1.781,5.034,5.093,5.034,8.68v112.498
	C385.081,381.021,380.603,385.498,375.081,385.498z M347.053,365.498h18.028V268.8l-18.028-10.315L347.053,365.498L347.053,365.498z
	"/>
<rect x="60.34" y="432.18" style="fill:#E7ECED;" width="175.08" height="69.825"/>
<path d="M506.386,363.81l-79.967-45.803v-86.786c0-3.641-1.979-6.994-5.166-8.754L292.38,151.296
	c-3.099-1.711-6.868-1.658-9.916,0.142c-3.048,1.798-4.918,5.074-4.918,8.612v162.011l-16.727,7.891l-16.204-264.86h6.616
	c5.523,0,9.999-4.477,9.999-10V10c0-5.523-4.477-10-9.999-10H40.336c-5.523,0-10,4.477-10,10v45.092c0,5.523,4.477,10,10,10h7.729
	l-17.94,293.241L6.008,370.748c-3.331,1.714-5.423,5.146-5.423,8.891V502c0,5.523,4.477,10,10,10h490.83c5.522,0,10-4.477,10-10
	V372.487C511.415,368.902,509.496,365.592,506.386,363.81z M153.548,65.092l-7.208,117.822l-7.208-117.822H153.548z
	 M241.344,339.139l-32.51,15.337v-25.89c0.001-0.064,0.002-0.127,0.002-0.191V139.583c0-5.523-4.477-10-10-10s-10,4.477-10,10
	V322.06l-31.892,15.045l16.641-272.013h50.992L241.344,339.139z M155.819,20h85.412v25.092h-85.412V20z M50.336,20h85.412v25.092
	H50.336V20z M50.814,347.683L68.102,65.092h50.992l17.227,281.581l-0.01,0.166l-16.189,7.638V328.4c0-3.487-1.816-6.722-4.793-8.537
	c-0.048-0.029-0.095-0.058-0.143-0.086c-0.021-0.013-0.042-0.024-0.063-0.037c-0.028-0.016-0.056-0.033-0.085-0.049
	c-0.022-0.012-0.044-0.024-0.066-0.037c-0.027-0.015-0.053-0.03-0.08-0.044c-0.024-0.013-0.049-0.026-0.073-0.039
	c-0.025-0.013-0.05-0.027-0.075-0.04c-0.025-0.013-0.05-0.026-0.075-0.039c-0.025-0.012-0.049-0.025-0.074-0.037
	c-0.026-0.013-0.053-0.026-0.079-0.039c-0.023-0.011-0.046-0.022-0.069-0.033c-0.029-0.014-0.058-0.027-0.087-0.041
	c-0.02-0.009-0.041-0.019-0.062-0.028c-0.029-0.013-0.058-0.027-0.087-0.04c-0.022-0.01-0.044-0.02-0.067-0.03
	c-0.029-0.013-0.059-0.026-0.088-0.038c-0.021-0.009-0.042-0.018-0.063-0.027c-0.029-0.012-0.057-0.024-0.086-0.036
	c-0.024-0.01-0.048-0.02-0.073-0.029c-0.028-0.011-0.055-0.022-0.083-0.033c-0.021-0.008-0.042-0.016-0.062-0.024
	c-0.032-0.012-0.064-0.024-0.096-0.036c-0.016-0.006-0.031-0.011-0.047-0.017c-0.036-0.013-0.071-0.026-0.107-0.038
	c-0.013-0.005-0.027-0.009-0.04-0.014c-0.179-0.062-0.359-0.119-0.541-0.171c-0.012-0.003-0.024-0.007-0.036-0.01
	c-0.034-0.009-0.068-0.018-0.102-0.028c-0.02-0.005-0.039-0.011-0.059-0.016c-0.031-0.008-0.063-0.016-0.095-0.024
	c-0.021-0.006-0.043-0.011-0.065-0.016c-0.031-0.008-0.061-0.015-0.092-0.022c-0.023-0.005-0.046-0.011-0.068-0.016
	c-0.03-0.007-0.06-0.013-0.09-0.02c-0.024-0.005-0.048-0.011-0.072-0.016c-0.028-0.006-0.057-0.012-0.085-0.018
	c-0.026-0.005-0.051-0.01-0.077-0.015c-0.028-0.006-0.057-0.011-0.085-0.016c-0.025-0.005-0.05-0.009-0.076-0.014
	c-0.029-0.005-0.057-0.01-0.086-0.015c-0.025-0.004-0.05-0.008-0.075-0.012c-0.029-0.005-0.058-0.009-0.088-0.014
	c-0.025-0.004-0.05-0.008-0.076-0.011c-0.028-0.004-0.056-0.008-0.083-0.012c-0.028-0.004-0.057-0.007-0.085-0.011
	c-0.026-0.003-0.053-0.007-0.079-0.01c-0.025-0.003-0.05-0.006-0.075-0.008c-0.03-0.003-0.059-0.007-0.089-0.009
	c-0.027-0.003-0.053-0.005-0.08-0.008c-0.027-0.002-0.054-0.005-0.081-0.007c-0.03-0.003-0.06-0.005-0.089-0.007
	c-0.04-0.003-0.08-0.006-0.12-0.008c-0.04-0.003-0.079-0.005-0.119-0.007c-0.011-0.001-0.023-0.001-0.034-0.002
	c-0.043-0.002-0.085-0.004-0.128-0.005c-0.021-0.001-0.041-0.001-0.062-0.002c-0.035-0.001-0.069-0.002-0.104-0.003
	c-0.019,0-0.038,0-0.057-0.001c-0.036,0-0.072-0.001-0.108-0.001c-0.006,0-0.012,0-0.018,0c-0.018,0-0.036,0-0.055,0
	c-0.026,0-0.052,0-0.079,0.001c-0.021,0-0.043,0.001-0.064,0.001c-0.031,0.001-0.061,0.001-0.091,0.002
	c-0.017,0.001-0.035,0.001-0.052,0.002c-0.033,0.001-0.065,0.002-0.097,0.003c-0.02,0.001-0.04,0.002-0.06,0.003
	c-0.119,0.006-0.239,0.014-0.358,0.024c-0.009,0.001-0.019,0.001-0.028,0.002c-0.037,0.003-0.073,0.007-0.11,0.01
	c-0.014,0.001-0.028,0.003-0.042,0.004c-0.033,0.004-0.066,0.007-0.1,0.011c-0.018,0.002-0.035,0.004-0.053,0.006
	c-0.032,0.004-0.065,0.008-0.097,0.012c-0.017,0.002-0.035,0.004-0.053,0.007c-0.032,0.004-0.064,0.009-0.096,0.013
	c-0.018,0.003-0.036,0.005-0.054,0.008c-0.034,0.005-0.067,0.01-0.101,0.016l-0.043,0.007c-0.038,0.006-0.075,0.013-0.113,0.019
	l-0.031,0.005c-0.037,0.007-0.075,0.014-0.112,0.021c-0.014,0.003-0.028,0.005-0.042,0.008c-0.036,0.007-0.073,0.014-0.109,0.022
	c-0.01,0.002-0.019,0.004-0.029,0.006c-0.041,0.009-0.081,0.017-0.121,0.026c-0.004,0.001-0.007,0.002-0.011,0.002
	c-0.377,0.085-0.751,0.193-1.12,0.322c-0.007,0.003-0.015,0.005-0.022,0.008c-0.038,0.013-0.075,0.027-0.112,0.041
	c-0.011,0.004-0.023,0.008-0.034,0.012c-0.037,0.014-0.074,0.028-0.111,0.042c-0.01,0.004-0.019,0.007-0.029,0.011
	c-0.038,0.015-0.077,0.03-0.115,0.046c-0.009,0.003-0.018,0.007-0.026,0.011c-0.037,0.015-0.075,0.031-0.112,0.046
	c-0.011,0.004-0.021,0.009-0.032,0.014c-0.038,0.016-0.076,0.032-0.114,0.049c-0.004,0.002-0.009,0.004-0.013,0.006
	c-0.181,0.08-0.36,0.165-0.537,0.256l-2.502,1.288V139.58c0-5.523-4.477-10-10-10s-10,4.477-10,10V328.4
	c0,0.873,0.112,1.72,0.322,2.527l-19.319,9.945L50.814,347.683z M20.585,385.738l79.537-40.943v25.456
	c0,3.425,1.753,6.612,4.646,8.446c0.049,0.031,0.099,0.062,0.148,0.092c0.011,0.007,0.022,0.013,0.033,0.02
	c0.038,0.023,0.075,0.045,0.113,0.068c0.016,0.009,0.031,0.018,0.047,0.027c0.036,0.021,0.072,0.041,0.108,0.061
	c0.013,0.007,0.026,0.014,0.039,0.022c0.039,0.022,0.078,0.043,0.117,0.064c0.011,0.006,0.022,0.012,0.034,0.018
	c0.039,0.021,0.079,0.042,0.118,0.062c0.013,0.007,0.026,0.014,0.039,0.02c0.042,0.022,0.084,0.043,0.127,0.064
	c0.008,0.004,0.015,0.008,0.023,0.011c0.264,0.13,0.533,0.248,0.806,0.353c0.001,0,0.002,0.001,0.003,0.001
	c2.35,0.907,4.977,0.9,7.343-0.057c0.007-0.003,0.015-0.006,0.022-0.009c0.079-0.032,0.158-0.065,0.236-0.1
	c0.009-0.004,0.018-0.008,0.027-0.012c0.08-0.035,0.159-0.071,0.238-0.108l36.604-17.268h0.001l37.841-17.852v26.077
	c0,3.425,1.753,6.612,4.646,8.446c0.048,0.031,0.097,0.061,0.146,0.091c0.015,0.009,0.029,0.018,0.044,0.027
	c0.034,0.02,0.068,0.04,0.102,0.061c0.018,0.011,0.036,0.021,0.053,0.031c0.033,0.019,0.067,0.039,0.1,0.057
	c0.015,0.008,0.03,0.017,0.045,0.025c0.036,0.02,0.073,0.04,0.109,0.06c0.014,0.008,0.028,0.015,0.043,0.023
	c0.035,0.019,0.071,0.038,0.106,0.056c0.017,0.009,0.034,0.018,0.051,0.026c0.038,0.02,0.076,0.039,0.115,0.058
	c0.011,0.006,0.022,0.011,0.033,0.016c0.047,0.023,0.094,0.046,0.141,0.068c0.005,0.002,0.009,0.004,0.014,0.007
	c0.159,0.075,0.32,0.145,0.482,0.211c0.003,0.001,0.007,0.003,0.01,0.004c0.051,0.021,0.101,0.041,0.152,0.06
	c0.004,0.002,0.009,0.003,0.013,0.005c0.052,0.02,0.104,0.039,0.155,0.059c0.001,0,0.003,0.001,0.004,0.001
	c0.054,0.02,0.109,0.039,0.163,0.058c0.001,0,0.001,0,0.002,0.001c2.18,0.755,4.573,0.737,6.762-0.08
	c0.001-0.001,0.003-0.001,0.004-0.002c0.082-0.031,0.164-0.063,0.246-0.096c0.008-0.003,0.017-0.007,0.025-0.01
	c0.079-0.032,0.157-0.065,0.235-0.099c0.009-0.004,0.018-0.008,0.027-0.012c0.08-0.035,0.159-0.071,0.238-0.108l74.445-35.121V492
	h-32.131v-59.825c0-5.523-4.477-10-10-10H60.336c-5.523,0-10,4.477-10,10V492H20.585V385.738z M70.336,492v-49.825h155.079V492
	H70.336z M347.053,492v-69.733h92.55V492H347.053z M491.415,492h-31.813v-79.733c0-5.523-4.478-10-10-10h-112.55
	c-5.522,0-10,4.477-10,10V492h-29.507V176.996l108.873,60.126v86.681c0,3.585,1.919,6.896,5.03,8.677l79.966,45.803L491.415,492
	L491.415,492z"/>
<g>
</g>
<g>
</g>
<g>
</g>
<g>
</g>
<g>
</g>
<g>
</g>
<g>
</g>
<g>
</g>
<g>
</g>
<g>
</g>
<g>
</g>
<g>
</g>
<g>
</g>
<g>
</g>
<g>
</g>
</svg>
