<?xml version="1.0" encoding="iso-8859-1"?>
<!-- Generator: Adobe Illustrator 19.0.0, SVG Export Plug-In . SVG Version: 6.00 Build 0)  -->
<svg version="1.1" id="Capa_1" xmlns="http://www.w3.org/2000/svg" xmlns:xlink="http://www.w3.org/1999/xlink" x="0px" y="0px"
	 viewBox="0 0 512 512" style="enable-background:new 0 0 512 512;" xml:space="preserve">
<rect x="21.646" y="35.34" style="fill:#008079;" width="94.56" height="40.448"/>
<rect x="10" y="317.91" style="fill:#8C9AA2;" width="120.87" height="158.75"/>
<polygon style="fill:#E7ECED;" points="114.307,317.91 100.731,75.783 38.115,75.783 24.539,317.91 "/>
<rect x="45.881" y="345.79" style="fill:#FFD480;" width="47.09" height="130.87"/>
<polygon style="fill:#C4C6C9;" points="407.28,110.885 102.7,110.885 105.372,158.545 404.608,158.545 "/>
<rect x="392.78" y="35.34" style="fill:#008079;" width="94.56" height="40.448"/>
<rect x="381.13" y="317.91" style="fill:#8C9AA2;" width="120.87" height="158.75"/>
<polygon style="fill:#E7ECED;" points="485.441,317.91 471.865,75.783 409.249,75.783 395.673,317.91 "/>
<polygon style="fill:#FDB845;" points="305.927,360.009 305.927,320.411 221.992,360.009 221.992,320.411 130.867,364.653 
	130.867,476.665 381.134,476.665 381.134,324.529 "/>
<rect x="417.01" y="345.79" style="fill:#FFD480;" width="47.09" height="130.87"/>
<rect x="169.25" y="407.51" style="fill:#E7ECED;" width="173.49" height="69.15"/>
<path d="M69.93,124.23c-0.649,0-1.31-0.06-1.95-0.19c-0.64-0.13-1.27-0.32-1.87-0.57c-0.609-0.25-1.189-0.56-1.729-0.92
	c-0.55-0.37-1.061-0.79-1.52-1.25c-0.46-0.46-0.88-0.97-1.239-1.52c-0.36-0.54-0.67-1.12-0.92-1.72c-0.25-0.61-0.44-1.24-0.57-1.87
	c-0.13-0.65-0.2-1.31-0.2-1.96c0-0.65,0.07-1.31,0.2-1.95s0.32-1.27,0.57-1.87c0.25-0.61,0.56-1.19,0.92-1.73
	c0.359-0.55,0.779-1.06,1.239-1.52c0.46-0.46,0.971-0.88,1.52-1.24c0.54-0.36,1.12-0.67,1.729-0.92c0.601-0.25,1.23-0.44,1.87-0.57
	c1.29-0.26,2.62-0.26,3.91,0c0.641,0.13,1.26,0.32,1.87,0.57c0.6,0.25,1.18,0.56,1.72,0.92c0.551,0.36,1.061,0.78,1.521,1.24
	c1.87,1.86,2.93,4.44,2.93,7.07c0,2.64-1.06,5.21-2.93,7.07c-0.46,0.46-0.97,0.88-1.521,1.25c-0.54,0.36-1.12,0.67-1.72,0.92
	c-0.61,0.25-1.23,0.44-1.87,0.57C71.24,124.17,70.59,124.23,69.93,124.23z"/>
<path d="M442.069,124.23c-0.649,0-1.31-0.06-1.96-0.19c-0.63-0.13-1.26-0.32-1.869-0.57c-0.601-0.25-1.181-0.56-1.721-0.92
	c-0.55-0.37-1.06-0.79-1.529-1.25c-0.46-0.46-0.881-0.97-1.24-1.52c-0.36-0.54-0.67-1.12-0.92-1.72c-0.25-0.61-0.441-1.24-0.57-1.87
	c-0.13-0.65-0.2-1.31-0.2-1.96c0-0.65,0.07-1.31,0.2-1.95s0.32-1.27,0.57-1.87c0.25-0.61,0.559-1.19,0.92-1.73
	c0.359-0.55,0.78-1.06,1.24-1.52c0.47-0.46,0.979-0.88,1.529-1.24c0.54-0.36,1.12-0.67,1.721-0.92c0.609-0.25,1.239-0.44,1.869-0.57
	c1.29-0.26,2.62-0.26,3.91,0c0.641,0.13,1.271,0.32,1.87,0.57c0.601,0.25,1.18,0.56,1.73,0.92c0.54,0.36,1.06,0.78,1.52,1.24
	c0.46,0.46,0.88,0.97,1.24,1.52c0.36,0.54,0.67,1.12,0.92,1.73c0.25,0.6,0.44,1.23,0.57,1.87s0.199,1.3,0.199,1.95
	c0,2.64-1.069,5.21-2.93,7.07c-0.46,0.46-0.979,0.88-1.52,1.25c-0.551,0.36-1.13,0.67-1.73,0.92s-1.229,0.44-1.87,0.57
	C443.38,124.17,442.72,124.23,442.069,124.23z"/>
<path d="M502,307.91h-7.104L482.441,85.783h4.895c5.522,0,10-4.477,10-10V35.335c0-5.523-4.478-10-10-10h-94.557
	c-5.522,0-10,4.477-10,10v40.448c0,5.523,4.478,10,10,10h5.892l-0.847,15.102h-285.67l-0.847-15.102h4.894c5.522,0,10-4.477,10-10
	V35.335c0-5.523-4.478-10-10-10H21.646c-5.522,0-10,4.477-10,10v40.448c0,5.523,4.478,10,10,10h5.892L15.084,307.91H10
	c-5.523,0-10,4.477-10,10v158.755c0,5.523,4.477,10,10,10h492c5.522,0,10-4.477,10-10V317.91C512,312.387,507.522,307.91,502,307.91
	z M311.282,311.965c-2.892-1.834-6.521-2.06-9.621-0.598l-69.67,32.868v-23.824c0-3.445-1.773-6.647-4.693-8.476
	c-2.918-1.828-6.574-2.026-9.674-0.52l-76.758,37.267V317.91c0-5.523-4.477-10-10-10h-7.103l-7.814-139.365h278.083l-7.814,139.365
	h-5.084c-5.522,0-10,4.477-10,10v0.28l-55.206,26.044V320.41C315.928,316.985,314.175,313.799,311.282,311.965z M402.779,45.335
	h74.557v20.448h-74.557V45.335z M462.409,85.783l12.455,222.127h-22.798V150.9c0-5.523-4.478-10-10-10s-10,4.477-10,10v157.01
	h-25.817l12.454-222.127C418.703,85.783,462.409,85.783,462.409,85.783z M396.704,120.885l-1.551,27.66H114.827l-0.262-4.666
	l-1.289-22.995h283.428V120.885z M31.646,45.335h74.556v20.448H31.646V45.335z M91.276,85.783l12.455,222.127H79.934V150.9
	c0-5.523-4.478-10-10-10s-10,4.477-10,10v157.01H35.115L47.57,85.783H91.276z M20,327.91h100.866v138.755h-17.9V345.79
	c0-5.523-4.478-10-10-10H45.881c-5.523,0-10,4.477-10,10v120.875H20V327.91z M55.881,466.665V355.79h27.085v110.875H55.881z
	 M140.866,370.914l71.125-34.532v23.627c0,3.425,1.753,6.612,4.646,8.446c2.892,1.834,6.522,2.061,9.621,0.598l69.67-32.868v23.824
	c0,3.425,1.753,6.612,4.646,8.446c2.892,1.834,6.522,2.061,9.621,0.598l60.939-28.749v126.361h-18.389v-59.151
	c0-5.523-4.477-10-10-10h-173.49c-5.522,0-10,4.477-10,10v59.151h-18.389L140.866,370.914L140.866,370.914z M179.255,466.665
	v-49.151h153.49v49.151H179.255z M427.014,466.665V355.79H454.1v110.875H427.014z M492,466.665h-17.9V345.79c0-5.523-4.478-10-10-10
	h-47.086c-5.522,0-10,4.477-10,10v120.875h-15.88V327.91H492V466.665z"/>
<g>
</g>
<g>
</g>
<g>
</g>
<g>
</g>
<g>
</g>
<g>
</g>
<g>
</g>
<g>
</g>
<g>
</g>
<g>
</g>
<g>
</g>
<g>
</g>
<g>
</g>
<g>
</g>
<g>
</g>
</svg>
