<?xml version="1.0" encoding="iso-8859-1"?>
<!-- Generator: Adobe Illustrator 19.0.0, SVG Export Plug-In . SVG Version: 6.00 Build 0)  -->
<svg version="1.1" id="Capa_1" xmlns="http://www.w3.org/2000/svg" xmlns:xlink="http://www.w3.org/1999/xlink" x="0px" y="0px"
	 viewBox="0 0 512 512" style="enable-background:new 0 0 512 512;" xml:space="preserve">
<path style="fill:#3ABEB6;" d="M304.444,20.996c-14.661-14.661-38.432-14.661-53.093,0s-14.661,38.432,0,53.093
	c6.917,6.917,15.861,10.567,24.921,10.957c1.467,4.469,3.969,8.672,7.522,12.225c12.104,12.104,31.728,12.104,43.833,0
	c12.104-12.104,12.104-31.728,0-43.832c-3.553-3.553-7.756-6.055-12.225-7.522C315.01,36.857,311.361,27.913,304.444,20.996z"/>
<path d="M305.709,116.329c-10.497,0-20.995-3.996-28.987-11.987c-2.992-2.992-5.457-6.35-7.37-10.031
	c-9.456-1.719-18.188-6.267-25.072-13.151c-18.536-18.537-18.536-48.698,0-67.235C253.259,4.945,265.198,0,277.897,0
	c0.001,0,0,0,0.001,0c12.698,0,24.638,4.945,33.617,13.925l0,0l0,0c6.884,6.884,11.433,15.616,13.151,25.071
	c3.681,1.913,7.037,4.377,10.03,7.369c15.983,15.985,15.983,41.992,0.001,57.976C326.705,112.333,316.207,116.329,305.709,116.329z
	 M277.897,20c-7.357,0-14.273,2.865-19.475,8.067c-10.739,10.739-10.739,28.212,0,38.951c4.885,4.886,11.377,7.74,18.28,8.038
	c4.159,0.179,7.773,2.917,9.07,6.872c1.032,3.142,2.745,5.926,5.092,8.272c8.185,8.186,21.506,8.185,29.69,0
	c8.186-8.186,8.186-21.504,0-29.69c-2.347-2.346-5.131-4.06-8.272-5.091c-3.955-1.298-6.692-4.911-6.872-9.07
	c-0.297-6.902-3.152-13.394-8.038-18.28l0,0C292.17,22.865,285.254,20,277.897,20z"/>
<rect x="185.81" y="339.8" style="fill:#E7ECED;" width="204.54" height="162.2"/>
<rect x="390.36" y="99.15" style="fill:#8C9AA2;" width="73.51" height="402.85"/>
<rect x="374.61" y="49.31" style="fill:#E7ECED;" width="105" height="49.834"/>
<polygon style="fill:#C4C6C9;" points="100.957,104.23 100.957,149.092 32.388,104.23 32.388,502 185.814,502 185.814,169.814 "/>
<g>
	<rect x="32.388" y="201.03" style="fill:#FFD480;" width="76.71" height="31.95"/>
	<rect x="32.388" y="277.72" style="fill:#FFD480;" width="76.71" height="31.95"/>
	<rect x="32.388" y="354.42" style="fill:#FFD480;" width="76.71" height="31.95"/>
	<rect x="32.388" y="431.11" style="fill:#FFD480;" width="76.71" height="31.95"/>
</g>
<rect x="185.81" y="409" style="fill:#008079;" width="204.54" height="93"/>
<path d="M147.46,472c-0.66,0-1.311-0.07-1.96-0.2c-0.641-0.12-1.27-0.32-1.87-0.57c-0.6-0.25-1.18-0.56-1.72-0.92
	c-0.551-0.36-1.061-0.78-1.521-1.24c-0.47-0.46-0.88-0.97-1.25-1.52c-0.359-0.54-0.67-1.12-0.92-1.73
	c-0.25-0.6-0.439-1.23-0.57-1.87c-0.13-0.64-0.189-1.3-0.189-1.95c0-2.63,1.059-5.21,2.93-7.07c0.46-0.46,0.97-0.88,1.521-1.24
	c0.54-0.36,1.12-0.67,1.72-0.92s1.23-0.45,1.87-0.57c1.29-0.26,2.62-0.26,3.91,0c0.64,0.12,1.27,0.32,1.87,0.57
	c0.6,0.25,1.189,0.56,1.729,0.92c0.55,0.36,1.06,0.78,1.521,1.24c1.859,1.86,2.93,4.44,2.93,7.07c0,0.65-0.07,1.31-0.2,1.95
	c-0.13,0.64-0.32,1.27-0.57,1.87c-0.25,0.61-0.56,1.19-0.92,1.73c-0.359,0.55-0.779,1.06-1.239,1.52
	c-0.461,0.46-0.971,0.88-1.521,1.24c-0.54,0.36-1.13,0.67-1.729,0.92c-0.601,0.25-1.23,0.45-1.87,0.57
	C148.77,471.93,148.109,472,147.46,472z"/>
<path d="M147.457,435.333c-5.522,0-10-4.477-10-10V201.025c0-5.523,4.478-10,10-10c5.523,0,10,4.477,10,10v224.309
	C157.457,430.856,152.98,435.333,147.457,435.333z"/>
<path d="M427.109,154.66c-0.649,0-1.31-0.07-1.949-0.2c-0.641-0.12-1.271-0.32-1.87-0.57c-0.61-0.25-1.19-0.56-1.73-0.92
	c-0.55-0.36-1.06-0.78-1.52-1.24s-0.88-0.97-1.24-1.52c-0.36-0.54-0.67-1.12-0.92-1.73c-0.25-0.6-0.44-1.23-0.57-1.87
	s-0.2-1.3-0.2-1.95s0.07-1.31,0.2-1.95s0.32-1.27,0.57-1.87c0.25-0.61,0.56-1.19,0.92-1.73c0.36-0.55,0.78-1.06,1.24-1.52
	s0.97-0.88,1.52-1.24c0.54-0.36,1.12-0.67,1.73-0.92c0.6-0.25,1.229-0.45,1.87-0.57c1.29-0.26,2.62-0.26,3.909,0
	c0.631,0.12,1.261,0.32,1.87,0.57c0.6,0.25,1.181,0.56,1.721,0.92c0.55,0.36,1.06,0.78,1.52,1.24s0.88,0.97,1.25,1.52
	c0.36,0.54,0.67,1.12,0.92,1.73c0.24,0.6,0.44,1.23,0.561,1.87c0.13,0.64,0.199,1.3,0.199,1.95s-0.069,1.31-0.199,1.95
	c-0.12,0.64-0.32,1.27-0.561,1.87c-0.25,0.61-0.56,1.19-0.92,1.73c-0.37,0.55-0.79,1.06-1.25,1.52s-0.97,0.88-1.52,1.24
	c-0.54,0.36-1.12,0.67-1.721,0.92c-0.609,0.25-1.239,0.45-1.87,0.57C428.42,154.59,427.76,154.66,427.109,154.66z"/>
<path d="M479.612,39.315h-105c-5.522,0-10,4.477-10,10V99.15c0,5.523,4.478,10,10,10h5.745v146.01H195.814v-85.346
	c0-3.097-1.435-6.019-3.885-7.912l-84.857-65.584c-3.018-2.333-7.101-2.744-10.523-1.064c-3.424,1.681-5.593,5.163-5.593,8.977
	V130.6L37.862,95.862c-3.071-2.009-6.999-2.175-10.231-0.428c-3.23,1.747-5.243,5.124-5.243,8.796V502c0,5.523,4.478,10,10,10
	h431.479c5.522,0,10-4.477,10-10V109.15h5.745c5.522,0,10-4.477,10-10V49.315C489.612,43.792,485.135,39.315,479.612,39.315z
	 M384.612,59.315h85V89.15h-85V59.315z M195.814,349.798h184.543V399H195.814V349.798z M380.357,275.16v54.638H195.814V275.16
	H380.357z M42.388,211.025h56.713v11.95H42.388V211.025z M42.388,287.721h56.713v11.95H42.388V287.721z M42.388,364.418h56.713
	v11.95H42.388V364.418z M42.388,441.114h56.713v11.95H42.388V441.114z M42.388,473.065h66.713c5.522,0,10-4.477,10-10v-31.95
	c0-5.523-4.478-10-10-10H42.388v-24.746h66.713c5.522,0,10-4.477,10-10v-31.95c0-5.523-4.478-10-10-10H42.388v-24.747h66.713
	c5.522,0,10-4.477,10-10v-31.95c0-5.523-4.478-10-10-10H42.388v-24.746h66.713c5.522,0,10-4.477,10-10v-31.95
	c0-5.523-4.478-10-10-10H42.388v-68.302l53.095,34.737c3.071,2.01,7,2.175,10.231,0.428c3.23-1.747,5.243-5.124,5.243-8.796v-24.495
	l64.857,50.126V492H42.388V473.065z M195.814,419h184.543v73H195.814V419z M453.867,492h-16.755V181.327c0-5.523-4.478-10-10-10
	s-10,4.477-10,10V492h-16.755V109.15h53.51V492z"/>
<g>
</g>
<g>
</g>
<g>
</g>
<g>
</g>
<g>
</g>
<g>
</g>
<g>
</g>
<g>
</g>
<g>
</g>
<g>
</g>
<g>
</g>
<g>
</g>
<g>
</g>
<g>
</g>
<g>
</g>
</svg>
