<?xml version="1.0" encoding="iso-8859-1"?>
<!-- Generator: Adobe Illustrator 19.0.0, SVG Export Plug-In . SVG Version: 6.00 Build 0)  -->
<svg version="1.1" id="Capa_1" xmlns="http://www.w3.org/2000/svg" xmlns:xlink="http://www.w3.org/1999/xlink" x="0px" y="0px"
	 viewBox="0 0 512 512" style="enable-background:new 0 0 512 512;" xml:space="preserve">
<path style="fill:#3ABEB6;" d="M171.458,60.438C171.458,32.582,194.04,10,221.896,10s50.438,22.582,50.438,50.438
	s-22.582,50.438-50.438,50.438c-6.016,0-11.785-1.054-17.135-2.986c-4.929,13.624-17.979,23.36-33.303,23.36
	c-19.554,0-35.406-15.852-35.406-35.406C136.052,76.289,151.904,60.438,171.458,60.438z"/>
<path d="M171.458,141.249c-25.037,0-45.406-20.369-45.406-45.405c0-21.842,15.501-40.131,36.08-44.443
	C166.508,22.348,191.642,0,221.895,0c33.326,0,60.438,27.112,60.438,60.438s-27.112,60.438-60.438,60.438
	c-3.993,0-7.943-0.388-11.814-1.155C201.917,132.884,187.348,141.249,171.458,141.249z M221.895,20
	c-22.297,0-40.438,18.141-40.438,40.438c0,5.522-4.477,10-10,10c-14.009,0-25.406,11.397-25.406,25.406s11.397,25.405,25.406,25.405
	c10.667,0,20.272-6.736,23.899-16.762c1.878-5.19,7.609-7.88,12.799-6.003c4.396,1.587,9.018,2.392,13.739,2.392
	c22.297,0,40.438-18.141,40.438-40.438C262.333,38.141,244.193,20,221.895,20z"/>
<polygon style="fill:#FDB845;" points="403.255,355.351 403.255,308.766 304.51,355.351 304.51,308.766 187.038,365.8 187.038,502 
	502,502 502,308.766 "/>
<path style="fill:#E7ECED;" d="M451.5,191H167.038v47H455v92.939l47-22.173V241.5C502,213.61,479.39,191,451.5,191z"/>
<rect x="100" y="170" style="fill:#8C9AA2;" width="67.04" height="198"/>
<rect x="30" y="61" style="fill:#C4C6C9;" width="70" height="307"/>
<rect x="10" y="368" style="fill:#009D93;" width="177.04" height="134"/>
<rect x="50" y="408" style="fill:#3ABEB6;" width="97.04" height="54"/>
<path d="M147.038,472H50c-5.523,0-10-4.478-10-10v-54c0-5.522,4.477-10,10-10h97.038c5.523,0,10,4.478,10,10v54
	C157.038,467.522,152.56,472,147.038,472z M60,452h77.038v-34H60V452z"/>
<rect x="219.67" y="405.38" style="fill:#E7ECED;" width="105.33" height="54.95"/>
<path d="M325,470.333H219.666c-5.523,0-10-4.478-10-10v-54.95c0-5.522,4.477-10,10-10H325c5.523,0,10,4.478,10,10v54.95
	C335,465.855,330.523,470.333,325,470.333z M229.666,450.333H315v-34.95h-85.334V450.333z"/>
<rect x="357.63" y="405.38" style="fill:#E7ECED;" width="105.33" height="54.95"/>
<path d="M462.962,470.333H357.629c-5.523,0-10-4.478-10-10v-54.95c0-5.522,4.477-10,10-10h105.333c5.523,0,10,4.478,10,10v54.95
	C472.962,465.855,468.485,470.333,462.962,470.333z M367.629,450.333h85.333v-34.95h-85.333V450.333z"/>
<path d="M63.72,117.979c-0.65,0-1.31-0.06-1.96-0.189c-0.63-0.13-1.26-0.32-1.87-0.57c-0.6-0.25-1.18-0.56-1.72-0.92
	c-0.55-0.37-1.06-0.78-1.52-1.25c-0.46-0.46-0.88-0.97-1.25-1.521c-0.36-0.539-0.67-1.119-0.92-1.72c-0.25-0.6-0.44-1.229-0.57-1.87
	c-0.13-0.649-0.19-1.3-0.19-1.96c0-0.649,0.06-1.3,0.19-1.95c0.13-0.64,0.32-1.269,0.57-1.869c0.25-0.601,0.56-1.181,0.92-1.73
	c0.37-0.54,0.79-1.06,1.25-1.52s0.97-0.881,1.52-1.24c0.54-0.36,1.12-0.67,1.72-0.92c0.61-0.25,1.24-0.44,1.87-0.57
	c1.29-0.26,2.62-0.26,3.91,0c0.64,0.13,1.27,0.32,1.87,0.57c0.61,0.25,1.19,0.56,1.73,0.92c0.55,0.359,1.06,0.78,1.52,1.24
	s0.88,0.979,1.24,1.52c0.36,0.55,0.67,1.13,0.92,1.73c0.25,0.6,0.44,1.229,0.57,1.869c0.13,0.65,0.2,1.301,0.2,1.95
	c0,0.66-0.07,1.311-0.2,1.96c-0.13,0.641-0.32,1.271-0.57,1.87c-0.25,0.601-0.56,1.181-0.92,1.72c-0.36,0.551-0.78,1.061-1.24,1.521
	c-0.46,0.47-0.97,0.88-1.52,1.25c-0.54,0.36-1.12,0.67-1.73,0.92c-0.6,0.25-1.23,0.44-1.87,0.57
	C65.03,117.92,64.37,117.979,63.72,117.979z"/>
<path d="M132.52,336c-0.65,0-1.31-0.06-1.96-0.19c-0.63-0.13-1.26-0.33-1.87-0.58c-0.6-0.25-1.18-0.56-1.72-0.92
	c-0.55-0.359-1.06-0.78-1.52-1.24s-0.88-0.97-1.25-1.52c-0.36-0.54-0.67-1.12-0.92-1.72c-0.25-0.61-0.44-1.24-0.57-1.88
	c-0.13-0.641-0.19-1.301-0.19-1.95c0-0.65,0.06-1.31,0.19-1.95c0.13-0.64,0.32-1.271,0.57-1.87c0.25-0.61,0.56-1.189,0.92-1.729
	c0.37-0.551,0.79-1.061,1.25-1.521s0.97-0.88,1.52-1.24c0.54-0.359,1.12-0.67,1.72-0.92c0.61-0.25,1.24-0.45,1.87-0.569
	c1.29-0.261,2.62-0.261,3.91,0c0.64,0.119,1.27,0.319,1.87,0.569c0.61,0.25,1.19,0.561,1.73,0.92c0.55,0.36,1.06,0.78,1.52,1.24
	s0.88,0.97,1.24,1.521c0.36,0.54,0.67,1.119,0.92,1.729c0.25,0.6,0.44,1.23,0.57,1.87c0.13,0.64,0.2,1.3,0.2,1.95
	c0,2.64-1.07,5.21-2.93,7.069c-0.46,0.46-0.97,0.881-1.52,1.24c-0.54,0.36-1.12,0.67-1.73,0.92c-0.6,0.25-1.23,0.45-1.87,0.58
	C133.83,335.94,133.17,336,132.52,336z"/>
<path d="M451.5,181H177.038v-11c0-5.523-4.477-10-10-10H110V61c0-5.522-4.477-10-10-10H30c-5.523,0-10,4.478-10,10v297H10
	c-5.523,0-10,4.478-10,10v134c0,5.522,4.477,10,10,10h492c5.523,0,10-4.478,10-10V241.5C512,208.141,484.86,181,451.5,181z
	 M413.255,339.576v-30.81c0-3.425-1.753-6.612-4.646-8.446c-2.893-1.833-6.523-2.06-9.621-0.598l-84.478,39.854v-30.81
	c0-3.445-1.773-6.647-4.693-8.476c-2.92-1.829-6.575-2.024-9.674-0.52L182.67,356.804c-0.682,0.331-1.314,0.734-1.891,1.196h-3.742
	V248H445v76.6L413.255,339.576z M451.5,201c22.331,0,40.5,18.168,40.5,40.5v60.927l-27,12.738V238c0-5.523-4.477-10-10-10H177.038
	v-27H451.5z M122.519,180v109.333c0,5.522,4.477,10,10,10c5.523,0,10-4.478,10-10V180h14.519v178H110V180H122.519z M40,71h50v287
	H73.718V144.651c0-5.522-4.477-10-10-10s-10,4.478-10,10V358H40V71z M20,378h157.038v114H20V378z M492,492H197.038V372.061
	l97.473-47.323v30.612c0,3.425,1.753,6.612,4.646,8.446s6.524,2.06,9.621,0.598l84.478-39.854v30.81
	c0,3.425,1.753,6.612,4.646,8.446s6.524,2.06,9.621,0.598l51.739-24.408l0.006-0.003l28.069-13.242l4.665-2.201V492H492z"/>
<g>
</g>
<g>
</g>
<g>
</g>
<g>
</g>
<g>
</g>
<g>
</g>
<g>
</g>
<g>
</g>
<g>
</g>
<g>
</g>
<g>
</g>
<g>
</g>
<g>
</g>
<g>
</g>
<g>
</g>
</svg>
