<?xml version="1.0" encoding="iso-8859-1"?>
<!-- Generator: Adobe Illustrator 19.0.0, SVG Export Plug-In . SVG Version: 6.00 Build 0)  -->
<svg version="1.1" id="Capa_1" xmlns="http://www.w3.org/2000/svg" xmlns:xlink="http://www.w3.org/1999/xlink" x="0px" y="0px"
	 viewBox="0 0 512 512" style="enable-background:new 0 0 512 512;" xml:space="preserve">
<path style="fill:#3ABEB6;" d="M367.983,73.289c0-28.016,22.711-50.727,50.727-50.727s50.727,22.711,50.727,50.727
	s-22.711,50.727-50.727,50.727c-6.05,0-11.853-1.06-17.233-3.003c-4.957,13.702-18.082,23.494-33.494,23.494
	c-19.666,0-35.609-15.943-35.609-35.609S348.317,73.289,367.983,73.289z"/>
<path d="M367.983,154.507c-25.149,0-45.609-20.46-45.609-45.608c0-21.953,15.59-40.334,36.281-44.65
	c4.379-29.212,29.642-51.686,60.055-51.686c33.485,0,60.728,27.242,60.728,60.727s-27.242,60.728-60.728,60.728
	c-4.026,0-8.009-0.392-11.91-1.169C398.603,146.089,383.956,154.507,367.983,154.507z M418.71,32.563
	c-22.457,0-40.727,18.27-40.727,40.727c0,5.522-4.478,10-10,10c-14.121,0-25.609,11.488-25.609,25.609
	c0,14.12,11.488,25.608,25.609,25.608c10.753,0,20.434-6.79,24.091-16.896c1.879-5.19,7.608-7.877,12.801-6.003
	c4.424,1.598,9.078,2.408,13.835,2.408c22.457,0,40.728-18.271,40.728-40.728C459.438,50.832,441.167,32.563,418.71,32.563z"/>
<rect x="140.42" y="55.2" style="fill:#008079;" width="93.04" height="39.798"/>
<rect x="128.97" y="333.23" style="fill:#8C9AA2;" width="118.92" height="156.21"/>
<polygon style="fill:#E7ECED;" points="231.671,333.233 218.473,94.995 156.394,94.995 143.195,333.233 "/>
<rect x="164.27" y="360.67" style="fill:#FFD480;" width="46.33" height="128.77"/>
<rect x="21.459" y="55.2" style="fill:#008079;" width="93.04" height="39.798"/>
<rect x="10" y="333.23" style="fill:#8C9AA2;" width="118.92" height="156.21"/>
<polygon style="fill:#E7ECED;" points="112.707,333.233 99.508,94.995 37.429,94.995 24.231,333.233 "/>
<rect x="45.3" y="360.67" style="fill:#FFD480;" width="46.33" height="128.77"/>
<rect x="247.89" y="437.97" style="fill:#008079;" width="254.11" height="51.47"/>
<polygon style="fill:#C4C6C9;" points="478.585,437.966 437.661,247.273 312.229,247.273 271.305,437.966 "/>
<polygon style="fill:#E7ECED;" points="320.503,207.203 312.229,247.273 437.661,247.273 429.386,207.203 "/>
<path style="fill:#FDB845;" d="M416.48,385.829c6.522-8.679,10.387-19.469,10.387-31.16c0-28.676-23.246-51.922-51.922-51.922
	v51.922L416.48,385.829z"/>
<path style="fill:#FFD480;" d="M374.945,354.669l-41.536,31.16c9.473,12.607,24.552,20.762,41.536,20.762
	s32.063-8.155,41.536-20.762L374.945,354.669z"/>
<path style="fill:#FDB845;" d="M374.945,302.747c-28.676,0-51.922,23.246-51.922,51.922c0,11.692,3.865,22.481,10.386,31.16
	l41.536-31.16V302.747z"/>
<path d="M67.98,156.85c-0.65,0-1.31-0.07-1.96-0.2c-0.63-0.13-1.26-0.319-1.87-0.569c-0.6-0.25-1.18-0.561-1.72-0.92
	c-0.55-0.36-1.06-0.78-1.52-1.24c-1.86-1.86-2.93-4.44-2.93-7.07c0-0.649,0.06-1.31,0.19-1.95c0.13-0.64,0.32-1.27,0.57-1.87
	c0.25-0.609,0.56-1.189,0.92-1.729c0.37-0.55,0.78-1.06,1.25-1.521c0.46-0.46,0.97-0.88,1.52-1.239c0.54-0.36,1.12-0.67,1.72-0.92
	c0.61-0.25,1.24-0.45,1.87-0.57c1.29-0.26,2.62-0.26,3.91,0c0.64,0.12,1.27,0.32,1.87,0.57c0.61,0.25,1.19,0.56,1.73,0.92
	c0.55,0.359,1.06,0.779,1.52,1.239c0.46,0.461,0.88,0.971,1.24,1.521c0.36,0.54,0.67,1.12,0.92,1.729
	c0.25,0.601,0.44,1.23,0.57,1.87c0.13,0.641,0.2,1.301,0.2,1.95c0,0.65-0.07,1.311-0.2,1.95c-0.13,0.64-0.32,1.27-0.57,1.87
	c-0.25,0.609-0.56,1.189-0.92,1.729c-0.36,0.551-0.78,1.061-1.24,1.521c-0.46,0.46-0.97,0.88-1.52,1.24
	c-0.54,0.359-1.12,0.67-1.73,0.92c-0.6,0.25-1.23,0.439-1.87,0.569C69.29,156.779,68.63,156.85,67.98,156.85z"/>
<path d="M186.94,156.85c-0.65,0-1.31-0.07-1.95-0.2c-0.64-0.13-1.27-0.319-1.87-0.569c-0.61-0.25-1.19-0.561-1.73-0.92
	c-0.55-0.36-1.06-0.78-1.52-1.24s-0.88-0.97-1.24-1.521c-0.36-0.54-0.67-1.12-0.92-1.729c-0.25-0.601-0.44-1.23-0.57-1.87
	s-0.2-1.3-0.2-1.95c0-0.649,0.07-1.31,0.2-1.95c0.13-0.64,0.32-1.27,0.57-1.87c0.25-0.609,0.56-1.189,0.92-1.729
	c0.36-0.55,0.78-1.06,1.24-1.521c0.46-0.46,0.97-0.88,1.52-1.239c0.54-0.36,1.12-0.67,1.73-0.92c0.6-0.25,1.23-0.45,1.87-0.57
	c3.25-0.66,6.7,0.41,9.02,2.729c0.46,0.461,0.88,0.971,1.25,1.521c0.36,0.54,0.67,1.12,0.92,1.729c0.25,0.601,0.44,1.23,0.57,1.87
	c0.13,0.641,0.19,1.301,0.19,1.95c0,0.65-0.06,1.311-0.19,1.95c-0.13,0.64-0.32,1.27-0.57,1.87c-0.25,0.609-0.56,1.189-0.92,1.729
	c-0.37,0.551-0.79,1.061-1.25,1.521C192.15,155.779,189.58,156.85,186.94,156.85z"/>
<path d="M502,427.966h-15.333l-47.488-222.785c-0.959-4.645-5.05-7.978-9.793-7.978H320.503c-4.743,0-8.834,3.332-9.793,7.978
	l-47.487,222.785h-5.333v-94.733c0-5.522-4.477-10-10-10h-6.757l-12.091-218.237h4.418c5.523,0,10-4.478,10-10V55.197
	c0-5.522-4.477-10-10-10h-93.037c-5.523,0-10,4.478-10,10v39.798c0,5.522,4.477,10,10,10h5.401l-12.091,218.237h-4.769
	c-0.007,0-0.013,0-0.02,0s-0.013,0-0.02,0h-6.757l-12.091-218.237h4.419c5.523,0,10-4.478,10-10V55.197c0-5.522-4.477-10-10-10
	H21.459c-5.523,0-10,4.478-10,10v39.798c0,5.522,4.477,10,10,10h5.401L14.769,323.232H10c-5.523,0-10,4.478-10,10v156.205
	c0,5.522,4.477,10,10,10h492c5.522,0,10-4.478,10-10v-51.472C512,432.443,507.522,427.966,502,427.966z M328.649,217.203h92.591
	l4.145,20.07h-100.88L328.649,217.203z M320.31,257.273h109.268l36.633,170.692H283.679L320.31,257.273z M150.424,65.197h73.037
	v19.798h-73.037V65.197z M165.855,104.995h43.156l12.091,218.237h-24.16V183.727c0-5.522-4.477-10-10-10s-10,4.478-10,10v139.505
	h-23.178L165.855,104.995z M31.459,65.197h73.037v19.798H31.459V65.197z M46.891,104.995h43.156l12.091,218.237h-24.16V183.727
	c0-5.522-4.477-10-10-10s-10,4.478-10,10v139.505H34.8L46.891,104.995z M55.304,479.438V370.665h26.329v108.772L55.304,479.438
	L55.304,479.438z M118.925,479.438h-17.292V360.665c0-5.522-4.477-10-10-10H45.304c-5.523,0-10,4.478-10,10v118.772H20V343.232
	h98.925V479.438z M138.965,343.232h98.925v136.205h-17.292V360.665c0-5.522-4.477-10-10-10h-46.329c-5.523,0-10,4.478-10,10v118.772
	h-15.304V343.232z M174.269,479.438V370.665h26.329v108.772L174.269,479.438L174.269,479.438z M492,479.438H257.89v-31.472H492
	V479.438z"/>
<path d="M436.867,354.669c0-34.144-27.778-61.922-61.923-61.922c-34.143,0-61.922,27.778-61.922,61.922
	c0,13.517,4.279,26.361,12.376,37.146c0.005,0.007,0.01,0.014,0.016,0.021c11.82,15.732,29.874,24.755,49.53,24.755
	c19.639,0,37.677-9.007,49.499-24.713c0.01-0.014,0.021-0.027,0.031-0.04C432.582,381.048,436.867,368.195,436.867,354.669z
	 M416.867,354.669c0,5.739-1.139,11.299-3.338,16.445l-11.094-8.323l-17.491-13.122v-35.718
	C403.248,318.448,416.867,334.998,416.867,354.669z M364.944,313.952v35.718l-10.874,8.158l-17.71,13.287
	c-2.199-5.146-3.338-10.706-3.338-16.445C333.022,334.998,346.642,318.448,364.944,313.952z M374.944,396.591
	c-9.887,0-19.177-3.374-26.583-9.477l23.853-17.895l2.73-2.048l26.583,19.942C394.121,393.217,384.831,396.591,374.944,396.591z"/>
<g>
</g>
<g>
</g>
<g>
</g>
<g>
</g>
<g>
</g>
<g>
</g>
<g>
</g>
<g>
</g>
<g>
</g>
<g>
</g>
<g>
</g>
<g>
</g>
<g>
</g>
<g>
</g>
<g>
</g>
</svg>
