<?xml version="1.0" encoding="iso-8859-1"?>
<!-- Generator: Adobe Illustrator 19.0.0, SVG Export Plug-In . SVG Version: 6.00 Build 0)  -->
<svg version="1.1" id="Capa_1" xmlns="http://www.w3.org/2000/svg" xmlns:xlink="http://www.w3.org/1999/xlink" x="0px" y="0px"
	 viewBox="0 0 512 512" style="enable-background:new 0 0 512 512;" xml:space="preserve">
<path style="fill:#FDB845;" d="M60.5,10C32.61,10,10,32.61,10,60.5V502h47V57h86.692v179.512h47V57h102.294v84.547h47V57h62.793V10
	H60.5z"/>
<rect x="402.78" y="10" style="fill:#009D93;" width="84.56" height="47"/>
<polygon style="fill:#8C9AA2;" points="391.134,502 391.134,199.751 361.083,141.547 271.889,141.547 241.839,199.751 241.839,502 
	"/>
<rect x="281.84" y="209.47" style="fill:#E7ECED;" width="69.29" height="252.53"/>
<polygon style="fill:#C4C6C9;" points="241.839,502 241.839,294.717 211.789,236.512 122.595,236.512 92.545,294.717 92.545,502 "/>
<rect x="132.54" y="304.43" style="fill:#E7ECED;" width="69.29" height="157.57"/>
<rect x="391.13" y="343.25" style="fill:#009D93;" width="110.87" height="158.75"/>
<polygon style="fill:#E7ECED;" points="486.145,343.245 471.865,57 419.249,57 404.969,343.245 "/>
<rect x="427.01" y="371.12" style="fill:#3ABEB6;" width="37.09" height="130.87"/>
<path d="M167.189,353.96c-2.63,0-5.21-1.061-7.069-2.931c-0.46-0.46-0.88-0.97-1.24-1.52c-0.36-0.54-0.67-1.12-0.92-1.72
	c-0.25-0.61-0.441-1.24-0.57-1.87c-0.13-0.65-0.2-1.31-0.2-1.96s0.07-1.311,0.2-1.95c0.13-0.64,0.32-1.27,0.57-1.87
	c0.25-0.61,0.559-1.189,0.92-1.729c0.36-0.551,0.78-1.061,1.24-1.521s0.97-0.88,1.52-1.24c0.54-0.359,1.12-0.67,1.73-0.92
	c0.6-0.25,1.229-0.439,1.87-0.569c3.25-0.66,6.699,0.409,9.02,2.729c0.46,0.46,0.88,0.97,1.25,1.521
	c0.36,0.54,0.67,1.119,0.92,1.729c0.25,0.601,0.44,1.23,0.57,1.87c0.13,0.64,0.189,1.3,0.189,1.95c0,2.63-1.06,5.21-2.93,7.069
	C172.399,352.899,169.83,353.96,167.189,353.96z"/>
<path d="M316.49,263.96c-0.66,0-1.311-0.07-1.96-0.2c-0.641-0.12-1.271-0.32-1.87-0.56c-0.601-0.25-1.181-0.561-1.73-0.921
	c-0.54-0.369-1.05-0.789-1.51-1.25c-0.47-0.46-0.88-0.97-1.25-1.52c-0.36-0.54-0.67-1.12-0.92-1.72c-0.25-0.61-0.44-1.24-0.57-1.87
	c-0.13-0.65-0.189-1.311-0.189-1.96c0-0.65,0.06-1.311,0.189-1.95c0.13-0.64,0.32-1.27,0.57-1.87c0.25-0.61,0.56-1.189,0.92-1.729
	c0.37-0.551,0.78-1.061,1.25-1.521c0.46-0.46,0.97-0.88,1.51-1.24c0.55-0.359,1.13-0.67,1.73-0.92s1.229-0.44,1.87-0.569
	c3.25-0.66,6.699,0.409,9.029,2.729c0.46,0.46,0.88,0.97,1.24,1.521c0.36,0.54,0.67,1.119,0.92,1.729
	c0.25,0.601,0.44,1.23,0.57,1.87s0.2,1.3,0.2,1.95c0,0.649-0.07,1.309-0.2,1.96c-0.13,0.63-0.32,1.26-0.57,1.87
	c-0.25,0.6-0.56,1.18-0.92,1.72c-0.36,0.55-0.78,1.06-1.24,1.52C321.7,262.89,319.12,263.96,316.49,263.96z"/>
<path d="M351.134,472c5.523,0,10-4.478,10-10V209.468c0-5.523-4.477-10-10-10H281.84c-5.522,0-10,4.477-10,10V462
	c0,5.522,4.478,10,10,10H351.134z M291.84,219.468h49.294V452h-14.647V290.628c0-5.522-4.478-10-10-10s-10,4.478-10,10V452H291.84
	V219.468z"/>
<path d="M201.839,294.433h-69.294c-5.522,0-10,4.478-10,10V462c0,5.522,4.478,10,10,10h69.294c5.522,0,10-4.478,10-10V304.433
	C211.839,298.91,207.361,294.433,201.839,294.433z M191.839,452h-14.646v-71.372c0-5.522-4.478-10-10-10s-10,4.478-10,10V452
	h-14.647V314.433h49.294L191.839,452L191.839,452z"/>
<path d="M502,333.245h-6.342L482.375,67h4.961c5.522,0,10-4.478,10-10V10c0-5.523-4.478-10-10-10H60.5C27.141,0,0,27.141,0,60.5V502
	c0,5.522,4.477,10,10,10h492c5.522,0,10-4.478,10-10V343.245C512,337.723,507.522,333.245,502,333.245z M475.633,333.245H415.48
	L428.762,67h33.589L475.633,333.245z M408.737,67l-7.603,152.416v-19.665c0-1.597-0.382-3.169-1.114-4.588l-30.051-58.204
	c-1.717-3.324-5.145-5.412-8.886-5.412h-11.097V67H408.737z M477.336,47h-64.557V20h64.557V47z M20,492V60.5
	C20,38.168,38.168,20,60.5,20h332.279v27h-52.793c-5.522,0-10,4.478-10,10v74.547h-27V57c0-5.522-4.478-10-10-10H190.691
	c-5.523,0-10,4.478-10,10v169.513h-27V57c0-5.522-4.478-10-10-10H57c-5.522,0-10,4.478-10,10v435H20z M271.89,131.547
	c-3.741,0-7.169,2.088-8.886,5.412l-30.051,58.204c-0.732,1.419-1.114,2.991-1.114,4.588v53.798l-11.164-21.624
	c-1.717-3.324-5.145-5.412-8.886-5.412h-11.098V67h82.295v64.547H271.89z M122.595,226.513c-3.741,0-7.169,2.088-8.886,5.412
	l-30.05,58.204c-0.732,1.419-1.114,2.992-1.114,4.588V492H67V67h66.691v159.513H122.595z M102.545,297.146l26.141-50.633h77.013
	l26.141,50.633V492H102.545V297.146z M251.839,492V202.18l26.142-50.633h77.012l26.142,50.633V492H251.839z M437.014,492V381.125
	H454.1V492H437.014z M492,492h-17.9V371.125c0-5.522-4.478-10-10-10h-37.086c-5.522,0-10,4.478-10,10V492h-15.88V353.245H492V492z"
	/>
<g>
</g>
<g>
</g>
<g>
</g>
<g>
</g>
<g>
</g>
<g>
</g>
<g>
</g>
<g>
</g>
<g>
</g>
<g>
</g>
<g>
</g>
<g>
</g>
<g>
</g>
<g>
</g>
<g>
</g>
</svg>
