<?xml version="1.0" encoding="iso-8859-1"?>
<!-- Generator: Adobe Illustrator 19.0.0, SVG Export Plug-In . SVG Version: 6.00 Build 0)  -->
<svg version="1.1" id="Capa_1" xmlns="http://www.w3.org/2000/svg" xmlns:xlink="http://www.w3.org/1999/xlink" x="0px" y="0px"
	 viewBox="0 0 512 512" style="enable-background:new 0 0 512 512;" xml:space="preserve">
<path style="fill:#3ABEB6;" d="M479.602,10H296.415c-12.207,0-22.103,9.896-22.103,22.103l0,0c0,12.207,9.896,22.103,22.103,22.103
	h-35.754c-12.207,0-22.103,9.896-22.103,22.103l0,0c0,12.207,9.896,22.103,22.103,22.103h173.186
	c12.207,0,22.103-9.896,22.103-22.103l0,0c0-12.207-9.896-22.103-22.103-22.103h45.754c12.207,0,22.103-9.896,22.103-22.103l0,0
	C501.705,19.896,491.809,10,479.602,10z"/>
<path d="M389.57,64.2c-0.65,0-1.31-0.061-1.95-0.19c-0.64-0.13-1.27-0.32-1.87-0.57s-1.19-0.56-1.73-0.92
	c-0.54-0.37-1.06-0.779-1.52-1.25c-0.46-0.46-0.88-0.97-1.24-1.51c-0.36-0.55-0.67-1.13-0.92-1.73s-0.44-1.229-0.57-1.869
	c-0.13-0.641-0.2-1.301-0.2-1.95c0-0.66,0.07-1.311,0.2-1.96c0.13-0.641,0.32-1.271,0.57-1.87c0.25-0.601,0.56-1.18,0.92-1.731
	c0.36-0.54,0.78-1.05,1.24-1.51c0.46-0.47,0.98-0.88,1.52-1.25c0.54-0.36,1.13-0.67,1.73-0.92s1.23-0.44,1.87-0.57
	c3.25-0.649,6.7,0.41,9.03,2.74c0.46,0.46,0.87,0.97,1.24,1.51c0.36,0.551,0.671,1.13,0.921,1.731c0.25,0.6,0.44,1.229,0.57,1.87
	c0.13,0.649,0.19,1.3,0.19,1.96c0,0.649-0.06,1.31-0.19,1.95s-0.32,1.27-0.57,1.869c-0.25,0.601-0.56,1.181-0.921,1.73
	c-0.37,0.54-0.79,1.05-1.25,1.51C394.78,63.14,392.21,64.2,389.57,64.2z"/>
<path d="M479.602,0H296.415c-17.702,0-32.103,14.401-32.103,32.103c0,4.279,0.842,8.366,2.368,12.104h-6.02
	c-17.702,0-32.103,14.401-32.103,32.104c0,17.701,14.401,32.103,32.103,32.103h173.187c17.702,0,32.103-14.401,32.103-32.104
	c0-4.279-0.842-8.365-2.368-12.103h16.019c17.702,0,32.104-14.401,32.104-32.104C511.705,14.401,497.304,0,479.602,0z
	 M479.602,44.206h-45.754c-5.523,0-10,4.478-10,10s4.477,10,10,10c6.674,0,12.103,5.43,12.103,12.104s-5.429,12.103-12.103,12.103
	H260.661c-6.674,0-12.103-5.43-12.103-12.104s5.429-12.103,12.103-12.103h92.245c5.523,0,10-4.478,10-10s-4.477-10-10-10h-56.491
	c-6.674,0-12.103-5.43-12.103-12.104s5.429-12.103,12.103-12.103h183.186c6.674,0,12.104,5.429,12.104,12.103
	C491.705,38.776,486.275,44.206,479.602,44.206z"/>
<polygon style="fill:#FDB845;" points="387.533,293.59 387.533,252.513 300.462,293.59 300.462,252.513 196.877,302.804 
	196.877,437.311 474.604,437.311 474.604,252.513 "/>
<polygon style="fill:#8C9AA2;" points="104.329,85.691 36.805,153.214 36.805,437.311 196.877,437.311 196.877,85.691 "/>
<g>
	<rect x="36.805" y="176.72" style="fill:#E7ECED;" width="85.3" height="48.669"/>
	<rect x="36.805" y="257.11" style="fill:#E7ECED;" width="85.3" height="48.669"/>
	<rect x="36.805" y="337.51" style="fill:#E7ECED;" width="85.3" height="48.669"/>
	<rect x="236.74" y="356.68" style="fill:#E7ECED;" width="198" height="80.63"/>
</g>
<path d="M266.91,396.18c-0.66,0-1.31-0.06-1.96-0.189c-0.64-0.131-1.27-0.33-1.87-0.58s-1.18-0.561-1.73-0.92
	c-0.54-0.36-1.06-0.78-1.52-1.24c-1.86-1.86-2.92-4.44-2.92-7.07c0-0.65,0.06-1.31,0.19-1.95s0.32-1.27,0.57-1.88
	c0.25-0.6,0.56-1.18,0.92-1.72c0.36-0.55,0.78-1.061,1.24-1.521s0.98-0.88,1.52-1.239c0.55-0.36,1.13-0.67,1.73-0.92
	s1.23-0.45,1.87-0.57c1.29-0.26,2.62-0.26,3.91,0c0.64,0.12,1.27,0.32,1.87,0.57s1.19,0.56,1.73,0.92
	c0.54,0.359,1.06,0.779,1.52,1.239c0.46,0.46,0.88,0.971,1.24,1.521c0.36,0.54,0.67,1.12,0.92,1.72c0.25,0.61,0.441,1.24,0.57,1.88
	c0.13,0.641,0.2,1.3,0.2,1.95c0,0.65-0.07,1.311-0.2,1.95c-0.13,0.64-0.32,1.27-0.57,1.87c-0.25,0.609-0.559,1.19-0.92,1.729
	c-0.36,0.55-0.78,1.061-1.24,1.521s-0.98,0.88-1.52,1.24c-0.55,0.359-1.13,0.67-1.73,0.92s-1.23,0.449-1.87,0.58
	C268.21,396.12,267.56,396.18,266.91,396.18z"/>
<rect x="10.295" y="437.31" style="fill:#009D93;" width="490.82" height="64.69"/>
<path d="M463.62,479.66c-0.65,0-1.31-0.07-1.96-0.2c-0.63-0.13-1.26-0.32-1.87-0.57c-0.6-0.25-1.18-0.559-1.72-0.92
	c-0.55-0.36-1.06-0.78-1.52-1.24s-0.88-0.979-1.25-1.52c-0.36-0.55-0.67-1.13-0.92-1.73s-0.44-1.229-0.57-1.87
	c-0.13-0.649-0.19-1.3-0.19-1.96c0-2.63,1.07-5.21,2.93-7.069c0.46-0.46,0.97-0.88,1.52-1.24c0.54-0.36,1.12-0.67,1.72-0.92
	c0.61-0.25,1.23-0.44,1.87-0.57c1.29-0.26,2.62-0.26,3.91,0c0.64,0.13,1.27,0.32,1.87,0.57c0.61,0.25,1.19,0.56,1.73,0.92
	c0.55,0.36,1.06,0.78,1.52,1.24s0.88,0.979,1.24,1.52c0.36,0.55,0.67,1.13,0.92,1.73s0.44,1.229,0.57,1.87
	c0.13,0.649,0.2,1.3,0.2,1.949c0,0.66-0.07,1.311-0.2,1.96c-0.13,0.641-0.32,1.271-0.57,1.87c-0.25,0.601-0.56,1.181-0.92,1.73
	c-0.36,0.54-0.78,1.06-1.24,1.52s-0.97,0.88-1.52,1.24c-0.54,0.36-1.12,0.67-1.73,0.92c-0.6,0.25-1.23,0.441-1.87,0.57
	C464.93,479.59,464.27,479.66,463.62,479.66z"/>
<path d="M501.115,427.31h-16.51V252.514c0-3.425-1.753-6.612-4.646-8.446c-2.893-1.833-6.522-2.059-9.621-0.598l-72.805,34.346
	v-25.302c0-3.425-1.753-6.612-4.646-8.446c-2.892-1.833-6.522-2.059-9.621-0.598l-72.805,34.346v-25.302
	c0-3.445-1.773-6.648-4.693-8.476c-2.92-1.828-6.575-2.023-9.674-0.521l-89.217,43.315V85.69c0-5.522-4.477-10-10-10h-92.548
	c-2.652,0-5.196,1.054-7.071,2.929l-67.524,67.523c-1.875,1.876-2.929,4.419-2.929,7.071V427.31h-16.51c-5.523,0-10,4.478-10,10V502
	c0,5.522,4.477,10,10,10h490.82c5.523,0,10-4.478,10-10v-64.69C511.115,431.788,506.638,427.31,501.115,427.31z M290.462,268.485
	v25.104c0,3.425,1.753,6.612,4.646,8.446s6.523,2.06,9.621,0.598l72.805-34.346v25.302c0,3.425,1.753,6.612,4.646,8.446
	s6.523,2.06,9.621,0.598l72.805-34.346V427.31h-19.864v-70.63c0-5.522-4.477-10-10-10h-198c-5.523,0-10,4.478-10,10v70.631h-19.864
	V309.066L290.462,268.485z M424.741,376.18H303.572c-5.523,0-10,4.478-10,10s4.477,10,10,10H424.74v31.131h-178V366.68h178v9.5
	H424.741z M46.805,186.715h65.301v28.669H46.805V186.715z M46.805,267.113h65.301v28.668H46.805V267.113z M46.805,347.511h65.301
	v28.669H46.805V347.511z M46.805,396.18h75.301c5.523,0,10-4.478,10-10v-48.669c0-5.522-4.477-10-10-10H46.805v-11.729h75.301
	c5.523,0,10-4.478,10-10v-48.668c0-5.523-4.477-10-10-10H46.805v-11.729h75.301c5.523,0,10-4.478,10-10v-48.669
	c0-5.522-4.477-10-10-10H46.805v-9.358l61.666-61.666h78.406v331.62H46.805V396.18z M491.115,492H20.295v-12.345h406.656
	c5.523,0,10-4.478,10-10s-4.477-10-10-10H20.295V447.31h470.82L491.115,492L491.115,492z"/>
<g>
</g>
<g>
</g>
<g>
</g>
<g>
</g>
<g>
</g>
<g>
</g>
<g>
</g>
<g>
</g>
<g>
</g>
<g>
</g>
<g>
</g>
<g>
</g>
<g>
</g>
<g>
</g>
<g>
</g>
</svg>
