<?xml version="1.0" encoding="iso-8859-1"?>
<!-- Generator: Adobe Illustrator 19.0.0, SVG Export Plug-In . SVG Version: 6.00 Build 0)  -->
<svg version="1.1" id="Capa_1" xmlns="http://www.w3.org/2000/svg" xmlns:xlink="http://www.w3.org/1999/xlink" x="0px" y="0px"
	 viewBox="0 0 512 512" style="enable-background:new 0 0 512 512;" xml:space="preserve">
<rect x="180.62" y="87.24" style="fill:#3ABEB6;" width="150.76" height="42.531"/>
<polygon style="fill:#E7ECED;" points="283.959,129.771 289.754,170.049 256,194.573 222.246,170.049 228.041,129.771 "/>
<g>
	<path style="fill:#8C9AA2;" d="M256,291.582L256,291.582c-51.614,0-93.456-41.842-93.456-93.456v-3.554h186.912v3.554
		C349.456,249.741,307.614,291.582,256,291.582z"/>
	<path style="fill:#8C9AA2;" d="M256,251.583c-15.403,0-29.308-6.55-39.071-17.01"/>
</g>
<path d="M256,261.582c-17.501,0-34.406-7.357-46.381-20.186c-3.77-4.037-3.552-10.365,0.485-14.134
	c4.038-3.768,10.366-3.551,14.134,0.486c8.328,8.921,19.607,13.834,31.762,13.834c5.522,0,10,4.477,10,10
	C266,257.105,261.522,261.582,256,261.582z"/>
<rect x="175.09" y="376.28" style="fill:#009D93;" width="161.82" height="48.48"/>
<polygon style="fill:#FDB845;" points="140.177,327.758 371.823,327.758 371.793,376.284 140.207,376.284 "/>
<rect x="40" y="10" style="fill:#C4C6C9;" width="432" height="77.24"/>
<path d="M471.999,0H40.001c-5.522,0-10,4.477-10,10v77.24c0,5.523,4.478,10,10,10h130.616v32.531c0,5.523,4.477,10,10,10h35.882
	l-4.151,28.854c-0.528,3.672,1.02,7.334,4.02,9.515l8.855,6.433h-81.81c-5.523,0-10,4.477-10,10s4.477,10,10,10h9.33
	c3.339,54.055,48.376,97.01,103.257,97.01s99.918-42.955,103.257-97.01h9.33c5.522,0,10-4.477,10-10s-4.478-10-10-10h-81.81
	l8.854-6.433c3.001-2.181,4.549-5.843,4.021-9.515l-4.151-28.854h35.882c5.522,0,10-4.477,10-10V97.24h130.616
	c5.523,0,10-4.477,10-10V10C481.999,4.477,477.522,0,471.999,0z M256,281.582c-43.85,0-79.909-33.992-83.21-77.01h166.42
	C335.909,247.59,299.85,281.582,256,281.582z M278.997,165.504L256,182.212l-22.997-16.708l3.702-25.732h38.59L278.997,165.504z
	 M321.383,119.771H190.617V97.24h130.766V119.771z M461.999,77.24H50.001V58.62h340.531c5.522,0,10-4.477,10-10s-4.478-10-10-10
	H50.001V20h411.998V77.24z"/>
<path d="M426.18,58.62c-2.63,0-5.21-1.07-7.07-2.93c-1.859-1.86-2.93-4.44-2.93-7.07c0-0.65,0.07-1.309,0.2-1.95
	c0.13-0.64,0.32-1.27,0.57-1.87c0.25-0.61,0.56-1.19,0.92-1.73c0.359-0.55,0.779-1.06,1.239-1.52c2.32-2.32,5.78-3.39,9.03-2.73
	c0.63,0.12,1.26,0.32,1.87,0.57c0.6,0.25,1.18,0.56,1.72,0.921c0.551,0.36,1.061,0.78,1.521,1.24s0.88,0.97,1.25,1.52
	c0.359,0.54,0.67,1.12,0.92,1.73c0.25,0.6,0.44,1.23,0.57,1.87s0.189,1.3,0.189,1.95c0,2.63-1.07,5.21-2.93,7.07
	c-0.46,0.46-0.97,0.88-1.521,1.24c-0.54,0.36-1.12,0.67-1.72,0.92c-0.61,0.25-1.24,0.44-1.87,0.57
	C427.49,58.55,426.83,58.62,426.18,58.62z"/>
<rect x="40" y="424.76" style="fill:#8C9AA2;" width="432" height="77.24"/>
<path d="M471.999,414.76H346.911v-28.476h24.882c5.521,0,9.997-4.474,10-9.994l0.023-38.532h8.871c5.522,0,10-4.477,10-10
	s-4.478-10-10-10H121.313c-5.522,0-10,4.477-10,10s4.478,10,10,10h8.871l0.023,38.532c0.003,5.52,4.479,9.994,10,9.994h24.882
	v28.476H40.001c-5.522,0-10,4.477-10,10V502c0,5.523,4.478,10,10,10h431.998c5.523,0,10-4.477,10-10v-77.24
	C481.999,419.237,477.522,414.76,471.999,414.76z M150.184,337.757h211.633l-0.018,28.526H150.201L150.184,337.757z
	 M185.089,386.284h141.822v28.476H185.089V386.284z M50.001,492v-57.24h411.998v18.62H120.291c-5.522,0-10,4.477-10,10
	s4.478,10,10,10h341.708V492H50.001z"/>
<path d="M84.64,473.38c-0.649,0-1.31-0.07-1.95-0.19c-0.64-0.13-1.27-0.33-1.87-0.58c-0.609-0.25-1.189-0.56-1.729-0.92
	c-0.55-0.36-1.06-0.78-1.521-1.24c-0.46-0.46-0.88-0.97-1.239-1.52c-0.36-0.54-0.67-1.12-0.92-1.73c-0.25-0.6-0.44-1.23-0.57-1.87
	c-0.13-0.64-0.2-1.3-0.2-1.95c0-0.65,0.07-1.31,0.2-1.95c0.13-0.64,0.32-1.27,0.57-1.87c0.25-0.61,0.56-1.19,0.92-1.73
	c0.359-0.55,0.779-1.06,1.239-1.52c0.461-0.46,0.971-0.88,1.521-1.24c0.54-0.36,1.12-0.67,1.729-0.92
	c0.601-0.25,1.23-0.44,1.87-0.57c1.29-0.26,2.62-0.26,3.91,0c0.63,0.13,1.26,0.32,1.87,0.57c0.6,0.25,1.18,0.56,1.72,0.92
	c0.551,0.36,1.061,0.78,1.521,1.24s0.88,0.97,1.25,1.52c0.359,0.54,0.67,1.12,0.92,1.73c0.25,0.6,0.439,1.23,0.57,1.87
	c0.13,0.64,0.189,1.3,0.189,1.95c0,0.65-0.06,1.31-0.189,1.95c-0.131,0.64-0.32,1.27-0.57,1.87c-0.25,0.61-0.561,1.19-0.92,1.73
	c-0.37,0.55-0.79,1.06-1.25,1.52c-0.46,0.46-0.97,0.88-1.521,1.24c-0.54,0.36-1.12,0.67-1.72,0.92c-0.61,0.25-1.24,0.45-1.87,0.58
	C85.95,473.31,85.29,473.38,84.64,473.38z"/>
<g>
</g>
<g>
</g>
<g>
</g>
<g>
</g>
<g>
</g>
<g>
</g>
<g>
</g>
<g>
</g>
<g>
</g>
<g>
</g>
<g>
</g>
<g>
</g>
<g>
</g>
<g>
</g>
<g>
</g>
</svg>
