<?xml version="1.0" encoding="iso-8859-1"?>
<!-- Generator: Adobe Illustrator 19.0.0, SVG Export Plug-In . SVG Version: 6.00 Build 0)  -->
<svg version="1.1" id="Capa_1" xmlns="http://www.w3.org/2000/svg" xmlns:xlink="http://www.w3.org/1999/xlink" x="0px" y="0px"
	 viewBox="0 0 512 512" style="enable-background:new 0 0 512 512;" xml:space="preserve">
<path style="fill:#E7ECED;" d="M256,64.731V10C120.138,10,10,120.138,10,256h54.731"/>
<path style="fill:#8C9AA2;" d="M64.731,256H10c0,135.862,110.138,246,246,246v-54.731"/>
<path style="fill:#E7ECED;" d="M256,447.269V502c135.862,0,246-110.138,246-246h-54.731"/>
<path style="fill:#8C9AA2;" d="M447.269,256H502c0-135.862-110.138-246-246-246v54.731"/>
<path style="fill:#009D93;" d="M256,64.731C150.534,64.731,64.731,150.534,64.731,256S150.534,447.269,256,447.269
	S447.269,361.466,447.269,256S361.466,64.731,256,64.731z"/>
<path d="M437.02,74.98C388.668,26.629,324.38,0,256,0S123.332,26.629,74.98,74.98C26.629,123.332,0,187.62,0,256
	s26.629,132.668,74.98,181.02C123.332,485.371,187.62,512,256,512s132.668-26.629,181.02-74.98C485.371,388.668,512,324.38,512,256
	S485.371,123.332,437.02,74.98z M491.791,246h-34.768C451.956,142.961,369.039,60.044,266,54.978V20.209
	C388.19,25.33,486.67,123.81,491.791,246z M256,437.269c-99.952,0-181.269-81.316-181.269-181.269S156.048,74.731,256,74.731
	S437.269,156.048,437.269,256S355.952,437.269,256,437.269z M246,20.209v34.769C142.961,60.044,60.044,142.961,54.978,246H20.209
	C25.33,123.81,123.81,25.33,246,20.209z M20.209,266h34.769C60.044,369.039,142.961,451.956,246,457.022v34.768
	C123.81,486.67,25.33,388.19,20.209,266z M266,491.791v-34.768C369.039,451.956,451.956,369.039,457.022,266h34.768
	C486.67,388.19,388.19,486.67,266,491.791z"/>
<polygon style="fill:#FDB845;" points="289.909,298.388 222.091,298.388 211.901,106.984 300.099,106.984 "/>
<path d="M289.909,308.388h-67.818c-5.316,0-9.703-4.159-9.986-9.469l-10.19-191.403c-0.145-2.74,0.842-5.42,2.73-7.412
	c1.889-1.991,4.513-3.119,7.257-3.119h88.197c2.744,0,5.368,1.128,7.257,3.119c1.888,1.992,2.875,4.672,2.729,7.412l-10.189,191.403
	C299.612,304.228,295.226,308.388,289.909,308.388z M231.572,288.388h48.855l9.124-171.403h-67.104L231.572,288.388z"/>
<path d="M256,304.716c-5.523,0-10-4.477-10-10V176.31c0-5.523,4.477-10,10-10c5.522,0,10,4.477,10,10v118.406
	C266,300.238,261.522,304.716,256,304.716z"/>
<path d="M256,150.98c-0.65,0-1.311-0.06-1.95-0.19c-0.64-0.13-1.27-0.32-1.88-0.57c-0.601-0.25-1.18-0.559-1.72-0.92
	c-0.551-0.37-1.061-0.78-1.52-1.25c-0.46-0.46-0.88-0.97-1.24-1.52c-0.359-0.54-0.67-1.12-0.92-1.721c-0.25-0.6-0.45-1.23-0.58-1.87
	c-0.13-0.65-0.189-1.3-0.189-1.96c0-0.649,0.06-1.3,0.189-1.949c0.13-0.641,0.32-1.271,0.57-1.87c0.25-0.601,0.56-1.191,0.92-1.73
	c0.37-0.55,0.79-1.06,1.25-1.52s0.97-0.88,1.52-1.24c0.54-0.36,1.119-0.67,1.72-0.92c0.61-0.25,1.24-0.44,1.88-0.57
	c3.24-0.649,6.7,0.41,9.02,2.73c0.461,0.46,0.881,0.97,1.24,1.52c0.36,0.54,0.67,1.13,0.92,1.73c0.25,0.6,0.44,1.229,0.57,1.87
	c0.13,0.649,0.2,1.3,0.2,1.949c0,0.66-0.07,1.31-0.2,1.96c-0.13,0.641-0.32,1.271-0.57,1.87c-0.25,0.601-0.56,1.181-0.92,1.721
	c-0.359,0.55-0.779,1.059-1.24,1.52C261.21,149.92,258.63,150.98,256,150.98z"/>
<path style="fill:#FDB845;" d="M256,405.016L256,405.016c-19.252,0-34.859-15.607-34.859-34.859l0,0
	c0-19.252,15.607-34.859,34.859-34.859l0,0c19.252,0,34.859,15.607,34.859,34.859l0,0C290.859,389.409,275.252,405.016,256,405.016z
	"/>
<path d="M256,415.016c-24.735,0-44.859-20.123-44.859-44.858s20.124-44.859,44.859-44.859s44.859,20.124,44.859,44.859
	S280.735,415.016,256,415.016z M256,345.298c-13.707,0-24.859,11.152-24.859,24.859s11.152,24.858,24.859,24.858
	s24.859-11.151,24.859-24.858S269.707,345.298,256,345.298z"/>
<g>
</g>
<g>
</g>
<g>
</g>
<g>
</g>
<g>
</g>
<g>
</g>
<g>
</g>
<g>
</g>
<g>
</g>
<g>
</g>
<g>
</g>
<g>
</g>
<g>
</g>
<g>
</g>
<g>
</g>
</svg>
