<?xml version="1.0" encoding="iso-8859-1"?>
<!-- Generator: Adobe Illustrator 19.0.0, SVG Export Plug-In . SVG Version: 6.00 Build 0)  -->
<svg version="1.1" id="Capa_1" xmlns="http://www.w3.org/2000/svg" xmlns:xlink="http://www.w3.org/1999/xlink" x="0px" y="0px"
	 viewBox="0 0 512 512" style="enable-background:new 0 0 512 512;" xml:space="preserve">
<polygon style="fill:#009D93;" points="20.825,10 20.825,87.111 149.804,87.111 149.804,48.555 362.196,48.555 362.196,87.111 
	491.174,87.111 491.174,10 "/>
<path d="M441.43,58.55c-0.65,0-1.31-0.06-1.95-0.19c-0.64-0.13-1.27-0.319-1.87-0.569c-0.61-0.25-1.19-0.561-1.73-0.92
	c-0.55-0.36-1.06-0.78-1.52-1.24c-0.46-0.47-0.88-0.981-1.24-1.521c-0.36-0.55-0.67-1.13-0.92-1.729
	c-0.25-0.601-0.44-1.231-0.57-1.87c-0.13-0.65-0.2-1.3-0.2-1.95c0-0.66,0.07-1.31,0.2-1.96c0.13-0.64,0.32-1.27,0.57-1.87
	s0.56-1.18,0.92-1.729c0.36-0.54,0.78-1.05,1.24-1.521c0.46-0.46,0.97-0.87,1.52-1.239c0.54-0.36,1.12-0.671,1.73-0.921
	c0.6-0.25,1.23-0.439,1.87-0.569c1.29-0.26,2.62-0.26,3.91,0c0.64,0.13,1.27,0.319,1.87,0.569s1.18,0.561,1.73,0.921
	c0.54,0.369,1.05,0.779,1.52,1.239c0.46,0.471,0.87,0.98,1.24,1.521c0.36,0.55,0.67,1.13,0.92,1.729c0.25,0.601,0.44,1.23,0.57,1.87
	c0.13,0.65,0.19,1.3,0.19,1.96c0,0.65-0.06,1.3-0.19,1.95c-0.13,0.64-0.32,1.27-0.57,1.87s-0.56,1.18-0.92,1.729
	c-0.37,0.54-0.78,1.051-1.24,1.521C446.65,57.49,444.07,58.55,441.43,58.55z"/>
<rect x="149.8" y="48.555" style="fill:#FDB845;" width="212.39" height="101.23"/>
<rect x="224.07" y="149.79" style="fill:#E7ECED;" width="63.863" height="45.45"/>
<rect x="31.796" y="306.63" style="fill:#8C9AA2;" width="96.09" height="195.37"/>
<g>
	<rect x="127.89" y="306.63" style="fill:#C4C6C9;" width="128.17" height="195.37"/>
	<rect x="384.109" y="306.63" style="fill:#C4C6C9;" width="96.09" height="195.37"/>
</g>
<rect x="256.06" y="306.63" style="fill:#8C9AA2;" width="128.04" height="195.37"/>
<path d="M191.95,357.92c-0.66,0-1.31-0.07-1.96-0.2c-0.64-0.13-1.27-0.32-1.87-0.57c-0.6-0.25-1.18-0.56-1.73-0.92
	c-0.54-0.359-1.059-0.779-1.52-1.239c-1.86-1.86-2.92-4.44-2.92-7.07s1.06-5.21,2.92-7.07c0.461-0.46,0.98-0.88,1.52-1.25
	c0.55-0.359,1.13-0.66,1.73-0.91c0.6-0.25,1.23-0.449,1.87-0.58c3.25-0.649,6.7,0.41,9.03,2.74c1.86,1.86,2.93,4.44,2.93,7.07
	s-1.07,5.21-2.93,7.07c-0.46,0.46-0.98,0.88-1.52,1.239c-0.54,0.36-1.13,0.67-1.73,0.92c-0.6,0.25-1.23,0.44-1.87,0.57
	S192.6,357.92,191.95,357.92z"/>
<path d="M320.06,473c-0.66,0-1.31-0.06-1.96-0.19c-0.64-0.13-1.27-0.33-1.87-0.58s-1.18-0.56-1.73-0.92
	c-0.54-0.359-1.06-0.78-1.52-1.24s-0.88-0.97-1.24-1.52c-0.36-0.54-0.67-1.12-0.92-1.73c-0.25-0.6-0.44-1.229-0.57-1.869
	c-0.13-0.641-0.2-1.301-0.2-1.95c0-0.65,0.07-1.31,0.2-1.95s0.32-1.271,0.57-1.88c0.25-0.601,0.56-1.18,0.92-1.72
	c0.36-0.551,0.78-1.061,1.24-1.521s0.98-0.88,1.52-1.24c0.55-0.37,1.13-0.67,1.73-0.92s1.23-0.45,1.87-0.58
	c1.29-0.25,2.62-0.25,3.91,0c0.64,0.13,1.27,0.33,1.87,0.58s1.18,0.55,1.72,0.92c0.55,0.36,1.06,0.78,1.53,1.24
	c0.46,0.46,0.87,0.97,1.24,1.521c0.36,0.54,0.67,1.119,0.92,1.72c0.25,0.609,0.44,1.24,0.57,1.88s0.19,1.3,0.19,1.95
	c0,0.649-0.06,1.31-0.19,1.95s-0.32,1.27-0.57,1.869c-0.25,0.61-0.56,1.19-0.92,1.73c-0.37,0.55-0.78,1.06-1.24,1.52
	c-0.47,0.46-0.98,0.881-1.53,1.24c-0.54,0.36-1.12,0.67-1.72,0.92s-1.23,0.45-1.87,0.58C321.359,472.94,320.71,473,320.06,473z"/>
<path d="M491.174,0H20.825c-5.523,0-10,4.477-10,10v77.11c0,5.522,4.477,10,10,10h118.978v52.676c0,5.522,4.477,10,10,10h64.265
	v35.453c0,5.522,4.477,10,10,10H246v16.314c0,5.523,4.477,10,10,10c6.642,0,12.045,5.403,12.045,12.045
	c0,0.74-0.067,1.465-0.196,2.169l-7.951-3.366c-2.491-1.055-5.305-1.055-7.796,0l-7.951,3.366c-0.129-0.704-0.196-1.429-0.196-2.169
	c0-5.522-4.477-10-10-10s-10,4.478-10,10c0,3.504,0.566,6.878,1.61,10.037l-101.567,42.992H31.796c-5.523,0-10,4.477-10,10V502
	c0,5.522,4.477,10,10,10h448.408c5.523,0,10-4.478,10-10V306.627c0-5.523-4.477-10-10-10H388l-101.566-42.992
	c1.044-3.158,1.61-6.533,1.61-10.037c0-14.18-9.256-26.237-22.045-30.447v-7.912h21.932c5.523,0,10-4.478,10-10v-35.453h64.265
	c5.523,0,10-4.478,10-10V97.11h118.979c5.523,0,10-4.478,10-10V10C501.174,4.477,496.698,0,491.174,0z M175.307,296.627
	l62.686-26.534c5.135,3.501,11.336,5.551,18.007,5.551s12.872-2.049,18.007-5.551l62.686,26.534H175.307z M117.891,316.627V492
	H90.32V316.627H117.891z M41.796,316.627H70.32V492H41.796V316.627z M137.891,316.627h108.174V492h-44.119V384.587
	c0-5.522-4.477-10-10-10s-10,4.478-10,10V492h-44.055L137.891,316.627L137.891,316.627z M266.065,316.627h43.989v109.706
	c0,5.522,4.477,10,10,10s10-4.478,10-10V316.627h44.054V492H266.065V316.627z M394.108,316.627h27.572V492h-27.572V316.627z
	 M470.204,492H441.68V316.627h28.524L470.204,492L470.204,492z M30.825,77.11V58.556h108.978V77.11H30.825z M277.932,185.239
	h-43.863v-25.453h43.863V185.239z M352.196,139.786H159.804v-81.23h192.393v81.23H352.196z M481.174,77.11H372.196V58.556h33.648
	c5.523,0,10-4.478,10-10s-4.477-10-10-10H30.825V20h450.35L481.174,77.11L481.174,77.11z"/>
<g>
</g>
<g>
</g>
<g>
</g>
<g>
</g>
<g>
</g>
<g>
</g>
<g>
</g>
<g>
</g>
<g>
</g>
<g>
</g>
<g>
</g>
<g>
</g>
<g>
</g>
<g>
</g>
<g>
</g>
</svg>
