<?xml version="1.0" encoding="iso-8859-1"?>
<!-- Generator: Adobe Illustrator 19.0.0, SVG Export Plug-In . SVG Version: 6.00 Build 0)  -->
<svg version="1.1" id="Capa_1" xmlns="http://www.w3.org/2000/svg" xmlns:xlink="http://www.w3.org/1999/xlink" x="0px" y="0px"
	 viewBox="0 0 512.001 512.001" style="enable-background:new 0 0 512.001 512.001;" xml:space="preserve">
<path style="fill:#8C9AA2;" d="M56.053,412.507h399.894c24.712,0,44.746,20.033,44.746,44.746l0,0
	c0,24.713-20.034,44.746-44.746,44.746H56.053c-24.712,0-44.746-20.034-44.746-44.746l0,0
	C11.307,432.54,31.341,412.507,56.053,412.507z"/>
<path d="M452.233,467.253h-51.193c-5.522,0-10-4.477-10-10c0-5.522,4.478-10,10-10h51.193c5.522,0,10,4.478,10,10
	C462.233,462.775,457.756,467.253,452.233,467.253z"/>
<path d="M365.688,467.259c-0.65,0-1.3-0.07-1.949-0.2c-0.641-0.13-1.27-0.319-1.87-0.569c-0.601-0.25-1.181-0.56-1.73-0.921
	c-0.55-0.369-1.06-0.789-1.52-1.25c-1.86-1.859-2.931-4.439-2.931-7.069c0-0.65,0.07-1.311,0.2-1.95c0.13-0.64,0.32-1.27,0.57-1.87
	s0.56-1.19,0.92-1.729c0.36-0.551,0.78-1.061,1.24-1.521c0.46-0.46,0.97-0.88,1.52-1.24c0.55-0.359,1.13-0.67,1.73-0.92
	s1.229-0.439,1.87-0.569c1.29-0.261,2.619-0.261,3.909,0c0.641,0.13,1.271,0.319,1.87,0.569c0.601,0.25,1.181,0.561,1.73,0.92
	c0.54,0.36,1.05,0.78,1.52,1.24c0.46,0.46,0.88,0.97,1.24,1.521c0.36,0.54,0.67,1.13,0.92,1.729c0.25,0.601,0.44,1.23,0.57,1.87
	c0.13,0.64,0.189,1.3,0.189,1.95c0,2.63-1.06,5.21-2.92,7.069c-0.47,0.461-0.98,0.881-1.52,1.25c-0.55,0.36-1.13,0.671-1.73,0.921
	s-1.23,0.44-1.87,0.569C366.999,467.188,366.349,467.259,365.688,467.259z"/>
<path d="M299.27,467.253h-51.193c-5.523,0-10-4.477-10-10c0-5.522,4.477-10,10-10h51.193c5.523,0,10,4.478,10,10
	C309.27,462.775,304.793,467.253,299.27,467.253z"/>
<path d="M212.73,467.259c-0.65,0-1.31-0.07-1.95-0.2c-0.64-0.13-1.27-0.319-1.88-0.569c-0.6-0.25-1.18-0.56-1.72-0.921
	c-0.55-0.369-1.06-0.789-1.52-1.25c-0.46-0.46-0.88-0.97-1.24-1.52c-0.36-0.54-0.67-1.12-0.92-1.72c-0.25-0.61-0.45-1.24-0.57-1.87
	c-0.13-0.65-0.2-1.311-0.2-1.96c0-0.65,0.07-1.311,0.2-1.95c0.12-0.64,0.32-1.27,0.57-1.87s0.56-1.19,0.92-1.729
	c0.36-0.551,0.78-1.061,1.24-1.521s0.97-0.88,1.52-1.24c0.54-0.359,1.12-0.67,1.72-0.92c0.61-0.25,1.24-0.439,1.88-0.569
	c1.29-0.261,2.61-0.261,3.9,0c0.64,0.13,1.27,0.319,1.87,0.569c0.61,0.25,1.19,0.561,1.73,0.92c0.55,0.36,1.06,0.78,1.52,1.24
	c0.46,0.46,0.88,0.97,1.24,1.521c0.36,0.54,0.67,1.13,0.92,1.729c0.25,0.601,0.45,1.23,0.57,1.87c0.13,0.64,0.2,1.3,0.2,1.95
	c0,2.63-1.07,5.21-2.93,7.069c-0.46,0.461-0.97,0.881-1.52,1.25c-0.54,0.36-1.12,0.671-1.73,0.921c-0.6,0.25-1.23,0.44-1.87,0.569
	C214.04,467.188,213.38,467.259,212.73,467.259z"/>
<path d="M146.307,467.253H95.113c-5.523,0-10-4.477-10-10c0-5.522,4.477-10,10-10h51.193c5.523,0,10,4.478,10,10
	C156.307,462.775,151.83,467.253,146.307,467.253z"/>
<path d="M59.762,467.259c-0.65,0-1.3-0.07-1.95-0.2c-0.64-0.13-1.27-0.319-1.87-0.569c-0.6-0.25-1.18-0.56-1.73-0.921
	c-0.54-0.369-1.06-0.789-1.52-1.25c-0.46-0.46-0.88-0.97-1.24-1.52c-0.36-0.54-0.67-1.12-0.92-1.72c-0.25-0.61-0.44-1.24-0.57-1.87
	c-0.13-0.65-0.19-1.311-0.19-1.96c0-0.65,0.06-1.311,0.19-1.95c0.13-0.64,0.32-1.27,0.57-1.87c0.25-0.6,0.56-1.19,0.92-1.729
	c0.36-0.551,0.78-1.061,1.24-1.521c0.46-0.46,0.98-0.88,1.52-1.24c0.55-0.359,1.13-0.67,1.73-0.92c0.6-0.25,1.23-0.439,1.87-0.569
	c1.29-0.261,2.62-0.261,3.91,0c0.64,0.13,1.27,0.319,1.87,0.569c0.6,0.25,1.18,0.561,1.73,0.92c0.54,0.36,1.06,0.78,1.52,1.24
	c1.86,1.87,2.93,4.44,2.93,7.07c0,2.63-1.07,5.21-2.93,7.069c-0.46,0.461-0.98,0.881-1.52,1.25c-0.55,0.36-1.13,0.671-1.73,0.921
	c-0.6,0.25-1.23,0.44-1.87,0.569C61.072,467.188,60.422,467.259,59.762,467.259z"/>
<rect x="344.277" y="309.978" style="fill:#FFD480;" width="104.419" height="102.529"/>
<rect x="205.118" y="254.298" style="fill:#FDB845;" width="101.779" height="158.209"/>
<path d="M458.694,402.575v-92.597c0-5.522-4.478-10-10-10H344.279c-5.522,0-10,4.478-10,10v92.528h-17.392V254.299
	c0-5.522-4.478-10-10-10H205.113c-5.523,0-10,4.478-10,10v148.208H56.053c-30.187,0-54.746,24.559-54.746,54.746
	c0,30.187,24.559,54.746,54.746,54.746h399.894c30.188,0,54.746-24.559,54.746-54.746
	C510.692,427.987,487.61,404.011,458.694,402.575z M396.487,347.229l-27.752-27.251h55.504L396.487,347.229z M438.695,333.812
	v54.863l-27.936-27.431L438.695,333.812z M382.215,361.243l-27.936,27.431v-54.863L382.215,361.243z M396.487,375.257l27.752,27.251
	h-55.504L396.487,375.257z M256,314.92l-32.564-50.621h65.127L256,314.92z M296.888,288.328v90.151l-28.997-45.076L296.888,288.328z
	 M244.11,333.403l-28.997,45.076v-90.15L244.11,333.403z M256,351.887l32.564,50.621h-65.127L256,351.887z M455.946,491.999H56.053
	c-19.159,0-34.746-15.587-34.746-34.746s15.587-34.746,34.746-34.746h399.894c19.159,0,34.746,15.587,34.746,34.746
	S475.105,491.999,455.946,491.999z"/>
<path d="M173.15,283.606H68.004c-5.523,0-10-4.478-10-10c0-5.522,4.477-10,10-10H173.15c5.523,0,10,4.478,10,10
	C183.15,279.129,178.673,283.606,173.15,283.606z"/>
<path d="M153.256,321.709H48.111c-5.523,0-10-4.478-10-10c0-5.522,4.477-10,10-10h105.145c5.523,0,10,4.478,10,10
	C163.256,317.231,158.779,321.709,153.256,321.709z"/>
<path d="M133.362,359.813H28.218c-5.523,0-10-4.478-10-10c0-5.523,4.477-10,10-10h105.145c5.523,0,10,4.477,10,10
	C143.362,355.335,138.885,359.813,133.362,359.813z"/>
<rect x="10" y="10" style="fill:#009D93;" width="491.996" height="80.319"/>
<path style="fill:#E7ECED;" d="M95.122,147.424L95.122,147.424c-20.258,0-36.681-16.422-36.681-36.681V90.326h73.36v20.418
	C131.802,131.001,115.38,147.424,95.122,147.424z"/>
<path style="fill:#FFD480;" d="M256,147.424L256,147.424c-20.258,0-36.681-16.423-36.681-36.681V90.326h73.36v20.418
	C292.68,131.001,276.258,147.424,256,147.424z"/>
<path style="fill:#E7ECED;" d="M416.878,147.424L416.878,147.424c-20.258,0-36.68-16.422-36.68-36.681V90.326h73.36v20.418
	C453.558,131.001,437.136,147.424,416.878,147.424z"/>
<path d="M436.579,60.162c-0.65,0-1.3-0.061-1.95-0.191c-0.64-0.13-1.271-0.32-1.87-0.57c-0.6-0.25-1.18-0.56-1.73-0.92
	c-0.54-0.37-1.061-0.79-1.52-1.25c-0.46-0.46-0.88-0.97-1.24-1.519c-0.359-0.54-0.67-1.12-0.92-1.72
	c-0.25-0.61-0.439-1.24-0.569-1.87c-0.131-0.65-0.2-1.311-0.2-1.96c0-0.65,0.069-1.311,0.2-1.95c0.13-0.641,0.319-1.271,0.569-1.87
	c0.25-0.61,0.561-1.19,0.92-1.73c0.36-0.55,0.78-1.06,1.24-1.52s0.98-0.88,1.52-1.24c0.55-0.359,1.13-0.67,1.73-0.92
	c0.6-0.25,1.23-0.44,1.87-0.57c1.29-0.26,2.62-0.26,3.91,0c0.64,0.131,1.27,0.32,1.87,0.57c0.6,0.25,1.18,0.56,1.729,0.92
	c0.54,0.36,1.05,0.78,1.51,1.24c0.471,0.46,0.881,0.97,1.25,1.52c0.36,0.54,0.67,1.12,0.92,1.73c0.25,0.6,0.441,1.229,0.57,1.87
	c0.13,0.64,0.2,1.3,0.2,1.95c0,0.649-0.07,1.309-0.2,1.96c-0.13,0.63-0.32,1.26-0.57,1.87c-0.25,0.6-0.559,1.18-0.92,1.72
	c-0.369,0.55-0.779,1.059-1.25,1.519c-0.46,0.46-0.97,0.88-1.51,1.25c-0.55,0.36-1.13,0.67-1.729,0.92
	c-0.601,0.25-1.23,0.44-1.87,0.57C437.889,60.102,437.239,60.162,436.579,60.162z"/>
<path d="M502,0.002H10c-5.523,0-10,4.477-10,10v80.323c0,5.522,4.477,10,10,10h38.442v10.418c0,25.74,20.941,46.681,46.681,46.681
	s46.681-20.94,46.681-46.681v-10.418h67.517v10.418c0,25.74,20.941,46.681,46.681,46.681c25.74,0,46.681-20.94,46.681-46.681
	v-10.418h67.517v10.418c0,25.74,20.94,46.681,46.68,46.681c25.74,0,46.681-20.94,46.681-46.681v-10.418h38.442
	c5.522,0,10-4.478,10-10V10.002C512,4.479,507.522,0.002,502,0.002z M121.802,110.744c0,14.712-11.969,26.681-26.681,26.681
	S68.44,125.456,68.44,110.744v-10.418h53.361L121.802,110.744L121.802,110.744z M282.681,110.744
	c0,14.712-11.969,26.681-26.681,26.681s-26.681-11.969-26.681-26.681v-10.418h53.361v10.418H282.681z M443.559,110.744
	c0,14.712-11.969,26.681-26.681,26.681c-14.711,0-26.68-11.969-26.68-26.681v-10.418h53.36L443.559,110.744L443.559,110.744z
	 M492,80.326H20V60.164h380.112c5.522,0,10-4.478,10-10s-4.478-10-10-10H20V20.002h472V80.326z"/>
<path d="M256,205.014c-5.523,0-10-4.477-10-10v-12.672c0-5.522,4.477-10,10-10c5.522,0,10,4.478,10,10v12.672
	C266,200.536,261.522,205.014,256,205.014z"/>
<path d="M202.547,182.873c-2.559,0-5.118-0.977-7.071-2.929c-3.905-3.905-3.906-10.236-0.001-14.143l8.96-8.961
	c3.905-3.904,10.237-3.904,14.142,0c3.905,3.905,3.906,10.236,0,14.143l-8.96,8.961
	C207.666,181.897,205.106,182.873,202.547,182.873z"/>
<path d="M309.452,182.873c-2.56,0-5.119-0.977-7.071-2.93l-8.96-8.961c-3.905-3.905-3.905-10.236,0.001-14.142
	c3.905-3.904,10.238-3.904,14.142,0.001l8.96,8.961c3.905,3.905,3.905,10.236-0.001,14.142
	C314.57,181.897,312.011,182.873,309.452,182.873z"/>
<path d="M331.593,129.42h-12.673c-5.523,0-10-4.478-10-10c0-5.522,4.477-10,10-10h12.673c5.522,0,10,4.478,10,10
	C341.593,124.943,337.115,129.42,331.593,129.42z"/>
<path d="M193.079,129.42h-12.672c-5.523,0-10-4.478-10-10c0-5.522,4.477-10,10-10h12.672c5.523,0,10,4.478,10,10
	C203.079,124.943,198.602,129.42,193.079,129.42z"/>
<g>
</g>
<g>
</g>
<g>
</g>
<g>
</g>
<g>
</g>
<g>
</g>
<g>
</g>
<g>
</g>
<g>
</g>
<g>
</g>
<g>
</g>
<g>
</g>
<g>
</g>
<g>
</g>
<g>
</g>
</svg>
