<?xml version="1.0" encoding="iso-8859-1"?>
<!-- Generator: Adobe Illustrator 19.0.0, SVG Export Plug-In . SVG Version: 6.00 Build 0)  -->
<svg version="1.1" id="Capa_1" xmlns="http://www.w3.org/2000/svg" xmlns:xlink="http://www.w3.org/1999/xlink" x="0px" y="0px"
	 viewBox="0 0 512 512" style="enable-background:new 0 0 512 512;" xml:space="preserve">
<rect x="80.8" y="429.55" style="fill:#009D93;" width="350.41" height="56.796"/>
<rect x="10" y="29.751" style="fill:#E7ECED;" width="70.796" height="456.6"/>
<path d="M45.4,89.95c-0.65,0-1.31-0.07-1.96-0.2c-0.63-0.13-1.26-0.32-1.87-0.57c-0.6-0.25-1.18-0.56-1.72-0.92
	c-0.55-0.36-1.06-0.78-1.52-1.24c-0.461-0.46-0.88-0.97-1.25-1.52c-0.36-0.54-0.67-1.12-0.92-1.73c-0.25-0.6-0.44-1.229-0.57-1.87
	c-0.13-0.64-0.19-1.3-0.19-1.949c0-0.65,0.06-1.311,0.19-1.96c0.13-0.631,0.32-1.261,0.57-1.87c0.25-0.601,0.56-1.181,0.92-1.721
	c0.37-0.55,0.789-1.06,1.25-1.52c0.46-0.46,0.97-0.88,1.52-1.25c0.54-0.36,1.12-0.67,1.72-0.92c0.61-0.25,1.24-0.44,1.87-0.57
	c1.29-0.26,2.62-0.26,3.91,0c0.64,0.13,1.27,0.32,1.87,0.57c0.61,0.25,1.19,0.56,1.73,0.92c0.55,0.37,1.06,0.79,1.52,1.25
	c0.46,0.46,0.88,0.97,1.24,1.52c0.36,0.54,0.67,1.12,0.92,1.721c0.25,0.609,0.44,1.239,0.57,1.87c0.13,0.649,0.2,1.31,0.2,1.96
	c0,0.649-0.07,1.31-0.2,1.949c-0.13,0.641-0.32,1.271-0.57,1.87c-0.25,0.61-0.56,1.19-0.92,1.73c-0.36,0.55-0.78,1.06-1.24,1.52
	c-0.46,0.46-0.97,0.88-1.52,1.24c-0.54,0.36-1.12,0.67-1.73,0.92c-0.6,0.25-1.23,0.44-1.87,0.57C46.71,89.88,46.05,89.95,45.4,89.95
	z"/>
<rect x="431.2" y="29.751" style="fill:#E7ECED;" width="70.796" height="456.6"/>
<path d="M466.6,451.35c-0.65,0-1.31-0.07-1.95-0.2s-1.27-0.319-1.87-0.569c-0.61-0.25-1.19-0.561-1.73-0.92
	c-0.55-0.36-1.06-0.78-1.52-1.24s-0.88-0.97-1.24-1.52c-0.36-0.54-0.67-1.12-0.92-1.73c-0.25-0.601-0.44-1.23-0.57-1.87
	c-0.13-0.64-0.2-1.3-0.2-1.95c0-0.649,0.07-1.31,0.2-1.96c0.13-0.63,0.32-1.26,0.57-1.87c0.25-0.6,0.56-1.18,0.92-1.72
	c0.36-0.55,0.78-1.06,1.24-1.521c0.46-0.47,0.97-0.88,1.52-1.25c0.54-0.359,1.12-0.67,1.73-0.92c0.6-0.25,1.23-0.44,1.87-0.569
	c1.29-0.261,2.62-0.261,3.91,0c0.63,0.13,1.26,0.319,1.87,0.569c0.6,0.25,1.18,0.56,1.72,0.92c0.55,0.37,1.06,0.78,1.52,1.25
	c0.46,0.461,0.88,0.971,1.25,1.521c0.36,0.54,0.67,1.12,0.92,1.72c0.25,0.61,0.44,1.24,0.57,1.87c0.13,0.65,0.19,1.311,0.19,1.96
	c0,0.65-0.06,1.311-0.19,1.95c-0.13,0.64-0.32,1.27-0.57,1.87c-0.25,0.609-0.56,1.19-0.92,1.73c-0.37,0.551-0.79,1.061-1.25,1.52
	c-0.46,0.46-0.97,0.88-1.52,1.24c-0.54,0.359-1.12,0.67-1.72,0.92c-0.61,0.25-1.24,0.439-1.87,0.569
	C467.91,451.279,467.25,451.35,466.6,451.35z"/>
<rect x="267.85" y="25.652" style="fill:#FFD480;" width="130.02" height="111.72"/>
<rect x="256" y="317.83" style="fill:#FDB845;" width="130.02" height="111.72"/>
<rect x="125.98" y="317.83" style="fill:#FFD480;" width="130.02" height="111.72"/>
<rect x="114.13" y="171.64" style="fill:#FDB845;" width="130.02" height="111.72"/>
<path d="M502,19.751h-70.796c-5.523,0-10,4.478-10,10v97.624h-13.335V25.652c0-5.522-4.477-10-10-10H267.848
	c-5.523,0-10,4.478-10,10v101.723H90.796V29.751c0-5.522-4.477-10-10-10H10c-5.523,0-10,4.478-10,10v456.597c0,5.522,4.477,10,10,10
	h492c5.523,0,10-4.478,10-10V29.751C512,24.229,507.523,19.751,502,19.751z M387.869,115.597l-39.666-34.084l39.666-34.084
	L387.869,115.597L387.869,115.597z M370.887,35.652l-38.028,32.677L294.83,35.652H370.887z M277.848,47.43l39.666,34.084
	l-39.666,34.084L277.848,47.43L277.848,47.43z M332.858,94.699l38.028,32.676H294.83L332.858,94.699z M70.796,476.348H55.398
	V116.615c0-5.522-4.477-10-10-10s-10,4.478-10,10v359.732H20V39.751h50.796C70.796,39.751,70.796,476.348,70.796,476.348z
	 M421.204,476.348H90.796v-36.795h330.408L421.204,476.348L421.204,476.348z M206.334,373.691L246,339.607v68.168L206.334,373.691z
	 M229.018,419.553h-76.057l38.029-32.677L229.018,419.553z M190.99,360.506l-38.029-32.677h76.057L190.99,360.506z M175.645,373.691
	l-39.666,34.084v-68.168L175.645,373.691z M336.355,373.691l39.666-34.084v68.168L336.355,373.691z M359.039,419.553h-76.057
	l38.029-32.677L359.039,419.553z M321.01,360.506l-38.029-32.677h76.057L321.01,360.506z M305.666,373.691L266,407.775v-68.168
	L305.666,373.691z M421.204,419.553h-25.183V317.829c0-5.522-4.477-10-10-10H125.979c-5.523,0-10,4.478-10,10v101.724H90.796
	V293.367h330.408L421.204,419.553L421.204,419.553z M194.486,227.506l39.666-34.084v68.167L194.486,227.506z M217.17,273.367
	h-76.057l38.028-32.676L217.17,273.367z M179.142,214.321l-38.028-32.676h76.057L179.142,214.321z M163.798,227.506l-39.666,34.084
	v-68.167L163.798,227.506z M254.152,273.367V171.645c0-5.522-4.477-10-10-10H114.131c-5.523,0-10,4.478-10,10v101.723H90.796
	V147.375h330.408v125.992H254.152z M492,476.348h-50.796V39.751h15.398v364.931c0,5.522,4.477,10,10,10s10-4.478,10-10V39.751H492
	V476.348z"/>
<g>
</g>
<g>
</g>
<g>
</g>
<g>
</g>
<g>
</g>
<g>
</g>
<g>
</g>
<g>
</g>
<g>
</g>
<g>
</g>
<g>
</g>
<g>
</g>
<g>
</g>
<g>
</g>
<g>
</g>
</svg>
