<?xml version="1.0" encoding="utf-8"?>
<!-- Generator: Adobe Illustrator 15.0.0, SVG Export Plug-In . SVG Version: 6.00 Build 0)  -->
<!DOCTYPE svg PUBLIC "-//W3C//DTD SVG 1.1//EN" "http://www.w3.org/Graphics/SVG/1.1/DTD/svg11.dtd">
<svg version="1.1" id="Layer_1" xmlns="http://www.w3.org/2000/svg" xmlns:xlink="http://www.w3.org/1999/xlink" x="0px" y="0px"
	 width="64px" height="64px" viewBox="0 0 64 64" style="enable-background:new 0 0 64 64;" xml:space="preserve">
<style type="text/css">
<![CDATA[
	.st0{fill:#EFE6FF;}
	.st1{fill:url(#SVGID_1_);}
]]>
</style>
<g id="bitcoin">
	<linearGradient id="SVGID_1_" gradientUnits="userSpaceOnUse" x1="12.2002" y1="12.2017" x2="51.7982" y2="51.7996">
		<stop  offset="0" style="stop-color:#E68CBC"/>
		<stop  offset="1" style="stop-color:#8366B3"/>
	</linearGradient>
	<path class="st1" d="M31.997,60C16.537,60,3.999,47.462,4,32.002C3.996,16.537,16.535,4,31.995,4C47.459,4,59.999,16.537,60,32
		S47.461,60,31.997,60z M53.999,32c-0.001-12.149-9.857-22-22.005-22C19.85,10,9.995,19.851,9.999,32.002
		C9.998,44.146,19.85,54,31.996,54C44.144,54,54,44.145,53.999,32L53.999,32z"/>
	<path class="st0" d="M47.282,27.597c0.638-4.258-2.604-6.547-7.038-8.074l1.438-5.768l-3.51-0.875l-1.4,5.616
		c-0.924-0.23-1.871-0.447-2.813-0.662l1.409-5.653l-3.51-0.875l-1.439,5.767c-0.764-0.175-1.514-0.347-2.243-0.527l0.004-0.017
		l-4.842-1.21l-0.934,3.75c0,0,2.606,0.597,2.55,0.635c1.423,0.354,1.679,1.296,1.636,2.042l-3.939,15.801
		c-0.173,0.432-0.615,1.079-1.609,0.833c0.035,0.052-2.552-0.636-2.552-0.636l-1.743,4.019l4.569,1.14
		c0.85,0.213,1.683,0.435,2.503,0.646l-1.453,5.833l3.507,0.876l1.438-5.774c0.958,0.262,1.888,0.5,2.799,0.727l-1.434,5.745
		l3.51,0.876l1.454-5.824c4.734,0.896,10.564,0.461,12.384-4.739c1.517-4.325-1.217-7.469-3.226-8.515
		C45.095,32.224,46.821,30.714,47.282,27.597L47.282,27.597z M39.26,38.847c-1.084,4.36-8.425,2.004-10.806,1.413l1.929-7.729
		C32.761,33.124,40.395,34.3,39.26,38.847L39.26,38.847z M40.346,27.535c-0.989,3.966-7.1,1.951-9.083,1.458l1.748-7.011
		C34.994,22.476,41.377,23.397,40.346,27.535z"/>
</g>
</svg>
