<?xml version="1.0" encoding="utf-8"?>
<!-- Generator: Adobe Illustrator 15.0.0, SVG Export Plug-In . SVG Version: 6.00 Build 0)  -->
<!DOCTYPE svg PUBLIC "-//W3C//DTD SVG 1.1//EN" "http://www.w3.org/Graphics/SVG/1.1/DTD/svg11.dtd">
<svg version="1.1" id="Layer_1" xmlns="http://www.w3.org/2000/svg" xmlns:xlink="http://www.w3.org/1999/xlink" x="0px" y="0px"
	 width="64px" height="64px" viewBox="0 0 64 64" style="enable-background:new 0 0 64 64;" xml:space="preserve">
<style type="text/css">
<![CDATA[
	.st0{fill:#EFE6FF;}
	.st1{fill:url(#SVGID_1_);}
]]>
</style>
<g id="blackcoin">
	<linearGradient id="SVGID_1_" gradientUnits="userSpaceOnUse" x1="12.2007" y1="12.2012" x2="51.7987" y2="51.7992">
		<stop  offset="0" style="stop-color:#E68CBC"/>
		<stop  offset="1" style="stop-color:#8366B3"/>
	</linearGradient>
	<path class="st1" d="M60.001,32c0.001,15.461-12.539,28-28.003,28C16.538,60,4,47.462,4.001,32.002C3.997,16.537,16.536,4,31.996,4
		C47.46,4,60,16.537,60.001,32L60.001,32z M54.001,32C54,19.851,44.144,10,31.996,10c-12.145,0-21.999,9.85-21.995,22.001
		C10,44.146,19.852,54,31.998,54C44.146,54,54.002,44.145,54.001,32L54.001,32z"/>
	<path class="st0" d="M19,17.096c1.251,0.076,3.264,0.172,5.5,0.172c0.18,0,0.334-0.003,0.5-0.005v29.49
		c-2.414,0.059-4.849,0.233-6,0.325v-0.613c2.305-0.695,2.565-1.724,2.993-2.659C22.708,42.239,23,38.843,23,32.083
		c0-12.281-0.603-13.254-4-14.533V17.096z M41.196,31.494C42.979,33.271,44,35.782,44,38.743c0,3.002-1.1,5.618-2.908,7.46
		c3.247-1.013,5.408-3.184,5.408-7.559C46.5,35.652,44.908,33.03,41.196,31.494z M42,24.705c0,2.317-1.063,4.213-2.243,5.603
		c0.034,0.022,0.063,0.05,0.097,0.072C42.497,29.073,44,27.417,44,24.705c0-4.041-1.845-6.006-4.771-6.933
		C40.959,19.507,42,21.935,42,24.705z M42,38.743C42,43.527,38.78,47,34.344,47c-2.174,0-3.458-0.08-4.591-0.15
		c-0.844-0.053-1.666-0.1-2.753-0.112V17.195c0.253-0.015,0.501-0.03,0.753-0.045c1.133-0.07,2.417-0.15,4.591-0.15
		C36.78,17,40,20.24,40,24.705c0,2.583-1.909,4.837-3.878,6.228C39.775,31.763,42,34.75,42,38.743z M29.778,19.485
		C29.053,20.39,29.005,22.982,29,30.409h3c3.364,0,5.5-2.506,5.5-5.705c0-3.358-1.825-5.703-5.153-5.705c-0.026,0-0.053,0-0.079,0
		c-0.037,0-0.069,0-0.105,0C31.188,19.006,30.125,19.053,29.778,19.485z M39.5,38.743c0-3.508-2.136-6.334-5.5-6.334
		c-0.422,0-0.801-0.016-1.141-0.043c-0.282,0.028-0.568,0.043-0.859,0.043h-2.999c0.011,6.538,0.25,9.856,0.833,11.396
		c0.331,0.874,1.313,1.107,2.558,1.17C32.953,44.99,33.588,45,34.344,45C37.674,45,39.5,42.427,39.5,38.743z"/>
</g>
</svg>
