<?xml version="1.0" encoding="utf-8"?>
<!-- Generator: Adobe Illustrator 15.0.0, SVG Export Plug-In . SVG Version: 6.00 Build 0)  -->
<!DOCTYPE svg PUBLIC "-//W3C//DTD SVG 1.1//EN" "http://www.w3.org/Graphics/SVG/1.1/DTD/svg11.dtd">
<svg version="1.1" id="Layer_1" xmlns="http://www.w3.org/2000/svg" xmlns:xlink="http://www.w3.org/1999/xlink" x="0px" y="0px"
	 width="64px" height="64px" viewBox="0 0 64 64" style="enable-background:new 0 0 64 64;" xml:space="preserve">
<style type="text/css">
<![CDATA[
	.st0{fill:#EFE6FF;}
	.st1{fill:url(#SVGID_1_);}
]]>
</style>
<g id="blockchain">
	<linearGradient id="SVGID_1_" gradientUnits="userSpaceOnUse" x1="7.417" y1="7.4185" x2="56.5844" y2="56.5859">
		<stop  offset="0" style="stop-color:#E68CBC"/>
		<stop  offset="1" style="stop-color:#8366B3"/>
	</linearGradient>
	<path class="st1" d="M20,35.136c-0.37,0-0.741-0.096-1.072-0.288L6.071,27.421C5.408,27.038,5,26.331,5,25.566V10.721
		c0-0.765,0.409-1.473,1.071-1.856l12.857-7.422c0.663-0.383,1.479-0.383,2.143,0l12.856,7.422C34.592,9.248,35,9.956,35,10.721
		v14.845c0,0.765-0.408,1.472-1.072,1.855l-12.856,7.427C20.741,35.04,20.37,35.136,20,35.136z M11,23.339l9,5.199l9-5.199V12.948
		l-9-5.194l-9,5.194V23.339z M44,62.847c-0.371,0-0.739-0.095-1.072-0.287l-12.856-7.422C29.409,54.755,29,54.048,29,53.28V38.437
		c0-0.766,0.408-1.474,1.071-1.856l12.857-7.426c0.664-0.383,1.48-0.383,2.145,0l12.855,7.426C58.592,36.963,59,37.671,59,38.437
		V53.28c0,0.768-0.408,1.475-1.072,1.857L45.072,62.56C44.739,62.752,44.371,62.847,44,62.847z M35,51.054l9,5.196l9-5.196V40.661
		l-9-5.198l-9,5.198V51.054z"/>
	<path class="st0" d="M32,48.99c-0.37,0-0.741-0.096-1.072-0.288l-12.857-7.427C17.408,40.893,17,40.184,17,39.419V24.575
		c0-0.766,0.409-1.473,1.071-1.856l12.857-7.422c0.663-0.383,1.479-0.383,2.144,0l12.855,7.422C46.592,23.103,47,23.81,47,24.575
		v14.844c0,0.765-0.408,1.474-1.072,1.856l-12.855,7.427C32.741,48.895,32.37,48.99,32,48.99z M23,37.195l9,5.198l9-5.198V26.802
		l-9-5.194l-9,5.194V37.195z"/>
</g>
</svg>
