<?xml version="1.0" encoding="utf-8"?>
<!-- Generator: Adobe Illustrator 15.0.0, SVG Export Plug-In . SVG Version: 6.00 Build 0)  -->
<!DOCTYPE svg PUBLIC "-//W3C//DTD SVG 1.1//EN" "http://www.w3.org/Graphics/SVG/1.1/DTD/svg11.dtd">
<svg version="1.1" id="Layer_1" xmlns="http://www.w3.org/2000/svg" xmlns:xlink="http://www.w3.org/1999/xlink" x="0px" y="0px"
	 width="64px" height="64px" viewBox="0 0 64 64" style="enable-background:new 0 0 64 64;" xml:space="preserve">
<style type="text/css">
<![CDATA[
	.st0{fill:#EFE6FF;}
	.st1{fill:url(#SVGID_1_);}
]]>
</style>
<linearGradient id="SVGID_1_" gradientUnits="userSpaceOnUse" x1="15.2417" y1="15.2422" x2="48.7581" y2="48.7586">
	<stop  offset="0" style="stop-color:#E68CBC"/>
	<stop  offset="1" style="stop-color:#8366B3"/>
</linearGradient>
<path class="st1" d="M45.259,26.655l8.525-4.922l-1.999-3.464l-8.526,4.922L34,17.845V8h-4v9.845l-9.259,5.346l-8.526-4.922
	l-2,3.464l8.526,4.923v10.69l-8.526,4.923l2,3.464l8.525-4.923L30,46.155V56h4v-9.845l9.259-5.346l8.525,4.923l2-3.464l-8.525-4.923
	V26.655z M41.258,37.345L32,42.69l-9.258-5.345l0-10.69l9.258-5.345l9.259,5.346V37.345z"/>
<path class="st0" d="M36,19c0,2.209-1.791,4-4,4s-4-1.791-4-4s1.791-4,4-4S36,16.791,36,19z M36,6c0,2.209-1.791,4-4,4s-4-1.791-4-4
	s1.791-4,4-4S36,3.791,36,6z M36,58c0,2.209-1.791,4-4,4s-4-1.791-4-4s1.791-4,4-4S36,55.791,36,58z M32,41c-2.209,0-4,1.791-4,4
	s1.791,4,4,4s4-1.791,4-4S34.209,41,32,41z M22.742,22.036c1.913,1.104,2.568,3.551,1.464,5.464s-3.551,2.568-5.464,1.464
	s-2.569-3.551-1.464-5.464S20.829,20.932,22.742,22.036z M11.483,15.536c1.913,1.104,2.569,3.551,1.464,5.464
	s-3.551,2.568-5.464,1.464S4.915,18.914,6.02,17S9.57,14.432,11.483,15.536z M56.517,41.536c1.913,1.104,2.568,3.551,1.464,5.464
	s-3.551,2.569-5.464,1.465S49.948,44.913,51.053,43S54.604,40.432,56.517,41.536z M39.794,36.5c-1.104,1.913-0.448,4.36,1.464,5.465
	c1.913,1.104,4.36,0.448,5.465-1.465s0.448-4.359-1.465-5.464C43.346,33.932,40.898,34.587,39.794,36.5z M18.742,35.036
	c1.913-1.104,4.36-0.448,5.464,1.465s0.449,4.359-1.464,5.464s-4.359,0.449-5.464-1.464S16.829,36.141,18.742,35.036z M7.483,41.536
	c1.913-1.104,4.36-0.449,5.465,1.464s0.448,4.36-1.465,5.465C9.571,49.569,7.125,48.913,6.02,47S5.57,42.641,7.483,41.536z
	 M52.517,15.536c1.913-1.104,4.359-0.449,5.464,1.464s0.45,4.36-1.463,5.464s-4.36,0.448-5.465-1.465S50.604,16.641,52.517,15.536z
	 M39.794,27.5c1.104,1.913,3.552,2.568,5.465,1.465c1.913-1.104,2.568-3.552,1.464-5.465s-3.552-2.568-5.465-1.463
	C39.346,23.141,38.689,25.587,39.794,27.5z"/>
</svg>
