<?xml version="1.0" encoding="utf-8"?>
<!-- Generator: Adobe Illustrator 15.0.0, SVG Export Plug-In . SVG Version: 6.00 Build 0)  -->
<!DOCTYPE svg PUBLIC "-//W3C//DTD SVG 1.1//EN" "http://www.w3.org/Graphics/SVG/1.1/DTD/svg11.dtd">
<svg version="1.1" id="Layer_1" xmlns="http://www.w3.org/2000/svg" xmlns:xlink="http://www.w3.org/1999/xlink" x="0px" y="0px"
	 width="64px" height="64px" viewBox="0 0 64 64" style="enable-background:new 0 0 64 64;" xml:space="preserve">
<style type="text/css">
<![CDATA[
	.st0{fill:#EFE6FF;}
	.st1{fill:url(#SVGID_1_);}
]]>
</style>
<g id="decryption">
	<g>
		<g>
			<path class="st0" d="M44,30H26v-6c0-3.309,2.691-6,6-6s6,2.691,6,6h4c0-5.514-4.486-10-10-10c-5.514,0-10,4.486-10,10v6h-2
				c-1.104,0-2,0.896-2,2v12c0,1.104,0.896,2,2,2h24c1.104,0,2-0.896,2-2V32C46,30.896,45.104,30,44,30z M34,39.222V42h-4v-2.778
				c-0.609-0.549-1-1.337-1-2.222c0-1.657,1.343-3,3-3c1.657,0,3,1.343,3,3C35,37.886,34.609,38.673,34,39.222z"/>
		</g>
	</g>
	<linearGradient id="SVGID_1_" gradientUnits="userSpaceOnUse" x1="12.8784" y1="12.8779" x2="51.123" y2="51.1225">
		<stop  offset="0" style="stop-color:#E68CBC"/>
		<stop  offset="1" style="stop-color:#8366B3"/>
	</linearGradient>
	<path class="st1" d="M45.998,7.756c4.247,2.459,7.772,6.008,10.23,10.256l-3.446,1.99c-2.107-3.642-5.142-6.676-8.783-8.784
		L45.998,7.756z M56,32c0,4.373-1.176,8.468-3.219,11.999l3.464,2C58.629,41.88,60,37.102,60,32H56z M8,32
		c0-4.372,1.175-8.468,3.218-11.998l-3.464-2C5.371,22.121,4,26.899,4,32v0L8,32L8,32z M20.001,11.218C23.532,9.175,27.627,8,32,8V4
		c-5.101,0-9.879,1.371-13.999,3.754L20.001,11.218z M20.002,52.782c-3.642-2.107-6.676-5.142-8.783-8.783l-3.446,1.989
		c2.457,4.249,5.983,7.797,10.23,10.256L20.002,52.782z M43.998,52.781C40.468,54.825,36.372,56,32,56v4
		c5.102,0,9.879-1.371,13.998-3.754L43.998,52.781z"/>
</g>
</svg>
