<?xml version="1.0" encoding="utf-8"?>
<!-- Generator: Adobe Illustrator 15.0.0, SVG Export Plug-In . SVG Version: 6.00 Build 0)  -->
<!DOCTYPE svg PUBLIC "-//W3C//DTD SVG 1.1//EN" "http://www.w3.org/Graphics/SVG/1.1/DTD/svg11.dtd">
<svg version="1.1" id="Layer_1" xmlns="http://www.w3.org/2000/svg" xmlns:xlink="http://www.w3.org/1999/xlink" x="0px" y="0px"
	 width="64px" height="64px" viewBox="0 0 64 64" style="enable-background:new 0 0 64 64;" xml:space="preserve">
<style type="text/css">
<![CDATA[
	.st0{fill:#EFE6FF;}
	.st1{fill:url(#SVGID_1_);}
]]>
</style>
<g id="disclosed_x5F_identity">
	<g>
		<g>
			<linearGradient id="SVGID_1_" gradientUnits="userSpaceOnUse" x1="14.7891" y1="14.1704" x2="49.2122" y2="48.5935">
				<stop  offset="0" style="stop-color:#E68CBC"/>
				<stop  offset="1" style="stop-color:#8366B3"/>
			</linearGradient>
			<path class="st1" d="M51.529,28c-0.548,0-1.089,0.227-1.529,0.477V22c0-9.941-9.179-18-18-18c-8.821,0-18,8.059-18,18v6.477
				C13.56,28.227,13.019,28,12.471,28C11.235,28,10,29.143,10,33.715C10,38.286,11.438,42,13.832,42
				c0.234,0,0.441-0.055,0.627-0.155c1.033,6.686,3.774,10.641,7.626,13.912C24.473,57.784,27.749,60,32,60
				c4.25,0,7.524-2.215,9.911-4.24c3.854-3.27,6.597-7.227,7.63-13.914c0.186,0.1,0.393,0.154,0.627,0.154
				C52.563,42,54,38.286,54,33.715C54,29.143,52.765,28,51.529,28z M46,35.399c0,9.666-2.669,13.91-6.677,17.31
				C37.518,54.242,35.055,56,32,56c-3.057,0-5.521-1.76-7.326-3.292C20.668,49.307,18,45.062,18,35.399V22c0-7.884,7.526-14,14-14
				c6.475,0,14,6.116,14,14V35.399z M32,30c-0.526,0-0.967,0.496-1.249,1.451C30,34,29,37.97,29,39.75
				c0,0.842,0.987,1.386,1.472,1.662C31.012,41.721,31.58,42,32,42c0.419,0,0.987-0.279,1.527-0.588
				C34.013,41.136,35,40.592,35,39.75c0-1.78-1-5.75-1.731-8.3C32.996,30.499,32.526,30,32,30z"/>
		</g>
	</g>
	<path class="st0" d="M32,45c-6.015,0-7.183,5-4.941,5c1.863,0,8.02,0,9.882,0C39.183,50,38.015,45,32,45z M23.896,27.689
		c-1.346,0-2.104,1.413-2.104,3.156c0,1.742,0.758,3.154,2.104,3.154S26,32.588,26,30.846C26,29.103,25.242,27.689,23.896,27.689z
		 M38,30.846C38,32.588,38.758,34,40.104,34c1.347,0,2.104-1.412,2.104-3.154c0-1.743-0.758-3.156-2.104-3.156
		C38.758,27.689,38,29.103,38,30.846z M29.541,22.751C30.519,23.978,29.746,25,28.981,25c-1.225,0-1.727-1-4.981-1
		c-3.254,0-3.756,1-4.981,1c-0.765,0-1.538-1.022-0.56-2.249C18.684,22.469,20.745,20,24,20S29.316,22.469,29.541,22.751z M40,20
		c3.255,0,5.316,2.469,5.541,2.751C46.519,23.978,45.746,25,44.981,25c-1.225,0-1.727-1-4.981-1c-3.254,0-3.756,1-4.98,1
		c-0.765,0-1.538-1.022-0.56-2.249C34.684,22.469,36.745,20,40,20z M12.958,18L5.5,17.986c-0.05,0-0.102-0.003-0.153-0.008
		c-0.823-0.084-1.423-0.823-1.339-1.645c0.084-0.823,0.821-1.423,1.645-1.339c0.051,0.005,0.102,0.013,0.148,0.023l7.309,1.499
		c0.377,0.078,0.635,0.427,0.596,0.811S13.344,18,12.958,18z M14.775,11.997L9,7.277C8.961,7.245,8.924,7.21,8.887,7.174
		c-0.584-0.585-0.584-1.537,0-2.121c0.585-0.585,1.536-0.585,2.122,0c0.037,0.037,0.07,0.075,0.1,0.111l4.722,5.777
		c0.244,0.298,0.223,0.732-0.05,1.005S15.074,12.241,14.775,11.997z"/>
</g>
</svg>
