<?xml version="1.0" encoding="utf-8"?>
<!-- Generator: Adobe Illustrator 15.0.0, SVG Export Plug-In . SVG Version: 6.00 Build 0)  -->
<!DOCTYPE svg PUBLIC "-//W3C//DTD SVG 1.1//EN" "http://www.w3.org/Graphics/SVG/1.1/DTD/svg11.dtd">
<svg version="1.1" id="Layer_1" xmlns="http://www.w3.org/2000/svg" xmlns:xlink="http://www.w3.org/1999/xlink" x="0px" y="0px"
	 width="64px" height="64px" viewBox="0 0 64 64" style="enable-background:new 0 0 64 64;" xml:space="preserve">
<style type="text/css">
<![CDATA[
	.st0{fill:#EFE6FF;}
	.st1{fill:url(#SVGID_1_);}
]]>
</style>
<g id="emercoin">
	<linearGradient id="SVGID_1_" gradientUnits="userSpaceOnUse" x1="10.7061" y1="10.7065" x2="53.294" y2="53.2945">
		<stop  offset="0" style="stop-color:#E68CBC"/>
		<stop  offset="1" style="stop-color:#8366B3"/>
	</linearGradient>
	<path class="st1" d="M16.412,59L0.823,32L16.412,5h31.176l15.589,27L47.588,59H16.412z M44.12,53l12.131-21L44.12,11H19.875
		L7.75,32l12.125,21H44.12z"/>
	<polygon class="st0" points="43,43 21,43 21,39 39,39 39,25 34,25 34,34 21,34 21,30 30,30 30,25 21,25 21,21 43,21 	"/>
</g>
</svg>
