<?xml version="1.0" encoding="utf-8"?>
<!-- Generator: Adobe Illustrator 15.0.0, SVG Export Plug-In . SVG Version: 6.00 Build 0)  -->
<!DOCTYPE svg PUBLIC "-//W3C//DTD SVG 1.1//EN" "http://www.w3.org/Graphics/SVG/1.1/DTD/svg11.dtd">
<svg version="1.1" id="Layer_1" xmlns="http://www.w3.org/2000/svg" xmlns:xlink="http://www.w3.org/1999/xlink" x="0px" y="0px"
	 width="64px" height="64px" viewBox="0 0 64 64" style="enable-background:new 0 0 64 64;" xml:space="preserve">
<style type="text/css">
<![CDATA[
	.st0{fill:#EFE6FF;}
	.st1{fill:url(#SVGID_1_);}
]]>
</style>
<g id="feathercoin">
	<linearGradient id="SVGID_1_" gradientUnits="userSpaceOnUse" x1="12.123" y1="12.2788" x2="51.721" y2="51.8768">
		<stop  offset="0" style="stop-color:#E68CBC"/>
		<stop  offset="1" style="stop-color:#8366B3"/>
	</linearGradient>
	<path class="st1" d="M12.433,52.02C7.232,46.936,4,39.847,4.001,32.002C3.997,16.537,16.536,4,31.996,4
		c5.881,0,11.337,1.817,15.844,4.915c-1.682,0.688-4.063,2.175-5.949,3.437C38.915,10.851,35.556,10,31.996,10
		c-12.145,0-21.999,9.85-21.995,22.001c0,4.372,1.282,8.444,3.483,11.87c-0.901,1.806-0.847,2.596-0.866,2.702
		c-0.299,1.678,0.274,3.098,0.457,3.492l0.093,0.201C12.786,50.846,12.518,51.414,12.433,52.02z M54.109,14.832
		c0.098,0.732,0.126,1.504,0.069,2.3c-0.13,1.813-0.985,3.744-2.192,5.677c1.29,2.797,2.015,5.909,2.015,9.191
		c0.001,12.145-9.855,22-22.003,22c-2.149,0-4.224-0.314-6.188-0.89l-1.866,0.667l-0.532,0.003c-0.646,0-2.163-0.485-3.617-1.169
		c-0.985,1.097-2.203,2.217-3.363,2.662C20.884,58.258,26.237,60,31.998,60c15.464,0,28.004-12.539,28.003-28
		C60.001,25.528,57.798,19.574,54.109,14.832z"/>
	<path id="_x3C_Path_x3E_" class="st0" d="M49.306,11.53c-0.384-0.113-5.955,3.3-8.55,5.267c-2.594,1.967-7.434,5.807-7.616,6.207
		c-0.184,0.4-0.201,1.123-0.418,2.942c-0.218,1.819-0.975,2.611-0.975,2.611s-0.366-0.278-0.566-0.87
		c-0.2-0.592-0.331-2.247-0.453-2.281c-0.122-0.035-3.383,3.004-3.383,3.004s-0.232,1.52-0.731,4.538
		c-0.5,3.019-1.266,4.28-1.431,4.298c-0.165,0.018-0.522-1.166-0.644-2.368c-0.122-1.201-0.035-4.048-0.166-4.135
		c-0.13-0.087-1.845,1.718-1.845,1.718s0.232,2.147,0.406,4.956c0.174,2.809-0.092,4.739-0.379,4.922
		c-0.288,0.183-0.723-0.505-1.358-2.012c-0.635-1.506-0.679-2.698-0.975-2.803c-0.296-0.104-0.914,1.367-1.097,2.83
		c-0.183,1.462-0.044,3.682-0.044,3.682s-0.854-1.584-1.393-2.411s-1.793-2.481-1.95-2.359c-0.157,0.122,0.531,1.463,0.949,2.655
		c0.417,1.193,0.975,2.96,0.975,2.96s-1.454-1.419-2.115-1.889c-0.662-0.471-2.585-1.559-2.742-1.219
		c-0.156,0.339,1.167,1.341,1.741,1.915s1.802,1.889,1.802,1.889s-0.618,0.645-0.775,1.523s0.226,1.706,0.226,1.706
		s1.019-2.106,1.602-2.142c0.583-0.034,0.801,1.158,0.627,1.941c-0.174,0.784-2.742,3.477-2.612,3.84
		c0.131,0.362,3.404-3.079,3.711-3.735c0.65,0.79,4.109,2.136,4.306,2.066s-1.335-1.126-1.938-1.694
		c-0.603-0.569-1.3-2.252-1.056-2.473c0.244-0.221,0.557,1.126,2.31,1.973c1.752,0.848,4.434,1.033,4.48,0.917
		s-2.055-0.742-3.296-1.531c-1.242-0.79-1.869-2.427-1.869-2.427s1.799,0.36,6.303,0.604c4.504,0.244,7.336-1.288,7.336-1.288
		s-3.947-0.046-6.512-0.162c-2.566-0.116-6.245-0.441-6.245-0.441s0.972-1.445,3.561-1.967c2.588-0.522,6.735-0.238,7.106-0.296
		c0.372-0.059,6.326-8.462,6.326-8.462s-3.68,0.15-3.424-0.477c0.567-1.393,3.749-1.08,4.225-1.125
		c0.476-0.047,1.962-2.229,3.703-4.272s6.5-7.324,6.744-10.737C51.43,13.506,49.688,11.643,49.306,11.53z M36.316,30.116
		c-2.925,3.459-9.634,10.145-9.634,10.145s4.48-6.104,7.823-10.028s10.075-11.306,10.075-11.306S39.242,26.657,36.316,30.116z"/>
</g>
</svg>
