<?xml version="1.0" encoding="utf-8"?>
<!-- Generator: Adobe Illustrator 15.0.0, SVG Export Plug-In . SVG Version: 6.00 Build 0)  -->
<!DOCTYPE svg PUBLIC "-//W3C//DTD SVG 1.1//EN" "http://www.w3.org/Graphics/SVG/1.1/DTD/svg11.dtd">
<svg version="1.1" id="Layer_1" xmlns="http://www.w3.org/2000/svg" xmlns:xlink="http://www.w3.org/1999/xlink" x="0px" y="0px"
	 width="64px" height="64px" viewBox="0 0 64 64" style="enable-background:new 0 0 64 64;" xml:space="preserve">
<style type="text/css">
<![CDATA[
	.st0{fill:#EFE6FF;}
	.st1{fill:url(#SVGID_1_);}
]]>
</style>
<g id="free">
	<g>
		<g>
			<linearGradient id="SVGID_1_" gradientUnits="userSpaceOnUse" x1="17.3516" y1="11.6074" x2="51.8382" y2="46.0941">
				<stop  offset="0" style="stop-color:#E68CBC"/>
				<stop  offset="1" style="stop-color:#8366B3"/>
			</linearGradient>
			<path class="st1" d="M51.529,30c-0.548,0-1.089,0.227-1.529,0.477V22c0-1.521-0.237-2.99-0.633-4.4
				c2.258-0.426,4.406-1.195,6.49-2.324l-1.905-3.518v0.001C52.177,12.721,49.315,14,45,14c-0.668,0-1.292-0.037-1.889-0.097
				C44.867,16.172,46,18.95,46,22v15.399c0,9.666-2.669,11.91-6.677,15.31C37.518,54.242,35.055,56,32,56
				c-3.057,0-5.521-1.76-7.326-3.292C20.668,49.307,18,47.062,18,37.399V22c0-7.884,7.526-14,14-14c3.217,0,5.53,0.598,7.571,1.126
				C41.384,9.595,42.948,10,45,10c3.369,0,5.536-0.94,7.048-1.759l-1.905-3.517C48.978,5.355,47.456,6,45,6
				c-1.542,0-2.752-0.313-4.427-0.746C38.413,4.695,35.726,4,32,4c-8.821,0-18,8.059-18,18v8.477C13.56,30.227,13.019,30,12.471,30
				C11.235,30,10,31.143,10,35.715C10,40.286,11.438,44,13.832,44c0.251,0,0.47-0.066,0.665-0.181
				c1.062,5.988,3.784,8.707,7.589,11.938C24.473,57.784,27.749,60,32,60c4.25,0,7.524-2.215,9.911-4.24
				c3.806-3.229,6.53-5.95,7.593-11.94C49.698,43.934,49.917,44,50.168,44C52.563,44,54,40.286,54,35.715
				C54,31.143,52.765,30,51.529,30z M32,26c-0.526,0-0.967,0.496-1.249,1.451C30,30,29,33.97,29,35.75
				c0,0.842,0.987,1.386,1.472,1.662C31.012,37.721,31.58,38,32,38c0.419,0,0.987-0.279,1.527-0.588
				C34.013,37.136,35,36.592,35,35.75c0-1.78-1-5.75-1.731-8.3C32.996,26.499,32.526,26,32,26z"/>
		</g>
	</g>
	<path class="st0" d="M32,46c6.516,0,7.782-6,5.354-6c-1.01,0-3.182,1-5.354,1s-4.343-1-5.352-1C24.219,40,25.484,46,32,46z
		 M24,28.625c-1.064,0-1.574-0.486-1.942-0.625C21.752,27.886,21,28.009,21,28.846C21,30,22.138,31,23.896,31S27,30,27,28.846
		c0-0.833-0.75-0.959-1.053-0.846C25.578,28.136,25.066,28.625,24,28.625z M40,28.625c-1.064,0-1.574-0.486-1.943-0.625
		C37.752,27.886,37,28.009,37,28.846C37,30,38.138,31,39.896,31C41.654,31,43,30,43,28.846c0-0.833-0.75-0.959-1.053-0.846
		C41.578,28.136,41.066,28.625,40,28.625z M29.541,21.751C30.519,22.978,29.746,24,28.981,24C27.756,24,27,24,26,24
		c-5,0-5.756,1-6.981,1c-0.765,0-1.538-1.022-0.56-2.249C18.684,22.469,20.745,20,24,20S29.316,21.469,29.541,21.751z M40,20
		c3.255,0,5.316,2.469,5.541,2.751C46.519,23.978,45.746,25,44.981,25C43.757,25,43,24,38,24c-1,0-1.756,0-2.98,0
		c-0.765,0-1.538-1.022-0.56-2.249C34.684,21.469,36.745,20,40,20z"/>
</g>
</svg>
