<?xml version="1.0" encoding="utf-8"?>
<!-- Generator: Adobe Illustrator 15.0.0, SVG Export Plug-In . SVG Version: 6.00 Build 0)  -->
<!DOCTYPE svg PUBLIC "-//W3C//DTD SVG 1.1//EN" "http://www.w3.org/Graphics/SVG/1.1/DTD/svg11.dtd">
<svg version="1.1" id="Layer_1" xmlns="http://www.w3.org/2000/svg" xmlns:xlink="http://www.w3.org/1999/xlink" x="0px" y="0px"
	 width="64px" height="64px" viewBox="0 0 64 64" style="enable-background:new 0 0 64 64;" xml:space="preserve">
<style type="text/css">
<![CDATA[
	.st0{fill:#EFE6FF;}
	.st1{fill:url(#SVGID_1_);}
]]>
</style>
<g id="litecoin">
	<linearGradient id="SVGID_1_" gradientUnits="userSpaceOnUse" x1="12.2002" y1="12.2017" x2="51.7975" y2="51.799">
		<stop  offset="0" style="stop-color:#E68CBC"/>
		<stop  offset="1" style="stop-color:#8366B3"/>
	</linearGradient>
	<path class="st1" d="M60,32c0.001,15.461-12.539,28-28.003,28C16.537,60,3.999,47.462,4,32.002C3.996,16.537,16.535,4,31.995,4
		C47.459,4,59.999,16.537,60,32L60,32z M54,32c-0.001-12.149-9.857-22-22.005-22C19.851,10,9.996,19.851,10,32.002
		C9.999,44.146,19.851,54,31.997,54C44.145,54,54.001,44.145,54,32L54,32z"/>
	<polygon class="st0" points="27.362,16 36.66,16 33.382,28.331 37.906,26.655 37.948,26.772 36.822,31.082 32.187,32.762 
		30.254,40.075 45.677,40.075 44.083,46 19.4,46 21.918,36.516 18.347,37.814 19.518,33.41 23.089,32.078 	"/>
</g>
</svg>
