<?xml version="1.0" encoding="utf-8"?>
<!-- Generator: Adobe Illustrator 15.0.0, SVG Export Plug-In . SVG Version: 6.00 Build 0)  -->
<!DOCTYPE svg PUBLIC "-//W3C//DTD SVG 1.1//EN" "http://www.w3.org/Graphics/SVG/1.1/DTD/svg11.dtd">
<svg version="1.1" id="Layer_1" xmlns="http://www.w3.org/2000/svg" xmlns:xlink="http://www.w3.org/1999/xlink" x="0px" y="0px"
	 width="64px" height="64px" viewBox="0 0 64 64" style="enable-background:new 0 0 64 64;" xml:space="preserve">
<style type="text/css">
<![CDATA[
	.st0{fill:#EFE6FF;}
	.st1{fill:url(#SVGID_1_);}
]]>
</style>
<g id="miner2">
	<g>
		<g>
			<linearGradient id="SVGID_1_" gradientUnits="userSpaceOnUse" x1="17.5151" y1="22.4746" x2="46.4865" y2="51.446">
				<stop  offset="0" style="stop-color:#E68CBC"/>
				<stop  offset="1" style="stop-color:#8366B3"/>
			</linearGradient>
			<path class="st1" d="M51.529,32c-0.548,0-1.089,0.194-1.529,0.409c0-3.539,0-6.235,0-6.409h-4v11.399
				c0,9.666-2.669,11.91-6.677,15.31C37.518,54.242,35.055,56,32,56c-3.057,0-5.521-1.76-7.326-3.292
				C20.668,49.307,18,47.062,18,37.399V26h-4c0,0.174,0,2.87,0,6.409C13.56,32.194,13.019,32,12.471,32
				C11.235,32,10,32.98,10,36.898C10,40.817,11.438,44,13.832,44c0.252,0,0.473-0.058,0.668-0.157
				c1.065,5.972,3.785,8.688,7.585,11.914C24.473,57.784,27.749,60,32,60c4.25,0,7.524-2.215,9.911-4.24
				c3.801-3.225,6.523-5.942,7.589-11.917c0.195,0.1,0.415,0.157,0.668,0.157C52.563,44,54,40.817,54,36.898
				C54,32.98,52.765,32,51.529,32z M30.472,43.412C31.012,43.721,31.58,44,32,44c0.419,0,0.987-0.279,1.527-0.588
				C34.013,43.136,35,42.592,35,41.75c0-1.78-1-5.75-1.731-8.3C32.996,32.499,32.526,32,32,32s-0.967,0.496-1.249,1.451
				C30,36,29,39.97,29,41.75C29,42.592,29.987,43.136,30.472,43.412z"/>
		</g>
	</g>
	<path class="st0" d="M32,52c6.015,0,7.184-5,4.941-5c-1.863,0-8.02,0-9.882,0C24.817,47,25.985,52,32,52z M23.896,31.689
		c-1.346,0-2.104,1.413-2.104,3.156c0,1.742,0.758,3.154,2.104,3.154S26,36.588,26,34.846C26,33.103,25.242,31.689,23.896,31.689z
		 M38,34.846C38,36.588,38.758,38,40.104,38c1.347,0,2.104-1.412,2.104-3.154c0-1.743-0.758-3.156-2.104-3.156
		C38.758,31.689,38,33.103,38,34.846z M32.148,30c-0.049,0-0.098,0-0.148,0c-0.041,0-0.082,0-0.123-0.001
		c-6.775-0.041-10.818-1.631-14.075-2.912c-1.128-0.443-2.114-0.831-3.059-1.087H11c-1.104,0-2-0.896-2-2s0.896-2,2-2h1.088
		C13.012,13.174,16.268,2,32,2c15.731,0,18.988,11.174,19.912,20H53c1.104,0,2,0.896,2,2s-0.896,2-2,2h-3.743
		c-0.942,0.258-1.896,0.651-2.986,1.102C43.144,28.393,39.253,30,32.148,30z M31.919,26c0.04,0,0.08,0,0.12,0
		C34.778,25.979,37,23.744,37,21c0-2.757-2.243-5-5-5s-5,2.243-5,5C27,23.73,29.199,25.956,31.919,26z M41,21
		c0,1.467-0.353,2.853-0.979,4.078c1.845-0.485,3.327-1.098,4.723-1.673c1.07-0.442,2.092-0.864,3.168-1.181
		c-0.79-7.119-2.97-11.687-6.912-14.105V21z M16.088,22.223c1.054,0.307,2.09,0.714,3.177,1.142
		c1.405,0.553,2.894,1.138,4.664,1.616C23.334,23.78,23,22.428,23,21V8.119C19.057,10.537,16.878,15.104,16.088,22.223z M32,12
		c1.849,0,3.569,0.561,5,1.52v-7C35.503,6.17,33.839,6,32,6c-1.839,0-3.503,0.17-5,0.52v7C28.431,12.561,30.151,12,32,12z"/>
</g>
</svg>
