<?xml version="1.0" encoding="utf-8"?>
<!-- Generator: Adobe Illustrator 15.0.0, SVG Export Plug-In . SVG Version: 6.00 Build 0)  -->
<!DOCTYPE svg PUBLIC "-//W3C//DTD SVG 1.1//EN" "http://www.w3.org/Graphics/SVG/1.1/DTD/svg11.dtd">
<svg version="1.1" id="Layer_1" xmlns="http://www.w3.org/2000/svg" xmlns:xlink="http://www.w3.org/1999/xlink" x="0px" y="0px"
	 width="64px" height="64px" viewBox="0 0 64 64" style="enable-background:new 0 0 64 64;" xml:space="preserve">
<style type="text/css">
<![CDATA[
	.st0{fill:#EFE6FF;}
	.st1{fill:url(#SVGID_1_);}
]]>
</style>
<g id="mining_x5F_pool2">
	<g>
		<g>
			<linearGradient id="SVGID_1_" gradientUnits="userSpaceOnUse" x1="13.6865" y1="8.9019" x2="50.3048" y2="45.5202">
				<stop  offset="0" style="stop-color:#E68CBC"/>
				<stop  offset="1" style="stop-color:#8366B3"/>
			</linearGradient>
			<path class="st1" d="M56.588,15.298c-0.569-0.019-2.265,1.286-20.513,11.43c-0.458,0.255-0.885,0.49-1.328,0.736
				c0.242-10.121,0.437-14.75,0.013-15.113c-0.55-0.469-4.965-0.47-5.521-0.001c-0.421,0.368-0.222,4.993,0.013,15.111
				c-0.442-0.246-0.868-0.48-1.325-0.735C9.677,16.582,7.982,15.277,7.413,15.296c-0.562,0.025-2.441,3.285-2.18,3.783
				c0.265,0.499,2.25,1.311,20.156,12.042c0.449,0.268,0.864,0.518,1.297,0.777c-8.867,4.84-12.978,6.99-13.082,7.539
				c-0.131,0.711,2.076,4.535,2.76,4.782c0.529,0.182,4.44-2.308,13.068-7.559c0.008,0.494,0.016,0.994,0.023,1.505
				c0.339,20.873,0.05,22.998,0.35,23.477c0.301,0.476,4.063,0.478,4.366,0.004c0.301-0.484,0.019-2.604,0.357-23.48
				c0.009-0.514,0.017-1.018,0.025-1.515c8.637,5.256,12.553,7.748,13.081,7.566c0.685-0.247,2.89-4.072,2.759-4.782
				c-0.103-0.549-4.213-2.697-13.078-7.537c0.433-0.259,0.847-0.508,1.294-0.775c17.907-10.73,19.893-11.543,20.156-12.041
				C59.029,18.583,57.149,15.324,56.588,15.298z"/>
		</g>
	</g>
	<path class="st0" d="M52,50c-2.497,3.971-8.941,10.008-19.998,10C20.943,60.002,14.501,53.971,12,50
		C22.314,54.997,41.688,54.997,52,50z M26.412,5.68c-4.688,0.177-13.138,2.74-18.659,12.319c-5.531,9.576-3.529,18.17-1.341,22.323
		C7.241,28.89,16.928,12.112,26.412,5.68z M57.59,40.323c2.188-4.152,4.189-12.747-1.341-22.323
		C50.727,8.421,42.276,5.859,37.59,5.682C47.073,12.114,56.76,28.892,57.59,40.323z"/>
</g>
</svg>
