<?xml version="1.0" encoding="utf-8"?>
<!-- Generator: Adobe Illustrator 15.0.0, SVG Export Plug-In . SVG Version: 6.00 Build 0)  -->
<!DOCTYPE svg PUBLIC "-//W3C//DTD SVG 1.1//EN" "http://www.w3.org/Graphics/SVG/1.1/DTD/svg11.dtd">
<svg version="1.1" id="Layer_1" xmlns="http://www.w3.org/2000/svg" xmlns:xlink="http://www.w3.org/1999/xlink" x="0px" y="0px"
	 width="64px" height="64px" viewBox="0 0 64 64" style="enable-background:new 0 0 64 64;" xml:space="preserve">
<style type="text/css">
<![CDATA[
	.st0{fill:#EFE6FF;}
	.st1{fill:url(#SVGID_1_);}
]]>
</style>
<g id="blackcoin">
	<linearGradient id="SVGID_1_" gradientUnits="userSpaceOnUse" x1="12.2017" y1="12.2017" x2="51.7996" y2="51.7996">
		<stop  offset="0" style="stop-color:#E68CBC"/>
		<stop  offset="1" style="stop-color:#8366B3"/>
	</linearGradient>
	<path class="st1" d="M38,54c0,3.313-2.687,6-6,6s-6-2.687-6-6s2.687-6,6-6S38,50.687,38,54z M32,4c-3.313,0-6,2.687-6,6
		s2.687,6,6,6s6-2.687,6-6S35.313,4,32,4z M48,32c0,3.313,2.687,6,6,6s6-2.687,6-6s-2.687-6-6-6S48,28.687,48,32z M4,32
		c0,3.313,2.687,6,6,6s6-2.687,6-6s-2.687-6-6-6S4,28.687,4,32z M43.313,43.313c-2.343,2.343-2.343,6.143,0,8.485
		c2.344,2.343,6.143,2.343,8.485,0s2.343-6.143,0-8.485S45.657,40.971,43.313,43.313z M12.201,12.201
		c-2.343,2.343-2.343,6.142,0,8.485c2.343,2.343,6.142,2.343,8.485,0c2.343-2.343,2.343-6.143,0-8.485
		C18.343,9.858,14.544,9.858,12.201,12.201z M43.313,20.687c2.344,2.343,6.143,2.343,8.485,0c2.343-2.343,2.343-6.143,0-8.485
		c-2.343-2.343-6.142-2.343-8.485,0C40.971,14.544,40.971,18.343,43.313,20.687z M12.201,51.799c2.343,2.343,6.142,2.343,8.485,0
		c2.343-2.343,2.343-6.143,0-8.485c-2.343-2.343-6.143-2.343-8.485,0C9.858,45.656,9.858,49.456,12.201,51.799z"/>
	<path class="st0" d="M32,20c-6.627,0-12,5.373-12,12c0,6.627,5.373,12,12,12c6.627,0,12-5.373,12-12C44,25.373,38.627,20,32,20z
		 M40,33c0,0.553-0.447,1-1,1h-5v5c0,0.553-0.447,1-1,1h-2c-0.552,0-1-0.447-1-1v-5h-5c-0.552,0-1-0.447-1-1v-2c0-0.553,0.448-1,1-1
		h5v-5c0-0.552,0.448-1,1-1h2c0.553,0,1,0.448,1,1v5h5c0.553,0,1,0.447,1,1V33z"/>
</g>
</svg>
