<?xml version="1.0" encoding="utf-8"?>
<!-- Generator: Adobe Illustrator 15.0.0, SVG Export Plug-In . SVG Version: 6.00 Build 0)  -->
<!DOCTYPE svg PUBLIC "-//W3C//DTD SVG 1.1//EN" "http://www.w3.org/Graphics/SVG/1.1/DTD/svg11.dtd">
<svg version="1.1" id="Layer_1" xmlns="http://www.w3.org/2000/svg" xmlns:xlink="http://www.w3.org/1999/xlink" x="0px" y="0px"
	 width="64px" height="64px" viewBox="0 0 64 64" style="enable-background:new 0 0 64 64;" xml:space="preserve">
<style type="text/css">
<![CDATA[
	.st0{fill:#EFE6FF;}
	.st1{fill:url(#SVGID_1_);}
]]>
</style>
<g id="monero">
	<linearGradient id="SVGID_1_" gradientUnits="userSpaceOnUse" x1="13.228" y1="11.1738" x2="50.7717" y2="48.7175">
		<stop  offset="0" style="stop-color:#E68CBC"/>
		<stop  offset="1" style="stop-color:#8366B3"/>
	</linearGradient>
	<path class="st1" d="M14,41V17.838l18,17.714l18-17.714V41h8.488c0.976-2.847,1.513-5.823,1.513-9C60,16.537,47.46,4,31.996,4
		C16.536,4,3.997,16.537,4.001,32.002C4,35.179,4.537,38.153,5.512,41H14z"/>
	<path class="st0" d="M44,47V32.162L32,43.971L20,32.162V47H8.398c4.974,7.78,13.682,13,23.599,13c9.919,0,18.629-5.22,23.604-13H44
		z"/>
</g>
</svg>
