<?xml version="1.0" encoding="utf-8"?>
<!-- Generator: Adobe Illustrator 15.0.0, SVG Export Plug-In . SVG Version: 6.00 Build 0)  -->
<!DOCTYPE svg PUBLIC "-//W3C//DTD SVG 1.1//EN" "http://www.w3.org/Graphics/SVG/1.1/DTD/svg11.dtd">
<svg version="1.1" id="Layer_1" xmlns="http://www.w3.org/2000/svg" xmlns:xlink="http://www.w3.org/1999/xlink" x="0px" y="0px"
	 width="64px" height="64px" viewBox="0 0 64 64" style="enable-background:new 0 0 64 64;" xml:space="preserve">
<style type="text/css">
<![CDATA[
	.st0{fill:#EFE6FF;}
	.st1{fill:url(#SVGID_1_);}
]]>
</style>
<g id="myriad">
	<path class="st0" d="M59.712,36H45.057l1.263-4.775C47.681,26.104,46.092,23,41.736,23c-3.07,0-4.79,1.191-6.025,2.914
		C34.971,24.089,33.326,23,31.033,23c-1.867,0-3.449,0.827-4.618,2.142C26.458,23.557,25.265,23,24.162,23H5.486
		c-0.545,1.607-0.951,3.277-1.197,5h16.443l-2.782,10.486C17.582,39.875,18.407,41,19.796,41c1.388,0,2.813-1.125,3.182-2.514
		l2.188-8.229c0.109-0.407,1.074-2.711,3.519-2.711c2.446,0,2.349,2.387,2.241,2.791l-2.167,8.149C28.39,39.875,29.216,41,30.604,41
		c1.388,0,2.813-1.125,3.183-2.514l1.999-7.558c0.005-0.02,0.008-0.039,0.014-0.059c0.008-0.029,0.018-0.05,0.025-0.081
		c0.108-0.404,1.014-3.243,3.461-3.243c2.445,0,2.349,2.387,2.241,2.791l-2.167,8.149C38.991,39.875,39.816,41,41.204,41h17.31
		C59.06,39.394,59.466,37.723,59.712,36z"/>
	<linearGradient id="SVGID_1_" gradientUnits="userSpaceOnUse" x1="12.2017" y1="12.2026" x2="51.7969" y2="51.7979">
		<stop  offset="0" style="stop-color:#E68CBC"/>
		<stop  offset="1" style="stop-color:#8366B3"/>
	</linearGradient>
	<path class="st1" d="M57.754,43c-4.275,9.994-14.198,17-25.756,17C16.538,60,4,47.462,4.001,32.002c0-0.674,0.032-1.34,0.079-2.002
		h6.016c-0.06,0.66-0.094,1.327-0.094,2.002C10,44.146,19.852,54,31.998,54c8.139,0,15.244-4.428,19.05-11H57.754z M12.95,21
		c3.805-6.574,10.909-11,19.046-11C44.144,10,54,19.851,54.001,32c0,0.675-0.035,1.341-0.095,2h6.016
		c0.047-0.661,0.079-1.327,0.079-2C60,16.537,47.46,4,31.996,4C20.441,4,10.52,11.005,6.246,21H12.95z"/>
</g>
</svg>
