<?xml version="1.0" encoding="utf-8"?>
<!-- Generator: Adobe Illustrator 15.0.0, SVG Export Plug-In . SVG Version: 6.00 Build 0)  -->
<!DOCTYPE svg PUBLIC "-//W3C//DTD SVG 1.1//EN" "http://www.w3.org/Graphics/SVG/1.1/DTD/svg11.dtd">
<svg version="1.1" id="Layer_1" xmlns="http://www.w3.org/2000/svg" xmlns:xlink="http://www.w3.org/1999/xlink" x="0px" y="0px"
	 width="64px" height="64px" viewBox="0 0 64 64" style="enable-background:new 0 0 64 64;" xml:space="preserve">
<style type="text/css">
<![CDATA[
	.st0{fill:#EFE6FF;}
	.st1{fill:url(#SVGID_1_);}
]]>
</style>
<g id="nxt">
	<linearGradient id="SVGID_1_" gradientUnits="userSpaceOnUse" x1="12.2046" y1="12.2051" x2="51.7943" y2="51.7948">
		<stop  offset="0" style="stop-color:#E68CBC"/>
		<stop  offset="1" style="stop-color:#8366B3"/>
	</linearGradient>
	<path class="st1" d="M58.514,41c-3.75,11.046-14.202,19-26.516,19c-12.311,0-22.761-7.954-26.51-19h6.44
		c3.44,7.659,11.131,13,20.071,13s16.633-5.341,20.075-13H58.514z M11.926,23c3.44-7.661,11.132-13,20.07-13
		c8.94,0,16.634,5.338,20.077,13h6.44C54.763,11.953,44.31,4,31.996,4C19.686,4,9.235,11.953,5.486,23H11.926z"/>
	<path class="st0" d="M57.646,34.333c-1.287,0-2.337-1.039-2.337-2.336v-2.331H43.575c-1.286,0-2.324-1.047-2.324-2.333
		c0-1.292,1.038-2.333,2.324-2.333h14.07c1.285,0,2.323,1.042,2.323,2.333v4.664C59.969,33.294,58.931,34.333,57.646,34.333
		L57.646,34.333z M46.077,34.333h2.177h2.486c1.285,0,2.338,1.053,2.338,2.335c0,1.288-1.053,2.332-2.338,2.332h-2.486h-2.177
		h-2.502c-0.382,0-0.751-0.086-1.069-0.268l-13.612-9.066H24.97c-1.286,0-2.333-1.047-2.333-2.333c0-1.292,1.047-2.333,2.333-2.333
		h4.669c0.502,0,0.97,0.16,1.349,0.426l13.311,8.907H46.077L46.077,34.333z M29.64,34.333c1.285,0,2.331,1.053,2.331,2.335
		c0,1.288-1.046,2.332-2.331,2.332H24.97c-0.383,0-0.752-0.086-1.075-0.268l-13.609-9.066h-3.92c-1.291,0-2.334-1.047-2.334-2.333
		C4.031,26.042,5.075,25,6.366,25h4.665c0.505,0,0.97,0.16,1.353,0.426l13.305,8.907H29.64L29.64,34.333z M6.366,34.333h4.665
		c1.292,0,2.336,1.053,2.336,2.335c0,1.288-1.045,2.332-2.336,2.332H6.366c-1.291,0-2.334-1.044-2.334-2.332
		C4.031,35.386,5.075,34.333,6.366,34.333z"/>
</g>
</svg>
