<?xml version="1.0" encoding="utf-8"?>
<!-- Generator: Adobe Illustrator 15.0.0, SVG Export Plug-In . SVG Version: 6.00 Build 0)  -->
<!DOCTYPE svg PUBLIC "-//W3C//DTD SVG 1.1//EN" "http://www.w3.org/Graphics/SVG/1.1/DTD/svg11.dtd">
<svg version="1.1" id="Layer_1" xmlns="http://www.w3.org/2000/svg" xmlns:xlink="http://www.w3.org/1999/xlink" x="0px" y="0px"
	 width="64px" height="64px" viewBox="0 0 64 64" style="enable-background:new 0 0 64 64;" xml:space="preserve">
<style type="text/css">
<![CDATA[
	.st0{fill:#EFE6FF;}
	.st1{fill:url(#SVGID_1_);}
]]>
</style>
<g id="peercoin">
	<path class="st0" d="M45.999,34.855c0,6.204-3.134,10.647-5.826,12.092c-0.316,0.169,0.563-2.171,0.563-5.514
		c0-10.687-8.759-16.975-15.5-19.855c8.385,5.171,12.305,11.687,12.305,18.101c0,3.195-0.939,6.01-2.178,7.09
		c-0.674,0.076-1.369,0.115-2.082,0.115c-7.336,0-13.282-6.479-13.282-14.473c0-7.993,0-15.412,0-15.412
		C34.066,17,45.999,24.654,45.999,34.855z"/>
	<linearGradient id="SVGID_1_" gradientUnits="userSpaceOnUse" x1="12.2002" y1="12.2017" x2="51.7975" y2="51.799">
		<stop  offset="0" style="stop-color:#E68CBC"/>
		<stop  offset="1" style="stop-color:#8366B3"/>
	</linearGradient>
	<path class="st1" d="M60,32c0.001,15.461-12.539,28-28.003,28C16.537,60,3.999,47.462,4,32.002C3.996,16.537,16.535,4,31.995,4
		C47.459,4,59.999,16.537,60,32L60,32z M54,32c-0.001-12.149-9.857-22-22.005-22C19.851,10,9.996,19.851,10,32.002
		C9.999,44.146,19.851,54,31.997,54C44.145,54,54.001,44.145,54,32L54,32z"/>
</g>
</svg>
