<?xml version="1.0" encoding="utf-8"?>
<!-- Generator: Adobe Illustrator 15.0.0, SVG Export Plug-In . SVG Version: 6.00 Build 0)  -->
<!DOCTYPE svg PUBLIC "-//W3C//DTD SVG 1.1//EN" "http://www.w3.org/Graphics/SVG/1.1/DTD/svg11.dtd">
<svg version="1.1" id="Layer_1" xmlns="http://www.w3.org/2000/svg" xmlns:xlink="http://www.w3.org/1999/xlink" x="0px" y="0px"
	 width="64px" height="64px" viewBox="0 0 64 64" style="enable-background:new 0 0 64 64;" xml:space="preserve">
<style type="text/css">
<![CDATA[
	.st0{fill:#EFE6FF;}
	.st1{fill:url(#SVGID_1_);}
]]>
</style>
<g id="primecoin">
	<path class="st0" d="M41,19c0,0,0,6,0,10s-2.041,5.312-5,5.312c-0.5,0-0.813,0-1,0V19h-6v15.312c-0.188,0-0.5,0-1,0
		c-2.958,0-5-1.312-5-5.312s0-10,0-10h-6c0,0,0,4,0,10s3.583,10,11,10h1v4h-6v4h6v4h6v-4h6v-4h-6v-4h1c7.417,0,11-4,11-10s0-10,0-10
		H41z"/>
	<linearGradient id="SVGID_1_" gradientUnits="userSpaceOnUse" x1="12.2007" y1="12.2012" x2="51.7987" y2="51.7992">
		<stop  offset="0" style="stop-color:#E68CBC"/>
		<stop  offset="1" style="stop-color:#8366B3"/>
	</linearGradient>
	<path class="st1" d="M60.001,32c0.001,15.461-12.539,28-28.003,28C16.538,60,4,47.462,4.001,32.002C3.997,16.537,16.536,4,31.996,4
		C47.46,4,60,16.537,60.001,32L60.001,32z M54.001,32C54,19.851,44.144,10,31.996,10c-12.145,0-21.999,9.85-21.995,22.001
		C10,44.146,19.852,54,31.998,54C44.146,54,54.002,44.145,54.001,32L54.001,32z"/>
</g>
</svg>
