<?xml version="1.0" encoding="utf-8"?>
<!-- Generator: Adobe Illustrator 15.0.0, SVG Export Plug-In . SVG Version: 6.00 Build 0)  -->
<!DOCTYPE svg PUBLIC "-//W3C//DTD SVG 1.1//EN" "http://www.w3.org/Graphics/SVG/1.1/DTD/svg11.dtd">
<svg version="1.1" id="Layer_1" xmlns="http://www.w3.org/2000/svg" xmlns:xlink="http://www.w3.org/1999/xlink" x="0px" y="0px"
	 width="64px" height="64px" viewBox="0 0 64 64" style="enable-background:new 0 0 64 64;" xml:space="preserve">
<style type="text/css">
<![CDATA[
	.st0{fill:#EFE6FF;}
	.st1{fill:url(#SVGID_1_);}
]]>
</style>
<g id="pseudonymity">
	<g>
		<g>
			<linearGradient id="SVGID_1_" gradientUnits="userSpaceOnUse" x1="14.7891" y1="14.1704" x2="49.2122" y2="48.5935">
				<stop  offset="0" style="stop-color:#E68CBC"/>
				<stop  offset="1" style="stop-color:#8366B3"/>
			</linearGradient>
			<path class="st1" d="M51.529,28c-0.548,0-1.089,0.227-1.529,0.477V22c0-9.941-9.179-18-18-18c-8.821,0-18,8.059-18,18v6.477
				C13.56,28.227,13.019,28,12.471,28C11.235,28,10,29.143,10,33.715C10,38.286,11.438,42,13.832,42
				c0.234,0,0.441-0.055,0.627-0.155c1.033,6.686,3.774,10.641,7.626,13.912C24.473,57.784,27.749,60,32,60
				c4.25,0,7.524-2.215,9.911-4.24c3.854-3.27,6.597-7.227,7.63-13.914c0.186,0.1,0.393,0.154,0.627,0.154
				C52.563,42,54,38.286,54,33.715C54,29.143,52.765,28,51.529,28z M46,35.399c0,9.666-2.669,13.91-6.677,17.31
				C37.518,54.242,35.055,56,32,56c-3.057,0-5.521-1.76-7.326-3.292C20.668,49.307,18,45.062,18,35.399V22c0-7.884,7.526-14,14-14
				c6.475,0,14,6.116,14,14V35.399z"/>
		</g>
	</g>
	<path class="st0" d="M50,28c0,2,0,5,0,7.399c0,10.835-3.133,16.156-8.089,20.36C39.524,57.785,36.25,60,32,60
		c-4.251,0-7.527-2.216-9.915-4.243C17.13,51.55,14,46.233,14,35.399C14,33,14,30,14,28c0-6,3.432-12,18-12S50,22,50,28z
		 M39.323,52.709C43.331,49.31,46,45.065,46,35.399V28c0-2.188,0-8-14-8s-14,5.812-14,8v7.399c0,9.662,2.668,13.907,6.674,17.309
		C26.479,54.24,28.943,56,32,56C35.055,56,37.518,54.242,39.323,52.709z M32,49c5.861,0,8.792-5.446,7.815-5.936
		c-0.232-0.116-0.426-0.082-0.685,0.079c-2.025,1.264-3.621,1.899-7.131,1.899c-3.509,0-5.105-0.636-7.13-1.899
		c-0.259-0.161-0.453-0.195-0.685-0.079C23.208,43.554,26.139,49,32,49z M25,27.844c-1.346,0-2.104,1.413-2.104,3.156
		c0,1.743,0.758,3.155,2.104,3.155s2.104-1.412,2.104-3.155C27.104,29.257,26.346,27.844,25,27.844z M36.896,31
		c0,1.743,0.758,3.155,2.104,3.155c1.347,0,2.104-1.412,2.104-3.155c0-1.743-0.758-3.156-2.104-3.156
		C37.654,27.844,36.896,29.257,36.896,31z"/>
</g>
</svg>
