<?xml version="1.0" encoding="utf-8"?>
<!-- Generator: Adobe Illustrator 15.0.0, SVG Export Plug-In . SVG Version: 6.00 Build 0)  -->
<!DOCTYPE svg PUBLIC "-//W3C//DTD SVG 1.1//EN" "http://www.w3.org/Graphics/SVG/1.1/DTD/svg11.dtd">
<svg version="1.1" id="Layer_1" xmlns="http://www.w3.org/2000/svg" xmlns:xlink="http://www.w3.org/1999/xlink" x="0px" y="0px"
	 width="64px" height="64px" viewBox="0 0 64 64" style="enable-background:new 0 0 64 64;" xml:space="preserve">
<style type="text/css">
<![CDATA[
	.st0{fill:#EFE6FF;}
	.st1{fill:url(#SVGID_1_);}
]]>
</style>
<g id="ripple">
	<linearGradient id="SVGID_1_" gradientUnits="userSpaceOnUse" x1="12.2007" y1="12.2012" x2="51.7987" y2="51.7992">
		<stop  offset="0" style="stop-color:#E68CBC"/>
		<stop  offset="1" style="stop-color:#8366B3"/>
	</linearGradient>
	<path class="st1" d="M60.001,32c0.001,15.461-12.539,28-28.003,28C16.538,60,4,47.462,4.001,32.002C3.997,16.537,16.536,4,31.996,4
		C47.46,4,60,16.537,60.001,32L60.001,32z M54.001,32C54,19.851,44.144,10,31.996,10c-12.145,0-21.999,9.85-21.995,22.001
		C10,44.146,19.852,54,31.998,54C44.146,54,54.002,44.145,54.001,32L54.001,32z"/>
	<path class="st0" d="M34.257,16.048c-2.193,1.31-3.499,3.652-3.499,6.134c0,1.309,0.515,2.618,1.156,3.773
		c0.518,1.051,0.791,2.877-1.039,3.791c-1.306,0.777-3.002,0.259-3.779-1.049c-0.776-1.05-1.688-2.084-2.862-2.876
		c-2.221-1.31-4.824-1.31-7.046,0c-2.22,1.308-3.522,3.652-3.522,6.132c0,2.489,1.302,4.834,3.522,6.141
		c2.208,1.309,4.826,1.309,7.046,0c1.173-0.67,2.085-1.703,2.741-2.892c0.518-0.912,1.947-2.069,3.782-1.033
		c1.306,0.789,1.674,2.476,1.035,3.773c-0.64,1.185-1.035,2.496-1.035,3.773c0,2.496,1.306,4.838,3.499,6.148
		c2.225,1.28,4.841,1.28,7.063,0c2.219-1.311,3.513-3.652,3.513-6.148c0-2.467-1.294-4.809-3.513-6.118
		c-1.186-0.655-2.498-0.911-3.926-0.911c-1.16,0-2.742-0.793-2.742-2.749c0-1.567,1.19-2.74,2.742-2.74
		c1.308,0,2.74-0.258,3.926-0.927c2.219-1.297,3.513-3.637,3.513-6.12c0-2.493-1.294-4.823-3.513-6.13
		c-1.046-0.656-2.344-0.922-3.532-0.922C36.602,15.135,35.291,15.395,34.257,16.048"/>
</g>
</svg>
