<?xml version="1.0" encoding="utf-8"?>
<!-- Generator: Adobe Illustrator 15.0.0, SVG Export Plug-In . SVG Version: 6.00 Build 0)  -->
<!DOCTYPE svg PUBLIC "-//W3C//DTD SVG 1.1//EN" "http://www.w3.org/Graphics/SVG/1.1/DTD/svg11.dtd">
<svg version="1.1" id="Layer_1" xmlns="http://www.w3.org/2000/svg" xmlns:xlink="http://www.w3.org/1999/xlink" x="0px" y="0px"
	 width="64px" height="64px" viewBox="0 0 64 64" style="enable-background:new 0 0 64 64;" xml:space="preserve">
<style type="text/css">
<![CDATA[
	.st0{fill:#EFE6FF;}
	.st1{fill:url(#SVGID_1_);}
]]>
</style>
<g id="send">
	<linearGradient id="SVGID_1_" gradientUnits="userSpaceOnUse" x1="14.3389" y1="23.4468" x2="52.4467" y2="61.5546">
		<stop  offset="0" style="stop-color:#E68CBC"/>
		<stop  offset="1" style="stop-color:#8366B3"/>
	</linearGradient>
	<path class="st1" d="M38,30c0,0-0.209-1.832-0.777-4H54v4H38z M15,34c-1.598,0-3-0.935-3-2s1.402-2,3-2h11.25
		c0,0,0.167-1.832,0.687-4H15c-3.86,0-7,2.691-7,6v20c0,3.309,3.14,6,7,6h41V34H15z"/>
	<path class="st0" d="M25.079,30C24.397,28.822,24,27.459,24,26c0-4.418,3.582-8,8-8c4.417,0,8,3.582,8,8
		c0,1.459-0.397,2.822-1.079,4H32c2.208,0,4-1.792,4-4s-1.792-4-4-4s-4,1.792-4,4s1.792,4,4,4H25.079z M30.784,2.622l-6.5,9
		c-0.33,0.457-0.376,1.06-0.12,1.562C24.421,13.685,24.937,14,25.5,14h13c0.563,0,1.079-0.315,1.336-0.817
		c0.256-0.502,0.21-1.104-0.12-1.562l-6.5-9C32.934,2.231,32.481,2,32,2S31.066,2.231,30.784,2.622z"/>
</g>
</svg>
