<?xml version="1.0" encoding="utf-8"?>
<!-- Generator: Adobe Illustrator 15.0.0, SVG Export Plug-In . SVG Version: 6.00 Build 0)  -->
<!DOCTYPE svg PUBLIC "-//W3C//DTD SVG 1.1//EN" "http://www.w3.org/Graphics/SVG/1.1/DTD/svg11.dtd">
<svg version="1.1" id="Layer_1" xmlns="http://www.w3.org/2000/svg" xmlns:xlink="http://www.w3.org/1999/xlink" x="0px" y="0px"
	 width="64px" height="64px" viewBox="0 0 64 64" style="enable-background:new 0 0 64 64;" xml:space="preserve">
<style type="text/css">
<![CDATA[
	.st0{fill:#EFE6FF;}
	.st1{fill:url(#SVGID_1_);}
]]>
</style>
<g id="siacoin">
	<linearGradient id="SVGID_1_" gradientUnits="userSpaceOnUse" x1="12.2007" y1="12.2012" x2="51.7987" y2="51.7992">
		<stop  offset="0" style="stop-color:#E68CBC"/>
		<stop  offset="1" style="stop-color:#8366B3"/>
	</linearGradient>
	<path class="st1" d="M60.001,32c0.001,15.461-12.539,28-28.003,28C16.538,60,4,47.462,4.001,32.002C3.997,16.537,16.536,4,31.996,4
		C47.46,4,60,16.537,60.001,32L60.001,32z M54.001,32C54,19.851,44.144,10,31.996,10c-12.145,0-21.999,9.85-21.995,22.001
		C10,44.146,19.852,54,31.998,54C44.146,54,54.002,44.145,54.001,32L54.001,32z"/>
	<path class="st0" d="M41.704,28.884c-2.693-1.707-6.07-1.871-8.916-0.545l-0.001-0.002c-1.551,0.706-3.367,0.419-4.614-0.713
		c-0.072-0.053-0.126-0.106-0.18-0.16L22.27,21.74c-0.001,0-0.001-0.001-0.001-0.001c-0.37-0.419-0.551-0.973-0.494-1.525
		c0,0-0.001,0-0.001,0c0.207-1.058-0.5-2.085-1.559-2.292s-2.085,0.5-2.292,1.558c-0.19,1.075,0.5,2.102,1.558,2.292
		c0.255,0.05,0.496,0.05,0.734,0l0,0.001c0.531-0.056,1.104,0.099,1.529,0.474c0.001,0,0.002,0.002,0.002,0.002l5.749,5.767
		c0.051,0.034,0.098,0.087,0.131,0.139c1.133,1.265,1.418,3.082,0.711,4.633l0.002,0.002c-1.326,2.846-1.163,6.224,0.545,8.916
		c0.369,0.585,0.795,1.152,1.293,1.634c1.607,1.624,3.724,2.573,5.83,2.742c0.536,0.051,8.387,0.008,8.387,0.008
		c0.423,0,0.851-0.211,1.161-0.488c0.311-0.311,0.569-0.786,0.569-1.209v-7.595c0-0.372-0.096-0.939-0.099-1.001
		c-0.202-2.106-1.098-4.01-2.688-5.617C42.855,29.681,42.288,29.254,41.704,28.884 M42.222,35.224
		c0.215,1.099,0.219,1.574,0.219,1.634v3.849c0,0.423-0.203,0.94-0.48,1.218c-0.311,0.311-0.794,0.513-1.251,0.513h-3.708
		c-0.093,0-0.949-0.004-1.778-0.252c-0.911-0.263-1.764-0.746-2.456-1.432c-2.192-2.208-2.191-5.792,0-7.984
		c2.192-2.191,5.779-2.192,7.987,0C41.447,33.479,42.02,34.319,42.222,35.224"/>
</g>
</svg>
