<?xml version="1.0" encoding="utf-8"?>
<!-- Generator: Adobe Illustrator 15.0.0, SVG Export Plug-In . SVG Version: 6.00 Build 0)  -->
<!DOCTYPE svg PUBLIC "-//W3C//DTD SVG 1.1//EN" "http://www.w3.org/Graphics/SVG/1.1/DTD/svg11.dtd">
<svg version="1.1" id="Layer_1" xmlns="http://www.w3.org/2000/svg" xmlns:xlink="http://www.w3.org/1999/xlink" x="0px" y="0px"
	 width="64px" height="64px" viewBox="0 0 64 64" style="enable-background:new 0 0 64 64;" xml:space="preserve">
<style type="text/css">
<![CDATA[
	.st0{fill:#EFE6FF;}
	.st1{fill:url(#SVGID_1_);}
]]>
</style>
<g id="stellar_lumen">
	<linearGradient id="SVGID_1_" gradientUnits="userSpaceOnUse" x1="12.2007" y1="12.2012" x2="51.7987" y2="51.7992">
		<stop  offset="0" style="stop-color:#E68CBC"/>
		<stop  offset="1" style="stop-color:#8366B3"/>
	</linearGradient>
	<path class="st1" d="M60.001,32c0.001,15.461-12.539,28-28.003,28C16.538,60,4,47.462,4.001,32.002C3.997,16.537,16.536,4,31.996,4
		C47.46,4,60,16.537,60.001,32L60.001,32z M54.001,32C54,19.851,44.144,10,31.996,10c-12.145,0-21.999,9.85-21.995,22.001
		C10,44.146,19.852,54,31.998,54C44.146,54,54.002,44.145,54.001,32L54.001,32z M20.206,46.25c1.305,0.929,4.334,1.156,8.393-4.54
		l-6.841-4.876C17.699,42.53,18.9,45.319,20.206,46.25z"/>
	<g>
		<g>
			<path class="st0" d="M41.724,16.06c-0.34-0.249-9.427,0.079-13.124,5.114c-0.67,0.912-2.449,3.848-4.154,6.719
				c-4.222-0.704-7.518,1.559-10.371,5.032c-0.299,0.364-0.203,0.746,0.309,0.603c2.049-0.58,2.938-0.91,6.525,0.406
				c-0.091,0.159-0.165,0.288-0.204,0.358c-0.527,0.95-0.289,1.832,0.537,2.421c4.878,3.477,4.878,3.477,7.638,5.443
				c0.827,0.589,1.738,0.527,2.463-0.282c0.054-0.06,0.152-0.171,0.272-0.309c2.414,2.964,2.392,3.91,2.512,6.037
				c0.029,0.531,0.426,0.496,0.672,0.094c2.35-3.828,3.414-7.682,1.371-11.442c2.158-2.549,4.353-5.189,4.996-6.121
				C44.723,24.996,42.067,16.298,41.724,16.06z M37.438,28.064c-1.306,1.833-3.849,2.259-5.68,0.953
				c-1.833-1.305-2.26-3.848-0.954-5.681c1.306-1.833,3.849-2.259,5.682-0.953C38.318,23.689,38.745,26.232,37.438,28.064z"/>
		</g>
	</g>
</g>
</svg>
