<?xml version="1.0" encoding="utf-8"?>
<!-- Generator: Adobe Illustrator 15.0.0, SVG Export Plug-In . SVG Version: 6.00 Build 0)  -->
<!DOCTYPE svg PUBLIC "-//W3C//DTD SVG 1.1//EN" "http://www.w3.org/Graphics/SVG/1.1/DTD/svg11.dtd">
<svg version="1.1" id="Layer_1" xmlns="http://www.w3.org/2000/svg" xmlns:xlink="http://www.w3.org/1999/xlink" x="0px" y="0px"
	 width="64px" height="64px" viewBox="0 0 64 64" style="enable-background:new 0 0 64 64;" xml:space="preserve">
<style type="text/css">
<![CDATA[
	.st0{fill:#EFE6FF;}
	.st1{fill:url(#SVGID_1_);}
]]>
</style>
<g id="transaction">
	<linearGradient id="SVGID_1_" gradientUnits="userSpaceOnUse" x1="8.1006" y1="8.1006" x2="55.9" y2="55.9">
		<stop  offset="0" style="stop-color:#E68CBC"/>
		<stop  offset="1" style="stop-color:#8366B3"/>
	</linearGradient>
	<path class="st1" d="M32,18c0,7.733-6.267,14-14,14S4,25.733,4,18S10.267,4,18,4S32,10.267,32,18z M46,32c-7.732,0-14,6.268-14,14
		s6.268,14,14,14s14-6.268,14-14S53.732,32,46,32z"/>
	<path class="st0" d="M51.979,50.234l-2-11c-0.1-0.549-0.495-0.998-1.028-1.164s-1.113-0.023-1.508,0.371l-2.38,2.379L23.791,19.549
		C23.923,19.054,24,18.537,24,18c0-3.313-2.687-6-6-6s-6,2.687-6,6s2.687,6,6,6c0.537,0,1.054-0.077,1.549-0.209L40.82,45.063
		l-2.378,2.379c-0.395,0.395-0.537,0.975-0.372,1.508c0.167,0.533,0.615,0.93,1.164,1.029l11,2
		C51.204,52.154,52.155,51.203,51.979,50.234z"/>
</g>
</svg>
