<?xml version="1.0" encoding="utf-8"?>
<!-- Generator: Adobe Illustrator 15.0.0, SVG Export Plug-In . SVG Version: 6.00 Build 0)  -->
<!DOCTYPE svg PUBLIC "-//W3C//DTD SVG 1.1//EN" "http://www.w3.org/Graphics/SVG/1.1/DTD/svg11.dtd">
<svg version="1.1" id="Layer_1" xmlns="http://www.w3.org/2000/svg" xmlns:xlink="http://www.w3.org/1999/xlink" x="0px" y="0px"
	 width="64px" height="64px" viewBox="0 0 64 64" style="enable-background:new 0 0 64 64;" xml:space="preserve">
<style type="text/css">
<![CDATA[
	.st0{fill:#EFE6FF;}
	.st1{fill:url(#SVGID_1_);}
]]>
</style>
<g id="zcoin">
	<path class="st0" d="M37.604,38.002h4.395v4.996H25.537l20.731-20.731c0.713-0.712,0.931-1.79,0.539-2.724
		C46.421,18.61,45.51,18,44.502,18H19.501C18.118,18,17,19.118,17,20.501v16.894l9.393-9.394h-4.394v-5.002h16.468L17.732,43.73
		c-0.716,0.719-0.928,1.789-0.542,2.725C17.576,47.39,18.49,48,19.501,48h25.001C45.882,48,47,46.882,47,45.502V28.605
		L37.604,38.002z"/>
	<linearGradient id="SVGID_1_" gradientUnits="userSpaceOnUse" x1="7.8794" y1="8.8794" x2="56.1222" y2="57.1222">
		<stop  offset="0" style="stop-color:#E68CBC"/>
		<stop  offset="1" style="stop-color:#8366B3"/>
	</linearGradient>
	<path class="st1" d="M54,58H10c-1.657,0-3-1.343-3-3V11c0-1.657,1.343-3,3-3h44c1.657,0,3,1.343,3,3v44C57,56.657,55.657,58,54,58z
		 M13,52h38V14H13V52z"/>
</g>
</svg>
