<?xml version="1.0" encoding="iso-8859-1"?>
<!-- Generator: Adobe Illustrator 19.0.0, SVG Export Plug-In . SVG Version: 6.00 Build 0)  -->
<svg version="1.1" id="Capa_1" xmlns="http://www.w3.org/2000/svg" xmlns:xlink="http://www.w3.org/1999/xlink" x="0px" y="0px"
	 viewBox="0 0 512 512" style="enable-background:new 0 0 512 512;" xml:space="preserve">
<path style="fill:#B7B2B8;" d="M437.677,235.355v-16.516h-33.032v-41.29c0-22.766-18.524-41.29-41.29-41.29h-214.71
	c-22.766,0-41.29,18.524-41.29,41.29v41.29H74.323v16.516h33.032v66.064H74.323v16.516h33.032v41.29
	c0,22.766,18.524,41.29,41.29,41.29h214.71c22.766,0,41.29-18.524,41.29-41.29v-41.29h33.032v-16.516h-33.032v-66.064
	L437.677,235.355L437.677,235.355z M388.129,359.226c0,13.661-11.113,24.774-24.774,24.774h-214.71
	c-13.661,0-24.774-11.113-24.774-24.774V177.548c0-13.661,11.113-24.774,24.774-24.774h74.323v49.548h16.516v-49.548h33.032v49.548
	h16.516v-49.548h74.323c13.661,0,24.774,11.113,24.774,24.774V359.226z"/>
<g>
	<rect x="222.97" y="152.77" style="fill:#9C969E;" width="16.516" height="24.774"/>
	<rect x="272.52" y="152.77" style="fill:#9C969E;" width="16.516" height="24.774"/>
</g>
<rect x="189.94" y="194.06" style="fill:#867E88;" width="132.13" height="189.94"/>
<g>
	<rect x="74.32" y="218.84" style="fill:#9C969E;" width="24.774" height="16.516"/>
	<rect x="74.32" y="301.42" style="fill:#9C969E;" width="24.774" height="16.516"/>
	<rect x="412.9" y="218.84" style="fill:#9C969E;" width="24.774" height="16.516"/>
	<rect x="412.9" y="301.42" style="fill:#9C969E;" width="24.774" height="16.516"/>
	<path style="fill:#9C969E;" d="M330.323,417.032H181.677c-4.561,0-8.258-3.697-8.258-8.258v-33.032
		c0-4.561,3.697-8.258,8.258-8.258h148.645c4.561,0,8.258,3.697,8.258,8.258v33.032
		C338.581,413.335,334.883,417.032,330.323,417.032z"/>
	<path style="fill:#9C969E;" d="M280.774,161.032h-49.548c-13.682,0-24.774-11.092-24.774-24.774v-16.516
		c0-13.682,11.092-24.774,24.774-24.774h49.548c13.682,0,24.774,11.092,24.774,24.774v16.516
		C305.548,149.94,294.457,161.032,280.774,161.032z"/>
</g>
<path style="fill:#6F6571;" d="M198.194,334.452h-16.516c-4.561,0-8.258-3.697-8.258-8.258V202.323c0-4.561,3.697-8.258,8.258-8.258
	h16.516c4.561,0,8.258,3.697,8.258,8.258v123.871C206.452,330.754,202.754,334.452,198.194,334.452z"/>
<path style="fill:#9C969E;" d="M16.516,350.967l7.354,58.831c0.517,4.133,4.03,7.234,8.194,7.234h18.452
	c4.165,0,7.678-3.101,8.194-7.234l7.354-58.831H16.516z"/>
<path style="fill:#867E88;" d="M48.425,375.742h14.543l3.097-24.774H16.516l7.354,58.83c0.517,4.133,4.03,7.234,8.195,7.234h9.742
	l-3.7-29.602C37.33,381.224,42.17,375.742,48.425,375.742z"/>
<path style="fill:#EDEBED;" d="M66.065,359.226H16.516C7.395,359.226,0,351.831,0,342.71V194.065
	c0-9.122,7.395-16.516,16.516-16.516h49.548c9.122,0,16.516,7.395,16.516,16.516V342.71
	C82.581,351.831,75.186,359.226,66.065,359.226z"/>
<path style="fill:#DBD9DC;" d="M24.774,342.71V194.065c0-9.122,7.395-16.516,16.516-16.516H16.516
	C7.395,177.548,0,184.943,0,194.065V342.71c0,9.121,7.395,16.516,16.516,16.516H41.29C32.169,359.226,24.774,351.831,24.774,342.71z
	"/>
<path style="fill:#C9C6CA;" d="M66.065,177.548H16.516C7.395,177.548,0,184.943,0,194.065v33.032h82.581v-33.032
	C82.581,184.943,75.186,177.548,66.065,177.548z"/>
<path style="fill:#B7B2B8;" d="M41.29,177.548H16.516C7.395,177.548,0,184.943,0,194.065v33.032h24.774v-33.032
	C24.774,184.943,32.169,177.548,41.29,177.548z"/>
<path style="fill:#9C969E;" d="M445.935,350.967l7.354,58.831c0.517,4.133,4.03,7.234,8.194,7.234h18.452
	c4.165,0,7.678-3.101,8.194-7.234l7.354-58.831H445.935z"/>
<path style="fill:#867E88;" d="M477.844,375.742h14.543l3.097-24.774h-49.548l7.354,58.83c0.517,4.133,4.03,7.234,8.195,7.234h9.742
	l-3.7-29.602C466.75,381.224,471.589,375.742,477.844,375.742z"/>
<path style="fill:#EDEBED;" d="M495.484,359.226h-49.548c-9.122,0-16.516-7.395-16.516-16.516V194.065
	c0-9.122,7.395-16.516,16.516-16.516h49.548c9.122,0,16.516,7.395,16.516,16.516V342.71
	C512,351.831,504.605,359.226,495.484,359.226z"/>
<path style="fill:#DBD9DC;" d="M454.194,342.71V194.065c0-9.122,7.395-16.516,16.516-16.516h-24.774
	c-9.121,0-16.516,7.394-16.516,16.516V342.71c0,9.121,7.395,16.516,16.516,16.516h24.774
	C461.588,359.226,454.194,351.831,454.194,342.71z"/>
<path style="fill:#C9C6CA;" d="M495.484,177.548h-49.548c-9.121,0-16.516,7.394-16.516,16.516v33.032H512v-33.032
	C512,184.943,504.605,177.548,495.484,177.548z"/>
<path style="fill:#B7B2B8;" d="M470.71,177.548h-24.774c-9.121,0-16.516,7.394-16.516,16.516v33.032h24.774v-33.032
	C454.194,184.943,461.588,177.548,470.71,177.548z"/>
<path style="fill:#867E88;" d="M330.323,400.516H181.677c-4.561,0-8.258-3.698-8.258-8.258v16.516c0,4.56,3.697,8.258,8.258,8.258
	h148.645c4.561,0,8.258-3.698,8.258-8.258v-16.516C338.581,396.819,334.884,400.516,330.323,400.516z"/>
<path style="fill:#5D5360;" d="M189.935,326.194V202.323c0-4.561,3.697-8.258,8.258-8.258h-16.516c-4.561,0-8.258,3.697-8.258,8.258
	v123.871c0,4.56,3.697,8.258,8.258,8.258h16.516C193.633,334.452,189.935,330.754,189.935,326.194z"/>
<path style="fill:#6F6571;" d="M330.323,334.452h-16.516c-4.561,0-8.258-3.697-8.258-8.258V202.323c0-4.561,3.697-8.258,8.258-8.258
	h16.516c4.561,0,8.258,3.697,8.258,8.258v123.871C338.581,330.754,334.883,334.452,330.323,334.452z"/>
<path style="fill:#5D5360;" d="M322.065,326.194V202.323c0-4.561,3.697-8.258,8.258-8.258h-16.516c-4.561,0-8.258,3.697-8.258,8.258
	v123.871c0,4.56,3.697,8.258,8.258,8.258h16.516C325.762,334.452,322.065,330.754,322.065,326.194z"/>
<path style="fill:#867E88;" d="M297.29,144.516H256c-18.243,0-33.032-14.789-33.032-33.032v-8.258c0-2.485,0.477-4.837,1.158-7.1
	c-10.197,3.068-17.674,12.419-17.674,23.616v16.516c0,13.682,11.092,24.774,24.774,24.774h49.548
	c11.197,0,20.548-7.477,23.616-17.674C302.127,144.039,299.776,144.516,297.29,144.516z"/>
<g>
</g>
<g>
</g>
<g>
</g>
<g>
</g>
<g>
</g>
<g>
</g>
<g>
</g>
<g>
</g>
<g>
</g>
<g>
</g>
<g>
</g>
<g>
</g>
<g>
</g>
<g>
</g>
<g>
</g>
</svg>
