<?xml version="1.0" encoding="iso-8859-1"?>
<!-- Generator: Adobe Illustrator 19.0.0, SVG Export Plug-In . SVG Version: 6.00 Build 0)  -->
<svg version="1.1" id="Capa_1" xmlns="http://www.w3.org/2000/svg" xmlns:xlink="http://www.w3.org/1999/xlink" x="0px" y="0px"
	 viewBox="0 0 512 512" style="enable-background:new 0 0 512 512;" xml:space="preserve">
<path style="fill:#E5F9FF;" d="M102.807,300.698v73.143c0,13.465,10.916,24.381,24.381,24.381h24.381v77.206
	c0,15.709,12.735,28.444,28.445,28.444s28.444-12.735,28.444-28.444v-4.71c2.661,0.382,5.36,0.646,8.127,0.646
	c31.419,0,56.889-25.47,56.889-56.889v-16.254h32.508c13.465,0,24.381-10.916,24.381-24.381v-73.143H102.807V300.698z"/>
<g>
	<path style="fill:#FFFFFF;" d="M232.839,381.968h-32.508c-13.465,0-24.381-10.916-24.381-24.381v-16.254h56.889L232.839,381.968
		L232.839,381.968z"/>
	<path style="fill:#FFFFFF;" d="M273.474,349.46H159.696c-22.442,0-40.635-18.193-40.635-40.635l0,0h195.048l0,0
		C314.109,331.267,295.916,349.46,273.474,349.46z"/>
</g>
<path style="fill:#C9C6CA;" d="M86.705,268.19V65.018V32.506V8.127C86.705,3.639,90.344,0,94.832,0h129.844
	c4.502,0,8.147,3.66,8.127,8.163l-0.107,24.346l-0.143,32.512l-0.411,93.697c-0.032,7.18,4.652,13.53,11.521,15.621l163.298,49.699
	c7.558,2.3,13.533,8.12,16.031,15.615l4.144,12.433l0.749,16.103L86.705,268.19L86.705,268.19z"/>
<path style="fill:#B7B2B8;" d="M427.137,252.087l-4.144-12.433c-0.478-1.435-1.191-2.743-1.912-4.043
	c-19.197,2.749-58.98,7.319-115.315,8.09l-186.705,0.093V8.127c0-4.489,3.638-8.127,8.127-8.127H94.833
	c-4.489,0-8.127,3.638-8.127,8.127V268.19h341.181L427.137,252.087z"/>
<path style="fill:#EDEBED;" d="M232.839,65.015H86.553c-4.488,0-8.127-3.639-8.127-8.127V40.634c0-4.488,3.639-8.127,8.127-8.127
	h146.286c4.488,0,8.127,3.639,8.127,8.127v16.254C240.966,61.376,237.327,65.015,232.839,65.015z"/>
<path style="fill:#867E88;" d="M424.308,251.57c-17.53,2.541-59.163,7.574-118.32,8.383l-219.435,0.111
	c-4.489,0-8.127,3.638-8.127,8.127v26.737c0,8.977,7.277,16.254,16.254,16.254h178.028l33.275-1.528
	c60.298-5.46,107.805-24.021,122.702-30.406c2.994-1.283,4.889-4.2,4.889-7.457v-12.175
	C433.574,254.657,429.215,250.859,424.308,251.57z"/>
<path style="fill:#9C969E;" d="M428.685,260.637c-14.897,6.385-62.404,24.946-122.702,30.406l-33.275,1.528H94.68
	c-8.977,0-16.254-7.277-16.254-16.254v18.611c0,8.977,7.277,16.254,16.254,16.254h178.028l33.275-1.528
	c60.298-5.46,107.805-24.021,122.702-30.406c2.994-1.283,4.889-4.2,4.889-7.457v-12.175c0-1.175-0.28-2.268-0.718-3.268
	C432.061,258.223,430.643,259.798,428.685,260.637z"/>
<g>
	<path style="fill:#EDEBED;" d="M167.823,284.444V121.905c0-13.465-10.916-24.381-24.381-24.381s-24.381,10.916-24.381,24.381
		v162.539H167.823z"/>
	<path style="fill:#EDEBED;" d="M240.966,284.444h-40.635v-60.952c0-11.221,9.096-20.317,20.317-20.317l0,0
		c11.221,0,20.317,9.096,20.317,20.317L240.966,284.444L240.966,284.444z"/>
	<path style="fill:#EDEBED;" d="M305.982,284.444v-32.507c0-8.977-7.277-16.254-16.254-16.254s-16.254,7.277-16.254,16.254v32.507
		H305.982z"/>
</g>
<g>
	<path style="fill:#CCF3FF;" d="M127.188,446.984c-4.492,0-8.127-3.639-8.127-8.127v-16.254c0-4.488,3.635-8.127,8.127-8.127
		s8.127,3.639,8.127,8.127v16.254C135.315,443.345,131.68,446.984,127.188,446.984z"/>
	<path style="fill:#CCF3FF;" d="M127.188,398.222c-4.492,0-8.127-3.639-8.127-8.127V349.46c0-4.488,3.635-8.127,8.127-8.127
		s8.127,3.639,8.127,8.127v40.635C135.315,394.583,131.68,398.222,127.188,398.222z"/>
</g>
<g>
	<path style="fill:#99E7FF;" d="M159.696,512c-4.492,0-8.127-3.639-8.127-8.127V349.46c0-4.488,3.635-8.127,8.127-8.127
		s8.127,3.639,8.127,8.127v154.413C167.823,508.361,164.188,512,159.696,512z"/>
	<path style="fill:#99E7FF;" d="M200.331,479.492c-4.492,0-8.127-3.639-8.127-8.127V349.46c0-4.488,3.635-8.127,8.127-8.127
		s8.127,3.639,8.127,8.127v121.905C208.458,475.853,204.823,479.492,200.331,479.492z"/>
</g>
<g>
	<path style="fill:#CCF3FF;" d="M232.839,446.984c-4.492,0-8.127-3.639-8.127-8.127v-16.254c0-4.488,3.635-8.127,8.127-8.127
		s8.127,3.639,8.127,8.127v16.254C240.966,443.345,237.331,446.984,232.839,446.984z"/>
	<path style="fill:#CCF3FF;" d="M232.839,398.222c-4.492,0-8.127-3.639-8.127-8.127V349.46c0-4.488,3.635-8.127,8.127-8.127
		s8.127,3.639,8.127,8.127v40.635C240.966,394.583,237.331,398.222,232.839,398.222z"/>
</g>
<path style="fill:#99E7FF;" d="M273.474,479.492c-4.492,0-8.127-3.639-8.127-8.127V349.46c0-4.488,3.635-8.127,8.127-8.127
	s8.127,3.639,8.127,8.127v121.905C281.601,475.853,277.966,479.492,273.474,479.492z"/>
<path style="fill:#CCF3FF;" d="M305.982,414.476c-4.492,0-8.127-3.639-8.127-8.127V349.46c0-4.488,3.635-8.127,8.127-8.127
	s8.127,3.639,8.127,8.127v56.889C314.109,410.837,310.474,414.476,305.982,414.476z"/>
<path style="fill:#DBD9DC;" d="M135.315,284.444V121.905c0-10.6,6.806-19.529,16.254-22.888c-2.554-0.908-5.262-1.493-8.127-1.493
	c-13.465,0-24.381,10.916-24.381,24.381v162.539H135.315z"/>
<path style="fill:#AEA8AF;" d="M119.061,284.444v24.382c0,4.486,3.636,8.123,8.122,8.126h32.518c4.486-0.003,8.122-3.64,8.122-8.126
	v-24.382H119.061z"/>
<path style="fill:#9C969E;" d="M135.315,308.826v-24.382h-16.254v24.382c0,4.486,3.636,8.123,8.122,8.126h16.254
	C138.951,316.949,135.315,313.312,135.315,308.826z"/>
<path style="fill:#DBD9DC;" d="M216.585,284.444v-60.952c0-8.327,5.02-15.465,12.191-18.602c-2.492-1.09-5.233-1.715-8.127-1.715
	c-11.221,0-20.318,9.096-20.318,20.317v60.952H216.585z"/>
<path style="fill:#AEA8AF;" d="M232.839,316.952h-24.381c-4.488,0-8.127-3.639-8.127-8.127v-24.381h40.635v24.381
	C240.966,313.313,237.327,316.952,232.839,316.952z"/>
<path style="fill:#9C969E;" d="M216.585,308.825v-24.381h-16.254v24.381c0,4.488,3.638,8.127,8.127,8.127h16.254
	C220.223,316.952,216.585,313.313,216.585,308.825z"/>
<path style="fill:#DBD9DC;" d="M289.728,284.444v-32.507c0-6.001,3.289-11.184,8.127-14c-2.399-1.396-5.151-2.254-8.127-2.254
	c-8.977,0-16.254,7.277-16.254,16.254v32.507H289.728z"/>
<path style="fill:#AEA8AF;" d="M273.474,284.444v24.382c0,4.488,3.638,8.127,8.127,8.127h16.254c4.489,0,8.127-3.639,8.127-8.127
	v-24.382H273.474z"/>
<path style="fill:#9C969E;" d="M289.728,308.826v-24.382h-16.254v24.382c0,4.488,3.638,8.127,8.127,8.127h16.254
	C293.366,316.953,289.728,313.314,289.728,308.826z"/>
<g>
	<path style="fill:#DBD9DC;" d="M200.331,48.761c0,8.964-7.294,16.254-16.254,16.254h27.987c2.8-4.801,4.521-10.307,4.521-16.254
		s-1.722-11.453-4.521-16.254h-27.987C193.037,32.507,200.331,39.797,200.331,48.761z"/>
	<path style="fill:#DBD9DC;" d="M110.934,56.888V40.634c0-4.489,3.638-8.127,8.127-8.127H86.553c-4.489,0-8.127,3.638-8.127,8.127
		v16.254c0,4.488,3.638,8.127,8.127,8.127h32.508C114.572,65.015,110.934,61.376,110.934,56.888z"/>
</g>
<g>
</g>
<g>
</g>
<g>
</g>
<g>
</g>
<g>
</g>
<g>
</g>
<g>
</g>
<g>
</g>
<g>
</g>
<g>
</g>
<g>
</g>
<g>
</g>
<g>
</g>
<g>
</g>
<g>
</g>
</svg>
