<?xml version="1.0" encoding="iso-8859-1"?>
<!-- Generator: Adobe Illustrator 19.0.0, SVG Export Plug-In . SVG Version: 6.00 Build 0)  -->
<svg version="1.1" id="Capa_1" xmlns="http://www.w3.org/2000/svg" xmlns:xlink="http://www.w3.org/1999/xlink" x="0px" y="0px"
	 viewBox="0 0 512 512" style="enable-background:new 0 0 512 512;" xml:space="preserve">
<rect x="199.11" y="16.254" style="fill:#867E88;" width="113.78" height="130.03"/>
<g>
	<rect x="190.98" y="138.16" style="fill:#9C969E;" width="130.03" height="32.508"/>
	<rect x="312.89" y="422.6" style="fill:#9C969E;" width="16.254" height="48.762"/>
</g>
<path style="fill:#DBD9DC;" d="M312.889,430.73H322c8.583,0,15.687-6.674,16.222-15.24l15.301-244.823h-40.635V430.73H312.889z"/>
<path style="fill:#C9C6CA;" d="M337.27,195.048H352l1.524-24.381h-40.635V430.73H322c2.57,0,4.974-0.657,7.143-1.726V349.46
	c0-4.488,3.639-8.127,8.127-8.127h5.587l1.524-24.381h-15.238V203.175C329.143,198.686,332.781,195.048,337.27,195.048z"/>
<path style="fill:#EDEBED;" d="M337.27,503.873h32.508v-14.335c0-6.157-3.478-11.785-8.985-14.538l-14.943-7.472
	c-5.642-2.821-11.864-4.29-18.172-4.29H312.89v16.254C312.889,492.957,323.805,503.873,337.27,503.873z"/>
<path style="fill:#DBD9DC;" d="M353.524,481.41c0-6.009-3.349-11.472-8.629-14.292c0.314,0.147,0.644,0.254,0.955,0.41L360.793,475
	c5.507,2.753,8.985,8.381,8.985,14.538v14.336h-16.254V481.41z"/>
<g>
	<path style="fill:#AEA8AF;" d="M288.508,316.952h32.508c4.492,0,8.127-3.639,8.127-8.127s-3.635-8.127-8.127-8.127h-32.508
		c-4.492,0-8.127,3.639-8.127,8.127S284.016,316.952,288.508,316.952z"/>
	<path style="fill:#AEA8AF;" d="M295.373,512h66.278c4.492,0,8.127-3.639,8.127-8.127s-3.635-8.127-8.127-8.127h-66.278
		c-4.492,0-8.127,3.639-8.127,8.127S290.881,512,295.373,512z"/>
</g>
<path style="fill:#9C969E;" d="M312.889,325.079h30.236c2.302,0,4.233-1.738,4.474-4.027l2.48-23.51
	c0.28-2.657-1.803-4.971-4.474-4.971h-32.716V325.079z"/>
<path style="fill:#867E88;" d="M348.204,308.825c0.244,0,0.457-0.072,0.694-0.091l-1.299,12.317
	c-0.242,2.289-2.172,4.027-4.474,4.027h-30.236v-16.254h35.315V308.825z"/>
<rect x="182.86" y="422.6" style="fill:#9C969E;" width="16.254" height="48.762"/>
<path style="fill:#DBD9DC;" d="M199.111,430.73H190c-8.583,0-15.687-6.674-16.222-15.24l-15.301-244.823h40.635V430.73H199.111z"/>
<path style="fill:#C9C6CA;" d="M183.381,195.048h15.73v-24.381h-40.635l15.302,244.823c0.524,8.381,7.347,14.907,15.68,15.188
	l-5.045-80.71c-0.292-4.679,3.423-8.634,8.111-8.634h6.587v-24.381h-16.762l-7.079-113.271
	C174.977,199.003,178.693,195.048,183.381,195.048z"/>
<g>
	<path style="fill:#EDEBED;" d="M162.54,178.794h36.571v-40.635H162.54c-11.221,0-20.317,9.096-20.317,20.317l0,0
		C142.222,169.697,151.319,178.794,162.54,178.794z"/>
	<path style="fill:#EDEBED;" d="M349.46,138.159h-36.571v40.635h36.571c11.221,0,20.317-9.096,20.317-20.317l0,0
		C369.778,147.255,360.681,138.159,349.46,138.159z"/>
</g>
<path style="fill:#DBD9DC;" d="M178.794,162.54c-11.221,0-20.317-9.097-20.317-20.317c0-1.264,0.151-2.491,0.372-3.691
	c-9.453,1.74-16.626,9.989-16.626,19.945c0,11.221,9.096,20.317,20.317,20.317h36.571V162.54H178.794z"/>
<path style="fill:#EDEBED;" d="M174.73,503.873h-32.508v-14.335c0-6.157,3.478-11.785,8.985-14.538l14.943-7.472
	c5.642-2.821,11.864-4.29,18.172-4.29h14.788v16.254C199.111,492.957,188.195,503.873,174.73,503.873z"/>
<path style="fill:#DBD9DC;" d="M158.476,481.41c0-6.009,3.349-11.472,8.629-14.292c-0.314,0.147-0.644,0.254-0.955,0.41L151.207,475
	c-5.507,2.753-8.985,8.381-8.985,14.538v14.336h16.254V481.41z"/>
<g>
	<path style="fill:#AEA8AF;" d="M223.492,316.952h-32.508c-4.492,0-8.127-3.639-8.127-8.127s3.635-8.127,8.127-8.127h32.508
		c4.492,0,8.127,3.639,8.127,8.127S227.984,316.952,223.492,316.952z"/>
	<path style="fill:#AEA8AF;" d="M216.627,512h-66.278c-4.492,0-8.127-3.639-8.127-8.127s3.635-8.127,8.127-8.127h66.278
		c4.492,0,8.127,3.639,8.127,8.127S221.119,512,216.627,512z"/>
</g>
<path style="fill:#DBD9DC;" d="M349.46,162.54h-36.571v16.254h36.571c11.221,0,20.317-9.097,20.317-20.317
	c0-2.894-0.625-5.635-1.715-8.127C364.925,157.519,357.787,162.54,349.46,162.54z"/>
<path style="fill:#9C969E;" d="M199.111,325.079h-30.236c-2.302,0-4.233-1.738-4.474-4.027l-2.48-23.51
	c-0.28-2.657,1.803-4.971,4.474-4.971h32.716V325.079L199.111,325.079z"/>
<path style="fill:#867E88;" d="M163.796,308.825c-0.244,0-0.457-0.072-0.694-0.091l1.299,12.317
	c0.242,2.289,2.172,4.027,4.474,4.027h30.236v-16.254h-35.315V308.825z"/>
<path style="fill:#6F6571;" d="M207.238,89.397h-16.254c-4.488,0-8.127-3.639-8.127-8.127V8.127c0-4.488,3.639-8.127,8.127-8.127
	h16.254c4.488,0,8.127,3.639,8.127,8.127V81.27C215.365,85.758,211.727,89.397,207.238,89.397z"/>
<path style="fill:#5D5360;" d="M199.111,81.27V8.127c0-4.489,3.638-8.127,8.127-8.127h-16.254c-4.489,0-8.127,3.638-8.127,8.127
	V81.27c0,4.488,3.638,8.127,8.127,8.127h16.254C202.749,89.397,199.111,85.758,199.111,81.27z"/>
<path style="fill:#6F6571;" d="M321.016,89.397h-16.254c-4.488,0-8.127-3.639-8.127-8.127V8.127c0-4.488,3.639-8.127,8.127-8.127
	h16.254c4.488,0,8.127,3.639,8.127,8.127V81.27C329.143,85.758,325.504,89.397,321.016,89.397z"/>
<path style="fill:#5D5360;" d="M312.889,81.27V8.127c0-4.489,3.638-8.127,8.127-8.127h-16.254c-4.489,0-8.127,3.638-8.127,8.127
	V81.27c0,4.488,3.638,8.127,8.127,8.127h16.254C316.527,89.397,312.889,85.758,312.889,81.27z"/>
<g>
</g>
<g>
</g>
<g>
</g>
<g>
</g>
<g>
</g>
<g>
</g>
<g>
</g>
<g>
</g>
<g>
</g>
<g>
</g>
<g>
</g>
<g>
</g>
<g>
</g>
<g>
</g>
<g>
</g>
</svg>
