<?xml version="1.0" encoding="iso-8859-1"?>
<!-- Generator: Adobe Illustrator 19.0.0, SVG Export Plug-In . SVG Version: 6.00 Build 0)  -->
<svg version="1.1" id="Capa_1" xmlns="http://www.w3.org/2000/svg" xmlns:xlink="http://www.w3.org/1999/xlink" x="0px" y="0px"
	 viewBox="0 0 512 512" style="enable-background:new 0 0 512 512;" xml:space="preserve">
<polygon style="fill:#AEA8AF;" points="361.651,479.492 321.016,463.238 321.016,503.873 361.651,503.873 "/>
<path style="fill:#DBD9DC;" d="M304.762,390.095l22.756-17.067c6.139-4.604,9.752-11.831,9.752-19.505v-69.079h-32.508
	L304.762,390.095L304.762,390.095z"/>
<path style="fill:#C9C6CA;" d="M337.27,313.522c-4.984,2.181-10.466,3.431-16.254,3.431s-11.27-1.249-16.254-3.431v-29.077h32.508
	V313.522z"/>
<g>
	<path style="fill:#9C969E;" d="M288.508,495.746h65.016v-5.536c0-3.254-1.937-6.187-4.921-7.472l-37.198-15.936
		c-8.968-3.849-14.77-12.647-14.77-22.409V276.317h16.254v168.075c0,3.254,1.936,6.187,4.921,7.472l37.198,15.937
		c8.968,3.849,14.77,12.647,14.77,22.409v5.536c0,8.964-7.294,16.254-16.254,16.254h-65.016c-4.492,0-8.127-3.639-8.127-8.127
		S284.016,495.746,288.508,495.746z"/>
	<rect x="312.89" y="186.92" style="fill:#9C969E;" width="16.254" height="73.14"/>
</g>
<rect x="312.89" y="186.92" style="fill:#867E88;" width="16.254" height="24.381"/>
<g>
	<circle style="fill:#AEA8AF;" cx="321.02" cy="276.32" r="24.381"/>
	<polygon style="fill:#AEA8AF;" points="150.349,479.492 190.984,463.238 190.984,503.873 150.349,503.873 	"/>
</g>
<path style="fill:#DBD9DC;" d="M207.238,390.095l-22.756-17.067c-6.139-4.604-9.752-11.831-9.752-19.505v-69.079h32.508V390.095z"/>
<path style="fill:#C9C6CA;" d="M174.73,313.522c4.984,2.181,10.466,3.431,16.254,3.431s11.27-1.249,16.254-3.431v-29.077H174.73
	V313.522z"/>
<g>
	<path style="fill:#9C969E;" d="M223.492,495.746h-65.016v-5.536c0-3.254,1.937-6.187,4.921-7.472l37.198-15.936
		c8.968-3.849,14.77-12.647,14.77-22.409V276.317h-16.254v168.075c0,3.254-1.937,6.187-4.921,7.472l-37.198,15.937
		c-8.968,3.849-14.77,12.647-14.77,22.409v5.536c0,8.964,7.294,16.254,16.254,16.254h65.016c4.492,0,8.127-3.639,8.127-8.127
		S227.984,495.746,223.492,495.746z"/>
	<rect x="182.86" y="186.92" style="fill:#9C969E;" width="16.254" height="73.14"/>
</g>
<rect x="182.86" y="186.92" style="fill:#867E88;" width="16.254" height="24.381"/>
<circle style="fill:#AEA8AF;" cx="190.98" cy="276.32" r="24.381"/>
<g>
	<path style="fill:#EDEBED;" d="M163.519,4.494l23.831,47.662c2.359,4.718,6.185,8.544,10.903,10.903l30.23,15.115
		c6.63,3.315,10.177,10.696,8.624,17.944l-18.989,88.617c-1.606,7.494-8.229,12.848-15.893,12.848h-22.057
		c-7.855,0-14.587-5.618-15.992-13.346L135.619,27.169c-0.954-5.248,0.727-10.629,4.499-14.401l10.386-10.386
		C154.426-1.541,161.038-0.468,163.519,4.494z"/>
	<path style="fill:#EDEBED;" d="M371.883,12.767L361.497,2.382c-3.923-3.922-10.535-2.849-13.016,2.112L324.65,52.155
		c-2.359,4.719-6.185,8.545-10.903,10.904l-30.231,15.115c-6.63,3.315-10.177,10.695-8.624,17.943l18.99,88.617
		c1.606,7.495,8.229,12.849,15.893,12.849h22.057c7.855,0,14.586-5.618,15.992-13.347l28.558-157.068
		C377.335,21.921,375.654,16.539,371.883,12.767z"/>
</g>
<g>
	<path style="fill:#DBD9DC;" d="M198.698,181.329c-7.855,0-14.586-5.618-15.992-13.347L152.057,1.166
		c-0.549,0.333-1.072,0.734-1.554,1.215l-10.386,10.386c-3.771,3.772-5.452,9.153-4.499,14.401l28.558,157.068
		c1.405,7.729,8.136,13.347,15.992,13.347h22.057c7.664,0,14.287-5.354,15.893-12.849l0.73-3.405H198.698z"/>
	<path style="fill:#DBD9DC;" d="M160.232,162.54l3.945,21.697c1.405,7.729,8.136,13.347,15.992,13.347h22.057
		c7.664,0,14.287-5.354,15.893-12.849l4.756-22.195L160.232,162.54L160.232,162.54z"/>
</g>
<path style="fill:#C9C6CA;" d="M164.177,184.237c1.405,7.729,8.136,13.347,15.992,13.347h22.057c7.664,0,14.287-5.354,15.893-12.849
	l0.73-3.405H198.7c-7.855,0-14.586-5.618-15.992-13.347l-1-5.443h-21.475L164.177,184.237z"/>
<g>
	<path style="fill:#DBD9DC;" d="M327.29,181.329c-7.664,0-14.287-5.354-15.893-12.849l-18.99-88.617
		c-0.44-2.054-0.43-4.107-0.097-6.086l-8.794,4.397c-6.63,3.315-10.177,10.695-8.624,17.943l18.99,88.617
		c1.606,7.495,8.229,12.849,15.893,12.849h22.057c7.855,0,14.586-5.618,15.992-13.347l0.529-2.907L327.29,181.329L327.29,181.329z"
		/>
	<path style="fill:#DBD9DC;" d="M289.126,162.54l4.756,22.195c1.606,7.495,8.229,12.849,15.893,12.849h22.057
		c7.855,0,14.586-5.618,15.992-13.347l3.945-21.697L289.126,162.54L289.126,162.54z"/>
</g>
<path style="fill:#C9C6CA;" d="M293.882,184.735c1.606,7.495,8.229,12.849,15.893,12.849h22.057c7.855,0,14.586-5.618,15.992-13.347
	l0.529-2.907H327.29c-7.664,0-14.287-5.354-15.893-12.849l-1.273-5.941h-20.998L293.882,184.735z"/>
<g>
</g>
<g>
</g>
<g>
</g>
<g>
</g>
<g>
</g>
<g>
</g>
<g>
</g>
<g>
</g>
<g>
</g>
<g>
</g>
<g>
</g>
<g>
</g>
<g>
</g>
<g>
</g>
<g>
</g>
</svg>
