<?xml version="1.0" encoding="iso-8859-1"?>
<!-- Generator: Adobe Illustrator 19.0.0, SVG Export Plug-In . SVG Version: 6.00 Build 0)  -->
<svg version="1.1" id="Capa_1" xmlns="http://www.w3.org/2000/svg" xmlns:xlink="http://www.w3.org/1999/xlink" x="0px" y="0px"
	 viewBox="0 0 512 512" style="enable-background:new 0 0 512 512;" xml:space="preserve">
<path style="fill:#B7B2B8;" d="M504,216H264v-64h-16v64H8c-4.418,0-8,3.582-8,8s3.582,8,8,8h496c4.418,0,8-3.582,8-8
	S508.418,216,504,216z"/>
<rect x="248" y="144" style="fill:#9C969E;" width="16" height="32"/>
<path style="fill:#B7B2B8;" d="M504,408H400v-64h-16v64H128v-64h-16v64H8c-4.418,0-8,3.582-8,8s3.582,8,8,8h104h16h256h16h104
	c4.418,0,8-3.582,8-8S508.418,408,504,408z"/>
<path style="fill:#59D8FF;" d="M152,160.001h208c4.418,0,8-3.582,8-8v-64c0-4.418-3.582-8-8-8H152c-4.418,0-8,3.582-8,8v64
	C144,156.419,147.582,160.001,152,160.001z"/>
<circle style="fill:#99E9DF;" cx="256" cy="224" r="16"/>
<g>
	<rect x="192" y="80" style="fill:#99E7FF;" width="16" height="80"/>
	<rect x="248" y="80" style="fill:#99E7FF;" width="16" height="80"/>
	<rect x="304" y="80" style="fill:#99E7FF;" width="16" height="80"/>
</g>
<rect x="112" y="336" style="fill:#9C969E;" width="16" height="32"/>
<path style="fill:#59D8FF;" d="M16,352h208c4.418,0,8-3.582,8-8v-64c0-4.418-3.582-8-8-8H16c-4.418,0-8,3.582-8,8v64
	C8,348.418,11.582,352,16,352z"/>
<circle style="fill:#99E9DF;" cx="120" cy="416" r="16"/>
<g>
	<rect x="56" y="272" style="fill:#99E7FF;" width="16" height="80"/>
	<rect x="112" y="272" style="fill:#99E7FF;" width="16" height="80"/>
	<rect x="168" y="272" style="fill:#99E7FF;" width="16" height="80"/>
</g>
<rect x="384" y="336" style="fill:#9C969E;" width="16" height="32"/>
<path style="fill:#59D8FF;" d="M288,352h208c4.418,0,8-3.582,8-8v-64c0-4.418-3.582-8-8-8H288c-4.418,0-8,3.582-8,8v64
	C280,348.418,283.582,352,288,352z"/>
<circle style="fill:#99E9DF;" cx="392" cy="416" r="16"/>
<g>
	<rect x="328" y="272" style="fill:#99E7FF;" width="16" height="80"/>
	<rect x="384" y="272" style="fill:#99E7FF;" width="16" height="80"/>
	<rect x="440" y="272" style="fill:#99E7FF;" width="16" height="80"/>
</g>
<g>
</g>
<g>
</g>
<g>
</g>
<g>
</g>
<g>
</g>
<g>
</g>
<g>
</g>
<g>
</g>
<g>
</g>
<g>
</g>
<g>
</g>
<g>
</g>
<g>
</g>
<g>
</g>
<g>
</g>
</svg>
