<?xml version="1.0" encoding="iso-8859-1"?>
<!-- Generator: Adobe Illustrator 19.0.0, SVG Export Plug-In . SVG Version: 6.00 Build 0)  -->
<svg version="1.1" id="Capa_1" xmlns="http://www.w3.org/2000/svg" xmlns:xlink="http://www.w3.org/1999/xlink" x="0px" y="0px"
	 viewBox="0 0 512.001 512.001" style="enable-background:new 0 0 512.001 512.001;" xml:space="preserve">
<rect x="125.95" y="325.06" style="fill:#C9C6CA;" width="260.09" height="97.53"/>
<rect x="125.95" y="333.19" style="fill:#B7B2B8;" width="260.09" height="16.256"/>
<rect x="199.1" y="195.02" style="fill:#867E88;" width="113.79" height="48.767"/>
<path style="fill:#9C969E;" d="M312.895,243.783h-89.406v-16.256c0-4.489,3.639-8.128,8.128-8.128h81.278V243.783z"/>
<path style="fill:#DBD9DC;" d="M394.173,333.188H117.827l12.86-77.159c1.96-11.757,12.132-20.375,24.052-20.375h202.522
	c11.92,0,22.092,8.617,24.052,20.375L394.173,333.188z"/>
<rect x="174.72" y="414.47" style="fill:#9C969E;" width="162.56" height="32.511"/>
<g>
	<path style="fill:#867E88;" d="M296.639,422.594v-8.128h-81.278v8.128c0,4.489-3.639,8.128-8.128,8.128h-32.511v16.256h162.556
		v-16.256h-32.511C300.278,430.722,296.639,427.083,296.639,422.594z"/>
	<path style="fill:#867E88;" d="M166.594,512H85.316c-8.978,0-16.256-7.278-16.256-16.256V365.7h113.79v130.045
		C182.85,504.722,175.572,512,166.594,512z"/>
</g>
<g>
	<path style="fill:#6F6571;" d="M93.444,479.489V365.7H69.061v130.045c0,8.978,7.278,16.256,16.256,16.256h81.278
		c8.978,0,16.256-7.278,16.256-16.256H109.7C100.722,495.744,93.444,488.466,93.444,479.489z"/>
	<rect x="69.06" y="463.23" style="fill:#6F6571;" width="113.79" height="16.256"/>
	<rect x="69.06" y="430.72" style="fill:#6F6571;" width="113.79" height="16.256"/>
	<rect x="69.06" y="398.21" style="fill:#6F6571;" width="113.79" height="16.256"/>
</g>
<g>
	<rect x="69.06" y="463.23" style="fill:#5D5360;" width="24.383" height="16.256"/>
	<rect x="69.06" y="430.72" style="fill:#5D5360;" width="24.383" height="16.256"/>
	<rect x="69.06" y="398.21" style="fill:#5D5360;" width="24.383" height="16.256"/>
</g>
<path style="fill:#867E88;" d="M426.684,512h-81.278c-8.978,0-16.256-7.278-16.256-16.256V365.7h113.789v130.045
	C442.939,504.722,435.662,512,426.684,512z"/>
<g>
	<path style="fill:#6F6571;" d="M353.534,479.489V365.7H329.15v130.045c0,8.978,7.278,16.256,16.256,16.256h81.278
		c8.978,0,16.256-7.278,16.256-16.256h-73.15C360.812,495.744,353.534,488.466,353.534,479.489z"/>
	<rect x="329.15" y="463.23" style="fill:#6F6571;" width="113.79" height="16.256"/>
	<rect x="329.15" y="430.72" style="fill:#6F6571;" width="113.79" height="16.256"/>
	<rect x="329.15" y="398.21" style="fill:#6F6571;" width="113.79" height="16.256"/>
</g>
<g>
	<rect x="329.15" y="463.23" style="fill:#5D5360;" width="24.383" height="16.256"/>
	<rect x="329.15" y="430.72" style="fill:#5D5360;" width="24.383" height="16.256"/>
	<rect x="329.15" y="398.21" style="fill:#5D5360;" width="24.383" height="16.256"/>
</g>
<path style="fill:#EDEBED;" d="M353.534,203.143H158.466c-8.978,0-16.256-7.278-16.256-16.256v-32.511
	c0-8.978,7.278-16.256,16.256-16.256h195.067c8.978,0,16.256,7.278,16.256,16.256v32.511
	C369.789,195.866,362.511,203.143,353.534,203.143z"/>
<path style="fill:#4BD7C8;" d="M267.493,102.244c-2.08,0-4.159-0.794-5.747-2.381c-3.175-3.167-8.318-3.167-11.493,0
	c-3.175,3.175-8.318,3.175-11.493,0s-3.175-8.318,0-11.493c9.509-9.509,24.971-9.509,34.48,0c3.175,3.175,3.175,8.318,0,11.493
	C271.652,101.451,269.573,102.244,267.493,102.244z"/>
<path style="fill:#CCF4EF;" d="M324.967,44.77c-2.08,0-4.159-0.794-5.747-2.381c-34.861-34.853-91.581-34.853-126.441,0
	c-3.175,3.175-8.318,3.175-11.493,0c-3.175-3.175-3.175-8.318,0-11.493c41.195-41.195,108.233-41.195,149.428,0
	c3.175,3.175,3.175,8.318,0,11.493C329.126,43.977,327.047,44.77,324.967,44.77z"/>
<path style="fill:#99E9DF;" d="M296.234,73.507c-2.08,0-4.159-0.794-5.747-2.381c-19.018-19.01-49.957-19.01-68.975,0
	c-3.175,3.175-8.318,3.175-11.493,0s-3.175-8.322,0-11.493c25.352-25.352,66.61-25.352,91.962,0c3.175,3.171,3.175,8.318,0,11.493
	C300.393,72.714,298.314,73.507,296.234,73.507z"/>
<g>
	<path style="fill:#EDEBED;" d="M189.214,404.141L59.17,375.242c-3.719-0.826-6.365-4.125-6.365-7.934v-42.247
		c0-4.489,3.639-8.128,8.128-8.128h130.045c4.489,0,8.128,3.639,8.128,8.128v71.146C199.105,401.406,194.29,405.269,189.214,404.141
		z"/>
	<path style="fill:#EDEBED;" d="M322.786,404.141l130.045-28.899c3.719-0.826,6.365-4.125,6.365-7.934v-42.247
		c0-4.489-3.639-8.128-8.128-8.128H321.022c-4.489,0-8.128,3.639-8.128,8.128v71.146
		C312.895,401.406,317.71,405.269,322.786,404.141z"/>
</g>
<g>
	<path style="fill:#DBD9DC;" d="M268.192,463.233h-24.383c-6.733,0-12.192-5.458-12.192-12.192v-40.639
		c0-6.733,5.458-12.192,12.192-12.192h24.383c6.733,0,12.192,5.458,12.192,12.192v40.639
		C280.383,457.775,274.925,463.233,268.192,463.233z"/>
	<circle style="fill:#DBD9DC;" cx="199.1" cy="146.25" r="32.511"/>
</g>
<path style="fill:#59D8FF;" d="M264.128,178.76h-16.256c-4.493,0-8.128-3.639-8.128-8.128c0-4.489,3.635-8.128,8.128-8.128h16.256
	c4.493,0,8.128,3.639,8.128,8.128C272.256,175.121,268.62,178.76,264.128,178.76z"/>
<path style="fill:#99E7FF;" d="M337.278,178.76h-40.639c-4.493,0-8.128-3.639-8.128-8.128c0-4.489,3.635-8.128,8.128-8.128h40.639
	c4.493,0,8.128,3.639,8.128,8.128S341.771,178.76,337.278,178.76z"/>
<path style="fill:#C9C6CA;" d="M215.361,268.166l5.05,20.198c1.809,7.236,8.311,12.313,15.77,12.313h39.639
	c7.459,0,13.961-5.077,15.77-12.313l5.05-20.198H215.361z"/>
<circle style="fill:#59D8FF;" cx="199.1" cy="146.25" r="16.256"/>
<path style="fill:#DBD9DC;" d="M96.282,363.816c-11.156-2.479-19.094-12.374-19.094-23.803v-23.08H60.933
	c-4.489,0-8.128,3.639-8.128,8.128v42.247c0,3.81,2.646,7.108,6.365,7.934l130.045,28.899c5.076,1.128,9.891-2.735,9.891-7.934
	v-9.541L96.282,363.816z"/>
<path style="fill:#EDEBED;" d="M154.739,235.655c-11.919,0-22.092,8.617-24.052,20.375l-2.023,12.137h254.672l-2.024-12.137
	c-1.959-11.757-12.132-20.375-24.051-20.375H154.739z"/>
<path style="fill:#C9C6CA;" d="M268.192,446.978h-24.383c-6.733,0-12.192-5.458-12.192-12.192v16.256
	c0,6.733,5.458,12.192,12.192,12.192h24.383c6.733,0,12.192-5.458,12.192-12.192v-16.256
	C280.383,441.519,274.925,446.978,268.192,446.978z"/>
<path style="fill:#DBD9DC;" d="M366.951,375.361c-15.228,3.384-29.673-8.204-29.673-23.803v-34.626h-16.256
	c-4.489,0-8.128,3.639-8.128,8.128v71.146c0,5.2,4.815,9.062,9.891,7.934l130.045-28.899c3.719-0.826,6.365-4.125,6.365-7.934
	v-12.445L366.951,375.361z"/>
<g>
</g>
<g>
</g>
<g>
</g>
<g>
</g>
<g>
</g>
<g>
</g>
<g>
</g>
<g>
</g>
<g>
</g>
<g>
</g>
<g>
</g>
<g>
</g>
<g>
</g>
<g>
</g>
<g>
</g>
</svg>
