<?xml version="1.0" encoding="iso-8859-1"?>
<!-- Generator: Adobe Illustrator 19.0.0, SVG Export Plug-In . SVG Version: 6.00 Build 0)  -->
<svg version="1.1" id="Capa_1" xmlns="http://www.w3.org/2000/svg" xmlns:xlink="http://www.w3.org/1999/xlink" x="0px" y="0px"
	 viewBox="0 0 511.996 511.996" style="enable-background:new 0 0 511.996 511.996;" xml:space="preserve">
<rect x="247.738" y="144.512" style="fill:#C9C6CA;" width="16.516" height="57.806"/>
<path style="fill:#EDEBED;" d="M264.256,189.934H247.74c-4.561,0-8.258,3.697-8.258,8.258v206.451h33.032v-206.45
	C272.514,193.632,268.817,189.934,264.256,189.934z"/>
<path style="fill:#DBD9DC;" d="M264.256,189.934H247.74c-4.56,0-8.258,3.697-8.258,8.258v206.451h16.516v-206.45
	C255.998,193.632,259.695,189.934,264.256,189.934z"/>
<rect x="239.478" y="346.841" style="fill:#C9C6CA;" width="16.516" height="57.806"/>
<rect x="255.998" y="346.841" style="fill:#DBD9DC;" width="16.516" height="57.806"/>
<path style="fill:#CCF4EF;" d="M355.094,429.417H156.902c-9.122,0-16.516-7.395-16.516-16.516v-8.258H371.61v8.258
	C371.61,422.022,364.215,429.417,355.094,429.417z"/>
<g>
	<rect x="247.738" y="404.641" style="fill:#C9C6CA;" width="16.516" height="82.58"/>
	<path style="fill:#C9C6CA;" d="M206.45,462.449h-66.065v-16.516h66.065c4.556,0,8.258-3.702,8.258-8.258v-33.032h16.516v33.032
		C231.224,451.336,220.111,462.449,206.45,462.449z"/>
	<path style="fill:#C9C6CA;" d="M371.61,462.449h-66.065c-13.661,0-24.774-11.113-24.774-24.774v-33.032h16.516v33.032
		c0,4.556,3.702,8.258,8.258,8.258h66.065V462.449z"/>
</g>
<circle style="fill:#4BD7C8;" cx="255.998" cy="495.48" r="16.516"/>
<g>
	<circle style="fill:#99E9DF;" cx="132.129" cy="454.19" r="16.516"/>
	<circle style="fill:#99E9DF;" cx="379.867" cy="454.19" r="16.516"/>
</g>
<path style="fill:#DBD9DC;" d="M361.154,171.77l-81.997-47.043l-9.004-12.467V14.156C270.154,6.338,263.816,0,255.998,0
	c-7.818,0-14.156,6.339-14.156,14.156v97.843l-9.554,12.649l-81.447,47.122c-4.541,2.626-7.082,7.383-7.082,12.276
	c0,2.406,0.615,4.839,1.901,7.065c3.909,6.774,12.57,9.09,19.337,5.184l82.055-47.479h17.204l82.743,47.479
	c2.229,1.286,4.662,1.894,7.064,1.894c4.894,0,9.653-2.537,12.273-7.078c1.285-2.226,1.901-4.659,1.901-7.065
	C368.236,179.153,365.696,174.397,361.154,171.77z"/>
<circle style="fill:#EDEBED;" cx="255.998" cy="128.002" r="24.774"/>
<path style="fill:#99E9DF;" d="M379.868,412.901H132.128c-4.565,0-8.258-3.694-8.258-8.258c0-4.564,3.694-8.258,8.258-8.258h247.741
	c4.565,0,8.258,3.694,8.258,8.258C388.126,409.207,384.432,412.901,379.868,412.901z"/>
<circle style="fill:#DBD9DC;" cx="255.998" cy="128.002" r="12.387"/>
<g>
</g>
<g>
</g>
<g>
</g>
<g>
</g>
<g>
</g>
<g>
</g>
<g>
</g>
<g>
</g>
<g>
</g>
<g>
</g>
<g>
</g>
<g>
</g>
<g>
</g>
<g>
</g>
<g>
</g>
</svg>
