<?xml version="1.0" encoding="iso-8859-1"?>
<!-- Generator: Adobe Illustrator 19.0.0, SVG Export Plug-In . SVG Version: 6.00 Build 0)  -->
<svg version="1.1" id="Capa_1" xmlns="http://www.w3.org/2000/svg" xmlns:xlink="http://www.w3.org/1999/xlink" x="0px" y="0px"
	 viewBox="0 0 512 512" style="enable-background:new 0 0 512 512;" xml:space="preserve">
<rect x="353.918" y="165.902" transform="matrix(0.7071 0.7071 -0.7071 0.7071 264.1861 -190.6979)" style="fill:#CCF4EF;" width="16.735" height="115.299"/>
<path style="fill:#FFFFFF;" d="M385.295,200.533L385.295,200.533c3.268,3.268,8.566,3.268,11.834,0l11.834-11.834l-11.834-11.834
	l-11.834,11.834C382.027,191.967,382.027,197.265,385.295,200.533z"/>
<rect x="409.475" y="147.073" transform="matrix(0.7071 0.7071 -0.7071 0.7071 241.1716 -246.2555)" style="fill:#AEA8AF;" width="16.735" height="41.839"/>
<rect x="388.34" y="138.918" transform="matrix(0.7071 0.7071 -0.7071 0.7071 232.5933 -266.9591)" style="fill:#9C969E;" width="100.409" height="16.735"/>
<g>
	<path style="fill:#59D8FF;" d="M367.544,99.946l23.668,23.667c3.268,3.268,8.566,3.268,11.834,0l11.834-11.834
		c3.268-3.268,3.268-8.566,0-11.834l-23.667-23.667c-3.268-3.268-8.566-3.268-11.834,0l-11.834,11.834
		C364.276,91.38,364.276,96.678,367.544,99.946z"/>
	<path style="fill:#59D8FF;" d="M462.214,194.616l23.667,23.667c3.268,3.268,8.566,3.268,11.834,0l11.834-11.834
		c3.268-3.268,3.268-8.566,0-11.834l-23.668-23.667c-3.268-3.268-8.566-3.268-11.834,0l-11.834,11.834
		C458.946,186.05,458.946,191.348,462.214,194.616z"/>
</g>
<path style="fill:#C9C6CA;" d="M456.297,141.364l-11.834-11.834c-3.268-3.268-8.566-3.268-11.834,0l-11.834,11.834
	c-3.268,3.268-3.268,8.566,0,11.834l11.834,11.834c3.268,3.268,8.566,3.268,11.834,0l11.834-11.834
	C459.565,149.93,459.565,144.632,456.297,141.364z"/>
<g>
	<path style="fill:#DBD9DC;" d="M456.297,141.364L456.297,141.364c-3.268-3.268-8.566-3.268-11.834,0l-11.834,11.834
		c-3.268,3.268-3.268,8.566,0,11.834l0,0c3.268,3.268,8.566,3.268,11.834,0l11.834-11.834
		C459.565,149.93,459.565,144.632,456.297,141.364z"/>
	<path style="fill:#DBD9DC;" d="M391.212,182.782l11.834,11.834c3.27,3.27,8.563,3.27,11.834,0s3.27-8.563,0-11.834l-11.834-11.834
		c-3.27-3.27-8.563-3.27-11.834,0C387.941,174.219,387.941,179.512,391.212,182.782z"/>
</g>
<g>
	
		<rect x="477.521" y="177.889" transform="matrix(0.7071 0.7071 -0.7071 0.7071 279.9333 -286.5712)" style="fill:#99E7FF;" width="16.735" height="33.471"/>
	
		<rect x="382.851" y="83.221" transform="matrix(0.7071 0.7071 -0.7071 0.7071 185.265 -247.3569)" style="fill:#99E7FF;" width="16.735" height="33.471"/>
</g>
<rect x="141.35" y="165.898" transform="matrix(-0.7071 0.7071 -0.7071 -0.7071 413.6556 275.7531)" style="fill:#CCF4EF;" width="16.735" height="115.299"/>
<path style="fill:#FFFFFF;" d="M126.705,200.533L126.705,200.533c-3.268,3.268-8.566,3.268-11.834,0l-11.834-11.834l11.834-11.834
	l11.834,11.834C129.973,191.967,129.973,197.265,126.705,200.533z"/>
<rect x="85.794" y="147.071" transform="matrix(-0.7071 0.7071 -0.7071 -0.7071 279.5301 220.1949)" style="fill:#AEA8AF;" width="16.735" height="41.839"/>
<rect x="23.245" y="138.913" transform="matrix(-0.7071 0.7071 -0.7071 -0.7071 229.5299 199.4864)" style="fill:#9C969E;" width="100.409" height="16.735"/>
<g>
	<path style="fill:#59D8FF;" d="M144.456,99.946l-23.668,23.667c-3.268,3.268-8.566,3.268-11.834,0L97.121,111.78
		c-3.268-3.268-3.268-8.566,0-11.834l23.667-23.667c3.268-3.268,8.566-3.268,11.834,0l11.834,11.834
		C147.724,91.38,147.724,96.678,144.456,99.946z"/>
	<path style="fill:#59D8FF;" d="M49.786,194.616l-23.667,23.667c-3.268,3.268-8.566,3.268-11.834,0L2.451,206.45
		c-3.268-3.268-3.268-8.566,0-11.834l23.667-23.667c3.268-3.268,8.566-3.268,11.834,0l11.834,11.834
		C53.054,186.05,53.054,191.348,49.786,194.616z"/>
</g>
<path style="fill:#C9C6CA;" d="M91.204,153.198L79.37,165.032c-3.268,3.268-8.566,3.268-11.834,0l-11.834-11.834
	c-3.268-3.268-3.268-8.566,0-11.834l11.834-11.834c3.268-3.268,8.566-3.268,11.834,0l11.834,11.834
	C94.472,144.632,94.472,149.93,91.204,153.198z"/>
<g>
	<path style="fill:#DBD9DC;" d="M91.204,153.198L91.204,153.198c-3.268,3.268-8.566,3.268-11.834,0l-11.834-11.834
		c-3.268-3.268-3.268-8.566,0-11.834l0,0c3.268-3.268,8.566-3.268,11.834,0l11.834,11.834
		C94.472,144.632,94.472,149.93,91.204,153.198z"/>
	<path style="fill:#DBD9DC;" d="M120.788,182.782l-11.834,11.834c-3.27,3.27-8.563,3.27-11.834,0s-3.27-8.563,0-11.834
		l11.834-11.834c3.27-3.27,8.563-3.27,11.834,0C124.059,174.219,124.059,179.512,120.788,182.782z"/>
</g>
<g>
	
		<rect x="17.754" y="177.879" transform="matrix(-0.7071 0.7071 -0.7071 -0.7071 182.2047 313.7578)" style="fill:#99E7FF;" width="16.735" height="33.471"/>
	
		<rect x="112.423" y="83.208" transform="matrix(-0.7071 0.7071 -0.7071 -0.7071 276.8724 85.2019)" style="fill:#99E7FF;" width="16.735" height="33.471"/>
	<circle style="fill:#99E7FF;" cx="256" cy="329.46" r="108.71"/>
</g>
<path style="fill:#59D8FF;" d="M306.098,388.074c-60.038,0-108.708-48.67-108.708-108.708c0-17.076,4.048-33.168,11.063-47.546
	c-36.176,17.652-61.161,54.682-61.161,97.644c0,60.038,48.671,108.708,108.708,108.708c42.962,0,79.993-24.986,97.645-61.162
	C339.267,384.026,323.174,388.074,306.098,388.074z"/>
<path style="fill:#EDEBED;" d="M364.282,337.904c0.215-2.794,0.427-5.591,0.427-8.44c0-2.8-0.211-5.548-0.419-8.295h-33.256
	c-0.562-14.871-2.591-28.93-5.895-41.839h27.259c-3.09-5.928-6.722-11.512-10.81-16.735h-21.55
	c-4.338-11.659-9.791-21.994-16.139-30.605c-12.086-5.951-25.441-9.633-39.532-10.738v-0.074c-2.771-0.211-5.543-0.422-8.368-0.422
	s-5.597,0.211-8.368,0.422v0.074c-14.091,1.105-27.446,4.787-39.532,10.738c-6.348,8.611-11.801,18.946-16.139,30.605h-21.55
	c-4.088,5.224-7.72,10.807-10.809,16.735h27.259c-3.303,12.909-5.332,26.968-5.894,41.839H147.71
	c-0.208,2.747-0.419,5.495-0.419,8.295c0,2.849,0.211,5.646,0.426,8.44h33.253c0.572,14.859,2.609,28.906,5.918,41.802h-27.235
	c3.098,5.929,6.742,11.512,10.839,16.735h21.506c4.332,11.617,9.776,21.913,16.106,30.498c12.085,5.95,25.439,9.631,39.529,10.736
	v0.074c2.771,0.211,5.543,0.422,8.368,0.422s5.597-0.211,8.368-0.422v-0.074c14.09-1.105,27.444-4.785,39.529-10.736
	c6.33-8.585,11.773-18.881,16.105-30.498h21.506c4.097-5.223,7.741-10.806,10.839-16.735h-27.235
	c3.309-12.896,5.346-26.943,5.918-41.802H364.282z M301.742,262.594h-37.374v-40.537
	C279.291,226.245,292.59,241.252,301.742,262.594z M247.632,222.057v40.537h-37.374C219.41,241.252,232.709,226.245,247.632,222.057
	z M204.302,279.33h43.33v41.839H197.66C198.302,306.258,200.621,292.083,204.302,279.33z M204.332,379.706
	c-3.687-12.741-6.015-26.903-6.668-41.802h49.968v41.802H204.332z M210.303,396.441h37.329v40.426
	C232.734,432.688,219.454,417.727,210.303,396.441z M264.368,436.868v-40.426h37.329
	C292.546,417.727,279.266,432.688,264.368,436.868z M307.668,379.706h-43.3v-41.802h49.968
	C313.683,352.803,311.355,366.966,307.668,379.706z M264.368,321.168V279.33h43.33c3.682,12.754,6,26.928,6.642,41.839
	L264.368,321.168L264.368,321.168z"/>
<path style="fill:#DBD9DC;" d="M306.17,388.003c-14.756,0-28.811-2.97-41.639-8.296h-0.163v-0.06
	c-5.871-2.448-11.439-5.453-16.735-8.848v8.908h-43.3c-3.687-12.741-6.015-26.903-6.668-41.802h17.045
	c-3.401-5.296-6.412-10.864-8.865-16.735h-8.184c0.298-6.913,0.992-13.644,1.979-20.172c-1.421-7.014-2.177-14.27-2.177-21.703
	c0-17.046,4.035-33.113,11.028-47.473c-0.127,0.062-0.264,0.107-0.39,0.17c-6.348,8.611-11.801,18.946-16.139,30.605h-21.55
	c-4.088,5.224-7.72,10.807-10.809,16.735h27.259c-3.303,12.909-5.332,26.968-5.894,41.839H147.71
	c-0.208,2.747-0.419,5.495-0.419,8.295c0,2.849,0.211,5.646,0.426,8.44h33.253c0.572,14.859,2.609,28.906,5.918,41.802h-27.235
	c3.098,5.929,6.742,11.512,10.839,16.735h21.506c4.332,11.617,9.776,21.913,16.106,30.498c12.085,5.95,25.439,9.631,39.529,10.736
	v0.074c2.771,0.211,5.543,0.422,8.368,0.422s5.597-0.211,8.368-0.422v-0.074c14.09-1.105,27.444-4.785,39.529-10.736
	c6.33-8.585,11.773-18.881,16.105-30.498h21.506c4.097-5.223,7.741-10.806,10.839-16.735h-4.537
	C334.98,385.033,320.926,388.003,306.17,388.003z M247.632,436.868c-14.898-4.181-28.179-19.141-37.329-40.426h37.329V436.868z
	 M264.368,436.868v-40.426h37.329C292.546,417.727,279.266,432.688,264.368,436.868z"/>
<g>
</g>
<g>
</g>
<g>
</g>
<g>
</g>
<g>
</g>
<g>
</g>
<g>
</g>
<g>
</g>
<g>
</g>
<g>
</g>
<g>
</g>
<g>
</g>
<g>
</g>
<g>
</g>
<g>
</g>
</svg>
