<?xml version="1.0" encoding="iso-8859-1"?>
<!-- Generator: Adobe Illustrator 19.0.0, SVG Export Plug-In . SVG Version: 6.00 Build 0)  -->
<svg version="1.1" id="Capa_1" xmlns="http://www.w3.org/2000/svg" xmlns:xlink="http://www.w3.org/1999/xlink" x="0px" y="0px"
	 viewBox="0 0 512 512" style="enable-background:new 0 0 512 512;" xml:space="preserve">
<rect x="148.65" y="297.29" style="fill:#9C969E;" width="214.71" height="16.516"/>
<path style="fill:#AEA8AF;" d="M282.338,154.9c-0.919-3.676-4.222-6.255-8.012-6.255h-36.653c-3.789,0-7.092,2.579-8.012,6.255
	l-6.694,26.777h66.065L282.338,154.9z"/>
<path style="fill:#DBD9DC;" d="M312.844,259.447l-14.226-71.131c-0.772-3.86-4.161-6.639-8.098-6.639h-69.038
	c-3.936,0-7.326,2.778-8.098,6.638l-14.228,71.131c-0.64,3.2-0.963,6.455-0.963,9.718v85.932c0,4.56,3.697,8.258,8.258,8.258h99.097
	c4.561,0,8.258-3.698,8.258-8.258v-85.932C313.806,265.901,313.484,262.647,312.844,259.447z"/>
<path style="fill:#C9C6CA;" d="M239.484,355.097v-85.932c0-3.263,0.323-6.519,0.963-9.718l14.228-71.131
	c0.772-3.86,4.161-6.638,8.098-6.638h-41.29c-3.936,0-7.326,2.778-8.098,6.638l-14.228,71.131c-0.64,3.2-0.963,6.455-0.963,9.718
	v85.932c0,4.56,3.697,8.258,8.258,8.258h41.29C243.181,363.355,239.484,359.657,239.484,355.097z"/>
<path style="fill:#EDEBED;" d="M290.52,181.677h-69.038c-3.936,0-7.326,2.778-8.098,6.638l-14.228,71.131
	c-0.319,1.592-0.557,3.198-0.718,4.811h115.123c-0.16-1.613-0.399-3.219-0.718-4.811l-14.226-71.131
	C297.846,184.456,294.457,181.677,290.52,181.677z"/>
<path style="fill:#DBD9DC;" d="M239.729,264.258c0.16-1.614,0.399-3.22,0.718-4.811l14.228-71.131
	c0.772-3.86,4.161-6.638,8.098-6.638h-41.29c-3.936,0-7.326,2.778-8.098,6.638l-14.228,71.131c-0.319,1.592-0.557,3.198-0.718,4.811
	H239.729z"/>
<path style="fill:#59D8FF;" d="M8.258,272.516h148.645c4.561,0,8.258,3.697,8.258,8.258v49.548c0,4.561-3.697,8.258-8.258,8.258
	H8.258c-4.561,0-8.258-3.697-8.258-8.258v-49.548C0,276.213,3.697,272.516,8.258,272.516z"/>
<path style="fill:#99E7FF;" d="M256,231.226c-9.121,0-16.516,7.394-16.516,16.516v16.516h33.032v-16.516
	C272.516,238.62,265.121,231.226,256,231.226z"/>
<g>
	<path style="fill:#9C969E;" d="M222.968,280.774c-4.565,0-8.258-3.694-8.258-8.258v-8.258c0-4.565,3.694-8.258,8.258-8.258
		s8.258,3.694,8.258,8.258v8.258C231.226,277.081,227.532,280.774,222.968,280.774z"/>
	<path style="fill:#9C969E;" d="M289.032,280.774c-4.565,0-8.258-3.694-8.258-8.258v-8.258c0-4.565,3.694-8.258,8.258-8.258
		s8.258,3.694,8.258,8.258v8.258C297.29,277.081,293.597,280.774,289.032,280.774z"/>
</g>
<g>
	<rect x="33.03" y="272.52" style="fill:#99E7FF;" width="16.516" height="66.06"/>
	<rect x="115.61" y="272.52" style="fill:#99E7FF;" width="16.516" height="66.06"/>
	<rect x="74.32" y="272.52" style="fill:#99E7FF;" width="16.516" height="66.06"/>
</g>
<path style="fill:#59D8FF;" d="M355.097,272.516h148.645c4.561,0,8.258,3.697,8.258,8.258v49.548c0,4.561-3.697,8.258-8.258,8.258
	H355.097c-4.561,0-8.258-3.697-8.258-8.258v-49.548C346.839,276.213,350.536,272.516,355.097,272.516z"/>
<g>
	<rect x="379.87" y="272.52" style="fill:#99E7FF;" width="16.516" height="66.06"/>
	<rect x="462.45" y="272.52" style="fill:#99E7FF;" width="16.516" height="66.06"/>
	<rect x="421.16" y="272.52" style="fill:#99E7FF;" width="16.516" height="66.06"/>
</g>
<path style="fill:#59D8FF;" d="M256,231.226c-9.121,0-16.516,7.394-16.516,16.516v16.516c0-9.122,7.395-16.516,16.516-16.516
	s16.516,7.394,16.516,16.516v-16.516C272.516,238.62,265.121,231.226,256,231.226z"/>
<path style="fill:#9C969E;" d="M254.19,148.645h-16.516c-3.789,0-7.092,2.579-8.012,6.255l-6.694,26.777h16.516l6.694-26.777
	C247.097,151.224,250.4,148.645,254.19,148.645z"/>
<g>
</g>
<g>
</g>
<g>
</g>
<g>
</g>
<g>
</g>
<g>
</g>
<g>
</g>
<g>
</g>
<g>
</g>
<g>
</g>
<g>
</g>
<g>
</g>
<g>
</g>
<g>
</g>
<g>
</g>
</svg>
