<?xml version="1.0" encoding="iso-8859-1"?>
<!-- Generator: Adobe Illustrator 19.0.0, SVG Export Plug-In . SVG Version: 6.00 Build 0)  -->
<svg version="1.1" id="Capa_1" xmlns="http://www.w3.org/2000/svg" xmlns:xlink="http://www.w3.org/1999/xlink" x="0px" y="0px"
	 viewBox="0 0 512.001 512.001" style="enable-background:new 0 0 512.001 512.001;" xml:space="preserve">
<path style="fill:#867E88;" d="M280.774,470.71h-49.548l-6.283,31.413c-1.022,5.11,2.886,9.878,8.098,9.878h45.918
	c5.211,0,9.12-4.768,8.098-9.878L280.774,470.71z"/>
<path style="fill:#6F6571;" d="M252.7,495.484h33.03l-4.955-24.774h-49.548l-6.283,31.413c-1.022,5.11,2.886,9.878,8.098,9.878
	h9.586l1.975-9.877C245.374,498.262,248.763,495.484,252.7,495.484z"/>
<path style="fill:#C9C6CA;" d="M311.118,189.984l-22.086-16.565h-66.065l-22.086,16.565c-7.009,5.256-11.642,13.082-12.881,21.754
	L173.42,313.806h165.161L324,211.738C322.76,203.066,318.127,195.241,311.118,189.984z"/>
<path style="fill:#DBD9DC;" d="M280.774,272.516h-49.548L6.239,401.08c-3.577,2.044-5.1,6.412-3.57,10.237l9.695,24.236
	c2.508,6.27,8.581,10.382,15.335,10.382H214.71h82.581h187.012c6.753,0,12.827-4.112,15.335-10.382l9.695-24.236
	c1.53-3.825,0.007-8.193-3.57-10.237L280.774,272.516z"/>
<polygon style="fill:#C9C6CA;" points="198.194,445.935 214.71,445.935 222.968,445.935 222.968,277.235 198.194,291.392 "/>
<path style="fill:#EDEBED;" d="M295.843,241.098L281.742,15.486C281.198,6.781,273.98,0,265.258,0h-18.516
	c-8.722,0-15.94,6.781-16.484,15.486l-14.101,225.612c-0.965,15.435-1.448,30.896-1.448,46.361v174.992
	c0,9.121,7.395,16.516,16.516,16.516h49.548c9.121,0,16.516-7.395,16.516-16.516V287.46
	C297.29,271.994,296.807,256.533,295.843,241.098z"/>
<path style="fill:#DBD9DC;" d="M239.484,462.452V287.46c0-15.465,0.483-30.926,1.448-46.361l14.101-225.612
	c0.477-7.638,6.094-13.788,13.355-15.183c-1.015-0.195-2.059-0.302-3.129-0.302h-18.516c-8.722,0-15.94,6.781-16.484,15.486
	L216.158,241.1c-0.965,15.435-1.448,30.896-1.448,46.361v174.992c0,9.121,7.395,16.516,16.516,16.516H256
	C246.879,478.968,239.484,471.573,239.484,462.452z"/>
<path style="fill:#99E7FF;" d="M256,231.226L256,231.226c-9.122,0-16.516,7.395-16.516,16.516v16.516
	c0,4.561,3.697,8.258,8.258,8.258h16.516c4.561,0,8.258-3.697,8.258-8.258v-16.516C272.516,238.62,265.122,231.226,256,231.226z"/>
<path style="fill:#C9C6CA;" d="M246.742,0c-8.722,0-15.94,6.781-16.484,15.486l-1.097,17.546h53.677l-1.097-17.546
	C281.198,6.781,273.98,0,265.258,0H246.742z"/>
<path style="fill:#B7B2B8;" d="M246.742,0c-8.722,0-15.94,6.781-16.484,15.486l-1.097,17.546h24.774l1.097-17.546
	c0.477-7.638,6.094-13.788,13.355-15.183c-1.015-0.195-2.059-0.302-3.129-0.302L246.742,0L246.742,0z"/>
<path style="fill:#C9C6CA;" d="M214.71,429.419v33.032c0,9.121,7.395,16.516,16.516,16.516h49.548
	c9.121,0,16.516-7.395,16.516-16.516v-33.032H214.71z"/>
<path style="fill:#B7B2B8;" d="M239.484,462.452V429.42H214.71v33.032c0,9.121,7.395,16.516,16.516,16.516H256
	C246.879,478.968,239.484,471.573,239.484,462.452z"/>
<path style="fill:#59D8FF;" d="M256,231.226c-9.121,0-16.516,7.395-16.516,16.516v16.516c0-9.122,7.395-16.516,16.516-16.516
	s16.516,7.394,16.516,16.516v-16.516C272.516,238.62,265.121,231.226,256,231.226z"/>
<g>
	<path style="fill:#C9C6CA;" d="M148.645,462.452h-8.258c-4.561,0-8.258-3.697-8.258-8.258v-61.935
		c0-6.841,5.546-12.387,12.387-12.387l0,0c6.841,0,12.387,5.546,12.387,12.387v61.935
		C156.903,458.754,153.206,462.452,148.645,462.452z"/>
	<path style="fill:#C9C6CA;" d="M90.839,462.452h-8.258c-4.561,0-8.258-3.697-8.258-8.258v-37.161
		c0-6.841,5.546-12.387,12.387-12.387l0,0c6.841,0,12.387,5.546,12.387,12.387v37.161C99.097,458.754,95.4,462.452,90.839,462.452z"
		/>
	<path style="fill:#C9C6CA;" d="M363.355,462.452h8.258c4.561,0,8.258-3.697,8.258-8.258v-61.935
		c0-6.841-5.546-12.387-12.387-12.387l0,0c-6.841,0-12.387,5.546-12.387,12.387v61.935
		C355.096,458.754,358.794,462.452,363.355,462.452z"/>
	<path style="fill:#C9C6CA;" d="M421.161,462.452h8.258c4.561,0,8.258-3.697,8.258-8.258v-37.161
		c0-6.841-5.546-12.387-12.387-12.387l0,0c-6.841,0-12.387,5.546-12.387,12.387v37.161
		C412.903,458.754,416.6,462.452,421.161,462.452z"/>
</g>
<g>
</g>
<g>
</g>
<g>
</g>
<g>
</g>
<g>
</g>
<g>
</g>
<g>
</g>
<g>
</g>
<g>
</g>
<g>
</g>
<g>
</g>
<g>
</g>
<g>
</g>
<g>
</g>
<g>
</g>
</svg>
