<?xml version="1.0" encoding="iso-8859-1"?>
<!-- Generator: Adobe Illustrator 19.0.0, SVG Export Plug-In . SVG Version: 6.00 Build 0)  -->
<svg version="1.1" id="Capa_1" xmlns="http://www.w3.org/2000/svg" xmlns:xlink="http://www.w3.org/1999/xlink" x="0px" y="0px"
	 viewBox="0 0 512 512" style="enable-background:new 0 0 512 512;" xml:space="preserve">
<rect x="240" y="212" style="fill:#EDEBED;" width="32" height="224"/>
<path style="fill:#DBD9DC;" d="M264,244h8v-32h-32v224h16V252C256,247.582,259.582,244,264,244z"/>
<path style="fill:#EDEBED;" d="M266.134,9.423c-4.821-7.231-15.447-7.231-20.268,0C231.608,30.81,224,55.939,224,81.642V148h64
	V81.642C288,55.939,280.392,30.81,266.134,9.423z"/>
<path style="fill:#DBD9DC;" d="M268,12.46c-0.632-1.007-1.206-2.045-1.866-3.037c-4.821-7.231-15.447-7.231-20.268,0
	C231.608,30.81,224,55.939,224,81.642V148h24V81.642C248,57.13,254.993,33.18,268,12.46z"/>
<path style="fill:#99E7FF;" d="M489.767,170.419L288,148h-64.002L22.233,170.419C14.13,171.319,8,178.168,8,186.32V228h496v-41.679
	C504,178.168,497.87,171.319,489.767,170.419z"/>
<polygon style="fill:#59D8FF;" points="504,188 472,188 472,168.444 456,166.667 456,188 440,188 440,164.889 424,163.111 424,188 
	408,188 408,161.334 392,159.556 392,188 376,188 376,157.778 360,156 360,188 344,188 344,154.222 328,152.444 328,188 312,188 
	312,150.667 296,148.889 296,188 280,188 280,148 264,148 264,188 248,188 248,148 232,148 232,188 216,188 216,148.889 
	200,150.667 200,188 184,188 184,152.444 168,154.222 168,188 152,188 152,156 136,157.777 136,188 120,188 120,159.555 
	104,161.333 104,188 88,188 88,163.111 72,164.889 72,188 56,188 56,166.667 40,168.444 40,188 8,188 8,204 40,204 40,228 56,228 
	56,204 72,204 72,228 88,228 88,204 104,204 104,228 120,228 120,204 136,204 136,228 152,228 152,204 168,204 168,228 184,228 
	184,204 200,204 200,228 216,228 216,204 232,204 232,228 248,228 248,204 264,204 264,228 280,228 280,204 296,204 296,228 
	312,228 312,204 328,204 328,228 344,228 344,204 360,204 360,228 376,228 376,204 392,204 392,228 408,228 408,204 424,204 
	424,228 440,228 440,204 456,204 456,228 472,228 472,204 504,204 "/>
<path style="fill:#EDEBED;" d="M504,244c-4.422,0-8-3.578-8-8v-49.68c0-4.078-3.063-7.5-7.117-7.945L287.555,156h-63.109
	L23.117,178.375C19.063,178.82,16,182.242,16,186.32V236c0,4.422-3.578,8-8,8s-8-3.578-8-8v-49.68c0-12.25,9.18-22.5,21.352-23.852
	l201.766-22.422c0.289-0.031,0.586-0.047,0.883-0.047h64c0.297,0,0.594,0.016,0.883,0.047l201.766,22.422
	C502.82,163.82,512,174.07,512,186.32V236C512,240.422,508.422,244,504,244z"/>
<path style="fill:#59D8FF;" d="M271.992,88.438c-1.367,0-2.75-0.352-4.016-1.086c-7.641-4.453-16.313-4.453-23.953,0
	c-3.82,2.203-8.719,0.93-10.938-2.891c-2.227-3.82-0.93-8.719,2.891-10.938c12.594-7.328,27.453-7.328,40.047,0
	c3.82,2.219,5.117,7.117,2.891,10.938C277.43,87.016,274.75,88.438,271.992,88.438z"/>
<rect x="176" y="444" style="fill:#DBD9DC;" width="160" height="24"/>
<path style="fill:#EDEBED;" d="M329.986,435.188c0,0-57.659-7.167-57.986-7.188h-32c-0.327,0.02-57.986,7.188-57.986,7.188
	c-8.006,1.001-14.014,7.807-14.014,15.875V476c0,4.422,3.578,8,8,8s8-3.578,8-8v-24.938l58.976-6.508
	c2.681-0.296,5.024,1.803,5.024,4.5V500c0,4.422,3.578,8,8,8s8-3.578,8-8v-50.945c0-2.697,2.343-4.796,5.024-4.5L328,451.063V476
	c0,4.422,3.578,8,8,8s8-3.578,8-8v-24.938C344,442.994,337.992,436.189,329.986,435.188z"/>
<g>
</g>
<g>
</g>
<g>
</g>
<g>
</g>
<g>
</g>
<g>
</g>
<g>
</g>
<g>
</g>
<g>
</g>
<g>
</g>
<g>
</g>
<g>
</g>
<g>
</g>
<g>
</g>
<g>
</g>
</svg>
