<?xml version="1.0" encoding="iso-8859-1"?>
<!-- Generator: Adobe Illustrator 19.0.0, SVG Export Plug-In . SVG Version: 6.00 Build 0)  -->
<svg version="1.1" id="Capa_1" xmlns="http://www.w3.org/2000/svg" xmlns:xlink="http://www.w3.org/1999/xlink" x="0px" y="0px"
	 viewBox="0 0 512.002 512.002" style="enable-background:new 0 0 512.002 512.002;" xml:space="preserve">
<path style="fill:#4BD7C8;" d="M267.677,120.4c-2.113,0-4.226-0.806-5.839-2.419c-3.226-3.226-8.452-3.226-11.677,0
	c-3.226,3.226-8.452,3.226-11.677,0c-3.226-3.226-3.226-8.452,0-11.677c9.661-9.661,25.371-9.661,35.032,0
	c3.226,3.226,3.226,8.452,0,11.677C271.903,119.594,269.79,120.4,267.677,120.4z"/>
<path style="fill:#CCF4EF;" d="M326.073,62.005c-2.113,0-4.226-0.806-5.839-2.419c-35.419-35.419-93.048-35.419-128.468,0
	c-3.226,3.226-8.452,3.226-11.677,0c-3.226-3.226-3.226-8.452,0-11.677c41.855-41.855,109.968-41.855,151.823,0
	c3.226,3.226,3.226,8.452,0,11.677C330.298,61.199,328.185,62.005,326.073,62.005z"/>
<path style="fill:#99E9DF;" d="M296.879,91.207c-2.113,0-4.226-0.806-5.839-2.419c-19.323-19.323-50.758-19.323-70.081,0
	c-3.226,3.226-8.452,3.226-11.677,0c-3.226-3.226-3.226-8.452,0-11.677c25.758-25.758,67.677-25.758,93.435,0
	c3.226,3.226,3.226,8.452,0,11.677C301.105,90.4,298.992,91.207,296.879,91.207z"/>
<path style="fill:#5D5360;" d="M256,495.485L256,495.485c-4.561,0-8.258-3.697-8.258-8.258v-49.548h16.516v49.548
	C264.258,491.788,260.561,495.485,256,495.485z"/>
<path style="fill:#EDEBED;" d="M501.484,372.471l-198.43-139.635c-8.791-6.186-14.022-16.264-14.022-27.014v-24.144
	c0-18.243-14.789-33.032-33.032-33.032s-33.032,14.789-33.032,33.032v24.144c0,10.75-5.231,20.828-14.022,27.014L10.517,372.471
	C3.923,377.111,0,384.669,0,392.732v51.651c0,5.124,4.618,9.012,9.668,8.137l189.96-32.908c13.952-2.417,27.892,4.327,34.657,16.766
	l2.854,5.247c1.446,2.658,4.229,4.313,7.255,4.313h23.214c3.026,0,5.809-1.655,7.255-4.313l2.854-5.247
	c6.765-12.439,20.705-19.183,34.657-16.766l189.961,32.908c5.048,0.875,9.667-3.013,9.667-8.137v-51.651
	C512,384.669,508.077,377.111,501.484,372.471z"/>
<g>
	<path style="fill:#DBD9DC;" d="M501.484,372.471l-198.43-139.635c-8.791-6.186-14.022-16.264-14.022-27.014v218.531
		c6.783-4.315,15.041-6.18,23.34-4.742l189.961,32.908c5.048,0.875,9.667-3.013,9.667-8.137v-51.651
		C512,384.669,508.077,377.111,501.484,372.471z"/>
	<path style="fill:#DBD9DC;" d="M222.968,181.678v24.144v218.531c4.621,2.94,8.576,6.983,11.317,12.024l2.854,5.247
		c1.446,2.658,4.229,4.313,7.255,4.313H256v-297.29C237.757,148.646,222.968,163.435,222.968,181.678z"/>
</g>
<g>
	<path style="fill:#6F6571;" d="M305.548,487.227h-99.097c-4.565,0-8.258-3.694-8.258-8.258s3.694-8.258,8.258-8.258h99.097
		c4.565,0,8.258,3.694,8.258,8.258S310.113,487.227,305.548,487.227z"/>
	<path style="fill:#6F6571;" d="M256,194.066c-6.831,0-12.387-5.556-12.387-12.387s5.556-12.387,12.387-12.387
		s12.387,5.556,12.387,12.387C268.387,188.509,262.831,194.066,256,194.066z"/>
</g>
<path style="fill:#DBD9DC;" d="M66.065,333.382v120.813c0,4.565,3.694,8.258,8.258,8.258c4.565,0,8.258-3.694,8.258-8.258V321.76
	L66.065,333.382z"/>
<path style="fill:#EDEBED;" d="M445.935,333.382v120.813c0,4.565-3.694,8.258-8.258,8.258s-8.258-3.694-8.258-8.258V321.76
	L445.935,333.382z"/>
<g>
</g>
<g>
</g>
<g>
</g>
<g>
</g>
<g>
</g>
<g>
</g>
<g>
</g>
<g>
</g>
<g>
</g>
<g>
</g>
<g>
</g>
<g>
</g>
<g>
</g>
<g>
</g>
<g>
</g>
</svg>
