<?xml version="1.0" encoding="iso-8859-1"?>
<!-- Generator: Adobe Illustrator 19.0.0, SVG Export Plug-In . SVG Version: 6.00 Build 0)  -->
<svg version="1.1" id="Capa_1" xmlns="http://www.w3.org/2000/svg" xmlns:xlink="http://www.w3.org/1999/xlink" x="0px" y="0px"
	 viewBox="0 0 512 512" style="enable-background:new 0 0 512 512;" xml:space="preserve">
<rect x="243.611" y="33.03" style="fill:#9C969E;" width="24.774" height="49.548"/>
<path style="fill:#867E88;" d="M330.324,512h41.29c9.122,0,16.516-7.395,16.516-16.516v-41.29h-74.323v41.29
	C313.807,504.605,321.202,512,330.324,512z"/>
<path style="fill:#6F6571;" d="M388.13,454.194v36.695c-4.879,2.845-10.473,4.595-16.517,4.595h-57.806v-41.29H388.13z"/>
<path style="fill:#867E88;" d="M181.678,512h-41.29c-9.122,0-16.516-7.395-16.516-16.516v-41.29h74.323v41.29
	C198.195,504.605,190.799,512,181.678,512z"/>
<path style="fill:#6F6571;" d="M123.872,454.194v36.695c4.879,2.845,10.473,4.595,16.517,4.595h57.806v-41.29H123.872z"/>
<rect x="231.23" y="338.58" style="fill:#9C969E;" width="49.548" height="115.61"/>
<path style="fill:#867E88;" d="M256.001,363.355h24.774v-24.774h-49.548v115.613h16.516v-82.581
	C247.743,367.052,251.439,363.355,256.001,363.355z"/>
<path style="fill:#DBD9DC;" d="M313.807,346.839H198.195c-9.122,0-16.516-7.395-16.516-16.516V132.129h148.645v198.194
	C330.324,339.444,322.929,346.839,313.807,346.839z"/>
<path style="fill:#C9C6CA;" d="M330.324,132.129H181.678v24.774h24.985c7.545,9.968,19.386,16.516,32.822,16.516h33.032
	c13.436,0,25.277-6.548,32.822-16.516h24.984L330.324,132.129L330.324,132.129z"/>
<rect x="123.871" y="90.84" style="fill:#9C969E;" width="264.26" height="33.03"/>
<g>
	<path style="fill:#EDEBED;" d="M330.324,140.387H181.678c-9.122,0-16.516-7.395-16.516-16.516V90.839
		c0-9.122,7.395-16.516,16.516-16.516h148.645c9.122,0,16.516,7.395,16.516,16.516v33.032
		C346.84,132.993,339.445,140.387,330.324,140.387z"/>
	<path style="fill:#EDEBED;" d="M371.614,421.161h-57.225c-5.523,0-10.679,2.76-13.742,7.354l-6.71,10.065
		c-3.063,4.595-8.22,7.355-13.742,7.355h-48.386c-5.523,0-10.679-2.76-13.742-7.355l-6.71-10.065
		c-3.063-4.595-8.22-7.354-13.742-7.354h-57.225c-9.122,0-16.516,7.394-16.516,16.516v24.774c0,9.121,7.394,16.516,16.516,16.516
		h231.226c9.121,0,16.516-7.395,16.516-16.516v-24.774C388.131,428.555,380.736,421.161,371.614,421.161z"/>
</g>
<g>
	<path style="fill:#867E88;" d="M70.783,367.94c-1.855-2.786-1.855-6.383,0-9.165l26.927-40.387l-13.742-9.161l-26.927,40.39
		c-5.556,8.347-5.556,19.129,0,27.48l10.411,15.613c1.589,2.387,4.21,3.677,6.879,3.677c1.573,0,3.169-0.448,4.573-1.387
		c3.798-2.532,4.823-7.657,2.29-11.452L70.783,367.94z"/>
	<path style="fill:#867E88;" d="M141.154,349.613l-26.927-40.387l-13.742,9.161l26.927,40.383c1.855,2.786,1.855,6.383,0,9.165
		l-10.411,15.613c-2.532,3.794-1.508,8.919,2.29,11.452c1.403,0.94,3,1.387,4.573,1.387c2.669,0,5.29-1.29,6.879-3.677
		l10.411-15.617C146.711,368.746,146.711,357.964,141.154,349.613z"/>
</g>
<rect x="82.581" y="181.68" style="fill:#9C969E;" width="33.03" height="132.13"/>
<path style="fill:#867E88;" d="M107.356,206.452h8.258v-24.774H82.582v132.129h16.516V214.71
	C99.098,210.149,102.795,206.452,107.356,206.452z"/>
<path style="fill:#C9C6CA;" d="M115.614,189.935H57.807c-4.561,0-8.258-3.697-8.258-8.258v-16.516c0-4.561,3.697-8.258,8.258-8.258
	h57.806L115.614,189.935L115.614,189.935z"/>
<path style="fill:#EDEBED;" d="M115.614,33.032H99.098c-9.122,0-16.516,7.395-16.516,16.516v132.125
	c0,4.561,3.697,8.258,8.258,8.258h24.774c9.122,0,16.516-7.395,16.516-16.516V49.548C132.131,40.427,124.736,33.032,115.614,33.032z
	"/>
<path style="fill:#DBD9DC;" d="M99.098,181.673V49.548c0-9.122,7.395-16.516,16.516-16.516H99.098
	c-9.121,0-16.516,7.394-16.516,16.516v132.125c0,4.56,3.697,8.258,8.258,8.258h16.516
	C102.795,189.931,99.098,186.234,99.098,181.673z"/>
<path style="fill:#C9C6CA;" d="M99.098,297.29L99.098,297.29c-13.682,0-24.774,11.092-24.774,24.774v8.258
	c0,4.561,3.697,8.258,8.258,8.258h33.032c4.561,0,8.258-3.697,8.258-8.258v-8.258C123.872,308.382,112.781,297.29,99.098,297.29z"/>
<g>
	<path style="fill:#867E88;" d="M441.219,367.94c1.855-2.786,1.855-6.383,0-9.165l-26.927-40.387l13.742-9.161l26.927,40.391
		c5.556,8.347,5.556,19.129,0,27.48l-10.411,15.613c-1.589,2.387-4.21,3.677-6.879,3.677c-1.573,0-3.169-0.448-4.573-1.387
		c-3.798-2.532-4.823-7.657-2.29-11.452L441.219,367.94z"/>
	<path style="fill:#867E88;" d="M370.848,349.613l26.927-40.387l13.742,9.161L384.59,358.77c-1.855,2.786-1.855,6.383,0,9.165
		l10.411,15.613c2.532,3.794,1.508,8.919-2.29,11.452c-1.403,0.94-3,1.387-4.573,1.387c-2.669,0-5.29-1.29-6.879-3.677
		l-10.411-15.617C365.291,368.746,365.291,357.964,370.848,349.613z"/>
</g>
<rect x="396.381" y="181.67" style="fill:#9C969E;" width="33.03" height="132.13"/>
<path style="fill:#867E88;" d="M421.151,206.446h8.258v-24.774h-33.032v132.129h16.516v-99.097
	C412.893,210.144,416.591,206.446,421.151,206.446z"/>
<path style="fill:#C9C6CA;" d="M396.388,189.935h57.806c4.561,0,8.258-3.697,8.258-8.258v-16.516c0-4.561-3.697-8.258-8.258-8.258
	h-57.806V189.935z"/>
<path style="fill:#EDEBED;" d="M396.388,33.032h16.516c9.122,0,16.516,7.395,16.516,16.516v132.125c0,4.561-3.697,8.258-8.258,8.258
	h-24.774c-9.122,0-16.516-7.395-16.516-16.516V49.548C379.871,40.427,387.266,33.032,396.388,33.032z"/>
<path style="fill:#C9C6CA;" d="M412.904,297.29L412.904,297.29c13.682,0,24.774,11.092,24.774,24.774v8.258
	c0,4.561-3.697,8.258-8.258,8.258h-33.032c-4.561,0-8.258-3.697-8.258-8.258v-8.258C388.13,308.382,399.221,297.29,412.904,297.29z"
	/>
<g>
	<path style="fill:#DBD9DC;" d="M396.388,173.415V49.548c0-9.122,7.395-16.516,16.516-16.516h-0.001h-16.516
		c-9.121,0-16.516,7.394-16.516,16.516v123.867c0,9.121,7.395,16.516,16.516,16.516h16.517
		C403.783,189.931,396.388,182.537,396.388,173.415z"/>
	<path style="fill:#DBD9DC;" d="M330.324,123.871H181.678c-9.121,0-16.516-7.395-16.516-16.516v16.516
		c0,9.121,7.395,16.516,16.516,16.516h148.645c9.121,0,16.516-7.395,16.516-16.516v-16.516
		C346.84,116.476,339.445,123.871,330.324,123.871z"/>
</g>
<path style="fill:#99E9DF;" d="M272.517,156.903h-33.032c-13.682,0-24.774-11.092-24.774-24.774v-16.516
	c0-4.561,3.697-8.258,8.258-8.258h66.065c4.561,0,8.258,3.697,8.258,8.258v16.516C297.292,145.811,286.2,156.903,272.517,156.903z"
	/>
<path style="fill:#4BD7C8;" d="M280.776,123.871v8.258c0,4.553-3.705,8.258-8.258,8.258h-33.032c-4.553,0-8.258-3.705-8.258-8.258
	v-8.258L280.776,123.871 M289.034,107.355h-66.065c-4.561,0-8.258,3.697-8.258,8.258v16.516c0,13.682,11.092,24.774,24.774,24.774
	h33.032c13.682,0,24.774-11.092,24.774-24.774v-16.516C297.292,111.052,293.594,107.355,289.034,107.355L289.034,107.355z"/>
<g>
	<rect x="181.68" y="181.68" style="fill:#C9C6CA;" width="148.65" height="16.516"/>
	<path style="fill:#C9C6CA;" d="M313.807,346.839H198.195c-9.122,0-16.516-7.395-16.516-16.516v-16.516h148.645v16.516
		C330.324,339.444,322.929,346.839,313.807,346.839z"/>
</g>
<g>
	<rect x="231.23" y="379.87" style="fill:#867E88;" width="49.548" height="16.516"/>
	<rect x="231.23" y="412.9" style="fill:#867E88;" width="49.548" height="16.516"/>
</g>
<g>
	<rect x="231.23" y="379.87" style="fill:#6F6571;" width="16.516" height="16.516"/>
	<rect x="231.23" y="412.9" style="fill:#6F6571;" width="16.516" height="16.516"/>
</g>
<path style="fill:#DBD9DC;" d="M371.614,462.452H140.389c-9.122,0-16.516-7.395-16.516-16.516v16.516
	c0,9.121,7.394,16.516,16.516,16.516h231.226c9.121,0,16.516-7.395,16.516-16.516v-16.516
	C388.131,455.057,380.736,462.452,371.614,462.452z"/>
<rect x="243.611" y="33.03" style="fill:#867E88;" width="24.774" height="24.774"/>
<path style="fill:#99E7FF;" d="M280.776,41.29h-49.548c-9.122,0-16.516-7.395-16.516-16.516v-8.258
	C214.711,7.395,222.105,0,231.227,0h49.548c9.122,0,16.516,7.395,16.516,16.516v8.258C297.292,33.896,289.897,41.29,280.776,41.29z"
	/>
<path style="fill:#59D8FF;" d="M297.291,24.774h-49.548c-9.121,0-16.516-7.395-16.516-16.516V0c-9.122,0-16.516,7.394-16.516,16.516
	v8.258c0,9.121,7.394,16.516,16.516,16.516h49.548C289.897,41.29,297.292,33.896,297.291,24.774L297.291,24.774L297.291,24.774z"/>
<g>
</g>
<g>
</g>
<g>
</g>
<g>
</g>
<g>
</g>
<g>
</g>
<g>
</g>
<g>
</g>
<g>
</g>
<g>
</g>
<g>
</g>
<g>
</g>
<g>
</g>
<g>
</g>
<g>
</g>
</svg>
