<?xml version="1.0" encoding="iso-8859-1"?>
<!-- Generator: Adobe Illustrator 19.0.0, SVG Export Plug-In . SVG Version: 6.00 Build 0)  -->
<svg version="1.1" id="Capa_1" xmlns="http://www.w3.org/2000/svg" xmlns:xlink="http://www.w3.org/1999/xlink" x="0px" y="0px"
	 viewBox="0 0 511.999 511.999" style="enable-background:new 0 0 511.999 511.999;" xml:space="preserve">
<path style="fill:#E5F9FF;" d="M346.834,334.452H165.158v-8.258c0-13.682,11.092-24.774,24.774-24.774h132.127
	c13.682,0,24.774,11.092,24.774,24.774v8.258H346.834z"/>
<path style="fill:#DBD9DC;" d="M123.869,227.098l19.966,33.272c2.985,4.974,8.361,8.018,14.162,8.018h196.005
	c5.802,0,11.178-3.044,14.163-8.019l19.96-33.27L123.869,227.098L123.869,227.098z"/>
<path style="fill:#C9C6CA;" d="M196.26,251.872h177l14.863-24.774H123.869l19.966,33.272c2.985,4.974,8.361,8.018,14.162,8.018
	h33.589l-2.406-4.009C185.876,258.875,189.841,251.872,196.26,251.872z"/>
<path style="fill:#867E88;" d="M511,180.163c-3.117-8.572-12.589-12.984-21.165-9.879l-58.023,21.097
	c-19.963,7.266-40.85,10.943-62.084,10.943H142.271c-21.234,0-42.12-3.677-62.084-10.943l-58.023-21.097
	c-8.564-3.105-18.044,1.306-21.165,9.879c-3.117,8.572,1.302,18.048,9.875,21.169l58.023,21.097
	c23.592,8.581,48.278,12.927,73.374,12.927h227.457c25.096,0,49.782-4.347,73.374-12.927l58.023-21.097
	C509.698,198.211,514.117,188.736,511,180.163z"/>
<path style="fill:#CCF3FF;" d="M297.286,309.678h-82.58c-4.564,0-8.258-3.694-8.258-8.258s3.693-8.258,8.258-8.258h82.58
	c4.564,0,8.258,3.694,8.258,8.258S301.85,309.678,297.286,309.678z"/>
<path style="fill:#99E7FF;" d="M363.35,342.71H148.642c-4.564,0-8.258-3.694-8.258-8.258s3.694-8.258,8.258-8.258h214.707
	c4.564,0,8.258,3.694,8.258,8.258S367.914,342.71,363.35,342.71z"/>
<path style="fill:#CCF3FF;" d="M107.353,301.42c-4.564,0-8.258-3.694-8.258-8.258V260.13c0-4.564,3.694-8.258,8.258-8.258
	s8.258,3.694,8.258,8.258v33.032C115.611,297.726,111.917,301.42,107.353,301.42z"/>
<path style="fill:#E5F9FF;" d="M74.321,276.646c-4.564,0-8.258-3.694-8.258-8.258v-16.516c0-4.564,3.694-8.258,8.258-8.258
	s8.258,3.693,8.258,8.258v16.516C82.579,272.952,78.885,276.646,74.321,276.646z"/>
<path style="fill:#CCF3FF;" d="M404.639,301.42c-4.564,0-8.258-3.694-8.258-8.258V260.13c0-4.564,3.693-8.258,8.258-8.258
	c4.564,0,8.258,3.694,8.258,8.258v33.032C412.897,297.726,409.204,301.42,404.639,301.42z"/>
<path style="fill:#E5F9FF;" d="M437.671,276.646c-4.564,0-8.258-3.694-8.258-8.258v-16.516c0-4.564,3.694-8.258,8.258-8.258
	s8.258,3.693,8.258,8.258v16.516C445.929,272.952,442.236,276.646,437.671,276.646z"/>
<path style="fill:#6F6571;" d="M509.72,177.509c-1.873,3.251-4.793,5.923-8.595,7.307l-58.023,21.097
	c-23.592,8.581-48.278,12.927-73.374,12.927H142.271c-25.096,0-49.782-4.347-73.374-12.927l-58.023-21.097
	c-3.802-1.384-6.722-4.055-8.595-7.306c-0.488,0.838-0.937,1.709-1.28,2.653c-3.117,8.572,1.302,18.048,9.875,21.169l58.023,21.097
	c23.592,8.581,48.278,12.927,73.374,12.927h227.457c25.096,0,49.782-4.347,73.374-12.927l58.023-21.097
	c8.572-3.121,12.992-12.597,9.875-21.169C510.657,179.219,510.208,178.348,509.72,177.509z"/>
<g>
</g>
<g>
</g>
<g>
</g>
<g>
</g>
<g>
</g>
<g>
</g>
<g>
</g>
<g>
</g>
<g>
</g>
<g>
</g>
<g>
</g>
<g>
</g>
<g>
</g>
<g>
</g>
<g>
</g>
</svg>
