<?xml version="1.0" encoding="iso-8859-1"?>
<!-- Generator: Adobe Illustrator 19.0.0, SVG Export Plug-In . SVG Version: 6.00 Build 0)  -->
<svg version="1.1" id="Capa_1" xmlns="http://www.w3.org/2000/svg" xmlns:xlink="http://www.w3.org/1999/xlink" x="0px" y="0px"
	 viewBox="0 0 512 512" style="enable-background:new 0 0 512 512;" xml:space="preserve">
<path style="fill:#EDEBED;" d="M355.097,297.536v-83.072c0-21.902,8.701-42.907,24.188-58.394L428,107.355L404.645,84
	l-48.716,48.716c-15.487,15.487-36.492,24.188-58.394,24.188h-83.072c-21.902,0-42.907-8.701-58.394-24.188L107.355,84L84,107.355
	l48.716,48.716c15.487,15.487,24.188,36.491,24.188,58.394v83.072c0,21.902-8.701,42.906-24.188,58.393L83.29,405.355l23.355,23.355
	l49.425-49.426c15.487-15.487,36.492-24.187,58.394-24.187h83.072c21.902,0,42.907,8.7,58.394,24.187l49.425,49.426l23.355-23.355
	l-49.425-49.426C363.797,340.442,355.097,319.438,355.097,297.536z"/>
<path style="fill:#DBD9DC;" d="M129.211,105.856L107.355,84L84,107.355l21.856,21.856
	C116.548,125.022,125.022,116.548,129.211,105.856z"/>
<path style="fill:#6F6571;" d="M176.839,4.839c-6.444-6.452-16.911-6.452-23.355,0L4.839,153.484
	c-6.452,6.452-6.452,16.903,0,23.355c3.222,3.226,7.452,4.839,11.677,4.839s8.456-1.613,11.677-4.839L176.839,28.194
	C183.29,21.742,183.29,11.29,176.839,4.839z"/>
<circle style="fill:#AEA8AF;" cx="90.84" cy="90.84" r="24.774"/>
<path style="fill:#9C969E;" d="M103.226,103.226c-13.682,0-24.774-11.092-24.774-24.774c0-3.631,0.824-7.053,2.227-10.16
	c-8.602,3.885-14.614,12.495-14.614,22.547c0,13.682,11.092,24.774,24.774,24.774c10.052,0,18.662-6.012,22.547-14.614
	C110.279,102.402,106.856,103.226,103.226,103.226z"/>
<path style="fill:#DBD9DC;" d="M406.144,129.211L428,107.355L404.645,84l-21.856,21.856
	C386.978,116.548,395.452,125.022,406.144,129.211z"/>
<path style="fill:#6F6571;" d="M507.161,176.839c6.452-6.444,6.452-16.911,0-23.355L358.516,4.839
	c-6.452-6.452-16.903-6.452-23.355,0c-3.226,3.222-4.839,7.452-4.839,11.677s1.613,8.456,4.839,11.677l148.645,148.645
	C490.258,183.29,500.71,183.29,507.161,176.839z"/>
<circle style="fill:#AEA8AF;" cx="421.16" cy="90.84" r="24.774"/>
<path style="fill:#9C969E;" d="M433.548,103.226c-13.682,0-24.774-11.092-24.774-24.774c0-3.631,0.824-7.053,2.227-10.16
	c-8.602,3.885-14.614,12.495-14.614,22.547c0,13.682,11.092,24.774,24.774,24.774c10.052,0,18.662-6.012,22.547-14.614
	C440.601,102.402,437.179,103.226,433.548,103.226z"/>
<path style="fill:#DBD9DC;" d="M382.789,406.144L404.645,428L428,404.645l-21.856-21.856
	C395.452,386.978,386.978,395.452,382.789,406.144z"/>
<path style="fill:#6F6571;" d="M335.161,507.161c6.444,6.452,16.911,6.452,23.355,0l148.645-148.645
	c6.452-6.452,6.452-16.903,0-23.355c-3.222-3.226-7.452-4.839-11.677-4.839c-4.226,0-8.456,1.613-11.677,4.839L335.161,483.806
	C328.71,490.258,328.71,500.71,335.161,507.161z"/>
<circle style="fill:#AEA8AF;" cx="421.16" cy="421.16" r="24.774"/>
<path style="fill:#9C969E;" d="M433.548,433.548c-13.682,0-24.774-11.092-24.774-24.774c0-3.631,0.824-7.053,2.227-10.16
	c-8.602,3.885-14.614,12.495-14.614,22.547c0,13.682,11.092,24.774,24.774,24.774c10.052,0,18.662-6.012,22.547-14.614
	C440.601,432.724,437.179,433.548,433.548,433.548z"/>
<path style="fill:#DBD9DC;" d="M105.856,382.789L84,404.645L107.355,428l21.856-21.856
	C125.022,395.452,116.548,386.978,105.856,382.789z"/>
<path style="fill:#6F6571;" d="M4.839,335.161c-6.452,6.444-6.452,16.911,0,23.355l148.645,148.645
	c6.452,6.452,16.903,6.452,23.355,0c3.226-3.222,4.839-7.452,4.839-11.677c0-4.226-1.613-8.456-4.839-11.677L28.194,335.161
	C21.742,328.71,11.29,328.71,4.839,335.161z"/>
<circle style="fill:#AEA8AF;" cx="90.84" cy="421.16" r="24.774"/>
<path style="fill:#9C969E;" d="M103.226,433.548c-13.682,0-24.774-11.092-24.774-24.774c0-3.631,0.824-7.053,2.227-10.16
	c-8.602,3.885-14.614,12.495-14.614,22.547c0,13.682,11.092,24.774,24.774,24.774c10.052,0,18.662-6.012,22.547-14.614
	C110.279,432.724,106.856,433.548,103.226,433.548z"/>
<g>
	<path style="fill:#DBD9DC;" d="M322.025,153.165c-7.861,2.442-16.106,3.738-24.489,3.738h-83.072
		c-8.384,0-16.628-1.296-24.489-3.738c0.213,11.217,9.337,20.255,20.606,20.255h90.839
		C312.688,173.419,321.812,164.382,322.025,153.165z"/>
	<path style="fill:#DBD9DC;" d="M301.419,338.581H210.58c-11.269,0-20.393,9.037-20.606,20.255
		c7.861-2.442,16.106-3.738,24.489-3.738h83.072c8.384,0,16.628,1.296,24.489,3.738
		C321.812,347.617,312.688,338.581,301.419,338.581z"/>
	<path style="fill:#DBD9DC;" d="M358.835,322.025c-2.442-7.861-3.738-16.106-3.738-24.489v-83.072
		c0-8.384,1.296-16.628,3.738-24.489c-11.217,0.213-20.255,9.337-20.255,20.606v90.839
		C338.581,312.688,347.618,321.812,358.835,322.025z"/>
	<path style="fill:#DBD9DC;" d="M173.419,301.419V210.58c0-11.269-9.037-20.393-20.255-20.606
		c2.442,7.861,3.738,16.106,3.738,24.489v83.072c0,8.384-1.296,16.628-3.738,24.489
		C164.383,321.812,173.419,312.688,173.419,301.419z"/>
</g>
<path style="fill:#00C8B4;" d="M266.984,308.676c-1.96,0-3.919-0.69-5.492-2.093c-3.145-2.794-7.855-2.79-10.984-0.004
	c-3.403,3.024-8.621,2.734-11.661-0.673c-3.032-3.403-2.726-8.625,0.677-11.657c9.387-8.371,23.565-8.367,32.952,0.004
	c3.411,3.036,3.71,8.258,0.669,11.661C271.516,307.745,269.25,308.676,266.984,308.676z"/>
<path style="fill:#99E9DF;" d="M310.661,238.337c-1.565,0-3.153-0.444-4.556-1.375c-30.379-20.141-69.669-20.173-100.081-0.089
	c-3.798,2.512-8.927,1.468-11.444-2.343c-2.508-3.806-1.46-8.927,2.347-11.44c35.968-23.742,82.403-23.694,118.306,0.105
	c3.798,2.52,4.839,7.645,2.323,11.444C315.96,237.039,313.339,238.337,310.661,238.337z"/>
<path style="fill:#4BD7C8;" d="M223.129,273.454c-2.621,0-5.194-1.242-6.798-3.556c-2.597-3.746-1.661-8.891,2.089-11.488
	c22.452-15.552,52.637-15.573,75.089-0.052c3.75,2.593,4.694,7.738,2.097,11.488c-2.589,3.75-7.734,4.677-11.484,2.101
	c-16.839-11.637-39.46-11.625-56.298,0.036C226.387,272.978,224.75,273.454,223.129,273.454z"/>
<g>
</g>
<g>
</g>
<g>
</g>
<g>
</g>
<g>
</g>
<g>
</g>
<g>
</g>
<g>
</g>
<g>
</g>
<g>
</g>
<g>
</g>
<g>
</g>
<g>
</g>
<g>
</g>
<g>
</g>
</svg>
