<?xml version="1.0" encoding="iso-8859-1"?>
<!-- Generator: Adobe Illustrator 19.0.0, SVG Export Plug-In . SVG Version: 6.00 Build 0)  -->
<svg version="1.1" id="Capa_1" xmlns="http://www.w3.org/2000/svg" xmlns:xlink="http://www.w3.org/1999/xlink" x="0px" y="0px"
	 viewBox="0 0 512 512" style="enable-background:new 0 0 512 512;" xml:space="preserve">
<path style="fill:#E5F9FF;" d="M396.387,375.742L396.387,375.742c-22.804,0-41.29-18.486-41.29-41.29v-74.323h82.581v74.323
	C437.677,357.256,419.191,375.742,396.387,375.742z"/>
<path style="fill:#FFFFFF;" d="M396.387,317.935L396.387,317.935c-13.682,0-24.774-11.092-24.774-24.774v-33.032h49.548v33.032
	C421.161,306.844,410.07,317.935,396.387,317.935z"/>
<path style="fill:#E5F9FF;" d="M90.839,301.419L90.839,301.419c-22.804,0-41.29-18.486-41.29-41.29v-57.807h82.581v57.806
	C132.129,282.933,113.643,301.419,90.839,301.419z"/>
<path style="fill:#FFFFFF;" d="M90.839,260.129L90.839,260.129c-13.682,0-24.774-11.092-24.774-24.774v-33.032h49.548v33.032
	C115.613,249.037,104.521,260.129,90.839,260.129z"/>
<path style="fill:#EDEBED;" d="M495.484,202.323h-4.58L386.24,134.998c-14.922-9.948-32.455-15.256-50.388-15.256H210.315
	c-13.572,0-27.13,0.881-40.588,2.636L14.38,142.64C6.154,143.713,0,150.722,0,159.018v16.279c0,11.099,7.382,20.844,18.067,23.849
	L226.972,257.9c24.74,6.958,50.319,10.487,76.018,10.487h175.977c18.243,0,33.032-14.789,33.032-33.032v-16.516
	C512,209.717,504.605,202.323,495.484,202.323z"/>
<path style="fill:#DBD9DC;" d="M413.874,152.774H1.255C0.461,154.711,0,156.811,0,159.018v16.279
	c0,11.099,7.382,20.844,18.067,23.849l11.296,3.177h461.541L413.874,152.774z"/>
<path style="fill:#59D8FF;" d="M413.874,152.774H222.045c-6.7,0-9.145,8.824-3.399,12.271l44.476,26.686
	c11.551,6.93,24.768,10.591,38.238,10.591h189.543L413.874,152.774z"/>
<g>
	<path style="fill:#CCF3FF;" d="M355.097,350.968c-4.565,0-8.258-3.694-8.258-8.258v-41.29c0-4.565,3.694-8.258,8.258-8.258
		s8.258,3.694,8.258,8.258v41.29C363.355,347.274,359.661,350.968,355.097,350.968z"/>
	<path style="fill:#CCF3FF;" d="M437.677,350.968c-4.565,0-8.258-3.694-8.258-8.258v-41.29c0-4.565,3.694-8.258,8.258-8.258
		s8.258,3.694,8.258,8.258v41.29C445.935,347.274,442.242,350.968,437.677,350.968z"/>
</g>
<path style="fill:#99E7FF;" d="M396.387,392.258c-4.565,0-8.258-3.694-8.258-8.258v-82.581c0-4.565,3.694-8.258,8.258-8.258
	s8.258,3.694,8.258,8.258V384C404.645,388.565,400.952,392.258,396.387,392.258z"/>
<g>
	<path style="fill:#CCF3FF;" d="M49.548,268.387c-4.565,0-8.258-3.694-8.258-8.258v-16.516c0-4.565,3.694-8.258,8.258-8.258
		s8.258,3.694,8.258,8.258v16.516C57.806,264.694,54.113,268.387,49.548,268.387z"/>
	<path style="fill:#CCF3FF;" d="M132.129,289.806c-4.565,0-8.258-3.694-8.258-8.258v-16.516c0-4.565,3.694-8.258,8.258-8.258
		c4.564,0,8.258,3.694,8.258,8.258v16.516C140.387,286.113,136.694,289.806,132.129,289.806z"/>
</g>
<path style="fill:#99E7FF;" d="M90.839,309.677c-4.565,0-8.258-3.694-8.258-8.258v-47.484c0-4.565,3.694-8.258,8.258-8.258
	c4.565,0,8.258,3.694,8.258,8.258v47.484C99.097,305.984,95.403,309.677,90.839,309.677z"/>
<path style="fill:#00C3FF;" d="M329.186,191.731l-64.928-38.957h-42.213c-6.7,0-9.145,8.824-3.399,12.271l44.476,26.685
	c11.551,6.93,24.768,10.592,38.238,10.592h66.065c-1.36,0-2.717-0.037-4.071-0.112C351.303,201.55,339.571,197.962,329.186,191.731z
	"/>
<path style="fill:#99E7FF;" d="M493.602,237.966c1.124,3.372,4.28,5.647,7.834,5.647h9.396c0.688-2.654,1.168-5.389,1.168-8.258
	v-16.516h-13.317c-5.637,0-9.617,5.522-7.834,10.869L493.602,237.966z"/>
<path style="fill:#DBD9DC;" d="M510.832,243.613H176.173l50.799,14.287c24.74,6.958,50.319,10.487,76.018,10.487h175.977
	C494.342,268.387,507.148,257.835,510.832,243.613z"/>
<g>
</g>
<g>
</g>
<g>
</g>
<g>
</g>
<g>
</g>
<g>
</g>
<g>
</g>
<g>
</g>
<g>
</g>
<g>
</g>
<g>
</g>
<g>
</g>
<g>
</g>
<g>
</g>
<g>
</g>
</svg>
