<?xml version="1.0" encoding="iso-8859-1"?>
<!-- Generator: Adobe Illustrator 19.0.0, SVG Export Plug-In . SVG Version: 6.00 Build 0)  -->
<svg version="1.1" id="Capa_1" xmlns="http://www.w3.org/2000/svg" xmlns:xlink="http://www.w3.org/1999/xlink" x="0px" y="0px"
	 viewBox="0 0 512 512" style="enable-background:new 0 0 512 512;" xml:space="preserve">
<g>
	<path style="fill:#CCF3FF;" d="M132.129,419.425H57.806c-9.122,0-16.516-7.395-16.516-16.516v-8.258h107.355v8.258
		C148.645,412.031,141.251,419.425,132.129,419.425z"/>
	<path style="fill:#CCF3FF;" d="M462.452,419.425h-74.323c-9.122,0-16.516-7.395-16.516-16.516v-8.258h107.355v8.258
		C478.968,412.031,471.573,419.425,462.452,419.425z"/>
</g>
<path style="fill:#DBD9DC;" d="M300.388,233c-12.834-7.701-27.52-11.768-42.487-11.768H134.882c-7.147,0-14.101,2.318-19.819,6.606
	l-24.224,18.168v24.774h272.516L300.388,233z"/>
<path style="fill:#59D8FF;" d="M137.303,280.398l212.998,6.265l-1.31-5.239l-57.099-34.26c-10.268-6.161-22.017-9.415-33.991-9.415
	h-80.352c-5.199,0-10.094,2.448-13.213,6.606L137.303,280.398z"/>
<path style="fill:#99E7FF;" d="M312.496,281.423l1.04,4.158l36.765,1.081l-1.31-5.239l-57.099-34.26
	c-10.268-6.161-22.017-9.415-33.991-9.415h-36.494c11.974,0,23.723,3.254,33.991,9.415L312.496,281.423z"/>
<path style="fill:#EDEBED;" d="M499.127,294.699c-18.471-10.037-60.202-24.773-146.021-24.773H232.657
	c-17.424,0-34.803-1.779-51.867-5.309l-89.951-18.61l-79.967,29.079C4.345,277.458,0,283.661,0,290.606v46.238
	c0,13.682,11.092,24.774,24.774,24.774h470.71c9.121,0,16.516-7.395,16.516-16.516v-28.658
	C512,307.373,507.097,299.03,499.127,294.699z"/>
<path style="fill:#DBD9DC;" d="M499.091,319.454C480.603,309.418,438.87,294.7,353.106,294.7H0v42.145
	c0,13.682,11.092,24.774,24.774,24.774h470.71c9.121,0,16.516-7.395,16.516-16.516v-3.884
	C512,332.133,507.076,323.788,499.091,319.454z"/>
<path style="fill:#AEA8AF;" d="M136.694,337.716c-2.798-5.595-8.517-9.13-14.773-9.13H68.014c-6.256,0-11.975,3.534-14.773,9.13
	L41.29,361.619h107.355L136.694,337.716z"/>
<g>
	<path style="fill:#99E7FF;" d="M156.903,402.909H33.032c-4.565,0-8.258-3.694-8.258-8.258s3.694-8.258,8.258-8.258h123.871
		c4.565,0,8.258,3.694,8.258,8.258S161.468,402.909,156.903,402.909z"/>
	<path style="fill:#99E7FF;" d="M487.226,402.909H363.355c-4.565,0-8.258-3.694-8.258-8.258s3.694-8.258,8.258-8.258h123.871
		c4.565,0,8.258,3.694,8.258,8.258S491.79,402.909,487.226,402.909z"/>
</g>
<path style="fill:#4BD7C8;" d="M234.645,196.458c-2.113,0-4.226-0.806-5.839-2.419c-3.226-3.226-8.452-3.226-11.677,0
	c-3.226,3.226-8.452,3.226-11.677,0c-3.226-3.226-3.226-8.452,0-11.677c9.661-9.661,25.371-9.661,35.032,0
	c3.226,3.226,3.226,8.452,0,11.677C238.871,195.651,236.758,196.458,234.645,196.458z"/>
<path style="fill:#CCF4EF;" d="M293.04,138.063c-2.113,0-4.226-0.806-5.839-2.419c-35.419-35.419-93.048-35.419-128.468,0
	c-3.226,3.226-8.452,3.226-11.677,0c-3.226-3.226-3.226-8.452,0-11.677c41.855-41.855,109.968-41.855,151.823,0
	c3.226,3.226,3.226,8.452,0,11.677C297.266,137.256,295.153,138.063,293.04,138.063z"/>
<path style="fill:#99E9DF;" d="M263.847,167.264c-2.113,0-4.226-0.806-5.839-2.419c-19.323-19.323-50.758-19.323-70.081,0
	c-3.226,3.226-8.452,3.226-11.677,0c-3.226-3.226-3.226-8.452,0-11.677c25.758-25.758,67.677-25.758,93.435,0
	c3.226,3.226,3.226,8.452,0,11.677C268.073,166.458,265.96,167.264,263.847,167.264z"/>
<path style="fill:#9C969E;" d="M92.788,328.587H68.014c-6.256,0-11.975,3.534-14.773,9.13L41.29,361.619h24.774l11.951-23.903
	C80.814,332.121,86.532,328.587,92.788,328.587z"/>
<path style="fill:#AEA8AF;" d="M467.017,337.716c-2.798-5.595-8.517-9.13-14.773-9.13h-53.907c-6.256,0-11.975,3.534-14.773,9.13
	l-11.951,23.903h107.355L467.017,337.716z"/>
<path style="fill:#9C969E;" d="M423.111,328.587h-24.774c-6.256,0-11.975,3.534-14.773,9.13l-11.951,23.903h24.774l11.951-23.903
	C411.136,332.121,416.855,328.587,423.111,328.587z"/>
<path style="fill:#EDEBED;" d="M340.887,345.103H179.371c-3.555,0-6.71-2.275-7.834-5.647l-4.202-12.606
	c-1.069-3.208,1.319-6.522,4.701-6.522h176.187c3.382,0,5.77,3.313,4.701,6.522l-4.202,12.606
	C347.597,342.828,344.441,345.103,340.887,345.103z"/>
<g>
</g>
<g>
</g>
<g>
</g>
<g>
</g>
<g>
</g>
<g>
</g>
<g>
</g>
<g>
</g>
<g>
</g>
<g>
</g>
<g>
</g>
<g>
</g>
<g>
</g>
<g>
</g>
<g>
</g>
</svg>
