<?xml version="1.0" encoding="iso-8859-1"?>
<!-- Generator: Adobe Illustrator 19.0.0, SVG Export Plug-In . SVG Version: 6.00 Build 0)  -->
<svg version="1.1" id="Capa_1" xmlns="http://www.w3.org/2000/svg" xmlns:xlink="http://www.w3.org/1999/xlink" x="0px" y="0px"
	 viewBox="0 0 512 512" style="enable-background:new 0 0 512 512;" xml:space="preserve">
<g>
	<path style="fill:#B7B2B8;" d="M282.063,279.375c-3.422,0-6.586-2.211-7.648-5.648C271.891,265.516,264.492,260,256,260
		s-15.891,5.516-18.414,13.727c-1.297,4.219-5.75,6.617-10,5.297c-4.227-1.305-6.594-5.781-5.297-10
		C226.898,254.055,240.445,244,256,244s29.102,10.055,33.711,25.023c1.297,4.219-1.07,8.695-5.297,10
		C283.633,279.266,282.836,279.375,282.063,279.375z"/>
	<path style="fill:#B7B2B8;" d="M472,252h-12.25c-4.422,0-8-3.578-8-8s3.578-8,8-8H472c13.234,0,24-10.766,24-24s-10.766-24-24-24
		h-16c-4.422,0-8-3.578-8-8s3.578-8,8-8h16c22.055,0,40,17.945,40,40S494.055,252,472,252z"/>
	<path style="fill:#B7B2B8;" d="M52.25,252H40c-22.055,0-40-17.945-40-40s17.945-40,40-40h16c4.422,0,8,3.578,8,8s-3.578,8-8,8H40
		c-13.234,0-24,10.766-24,24s10.766,24,24,24h12.25c4.422,0,8,3.578,8,8S56.672,252,52.25,252z"/>
</g>
<path style="fill:#DBD9DC;" d="M413.68,340h-79.492c-26.234,0-48.672-17.852-54.57-43.406l-8.633-37.398
	c-2.203-9.555,0.039-19.438,6.141-27.117c6.109-7.672,15.234-12.078,25.047-12.078h133.852c9.352,0,18.203,4.07,24.289,11.164
	s8.766,16.461,7.344,25.703l-6.531,42.438C457.5,322.883,437.547,340,413.68,340z"/>
<path style="fill:#99E7FF;" d="M302.172,236c-4.906,0-9.469,2.203-12.523,6.039s-4.172,8.781-3.07,13.563L295.211,293
	c4.211,18.25,20.234,31,38.977,31h79.492c15.914,0,29.211-11.406,31.633-27.133l6.531-42.438c0.711-4.617-0.633-9.297-3.672-12.844
	c-3.047-3.555-7.477-5.586-12.148-5.586L302.172,236L302.172,236z"/>
<path style="fill:#DBD9DC;" d="M177.813,340H98.32c-23.867,0-43.82-17.117-47.445-40.695l-6.531-42.438
	c-1.422-9.242,1.258-18.609,7.344-25.703S66.625,220,75.977,220h133.852c9.813,0,18.938,4.406,25.047,12.078
	c6.102,7.68,8.344,17.563,6.141,27.117l-8.633,37.398C226.484,322.148,204.047,340,177.813,340z"/>
<path style="fill:#99E7FF;" d="M75.977,236c-4.672,0-9.102,2.031-12.148,5.586c-3.039,3.547-4.383,8.227-3.672,12.844l6.531,42.438
	C69.109,312.594,82.406,324,98.32,324h79.492c18.742,0,34.766-12.75,38.977-31l8.633-37.398c1.102-4.781-0.016-9.727-3.07-13.563
	S214.734,236,209.828,236H75.977z"/>
<path style="fill:#CCF3FF;" d="M209.828,252l0.004,0.003l-8.633,37.4C198.672,300.353,189.055,308,177.813,308H98.32
	c-7.956,0-14.608-5.706-15.819-13.566L75.977,252H209.828"/>
<path style="fill:#4BD7C8;" d="M144,228H72v40h72c4.418,0,8-3.582,8-8v-24C152,231.582,148.418,228,144,228z"/>
<path style="fill:#00C8B4;" d="M72,268h30.864c0.668-2.572,1.136-5.222,1.136-8v-16c0-5.854-1.695-11.274-4.451-16H72V268z"/>
<path style="fill:#464646;" d="M56.078,260c-4.418,0-8.039-3.582-8.039-8s3.543-8,7.961-8h0.078c4.418,0,8,3.582,8,8
	S60.496,260,56.078,260z"/>
<path style="fill:#CCF3FF;" d="M436.03,251.996l-6.531,42.436C428.288,302.294,421.635,308,413.68,308h-79.492
	c-11.243,0-20.86-7.647-23.387-18.599L302.172,252h133.852L436.03,251.996"/>
<path style="fill:#EDEBED;" d="M40,276h32c8.837,0,16-7.163,16-16v-16c0-8.837-7.163-16-16-16H40c-8.837,0-16,7.163-16,16v16
	C24,268.837,31.163,276,40,276z"/>
<circle style="fill:#5D5360;" cx="56" cy="252" r="8"/>
<g>
</g>
<g>
</g>
<g>
</g>
<g>
</g>
<g>
</g>
<g>
</g>
<g>
</g>
<g>
</g>
<g>
</g>
<g>
</g>
<g>
</g>
<g>
</g>
<g>
</g>
<g>
</g>
<g>
</g>
</svg>
