<?xml version="1.0" encoding="iso-8859-1"?>
<!-- Generator: Adobe Illustrator 19.0.0, SVG Export Plug-In . SVG Version: 6.00 Build 0)  -->
<svg version="1.1" id="Capa_1" xmlns="http://www.w3.org/2000/svg" xmlns:xlink="http://www.w3.org/1999/xlink" x="0px" y="0px"
	 viewBox="0 0 512 512" style="enable-background:new 0 0 512 512;" xml:space="preserve">
<g>
	<path style="fill:#9C969E;" d="M57.806,189.936H8.258c-4.561,0-8.258,3.697-8.258,8.258v18.004c0,3.936,2.779,7.326,6.639,8.098
		l34.652,6.93L57.806,189.936z"/>
	<path style="fill:#9C969E;" d="M454.194,189.936h49.548c4.561,0,8.258,3.697,8.258,8.258v18.004c0,3.936-2.779,7.326-6.639,8.098
		l-34.652,6.93L454.194,189.936z"/>
</g>
<g>
	<path style="fill:#867E88;" d="M41.29,231.227l16.516-41.29H29.369c-2.845,4.878-4.595,10.473-4.595,16.516v21.471L41.29,231.227z"
		/>
	<path style="fill:#867E88;" d="M487.226,206.453c0-6.043-1.749-11.638-4.595-16.516h-28.438l16.516,41.29l16.516-3.303v-21.471
		H487.226z"/>
</g>
<path style="fill:#EDEBED;" d="M57.806,189.936c-9.122,0-16.516,7.395-16.516,16.516v69.247c0,25.607,96.129,46.366,214.71,46.366
	s214.71-20.759,214.71-46.366v-69.247c0-9.122-7.395-16.516-16.516-16.516L57.806,189.936L57.806,189.936z"/>
<path style="fill:#59D8FF;" d="M74.323,231.227v28.412c0,3.4,2.004,6.445,5.169,7.685c24.329,9.528,85.384,21.71,176.508,21.71
	s152.179-12.182,176.508-21.71c3.166-1.24,5.169-4.285,5.169-7.685v-28.412c0-4.561-3.697-8.258-8.258-8.258H82.581
	C78.02,222.969,74.323,226.665,74.323,231.227z"/>
<g>
	<path style="fill:#99E7FF;" d="M396.387,256.001c0-12.291-3.864-23.665-10.405-33.032H291.18
		c-6.541,9.367-10.405,20.741-10.405,33.032c0,12.011,3.667,23.164,9.938,32.408c41.994-1.507,76.037-5.619,101.324-10.43
		C394.826,271.2,396.387,263.786,396.387,256.001z"/>
	<path style="fill:#99E7FF;" d="M115.613,256.001c0,7.785,1.561,15.199,4.351,21.977c25.287,4.811,59.329,8.923,101.324,10.43
		c6.271-9.244,9.938-20.397,9.938-32.408c0-12.291-3.864-23.665-10.405-33.032h-94.802
		C119.477,232.336,115.613,243.71,115.613,256.001z"/>
</g>
<g>
	<path style="fill:#CCF3FF;" d="M140.387,256.001c0,11.383,5.761,21.417,14.523,27.357c9.682,1.181,20.197,2.21,31.375,3.075
		c11.851-5.017,20.166-16.753,20.166-30.432c0-18.243-14.789-33.032-33.032-33.032S140.387,237.758,140.387,256.001z"/>
	<path style="fill:#CCF3FF;" d="M305.548,256.001c0,13.679,8.315,25.415,20.166,30.432c11.178-0.864,21.693-1.893,31.375-3.075
		c8.762-5.94,14.523-15.974,14.523-27.357c0-18.243-14.789-33.032-33.032-33.032C320.337,222.969,305.548,237.758,305.548,256.001z"
		/>
</g>
<g>
</g>
<g>
</g>
<g>
</g>
<g>
</g>
<g>
</g>
<g>
</g>
<g>
</g>
<g>
</g>
<g>
</g>
<g>
</g>
<g>
</g>
<g>
</g>
<g>
</g>
<g>
</g>
<g>
</g>
</svg>
