<?xml version="1.0" encoding="iso-8859-1"?>
<!-- Generator: Adobe Illustrator 19.0.0, SVG Export Plug-In . SVG Version: 6.00 Build 0)  -->
<svg version="1.1" id="Capa_1" xmlns="http://www.w3.org/2000/svg" xmlns:xlink="http://www.w3.org/1999/xlink" x="0px" y="0px"
	 viewBox="0 0 512 512" style="enable-background:new 0 0 512 512;" xml:space="preserve">
<path style="fill:#5D5360;" d="M285.339,99.968c-2.798-5.595-8.517-9.13-14.773-9.13h-29.133c-6.256,0-11.975,3.534-14.773,9.13
	l-11.951,23.903h82.581L285.339,99.968z"/>
<path style="fill:#6F6571;" d="M470.71,189.935h-16.516v-16.516c0-22.766-18.524-41.29-41.29-41.29h-297.29
	c-22.766,0-41.29,18.524-41.29,41.29v16.516H57.806v-16.516c0-31.871,25.935-57.806,57.806-57.806h297.29
	c31.871,0,57.806,25.935,57.806,57.806v16.516H470.71z"/>
<path style="fill:#AEA8AF;" d="M503.742,330.323H8.258c-4.561,0-8.258-3.697-8.258-8.258v-49.548c0-4.561,3.697-8.258,8.258-8.258
	h495.484c4.561,0,8.258,3.697,8.258,8.258v49.548C512,326.625,508.303,330.323,503.742,330.323z"/>
<rect x="16.516" y="264.26" style="fill:#9C969E;" width="478.97" height="66.06"/>
<path style="fill:#99E9DF;" d="M445.935,421.161H66.065c-18.243,0-33.032-14.789-33.032-33.032V206.452
	c0-18.243,14.789-33.032,33.032-33.032h379.871c18.243,0,33.032,14.789,33.032,33.032v181.677
	C478.968,406.372,464.179,421.161,445.935,421.161z"/>
<g>
	<path style="fill:#4BD7C8;" d="M437.677,388.129H74.323c-4.561,0-8.258-3.697-8.258-8.258V214.71c0-4.561,3.697-8.258,8.258-8.258
		h363.355c4.561,0,8.258,3.697,8.258,8.258v165.161C445.935,384.432,442.238,388.129,437.677,388.129z"/>
	<path style="fill:#4BD7C8;" d="M170.674,173.419l5.099,8.497l17.557,29.262c7.419,12.365,20.986,20.047,35.406,20.047h54.527
		c14.42,0,27.987-7.681,35.406-20.047l17.557-29.262l5.099-8.497H170.674z"/>
</g>
<path style="fill:#00C8B4;" d="M190.494,206.452l2.836,4.727c7.419,12.365,20.986,20.047,35.406,20.047h54.527
	c14.42,0,27.987-7.681,35.406-20.047l2.836-4.727H190.494z"/>
<path style="fill:#EDEBED;" d="M189.935,173.419l17.557,29.262c4.477,7.462,12.541,12.028,21.243,12.028h54.527
	c8.702,0,16.766-4.566,21.243-12.028l17.557-29.262H189.935z"/>
<g>
</g>
<g>
</g>
<g>
</g>
<g>
</g>
<g>
</g>
<g>
</g>
<g>
</g>
<g>
</g>
<g>
</g>
<g>
</g>
<g>
</g>
<g>
</g>
<g>
</g>
<g>
</g>
<g>
</g>
</svg>
