<?xml version="1.0" encoding="iso-8859-1"?>
<!-- Generator: Adobe Illustrator 19.0.0, SVG Export Plug-In . SVG Version: 6.00 Build 0)  -->
<svg version="1.1" id="Capa_1" xmlns="http://www.w3.org/2000/svg" xmlns:xlink="http://www.w3.org/1999/xlink" x="0px" y="0px"
	 viewBox="0 0 512 512" style="enable-background:new 0 0 512 512;" xml:space="preserve">
<path style="fill:#4BD7C8;" d="M280.418,102.234c-2.079,0-4.159-0.794-5.746-2.381c-3.175-3.167-8.317-3.167-11.492,0
	c-3.175,3.175-8.317,3.175-11.492,0s-3.175-8.317,0-11.492c9.508-9.508,24.968-9.508,34.476,0c3.175,3.175,3.175,8.317,0,11.492
	C284.577,101.44,282.497,102.234,280.418,102.234z"/>
<path style="fill:#CCF4EF;" d="M337.886,44.765c-2.079,0-4.159-0.794-5.746-2.381c-34.857-34.849-91.571-34.849-126.429,0
	c-3.175,3.175-8.317,3.175-11.492,0s-3.175-8.317,0-11.492c41.19-41.19,108.222-41.19,149.413,0c3.175,3.175,3.175,8.317,0,11.492
	C342.045,43.972,339.965,44.765,337.886,44.765z"/>
<path style="fill:#99E9DF;" d="M309.156,73.5c-2.079,0-4.159-0.794-5.746-2.381c-19.016-19.008-49.952-19.008-68.968,0
	c-3.175,3.175-8.317,3.175-11.492,0s-3.175-8.321,0-11.492c25.349-25.349,66.603-25.349,91.952,0c3.175,3.171,3.175,8.317,0,11.492
	C313.315,72.706,311.235,73.5,309.156,73.5z"/>
<path style="fill:#99E7FF;" d="M366.448,162.539l16.256,162.54l39.005-156.021c0.828-3.311-1.677-6.519-5.09-6.519H366.448z"/>
<path style="fill:#AEA8AF;" d="M114.513,162.539c-13.465,0-24.381,10.916-24.381,24.381v162.54c0,8.977,7.277,16.254,16.254,16.254
	s16.254-7.277,16.254-16.254V227.555c0-4.489,3.638-8.127,8.127-8.127h32.508v-56.889H114.513z"/>
<path style="fill:#EDEBED;" d="M350.196,130.031h-162.54c-17.954,0-32.508,14.554-32.508,32.508v276.317h227.556V162.539
	C382.703,144.585,368.15,130.031,350.196,130.031z"/>
<path style="fill:#DBD9DC;" d="M252.672,130.031h-65.016c-17.954,0-32.508,14.554-32.508,32.508v276.317h65.016V162.539
	C220.164,144.585,234.718,130.031,252.672,130.031z"/>
<rect x="155.15" y="162.539" style="fill:#CCF3FF;" width="227.56" height="276.32"/>
<rect x="155.15" y="162.539" style="fill:#99E7FF;" width="65.02" height="276.32"/>
<path style="fill:#EDEBED;" d="M382.703,512H155.148c-4.488,0-8.127-3.639-8.127-8.127v-65.016c0-4.488,3.639-8.127,8.127-8.127
	h227.556c4.488,0,8.127,3.639,8.127,8.127v65.016C390.83,508.361,387.192,512,382.703,512z"/>
<path style="fill:#DBD9DC;" d="M212.037,503.872v-65.016c0-4.489,3.638-8.127,8.127-8.127h-65.016c-4.489,0-8.127,3.638-8.127,8.127
	v65.016c0,4.488,3.638,8.127,8.127,8.127h65.016C215.675,512,212.037,508.361,212.037,503.872z"/>
<g>
	<path style="fill:#C9C6CA;" d="M293.307,471.365H179.529c-4.492,0-8.127-3.635-8.127-8.127s3.635-8.127,8.127-8.127h113.778
		c4.492,0,8.127,3.635,8.127,8.127S297.799,471.365,293.307,471.365z"/>
	<path style="fill:#C9C6CA;" d="M358.402,471.365c-4.492,0-8.167-3.635-8.167-8.127s3.595-8.127,8.087-8.127h0.079
		c4.492,0,8.127,3.635,8.127,8.127S362.894,471.365,358.402,471.365z"/>
</g>
<g>
	<path style="fill:#99E7FF;" d="M325.815,471.365c-4.492,0-8.167-3.635-8.167-8.127s3.595-8.127,8.087-8.127h0.079
		c4.492,0,8.127,3.635,8.127,8.127S330.307,471.365,325.815,471.365z"/>
	<path style="fill:#99E7FF;" d="M366.45,235.682c-16.268,0-16.268,8.127-32.537,8.127s-16.268-8.127-32.537-8.127
		c-16.257,0-16.257,8.127-32.515,8.127c-16.243,0-16.243-8.127-32.486-8.127c-16.241,0-16.241,8.127-32.482,8.127
		c-16.246,0-16.246-8.127-32.491-8.127v178.794H366.45V235.682z"/>
</g>
<path style="fill:#9C969E;" d="M106.386,349.46v-162.54c0-13.465,10.916-24.381,24.381-24.381h-16.254
	c-13.465,0-24.381,10.916-24.381,24.381v162.54c0,8.977,7.277,16.254,16.254,16.254c2.976,0,5.728-0.858,8.127-2.254
	C109.675,360.644,106.386,355.461,106.386,349.46z"/>
<path style="fill:#59D8FF;" d="M220.164,239.731c-4.07,2.037-8.131,4.078-16.271,4.078c-16.246,0-16.246-8.127-32.491-8.127v178.794
	h48.762V239.731z"/>
<g>
</g>
<g>
</g>
<g>
</g>
<g>
</g>
<g>
</g>
<g>
</g>
<g>
</g>
<g>
</g>
<g>
</g>
<g>
</g>
<g>
</g>
<g>
</g>
<g>
</g>
<g>
</g>
<g>
</g>
</svg>
