<?xml version="1.0" encoding="iso-8859-1"?>
<!-- Generator: Adobe Illustrator 19.0.0, SVG Export Plug-In . SVG Version: 6.00 Build 0)  -->
<svg version="1.1" id="Capa_1" xmlns="http://www.w3.org/2000/svg" xmlns:xlink="http://www.w3.org/1999/xlink" x="0px" y="0px"
	 viewBox="0 0 512 512" style="enable-background:new 0 0 512 512;" xml:space="preserve">
<path style="fill:#9C969E;" d="M239.746,512H174.73c-4.492,0-8.127-3.639-8.127-8.127v-8.127c0-17.925,14.579-32.508,32.508-32.508
	h16.254c4.492,0,8.127,3.639,8.127,8.127s-3.635,8.127-8.127,8.127h-16.254c-8.96,0-16.254,7.29-16.254,16.254h56.889
	c4.492,0,8.127,3.639,8.127,8.127S244.238,512,239.746,512z"/>
<path style="fill:#867E88;" d="M178.805,470.565c2.634,4.834,6.369,8.946,10.991,11.9c2.643-1.86,5.846-2.973,9.315-2.973h16.254
	c4.492,0,8.127-3.639,8.127-8.127s-3.635-8.127-8.127-8.127h-16.254C191.391,463.238,184.387,466.055,178.805,470.565z"/>
<rect x="207.24" y="349.46" style="fill:#9C969E;" width="16.254" height="48.762"/>
<rect x="207.24" y="349.46" style="fill:#867E88;" width="16.254" height="24.381"/>
<rect x="215.37" y="219.43" style="fill:#9C969E;" width="81.27" height="56.889"/>
<rect x="215.37" y="219.43" style="fill:#867E88;" width="81.27" height="24.381"/>
<path style="fill:#9C969E;" d="M352.945,102.631l32.508,81.27c0.381,0.96,0.579,1.984,0.579,3.02v97.524h-16.254v-95.96
	l-31.929-79.813L352.945,102.631z"/>
<polygon style="fill:#867E88;" points="337.849,108.671 352.945,102.631 365.185,133.231 352.678,145.738 "/>
<g>
	<path style="fill:#EDEBED;" d="M377.901,251.932L377.901,251.932c-8.977,0-16.254-7.277-16.254-16.254v-48.762
		c0-8.977,7.277-16.254,16.254-16.254l0,0c8.977,0,16.254,7.277,16.254,16.254v48.762
		C394.155,244.655,386.878,251.932,377.901,251.932z"/>
	<path style="fill:#EDEBED;" d="M377.905,308.821L377.905,308.821c-8.977,0-16.254-7.277-16.254-16.254l0,0
		c0-8.977,7.277-16.254,16.254-16.254l0,0c8.977,0,16.254,7.277,16.254,16.254l0,0C394.159,301.544,386.881,308.821,377.905,308.821
		z"/>
</g>
<g>
	<path style="fill:#DBD9DC;" d="M377.901,235.678v-48.762c0-6.001,3.289-11.184,8.127-14c-2.399-1.396-5.151-2.254-8.127-2.254
		c-8.977,0-16.254,7.277-16.254,16.254v48.762c0,8.977,7.277,16.254,16.254,16.254c2.976,0,5.728-0.858,8.127-2.254
		C381.19,246.862,377.901,241.679,377.901,235.678z"/>
	<path style="fill:#DBD9DC;" d="M390.095,296.63c-8.977,0-16.254-7.277-16.254-16.254c0-1.25,0.171-2.455,0.438-3.625
		c-7.226,1.652-12.629,8.089-12.629,15.815c0,8.977,7.277,16.254,16.254,16.254c7.726,0,14.164-5.403,15.815-12.629
		C392.55,296.459,391.346,296.63,390.095,296.63z"/>
</g>
<path style="fill:#9C969E;" d="M159.056,102.631l-32.508,81.27c-0.381,0.96-0.579,1.984-0.579,3.02v97.524h16.254v-95.96
	l31.929-79.813L159.056,102.631z"/>
<polygon style="fill:#867E88;" points="174.151,108.671 159.056,102.631 146.816,133.231 159.323,145.738 "/>
<path style="fill:#EDEBED;" d="M345.397,81.27H166.603c-8.977,0-16.254,7.277-16.254,16.254v6.155c0,6.466,2.569,12.668,7.141,17.24
	l18.226,18.226c4.572,4.572,10.774,7.141,17.24,7.141h126.088c6.466,0,12.668-2.569,17.24-7.141l18.226-18.226
	c4.572-4.572,7.141-10.774,7.141-17.24v-6.155C361.651,88.547,354.374,81.27,345.397,81.27z"/>
<path style="fill:#DBD9DC;" d="M360.935,93.005c-1.032,4.372-3.196,8.432-6.425,11.66l-18.226,18.226
	c-4.572,4.572-10.774,7.141-17.24,7.141H192.956c-6.466,0-12.667-2.569-17.24-7.141l-18.226-18.226
	c-3.228-3.228-5.392-7.288-6.425-11.66c-0.42,1.444-0.716,2.94-0.716,4.519v6.155c0,6.466,2.569,12.668,7.141,17.24l18.226,18.226
	c4.101,4.101,9.531,6.477,15.268,6.946v65.211c0,8.977,7.277,16.254,16.254,16.254h97.524c8.977,0,16.254-7.277,16.254-16.254
	v-65.211c5.737-0.47,11.168-2.846,15.268-6.946l18.226-18.226c4.572-4.572,7.141-10.774,7.141-17.24v-6.155
	C361.651,95.944,361.355,94.449,360.935,93.005z"/>
<g>
	<path style="fill:#EDEBED;" d="M292.428,19.599C290.149,8.203,280.143,0,268.521,0H243.48c-11.622,0-21.628,8.203-23.907,19.599
		L207.238,81.27h97.524L292.428,19.599z"/>
	<path style="fill:#EDEBED;" d="M134.095,251.937L134.095,251.937c-8.977,0-16.254-7.277-16.254-16.254v-48.762
		c0-8.977,7.277-16.254,16.254-16.254l0,0c8.977,0,16.254,7.277,16.254,16.254v48.762
		C150.349,244.659,143.072,251.937,134.095,251.937z"/>
	<path style="fill:#EDEBED;" d="M134.095,308.825L134.095,308.825c-8.977,0-16.254-7.277-16.254-16.254l0,0
		c0-8.977,7.277-16.254,16.254-16.254l0,0c8.977,0,16.254,7.277,16.254,16.254l0,0C150.349,301.548,143.072,308.825,134.095,308.825
		z"/>
</g>
<g>
	<path style="fill:#C9C6CA;" d="M288.508,195.048h-65.016c-4.492,0-8.127-3.639-8.127-8.127s3.635-8.127,8.127-8.127h65.016
		c4.492,0,8.127,3.639,8.127,8.127S293,195.048,288.508,195.048z"/>
	<rect x="190.98" y="146.29" style="fill:#C9C6CA;" width="130.03" height="16.254"/>
</g>
<g>
	<path style="fill:#DBD9DC;" d="M134.095,235.683v-48.762c0-6.001,3.289-11.184,8.127-14c-2.399-1.396-5.151-2.254-8.127-2.254
		c-8.977,0-16.254,7.277-16.254,16.254v48.762c0,8.977,7.277,16.254,16.254,16.254c2.976,0,5.728-0.858,8.127-2.254
		C137.385,246.867,134.095,241.684,134.095,235.683z"/>
	<path style="fill:#DBD9DC;" d="M146.286,296.635c-8.977,0-16.254-7.277-16.254-16.254c0-1.25,0.171-2.455,0.438-3.625
		c-7.226,1.652-12.629,8.089-12.629,15.815c0,8.977,7.277,16.254,16.254,16.254c7.726,0,14.164-5.403,15.815-12.629
		C148.741,296.464,147.536,296.635,146.286,296.635z"/>
</g>
<path style="fill:#EDEBED;" d="M223.492,357.587h-16.254c-8.977,0-16.254-7.277-16.254-16.254v-65.016
	c0-8.977,7.277-16.254,16.254-16.254h16.254c8.977,0,16.254,7.277,16.254,16.254v65.016
	C239.746,350.31,232.469,357.587,223.492,357.587z"/>
<path style="fill:#DBD9DC;" d="M207.238,341.333v-65.016c0-8.977,7.277-16.254,16.254-16.254h-16.254
	c-8.977,0-16.254,7.277-16.254,16.254v65.016c0,8.977,7.277,16.254,16.254,16.254h16.254
	C214.516,357.587,207.238,350.31,207.238,341.333z"/>
<path style="fill:#EDEBED;" d="M223.492,471.365h-16.254c-8.977,0-16.254-7.277-16.254-16.254v-48.762
	c0-8.977,7.277-16.254,16.254-16.254h16.254c8.977,0,16.254,7.277,16.254,16.254v48.762
	C239.746,464.088,232.469,471.365,223.492,471.365z"/>
<path style="fill:#DBD9DC;" d="M207.238,455.111v-48.762c0-8.977,7.277-16.254,16.254-16.254h-16.254
	c-8.977,0-16.254,7.277-16.254,16.254v48.762c0,8.977,7.277,16.254,16.254,16.254h16.254
	C214.516,471.365,207.238,464.088,207.238,455.111z"/>
<path style="fill:#9C969E;" d="M272.254,512h65.016c4.492,0,8.127-3.639,8.127-8.127v-8.127c0-17.925-14.579-32.508-32.508-32.508
	h-16.254c-4.492,0-8.127,3.639-8.127,8.127s3.635,8.127,8.127,8.127h16.254c8.96,0,16.254,7.29,16.254,16.254h-56.889
	c-4.492,0-8.127,3.639-8.127,8.127S267.762,512,272.254,512z"/>
<path style="fill:#867E88;" d="M333.195,470.565c-2.634,4.834-6.369,8.946-10.991,11.9c-2.643-1.86-5.846-2.973-9.315-2.973h-16.254
	c-4.492,0-8.127-3.639-8.127-8.127s3.635-8.127,8.127-8.127h16.254C320.609,463.238,327.614,466.055,333.195,470.565z"/>
<rect x="288.51" y="349.46" style="fill:#9C969E;" width="16.254" height="48.762"/>
<rect x="288.51" y="349.46" style="fill:#867E88;" width="16.254" height="24.381"/>
<path style="fill:#EDEBED;" d="M304.753,357.583h-16.254c-8.977,0-16.254-7.277-16.254-16.254v-65.016
	c0-8.977,7.277-16.254,16.254-16.254h16.254c8.977,0,16.254,7.277,16.254,16.254v65.016
	C321.007,350.306,313.73,357.583,304.753,357.583z"/>
<path style="fill:#DBD9DC;" d="M288.499,341.329v-65.016c0-8.977,7.277-16.254,16.254-16.254h-16.254
	c-8.977,0-16.254,7.277-16.254,16.254v65.016c0,8.977,7.277,16.254,16.254,16.254h16.254
	C295.777,357.583,288.499,350.305,288.499,341.329z"/>
<path style="fill:#EDEBED;" d="M304.753,471.36h-16.254c-8.977,0-16.254-7.277-16.254-16.254v-48.762
	c0-8.977,7.277-16.254,16.254-16.254h16.254c8.977,0,16.254,7.277,16.254,16.254v48.762
	C321.007,464.083,313.73,471.36,304.753,471.36z"/>
<g>
	<path style="fill:#DBD9DC;" d="M288.499,455.106v-48.762c0-8.977,7.277-16.254,16.254-16.254h-16.254
		c-8.977,0-16.254,7.277-16.254,16.254v48.762c0,8.977,7.277,16.254,16.254,16.254h16.254
		C295.777,471.36,288.499,464.083,288.499,455.106z"/>
	<path style="fill:#DBD9DC;" d="M301.512,65.016h-56.728c-5.129,0-8.975-4.692-7.969-9.721l7.139-35.696
		C246.232,8.203,256.239,0,267.861,0H243.48c-11.622,0-21.628,8.203-23.907,19.599L207.238,81.27h97.524L301.512,65.016z"/>
</g>
<path style="fill:#59D8FF;" d="M272.254,48.762h-32.508c-4.492,0-8.127-3.639-8.127-8.127s3.635-8.127,8.127-8.127h32.508
	c4.492,0,8.127,3.639,8.127,8.127S276.746,48.762,272.254,48.762z"/>
<g>
	<circle style="fill:#99E7FF;" cx="239.75" cy="40.635" r="8.127"/>
	<circle style="fill:#99E7FF;" cx="272.25" cy="40.635" r="8.127"/>
</g>
<g>
</g>
<g>
</g>
<g>
</g>
<g>
</g>
<g>
</g>
<g>
</g>
<g>
</g>
<g>
</g>
<g>
</g>
<g>
</g>
<g>
</g>
<g>
</g>
<g>
</g>
<g>
</g>
<g>
</g>
</svg>
