<?xml version="1.0" encoding="iso-8859-1"?>
<!-- Generator: Adobe Illustrator 19.0.0, SVG Export Plug-In . SVG Version: 6.00 Build 0)  -->
<svg version="1.1" id="Capa_1" xmlns="http://www.w3.org/2000/svg" xmlns:xlink="http://www.w3.org/1999/xlink" x="0px" y="0px"
	 viewBox="0 0 512 512" style="enable-background:new 0 0 512 512;" xml:space="preserve">
<path style="fill:#EDEBED;" d="M451.429,43.067L367.987,8.708C354.024,2.958,339.069,0,323.968,0H188.032
	c-15.101,0-30.056,2.958-44.02,8.708L60.571,43.067c-21.66,8.919-35.797,30.028-35.797,53.452v298.415
	c0,6.607,3.938,12.578,10.01,15.18l64.313,27.563v57.806c0,9.121,7.395,16.516,16.516,16.516h280.774
	c9.121,0,16.516-7.395,16.516-16.516v-57.806l64.313-27.563c6.073-2.602,10.01-8.574,10.01-15.18V96.519
	C487.226,73.094,473.089,51.985,451.429,43.067z"/>
<path style="fill:#DBD9DC;" d="M255.976,115.613c17.843-7.706,69.475-35.655,101.927-110.491C346.924,1.749,335.492,0,323.968,0
	H188.032c-11.54,0-22.987,1.756-33.979,5.137C186.475,79.871,238.024,107.857,255.976,115.613z"/>
<path style="fill:#99E9DF;" d="M367.987,8.708c-8.532-3.513-17.455-5.851-26.534-7.241c-26.808,59.668-66.455,86.138-85.477,95.88
	c-19.019-9.745-58.707-36.22-85.503-95.869c-9.053,1.393-17.952,3.727-26.46,7.23l-5.431,2.236
	c34.063,79.281,88.289,110.085,110.846,119.83c2.089,0.903,4.315,1.355,6.548,1.355c2.226,0,4.46-0.452,6.548-1.351
	c22.592-9.756,76.791-40.53,110.85-119.852L367.987,8.708z"/>
<g>
	<path style="fill:#DBD9DC;" d="M82.581,132.129v298.47l16.516,7.079V132.129c0-4.561-3.697-8.258-8.258-8.258l0,0
		C86.278,123.871,82.581,127.568,82.581,132.129z"/>
	<path style="fill:#DBD9DC;" d="M429.419,132.129v298.47l-16.516,7.079V132.129c0-4.561,3.697-8.258,8.258-8.258l0,0
		C425.722,123.871,429.419,127.568,429.419,132.129z"/>
</g>
<rect x="99.1" y="272.52" style="fill:#C9C6CA;" width="239.48" height="16.516"/>
<circle style="fill:#4BD7C8;" cx="346.84" cy="280.77" r="16.516"/>
<path style="fill:#C9C6CA;" d="M224.387,256H99.097v-16.516h125.29c2.169,0,4.298-0.879,5.839-2.419l36.452-36.452l11.677,11.677
	l-36.452,36.452C237.226,253.419,231,256,224.387,256z"/>
<circle style="fill:#99E9DF;" cx="280.77" cy="198.19" r="16.516"/>
<path style="fill:#C9C6CA;" d="M266.677,360.935l-36.452-36.452c-1.54-1.54-3.669-2.419-5.839-2.419H99.097v-16.516h125.29
	c6.613,0,12.839,2.581,17.516,7.258l36.452,36.452L266.677,360.935z"/>
<g>
	<circle style="fill:#99E9DF;" cx="280.77" cy="363.36" r="16.516"/>
	<path style="fill:#99E9DF;" d="M24.774,394.934c0,6.607,3.938,12.578,10.01,15.18l64.313,27.563v-36.645l-74.323-31.853
		C24.774,369.179,24.774,394.934,24.774,394.934z"/>
</g>
<polygon style="fill:#4BD7C8;" points="82.581,430.599 99.097,437.677 99.097,401.032 82.581,393.954 "/>
<path style="fill:#99E9DF;" d="M487.226,394.934c0,6.607-3.938,12.578-10.01,15.18l-64.313,27.563v-36.645l74.323-31.853V394.934z"
	/>
<polygon style="fill:#4BD7C8;" points="429.419,430.599 412.903,437.677 412.903,401.032 429.419,393.954 "/>
<path style="fill:#99E9DF;" d="M99.097,478.968v16.516c0,9.121,7.395,16.516,16.516,16.516h280.774
	c9.121,0,16.516-7.395,16.516-16.516v-16.516H99.097z"/>
<path style="fill:#C9C6CA;" d="M255.977,78.422C273.072,68.032,302.298,44.888,323.869,0H188.051
	C209.61,44.866,238.864,68.023,255.977,78.422z"/>
<g>
</g>
<g>
</g>
<g>
</g>
<g>
</g>
<g>
</g>
<g>
</g>
<g>
</g>
<g>
</g>
<g>
</g>
<g>
</g>
<g>
</g>
<g>
</g>
<g>
</g>
<g>
</g>
<g>
</g>
</svg>
