<?xml version="1.0" encoding="iso-8859-1"?>
<!-- Generator: Adobe Illustrator 19.0.0, SVG Export Plug-In . SVG Version: 6.00 Build 0)  -->
<svg version="1.1" id="Capa_1" xmlns="http://www.w3.org/2000/svg" xmlns:xlink="http://www.w3.org/1999/xlink" x="0px" y="0px"
	 viewBox="0 0 511.996 511.996" style="enable-background:new 0 0 511.996 511.996;" xml:space="preserve">
<path style="fill:#CCF4EF;" d="M421.16,346.839H90.838c-13.682,0-24.774-11.092-24.774-24.774v-8.258h379.871v8.258
	C445.934,335.747,434.842,346.839,421.16,346.839z"/>
<rect x="247.739" y="313.81" style="fill:#C9C6CA;" width="16.516" height="173.42"/>
<g>
	<polygon style="fill:#DBD9DC;" points="313.805,313.806 313.805,371.613 371.612,371.613 371.612,388.129 313.805,388.129 
		313.805,437.677 297.289,437.677 297.289,313.806 	"/>
	<polygon style="fill:#DBD9DC;" points="198.193,313.806 198.193,371.613 140.385,371.613 140.385,388.129 198.193,388.129 
		198.193,437.677 214.709,437.677 214.709,313.806 	"/>
</g>
<g>
	<rect x="388.129" y="231.23" style="fill:#9C969E;" width="16.516" height="82.58"/>
	<path style="fill:#9C969E;" d="M156.902,8.258v305.548h198.194V8.258c0-4.561-3.697-8.258-8.258-8.258H165.16
		C160.599,0,156.902,3.697,156.902,8.258z"/>
</g>
<circle style="fill:#99E9DF;" cx="255.999" cy="495.48" r="16.516"/>
<g>
	<circle style="fill:#4BD7C8;" cx="206.449" cy="445.94" r="16.516"/>
	<circle style="fill:#4BD7C8;" cx="305.548" cy="445.94" r="16.516"/>
</g>
<g>
	<circle style="fill:#99E9DF;" cx="379.868" cy="379.87" r="16.516"/>
	<circle style="fill:#99E9DF;" cx="132.129" cy="379.87" r="16.516"/>
</g>
<path style="fill:#99E7FF;" d="M181.676,264.258h-24.774v16.516h24.774c4.565,0,8.258-3.694,8.258-8.258
	S186.241,264.258,181.676,264.258z"/>
<path style="fill:#59D8FF;" d="M239.482,280.774h-24.774c-4.565,0-8.258-3.694-8.258-8.258c0-4.565,3.694-8.258,8.258-8.258h24.774
	c4.565,0,8.258,3.694,8.258,8.258C247.741,277.081,244.047,280.774,239.482,280.774z"/>
<g>
	<path style="fill:#99E7FF;" d="M272.514,264.258c-4.565,0-8.258,3.694-8.258,8.258c0,4.565,3.694,8.258,8.258,8.258h82.581v-16.516
		H272.514z"/>
	<path style="fill:#99E7FF;" d="M181.676,231.226h-24.774v16.516h24.774c4.565,0,8.258-3.694,8.258-8.258
		S186.241,231.226,181.676,231.226z"/>
</g>
<path style="fill:#59D8FF;" d="M239.482,247.742h-24.774c-4.565,0-8.258-3.694-8.258-8.258s3.694-8.258,8.258-8.258h24.774
	c4.565,0,8.258,3.694,8.258,8.258S244.047,247.742,239.482,247.742z"/>
<g>
	<path style="fill:#99E7FF;" d="M272.514,231.226c-4.565,0-8.258,3.694-8.258,8.258s3.694,8.258,8.258,8.258h82.581v-16.516
		L272.514,231.226L272.514,231.226z"/>
	<path style="fill:#99E7FF;" d="M330.322,198.194c-4.565,0-8.258,3.694-8.258,8.258s3.694,8.258,8.258,8.258h24.774v-16.516
		L330.322,198.194L330.322,198.194z"/>
</g>
<path style="fill:#59D8FF;" d="M297.289,214.71h-24.774c-4.565,0-8.258-3.694-8.258-8.258s3.694-8.258,8.258-8.258h24.774
	c4.565,0,8.258,3.694,8.258,8.258S301.854,214.71,297.289,214.71z"/>
<g>
	<path style="fill:#99E7FF;" d="M239.482,198.194h-82.581v16.516h82.581c4.565,0,8.258-3.694,8.258-8.258
		S244.047,198.194,239.482,198.194z"/>
	<path style="fill:#99E7FF;" d="M181.676,165.161h-24.774v16.516h24.774c4.565,0,8.258-3.694,8.258-8.258
		S186.241,165.161,181.676,165.161z"/>
</g>
<path style="fill:#59D8FF;" d="M239.482,181.677h-24.774c-4.565,0-8.258-3.694-8.258-8.258s3.694-8.258,8.258-8.258h24.774
	c4.565,0,8.258,3.694,8.258,8.258S244.047,181.677,239.482,181.677z"/>
<g>
	<path style="fill:#99E7FF;" d="M272.514,165.161c-4.565,0-8.258,3.694-8.258,8.258s3.694,8.258,8.258,8.258h82.581v-16.516
		L272.514,165.161L272.514,165.161z"/>
	<path style="fill:#99E7FF;" d="M181.676,132.129h-24.774v16.516h24.774c4.565,0,8.258-3.698,8.258-8.258
		S186.241,132.129,181.676,132.129z"/>
</g>
<path style="fill:#59D8FF;" d="M239.482,148.645h-24.774c-4.565,0-8.258-3.698-8.258-8.258s3.694-8.258,8.258-8.258h24.774
	c4.565,0,8.258,3.698,8.258,8.258S244.047,148.645,239.482,148.645z"/>
<g>
	<path style="fill:#99E7FF;" d="M272.514,132.129c-4.565,0-8.258,3.698-8.258,8.258s3.694,8.258,8.258,8.258h82.581v-16.516
		L272.514,132.129L272.514,132.129z"/>
	<path style="fill:#99E7FF;" d="M330.322,99.097c-4.565,0-8.258,3.698-8.258,8.258c0,4.56,3.694,8.258,8.258,8.258h24.774V99.097
		H330.322z"/>
</g>
<path style="fill:#59D8FF;" d="M297.289,115.613h-24.774c-4.565,0-8.258-3.698-8.258-8.258c0-4.56,3.694-8.258,8.258-8.258h24.774
	c4.565,0,8.258,3.698,8.258,8.258S301.854,115.613,297.289,115.613z"/>
<g>
	<path style="fill:#99E7FF;" d="M239.482,99.097h-82.581v16.516h82.581c4.565,0,8.258-3.698,8.258-8.258
		C247.741,102.794,244.047,99.097,239.482,99.097z"/>
	<path style="fill:#99E7FF;" d="M181.676,66.065h-24.774v16.516h24.774c4.565,0,8.258-3.698,8.258-8.258
		C189.934,69.762,186.241,66.065,181.676,66.065z"/>
</g>
<path style="fill:#59D8FF;" d="M239.482,82.581h-24.774c-4.565,0-8.258-3.698-8.258-8.258c0-4.56,3.694-8.258,8.258-8.258h24.774
	c4.565,0,8.258,3.698,8.258,8.258S244.047,82.581,239.482,82.581z"/>
<g>
	<path style="fill:#99E7FF;" d="M272.514,66.065c-4.565,0-8.258,3.698-8.258,8.258c0,4.56,3.694,8.258,8.258,8.258h82.581V66.065
		H272.514z"/>
	<path style="fill:#99E7FF;" d="M181.676,33.032h-24.774v16.516h24.774c4.565,0,8.258-3.698,8.258-8.258
		S186.241,33.032,181.676,33.032z"/>
</g>
<path style="fill:#59D8FF;" d="M239.482,49.548h-24.774c-4.565,0-8.258-3.698-8.258-8.258s3.694-8.258,8.258-8.258h24.774
	c4.565,0,8.258,3.698,8.258,8.258S244.047,49.548,239.482,49.548z"/>
<path style="fill:#99E7FF;" d="M272.514,33.032c-4.565,0-8.258,3.698-8.258,8.258s3.694,8.258,8.258,8.258h82.581V33.032H272.514z"
	/>
<path style="fill:#99E9DF;" d="M155.215,200.34c1.943-5.817,2.31-12.352,0.559-19.129c-2.977-11.519-12.474-20.742-24.068-23.407
	c-21.648-4.975-40.869,11.333-40.869,32.131c0,3.845,0.663,7.531,1.877,10.958c1.681,4.747,1.022,10.158-1.992,14.194
	c-6.651,8.907-9.822,20.521-7.255,33.019c3.23,15.729,15.865,28.505,31.589,31.756c26.655,5.51,50.103-14.696,50.103-40.378
	c0-9.145-3.033-17.526-8.096-24.333C153.919,210.923,153.546,205.338,155.215,200.34z"/>
<path style="fill:#4BD7C8;" d="M139.831,271.604c-15.725-3.25-28.359-16.027-31.59-31.756c-2.567-12.497,0.604-24.112,7.256-33.019
	c3.013-4.035,3.672-9.447,1.991-14.194c-1.214-3.427-1.877-7.113-1.877-10.958c0-9.799,4.299-18.566,11.076-24.614
	c-19.51-1.612-35.85,13.701-35.85,32.872c0,3.845,0.663,7.531,1.877,10.958c1.681,4.747,1.022,10.158-1.991,14.194
	c-6.651,8.907-9.822,20.522-7.256,33.019c3.23,15.728,15.865,28.505,31.59,31.756c12.637,2.612,24.516-0.602,33.554-7.393
	C145.741,272.468,142.812,272.22,139.831,271.604z"/>
<path style="fill:#C9C6CA;" d="M396.385,239.484L396.385,239.484c-9.122,0-16.516-7.395-16.516-16.516v-8.258
	c0-4.561,3.697-8.258,8.258-8.258h16.516c4.561,0,8.258,3.697,8.258,8.258v8.258C412.902,232.089,405.508,239.484,396.385,239.484z"
	/>
<path style="fill:#9C969E;" d="M123.87,322.065c-4.565,0-8.258-3.694-8.258-8.258V256c0-4.565,3.694-8.258,8.258-8.258
	c4.565,0,8.258,3.694,8.258,8.258v57.806C132.128,318.371,128.434,322.065,123.87,322.065z"/>
<path style="fill:#99E9DF;" d="M454.193,322.065H57.805c-4.565,0-8.258-3.694-8.258-8.258s3.694-8.258,8.258-8.258h396.387
	c4.565,0,8.258,3.694,8.258,8.258S458.757,322.065,454.193,322.065z"/>
<g>
</g>
<g>
</g>
<g>
</g>
<g>
</g>
<g>
</g>
<g>
</g>
<g>
</g>
<g>
</g>
<g>
</g>
<g>
</g>
<g>
</g>
<g>
</g>
<g>
</g>
<g>
</g>
<g>
</g>
</svg>
