<?xml version="1.0" encoding="iso-8859-1"?>
<!-- Generator: Adobe Illustrator 19.0.0, SVG Export Plug-In . SVG Version: 6.00 Build 0)  -->
<svg version="1.1" id="Capa_1" xmlns="http://www.w3.org/2000/svg" xmlns:xlink="http://www.w3.org/1999/xlink" x="0px" y="0px"
	 viewBox="0 0 512 512" style="enable-background:new 0 0 512 512;" xml:space="preserve">
<rect x="310.108" y="171.264" transform="matrix(-0.8889 -0.4581 0.4581 -0.8889 564.0716 495.324)" style="fill:#AEA8AF;" width="63.983" height="15.996"/>
<g>
	
		<rect x="243.48" y="134.521" transform="matrix(-0.8884 -0.4591 0.4591 -0.8884 445.9347 393.4511)" style="fill:#6F6571;" width="54.628" height="15.996"/>
	<rect x="295.777" y="32.23" style="fill:#6F6571;" width="71.999" height="16"/>
</g>
<path style="fill:#99E7FF;" d="M249.788,113.714L95.177,34.244l-12.649,29.48l152.605,78.436c7.855,4.047,17.504,0.959,21.551-6.896
	C260.73,127.41,257.643,117.761,249.788,113.714z"/>
<path style="fill:#59D8FF;" d="M295.776,24.756H71.779l14,32h209.998c8.836,0,16-7.164,16-16
	C311.776,31.919,304.612,24.756,295.776,24.756z"/>
<path style="fill:#00C3FF;" d="M85.155,31.225c-4.798-6.469-13.841-8.497-20.965-4.351c-7.648,4.451-10.24,14.26-5.788,21.908
	l143.374,245.44l48.105-38.25L85.155,31.225z"/>
<path style="fill:#867E88;" d="M299.138,175.134l-7.112-3.664c-7.855-4.047-10.943-13.696-6.896-21.551l0,0
	c4.047-7.855,13.696-10.943,21.551-6.896l7.112,3.664c7.855,4.047,10.943,13.696,6.896,21.551l0,0
	C316.642,176.094,306.993,179.181,299.138,175.134z"/>
<g>
	<path style="fill:#C9C6CA;" d="M377.843,209.537c-1.852,0-3.737-0.428-5.51-1.33c-5.948-3.028-8.437-10.28-5.545-16.155
		c1.399-2.847,3.84-4.955,6.87-5.934c3.03-0.984,6.283-0.715,9.177,0.761c5.948,3.028,8.443,10.28,5.545,16.16c0,0,0,0,0,0.006
		C386.349,207.171,382.197,209.537,377.843,209.537z"/>
	<path style="fill:#C9C6CA;" d="M282.843,287.882c-1.731-22.504-20.497-39.882-43.067-39.882s-41.337,17.377-43.067,39.882
		l-12.932,176.337h111.999L282.843,287.882z"/>
</g>
<path style="fill:#B7B2B8;" d="M255.776,251.066c-4.958-1.979-10.36-3.064-16-3.064c-22.571,0-41.337,17.377-43.068,39.882
	L183.777,464.22h32l12.932-176.337C230.007,271.001,240.892,257.005,255.776,251.066z"/>
<circle style="fill:#9C969E;" cx="239.778" cy="295.997" r="20"/>
<path style="fill:#AEA8AF;" d="M423.774,80.002c-0.438,0-0.875-0.035-1.313-0.109l-41.313-6.887
	c-7.75-1.285-13.375-7.922-13.375-15.781V22.779c0-7.852,5.625-14.488,13.367-15.781l41.32-6.887c2.008-0.34,4.063,0.105,5.75,1.234
	l24,16c3.68,2.449,4.672,7.418,2.219,11.094c-2.453,3.672-7.406,4.664-11.094,2.219l-21.367-14.246l-38.195,6.367v34.445
	l38.195,6.367l21.367-14.246c3.688-2.457,8.641-1.461,11.094,2.219c2.453,3.676,1.461,8.645-2.219,11.094l-24,16
	C426.891,79.541,425.344,80.002,423.774,80.002z"/>
<path style="fill:#867E88;" d="M375.775,56.003h-8c-8.837,0-16-7.163-16-16l0,0c0-8.837,7.163-16,16-16h8c8.837,0,16,7.163,16,16
	l0,0C391.775,48.84,384.611,56.003,375.775,56.003z"/>
<path style="fill:#B7B2B8;" d="M175.777,456.22h127.998c4.418,0,8,3.582,8,8v40H167.777v-40
	C167.777,459.801,171.358,456.22,175.777,456.22z"/>
<path style="fill:#AEA8AF;" d="M215.777,456.22h-40c-4.418,0-8,3.582-8,8v40h40v-40C207.777,459.801,211.358,456.22,215.777,456.22z
	"/>
<path style="fill:#C9C6CA;" d="M335.775,512H143.778c-4.422,0-8-3.578-8-8c0-4.422,3.578-8,8-8h191.998c4.422,0,8,3.578,8,8
	C343.775,508.423,340.197,512,335.775,512z"/>
<g>
</g>
<g>
</g>
<g>
</g>
<g>
</g>
<g>
</g>
<g>
</g>
<g>
</g>
<g>
</g>
<g>
</g>
<g>
</g>
<g>
</g>
<g>
</g>
<g>
</g>
<g>
</g>
<g>
</g>
</svg>
