<?xml version="1.0" encoding="iso-8859-1"?>
<!-- Generator: Adobe Illustrator 19.0.0, SVG Export Plug-In . SVG Version: 6.00 Build 0)  -->
<svg version="1.1" id="Capa_1" xmlns="http://www.w3.org/2000/svg" xmlns:xlink="http://www.w3.org/1999/xlink" x="0px" y="0px"
	 viewBox="0 0 512 512" style="enable-background:new 0 0 512 512;" xml:space="preserve">
<path style="fill:#EDEBED;" d="M205.969,7.377l-176,153.043c-3.55,3.087-5.588,7.561-5.588,12.265v163.261h373.841v-163.26
	c0-4.705-2.038-9.178-5.588-12.265l-176-153.044C213.576,4.718,209.027,4.718,205.969,7.377z"/>
<polygon style="fill:#99E7FF;" points="365.714,335.946 56.889,335.946 56.889,181.534 211.302,43.375 365.714,181.534 "/>
<polygon style="fill:#59D8FF;" points="211.302,43.375 56.889,181.534 56.889,335.946 81.27,335.946 81.27,192.435 203.175,83.362 
	203.175,335.946 219.429,335.946 219.429,83.362 341.333,192.435 341.333,335.946 365.714,335.946 365.714,181.534 "/>
<rect x="56.889" y="303.438" style="fill:#00C3FF;" width="308.82" height="32.508"/>
<g>
	<rect x="203.18" y="303.438" style="fill:#00AAF0;" width="16.254" height="32.508"/>
	<rect x="56.889" y="303.438" style="fill:#00AAF0;" width="24.381" height="32.508"/>
	<rect x="341.33" y="303.438" style="fill:#00AAF0;" width="24.381" height="32.508"/>
</g>
<polygon style="fill:#00C3FF;" points="75.055,165.28 56.889,181.534 56.889,197.788 365.714,197.788 365.714,181.534 
	347.548,165.28 "/>
<g>
	<polygon style="fill:#00AAF0;" points="81.27,192.435 111.619,165.28 75.055,165.28 56.889,181.534 56.889,197.788 81.27,197.788 	
		"/>
	<rect x="203.18" y="165.278" style="fill:#00AAF0;" width="16.254" height="32.508"/>
	<polygon style="fill:#00AAF0;" points="347.548,165.28 310.984,165.28 341.333,192.435 341.333,197.788 365.714,197.788 
		365.714,181.534 	"/>
</g>
<path style="fill:#B7B2B8;" d="M365.714,344.073c-4.492,0-8.127-3.639-8.127-8.127V183.792L211.302,56.589L65.016,183.792v152.155
	c0,4.488-3.635,8.127-8.127,8.127s-8.127-3.639-8.127-8.127V180.089c0-2.353,1.016-4.587,2.794-6.131l154.412-134.27
	c3.063-2.659,7.603-2.659,10.667,0l154.413,134.27c1.778,1.544,2.794,3.778,2.794,6.131v155.857
	C373.841,340.434,370.206,344.073,365.714,344.073z"/>
<path style="fill:#C9C6CA;" d="M414.476,344.073H8.127c-4.492,0-8.127-3.639-8.127-8.127s3.635-8.127,8.127-8.127h406.349
	c4.492,0,8.127,3.639,8.127,8.127C422.603,340.434,418.968,344.073,414.476,344.073z"/>
<circle style="fill:#EDEBED;" cx="373.84" cy="368.458" r="138.16"/>
<circle style="fill:#FFFFFF;" cx="373.84" cy="368.458" r="121.91"/>
<g>
	<rect x="284.44" y="376.578" style="fill:#C9C6CA;" width="65.02" height="16.254"/>
	<rect x="398.22" y="344.068" style="fill:#C9C6CA;" width="65.02" height="16.254"/>
</g>
<g>
	<circle style="fill:#99E9DF;" cx="284.44" cy="384.708" r="16.254"/>
	<circle style="fill:#99E9DF;" cx="463.24" cy="352.198" r="16.254"/>
</g>
<g>
	<path style="fill:#DBD9DC;" d="M333.206,360.327h-24.381c-2.159,0-4.222-0.857-5.746-2.381l-24.381-24.381
		c-3.175-3.175-3.175-8.317,0-11.492c3.175-3.175,8.317-3.175,11.492,0l22,22h21.016c4.492,0,8.127,3.639,8.127,8.127
		C341.333,356.688,337.698,360.327,333.206,360.327z"/>
	<path style="fill:#DBD9DC;" d="M463.238,417.216c-2.079,0-4.159-0.794-5.746-2.381l-22-22h-21.016
		c-4.492,0-8.127-3.639-8.127-8.127s3.635-8.127,8.127-8.127h24.381c2.159,0,4.222,0.857,5.746,2.381l24.381,24.381
		c3.175,3.175,3.175,8.317,0,11.492C467.397,416.423,465.317,417.216,463.238,417.216z"/>
	<path style="fill:#DBD9DC;" d="M333.206,465.978c-2.079,0-4.159-0.794-5.746-2.381c-3.175-3.175-3.175-8.317,0-11.492l22-22
		v-21.016c0-4.488,3.635-8.127,8.127-8.127s8.127,3.639,8.127,8.127v24.381c0,2.155-0.857,4.222-2.381,5.746l-24.381,24.381
		C337.365,465.184,335.286,465.978,333.206,465.978z"/>
	<path style="fill:#DBD9DC;" d="M390.095,335.946c-4.492,0-8.127-3.639-8.127-8.127v-24.381c0-2.155,0.857-4.222,2.381-5.746
		l24.381-24.381c3.175-3.175,8.317-3.175,11.492,0c3.175,3.175,3.175,8.317,0,11.492l-22,22v21.016
		C398.222,332.308,394.587,335.946,390.095,335.946z"/>
</g>
<g>
	<rect x="349.46" y="279.058" style="fill:#C9C6CA;" width="16.254" height="65.02"/>
	<rect x="381.97" y="392.838" style="fill:#C9C6CA;" width="16.254" height="65.02"/>
</g>
<g>
	<circle style="fill:#4BD7C8;" cx="357.59" cy="279.058" r="16.254"/>
	<circle style="fill:#4BD7C8;" cx="390.1" cy="457.848" r="16.254"/>
</g>
<path style="fill:#B7B2B8;" d="M398.222,409.089H349.46c-8.977,0-16.254-7.277-16.254-16.254v-48.762
	c0-8.977,7.277-16.254,16.254-16.254h48.762c8.977,0,16.254,7.277,16.254,16.254v48.762
	C414.476,401.812,407.199,409.089,398.222,409.089z"/>
<path style="fill:#4BD7C8;" d="M394.159,392.835h-40.635c-2.244,0-4.063-1.819-4.063-4.064v-40.635c0-2.244,1.819-4.063,4.063-4.063
	h40.635c2.244,0,4.064,1.819,4.064,4.063v40.635C398.222,391.016,396.403,392.835,394.159,392.835z"/>
<rect x="365.71" y="360.328" style="fill:#99E9DF;" width="16.254" height="16.254"/>
<g>
</g>
<g>
</g>
<g>
</g>
<g>
</g>
<g>
</g>
<g>
</g>
<g>
</g>
<g>
</g>
<g>
</g>
<g>
</g>
<g>
</g>
<g>
</g>
<g>
</g>
<g>
</g>
<g>
</g>
</svg>
