<?xml version="1.0" encoding="iso-8859-1"?>
<!-- Generator: Adobe Illustrator 19.0.0, SVG Export Plug-In . SVG Version: 6.00 Build 0)  -->
<svg version="1.1" id="Capa_1" xmlns="http://www.w3.org/2000/svg" xmlns:xlink="http://www.w3.org/1999/xlink" x="0px" y="0px"
	 viewBox="0 0 512 512" style="enable-background:new 0 0 512 512;" xml:space="preserve">
<path style="fill:#6F6571;" d="M309.677,0h-82.581c-9.121,0-16.516,7.394-16.516,16.516v478.968c0,9.121,7.395,16.516,16.516,16.516
	h82.581c9.121,0,16.516-7.395,16.516-16.516V16.516C326.194,7.394,318.799,0,309.677,0z M276.645,487.226h-16.516
	c-4.565,0-8.258-3.698-8.258-8.258s3.694-8.258,8.258-8.258h16.516c4.565,0,8.258,3.698,8.258,8.258S281.21,487.226,276.645,487.226
	z M276.645,445.935h-16.516c-4.565,0-8.258-3.698-8.258-8.258s3.694-8.258,8.258-8.258h16.516c4.565,0,8.258,3.698,8.258,8.258
	S281.21,445.935,276.645,445.935z"/>
<path style="fill:#5D5360;" d="M227.097,495.484V16.516C227.097,7.394,234.491,0,243.613,0h-16.516
	c-9.121,0-16.516,7.394-16.516,16.516v478.968c0,9.121,7.395,16.516,16.516,16.516h16.516
	C234.491,512,227.097,504.605,227.097,495.484z"/>
<rect x="210.58" y="115.61" style="fill:#C9C6CA;" width="115.61" height="280.77"/>
<rect x="210.58" y="115.61" style="fill:#B7B2B8;" width="16.516" height="280.77"/>
<path style="fill:#C9C6CA;" d="M152.774,231.226c-4.561,0-8.258,3.697-8.258,8.258v33.032c0,4.56,3.697,8.258,8.258,8.258h24.774
	v-49.548L152.774,231.226L152.774,231.226z"/>
<path style="fill:#DBD9DC;" d="M210.581,148.645h115.613c22.804,0,41.29,18.486,41.29,41.29v132.129
	c0,22.804-18.486,41.29-41.29,41.29H210.581c-22.804,0-41.29-18.486-41.29-41.29V189.935
	C169.29,167.131,187.777,148.645,210.581,148.645z"/>
<path style="fill:#4BD7C8;" d="M326.194,346.839H210.581c-13.682,0-24.774-11.092-24.774-24.774v-132.13
	c0-13.682,11.092-24.774,24.774-24.774h115.613c13.682,0,24.774,11.092,24.774,24.774v132.129
	C350.968,335.747,339.876,346.839,326.194,346.839z"/>
<path style="fill:#99E9DF;" d="M326.194,330.323H210.581c-4.561,0-8.258-3.697-8.258-8.258v-132.13c0-4.561,3.697-8.258,8.258-8.258
	h115.613c4.561,0,8.258,3.697,8.258,8.258v132.129C334.452,326.625,330.754,330.323,326.194,330.323z"/>
<g>
	<path style="fill:#FFFFFF;" d="M279.371,304.891c-1.96,0-3.919-0.69-5.492-2.093c-3.145-2.794-7.855-2.79-10.984-0.004
		c-3.403,3.024-8.621,2.734-11.661-0.673c-3.032-3.403-2.726-8.625,0.677-11.657c9.387-8.371,23.565-8.367,32.952,0.004
		c3.411,3.036,3.71,8.258,0.669,11.661C283.903,303.96,281.637,304.891,279.371,304.891z"/>
	<path style="fill:#FFFFFF;" d="M323.048,234.552c-1.565,0-3.153-0.444-4.556-1.375c-30.379-20.141-69.669-20.173-100.081-0.089
		c-3.798,2.512-8.927,1.468-11.444-2.343c-2.508-3.806-1.46-8.927,2.347-11.44c35.968-23.742,82.403-23.694,118.306,0.105
		c3.798,2.52,4.839,7.645,2.323,11.444C328.347,233.254,325.726,234.552,323.048,234.552z"/>
	<path style="fill:#FFFFFF;" d="M235.516,269.669c-2.621,0-5.194-1.242-6.798-3.556c-2.597-3.746-1.661-8.891,2.089-11.488
		c22.452-15.552,52.637-15.573,75.089-0.052c3.75,2.593,4.694,7.738,2.097,11.488c-2.589,3.75-7.734,4.677-11.484,2.101
		c-16.839-11.637-39.46-11.625-56.298,0.036C238.774,269.194,237.137,269.669,235.516,269.669z"/>
</g>
<g>
</g>
<g>
</g>
<g>
</g>
<g>
</g>
<g>
</g>
<g>
</g>
<g>
</g>
<g>
</g>
<g>
</g>
<g>
</g>
<g>
</g>
<g>
</g>
<g>
</g>
<g>
</g>
<g>
</g>
</svg>
