<?xml version="1.0" encoding="iso-8859-1"?>
<!-- Generator: Adobe Illustrator 19.0.0, SVG Export Plug-In . SVG Version: 6.00 Build 0)  -->
<svg version="1.1" id="Capa_1" xmlns="http://www.w3.org/2000/svg" xmlns:xlink="http://www.w3.org/1999/xlink" x="0px" y="0px"
	 viewBox="0 0 512 512" style="enable-background:new 0 0 512 512;" xml:space="preserve">
<path style="fill:#6F6571;" d="M379.871,0H132.129c-18.243,0-33.032,14.789-33.032,33.032v210.702
	c0,13.141,5.22,25.743,14.512,35.035l218.717,218.718C341.618,506.78,354.221,512,367.363,512h12.508
	c18.243,0,33.032-14.789,33.032-33.032V33.032C412.903,14.789,398.114,0,379.871,0z"/>
<path style="fill:#5D5360;" d="M313.806,247.742H99.295c0.948,11.671,5.972,22.686,14.314,31.028l218.717,218.717
	c8.342,8.342,19.356,13.366,31.029,14.315V297.29C363.355,269.925,341.171,247.742,313.806,247.742z"/>
<path style="fill:#99E9DF;" d="M379.871,74.323c0-4.561-3.698-8.258-8.258-8.258H140.387c-4.561,0-8.258,3.697-8.258,8.258V297.29
	l148.646,148.646h90.838c4.56,0,8.258-3.698,8.258-8.258L379.871,74.323L379.871,74.323z"/>
<g>
	<path style="fill:#5D5360;" d="M280.774,41.29h-49.548c-4.565,0-8.258-3.698-8.258-8.258s3.694-8.258,8.258-8.258h49.548
		c4.565,0,8.258,3.698,8.258,8.258S285.339,41.29,280.774,41.29z"/>
	<path style="fill:#5D5360;" d="M198.274,41.29c-4.565,0-8.298-3.698-8.298-8.258s3.653-8.258,8.218-8.258h0.081
		c4.565,0,8.258,3.698,8.258,8.258S202.839,41.29,198.274,41.29z"/>
</g>
<path style="fill:#867E88;" d="M379.871,512c-18.244,0-33.032-14.789-33.032-33.032V297.29c0-18.243-14.789-33.032-33.032-33.032
	H132.129c-18.243,0-33.032-14.789-33.032-33.032v12.509c0,13.141,5.22,25.743,14.512,35.035l218.717,218.717
	c9.292,9.292,21.895,14.513,35.037,14.513H379.871z"/>
<path style="fill:#9C969E;" d="M313.806,478.967V305.548c0-4.561-3.697-8.258-8.258-8.258H132.13L313.806,478.967z"/>
<path style="fill:#CCF4EF;" d="M354.416,264.258L354.416,264.258c4.937,0,8.939-4.002,8.939-8.939V82.581h-214.71v165.161h165.161
	c13.307,0,25.355,5.276,34.25,13.818C349.787,263.222,352.016,264.258,354.416,264.258z"/>
<g>
</g>
<g>
</g>
<g>
</g>
<g>
</g>
<g>
</g>
<g>
</g>
<g>
</g>
<g>
</g>
<g>
</g>
<g>
</g>
<g>
</g>
<g>
</g>
<g>
</g>
<g>
</g>
<g>
</g>
</svg>
