<?xml version="1.0" encoding="iso-8859-1"?>
<!-- Generator: Adobe Illustrator 19.0.0, SVG Export Plug-In . SVG Version: 6.00 Build 0)  -->
<svg version="1.1" id="Capa_1" xmlns="http://www.w3.org/2000/svg" xmlns:xlink="http://www.w3.org/1999/xlink" x="0px" y="0px"
	 viewBox="0 0 512 512" style="enable-background:new 0 0 512 512;" xml:space="preserve">
<path style="fill:#AEA8AF;" d="M313.806,305.549V429.42l-27.603-34.505c-3.514-4.393-5.429-9.851-5.429-15.476v-73.89H313.806z"/>
<path style="fill:#9C969E;" d="M280.774,305.548l41.29,0.001v173.419h-16.516V338.581c0-4.561-3.697-8.258-8.258-8.258h-16.516
	L280.774,305.548L280.774,305.548z"/>
<path style="fill:#DBD9DC;" d="M330.323,478.968h-26.585c-3.789,0-7.092,2.579-8.012,6.255l-4.642,18.568
	c-1.042,4.17,2.111,8.209,6.409,8.209h41.087c4.561,0,8.258-3.697,8.258-8.258v-8.258
	C346.839,486.362,339.444,478.968,330.323,478.968z"/>
<path style="fill:#C9C6CA;" d="M293.161,495.484h53.677v8.258c0,4.561-3.697,8.258-8.258,8.258h-41.087
	c-4.298,0-7.452-4.039-6.409-8.209L293.161,495.484z"/>
<path style="fill:#AEA8AF;" d="M198.193,305.549V429.42l27.603-34.505c3.514-4.393,5.429-9.851,5.429-15.476v-73.89H198.193z"/>
<path style="fill:#9C969E;" d="M231.226,305.548l-41.29,0.001v173.419h16.516V338.581c0-4.561,3.697-8.258,8.258-8.258h16.516
	L231.226,305.548L231.226,305.548z"/>
<rect x="214.71" y="222.97" style="fill:#C9C6CA;" width="82.58" height="57.806"/>
<rect x="214.71" y="222.97" style="fill:#B7B2B8;" width="82.58" height="24.774"/>
<rect x="247.74" y="90.84" style="fill:#9C969E;" width="16.516" height="49.548"/>
<rect x="247.74" y="90.84" style="fill:#867E88;" width="16.516" height="24.774"/>
<path style="fill:#9C969E;" d="M355.097,355.097c13.661,0,24.774-11.113,24.774-24.774c0-9.129-5-17.492-13.048-21.823
	c-2.105-1.137-3.468-3.786-3.468-6.75V148.645c0-4.56-3.694-8.258-8.258-8.258c-4.565,0-8.258,3.698-8.258,8.258V301.75
	c0,9.097,4.661,17.254,12.161,21.29c2.685,1.448,4.355,4.238,4.355,7.282c0,4.552-3.702,8.258-8.258,8.258
	c-4.556,0-8.258-3.706-8.258-8.258c0-4.56-3.694-8.258-8.258-8.258c-4.564,0-8.258,3.698-8.258,8.258
	C330.323,343.984,341.436,355.097,355.097,355.097z"/>
<path style="fill:#867E88;" d="M355.097,140.387c4.565,0,8.258,3.698,8.258,8.258v25.451c-0.331,0.117-0.634,0.282-0.972,0.387
	l-15.544,4.783v-30.62C346.839,144.085,350.532,140.387,355.097,140.387z"/>
<rect x="346.84" y="231.23" style="fill:#AEA8AF;" width="16.516" height="57.806"/>
<path style="fill:#9C969E;" d="M156.903,355.097c-13.661,0-24.774-11.113-24.774-24.774c0-9.129,5-17.492,13.048-21.823
	c2.105-1.137,3.468-3.786,3.468-6.75V148.645c0-4.56,3.694-8.258,8.258-8.258c4.565,0,8.258,3.698,8.258,8.258V301.75
	c0,9.097-4.661,17.254-12.161,21.29c-2.685,1.448-4.355,4.238-4.355,7.282c0,4.552,3.702,8.258,8.258,8.258s8.258-3.706,8.258-8.258
	c0-4.56,3.694-8.258,8.258-8.258c4.565,0,8.258,3.698,8.258,8.258C181.677,343.984,170.564,355.097,156.903,355.097z"/>
<path style="fill:#867E88;" d="M156.903,140.387c-4.565,0-8.258,3.698-8.258,8.258v25.451c0.331,0.117,0.634,0.282,0.972,0.387
	l15.544,4.783v-30.62C165.161,144.085,161.468,140.387,156.903,140.387z"/>
<path style="fill:#DBD9DC;" d="M305.548,231.226h-99.097c-9.122,0-16.516-7.395-16.516-16.516v-57.807h132.129v57.807
	C322.065,223.831,314.67,231.226,305.548,231.226z"/>
<path style="fill:#C9C6CA;" d="M322.065,156.903h-132.13v29.984l37.628,11.578c5.821,9.817,16.537,16.244,28.437,16.244
	c11.9,0,22.616-6.427,28.437-16.244l37.628-11.578V156.903L322.065,156.903z"/>
<path style="fill:#EDEBED;" d="M344.68,132.129H167.32c-10.314,0-18.675,8.361-18.675,18.675l0,0c0,3.625,2.364,6.827,5.829,7.893
	L256,189.936l101.525-31.239c3.465-1.066,5.829-4.268,5.829-7.893l0,0C363.355,140.49,354.994,132.129,344.68,132.129z"/>
<path style="fill:#9C969E;" d="M338.581,61.936H173.419c-4.561,0-8.258-3.697-8.258-8.258V45.42c0-4.561,3.697-8.258,8.258-8.258
	H338.58c4.561,0,8.258,3.697,8.258,8.258v8.258C346.839,58.238,343.142,61.936,338.581,61.936z"/>
<path style="fill:#EDEBED;" d="M289.032,99.097h-66.065c-27.365,0-49.548-22.184-49.548-49.548l0,0
	C173.419,22.184,195.603,0,222.968,0h66.065c27.365,0,49.548,22.184,49.548,49.548l0,0
	C338.581,76.913,316.397,99.097,289.032,99.097z"/>
<path style="fill:#59D8FF;" d="M289.032,82.581h-66.065c-18.243,0-33.032-14.789-33.032-33.032l0,0
	c0-18.243,14.789-33.032,33.032-33.032h66.065c18.243,0,33.032,14.789,33.032,33.032l0,0
	C322.065,67.792,307.276,82.581,289.032,82.581z"/>
<path style="fill:#99E7FF;" d="M289.032,66.065h-66.065c-9.122,0-16.516-7.395-16.516-16.516l0,0
	c0-9.122,7.395-16.516,16.516-16.516h66.065c9.122,0,16.516,7.395,16.516,16.516l0,0C305.548,58.67,298.154,66.065,289.032,66.065z"
	/>
<circle style="fill:#4BD7C8;" cx="256" cy="181.68" r="16.516"/>
<g>
	<path style="fill:#FFFFFF;" d="M214.71,61.936c-4.565,0-8.258-3.698-8.258-8.258V45.42c0-4.56,3.694-8.258,8.258-8.258
		c4.565,0,8.258,3.698,8.258,8.258v8.258C222.968,58.238,219.274,61.936,214.71,61.936z"/>
	<path style="fill:#FFFFFF;" d="M297.29,61.936c-4.565,0-8.258-3.698-8.258-8.258V45.42c0-4.56,3.694-8.258,8.258-8.258
		c4.565,0,8.258,3.698,8.258,8.258v8.258C305.548,58.238,301.855,61.936,297.29,61.936z"/>
</g>
<path style="fill:#DBD9DC;" d="M181.677,478.968h26.585c3.789,0,7.092,2.579,8.012,6.255l4.642,18.568
	c1.042,4.17-2.111,8.209-6.409,8.209H173.42c-4.561,0-8.258-3.697-8.258-8.258v-8.258
	C165.161,486.362,172.556,478.968,181.677,478.968z"/>
<circle style="fill:#99E9DF;" cx="256" cy="181.68" r="8.258"/>
<rect x="148.65" y="231.23" style="fill:#AEA8AF;" width="16.516" height="57.806"/>
<path style="fill:#C9C6CA;" d="M313.807,313.807H198.193c-9.122,0-16.516-7.395-16.516-16.516l0,0
	c0-9.122,7.395-16.516,16.516-16.516h115.613c9.122,0,16.516,7.395,16.516,16.516l0,0
	C330.323,306.412,322.928,313.807,313.807,313.807z"/>
<rect x="214.71" y="280.77" style="fill:#DBD9DC;" width="82.58" height="33.03"/>
<path style="fill:#C9C6CA;" d="M218.839,495.484h-53.677v8.258c0,4.561,3.697,8.258,8.258,8.258h41.087
	c4.298,0,7.452-4.039,6.409-8.209L218.839,495.484z"/>
<g>
</g>
<g>
</g>
<g>
</g>
<g>
</g>
<g>
</g>
<g>
</g>
<g>
</g>
<g>
</g>
<g>
</g>
<g>
</g>
<g>
</g>
<g>
</g>
<g>
</g>
<g>
</g>
<g>
</g>
</svg>
