<?xml version="1.0" encoding="iso-8859-1"?>
<!-- Generator: Adobe Illustrator 19.0.0, SVG Export Plug-In . SVG Version: 6.00 Build 0)  -->
<svg version="1.1" id="Capa_1" xmlns="http://www.w3.org/2000/svg" xmlns:xlink="http://www.w3.org/1999/xlink" x="0px" y="0px"
	 viewBox="0 0 512 512" style="enable-background:new 0 0 512 512;" xml:space="preserve">
<polygon style="fill:#E5F9FF;" points="190.983,186.916 256,219.424 321.017,186.916 321.017,235.678 190.983,235.678 "/>
<g>
	<path style="fill:#CCF3FF;" d="M256,251.932c-4.492,0-8.127-3.639-8.127-8.127V203.17c0-4.488,3.635-8.127,8.127-8.127
		s8.127,3.639,8.127,8.127v40.636C264.127,248.294,260.492,251.932,256,251.932z"/>
	<path style="fill:#CCF3FF;" d="M288.508,251.932c-4.492,0-8.127-3.639-8.127-8.127v-48.763c0-4.488,3.635-8.127,8.127-8.127
		s8.127,3.639,8.127,8.127v48.763C296.636,248.294,293.001,251.932,288.508,251.932z"/>
	<path style="fill:#CCF3FF;" d="M190.983,251.932c-4.492,0-8.127-3.639-8.127-8.127v-73.144c0-4.488,3.635-8.127,8.127-8.127
		s8.127,3.639,8.127,8.127v73.144C199.11,248.294,195.475,251.932,190.983,251.932z"/>
	<path style="fill:#CCF3FF;" d="M223.492,251.932c-4.492,0-8.127-3.639-8.127-8.127v-48.763c0-4.488,3.635-8.127,8.127-8.127
		s8.127,3.639,8.127,8.127v48.763C231.619,248.294,227.984,251.932,223.492,251.932z"/>
	<path style="fill:#CCF3FF;" d="M321.017,251.932c-4.492,0-8.127-3.639-8.127-8.127v-73.144c0-4.488,3.635-8.127,8.127-8.127
		s8.127,3.639,8.127,8.127v73.144C329.144,248.294,325.509,251.932,321.017,251.932z"/>
	<path style="fill:#CCF3FF;" d="M331.12,125.129l-66.993-38.787V10.175c0-4.488-3.635-8.127-8.127-8.127s-8.127,3.639-8.127,8.127
		v76.167l-66.993,38.787c-3.889,2.246-5.214,7.218-2.96,11.103c1.508,2.603,4.23,4.056,7.04,4.056c1.381,0,2.786-0.353,4.064-1.095
		L256,100.414l66.977,38.778c1.278,0.742,2.683,1.095,4.064,1.095c2.802,0,5.532-1.452,7.04-4.056
		C336.335,132.347,335.009,127.375,331.12,125.129z"/>
</g>
<path style="fill:#6F6571;" d="M329.148,252.182H182.852c-68.028,4.197-121.903,60.699-121.903,129.783v0.001
	C60.949,453.782,119.168,512,190.983,512h130.034c71.816,0,130.034-58.218,130.034-130.034v-0.001
	C451.051,312.881,397.176,256.379,329.148,252.182z M329.144,495.746H182.856c-58.35,0-105.652-47.302-105.652-105.652
	c0-58.351,47.302-105.652,105.652-105.652h146.288c58.35,0,105.652,47.302,105.652,105.652
	C434.796,448.443,387.494,495.746,329.144,495.746z"/>
<path style="fill:#5D5360;" d="M166.602,285.818c5.312-0.822,10.712-1.378,16.254-1.378h146.288c5.542,0,10.942,0.555,16.254,1.378
	v-31.475c-5.324-1.012-10.718-1.819-16.25-2.161H182.852c-5.532,0.341-10.927,1.149-16.25,2.161V285.818z"/>
<path style="fill:#DBD9DC;" d="M321.017,284.441H190.983c-4.488,0-8.127-3.639-8.127-8.127v-32.508
	c0-8.977,7.277-16.254,16.254-16.254h113.78c8.977,0,16.254,7.277,16.254,16.254v32.508
	C329.144,280.802,325.505,284.441,321.017,284.441z"/>
<path style="fill:#59D8FF;" d="M327.453,38.302L265.865,2.643c-6.095-3.524-13.635-3.524-19.73,0l-61.588,35.659
	c-6.056,3.504-9.818,10.032-9.818,17.028v71.374c0,6.992,3.762,13.516,9.818,17.028l61.596,35.663
	c3.04,1.758,6.452,2.639,9.857,2.639s6.818-0.881,9.857-2.643l61.604-35.663c6.048-3.508,9.81-10.032,9.81-17.024V55.33
	C337.271,48.334,333.509,41.806,327.453,38.302z M254.286,16.707c0,0,0,0,0.008,0c0.524-0.306,1.111-0.46,1.706-0.46
	c0.587,0,1.183,0.155,1.714,0.46l55.211,31.963l-55.211,31.963c-1.064,0.619-2.365,0.615-3.429,0.004L199.074,48.67L254.286,16.707z
	 M192.697,129.673c-1.056-0.615-1.714-1.75-1.714-2.968V62.763l55.16,31.94c0.549,0.317,1.159,0.454,1.73,0.715v66.197
	L192.697,129.673z M319.311,129.669l-55.183,31.943V95.416c0.571-0.261,1.182-0.398,1.73-0.716l55.16-31.937v63.941
	C321.017,127.923,320.358,129.058,319.311,129.669z"/>
<path style="fill:#C9C6CA;" d="M321.017,268.187H190.983c-4.489,0-8.127-3.639-8.127-8.127v16.254c0,4.488,3.638,8.127,8.127,8.127
	h130.034c4.489,0,8.127-3.639,8.127-8.127V260.06C329.144,264.548,325.506,268.187,321.017,268.187z"/>
<circle style="fill:#B7B2B8;" cx="256" cy="268.19" r="20.318"/>
<circle style="fill:#9C969E;" cx="256" cy="268.19" r="8.127"/>
<g>
</g>
<g>
</g>
<g>
</g>
<g>
</g>
<g>
</g>
<g>
</g>
<g>
</g>
<g>
</g>
<g>
</g>
<g>
</g>
<g>
</g>
<g>
</g>
<g>
</g>
<g>
</g>
<g>
</g>
</svg>
