<?xml version="1.0" encoding="iso-8859-1"?>
<!-- Generator: Adobe Illustrator 19.0.0, SVG Export Plug-In . SVG Version: 6.00 Build 0)  -->
<svg version="1.1" id="Capa_1" xmlns="http://www.w3.org/2000/svg" xmlns:xlink="http://www.w3.org/1999/xlink" x="0px" y="0px"
	 viewBox="0 0 512 512" style="enable-background:new 0 0 512 512;" xml:space="preserve">
<g>
	<rect x="90.84" y="392.26" style="fill:#DBD9DC;" width="16.516" height="41.29"/>
	<rect x="404.64" y="392.26" style="fill:#DBD9DC;" width="16.516" height="41.29"/>
</g>
<path style="fill:#EDEBED;" d="M487.226,70.194H24.774C11.092,70.194,0,81.285,0,94.968v280.774
	c0,13.682,11.092,24.774,24.774,24.774h462.452c13.682,0,24.774-11.092,24.774-24.774V94.968
	C512,81.285,500.908,70.194,487.226,70.194z"/>
<path style="fill:#99E7FF;" d="M487.226,384H24.774c-4.561,0-8.258-3.697-8.258-8.258V94.968c0-4.561,3.697-8.258,8.258-8.258
	h462.452c4.561,0,8.258,3.697,8.258,8.258v280.774C495.484,380.303,491.787,384,487.226,384z"/>
<path style="fill:#EDEBED;" d="M437.677,441.806H74.323c-4.565,0-8.258-3.698-8.258-8.258s3.694-8.258,8.258-8.258h363.355
	c4.565,0,8.258,3.698,8.258,8.258C445.935,438.109,442.242,441.806,437.677,441.806z"/>
<path style="fill:#59D8FF;" d="M256,367.484H41.29c-4.565,0-8.258-3.698-8.258-8.258s3.694-8.258,8.258-8.258H256
	c4.565,0,8.258,3.698,8.258,8.258S260.565,367.484,256,367.484z"/>
<path style="fill:#FFFFFF;" d="M454.194,111.484H322.065c-9.122,0-16.516,7.395-16.516,16.516v24.774l-35.651,35.651
	c-2.081,2.081-0.607,5.639,2.336,5.639h33.316v16.516c0,9.122,7.395,16.516,16.516,16.516h132.129
	c9.122,0,16.516-7.395,16.516-16.516V128C470.71,118.878,463.315,111.484,454.194,111.484z"/>
<path style="fill:#59D8FF;" d="M429.419,161.032h-82.581c-4.565,0-8.258-3.698-8.258-8.258s3.694-8.258,8.258-8.258h82.581
	c4.565,0,8.258,3.698,8.258,8.258C437.677,157.335,433.984,161.032,429.419,161.032z"/>
<path style="fill:#E5F9FF;" d="M445.935,284.903H330.323c-4.565,0-8.258-3.698-8.258-8.258s3.694-8.258,8.258-8.258h115.613
	c4.565,0,8.258,3.698,8.258,8.258S450.5,284.903,445.935,284.903z"/>
<path style="fill:#CCF3FF;" d="M445.935,317.935H379.87c-4.565,0-8.258-3.698-8.258-8.258s3.694-8.258,8.258-8.258h66.065
	c4.565,0,8.258,3.698,8.258,8.258S450.5,317.935,445.935,317.935z"/>
<path style="fill:#E5F9FF;" d="M346.839,317.935h-16.516c-4.565,0-8.258-3.698-8.258-8.258s3.694-8.258,8.258-8.258h16.516
	c4.565,0,8.258,3.698,8.258,8.258S351.403,317.935,346.839,317.935z"/>
<path style="fill:#CCF3FF;" d="M429.419,350.968h-49.548c-4.565,0-8.258-3.698-8.258-8.258s3.694-8.258,8.258-8.258h49.548
	c4.565,0,8.258,3.698,8.258,8.258S433.984,350.968,429.419,350.968z"/>
<path style="fill:#E5F9FF;" d="M346.839,350.968h-16.516c-4.565,0-8.258-3.698-8.258-8.258s3.694-8.258,8.258-8.258h16.516
	c4.565,0,8.258,3.698,8.258,8.258S351.403,350.968,346.839,350.968z"/>
<path style="fill:#59D8FF;" d="M429.419,194.065h-82.581c-4.565,0-8.258-3.698-8.258-8.258s3.694-8.258,8.258-8.258h82.581
	c4.565,0,8.258,3.698,8.258,8.258S433.984,194.065,429.419,194.065z"/>
<rect x="140.39" y="202.32" style="fill:#9C969E;" width="16.516" height="49.548"/>
<rect x="140.39" y="202.32" style="fill:#867E88;" width="16.516" height="24.774"/>
<path style="fill:#9C969E;" d="M256,350.968V260.13c0-4.561-3.694-8.258-8.258-8.258c-4.565,0-8.258,3.698-8.258,8.258v90.838
	L256,350.968L256,350.968z"/>
<path style="fill:#867E88;" d="M247.742,251.871c4.565,0,8.258,3.698,8.258,8.258v25.451c-0.331,0.117-0.634,0.282-0.972,0.387
	l-15.544,4.783v-30.62C239.484,255.569,243.177,251.871,247.742,251.871z"/>
<path style="fill:#9C969E;" d="M57.806,350.968V260.13c0-4.561-3.694-8.258-8.258-8.258s-8.258,3.698-8.258,8.258v90.838
	L57.806,350.968L57.806,350.968z"/>
<path style="fill:#867E88;" d="M49.548,251.871c-4.565,0-8.258,3.698-8.258,8.258v25.451c0.331,0.117,0.634,0.282,0.972,0.387
	l15.544,4.783v-30.62C57.806,255.569,54.113,251.871,49.548,251.871z"/>
<rect x="82.58" y="268.39" style="fill:#DBD9DC;" width="132.13" height="82.58"/>
<path style="fill:#C9C6CA;" d="M214.71,268.388H82.581v29.984l37.628,11.578c5.821,9.817,16.537,16.244,28.437,16.244
	s22.616-6.427,28.437-16.244l37.628-11.578L214.71,268.388L214.71,268.388z"/>
<path style="fill:#EDEBED;" d="M237.325,243.613H59.965c-10.314,0-18.675,8.361-18.675,18.675l0,0c0,3.625,2.364,6.827,5.829,7.893
	l101.525,31.239l101.525-31.239c3.465-1.066,5.829-4.268,5.829-7.893l0,0C256,251.974,247.639,243.613,237.325,243.613z"/>
<path style="fill:#9C969E;" d="M231.226,173.42H66.065c-4.561,0-8.258-3.697-8.258-8.258v-8.258c0-4.561,3.697-8.258,8.258-8.258
	h165.161c4.561,0,8.258,3.697,8.258,8.258v8.258C239.484,169.723,235.787,173.42,231.226,173.42z"/>
<path style="fill:#EDEBED;" d="M181.677,210.581h-66.065c-27.365,0-49.548-22.184-49.548-49.548l0,0
	c0-27.365,22.184-49.548,49.548-49.548h66.065c27.365,0,49.548,22.184,49.548,49.548l0,0
	C231.226,188.398,209.042,210.581,181.677,210.581z"/>
<path style="fill:#59D8FF;" d="M181.677,194.065h-66.065c-18.243,0-33.032-14.789-33.032-33.032l0,0
	c0-18.243,14.789-33.032,33.032-33.032h66.065c18.243,0,33.032,14.789,33.032,33.032l0,0
	C214.71,179.276,199.921,194.065,181.677,194.065z"/>
<path style="fill:#99E7FF;" d="M181.677,177.549h-66.065c-9.122,0-16.516-7.395-16.516-16.516l0,0
	c0-9.122,7.395-16.516,16.516-16.516h66.065c9.122,0,16.516,7.395,16.516,16.516l0,0
	C198.194,170.154,190.799,177.549,181.677,177.549z"/>
<circle style="fill:#59D8FF;" cx="148.65" cy="293.16" r="16.516"/>
<g>
	<path style="fill:#FFFFFF;" d="M107.355,173.42c-4.565,0-8.258-3.698-8.258-8.258v-8.258c0-4.56,3.694-8.258,8.258-8.258
		c4.565,0,8.258,3.698,8.258,8.258v8.258C115.613,169.722,111.919,173.42,107.355,173.42z"/>
	<path style="fill:#FFFFFF;" d="M189.935,173.42c-4.565,0-8.258-3.698-8.258-8.258v-8.258c0-4.56,3.694-8.258,8.258-8.258
		s8.258,3.698,8.258,8.258v8.258C198.194,169.722,194.5,173.42,189.935,173.42z"/>
</g>
<circle style="fill:#99E7FF;" cx="148.65" cy="293.16" r="8.258"/>
<g>
</g>
<g>
</g>
<g>
</g>
<g>
</g>
<g>
</g>
<g>
</g>
<g>
</g>
<g>
</g>
<g>
</g>
<g>
</g>
<g>
</g>
<g>
</g>
<g>
</g>
<g>
</g>
<g>
</g>
</svg>
