<?xml version="1.0" encoding="iso-8859-1"?>
<!-- Generator: Adobe Illustrator 19.0.0, SVG Export Plug-In . SVG Version: 6.00 Build 0)  -->
<svg version="1.1" id="Capa_1" xmlns="http://www.w3.org/2000/svg" xmlns:xlink="http://www.w3.org/1999/xlink" x="0px" y="0px"
	 viewBox="0 0 512.001 512.001" style="enable-background:new 0 0 512.001 512.001;" xml:space="preserve">
<path style="fill:#EDEBED;" d="M437.677,156.904c-0.162,0-0.319,0.023-0.48,0.024c-4.101-37.168-35.581-66.089-73.842-66.089
	c-5.73,0-11.285,0.71-16.643,1.938c-22.562-40.542-65.797-68.003-115.486-68.003c-68.015,0-123.976,51.408-131.273,117.478
	c-5.605-1.201-11.409-1.865-17.372-1.865C36.973,140.388,0,177.36,0,222.969c0,45.608,36.973,82.581,82.581,82.581h355.097
	c41.047,0,74.323-33.276,74.323-74.323C512,190.179,478.725,156.904,437.677,156.904z"/>
<path style="fill:#DBD9DC;" d="M165.161,272.517c-45.608,0-82.581-36.973-82.581-82.581c0-17.919,5.768-34.457,15.464-47.991
	c-5.019-0.959-10.166-1.557-15.464-1.557C36.973,140.388,0,177.36,0,222.969c0,45.608,36.973,82.581,82.581,82.581h355.097
	c25.765,0,48.456-13.119,61.79-33.032H165.161V272.517z"/>
<polygon style="fill:#C9C6CA;" points="189.935,239.485 189.935,346.84 115.613,346.84 115.613,363.356 189.935,363.356 
	189.935,421.162 206.452,421.162 206.452,239.485 "/>
<circle style="fill:#99E9DF;" cx="198.19" cy="421.161" r="16.516"/>
<circle style="fill:#4BD7C8;" cx="115.61" cy="355.101" r="16.516"/>
<polygon style="fill:#C9C6CA;" points="305.548,239.485 305.548,346.84 379.871,346.84 379.871,363.356 305.548,363.356 
	305.548,421.162 289.032,421.162 289.032,239.485 "/>
<circle style="fill:#99E9DF;" cx="297.29" cy="421.161" r="16.516"/>
<circle style="fill:#4BD7C8;" cx="379.87" cy="355.101" r="16.516"/>
<rect x="239.48" y="239.481" style="fill:#B7B2B8;" width="16.516" height="231.23"/>
<circle style="fill:#4BD7C8;" cx="247.74" cy="470.711" r="16.516"/>
<path style="fill:#B7B2B8;" d="M297.29,256.001h-99.097c-9.122,0-16.516-7.395-16.516-16.516v-99.097
	c0-9.122,7.395-16.516,16.516-16.516h99.097c9.122,0,16.516,7.395,16.516,16.516v99.097
	C313.806,248.606,306.412,256.001,297.29,256.001z"/>
<path style="fill:#4BD7C8;" d="M280.774,231.227H214.71c-4.561,0-8.258-3.697-8.258-8.258v-66.065c0-4.561,3.697-8.258,8.258-8.258
	h66.065c4.561,0,8.258,3.697,8.258,8.258v66.065C289.032,227.53,285.335,231.227,280.774,231.227z"/>
<rect x="222.97" y="165.161" style="fill:#99E9DF;" width="49.548" height="49.548"/>
<g>
</g>
<g>
</g>
<g>
</g>
<g>
</g>
<g>
</g>
<g>
</g>
<g>
</g>
<g>
</g>
<g>
</g>
<g>
</g>
<g>
</g>
<g>
</g>
<g>
</g>
<g>
</g>
<g>
</g>
</svg>
