<?xml version="1.0" encoding="iso-8859-1"?>
<!-- Generator: Adobe Illustrator 19.0.0, SVG Export Plug-In . SVG Version: 6.00 Build 0)  -->
<svg version="1.1" id="Capa_1" xmlns="http://www.w3.org/2000/svg" xmlns:xlink="http://www.w3.org/1999/xlink" x="0px" y="0px"
	 viewBox="0 0 512 512" style="enable-background:new 0 0 512 512;" xml:space="preserve">
<rect x="247.87" y="146.29" style="fill:#99E7FF;" width="16.254" height="81.27"/>
<path style="fill:#CCF3FF;" d="M256,178.794L256,178.794c-4.488,0-8.127-3.639-8.127-8.127v-24.381h16.254v24.381
	C264.128,175.155,260.488,178.794,256,178.794z"/>
<path style="fill:#C9C6CA;" d="M239.746,65.016v51.133c0,3.785,0.881,7.518,2.574,10.903l13.68,27.36l13.68-27.36
	c1.693-3.385,2.574-7.118,2.574-10.903V65.016H239.746z"/>
<rect x="239.75" y="65.02" style="fill:#9C969E;" width="32.508" height="32.508"/>
<rect x="329.141" y="300.7" style="fill:#867E88;" width="89.4" height="16.254"/>
<rect x="93.46" y="56.889" style="fill:#6F6571;" width="325.08" height="16.254"/>
<rect x="93.46" y="300.7" style="fill:#867E88;" width="89.4" height="16.254"/>
<path style="fill:#9C969E;" d="M426.667,0H85.333c-8.977,0-16.254,7.277-16.254,16.254v487.619h373.841V16.254
	C442.921,7.277,435.643,0,426.667,0z M410.413,422.603H101.587V32.508h308.825L410.413,422.603L410.413,422.603z"/>
<rect x="69.08" y="422.6" style="fill:#B7B2B8;" width="373.84" height="81.27"/>
<path style="fill:#C9C6CA;" d="M459.175,512H52.825c-4.492,0-8.127-3.639-8.127-8.127s3.635-8.127,8.127-8.127h406.349
	c4.492,0,8.127,3.639,8.127,8.127S463.667,512,459.175,512z"/>
<path style="fill:#9C969E;" d="M410.413,463.238H101.587c-4.488,0-8.127-3.639-8.127-8.127l0,0c0-4.488,3.639-8.127,8.127-8.127
	h308.825c4.488,0,8.127,3.639,8.127,8.127l0,0C418.54,459.599,414.901,463.238,410.413,463.238z"/>
<path style="fill:#CCF3FF;" d="M331.119,344.564l-66.992-38.787v-76.166c0-4.488-3.635-8.127-8.127-8.127
	c-4.492,0-8.127,3.639-8.127,8.127v76.166l-66.992,38.787c-3.889,2.246-5.214,7.218-2.96,11.103c1.508,2.603,4.23,4.056,7.04,4.056
	c1.381,0,2.786-0.353,4.063-1.095L256,319.849l66.976,38.778c1.278,0.742,2.683,1.095,4.063,1.095c2.802,0,5.532-1.452,7.04-4.056
	C336.333,351.782,335.008,346.81,331.119,344.564z"/>
<path style="fill:#59D8FF;" d="M327.452,257.738l-61.587-35.659c-6.095-3.524-13.635-3.524-19.73,0l-61.587,35.659
	c-6.056,3.504-9.817,10.032-9.817,17.028v71.373c0,6.992,3.762,13.516,9.817,17.028l61.595,35.663
	c3.04,1.758,6.452,2.639,9.857,2.639c3.405,0,6.817-0.881,9.857-2.643l61.603-35.663c6.048-3.508,9.81-10.032,9.81-17.024v-71.373
	C337.27,267.77,333.508,261.242,327.452,257.738z M254.286,236.143c0,0,0,0,0.008,0c0.524-0.306,1.111-0.46,1.706-0.46
	c0.587,0,1.183,0.155,1.714,0.46l55.21,31.962l-55.21,31.962c-1.064,0.619-2.365,0.615-3.429,0.004l-55.21-31.966L254.286,236.143z
	 M192.698,349.107c-1.056-0.615-1.714-1.75-1.714-2.968v-63.94l55.159,31.94c0.549,0.317,1.159,0.454,1.73,0.715v66.196
	L192.698,349.107z M319.31,349.103l-55.183,31.943v-66.195c0.571-0.261,1.182-0.398,1.73-0.716l55.159-31.936v63.94
	C321.016,347.357,320.357,348.492,319.31,349.103z"/>
<circle style="fill:#FFFFFF;" cx="256" cy="146.29" r="8.127"/>
<g>
</g>
<g>
</g>
<g>
</g>
<g>
</g>
<g>
</g>
<g>
</g>
<g>
</g>
<g>
</g>
<g>
</g>
<g>
</g>
<g>
</g>
<g>
</g>
<g>
</g>
<g>
</g>
<g>
</g>
</svg>
