<?xml version="1.0" encoding="iso-8859-1"?>
<!-- Generator: Adobe Illustrator 19.0.0, SVG Export Plug-In . SVG Version: 6.00 Build 0)  -->
<svg version="1.1" id="Capa_1" xmlns="http://www.w3.org/2000/svg" xmlns:xlink="http://www.w3.org/1999/xlink" x="0px" y="0px"
	 viewBox="0 0 512 512" style="enable-background:new 0 0 512 512;" xml:space="preserve">
<g>
	<path style="fill:#B7B2B8;" d="M400,160c-4.422,0-8,3.582-8,8v40h16v-40C408,163.582,404.422,160,400,160z"/>
	<path style="fill:#B7B2B8;" d="M88,176c-4.422,0-8,3.582-8,8v40h16v-40C96,179.582,92.422,176,88,176z"/>
</g>
<g>
	<rect x="216" y="264" style="fill:#867E88;" width="48" height="80"/>
	<rect x="152" y="280" style="fill:#867E88;" width="32" height="64"/>
	<rect x="328" y="248" style="fill:#867E88;" width="32" height="96"/>
</g>
<g>
	<path style="fill:#C9C6CA;" d="M104,344H40V224c0-4.418,3.582-8,8-8h48c4.418,0,8,3.582,8,8V344z"/>
	<path style="fill:#C9C6CA;" d="M408,248v96h64v-88c0-4.418-3.582-8-8-8H408z"/>
</g>
<g>
	<path style="fill:#9C969E;" d="M152,248v96H88v-88c0-4.418,3.582-8,8-8H152z"/>
	<path style="fill:#9C969E;" d="M176,256v88h48v-88c0-4.418-3.582-8-8-8h-32C179.582,248,176,251.582,176,256z"/>
	<path style="fill:#9C969E;" d="M360,200v144h56V208c0-4.418-3.582-8-8-8H360z"/>
</g>
<path style="fill:#C9C6CA;" d="M256,240v104h80V240c0-4.418-3.582-8-8-8h-64C259.582,232,256,235.582,256,240z"/>
<path style="fill:#DBD9DC;" d="M504,352H8c-4.418,0-8-3.582-8-8l0,0c0-4.418,3.582-8,8-8h496c4.418,0,8,3.582,8,8l0,0
	C512,348.418,508.418,352,504,352z"/>
<path style="fill:#6F6571;" d="M344,72H168c-13.255,0-24,10.745-24,24v320c0,13.255,10.745,24,24,24h176c13.255,0,24-10.745,24-24
	V96C368,82.745,357.255,72,344,72z M352,368c0,4.418-3.582,8-8,8H168c-4.418,0-8-3.582-8-8V144c0-4.418,3.582-8,8-8h176
	c4.418,0,8,3.582,8,8V368z"/>
<g>
	<path style="fill:#5D5360;" d="M272,112h-32c-4.422,0-8-3.582-8-8s3.578-8,8-8h32c4.422,0,8,3.582,8,8S276.422,112,272,112z"/>
	<circle style="fill:#5D5360;" cx="256" cy="408" r="16"/>
</g>
<path style="fill:#99E9DF;" d="M207.144,168h-14.287c-7.97,0-15.358,5.446-16.637,13.313c-1.336,8.215,3.59,15.516,10.76,17.884
	c3.127,1.033,5.021,4.236,5.021,7.53V216c0,4.418,3.578,8,8,8s8-3.582,8-8v-9.274c0-3.293,1.893-6.497,5.021-7.53
	c7.17-2.368,12.097-9.669,10.76-17.884C222.501,173.446,215.114,168,207.144,168z"/>
<path style="fill:#CCF4EF;" d="M320,200h-48c-8.837,0-16-7.163-16-16l0,0c0-8.837,7.163-16,16-16h48c8.837,0,16,7.163,16,16l0,0
	C336,192.837,328.837,200,320,200z"/>
<path style="fill:#5D5360;" d="M176,416v-40h-8c-4.418,0-8-3.582-8-8V144c0-4.418,3.582-8,8-8h8V96c0-13.255,10.745-24,24-24h-32
	c-13.255,0-24,10.745-24,24v320c0,13.255,10.745,24,24,24h32C186.745,440,176,429.255,176,416z"/>
<g>
</g>
<g>
</g>
<g>
</g>
<g>
</g>
<g>
</g>
<g>
</g>
<g>
</g>
<g>
</g>
<g>
</g>
<g>
</g>
<g>
</g>
<g>
</g>
<g>
</g>
<g>
</g>
<g>
</g>
</svg>
