<?xml version="1.0" encoding="iso-8859-1"?>
<!-- Generator: Adobe Illustrator 19.0.0, SVG Export Plug-In . SVG Version: 6.00 Build 0)  -->
<svg version="1.1" id="Capa_1" xmlns="http://www.w3.org/2000/svg" xmlns:xlink="http://www.w3.org/1999/xlink" x="0px" y="0px"
	 viewBox="0 0 512 512" style="enable-background:new 0 0 512 512;" xml:space="preserve">
<path style="fill:#EDEBED;" d="M478.809,285.363c-0.998-11.603-7.203-21.763-16.248-28.612l2.555-10.876
	c13.097-56.246,1.653-126.968-35.694-138.52c-6.48-2.005-12.518-2.51-18.119-1.704l0.781-5.489
	c1.972-12.159,0.298-19.509-3.944-29.942c-7.648-18.81-24.116-33.428-44.186-36.508c-8.713-1.337-17.271-0.659-25.264,1.699
	l-2.469-7.688C330.454,11.141,314.809,0,297.293,0c-16.537,0-30.836,9.774-37.423,23.849c-1.539,3.29-6.196,3.29-7.735,0
	C245.548,9.774,231.249,0,214.712,0c-17.5,0-33.137,11.129-38.919,27.69l-2.711,7.622c-5.187-1.502-10.62-2.28-16.176-2.28
	c-31.871,0-57.806,25.931-57.806,57.806c0,2.448,0.153,4.903,0.46,7.298l-0.016,0.153l1.015,7.335
	c-5.559-0.773-11.547-0.255-17.967,1.73c-37.153,11.488-48.71,81.948-35.839,138l2.439,11.06
	c-9.784,7.557-16.157,19.327-16.157,32.617c0,16.629,9.895,31.565,25.218,38.044c-5.694,8.274-8.702,17.964-8.702,28.02
	c0,24.504,17.894,44.852,41.29,48.802v5.586c0,26.965,14.874,52.442,39.414,63.618c17.353,7.904,35.316,7.351,50.977,1.129
	l0.972,6.146C184.93,498.407,200.68,512,218.841,512c14.637,0,27.324-8.505,33.379-20.833c1.492-3.039,6.073-3.039,7.565,0
	C265.84,503.495,278.527,512,293.164,512c18.161,0,33.911-13.593,36.637-31.621l1.027-6.123c17.217,6.819,37.233,6.802,56.064-3.801
	c21.649-12.189,34.272-35.887,34.272-60.731v-5.848c20.978-3.474,38.06-20.901,40.847-42.085
	c1.613-12.286-1.323-24.613-8.258-34.714C470.293,320.077,480.357,303.315,478.809,285.363z"/>
<g>
	<path style="fill:#DBD9DC;" d="M305.551,338.581h-99.097c-18.243,0-33.032-14.789-33.032-33.032v-99.097
		c0-18.243,14.789-33.032,33.032-33.032h99.097c18.243,0,33.032,14.789,33.032,33.032v99.097
		C338.583,323.792,323.794,338.581,305.551,338.581z"/>
	<path style="fill:#DBD9DC;" d="M200.591,49.532c2.282,0,4.565-0.944,6.194-2.794c3.016-3.423,2.685-8.641-0.734-11.657
		c-7.78-6.862-16.858-11.889-26.583-14.987c-1.437,2.392-2.73,4.889-3.675,7.596l-2.711,7.622c-0.149-0.043-0.307-0.056-0.457-0.098
		c8.265,2.332,15.966,6.484,22.507,12.254C196.696,48.851,198.648,49.532,200.591,49.532z"/>
	<path style="fill:#DBD9DC;" d="M252.135,23.848c-1.195-2.553-2.721-4.902-4.391-7.14v53.485c0,20.492-16.669,37.161-37.161,37.161
		c-12.073,0-23.444-5.903-30.411-15.794c-2.621-3.73-7.79-4.625-11.508-1.992c-3.726,2.629-4.621,7.778-1.992,11.508
		c10.065,14.274,26.476,22.794,43.911,22.794c14.422,0,27.507-5.746,37.161-15.034v296.721
		c-10.502-10.737-25.122-17.429-41.29-17.429v-8.258c0-19.726-11.685-37.56-29.774-45.444c-4.202-1.839-9.056,0.093-10.871,4.274
		c-1.823,4.181,0.097,9.048,4.274,10.871c12.065,5.254,19.855,17.145,19.855,30.298v10.758
		c-12.789,3.811-24.052,11.901-31.653,23.343c-2.524,3.798-1.492,8.923,2.306,11.448c3.798,2.508,8.927,1.492,11.452-2.31
		c7.685-11.56,20.548-18.464,34.411-18.464c22.766,0,41.29,18.524,41.29,41.29v52.104c1.713-2.129,3.26-4.397,4.475-6.872
		c1.492-3.039,6.073-3.039,7.566,0c1.216,2.475,2.763,4.743,4.475,6.872V16.709c-1.67,2.237-3.196,4.587-4.391,7.14
		C258.331,27.138,253.674,27.138,252.135,23.848z"/>
	<path style="fill:#DBD9DC;" d="M74.325,231.226c-10.507,0-20.339,2.862-28.839,7.783c0.411,2.121,0.787,4.261,1.266,6.346
		l2.519,11.256c6.968-5.431,15.554-8.868,25.054-8.868c4.565,0,8.258-3.698,8.258-8.258S78.89,231.226,74.325,231.226z"/>
	<path style="fill:#DBD9DC;" d="M127.406,395.766c-8.323,5.81-18.113,8.879-28.306,8.879c-2.819,0-5.566-0.291-8.258-0.746v5.586
		c0,3.797,0.367,7.545,0.943,11.247c2.405,0.267,4.841,0.429,7.316,0.429c13.589,0,26.645-4.097,37.758-11.847
		c3.742-2.613,4.653-7.758,2.048-11.5S131.164,393.149,127.406,395.766z"/>
	<path style="fill:#DBD9DC;" d="M208.293,454.423c-7.277,8.999-16.63,15.696-27.058,19.827l0.97,6.129
		c0.537,3.554,1.707,6.865,3.175,10.005c13.825-5.07,26.202-13.767,35.752-25.574c2.871-3.548,2.323-8.746-1.226-11.613
		C216.349,450.323,211.148,450.883,208.293,454.423z"/>
	<path style="fill:#DBD9DC;" d="M198.196,222.968c0,4.56,3.694,8.258,8.258,8.258s8.258-3.698,8.258-8.258
		c0-31.526-22.214-57.926-51.801-64.471c-3.888-15.885-13.92-45.571-36.924-60.661c-8.151-5.34-17.126-8.274-26.787-8.964
		c-0.022,0.658-0.1,1.303-0.1,1.967c0,2.448,0.153,4.903,0.46,7.298l-0.016,0.153l1.005,7.259c5.872,0.784,11.301,2.78,16.334,6.073
		c16.015,10.477,24.426,31.328,28.503,45.439c-16.164,0.788-31.327,7.312-42.97,18.714c-3.258,3.19-3.306,8.419-0.121,11.677
		c3.202,3.262,8.419,3.306,11.685,0.121c9.315-9.125,21.629-14.153,34.669-14.153C175.97,173.419,198.196,195.645,198.196,222.968z"
		/>
	<path style="fill:#DBD9DC;" d="M294.204,456.31c-3.395,3.044-3.685,8.262-0.645,11.661c9.105,10.17,20.539,17.723,33.098,22.341
		c1.451-3.119,2.61-6.406,3.144-9.934l1.027-6.123c0.084,0.033,0.172,0.054,0.257,0.087c-9.547-3.734-18.241-9.594-25.219-17.388
		C302.825,453.56,297.599,453.266,294.204,456.31z"/>
	<path style="fill:#DBD9DC;" d="M391.846,399.904c3.854-5.518,6.619-11.726,7.971-18.392c0.903-4.468-1.984-8.827-6.452-9.734
		c-4.508-0.931-8.831,1.984-9.742,6.452c-1.282,6.351-4.395,12.137-9,16.742c-12.484,12.476-34.234,12.476-46.718,0
		c-3.226-3.226-8.452-3.226-11.677,0c-3.226,3.222-3.226,8.452,0,11.677c9.355,9.359,21.798,14.512,35.032,14.512
		c10.379,0,20.247-3.211,28.549-9.093c10.054,5.851,21.335,9.093,33.096,9.093c2.482,0,4.924-0.164,7.336-0.432
		c0.552-3.627,0.922-7.293,0.922-11.006v-5.825c-2.692,0.455-5.439,0.746-8.258,0.746
		C405.535,404.645,398.395,402.989,391.846,399.904z"/>
	<path style="fill:#DBD9DC;" d="M437.68,231.226c-4.565,0-8.258,3.698-8.258,8.258s3.694,8.258,8.258,8.258
		c9.422,0,18.013,3.297,24.969,8.63l2.466-10.497c0.526-2.259,0.946-4.572,1.393-6.872
		C458.01,234.086,448.182,231.226,437.68,231.226z"/>
	<path style="fill:#DBD9DC;" d="M297.736,83.601c2.906-23.292,19.571-41.944,41.213-48.253c-0.086,0.025-0.175,0.037-0.261,0.062
		l-2.469-7.688c-0.946-2.718-2.241-5.226-3.682-7.627c-26.938,8.613-47.536,32.16-51.189,61.465
		c-0.565,4.524,2.645,8.649,7.169,9.214C293.091,91.335,297.18,88.125,297.736,83.601z"/>
	<path style="fill:#DBD9DC;" d="M393.002,112.931c5.335-4.485,11.413-6.931,18.323-7.443l0.758-5.327
		c0.689-4.249,0.787-7.826,0.632-11.237c-11.393,0.257-21.574,3.992-30.341,11.362c-3.492,2.935-3.944,8.145-1.008,11.637
		C384.301,115.411,389.502,115.863,393.002,112.931z"/>
</g>
<g>
	<rect x="123.87" y="247.74" style="fill:#C9C6CA;" width="264.26" height="16.516"/>
	<path style="fill:#C9C6CA;" d="M355.099,222.968H156.906c-4.561,0-8.258-3.697-8.258-8.258l0,0c0-4.561,3.697-8.258,8.258-8.258
		H355.1c4.561,0,8.258,3.697,8.258,8.258l0,0C363.357,219.27,359.66,222.968,355.099,222.968z"/>
	<path style="fill:#C9C6CA;" d="M355.099,305.548H156.906c-4.561,0-8.258-3.697-8.258-8.258l0,0c0-4.561,3.697-8.258,8.258-8.258
		H355.1c4.561,0,8.258,3.697,8.258,8.258l0,0C363.357,301.851,359.66,305.548,355.099,305.548z"/>
</g>
<path style="fill:#B7B2B8;" d="M305.551,322.065h-99.097c-9.122,0-16.516-7.395-16.516-16.516v-99.097
	c0-9.122,7.395-16.516,16.516-16.516h99.097c9.122,0,16.516,7.395,16.516,16.516v99.097
	C322.067,314.67,314.672,322.065,305.551,322.065z"/>
<circle style="fill:#99E9DF;" cx="123.87" cy="256" r="16.516"/>
<path style="fill:#4BD7C8;" d="M289.035,297.29H222.97c-4.561,0-8.258-3.697-8.258-8.258v-66.065c0-4.561,3.697-8.258,8.258-8.258
	h66.065c4.561,0,8.258,3.697,8.258,8.258v66.065C297.293,293.593,293.596,297.29,289.035,297.29z"/>
<g>
	<rect x="231.23" y="231.23" style="fill:#99E9DF;" width="49.548" height="49.548"/>
	<circle style="fill:#99E9DF;" cx="388.13" cy="256" r="16.516"/>
</g>
<g>
</g>
<g>
</g>
<g>
</g>
<g>
</g>
<g>
</g>
<g>
</g>
<g>
</g>
<g>
</g>
<g>
</g>
<g>
</g>
<g>
</g>
<g>
</g>
<g>
</g>
<g>
</g>
<g>
</g>
</svg>
