<?xml version="1.0" encoding="iso-8859-1"?>
<!-- Generator: Adobe Illustrator 19.0.0, SVG Export Plug-In . SVG Version: 6.00 Build 0)  -->
<svg version="1.1" id="Capa_1" xmlns="http://www.w3.org/2000/svg" xmlns:xlink="http://www.w3.org/1999/xlink" x="0px" y="0px"
	 viewBox="0 0 512 512" style="enable-background:new 0 0 512 512;" xml:space="preserve">
<path style="fill:#E5F9FF;" d="M256,496L256,496c-22.091,0-40-17.909-40-40V352h80v104C296,478.091,278.091,496,256,496z"/>
<path style="fill:#FFFFFF;" d="M256,408L256,408c-13.255,0-24-10.745-24-24v-32h48v32C280,397.255,269.255,408,256,408z"/>
<path style="fill:#C9C6CA;" d="M424,168c-4.422,0-8,3.582-8,8v40h16v-40C432,171.582,428.422,168,424,168z"/>
<path style="fill:#9C969E;" d="M392,280V160c0-4.418-3.582-8-8-8h-56v128H392z"/>
<path style="fill:#C9C6CA;" d="M176,104c-4.422,0-8,3.582-8,8v40h16v-40C184,107.582,180.422,104,176,104z"/>
<path style="fill:#99E9DF;" d="M224,272h-80V160c0-4.418,3.582-8,8-8h72V272z"/>
<path style="fill:#9C969E;" d="M104,280h72v-56c0-4.418-3.582-8-8-8h-64V280z"/>
<path style="fill:#99E7FF;" d="M40,280h72v-72c0-4.418-3.582-8-8-8H48c-4.418,0-8,3.582-8,8V280z"/>
<path style="fill:#59D8FF;" d="M256,40l-43.314,43.314c-3.001,3.001-4.686,7.07-4.686,11.314V280h48V40z"/>
<path style="fill:#C9C6CA;" d="M256,0c-4.422,0-8,3.582-8,8v264h16V8C264,3.582,260.422,0,256,0z"/>
<path style="fill:#867E88;" d="M296,280h-56V120c0-4.418,3.582-8,8-8h48V280z"/>
<path style="fill:#DBD9DC;" d="M176,312l19.578,39.155c2.71,5.42,8.25,8.845,14.311,8.845h92.223c6.061,0,11.601-3.424,14.311-8.845
	L336,312H176z"/>
<path style="fill:#B7B2B8;" d="M24,280l11.578,23.155c2.71,5.42,8.25,8.845,14.311,8.845h412.223c6.061,0,11.601-3.424,14.311-8.845
	L488,280H24z"/>
<path style="fill:#AEA8AF;" d="M187.578,303.155L176,280H24l11.578,23.155c2.71,5.42,8.25,8.845,14.311,8.845h152
	C195.828,312,190.288,308.576,187.578,303.155z"/>
<path style="fill:#C9C6CA;" d="M239.109,328H328l8-16H176l19.578,39.155c2.71,5.421,8.251,8.845,14.311,8.845H240l-9.243-18.486
	C227.652,335.305,232.167,328,239.109,328z"/>
<path style="fill:#99E9DF;" d="M296,80v192h40V119.69c0-4.861-2.209-9.458-6.005-12.494L296,80z"/>
<path style="fill:#99E7FF;" d="M256,512c-4.422,0-8-3.578-8-8V392c0-4.422,3.578-8,8-8s8,3.578,8,8v112
	C264,508.422,260.422,512,256,512z"/>
<path style="fill:#CCF3FF;" d="M296,472c-4.422,0-8-3.578-8-8v-16c0-4.422,3.578-8,8-8s8,3.578,8,8v16
	C304,468.422,300.422,472,296,472z"/>
<path style="fill:#99E7FF;" d="M296,424c-4.422,0-8-3.578-8-8v-24c0-4.422,3.578-8,8-8s8,3.578,8,8v24
	C304,420.422,300.422,424,296,424z"/>
<path style="fill:#CCF3FF;" d="M216,472c-4.422,0-8-3.578-8-8v-16c0-4.422,3.578-8,8-8s8,3.578,8,8v16
	C224,468.422,220.422,472,216,472z"/>
<path style="fill:#99E7FF;" d="M216,424c-4.422,0-8-3.578-8-8v-24c0-4.422,3.578-8,8-8s8,3.578,8,8v24
	C224,420.422,220.422,424,216,424z"/>
<path style="fill:#C9C6CA;" d="M304,272h-16V56c0-4.418,3.582-8,8-8l0,0c4.418,0,8,3.582,8,8V272z"/>
<path style="fill:#99E7FF;" d="M368,280h104v-56c0-4.418-3.582-8-8-8h-88c-4.418,0-8,3.582-8,8V280z"/>
<path style="fill:#C9C6CA;" d="M504,288H8c-4.422,0-8-3.578-8-8s3.578-8,8-8h496c4.422,0,8,3.578,8,8S508.422,288,504,288z"/>
<path style="fill:#B7B2B8;" d="M168,280c0-4.422,3.578-8,8-8H8c-4.422,0-8,3.578-8,8s3.578,8,8,8h168
	C171.578,288,168,284.422,168,280z"/>
<g>
</g>
<g>
</g>
<g>
</g>
<g>
</g>
<g>
</g>
<g>
</g>
<g>
</g>
<g>
</g>
<g>
</g>
<g>
</g>
<g>
</g>
<g>
</g>
<g>
</g>
<g>
</g>
<g>
</g>
</svg>
