<?xml version="1.0" encoding="iso-8859-1"?>
<!-- Generator: Adobe Illustrator 19.0.0, SVG Export Plug-In . SVG Version: 6.00 Build 0)  -->
<svg version="1.1" id="Capa_1" xmlns="http://www.w3.org/2000/svg" xmlns:xlink="http://www.w3.org/1999/xlink" x="0px" y="0px"
	 viewBox="0 0 512 512" style="enable-background:new 0 0 512 512;" xml:space="preserve">
<path style="fill:#EDEBED;" d="M256,152c-72.207,0-137.84,33.479-186.72,88.109c-8.05,8.997-8.05,22.785,0,31.782
	C118.16,326.521,183.793,360,256,360s137.84-33.479,186.72-88.109c8.05-8.997,8.05-22.785,0-31.782
	C393.84,185.479,328.207,152,256,152z"/>
<circle style="fill:#AEA8AF;" cx="256" cy="256" r="72"/>
<path style="fill:#9C969E;" d="M292,292c-39.765,0-72-32.236-72-72c0-10.559,2.328-20.555,6.411-29.589
	C201.421,201.705,184,226.794,184,256c0,39.764,32.235,72,72,72c29.206,0,54.295-17.421,65.589-42.411
	C312.555,289.671,302.558,292,292,292z"/>
<circle style="fill:#6F6571;" cx="256" cy="256" r="36"/>
<g>
	<path style="fill:#59D8FF;" d="M504,152c-4.422,0-8-3.582-8-8V88h-56c-4.422,0-8-3.582-8-8s3.578-8,8-8h56c8.82,0,16,7.176,16,16
		v56C512,148.418,508.422,152,504,152z"/>
	<path style="fill:#59D8FF;" d="M8,152c-4.422,0-8-3.582-8-8V88c0-8.824,7.18-16,16-16h56c4.422,0,8,3.582,8,8s-3.578,8-8,8H16v56
		C16,148.418,12.422,152,8,152z"/>
	<path style="fill:#59D8FF;" d="M72,440H16c-8.82,0-16-7.176-16-16v-56c0-4.418,3.578-8,8-8s8,3.582,8,8v56h56c4.422,0,8,3.582,8,8
		S76.422,440,72,440z"/>
	<path style="fill:#59D8FF;" d="M496,440h-56c-4.422,0-8-3.582-8-8s3.578-8,8-8h56v-56c0-4.418,3.578-8,8-8s8,3.582,8,8v56
		C512,432.824,504.82,440,496,440z"/>
</g>
<path style="fill:#99E7FF;" d="M408,88h-96c-4.422,0-8-3.582-8-8s3.578-8,8-8h96c4.422,0,8,3.582,8,8S412.422,88,408,88z"/>
<g>
	<path style="fill:#CCF3FF;" d="M280,88h-16c-4.422,0-8-3.582-8-8s3.578-8,8-8h16c4.422,0,8,3.582,8,8S284.422,88,280,88z"/>
	<path style="fill:#CCF3FF;" d="M408,120h-64c-4.422,0-8-3.582-8-8s3.578-8,8-8h64c4.422,0,8,3.582,8,8S412.422,120,408,120z"/>
</g>
<g>
	<path style="fill:#99E7FF;" d="M216,440H104c-4.422,0-8-3.582-8-8s3.578-8,8-8h112c4.422,0,8,3.582,8,8S220.422,440,216,440z"/>
	<path style="fill:#99E7FF;" d="M136,408h-32c-4.422,0-8-3.582-8-8s3.578-8,8-8h32c4.422,0,8,3.582,8,8S140.422,408,136,408z"/>
</g>
<path style="fill:#CCF3FF;" d="M184,408h-16c-4.422,0-8-3.582-8-8s3.578-8,8-8h16c4.422,0,8,3.582,8,8S188.422,408,184,408z"/>
<path style="fill:#99E7FF;" d="M40,152c-4.422,0-8-3.582-8-8v-32c0-4.418,3.578-8,8-8s8,3.582,8,8v32C48,148.418,44.422,152,40,152z
	"/>
<path style="fill:#CCF3FF;" d="M72,136c-4.422,0-8-3.582-8-8v-16c0-4.418,3.578-8,8-8s8,3.582,8,8v16C80,132.418,76.422,136,72,136z
	"/>
<g>
	<circle style="fill:#99E7FF;" cx="456" cy="384" r="16"/>
	<path style="fill:#99E7FF;" d="M384,264H128c-4.422,0-8-3.582-8-8s3.578-8,8-8h256c4.422,0,8,3.582,8,8S388.422,264,384,264z"/>
</g>
<g>
</g>
<g>
</g>
<g>
</g>
<g>
</g>
<g>
</g>
<g>
</g>
<g>
</g>
<g>
</g>
<g>
</g>
<g>
</g>
<g>
</g>
<g>
</g>
<g>
</g>
<g>
</g>
<g>
</g>
</svg>
