<?xml version="1.0" encoding="iso-8859-1"?>
<!-- Generator: Adobe Illustrator 19.0.0, SVG Export Plug-In . SVG Version: 6.00 Build 0)  -->
<svg version="1.1" id="Capa_1" xmlns="http://www.w3.org/2000/svg" xmlns:xlink="http://www.w3.org/1999/xlink" x="0px" y="0px"
	 viewBox="0 0 512.001 512.001" style="enable-background:new 0 0 512.001 512.001;" xml:space="preserve">
<path style="fill:#CCF4EF;" d="M211.328,308.666c-2.047,0-4.094-0.781-5.656-2.344c-3.125-3.125-3.125-8.188,0-11.313l46.609-46.613
	c3.125-3.125,8.188-3.125,11.313,0c3.125,3.125,3.125,8.188,0,11.313l-46.609,46.613
	C215.422,307.885,213.375,308.666,211.328,308.666z"/>
<path style="fill:#CCF3FF;" d="M390.436,357.486c-3.531,0-6.766-2.359-7.719-5.934l-17.211-64.238
	c-1.141-4.27,1.391-8.656,5.656-9.797c4.266-1.148,8.656,1.387,9.797,5.656l17.211,64.238c1.141,4.27-1.391,8.656-5.656,9.797
	C391.819,357.396,391.124,357.486,390.436,357.486z"/>
<path style="fill:#CCF4EF;" d="M335.624,432.966c-2.047,0-4.094-0.781-5.656-2.344c-3.125-3.125-3.125-8.188,0-11.313l46.609-46.613
	c3.125-3.125,8.188-3.125,11.313,0c3.125,3.125,3.125,8.188,0,11.313l-46.609,46.613
	C339.718,432.185,337.671,432.966,335.624,432.966z"/>
<path style="fill:#EDEBED;" d="M307.265,441.313c-0.688,0-1.383-0.09-2.078-0.277l-65.218-17.477
	c-4.266-1.145-6.797-5.531-5.656-9.797c1.141-4.27,5.547-6.801,9.797-5.656l65.218,17.477c4.266,1.145,6.797,5.531,5.656,9.797
	C314.03,438.954,310.796,441.313,307.265,441.313z"/>
<path style="fill:#CCF3FF;" d="M221.609,406.587c-3.531,0-6.766-2.359-7.719-5.934l-18.594-69.386
	c-1.141-4.266,1.391-8.652,5.656-9.797c4.266-1.141,8.656,1.387,9.797,5.656l18.594,69.386c1.141,4.266-1.391,8.652-5.656,9.797
	C222.992,406.497,222.297,406.587,221.609,406.587z"/>
<path style="fill:#CCF4EF;" d="M176.367,467.923c-2.047,0-4.094-0.781-5.656-2.344c-3.125-3.125-3.125-8.188,0-11.313l38.844-38.844
	c3.125-3.125,8.188-3.125,11.313,0c3.125,3.125,3.125,8.188,0,11.313l-38.844,38.844
	C180.461,467.142,178.414,467.923,176.367,467.923z"/>
<path style="fill:#CCF3FF;" d="M340.851,512.001c-3.531,0-6.758-2.359-7.719-5.934l-13.664-50.988
	c-1.141-4.266,1.391-8.652,5.656-9.797c4.281-1.148,8.648,1.387,9.797,5.656l13.664,50.988c1.141,4.266-1.391,8.652-5.656,9.797
	C342.233,511.911,341.538,512.001,340.851,512.001z"/>
<path style="fill:#867E88;" d="M183.086,317.045c-0.688,0-1.383-0.09-2.078-0.277l-50.781-13.605
	c-4.266-1.141-6.797-5.527-5.656-9.797c1.141-4.27,5.555-6.805,9.797-5.656l50.781,13.605c4.266,1.141,6.797,5.527,5.656,9.797
	C189.852,314.686,186.617,317.045,183.086,317.045z"/>
<path style="fill:#EDEBED;" d="M461.279,391.587c-0.688,0-1.383-0.09-2.078-0.277l-51.016-13.668
	c-4.266-1.141-6.797-5.527-5.656-9.797c1.141-4.27,5.547-6.785,9.797-5.656l51.016,13.668c4.266,1.141,6.797,5.527,5.656,9.797
	C468.045,389.229,464.81,391.587,461.279,391.587z"/>
<path style="fill:#CCF4EF;" d="M254.055,141.644c-2.047,0-4.094-0.781-5.656-2.344c-3.125-3.125-3.125-8.188,0-11.312l46.609-46.613
	c3.125-3.125,8.188-3.125,11.313,0c3.125,3.125,3.125,8.188,0,11.313l-46.609,46.613
	C258.148,140.862,256.102,141.644,254.055,141.644z"/>
<path style="fill:#EDEBED;" d="M393.64,104c-0.688,0-1.383-0.09-2.078-0.277l-64.039-17.156c-4.266-1.141-6.797-5.527-5.656-9.797
	c1.141-4.27,5.531-6.801,9.797-5.656l64.039,17.156c4.266,1.141,6.797,5.527,5.656,9.797C400.405,101.641,397.171,104,393.64,104z"
	/>
<path style="fill:#CCF3FF;" d="M433.162,190.46c-3.531,0-6.766-2.359-7.719-5.934l-16.219-60.535
	c-1.141-4.27,1.391-8.656,5.656-9.797c4.266-1.133,8.656,1.387,9.797,5.656l16.219,60.535c1.141,4.27-1.391,8.656-5.656,9.797
	C434.545,190.37,433.85,190.46,433.162,190.46z"/>
<path style="fill:#CCF4EF;" d="M378.351,265.944c-2.047,0-4.094-0.781-5.656-2.344c-3.125-3.125-3.125-8.188,0-11.313l46.609-46.613
	c3.125-3.125,8.188-3.125,11.313,0c3.125,3.125,3.125,8.188,0,11.313L384.008,263.6
	C382.444,265.163,380.397,265.944,378.351,265.944z"/>
<path style="fill:#EDEBED;" d="M349.991,274.287c-0.688,0-1.383-0.09-2.078-0.277l-65.218-17.473
	c-4.266-1.141-6.797-5.527-5.656-9.797c1.141-4.27,5.531-6.801,9.797-5.656l65.218,17.473c4.266,1.141,6.797,5.527,5.656,9.797
	C356.757,271.928,353.522,274.287,349.991,274.287z"/>
<path style="fill:#CCF3FF;" d="M263.016,234.632c-3.531,0-6.766-2.359-7.719-5.934l-17.266-64.452
	c-1.141-4.27,1.391-8.656,5.656-9.797c4.265-1.141,8.656,1.387,9.797,5.656l17.266,64.452c1.141,4.27-1.391,8.656-5.656,9.797
	C264.398,234.542,263.703,234.632,263.016,234.632z"/>
<path style="fill:#CCF4EF;" d="M421.076,98.918c-2.047,0-4.094-0.781-5.656-2.344c-3.125-3.125-3.125-8.188,0-11.313l38.844-38.844
	c3.125-3.125,8.188-3.125,11.313,0c3.125,3.125,3.125,8.188,0,11.313l-38.844,38.844C425.17,98.137,423.124,98.918,421.076,98.918z"
	/>
<path style="fill:#CCF3FF;" d="M309.124,67.129c-3.531,0-6.766-2.359-7.719-5.934l-13.695-51.125
	c-1.141-4.27,1.391-8.656,5.656-9.797c4.281-1.141,8.664,1.391,9.797,5.656l13.695,51.125c1.141,4.27-1.391,8.656-5.656,9.797
	C310.507,67.039,309.811,67.129,309.124,67.129z"/>
<path style="fill:#EDEBED;" d="M504.006,224.565c-0.688,0-1.383-0.09-2.078-0.277l-51.016-13.668
	c-4.266-1.141-6.797-5.527-5.656-9.797c1.141-4.266,5.539-6.785,9.797-5.656l51.016,13.668c4.266,1.141,6.797,5.527,5.656,9.797
	C510.771,222.206,507.537,224.565,504.006,224.565z"/>
<path style="fill:#CCF4EF;" d="M87.032,184.37c-2.047,0-4.094-0.781-5.656-2.344c-3.125-3.125-3.125-8.188,0-11.313l46.609-46.613
	c3.125-3.125,8.188-3.125,11.313,0c3.125,3.125,3.125,8.187,0,11.312l-46.609,46.613C91.126,183.589,89.079,184.37,87.032,184.37z"
	/>
<g>
	<path style="fill:#EDEBED;" d="M226.617,146.726c-0.688,0-1.383-0.09-2.078-0.277l-64.038-17.156
		c-4.266-1.141-6.797-5.527-5.656-9.797c1.141-4.266,5.555-6.789,9.797-5.656l64.038,17.156c4.266,1.141,6.797,5.527,5.656,9.797
		C233.383,144.366,230.148,146.726,226.617,146.726z"/>
	<path style="fill:#EDEBED;" d="M182.969,317.014c-0.688,0-1.383-0.09-2.078-0.277l-65.218-17.473
		c-4.266-1.141-6.797-5.527-5.656-9.797c1.141-4.266,5.531-6.789,9.797-5.656l65.218,17.473c4.266,1.141,6.797,5.527,5.656,9.797
		C189.734,314.654,186.5,317.014,182.969,317.014z"/>
</g>
<path style="fill:#CCF3FF;" d="M95.993,277.357c-3.531,0-6.758-2.359-7.719-5.934l-17.273-64.452
	c-1.141-4.266,1.391-8.652,5.656-9.797c4.273-1.152,8.648,1.387,9.797,5.656l17.273,64.453c1.141,4.266-1.391,8.652-5.656,9.797
	C97.376,277.268,96.681,277.357,95.993,277.357z"/>
<path style="fill:#CCF4EF;" d="M52.071,343.623c-2.047,0-4.094-0.781-5.656-2.344c-3.125-3.125-3.125-8.188,0-11.313l38.844-38.84
	c3.125-3.125,8.188-3.125,11.313,0c3.125,3.125,3.125,8.188,0,11.313l-38.844,38.84C56.165,342.842,54.118,343.623,52.071,343.623z"
	/>
<path style="fill:#CCF3FF;" d="M142.103,109.856c-3.531,0-6.766-2.359-7.719-5.934l-13.695-51.125
	c-1.141-4.27,1.391-8.656,5.656-9.797c4.273-1.152,8.664,1.387,9.797,5.656l13.695,51.125c1.141,4.27-1.391,8.656-5.656,9.797
	C143.485,109.766,142.79,109.856,142.103,109.856z"/>
<path style="fill:#EDEBED;" d="M58.79,192.749c-0.688,0-1.383-0.09-2.078-0.277L5.932,178.866c-4.266-1.141-6.797-5.527-5.656-9.797
	c1.141-4.266,5.539-6.793,9.797-5.656l50.781,13.605c4.266,1.141,6.797,5.527,5.656,9.797
	C65.556,190.39,62.321,192.749,58.79,192.749z"/>
<circle style="fill:#867E88;" cx="75.379" cy="188.019" r="20"/>
<path style="fill:#6F6571;" d="M69.075,194.326c-6.441-6.441-7.482-16.147-3.3-23.746c-1.615,0.889-3.168,1.931-4.538,3.3
	c-7.811,7.811-7.811,20.474,0,28.284s20.474,7.811,28.284,0c1.37-1.37,2.411-2.923,3.3-4.538
	C85.223,201.809,75.516,200.767,69.075,194.326z"/>
<circle style="fill:#867E88;" cx="145.299" cy="118.11" r="20"/>
<path style="fill:#6F6571;" d="M138.993,124.41c-6.441-6.441-7.482-16.147-3.3-23.746c-1.615,0.889-3.168,1.931-4.538,3.3
	c-7.811,7.811-7.811,20.474,0,28.284s20.474,7.811,28.284,0c1.37-1.37,2.411-2.923,3.3-4.538
	C155.141,131.892,145.433,130.851,138.993,124.41z"/>
<circle style="fill:#867E88;" cx="242.398" cy="145.299" r="20"/>
<path style="fill:#6F6571;" d="M236.098,151.6c-6.441-6.441-7.482-16.147-3.3-23.746c-1.615,0.889-3.168,1.931-4.538,3.3
	c-7.811,7.811-7.811,20.474,0,28.284s20.474,7.811,28.284,0c1.37-1.37,2.411-2.923,3.3-4.538
	C252.246,159.083,242.539,158.041,236.098,151.6z"/>
<circle style="fill:#867E88;" cx="312.317" cy="75.38" r="20"/>
<path style="fill:#6F6571;" d="M306.014,81.684c-6.441-6.441-7.482-16.147-3.3-23.746c-1.615,0.889-3.168,1.931-4.538,3.3
	c-7.811,7.811-7.811,20.474,0,28.284s20.474,7.811,28.284,0c1.37-1.37,2.411-2.923,3.3-4.538
	C322.162,89.166,312.455,88.125,306.014,81.684z"/>
<circle style="fill:#867E88;" cx="409.427" cy="102.57" r="20"/>
<path style="fill:#6F6571;" d="M403.122,108.874c-6.441-6.441-7.482-16.147-3.3-23.746c-1.615,0.889-3.168,1.931-4.538,3.3
	c-7.811,7.811-7.811,20.474,0,28.284s20.474,7.811,28.284,0c1.37-1.37,2.411-2.923,3.3-4.538
	C419.27,116.356,409.563,115.315,403.122,108.874z"/>
<circle style="fill:#867E88;" cx="436.616" cy="199.679" r="20"/>
<path style="fill:#6F6571;" d="M430.311,205.98c-6.441-6.441-7.482-16.147-3.3-23.746c-1.615,0.889-3.168,1.931-4.538,3.3
	c-7.811,7.811-7.811,20.474,0,28.284s20.474,7.811,28.284,0c1.37-1.37,2.411-2.923,3.3-4.538
	C446.459,213.463,436.752,212.421,430.311,205.98z"/>
<circle style="fill:#867E88;" cx="269.588" cy="242.409" r="20"/>
<path style="fill:#6F6571;" d="M263.288,248.708c-6.441-6.441-7.482-16.147-3.3-23.746c-1.615,0.889-3.168,1.931-4.538,3.3
	c-7.811,7.811-7.811,20.474,0,28.284c7.811,7.81,20.474,7.811,28.284,0c1.37-1.37,2.411-2.923,3.3-4.538
	C279.436,256.19,269.729,255.149,263.288,248.708z"/>
<circle style="fill:#867E88;" cx="366.697" cy="269.598" r="20"/>
<path style="fill:#6F6571;" d="M360.394,275.897c-6.441-6.441-7.482-16.147-3.3-23.746c-1.615,0.889-3.168,1.931-4.538,3.3
	c-7.811,7.811-7.811,20.474,0,28.284s20.474,7.811,28.284,0c1.37-1.37,2.411-2.923,3.3-4.538
	C376.542,283.379,366.835,282.338,360.394,275.897z"/>
<circle style="fill:#867E88;" cx="199.678" cy="312.318" r="20"/>
<path style="fill:#6F6571;" d="M193.37,318.624c-6.441-6.441-7.482-16.147-3.3-23.746c-1.615,0.889-3.168,1.931-4.538,3.3
	c-7.811,7.811-7.811,20.474,0,28.284s20.474,7.811,28.284,0c1.37-1.37,2.411-2.923,3.3-4.538
	C209.518,326.107,199.811,325.065,193.37,318.624z"/>
<circle style="fill:#867E88;" cx="102.569" cy="285.128" r="20"/>
<path style="fill:#6F6571;" d="M96.265,291.433c-6.441-6.441-7.482-16.147-3.3-23.746c-1.615,0.889-3.168,1.931-4.538,3.3
	c-7.811,7.811-7.811,20.474,0,28.284s20.474,7.811,28.284,0c1.37-1.37,2.411-2.923,3.3-4.538
	C112.413,298.915,102.706,297.874,96.265,291.433z"/>
<circle style="fill:#867E88;" cx="226.868" cy="409.427" r="20"/>
<path style="fill:#6F6571;" d="M220.561,415.731c-6.441-6.441-7.482-16.147-3.3-23.746c-1.615,0.889-3.168,1.931-4.538,3.3
	c-7.811,7.811-7.811,20.474,0,28.284s20.474,7.811,28.284,0c1.37-1.37,2.411-2.923,3.3-4.538
	C236.708,423.213,227.001,422.171,220.561,415.731z"/>
<circle style="fill:#867E88;" cx="323.967" cy="436.617" r="20"/>
<path style="fill:#6F6571;" d="M317.667,442.921c-6.441-6.441-7.482-16.147-3.3-23.746c-1.615,0.889-3.168,1.931-4.538,3.3
	c-7.811,7.811-7.811,20.474,0,28.284s20.474,7.811,28.284,0c1.37-1.37,2.411-2.923,3.3-4.538
	C333.815,450.403,324.108,449.362,317.667,442.921z"/>
<circle style="fill:#867E88;" cx="393.887" cy="366.698" r="20"/>
<path style="fill:#6F6571;" d="M387.584,373.004c-6.441-6.441-7.482-16.147-3.3-23.746c-1.615,0.889-3.168,1.931-4.538,3.3
	c-7.811,7.811-7.811,20.474,0,28.284s20.474,7.811,28.284,0c1.37-1.37,2.411-2.923,3.3-4.538
	C403.732,380.487,394.025,379.445,387.584,373.004z"/>
<g>
</g>
<g>
</g>
<g>
</g>
<g>
</g>
<g>
</g>
<g>
</g>
<g>
</g>
<g>
</g>
<g>
</g>
<g>
</g>
<g>
</g>
<g>
</g>
<g>
</g>
<g>
</g>
<g>
</g>
</svg>
