<?xml version="1.0" encoding="iso-8859-1"?>
<!-- Generator: Adobe Illustrator 19.0.0, SVG Export Plug-In . SVG Version: 6.00 Build 0)  -->
<svg version="1.1" id="Capa_1" xmlns="http://www.w3.org/2000/svg" xmlns:xlink="http://www.w3.org/1999/xlink" x="0px" y="0px"
	 viewBox="0 0 512 512" style="enable-background:new 0 0 512 512;" xml:space="preserve">
<polygon style="fill:#E5F9FF;" points="409.119,479.76 102.879,479.76 102.879,358.876 255.999,439.466 409.119,358.876 "/>
<path style="fill:#CCF3FF;" d="M102.879,350.821c-4.454,0-8.059,3.608-8.059,8.059v120.88h16.118V358.88
	C110.938,354.43,107.334,350.821,102.879,350.821z"/>
<path style="fill:#E5F9FF;" d="M102.879,334.703c-4.454,0-8.059-3.608-8.059-8.059v-16.118c0-4.451,3.604-8.059,8.059-8.059
	c4.454,0,8.059,3.608,8.059,8.059v16.118C110.938,331.095,107.334,334.703,102.879,334.703z"/>
<path style="fill:#CCF3FF;" d="M153.917,479.764c-4.454,0-8.059-3.608-8.059-8.059v-85.626c0-4.451,3.604-8.059,8.059-8.059
	s8.059,3.608,8.059,8.059v85.626C161.975,476.156,158.371,479.764,153.917,479.764z"/>
<path style="fill:#E5F9FF;" d="M153.917,361.902c-4.454,0-8.059-3.608-8.059-8.059v-16.118c0-4.451,3.604-8.059,8.059-8.059
	s8.059,3.608,8.059,8.059v16.118C161.975,358.294,158.371,361.902,153.917,361.902z"/>
<path style="fill:#CCF3FF;" d="M204.962,479.764c-4.454,0-8.059-3.608-8.059-8.059v-58.931c0-4.451,3.604-8.059,8.059-8.059
	c4.454,0,8.059,3.608,8.059,8.059v58.931C213.021,476.156,209.416,479.764,204.962,479.764z"/>
<path style="fill:#E5F9FF;" d="M204.962,388.598c-4.454,0-8.059-3.608-8.059-8.059v-16.118c0-4.451,3.604-8.059,8.059-8.059
	c4.454,0,8.059,3.608,8.059,8.059v16.118C213.021,384.989,209.416,388.598,204.962,388.598z"/>
<path style="fill:#CCF3FF;" d="M255.999,479.76c-4.454,0-8.059-3.608-8.059-8.059v-32.236c0-4.451,3.604-8.059,8.059-8.059
	c4.454,0,8.059,3.608,8.059,8.059v32.236C264.058,476.152,260.453,479.76,255.999,479.76z"/>
<path style="fill:#E5F9FF;" d="M255.999,415.293c-4.454,0-8.059-3.608-8.059-8.059v-16.122c0-4.451,3.604-8.059,8.059-8.059
	c4.454,0,8.059,3.608,8.059,8.059v16.122C264.058,411.684,260.453,415.293,255.999,415.293z"/>
<path style="fill:#CCF3FF;" d="M409.119,350.821c-4.454,0-8.059,3.608-8.059,8.059v120.88h16.118V358.88
	C417.178,354.43,413.573,350.821,409.119,350.821z"/>
<path style="fill:#E5F9FF;" d="M409.119,334.703c-4.454,0-8.059-3.608-8.059-8.059v-16.118c0-4.451,3.604-8.059,8.059-8.059
	c4.454,0,8.059,3.608,8.059,8.059v16.118C417.178,331.095,413.573,334.703,409.119,334.703z"/>
<path style="fill:#CCF3FF;" d="M358.081,479.764c-4.454,0-8.059-3.608-8.059-8.059v-85.626c0-4.451,3.604-8.059,8.059-8.059
	c4.454,0,8.059,3.608,8.059,8.059v85.626C366.14,476.156,362.536,479.764,358.081,479.764z"/>
<path style="fill:#E5F9FF;" d="M358.081,361.902c-4.454,0-8.059-3.608-8.059-8.059v-16.118c0-4.451,3.604-8.059,8.059-8.059
	c4.454,0,8.059,3.608,8.059,8.059v16.118C366.14,358.294,362.536,361.902,358.081,361.902z"/>
<path style="fill:#CCF3FF;" d="M307.036,479.764c-4.454,0-8.059-3.608-8.059-8.059v-58.931c0-4.451,3.604-8.059,8.059-8.059
	c4.454,0,8.059,3.608,8.059,8.059v58.931C315.095,476.156,311.491,479.764,307.036,479.764z"/>
<g>
	<path style="fill:#E5F9FF;" d="M307.036,388.598c-4.454,0-8.059-3.608-8.059-8.059v-16.118c0-4.451,3.604-8.059,8.059-8.059
		c4.454,0,8.059,3.608,8.059,8.059v16.118C315.095,384.989,311.491,388.598,307.036,388.598z"/>
	<path style="fill:#E5F9FF;" d="M255.999,32.222l-128.943,74.651V256.29l128.943,74.652l128.943-74.651V106.873L255.999,32.222z
		 M255.999,32.222L255.999,32.222L255.999,32.222L255.999,32.222z M243.887,11.299h0.079H243.887z"/>
</g>
<path style="fill:#CCF3FF;" d="M408.772,260.741l-144.715-83.786V12.346c0-4.451-3.604-8.059-8.059-8.059
	c-4.454,0-8.059,3.608-8.059,8.059v164.609l-144.715,83.786c-3.856,2.227-5.171,7.158-2.936,11.01
	c2.227,3.845,7.162,5.167,11.01,2.936l144.701-83.777l144.699,83.777c1.267,0.736,2.66,1.086,4.029,1.086
	c2.778,0,5.485-1.44,6.981-4.022C413.943,267.899,412.629,262.968,408.772,260.741z"/>
<path style="fill:#DBD9DC;" d="M419.405,476.158c-1.365-2.73-4.155-4.455-7.208-4.455H99.801c-3.053,0-5.843,1.725-7.208,4.455
	l-13.891,27.781h354.593L419.405,476.158z"/>
<path style="fill:#59D8FF;" d="M401.091,78.978L272.148,4.327c-9.964-5.769-22.335-5.769-32.299,0L110.907,78.974
	c-9.924,5.741-16.086,16.433-16.086,27.899V256.29c0,11.467,6.162,22.158,16.086,27.895l128.943,74.651
	c4.982,2.888,10.562,4.329,16.149,4.329s11.168-1.44,16.149-4.329l128.943-74.647c9.924-5.741,16.086-16.433,16.086-27.899V106.873
	C417.178,95.407,411.015,84.715,401.091,78.978z M247.924,18.272c2.495-1.44,5.281-2.164,8.075-2.164
	c2.794,0,5.58,0.724,8.075,2.164l128.943,74.655c0.004,0.002,0.008,0.007,0.012,0.009l-128.955,74.658
	c-4.99,2.88-11.16,2.88-16.149,0L118.966,92.935c0.006-0.003,0.009-0.008,0.015-0.012L247.924,18.272z M118.981,270.236
	c-4.958-2.869-8.043-8.212-8.043-13.946V106.908l128.911,74.632c2.564,1.487,5.29,2.575,8.09,3.295v160.062
	c-0.005-0.003-0.011-0.003-0.016-0.006L118.981,270.236z M393.017,270.24l-128.943,74.651c-0.005,0.003-0.011,0.003-0.016,0.006
	V184.836c2.801-0.72,5.526-1.808,8.09-3.295l128.911-74.633V256.29C401.06,262.024,397.975,267.367,393.017,270.24z"/>
<path style="fill:#C9C6CA;" d="M220.685,471.703H99.801c-3.053,0-5.843,1.725-7.208,4.455l-13.891,27.781h120.884l13.891-27.781
	C214.842,473.428,217.632,471.703,220.685,471.703z"/>
<path style="fill:#EDEBED;" d="M457.472,512H54.526c-4.454,0-8.059-3.608-8.059-8.059s3.604-8.059,8.059-8.059h402.947
	c4.454,0,8.059,3.608,8.059,8.059C465.531,508.392,461.927,512,457.472,512z"/>
<path style="fill:#DBD9DC;" d="M191.528,503.941c0-4.451,3.604-8.059,8.059-8.059H54.526c-4.454,0-8.059,3.608-8.059,8.059
	S50.071,512,54.526,512h145.061C195.132,512,191.528,508.392,191.528,503.941z"/>
<g>
</g>
<g>
</g>
<g>
</g>
<g>
</g>
<g>
</g>
<g>
</g>
<g>
</g>
<g>
</g>
<g>
</g>
<g>
</g>
<g>
</g>
<g>
</g>
<g>
</g>
<g>
</g>
<g>
</g>
</svg>
