<?xml version="1.0" encoding="iso-8859-1"?>
<!-- Generator: Adobe Illustrator 19.0.0, SVG Export Plug-In . SVG Version: 6.00 Build 0)  -->
<svg version="1.1" id="Capa_1" xmlns="http://www.w3.org/2000/svg" xmlns:xlink="http://www.w3.org/1999/xlink" x="0px" y="0px"
	 viewBox="0 0 512 512" style="enable-background:new 0 0 512 512;" xml:space="preserve">
<circle style="fill:#99E7FF;" cx="255.78" cy="146.29" r="113.78"/>
<circle style="fill:#CCF3FF;" cx="255.78" cy="146.29" r="89.39"/>
<circle style="fill:#FFFFFF;" cx="255.78" cy="146.29" r="48.761"/>
<path style="fill:#6F6571;" d="M291.02,300.924c-10.183-1.656-18.984,6.16-18.984,16.031V146.292c0-9.872-8.8-17.687-18.983-16.032
	c-7.992,1.299-13.525,8.804-13.525,16.901v137.287c0-9.872-8.8-17.687-18.983-16.032c-7.992,1.299-13.525,8.804-13.525,16.901
	v15.385c0-9.872-8.8-17.687-18.983-16.032c-7.992,1.299-13.525,8.804-13.525,16.901v15.385c0-9.872-8.8-17.687-18.983-16.032
	c-7.992,1.299-13.525,8.804-13.525,16.901v52.142c0,7.973,0.978,15.916,2.912,23.651l10.43,41.72
	c1.934,7.735,2.912,15.678,2.912,23.651v44.883c0,4.488,3.638,8.127,8.127,8.127h113.776c4.488,0,8.127-3.638,8.127-8.127v-38.056
	c0-7.115,0.779-14.209,2.322-21.154l11.609-52.242c1.544-6.946,2.322-14.041,2.322-21.157v-53.439
	C304.543,309.729,299.011,302.224,291.02,300.924z"/>
<path style="fill:#E5F9FF;" d="M333.471,268.683c-2.595,0-5.151-1.242-6.722-3.552c-2.532-3.706-1.571-8.762,2.135-11.289
	c4.198-2.861,8.278-6.004,12.119-9.337c3.389-2.932,8.524-2.583,11.46,0.813c2.944,3.389,2.579,8.52-0.81,11.464
	c-4.309,3.742-8.897,7.274-13.611,10.488C336.638,268.227,335.043,268.683,333.471,268.683z M174.49,266.147
	c-1.659,0-3.333-0.508-4.778-1.56c-4.627-3.373-9.095-7.051-13.278-10.928c-3.294-3.052-3.484-8.194-0.437-11.484
	c3.048-3.302,8.19-3.492,11.484-0.436c3.722,3.448,7.69,6.714,11.801,9.714c3.627,2.647,4.428,7.73,1.778,11.357
	C179.474,264.988,176.998,266.147,174.49,266.147z M368.161,234.799c-1.635,0-3.286-0.492-4.714-1.516
	c-3.659-2.611-4.5-7.686-1.889-11.337c2.96-4.147,5.714-8.504,8.167-12.944c2.159-3.925,7.103-5.357,11.039-3.186
	c3.928,2.171,5.357,7.115,3.182,11.043c-2.754,4.988-5.833,9.881-9.167,14.539C373.193,233.616,370.701,234.799,368.161,234.799z
	 M140.895,231.172c-2.619,0-5.19-1.262-6.762-3.603c-3.182-4.75-6.111-9.746-8.706-14.841c-2.04-4-0.452-8.893,3.548-10.932
	c4-2.056,8.897-0.444,10.928,3.552c2.309,4.528,4.913,8.956,7.738,13.174c2.492,3.726,1.5,8.778-2.23,11.274
	C144.022,230.727,142.451,231.172,140.895,231.172z M389.042,191.018c-0.714,0-1.444-0.095-2.167-0.298
	c-4.325-1.19-6.865-5.663-5.674-9.992c1.341-4.885,2.405-9.913,3.159-14.944c0.667-4.432,4.73-7.512,9.246-6.833
	c4.436,0.663,7.492,4.801,6.833,9.238c-0.849,5.675-2.056,11.345-3.571,16.857C395.875,188.649,392.605,191.018,389.042,191.018z
	 M121.42,186.744c-3.667,0-7-2.504-7.897-6.23c-1.325-5.52-2.341-11.218-3.016-16.928c-0.524-4.456,2.659-8.5,7.119-9.028
	c4.373-0.5,8.492,2.659,9.024,7.115c0.603,5.083,1.5,10.143,2.683,15.047c1.048,4.365-1.643,8.75-6.008,9.797
	C122.689,186.672,122.047,186.744,121.42,186.744z M393.439,142.701c-4.182,0-7.73-3.202-8.087-7.444
	c-0.429-5.059-1.159-10.151-2.175-15.131c-0.897-4.397,1.936-8.69,6.333-9.587c4.381-0.873,8.69,1.944,9.587,6.341
	c1.143,5.599,1.968,11.321,2.444,17.012c0.381,4.472-2.936,8.405-7.413,8.782C393.899,142.693,393.669,142.701,393.439,142.701z
	 M118.562,138.328c-0.31,0-0.627-0.016-0.936-0.052c-4.46-0.516-7.659-4.548-7.143-9.008c0.659-5.694,1.659-11.397,2.984-16.944
	c1.04-4.369,5.452-7.04,9.793-6.02c4.365,1.04,7.055,5.425,6.016,9.79c-1.175,4.921-2.063,9.98-2.651,15.039
	C126.15,135.277,122.634,138.328,118.562,138.328z M380.947,95.853c-3.063,0-5.992-1.73-7.373-4.682
	c-2.143-4.583-4.587-9.099-7.278-13.42c-2.365-3.809-1.198-8.821,2.611-11.19c3.817-2.369,8.825-1.198,11.198,2.611
	c3.024,4.865,5.778,9.948,8.198,15.111c1.897,4.067,0.143,8.905-3.921,10.805C383.272,95.607,382.097,95.853,380.947,95.853z
	 M132.546,91.892c-1.238,0-2.492-0.282-3.675-0.881c-4-2.032-5.595-6.924-3.563-10.924c2.595-5.115,5.516-10.111,8.682-14.853
	c2.492-3.734,7.524-4.754,11.278-2.246c3.73,2.492,4.738,7.54,2.246,11.27c-2.817,4.21-5.405,8.647-7.714,13.186
	C138.364,90.269,135.515,91.892,132.546,91.892z M352.987,56.246c-2.063,0-4.135-0.786-5.722-2.353
	c-3.603-3.567-7.46-6.968-11.476-10.103c-3.532-2.766-4.159-7.873-1.397-11.409c2.754-3.54,7.849-4.171,11.413-1.401
	c4.508,3.528,8.849,7.353,12.905,11.365c3.182,3.159,3.206,8.305,0.048,11.492C357.169,55.445,355.082,56.246,352.987,56.246z
	 M161.776,53.175c-2.182,0-4.357-0.873-5.96-2.599c-3.048-3.29-2.857-8.432,0.429-11.484c4.19-3.881,8.643-7.563,13.254-10.936
	c3.619-2.655,8.722-1.869,11.357,1.754c2.651,3.623,1.865,8.706-1.754,11.357c-4.103,3.008-8.071,6.282-11.793,9.738
	C165.736,52.457,163.76,53.175,161.776,53.175z M313.075,28.675c-1.127,0-2.27-0.238-3.365-0.734
	c-4.643-2.115-9.444-3.972-14.262-5.52c-4.278-1.369-6.635-5.944-5.262-10.218c1.373-4.27,5.96-6.643,10.214-5.258
	c5.428,1.738,10.833,3.825,16.055,6.202c4.079,1.861,5.881,6.682,4.024,10.766C319.114,26.905,316.162,28.675,313.075,28.675z
	 M202.521,26.905c-3.175,0-6.19-1.877-7.5-4.992c-1.73-4.143,0.222-8.905,4.365-10.635c5.278-2.21,10.738-4.123,16.23-5.69
	c4.325-1.214,8.817,1.274,10.047,5.591s-1.278,8.813-5.587,10.043c-4.881,1.389-9.73,3.087-14.42,5.048
	C204.632,26.699,203.569,26.905,202.521,26.905z M266.107,16.644c-0.198,0-0.405-0.008-0.611-0.024
	c-3.294-0.246-6.651-0.278-9.952-0.357c-1.794,0-3.571,0.04-5.341,0.115c-0.111,0.004-0.23,0.008-0.349,0.008
	c-4.325,0-7.928-3.417-8.111-7.782c-0.19-4.484,3.286-8.274,7.778-8.464c2.079-0.091,4.095-0.167,6.278-0.131
	c3.659,0,7.294,0.135,10.905,0.405c4.476,0.333,7.833,4.23,7.5,8.706C273.885,13.39,270.322,16.644,266.107,16.644z"/>
<g>
	<path style="fill:#5D5360;" d="M182.641,512c-4.489,0-8.127-3.639-8.127-8.127v-44.884c0-7.973-0.978-15.916-2.912-23.651
		l-10.43-41.72c-1.934-7.735-2.912-15.678-2.912-23.651v-52.141c0-6.109,3.154-11.872,8.133-14.896
		c-3.119-1.813-6.872-2.654-10.862-2.005c-7.992,1.3-13.525,8.804-13.525,16.901v52.141c0,7.973,0.978,15.916,2.912,23.651
		l10.43,41.72c1.934,7.735,2.912,15.678,2.912,23.651v44.884c0,4.488,3.638,8.127,8.127,8.127h113.776l0,0H182.641z"/>
	<path style="fill:#5D5360;" d="M182.641,325.083c4.489,0,8.127-3.639,8.127-8.127V284.53c-0.9-0.001-1.8-0.011-2.729,0.14
		c-7.992,1.3-13.525,8.804-13.525,16.901v15.385C174.514,321.444,178.152,325.083,182.641,325.083z"/>
	<path style="fill:#5D5360;" d="M215.148,316.956c4.489,0,8.127-3.639,8.127-8.127v-40.552c-0.9-0.001-1.8-0.011-2.729,0.14
		c-7.992,1.3-13.525,8.804-13.525,16.901v15.385v8.127C207.021,313.317,210.66,316.956,215.148,316.956z"/>
	<path style="fill:#5D5360;" d="M247.655,300.702c4.489,0,8.127-3.639,8.127-8.127V130.12c-0.9-0.001-1.8-0.011-2.729,0.14
		c-7.992,1.3-13.525,8.804-13.525,16.901v137.287v8.127C239.529,297.063,243.167,300.702,247.655,300.702z"/>
	<path style="fill:#5D5360;" d="M288.29,349.463v-48.679c-8.968,0.01-16.254,7.201-16.254,16.171v32.507
		c0,4.488,3.638,8.127,8.127,8.127C284.651,357.59,288.29,353.951,288.29,349.463z"/>
</g>
<g>
</g>
<g>
</g>
<g>
</g>
<g>
</g>
<g>
</g>
<g>
</g>
<g>
</g>
<g>
</g>
<g>
</g>
<g>
</g>
<g>
</g>
<g>
</g>
<g>
</g>
<g>
</g>
<g>
</g>
</svg>
