<?xml version="1.0" encoding="iso-8859-1"?>
<!-- Generator: Adobe Illustrator 19.0.0, SVG Export Plug-In . SVG Version: 6.00 Build 0)  -->
<svg version="1.1" id="Capa_1" xmlns="http://www.w3.org/2000/svg" xmlns:xlink="http://www.w3.org/1999/xlink" x="0px" y="0px"
	 viewBox="0 0 512 512" style="enable-background:new 0 0 512 512;" xml:space="preserve">
<path style="fill:#EDEBED;" d="M497.658,261.728c8.746,4.061,14.342,12.828,14.342,22.47v66.769l-231.226-33.032V161.032
	L497.658,261.728z"/>
<path style="fill:#C9C6CA;" d="M439.978,367.478h-4.612c-3.555,0-6.71-2.275-7.834-5.647l-5.105-15.316
	c-0.842-2.526-1.271-5.171-1.271-7.834v-53.784c0-9.122,7.395-16.516,16.516-16.516l0,0c9.122,0,16.516,7.395,16.516,16.516v53.784
	c0,2.663-0.429,5.308-1.271,7.834l-5.105,15.316C446.689,365.203,443.533,367.478,439.978,367.478z"/>
<g>
	<path style="fill:#DBD9DC;" d="M503.742,359.226L503.742,359.226c4.561,0,8.258-3.697,8.258-8.258v-57.806
		c0-4.561-3.697-8.258-8.258-8.258l0,0c-4.561,0-8.258,3.697-8.258,8.258v57.806C495.484,355.529,499.181,359.226,503.742,359.226z"
		/>
	<path style="fill:#DBD9DC;" d="M396.387,214.71v128c0,4.56-3.697,8.258-8.258,8.258s-8.258-3.698-8.258-8.258V207.041
		L396.387,214.71z"/>
</g>
<path style="fill:#B7B2B8;" d="M444.049,361.831l-5.105-15.316c-0.842-2.526-1.271-5.171-1.271-7.834v-53.784
	c0-6.098,3.342-11.364,8.258-14.225c-2.438-1.419-5.234-2.291-8.258-2.291c-9.121,0-16.516,7.394-16.516,16.516v53.784
	c0,2.662,0.429,5.307,1.271,7.834l5.105,15.316c1.124,3.372,4.28,5.647,7.834,5.647h4.612c2.33,0,4.425-1.045,5.952-2.668
	C445.128,363.957,444.436,362.993,444.049,361.831z"/>
<path style="fill:#9C969E;" d="M421.157,326.188v12.493c0,2.662,0.429,5.307,1.271,7.834l5.105,15.316
	c1.124,3.372,4.28,5.647,7.834,5.647h4.612c3.554,0,6.71-2.275,7.834-5.647l5.105-15.316c0.842-2.526,1.271-5.171,1.271-7.834
	v-12.493H421.157z"/>
<path style="fill:#867E88;" d="M444.049,361.831l-5.105-15.316c-0.842-2.526-1.271-5.171-1.271-7.834v-12.493h-16.516v12.493
	c0,2.662,0.429,5.307,1.271,7.834l5.105,15.316c1.124,3.372,4.28,5.647,7.834,5.647h4.612c2.33,0,4.425-1.045,5.952-2.668
	C445.128,363.957,444.436,362.993,444.049,361.831z"/>
<path style="fill:#EDEBED;" d="M14.342,261.728C5.595,265.789,0,274.556,0,284.199v66.769l231.226-33.032V161.032L14.342,261.728z"
	/>
<path style="fill:#867E88;" d="M305.548,209.164c0-4.381-1.74-8.582-4.838-11.679l-11.678-11.678l-5.603-28.014
	c-1.544-7.72-8.322-13.277-16.195-13.277h-22.469c-7.873,0-14.651,5.557-16.195,13.277l-5.603,28.014l-11.678,11.678
	c-3.098,3.097-4.838,7.298-4.838,11.679v108.772h8.258v33.032c0,9.121,7.395,16.516,16.516,16.516h49.548
	c9.121,0,16.516-7.395,16.516-16.516v-33.032h8.258V209.164H305.548z"/>
<path style="fill:#C9C6CA;" d="M76.628,367.484h-4.612c-3.555,0-6.71-2.275-7.834-5.647l-5.105-15.316
	c-0.842-2.526-1.271-5.171-1.271-7.833v-53.784c0-9.122,7.395-16.516,16.516-16.516l0,0c9.122,0,16.516,7.395,16.516,16.516v53.784
	c0,2.663-0.429,5.308-1.271,7.833l-5.105,15.316C83.339,365.209,80.183,367.484,76.628,367.484z"/>
<g>
	<path style="fill:#6F6571;" d="M297.29,334.452h-82.58c-4.561,0-8.258-3.697-8.258-8.258v-16.516c0-4.561,3.697-8.258,8.258-8.258
		h82.581c4.561,0,8.258,3.697,8.258,8.258v16.516C305.548,330.754,301.851,334.452,297.29,334.452z"/>
	<path style="fill:#6F6571;" d="M264.258,194.065h-16.516c-4.565,0-8.258-3.698-8.258-8.258s3.694-8.258,8.258-8.258h16.516
		c4.565,0,8.258,3.698,8.258,8.258S268.823,194.065,264.258,194.065z"/>
	<path style="fill:#6F6571;" d="M313.806,301.419H297.29c-4.561,0-8.258-3.697-8.258-8.258v-66.065c0-4.561,3.697-8.258,8.258-8.258
		h16.516c4.561,0,8.258,3.697,8.258,8.258v66.065C322.065,297.722,318.367,301.419,313.806,301.419z"/>
</g>
<path style="fill:#5D5360;" d="M305.548,293.161v-66.065c0-4.561,3.697-8.258,8.258-8.258H297.29c-4.561,0-8.258,3.697-8.258,8.258
	v66.065c0,4.56,3.697,8.258,8.258,8.258h16.516C309.245,301.419,305.548,297.722,305.548,293.161z"/>
<path style="fill:#6F6571;" d="M214.71,301.419h-16.516c-4.561,0-8.258-3.697-8.258-8.258v-66.065c0-4.561,3.697-8.258,8.258-8.258
	h16.516c4.561,0,8.258,3.697,8.258,8.258v66.065C222.968,297.722,219.27,301.419,214.71,301.419z"/>
<g>
	<path style="fill:#5D5360;" d="M206.452,293.161v-66.065c0-4.561,3.697-8.258,8.258-8.258h-16.516
		c-4.561,0-8.258,3.697-8.258,8.258v66.065c0,4.56,3.697,8.258,8.258,8.258h16.516C210.149,301.419,206.452,297.722,206.452,293.161
		z"/>
	<path style="fill:#5D5360;" d="M297.29,317.935h-82.58c-4.561,0-8.258-3.698-8.258-8.258v16.516c0,4.56,3.697,8.258,8.258,8.258
		h82.581c4.561,0,8.258-3.698,8.258-8.258v-16.516C305.548,314.238,301.851,317.935,297.29,317.935z"/>
</g>
<g>
	<path style="fill:#DBD9DC;" d="M8.258,359.226L8.258,359.226c-4.561,0-8.258-3.697-8.258-8.258v-57.806
		c0-4.561,3.697-8.258,8.258-8.258l0,0c4.561,0,8.258,3.697,8.258,8.258v57.806C16.516,355.529,12.819,359.226,8.258,359.226z"/>
	<path style="fill:#DBD9DC;" d="M115.613,214.71v128c0,4.56,3.697,8.258,8.258,8.258s8.258-3.698,8.258-8.258V207.041
		L115.613,214.71z"/>
</g>
<path style="fill:#B7B2B8;" d="M80.699,361.837l-5.105-15.316c-0.842-2.526-1.271-5.171-1.271-7.834v-53.784
	c0-6.098,3.342-11.364,8.258-14.225c-2.438-1.419-5.234-2.291-8.258-2.291c-9.121,0-16.516,7.394-16.516,16.516v53.784
	c0,2.662,0.429,5.307,1.271,7.834l5.105,15.316c1.124,3.372,4.28,5.647,7.834,5.647h4.612c2.33,0,4.425-1.045,5.952-2.668
	C81.778,363.963,81.086,362.998,80.699,361.837z"/>
<path style="fill:#9C969E;" d="M57.806,326.194v12.493c0,2.662,0.429,5.307,1.271,7.834l5.105,15.316
	c1.124,3.372,4.28,5.647,7.834,5.647h4.612c3.554,0,6.71-2.275,7.834-5.647l5.105-15.316c0.842-2.526,1.271-5.171,1.271-7.834
	v-12.493H57.806z"/>
<path style="fill:#867E88;" d="M80.699,361.837l-5.105-15.316c-0.842-2.526-1.271-5.171-1.271-7.834v-12.493H57.806v12.493
	c0,2.662,0.429,5.307,1.271,7.834l5.105,15.316c1.124,3.372,4.28,5.647,7.834,5.647h4.612c2.33,0,4.425-1.045,5.952-2.668
	C81.778,363.963,81.086,362.998,80.699,361.837z"/>
<g>
</g>
<g>
</g>
<g>
</g>
<g>
</g>
<g>
</g>
<g>
</g>
<g>
</g>
<g>
</g>
<g>
</g>
<g>
</g>
<g>
</g>
<g>
</g>
<g>
</g>
<g>
</g>
<g>
</g>
</svg>
