<?xml version="1.0" encoding="iso-8859-1"?>
<!-- Generator: Adobe Illustrator 19.0.0, SVG Export Plug-In . SVG Version: 6.00 Build 0)  -->
<svg version="1.1" id="Capa_1" xmlns="http://www.w3.org/2000/svg" xmlns:xlink="http://www.w3.org/1999/xlink" x="0px" y="0px"
	 viewBox="0 0 512 512" style="enable-background:new 0 0 512 512;" xml:space="preserve">
<path style="fill:#9C969E;" d="M355.097,437.677l40.61-108.293c5.911-15.762,8.939-32.459,8.939-49.293v-81.898
	c0-10.031-8.943-17.973-19.29-16.29c-8.12,1.321-13.742,8.947-13.742,17.174v48.664c0,9.122-7.395,16.516-16.516,16.516l0,0
	c-9.122,0-16.516-7.395-16.516-16.516V214.71V50.433c0-8.227-5.622-15.853-13.742-17.174c-10.348-1.684-19.29,6.258-19.29,16.29
	v140.387c0,9.122-7.395,16.516-16.516,16.516l0,0c-9.122,0-16.516-7.395-16.516-16.516V17.401c0-8.227-5.622-15.853-13.742-17.174
	c-10.348-1.684-19.29,6.258-19.29,16.29v173.419c0,9.122-7.395,16.516-16.516,16.516l0,0c-9.122,0-16.516-7.395-16.516-16.516
	V50.433c0-8.227-5.622-15.853-13.742-17.174c-10.348-1.684-19.29,6.258-19.29,16.29V214.71c0,9.122-7.395,16.516-16.516,16.516l0,0
	c-9.122,0-16.516-7.395-16.516-16.516V108.239c0-8.227-5.622-15.853-13.742-17.174c-10.348-1.684-19.29,6.258-19.29,16.29v142.869
	c0,20.247,3.103,40.375,9.2,59.682l40.349,127.771"/>
<g>
	<path style="fill:#867E88;" d="M305.548,206.452c9.121,0,16.516-7.395,16.516-16.516V49.548c0-6.101,3.332-11.393,8.251-14.253
		c-1.646-1-3.484-1.713-5.477-2.037c-10.348-1.683-19.29,6.258-19.29,16.29v140.387c0,6.098-3.342,11.364-8.258,14.225
		C299.728,205.58,302.525,206.452,305.548,206.452z"/>
	<path style="fill:#867E88;" d="M239.484,206.452c9.121,0,16.516-7.395,16.516-16.516V16.516c0-6.101,3.332-11.393,8.252-14.253
		c-1.646-1-3.484-1.713-5.477-2.037c-10.348-1.683-19.29,6.258-19.29,16.29v173.419c0,6.098-3.342,11.364-8.258,14.225
		C233.663,205.58,236.46,206.452,239.484,206.452z"/>
	<path style="fill:#867E88;" d="M371.613,264.258c9.121,0,16.516-7.395,16.516-16.516v-48.664c0-6.208,3.206-12.064,8.264-15.137
		c-3.169-1.843-6.984-2.697-11.038-2.037c-8.121,1.321-13.742,8.947-13.742,17.174v48.664c0,6.098-3.343,11.364-8.258,14.225
		C365.792,263.386,368.589,264.258,371.613,264.258z"/>
	<path style="fill:#867E88;" d="M173.419,231.226c9.121,0,16.516-7.395,16.516-16.516V49.548c0-6.101,3.332-11.393,8.252-14.253
		c-1.646-1-3.484-1.713-5.477-2.037c-10.348-1.683-19.29,6.258-19.29,16.29V214.71c0,6.098-3.342,11.364-8.258,14.225
		C167.599,230.354,170.396,231.226,173.419,231.226z"/>
	<path style="fill:#867E88;" d="M123.871,250.224V107.355c0-6.101,3.332-11.393,8.252-14.253c-1.646-1-3.484-1.713-5.477-2.037
		c-10.348-1.683-19.29,6.258-19.29,16.29v142.869c0,20.247,3.102,40.375,9.2,59.682l40.349,127.771h16.516l-40.349-127.771
		C126.973,290.599,123.871,270.471,123.871,250.224z"/>
	<path style="fill:#867E88;" d="M355.097,512H156.903c-4.561,0-8.258-3.697-8.258-8.258v-66.065c0-4.561,3.697-8.258,8.258-8.258
		h198.194c4.561,0,8.258,3.697,8.258,8.258v66.065C363.355,508.303,359.658,512,355.097,512z"/>
</g>
<g>
	<path style="fill:#6F6571;" d="M322.065,470.71c0,22.766-18.524,41.29-41.29,41.29h40.376c10.738-10.502,17.43-25.122,17.43-41.29
		s-6.693-30.788-17.43-41.29h-40.376C303.54,429.419,322.065,447.944,322.065,470.71z"/>
	<path style="fill:#6F6571;" d="M181.677,503.742v-66.065c0-4.561,3.697-8.258,8.258-8.258h-33.032
		c-4.561,0-8.258,3.697-8.258,8.258v66.065c0,4.56,3.697,8.258,8.258,8.258h33.032C185.374,512,181.677,508.302,181.677,503.742z"/>
	<path style="fill:#6F6571;" d="M148.645,478.968h90.839c4.561,0,8.258-3.697,8.258-8.258l0,0c0-4.561-3.697-8.258-8.258-8.258
		h-90.839L148.645,478.968L148.645,478.968z"/>
</g>
<g>
	<rect x="148.65" y="462.45" style="fill:#5D5360;" width="33.03" height="16.516"/>
	<path style="fill:#5D5360;" d="M280.774,478.968h16.516c4.561,0,8.258-3.697,8.258-8.258l0,0c0-4.561-3.697-8.258-8.258-8.258
		h-16.516c-4.561,0-8.258,3.697-8.258,8.258l0,0C272.516,475.27,276.213,478.968,280.774,478.968z"/>
</g>
<g>
	<path style="fill:#59D8FF;" d="M189.935,313.806h24.774v115.613h16.516V204.161c-2.438,1.419-5.234,2.291-8.258,2.291
		s-5.821-0.872-8.258-2.291v93.13h-24.774c-13.661,0-24.774-11.113-24.774-24.774v-43.581c-2.438,1.419-5.234,2.291-8.258,2.291
		s-5.821-0.872-8.258-2.291v43.581C148.645,295.282,167.169,313.806,189.935,313.806z"/>
	<path style="fill:#59D8FF;" d="M363.355,261.967c-2.438,1.419-5.234,2.291-8.258,2.291s-5.821-0.872-8.258-2.291v10.549
		c0,13.661-11.113,24.774-24.774,24.774H297.29v-93.13c-2.438,1.419-5.234,2.291-8.258,2.291s-5.821-0.872-8.258-2.291v225.259
		h16.516V313.806h24.774c22.766,0,41.29-18.524,41.29-41.29v-10.549H363.355z"/>
</g>
<path style="fill:#99E7FF;" d="M313.806,396.387H198.194c-9.122,0-16.516-7.395-16.516-16.516v-16.516
	c0-9.122,7.395-16.516,16.516-16.516h115.613c9.122,0,16.516,7.395,16.516,16.516v16.516
	C330.323,388.993,322.928,396.387,313.806,396.387z"/>
<path style="fill:#CCF3FF;" d="M305.548,379.871h-99.097c-4.561,0-8.258-3.697-8.258-8.258l0,0c0-4.561,3.697-8.258,8.258-8.258
	h99.097c4.561,0,8.258,3.697,8.258,8.258l0,0C313.806,376.174,310.109,379.871,305.548,379.871z"/>
<path style="fill:#99E7FF;" d="M140.387,132.129v-23.89c0-8.227-5.621-15.853-13.742-17.174c-10.348-1.683-19.29,6.258-19.29,16.29
	v24.774H140.387z"/>
<path style="fill:#59D8FF;" d="M123.871,132.129v-24.774c0-6.101,3.332-11.393,8.252-14.253c-1.646-1-3.484-1.713-5.477-2.037
	c-10.348-1.683-19.29,6.258-19.29,16.29v24.774H123.871z"/>
<path style="fill:#99E7FF;" d="M206.452,74.322v-23.89c0-8.227-5.621-15.853-13.742-17.174c-10.348-1.683-19.29,6.258-19.29,16.29
	v24.774H206.452z"/>
<path style="fill:#59D8FF;" d="M189.935,74.322V49.548c0-6.101,3.332-11.393,8.252-14.253c-1.646-1-3.484-1.713-5.477-2.037
	c-10.348-1.683-19.29,6.258-19.29,16.29v24.774H189.935z"/>
<path style="fill:#99E7FF;" d="M272.516,41.29V17.4c0-8.227-5.621-15.853-13.742-17.174c-10.348-1.683-19.29,6.258-19.29,16.29
	V41.29H272.516z"/>
<path style="fill:#59D8FF;" d="M256,41.29V16.516c0-6.101,3.332-11.393,8.252-14.253c-1.646-1-3.484-1.713-5.477-2.037
	c-10.348-1.683-19.29,6.258-19.29,16.29V41.29H256z"/>
<path style="fill:#99E7FF;" d="M338.581,74.322v-23.89c0-8.227-5.621-15.853-13.742-17.174c-10.348-1.683-19.29,6.258-19.29,16.29
	v24.774H338.581z"/>
<path style="fill:#59D8FF;" d="M322.065,74.322V49.548c0-6.101,3.332-11.393,8.251-14.253c-1.646-1-3.484-1.713-5.477-2.037
	c-10.348-1.683-19.29,6.258-19.29,16.29v24.774H322.065z"/>
<path style="fill:#99E7FF;" d="M404.645,222.968v-23.89c0-8.227-5.621-15.853-13.742-17.174c-10.348-1.683-19.29,6.258-19.29,16.29
	v24.774H404.645z"/>
<path style="fill:#59D8FF;" d="M388.129,222.968v-24.774c0-6.101,3.332-11.393,8.252-14.253c-1.646-1-3.484-1.713-5.477-2.037
	c-10.348-1.683-19.29,6.258-19.29,16.29v24.774H388.129z"/>
<g>
</g>
<g>
</g>
<g>
</g>
<g>
</g>
<g>
</g>
<g>
</g>
<g>
</g>
<g>
</g>
<g>
</g>
<g>
</g>
<g>
</g>
<g>
</g>
<g>
</g>
<g>
</g>
<g>
</g>
</svg>
