<?xml version="1.0" encoding="iso-8859-1"?>
<!-- Generator: Adobe Illustrator 19.0.0, SVG Export Plug-In . SVG Version: 6.00 Build 0)  -->
<svg version="1.1" id="Capa_1" xmlns="http://www.w3.org/2000/svg" xmlns:xlink="http://www.w3.org/1999/xlink" x="0px" y="0px"
	 viewBox="0 0 512 512" style="enable-background:new 0 0 512 512;" xml:space="preserve">
<path style="fill:#867E88;" d="M264.258,512h-33.032c-4.561,0-8.258-3.697-8.258-8.258v-82.581h49.548v82.581
	C272.516,508.303,268.819,512,264.258,512z"/>
<path style="fill:#6F6571;" d="M256,445.935h16.516v-24.774h-49.548v82.581c0,4.561,3.697,8.258,8.258,8.258h16.516v-57.806
	C247.742,449.633,251.439,445.935,256,445.935z"/>
<polygon style="fill:#867E88;" points="379.871,156.903 363.355,156.903 363.355,213.175 340,273.677 355.403,279.629 
	379.315,217.685 379.871,214.71 "/>
<circle style="fill:#C9C6CA;" cx="371.61" cy="214.71" r="16.516"/>
<path style="fill:#EDEBED;" d="M371.613,165.161L371.613,165.161c-9.122,0-16.516-7.395-16.516-16.516v-8.258
	c0-9.122,7.395-16.516,16.516-16.516l0,0c9.122,0,16.516,7.395,16.516,16.516v8.258
	C388.129,157.767,380.735,165.161,371.613,165.161z"/>
<path style="fill:#B7B2B8;" d="M379.871,222.968c-9.121,0-16.516-7.395-16.516-16.516c0-2.42,0.549-4.702,1.485-6.773
	c-5.735,2.59-9.743,8.33-9.743,15.031c0,9.121,7.395,16.516,16.516,16.516c6.701,0,12.442-4.008,15.031-9.743
	C384.573,222.418,382.291,222.968,379.871,222.968z"/>
<path style="fill:#DBD9DC;" d="M371.613,148.645v-8.258c0-6.098,3.342-11.364,8.258-14.225c-2.438-1.419-5.234-2.291-8.258-2.291
	c-9.121,0-16.516,7.394-16.516,16.516v8.258c0,9.121,7.395,16.516,16.516,16.516c3.024,0,5.821-0.872,8.258-2.291
	C374.955,160.01,371.613,154.743,371.613,148.645z"/>
<rect x="305.55" y="57.806" style="fill:#867E88;" width="16.516" height="123.87"/>
<circle style="fill:#C9C6CA;" cx="313.81" cy="115.61" r="16.516"/>
<path style="fill:#EDEBED;" d="M313.806,66.065L313.806,66.065c-9.122,0-16.516-7.395-16.516-16.516V41.29
	c0-9.122,7.395-16.516,16.516-16.516l0,0c9.122,0,16.516,7.395,16.516,16.516v8.258C330.323,58.67,322.928,66.065,313.806,66.065z"
	/>
<path style="fill:#B7B2B8;" d="M322.065,123.871c-9.121,0-16.516-7.395-16.516-16.516c0-2.42,0.549-4.702,1.485-6.773
	c-5.735,2.59-9.743,8.33-9.743,15.031c0,9.121,7.395,16.516,16.516,16.516c6.701,0,12.442-4.008,15.031-9.743
	C326.767,123.322,324.485,123.871,322.065,123.871z"/>
<path style="fill:#DBD9DC;" d="M313.806,49.548V41.29c0-6.098,3.342-11.364,8.258-14.225c-2.438-1.419-5.234-2.291-8.258-2.291
	c-9.121,0-16.516,7.394-16.516,16.516v8.258c0,9.121,7.395,16.516,16.516,16.516c3.024,0,5.821-0.872,8.258-2.291
	C317.149,60.913,313.806,55.646,313.806,49.548z"/>
<rect x="247.74" y="33.03" style="fill:#867E88;" width="16.516" height="123.87"/>
<circle style="fill:#C9C6CA;" cx="256" cy="90.84" r="16.516"/>
<path style="fill:#EDEBED;" d="M256,41.29L256,41.29c-9.122,0-16.516-7.395-16.516-16.516v-8.258C239.484,7.395,246.878,0,256,0l0,0
	c9.122,0,16.516,7.395,16.516,16.516v8.258C272.516,33.896,265.122,41.29,256,41.29z"/>
<path style="fill:#B7B2B8;" d="M264.258,99.097c-9.121,0-16.516-7.395-16.516-16.516c0-2.42,0.549-4.702,1.485-6.773
	c-5.735,2.59-9.743,8.33-9.743,15.031c0,9.121,7.395,16.516,16.516,16.516c6.701,0,12.442-4.008,15.031-9.743
	C268.96,98.547,266.678,99.097,264.258,99.097z"/>
<path style="fill:#DBD9DC;" d="M256,24.774v-8.258c0-6.098,3.342-11.364,8.258-14.225C261.821,0.872,259.024,0,256,0
	c-9.121,0-16.516,7.394-16.516,16.516v8.258c0,9.121,7.395,16.516,16.516,16.516c3.024,0,5.821-0.872,8.258-2.291
	C259.342,36.139,256,30.872,256,24.774z"/>
<rect x="189.94" y="57.806" style="fill:#867E88;" width="16.516" height="123.87"/>
<circle style="fill:#C9C6CA;" cx="198.19" cy="115.61" r="16.516"/>
<path style="fill:#EDEBED;" d="M198.194,66.065L198.194,66.065c-9.122,0-16.516-7.395-16.516-16.516V41.29
	c0-9.122,7.395-16.516,16.516-16.516l0,0c9.122,0,16.516,7.395,16.516,16.516v8.258C214.71,58.67,207.315,66.065,198.194,66.065z"/>
<path style="fill:#B7B2B8;" d="M206.452,123.871c-9.121,0-16.516-7.395-16.516-16.516c0-2.42,0.549-4.702,1.485-6.773
	c-5.735,2.59-9.743,8.33-9.743,15.031c0,9.121,7.395,16.516,16.516,16.516c6.701,0,12.442-4.008,15.031-9.743
	C211.154,123.322,208.872,123.871,206.452,123.871z"/>
<path style="fill:#DBD9DC;" d="M198.194,49.548V41.29c0-6.098,3.342-11.364,8.258-14.225c-2.438-1.419-5.234-2.291-8.258-2.291
	c-9.121,0-16.516,7.394-16.516,16.516v8.258c0,9.121,7.395,16.516,16.516,16.516c3.024,0,5.821-0.872,8.258-2.291
	C201.536,60.913,198.194,55.646,198.194,49.548z"/>
<rect x="132.13" y="82.58" style="fill:#867E88;" width="16.516" height="123.87"/>
<path style="fill:#C9C6CA;" d="M313.806,165.161c-9.121,0-16.516,7.395-16.516,16.516V256h33.032v-74.323
	C330.323,172.556,322.928,165.161,313.806,165.161z"/>
<path style="fill:#B7B2B8;" d="M322.065,167.452c-2.438-1.419-5.234-2.291-8.258-2.291c-9.121,0-16.516,7.395-16.516,16.516V256
	h16.516v-74.323C313.806,175.58,317.149,170.313,322.065,167.452z"/>
<path style="fill:#C9C6CA;" d="M198.194,165.161c-9.121,0-16.516,7.395-16.516,16.516v66.065h33.032v-66.065
	C214.71,172.556,207.315,165.161,198.194,165.161z"/>
<path style="fill:#B7B2B8;" d="M206.452,167.452c-2.438-1.419-5.234-2.291-8.258-2.291c-9.121,0-16.516,7.395-16.516,16.516v66.065
	h16.516v-66.065C198.194,175.58,201.536,170.313,206.452,167.452z"/>
<path style="fill:#C9C6CA;" d="M256,140.387c-9.121,0-16.516,7.395-16.516,16.516v66.065h33.032v-66.065
	C272.516,147.782,265.121,140.387,256,140.387z"/>
<path style="fill:#B7B2B8;" d="M264.258,142.678c-2.438-1.419-5.234-2.291-8.258-2.291c-9.121,0-16.516,7.395-16.516,16.516v66.065
	H256v-66.065C256,150.805,259.342,145.539,264.258,142.678z"/>
<path style="fill:#C9C6CA;" d="M140.387,189.935c-9.121,0-16.516,7.395-16.516,16.516v40.688c0,11.227,2.851,22.25,8.303,32.065
	L156.903,256v-49.548C156.903,197.33,149.509,189.935,140.387,189.935z"/>
<path style="fill:#B7B2B8;" d="M140.387,247.139v-40.688c0-6.098,3.342-11.364,8.258-14.225c-2.438-1.419-5.234-2.291-8.258-2.291
	c-9.121,0-16.516,7.395-16.516,16.516v40.688c0,11.227,2.851,22.25,8.303,32.065l11.778-11.052
	C141.68,261.394,140.387,254.328,140.387,247.139z"/>
<path style="fill:#EDEBED;" d="M356.696,263.992l-86.279-49.302c-9.07-5.183-20.058-5.77-29.629-1.583l-100.786,44.094
	c-8.397,3.674-12.348,13.809-7.921,21.835c0.031,0.056,0.062,0.112,0.093,0.168l28.83,51.893c2.727,4.908,4.157,10.429,4.157,16.043
	v32.731c0,9.122,7.395,16.516,16.516,16.516h132.129c9.122,0,16.516-7.395,16.516-16.516v-31.818c0-6.191,1.74-12.256,5.021-17.506
	l27.164-43.462C367.477,279.134,364.837,268.644,356.696,263.992z"/>
<path style="fill:#DBD9DC;" d="M216.762,363.355c-13.682,0-24.774-11.092-24.774-24.774v-8.126c0-5.614-1.431-11.135-4.157-16.042
	L159,262.519c-0.031-0.056-0.063-0.112-0.093-0.168c-2.336-4.235-2.289-9.036-0.538-13.186l-18.816,8.232
	c-8.403,3.676-11.823,13.783-7.379,21.807l0,0l28.83,51.893c2.727,4.908,4.157,10.429,4.157,16.044v32.731
	c0,9.122,7.395,16.516,16.516,16.516h132.129c9.122,0,16.516-7.395,16.516-16.516v-0.169v-16.347h-113.56V363.355z"/>
<circle style="fill:#C9C6CA;" cx="140.39" cy="140.39" r="16.516"/>
<path style="fill:#EDEBED;" d="M140.387,90.839L140.387,90.839c-9.122,0-16.516-7.395-16.516-16.516v-8.258
	c0-9.122,7.395-16.516,16.516-16.516l0,0c9.122,0,16.516,7.395,16.516,16.516v8.258C156.903,83.444,149.509,90.839,140.387,90.839z"
	/>
<g>
	<path style="fill:#B7B2B8;" d="M189.935,396.387l5.131,20.522c1.838,7.352,8.444,12.511,16.023,12.511h73.306
		c7.579,0,14.184-5.158,16.023-12.511l5.131-20.522H189.935z"/>
	<path style="fill:#B7B2B8;" d="M148.645,148.645c-9.121,0-16.516-7.395-16.516-16.516c0-2.42,0.549-4.702,1.485-6.773
		c-5.735,2.59-9.743,8.33-9.743,15.031c0,9.121,7.395,16.516,16.516,16.516c6.701,0,12.442-4.008,15.031-9.743
		C153.347,148.096,151.066,148.645,148.645,148.645z"/>
</g>
<path style="fill:#DBD9DC;" d="M140.387,74.323v-8.258c0-6.098,3.342-11.364,8.258-14.225c-2.438-1.419-5.234-2.291-8.258-2.291
	c-9.121,0-16.516,7.394-16.516,16.516v8.258c0,9.121,7.395,16.516,16.516,16.516c3.024,0,5.821-0.872,8.258-2.291
	C143.729,85.687,140.387,80.42,140.387,74.323z"/>
<g>
	<path style="fill:#9C969E;" d="M225.286,412.903h76.133l4.129-16.516H189.935l5.131,20.522c1.838,7.352,8.444,12.51,16.023,12.51
		h7.75l-1.564-6.255C215.972,417.952,219.914,412.903,225.286,412.903z"/>
	<rect x="222.97" y="462.45" style="fill:#9C969E;" width="49.548" height="16.516"/>
</g>
<rect x="222.97" y="462.45" style="fill:#867E88;" width="24.774" height="16.516"/>
<g>
</g>
<g>
</g>
<g>
</g>
<g>
</g>
<g>
</g>
<g>
</g>
<g>
</g>
<g>
</g>
<g>
</g>
<g>
</g>
<g>
</g>
<g>
</g>
<g>
</g>
<g>
</g>
<g>
</g>
</svg>
