<?xml version="1.0" encoding="iso-8859-1"?>
<!-- Generator: Adobe Illustrator 19.0.0, SVG Export Plug-In . SVG Version: 6.00 Build 0)  -->
<svg version="1.1" id="Capa_1" xmlns="http://www.w3.org/2000/svg" xmlns:xlink="http://www.w3.org/1999/xlink" x="0px" y="0px"
	 viewBox="0 0 512.001 512.001" style="enable-background:new 0 0 512.001 512.001;" xml:space="preserve">
<path style="fill:#EDEBED;" d="M445.935,189.936c0-108.915-91.674-196.418-202.069-189.558
	C147.661,6.358,70.065,85.844,66.22,182.159c-2.977,74.587,37.085,140.085,97.358,173.718
	c21.168,11.812,34.615,33.799,34.615,58.039v40.278c0,13.682,11.092,24.774,24.774,24.774h66.064
	c13.682,0,24.774-11.092,24.774-24.774v-40.267c0-24.311,13.564-46.276,34.782-58.144
	C406.667,323.299,445.935,261.212,445.935,189.936z"/>
<path style="fill:#DBD9DC;" d="M280.774,454.954c-13.682,0-24.774-11.092-24.774-24.774v-48.537
	c0-24.24-13.447-46.227-34.615-58.039c-60.274-33.633-100.335-99.13-97.358-173.718c2.233-55.941,29.446-106.083,70.634-139.564
	c-72.223,24.936-125.279,92.65-128.44,171.837c-2.977,74.587,37.085,140.085,97.358,173.718
	c21.168,11.812,34.615,33.799,34.615,58.039v40.279c0,13.682,11.092,24.774,24.774,24.774h66.064
	c13.422,0,24.287-10.692,24.698-24.015H280.774z"/>
<path style="fill:#867E88;" d="M222.968,471.47l5.565,27.312c1.567,7.693,8.333,13.219,16.183,13.219h22.567
	c7.85,0,14.616-5.526,16.184-13.218l5.565-27.312h-66.064V471.47z"/>
<g>
	<path style="fill:#C9C6CA;" d="M256,346.841c-4.565,0-8.258-3.694-8.258-8.258v-16.516c0-4.565,3.694-8.258,8.258-8.258
		s8.258,3.694,8.258,8.258v16.516C264.258,343.148,260.565,346.841,256,346.841z"/>
	<path style="fill:#C9C6CA;" d="M222.976,346.841c-3.032,0-5.944-1.669-7.395-4.565l-8.258-16.516
		c-2.04-4.081-0.387-9.04,3.694-11.081c4.081-2.024,9.032-0.387,11.081,3.694l8.258,16.516c2.04,4.081,0.387,9.04-3.694,11.081
		C225.476,346.559,224.218,346.841,222.976,346.841z"/>
	<path style="fill:#C9C6CA;" d="M289.024,346.841c-1.242,0-2.5-0.282-3.685-0.871c-4.081-2.04-5.734-7-3.694-11.081l8.258-16.516
		c2.048-4.081,7-5.718,11.081-3.694c4.081,2.04,5.734,7,3.694,11.081l-8.258,16.516
		C294.968,345.172,292.057,346.841,289.024,346.841z"/>
</g>
<path style="fill:#CCF3FF;" d="M243.867,0.379C147.66,6.358,70.065,85.844,66.22,182.159c-1.58,39.596,9.059,76.569,28.322,107.634
	h322.961c17.988-29.018,28.433-63.202,28.433-99.856C445.935,81.021,354.262-6.482,243.867,0.379z"/>
<g>
	<path style="fill:#4BD7C8;" d="M139.592,116.124c-3.597,0.414-6.539,3.356-6.953,6.953c-2.887,25.101,6.502,52.886,27.606,73.99
		s48.889,30.493,73.99,27.606c3.597-0.414,6.539-3.356,6.953-6.953c2.887-25.101-6.502-52.886-27.606-73.99
		S164.693,113.237,139.592,116.124z"/>
	<path style="fill:#4BD7C8;" d="M379.361,123.077c-0.414-3.597-3.356-6.539-6.953-6.953c-25.101-2.887-52.886,6.502-73.99,27.606
		s-30.493,48.889-27.606,73.99c0.414,3.597,3.356,6.539,6.953,6.953c25.101,2.887,52.886-6.502,73.99-27.606
		C372.859,175.962,382.248,148.178,379.361,123.077z"/>
</g>
<path style="fill:#00AFA0;" d="M332.032,163.454c-3.226-3.226-8.452-3.226-11.677,0L256,227.809l-64.355-64.355
	c-3.226-3.226-8.452-3.226-11.677,0c-3.226,3.226-3.226,8.452,0,11.677l67.774,67.774v46.129h16.516v-46.129l67.774-67.774
	C335.258,171.906,335.258,166.68,332.032,163.454z"/>
<path style="fill:#99E7FF;" d="M124.026,149.886c2.233-55.941,29.446-106.083,70.634-139.564
	c-72.223,24.936-125.279,92.65-128.44,171.837c-1.58,39.596,9.059,76.569,28.322,107.634h82.974
	C142.689,253.89,121.853,204.343,124.026,149.886z"/>
<path style="fill:#B7B2B8;" d="M198.176,413.664c0.001,0.085,0.018,0.167,0.018,0.252v40.279c0,13.682,11.092,24.774,24.774,24.774
	h66.064c13.682,0,24.774-11.092,24.774-24.774v-40.267c0-0.089,0.018-0.174,0.018-0.264H198.176z"/>
<path style="fill:#AEA8AF;" d="M198.194,454.195c0,13.682,11.092,24.774,24.774,24.774h66.064c13.682,0,24.774-11.092,24.774-24.774
	v-7.498H256v-33.032h-57.824c0.001,0.085,0.018,0.167,0.018,0.252V454.195z"/>
<path style="fill:#9C969E;" d="M313.806,454.196H198.194c-4.565,0-8.258-3.694-8.258-8.258s3.694-8.258,8.258-8.258h115.613
	c4.565,0,8.258,3.694,8.258,8.258S318.371,454.196,313.806,454.196z"/>
<g>
</g>
<g>
</g>
<g>
</g>
<g>
</g>
<g>
</g>
<g>
</g>
<g>
</g>
<g>
</g>
<g>
</g>
<g>
</g>
<g>
</g>
<g>
</g>
<g>
</g>
<g>
</g>
<g>
</g>
</svg>
