<?xml version="1.0" encoding="iso-8859-1"?>
<!-- Generator: Adobe Illustrator 19.0.0, SVG Export Plug-In . SVG Version: 6.00 Build 0)  -->
<svg version="1.1" id="Capa_1" xmlns="http://www.w3.org/2000/svg" xmlns:xlink="http://www.w3.org/1999/xlink" x="0px" y="0px"
	 viewBox="0 0 512 512" style="enable-background:new 0 0 512 512;" xml:space="preserve">
<circle style="fill:#CCF3FF;" cx="255.88" cy="256" r="192"/>
<path style="fill:#C9C6CA;" d="M86.177,86.297C131.505,40.969,191.771,16,255.88,16c56.588,0,110.164,19.479,153.132,55.217
	l-19.804-4.936c-4.336-1.055-8.641,1.547-9.703,5.828c-1.063,4.289,1.547,8.633,5.828,9.703l54.125,13.484
	c0.648,0.156,1.297,0.234,1.938,0.234c2.359,0,4.633-1.047,6.172-2.914c1.961-2.383,2.383-5.68,1.078-8.469l-23.609-50.539
	c-1.875-4.008-6.625-5.719-10.633-3.867c-4.008,1.875-5.734,6.633-3.867,10.633l8.634,18.481C373.346,20.762,316.219,0,255.88,0
	C187.497,0,123.216,26.633,74.865,74.984c-85.063,85.055-99.234,219.844-33.703,320.508c1.531,2.352,4.094,3.633,6.711,3.633
	c1.492,0,3.008-0.422,4.359-1.297c3.703-2.406,4.75-7.367,2.336-11.07C-6.862,292.398,6.427,166.039,86.177,86.297z"/>
<path style="fill:#99E9DF;" d="M232.105,405.259l125.442-155.691c3.458-4.292,0.486-10.686-5.024-10.81l-92.434-2.07l27.492-126.155
	c1.014-4.654-4.936-7.501-7.925-3.793L154.215,262.43c-3.458,4.292-0.486,10.686,5.024,10.81l92.434,2.071l-27.492,126.155
	C223.167,406.12,229.117,408.968,232.105,405.259z"/>
<path style="fill:#B7B2B8;" d="M425.036,33.609c-1.875-4.008-6.625-5.719-10.633-3.867c-4.008,1.875-5.734,6.633-3.867,10.633
	l8.634,18.481c-18.094-15.041-37.955-27.367-59.076-36.791c-3.65-1.629-7.954-0.188-10.043,3.22
	c-0.028,0.046-0.056,0.092-0.085,0.138c-2.495,4.087-0.653,9.371,3.72,11.324c19.78,8.833,38.382,20.377,55.326,34.47l-19.804-4.936
	c-4.336-1.055-8.641,1.547-9.703,5.828c-1.063,4.289,1.547,8.633,5.828,9.703l54.125,13.484c0.648,0.156,1.297,0.234,1.938,0.234
	c2.359,0,4.633-1.047,6.172-2.914c1.961-2.383,2.383-5.68,1.078-8.469L425.036,33.609z"/>
<path style="fill:#C9C6CA;" d="M425.822,425.703C380.493,471.031,320.228,496,256.118,496c-56.588,0-110.164-19.479-153.132-55.217
	l19.804,4.936c4.336,1.055,8.641-1.547,9.703-5.828c1.063-4.289-1.547-8.633-5.828-9.703L72.54,416.704
	c-0.648-0.156-1.297-0.234-1.938-0.234c-2.359,0-4.633,1.047-6.172,2.914c-1.961,2.383-2.383,5.68-1.078,8.469l23.609,50.539
	c1.875,4.008,6.625,5.719,10.633,3.867c4.008-1.875,5.734-6.633,3.867-10.633l-8.634-18.481
	C138.654,491.238,195.781,512,256.118,512c68.383,0,132.664-26.633,181.016-74.984c85.063-85.055,99.234-219.844,33.703-320.508
	c-1.531-2.352-4.094-3.633-6.711-3.633c-1.492,0-3.008,0.422-4.359,1.297c-3.703,2.406-4.75,7.367-2.336,11.07
	C518.861,219.602,505.572,345.961,425.822,425.703z"/>
<path style="fill:#B7B2B8;" d="M86.962,478.391c1.875,4.008,6.625,5.719,10.633,3.867c4.008-1.875,5.734-6.633,3.867-10.633
	l-8.634-18.481c18.094,15.041,37.955,27.367,59.076,36.791c3.65,1.629,7.954,0.188,10.043-3.22c0.028-0.046,0.056-0.092,0.085-0.138
	c2.495-4.087,0.653-9.371-3.72-11.324c-19.78-8.833-38.381-20.377-55.326-34.47l19.804,4.936c4.336,1.055,8.641-1.547,9.703-5.828
	c1.063-4.289-1.547-8.633-5.828-9.703L72.54,416.704c-0.648-0.156-1.297-0.234-1.938-0.234c-2.359,0-4.633,1.047-6.172,2.914
	c-1.961,2.383-2.383,5.68-1.078,8.469L86.962,478.391z"/>
<path style="fill:#4BD7C8;" d="M224.146,402.223l73.195-121.991c6.399-10.664-1.283-24.232-13.72-24.232h-48.681
	c-12.17,0-19.884-13.047-14.019-23.711l66.458-120.833l0.201-0.923c1.014-4.653-4.937-7.501-7.925-3.792l-125.442,155.69
	c-3.458,4.292-0.486,10.686,5.024,10.81l92.434,2.071l-27.646,126.864C224.23,402.256,223.941,402.142,224.146,402.223z"/>
<g>
</g>
<g>
</g>
<g>
</g>
<g>
</g>
<g>
</g>
<g>
</g>
<g>
</g>
<g>
</g>
<g>
</g>
<g>
</g>
<g>
</g>
<g>
</g>
<g>
</g>
<g>
</g>
<g>
</g>
</svg>
