<?xml version="1.0" encoding="iso-8859-1"?>
<!-- Generator: Adobe Illustrator 19.0.0, SVG Export Plug-In . SVG Version: 6.00 Build 0)  -->
<svg version="1.1" id="Capa_1" xmlns="http://www.w3.org/2000/svg" xmlns:xlink="http://www.w3.org/1999/xlink" x="0px" y="0px"
	 viewBox="0 0 512 512" style="enable-background:new 0 0 512 512;" xml:space="preserve">
<path style="fill:#9C969E;" d="M421.161,512h16.516c4.561,0,8.258-3.697,8.258-8.258V297.29h-33.032v206.452
	C412.903,508.303,416.6,512,421.161,512z"/>
<path style="fill:#AEA8AF;" d="M421.161,512h16.516c4.561,0,8.258-3.697,8.258-8.258v-24.774h-33.032v24.774
	C412.903,508.303,416.6,512,421.161,512z"/>
<polygon style="fill:#867E88;" points="445.935,326.882 412.903,340.645 412.903,297.29 445.935,297.29 "/>
<path style="fill:#9C969E;" d="M90.839,512H74.323c-4.561,0-8.258-3.697-8.258-8.258V297.29h33.032v206.452
	C99.097,508.303,95.4,512,90.839,512z"/>
<path style="fill:#AEA8AF;" d="M90.839,512H74.323c-4.561,0-8.258-3.697-8.258-8.258v-24.774h33.032v24.774
	C99.097,508.303,95.4,512,90.839,512z"/>
<polygon style="fill:#867E88;" points="66.065,326.882 99.097,340.645 99.097,297.29 66.065,297.29 "/>
<path style="fill:#C9C6CA;" d="M346.839,512H165.161c-4.561,0-8.258-3.697-8.258-8.258V470.71h198.194v33.032
	C355.097,508.303,351.4,512,346.839,512z"/>
<rect x="156.9" y="470.71" style="fill:#B7B2B8;" width="198.19" height="24.774"/>
<path style="fill:#DBD9DC;" d="M355.097,478.968H156.903c-13.682,0-24.774-11.092-24.774-24.774V322.065h247.742v132.129
	C379.871,467.876,368.779,478.968,355.097,478.968z"/>
<path style="fill:#C9C6CA;" d="M379.871,322.065H132.129v32.344l44.868,18.695c3.34,1.392,5.371,4.789,5.017,8.39
	c-0.215,2.184-0.335,4.394-0.335,6.635c0,41.047,33.275,74.322,74.322,74.322s74.322-33.275,74.322-74.322
	c0-2.241-0.121-4.452-0.335-6.635c-0.354-3.601,1.676-6.999,5.017-8.39l44.868-18.695v-32.344H379.871z"/>
<rect x="239.48" y="181.68" style="fill:#867E88;" width="33.03" height="107.36"/>
<path style="fill:#9C969E;" d="M272.516,289.032H256v-66.065c0-4.561,3.697-8.258,8.258-8.258h8.258V289.032z"/>
<path style="fill:#EDEBED;" d="M444.03,309.783L256,388.13L67.97,309.783c-6.155-2.564-10.164-8.578-10.164-15.246v-5.505
	c0-9.122,7.395-16.516,16.516-16.516h363.355c9.122,0,16.516,7.395,16.516,16.516v5.505
	C454.194,301.205,450.184,307.219,444.03,309.783z"/>
<circle style="fill:#DBD9DC;" cx="256" cy="388.13" r="57.806"/>
<path style="fill:#9C969E;" d="M437.677,123.871H74.323c-9.122,0-16.516-7.395-16.516-16.516V90.839
	c0-9.122,7.395-16.516,16.516-16.516h363.355c9.122,0,16.516,7.395,16.516,16.516v16.516
	C454.194,116.476,446.799,123.871,437.677,123.871z"/>
<path style="fill:#EDEBED;" d="M330.323,198.194H181.677c-54.73,0-99.097-44.367-99.097-99.097l0,0
	C82.581,44.367,126.948,0,181.677,0h148.645c54.73,0,99.097,44.367,99.097,99.097l0,0
	C429.419,153.826,385.052,198.194,330.323,198.194z"/>
<path style="fill:#99E7FF;" d="M330.323,165.161c37.942,0,68.413-31.985,65.922-70.462c-2.274-35.114-32.998-61.667-68.186-61.667
	h-19.09c-2.19,0-4.291,0.87-5.839,2.419l-9.26,9.26c-3.097,3.097-7.298,4.837-11.679,4.837h-52.382c-4.38,0-8.581-1.74-11.679-4.837
	l-9.26-9.26c-1.549-1.549-3.649-2.419-5.839-2.419h-19.09c-35.187,0-65.912,26.553-68.186,61.667
	c-2.492,38.477,27.98,70.462,65.922,70.462H330.323z"/>
<g>
	<path style="fill:#CCF3FF;" d="M173.419,132.129L173.419,132.129c-13.682,0-24.774-11.092-24.774-24.774V90.839
		c0-13.682,11.092-24.774,24.774-24.774l0,0c13.682,0,24.774,11.092,24.774,24.774v16.516
		C198.194,121.037,187.102,132.129,173.419,132.129z"/>
	<path style="fill:#CCF3FF;" d="M338.581,132.129L338.581,132.129c-13.682,0-24.774-11.092-24.774-24.774V90.839
		c0-13.682,11.092-24.774,24.774-24.774l0,0c13.682,0,24.774,11.092,24.774,24.774v16.516
		C363.355,121.037,352.263,132.129,338.581,132.129z"/>
</g>
<g>
	<path style="fill:#FFFFFF;" d="M173.419,115.613c-5.702,0-10.323-4.621-10.323-10.323V92.903c0-5.702,4.621-10.323,10.323-10.323
		s10.323,4.621,10.323,10.323v12.387C183.742,110.992,179.121,115.613,173.419,115.613z"/>
	<path style="fill:#FFFFFF;" d="M338.581,115.613c-5.702,0-10.323-4.621-10.323-10.323V92.903c0-5.702,4.621-10.323,10.323-10.323
		s10.323,4.621,10.323,10.323v12.387C348.903,110.992,344.282,115.613,338.581,115.613z"/>
</g>
<circle style="fill:#4BD7C8;" cx="256" cy="388.13" r="33.03"/>
<path style="fill:#59D8FF;" d="M328.059,49.548c27.315,0,50.026,20.301,51.704,46.218c0.9,13.896-3.817,27.11-13.281,37.206
	c-9.473,10.107-22.315,15.673-36.159,15.673H181.677c-13.844,0-26.686-5.566-36.159-15.673c-9.464-10.097-14.18-23.31-13.281-37.206
	c1.678-25.917,24.39-46.218,51.704-46.218h15.669l6.842,6.842c6.239,6.238,14.534,9.674,23.357,9.674h52.383
	c8.823,0,17.118-3.436,23.357-9.675l6.842-6.841L328.059,49.548 M328.059,33.032h-19.09c-2.19,0-4.291,0.87-5.839,2.419l-9.26,9.26
	c-3.097,3.097-7.298,4.837-11.678,4.837h-52.383c-4.381,0-8.581-1.74-11.679-4.837l-9.26-9.26c-1.549-1.549-3.649-2.419-5.839-2.419
	h-19.09c-35.188,0-65.912,26.553-68.185,61.667c-2.492,38.477,27.98,70.462,65.921,70.462h148.646
	c37.942,0,68.413-31.985,65.921-70.462C393.971,59.585,363.246,33.032,328.059,33.032L328.059,33.032z"/>
<circle style="fill:#99E9DF;" cx="256" cy="388.13" r="16.517"/>
<g>
</g>
<g>
</g>
<g>
</g>
<g>
</g>
<g>
</g>
<g>
</g>
<g>
</g>
<g>
</g>
<g>
</g>
<g>
</g>
<g>
</g>
<g>
</g>
<g>
</g>
<g>
</g>
<g>
</g>
</svg>
