<?xml version="1.0" encoding="iso-8859-1"?>
<!-- Generator: Adobe Illustrator 19.0.0, SVG Export Plug-In . SVG Version: 6.00 Build 0)  -->
<svg version="1.1" id="Capa_1" xmlns="http://www.w3.org/2000/svg" xmlns:xlink="http://www.w3.org/1999/xlink" x="0px" y="0px"
	 viewBox="0 0 511.997 511.997" style="enable-background:new 0 0 511.997 511.997;" xml:space="preserve">
<path style="fill:#CCF4EF;" d="M363.354,338.582h-214.71c-13.682,0-24.774-11.092-24.774-24.774v-8.258h264.258v8.258
	C388.128,327.49,377.035,338.582,363.354,338.582z"/>
<g>
	<path style="fill:#C9C6CA;" d="M181.675,404.646h-33.032V388.13h29.613l36.452-36.452v-46.129h16.516v49.548
		c0,2.194-0.871,4.29-2.419,5.839l-41.29,41.29C185.966,403.775,183.869,404.646,181.675,404.646z"/>
	<path style="fill:#C9C6CA;" d="M363.354,404.646h-33.032c-2.194,0-4.29-0.871-5.839-2.419l-41.29-41.29
		c-1.548-1.548-2.419-3.645-2.419-5.839V305.55h16.516v46.129l36.452,36.452h29.613v16.515H363.354z"/>
</g>
<path style="fill:#99E9DF;" d="M256.003,0.001c-3.735,0-7.552,0.354-11.421,1.094c-22.565,4.316-40.756,22.452-45.225,44.987
	c-1.824,9.196-1.441,18.085,0.696,26.267c2.982,11.414,2.113,23.731-4.713,33.352c-8.604,12.127-13.663,26.944-13.663,42.946
	c0,41.047,33.276,74.323,74.321,74.323c41.048,0.001,74.324-33.275,74.324-74.323c0-16.002-5.059-30.819-13.663-42.946
	c-6.827-9.621-7.695-21.938-4.713-33.352c2.137-8.181,2.52-17.071,0.696-26.267c-4.469-22.536-22.659-40.671-45.225-44.987
	C263.547,0.355,259.729,0.001,256.003,0.001z"/>
<path style="fill:#4BD7C8;" d="M297.288,206.453c-41.045,0.001-74.321-33.275-74.321-74.323c0-16.002,5.059-30.82,13.663-42.946
	c6.827-9.621,7.695-21.938,4.714-33.352c-2.138-8.181-2.52-17.071-0.696-26.267c2.255-11.373,8.02-21.61,16.064-29.531
	C256.478,0.031,256.236,0,256.003,0c-3.735-0.001-7.552,0.354-11.42,1.093c-22.566,4.316-40.756,22.452-45.225,44.987
	c-1.824,9.196-1.442,18.085,0.696,26.267c2.981,11.414,2.113,23.731-4.714,33.352c-8.604,12.126-13.663,26.944-13.663,42.946
	c0,41.047,33.276,74.323,74.321,74.323c17.86,0,34.241-6.309,47.057-16.807C301.146,206.308,299.234,206.453,297.288,206.453z"/>
<path style="fill:#9C969E;" d="M286.612,126.291c-3.226-3.226-8.452-3.226-11.677,0l-10.677,10.677v-21.355
	c0-4.565-3.694-8.258-8.258-8.258c-4.564,0-8.258,3.694-8.258,8.258v54.388l-18.935-18.935c-3.226-3.226-8.452-3.226-11.677,0
	c-3.226,3.226-3.226,8.452,0,11.677l30.613,30.613V305.55c0,4.565,3.694,8.258,8.258,8.258c4.564,0,8.258-3.694,8.258-8.258V160.324
	l22.355-22.355C289.837,134.743,289.837,129.517,286.612,126.291z"/>
<g>
	<circle style="fill:#99E9DF;" cx="140.388" cy="396.391" r="16.516"/>
	<circle style="fill:#99E9DF;" cx="371.608" cy="396.391" r="16.516"/>
</g>
<rect x="247.738" y="305.551" style="fill:#C9C6CA;" width="16.516" height="181.68"/>
<circle style="fill:#4BD7C8;" cx="255.998" cy="495.481" r="16.516"/>
<path style="fill:#99E9DF;" d="M396.385,313.807H115.611c-4.565,0-8.258-3.694-8.258-8.258c0-4.565,3.694-8.258,8.258-8.258h280.774
	c4.565,0,8.258,3.694,8.258,8.258C404.643,310.114,400.951,313.807,396.385,313.807z"/>
<g>
</g>
<g>
</g>
<g>
</g>
<g>
</g>
<g>
</g>
<g>
</g>
<g>
</g>
<g>
</g>
<g>
</g>
<g>
</g>
<g>
</g>
<g>
</g>
<g>
</g>
<g>
</g>
<g>
</g>
</svg>
