<?xml version="1.0" standalone="no"?>
<!DOCTYPE svg PUBLIC "-//W3C//DTD SVG 20010904//EN"
 "http://www.w3.org/TR/2001/REC-SVG-20010904/DTD/svg10.dtd">
<svg version="1.0" xmlns="http://www.w3.org/2000/svg"
 viewBox="0 0 140.000000 140.000000"
 preserveAspectRatio="xMidYMid meet">
<metadata>
Created by potrace 1.15, written by Peter Selinger 2001-2017
</metadata>
<g transform="translate(0.000000,141.000000) scale(0.100000,-0.100000)"
fill="#000000" stroke="none">
<path d="M460 1029 c-78 -24 -157 -108 -182 -193 -18 -63 -15 -202 7 -265 24
-73 92 -142 158 -160 62 -18 161 -10 213 17 45 23 100 80 115 119 17 47 21 73
10 73 -6 0 -13 -12 -17 -27 -13 -55 -54 -112 -100 -139 -60 -35 -164 -44 -228
-20 -83 32 -141 125 -148 236 l-3 45 259 3 258 2 -7 58 c-12 106 -71 199 -149
236 -44 21 -141 28 -186 15z m149 -25 c91 -27 144 -99 167 -226 l6 -38 -250 0
-251 0 6 38 c8 59 60 159 99 188 69 53 135 64 223 38z"/>
<path d="M870 1015 c0 -3 47 -69 105 -146 l106 -140 -114 -147 c-130 -169
-132 -172 -118 -172 6 0 63 68 127 151 95 122 119 148 129 137 9 -9 152 -195
221 -287 2 -1 8 -1 14 1 6 2 -31 57 -82 123 -52 66 -106 137 -122 158 l-28 37
106 139 c58 77 106 142 106 145 0 22 -30 -11 -120 -129 -57 -74 -104 -135
-106 -135 -2 0 -49 61 -105 135 -87 117 -119 152 -119 130z"/>
</g>
</svg>
