<?xml version="1.0" encoding="iso-8859-1"?>
<!-- Generator: Adobe Illustrator 19.0.0, SVG Export Plug-In . SVG Version: 6.00 Build 0)  -->
<svg version="1.1" id="Layer_1" xmlns="http://www.w3.org/2000/svg" xmlns:xlink="http://www.w3.org/1999/xlink" x="0px" y="0px"
	 viewBox="0 0 500 500" style="enable-background:new 0 0 500 500;" xml:space="preserve">
<g transform="translate(726.53 -505.87)">
	<g>
		<circle style="fill:#FFFFFF;" cx="-476.53" cy="755.87" r="250"/>
		<path style="fill:#FFFFFF;" d="M-226.53,755.87c0,138.1-111.9,250-250,250l0,0c-138.1,0-250-111.9-250-250s111.9-250,250-250
			S-226.53,617.77-226.53,755.87L-226.53,755.87z"/>
	</g>
	<path style="fill:#456196;" d="M-237.03,755.87c0,132.5-107.2,240-239.5,240s-239.5-107.5-239.5-240s107.2-240,239.5-240
		S-237.03,623.27-237.03,755.87L-237.03,755.87z"/>
	<path style="fill:#0AAEB8;" d="M-711.23,800.97c-18.1-94.3,21.5-190.3,100.6-244.2s182.7-55.1,263.1-3.3s122.5,146.9,106.7,241.6
		l-235.7-39.6L-711.23,800.97z"/>
	<path style="fill:#3C517D;" d="M-447.73,808.47l-58.8,0.6l-141.9,114.5c43.5,44.3,104.2,71.8,171.3,71.8
		c67.5,0,128.5-27.9,172.2-72.8L-447.73,808.47z"/>
	<path style="fill:#0AAEB8;" d="M-712.43,711.97c-2.8,14.6-3.2,29.2-3.7,44c-0.6,19.2,3.2,38.1,6.1,53.9l467-0.2
		c4.1-17.5,6.2-35.5,6.3-53.5c-0.1-14.8-1.5-29.6-4.3-44.2H-712.43z"/>
	<g>
		<path style="fill:#E6E6E6;" d="M-411.43,809.67l-2.4-87.2h27.8l2.4,87.2H-411.43z"/>
		<path style="fill:#E6E6E6;" d="M-566.83,809.67l-2.4-94.4l27.8-0.1l2.4,94.4L-566.83,809.67z"/>
	</g>
	<path style="fill:#FFFFFF;" d="M-706.63,687.47c-4.6,15.4-7.6,31.1-9.1,47.1h477.8c-1.4-16-4.5-31.7-9.1-47.1H-706.63z"/>
	<path style="fill:#E6E6E6;" d="M-241.93,707.47l-470.1,2c-1.8,9.2-3,18.5-3.7,27.8l478-2.1
		C-238.63,725.87-240.03,716.67-241.93,707.47z"/>
	<g>
		<path style="fill:#456196;" d="M-299.13,778.07c-2.4,0-4.4,3.9-4.4,8.8v15.9c-0.4-0.3-0.9-0.6-1.5-0.7c0.1-0.5,0.2-1,0.2-1.5v-9.8
			c0-2.6-1.4-4.7-3.2-4.7s-3.2,2.1-3.2,4.7v9.8c0.4,3.4,1.9,4.7,4.7,4.9c1.3,0,2.5-0.4,3.1-0.9v0.4c0,4.8,2,8.8,4.4,8.8
			s4.4-3.9,4.4-8.8v-3.7c0.6,0.6,1.6,1.1,2.7,1.1c2.2-0.1,4.3-1.8,4.4-3.7v-7c0-1.9-1.4-3.4-3.2-3.4c-1.8,0-3.2,1.5-3.2,3.4v6.5
			c-0.3,0.2-0.5,0.3-0.7,0.6v-12C-294.73,781.97-296.73,778.07-299.13,778.07z"/>
		<path style="fill:#456196;" d="M-640.33,774.97c-4.1,0-7.4,6.6-7.4,14.8v20.3c-0.3-0.4-0.7-0.7-1.2-1v-11.1c0-3.2-2.4-5.7-5.4-5.7
			s-5.4,2.6-5.4,5.7v11.9c0,2.9,2.1,5.3,4.8,5.7c0.8,0.3,1.7,0.5,2.7,0.5c1.9,0,3.6-0.7,4.6-1.8v6.2c0,8.2,3.3,14.8,7.4,14.8
			s7.4-6.6,7.4-14.8v-0.6c1.1,0.9,3,1.5,5.2,1.5c1,0,1.9-0.1,2.8-0.3c2.9-0.2,5.2-3.7,5.2-8v-16.6c0-4.4-2.4-8-5.4-8s-5.4,3.6-5.4,8
			v16.5c0,0.9,0.1,1.7,0.3,2.5c-1.1,0.3-2,0.7-2.6,1.2v-26.9C-632.93,781.57-636.23,774.97-640.33,774.97z"/>
	</g>
	<path style="fill:#FFFFFF;" d="M-557.23,553.77l20.9,12.9c-7.4,4-12.5,9.7-14.3,15.9l20-12.4l8.6,5.3c-0.8-2.8-2.3-5.4-4.3-7.9
		l10.9-6.8c-5.1,0.3-10,1.4-14.6,3C-536.83,558.17-546.63,554.47-557.23,553.77z M-522.03,575.57l35.1-21.8
		C-504.13,554.87-518.63,563.87-522.03,575.57z M-550.63,582.67c-3.4-11.7-17.9-20.7-35.1-21.8L-550.63,582.67z"/>
	<g>
		<path style="fill:#FED401;" d="M-487.23,960.57v34.8c3.6,0.3,7.1,0.4,10.7,0.5c3.5,0,6.9-0.2,10.4-0.4v-34.9L-487.23,960.57
			L-487.23,960.57z"/>
		<path style="fill:#FED401;" d="M-486.53,948.47h19.7l-1.1-44.9l-17.3,0.2L-486.53,948.47z"/>
		<path style="fill:#FED401;" d="M-469.73,845.57l-13.2,0.3l-1.8,45.2l17.3-0.2L-469.73,845.57z"/>
		<path style="fill:#FED401;" d="M-469.33,837.77l-13.2-0.3l2.2-27.4h8.3L-469.33,837.77z"/>
		<path style="fill:#FED401;" d="M-427.23,577.37c19.3,0,34.9-15.6,34.9-34.9l0,0c0-4.5-0.8-8.7-2.4-12.7
			c-18.3-6.6-37.1-10.9-56.2-13c-6.9,6.4-11.2,15.5-11.2,25.6C-462.13,561.77-446.53,577.37-427.23,577.37z"/>
	</g>
</g>
<g>
</g>
<g>
</g>
<g>
</g>
<g>
</g>
<g>
</g>
<g>
</g>
<g>
</g>
<g>
</g>
<g>
</g>
<g>
</g>
<g>
</g>
<g>
</g>
<g>
</g>
<g>
</g>
<g>
</g>
</svg>
