<?xml version="1.0" encoding="iso-8859-1"?>
<!-- Generator: Adobe Illustrator 19.0.0, SVG Export Plug-In . SVG Version: 6.00 Build 0)  -->
<svg version="1.1" id="Layer_1" xmlns="http://www.w3.org/2000/svg" xmlns:xlink="http://www.w3.org/1999/xlink" x="0px" y="0px"
	 viewBox="0 0 500 500" style="enable-background:new 0 0 500 500;" xml:space="preserve">
<g transform="translate(1401.52 -540.36)">
	<path style="fill:#FFFFFF;" d="M-901.52,790.36c0,138.071-111.929,250-250,250s-250-111.929-250-250s111.929-250,250-250
		S-901.52,652.289-901.52,790.36L-901.52,790.36z"/>
	<path style="fill:#86D0EF;" d="M-911.52,790.36c0,132.548-107.452,240-240,240s-240-107.452-240-240s107.452-240,240-240
		S-911.52,657.812-911.52,790.36z"/>
	<g transform="translate(0 540.36)">
		<g>
			<path style="fill:#3C517D;" d="M-1224.503,385.97l-60.063,26.105l-23.682,19.514c43.549,37.632,99.171,58.361,156.727,58.408
				c22.997-0.055,45.867-3.416,67.908-9.979l-75.947-80.223L-1224.503,385.97z"/>
			<path style="fill:#3C517D;" d="M-1066.101,415.818l-40.455,17.584l-67.322,55.477c7.431,0.721,14.892,1.094,22.358,1.119
				c52.178-0.079,102.908-17.16,144.508-48.656l-15.348-16.211L-1066.101,415.818L-1066.101,415.818z"/>
		</g>
		<g>
			<path style="fill:#456196;" d="M-1056.661,432.992l-54.945,6.543l-60.805,49.418c6.945,0.652,13.915,1,20.891,1.045
				c35.572-0.083,70.68-8.073,102.785-23.391L-1056.661,432.992L-1056.661,432.992z"/>
			<path style="fill:#456196;" d="M-1270.366,397.011l-39.418,33.146c35.131,30.804,78.491,50.683,124.758,57.199l-16.273-79.131
				L-1270.366,397.011z"/>
		</g>
		<g>
			<path style="fill:#F8F8F8;" d="M-1218.452,378.004c-27.089,0-50.66,14.069-62.807,26.559l-26.387,23.289l17.951-6.416
				c0.378,1.464,1.263,3.497,3.375,4.621c3.533,1.879,4.562-3.403,7.801-3.17c3.239,0.233,4.27,7.752,8.834,8.457
				c4.009,0.87,6.035-10.683,13.984-11.627c7.95-0.943,8.842,14.101,14.07,14.518c5.532,0.44,3.005-16.563,16.609-20.135
				c19.578-5.14,11.634,31.789,20.561,30.963c9.095-0.842,5.291-24.777,15.449-24.777s9.128,7.064,16.783,7.064
				s4.27-3.525,8.98-3.525c4.711,0,7.951,7.051,12.367,7.051c1.829,0,3.27-0.19,4.377-0.557v0.01l12.209-3.883l-17.666-19.584
				c-9.871-12.069-37.536-28.857-66.496-28.857L-1218.452,378.004z"/>
			<path style="fill:#F8F8F8;" d="M-1059.671,412.672c-20.056,0-36.577,9.128-43.504,16.885l-13.166,11.848l6.137-2.115
				c0.044,1.144,0.356,3.316,2.074,4.23c2.38,1.266,3.467-2.993,5.648-2.836s2.875,5.222,5.949,5.697
				c3.074,0.475,4.066-7.196,9.42-7.832c5.354-0.635,3.866,10.549,10.41,10.549s0.05-11.105,10.064-11.105
				c10.015,0,6.146,15.975,13.801,20.668c7.987,4.896,3.801-21.064,10.642-21.064c6.842,0,6.146,6.094,11.303,6.094
				c5.156,0,2.876-2.373,6.049-2.373c3.173,0,5.355,4.748,8.33,4.748c1.455,0,2.54-0.183,3.326-0.525v0.014l7.832-2.49
				l-11.756-13.033c-6.191-7.743-23.009-17.357-42.564-17.357L-1059.671,412.672z"/>
			<path style="fill:#F8F8F8;" d="M-1217.023,22.719c-4.693-0.094-9.317,1.332-13.352,4.117c-2.376,1.652-4.502,3.745-6.293,6.197
				c-3.152-2.696-6.833-3.219-10.223-1.453c-0.255-0.399-0.516-0.785-0.785-1.16c-14.951,6.552-29.195,14.612-42.51,24.055
				c4.349,1.329,10.693,2.095,17.371,2.096c4.067-0.002,8.059-0.289,11.564-0.83c4.039,1.901,11.682,3.081,19.98,3.084
				c10.114-0.001,19.027-1.742,21.932-4.283c4.339,1.288,10.572,2.026,17.123,2.029c7.92-0.003,15.272-1.079,19.441-2.846
				c2.451,0.874,5.364,1.343,8.35,1.344c8.089,0,14.645-3.363,14.645-7.511c0,0,0,0,0,0c-0.001-4.147-6.557-7.509-14.645-7.51
				c-1.371,0.001-2.736,0.101-4.053,0.297c-1.152-1.539-2.518-2.842-4.043-3.854c-4.289-2.823-9.474-3.132-13.99-0.834
				c-2.176-3.751-5.069-6.867-8.453-9.105C-1208.642,24.121-1212.789,22.803-1217.023,22.719L-1217.023,22.719z"/>
			<path style="fill:#F8F8F8;" d="M-978.294,105.136c-2.055-0.087-4.09,0.492-5.877,1.672c-1.482,0.98-2.75,2.344-3.703,3.986
				c-1.978-1.007-4.25-0.872-6.129,0.365c-0.667,0.443-1.265,1.014-1.77,1.688c-0.577-0.085-1.175-0.129-1.775-0.129
				c-3.542,0-6.413,1.473-6.414,3.289c-0.001,1.817,2.87,3.29,6.413,3.291c0,0,0.001,0,0.001,0c1.308,0,2.584-0.205,3.658-0.588
				c1.826,0.773,5.045,1.245,8.514,1.246c2.869-0.001,5.599-0.325,7.5-0.889c1.274,1.113,5.178,1.875,9.607,1.875
				c3.636-0.001,6.985-0.518,8.754-1.352c1.535,0.238,3.283,0.364,5.064,0.365c1.535-0.001,3.048-0.095,4.424-0.273
				c-3.284-4.974-6.752-9.825-10.396-14.541c-1.31,0.112-2.584,0.72-3.713,1.773c-0.612,0.58-1.174,1.285-1.67,2.096
				c-1.485-0.774-3.098-0.545-4.479,0.637c-0.784-1.075-1.715-1.993-2.756-2.717C-974.634,105.832-976.441,105.214-978.294,105.136z
				"/>
			<path style="fill:#F8F8F8;" d="M-1361.646,317.205c-2.593,0.07-5.133,1.165-7.387,3.186c-1.59,1.425-3.007,3.283-4.186,5.488
				c-0.136,0.271-0.269,0.546-0.398,0.826c-1.635-0.436-3.32-0.363-4.932,0.213c2.113,6.247,4.482,12.404,7.102,18.455
				c3.242-0.019,6.412-0.255,9.209-0.686c3.358,1.581,9.712,2.562,16.611,2.564c8.407-0.001,15.817-1.448,18.232-3.561
				c3.608,1.071,8.791,1.685,14.238,1.688c6.584-0.003,12.696-0.897,16.162-2.365c2.038,0.726,4.46,1.115,6.941,1.115
				c6.724,0,12.176-2.796,12.176-6.244c0-3.448-5.451-6.244-12.176-6.244c-1.101,0-2.197,0.077-3.258,0.229
				c-0.037,0.006-0.074,0.013-0.111,0.02c-0.233-0.316-0.476-0.62-0.73-0.912c-0.79-0.891-1.674-1.661-2.631-2.293
				c-3.567-2.348-7.878-2.605-11.633-0.693c-0.025-0.047-0.049-0.094-0.074-0.141c-1.802-3.057-4.18-5.597-6.953-7.428
				c-6.567-4.337-14.633-4.247-21.127,0.234c-1.809,1.249-3.447,2.807-4.857,4.621c-0.126,0.176-0.251,0.353-0.373,0.533
				c0-0.001,0-0.001,0-0.002c-2.62-2.241-5.68-2.675-8.498-1.207c-0.942-1.538-2.007-2.874-3.17-3.975
				c-2.471-2.315-5.302-3.5-8.176-3.422L-1361.646,317.205z"/>
		</g>
	</g>
	<path style="fill:#F73C3C;" d="M-1262.961,733.733c-2.524,28.026-2.807,50.835-0.634,50.946c2.173,0.111,5.981-22.518,8.504-50.544
		c2.523-28.026,2.807-50.835,0.634-50.946C-1256.63,683.078-1260.437,705.708-1262.961,733.733z"/>
	<path style="fill:#F8F8F8;" d="M-1212.746,740.852c-1.727,10.952-16.027,17.705-31.939,15.083
		c-15.912-2.622-27.411-13.625-25.684-24.577v0c1.727-10.952,16.027-17.705,31.939-15.083h0
		C-1222.518,718.897-1211.019,729.9-1212.746,740.852z"/>
	<path style="fill:#FED401;" d="M-952.268,712.049l-31.699,2.386l-34.623,34.1l-85.115-42.454l-77.777-13.023l-23.121,21.55
		l-35.063,1.587l-9.161,19.977l180.582,23.957l69.453,3.985L-952.268,712.049z"/>
	<path style="fill:#F3F3C7;" d="M-1018.562,763.015l-92.232,3.196l-136.856-10.476l-1.155-19.566L-1018.562,763.015z"/>
	<path style="fill:#CB3938;" d="M-966.957,751.721c0.051-1.004-8.044-4.463-18.08-7.726c0,0-0.001,0-0.001,0
		c-10.036-3.263-18.213-5.094-18.263-4.09c0,0,0,0,0,0c-0.051,1.004,8.044,4.463,18.08,7.726c0,0,0.001,0,0.001,0
		C-975.184,750.894-967.007,752.725-966.957,751.721C-966.957,751.721-966.957,751.721-966.957,751.721z"/>
	<g>
		<g>
			<path style="fill:#F3F3C7;" d="M-1003.565,739.825c-0.05,1.004,8.045,4.463,18.081,7.726c10.036,3.263,18.213,5.094,18.263,4.089
				s-8.045-4.463-18.081-7.726C-995.338,740.651-1003.515,738.821-1003.565,739.825z"/>
		</g>
		<path style="fill:#F3F3C7;" d="M-1236.555,747.385L-1236.555,747.385c0.487-0.751,2.664,0.439,4.861,2.657l12.79,12.912
			c2.198,2.218,3.584,4.625,3.097,5.376l0,0c-0.487,0.751-2.664-0.439-4.861-2.658l-12.79-12.911
			C-1235.655,750.543-1237.042,748.136-1236.555,747.385z"/>
		<path style="fill:#F3F3C7;" d="M-1194.325,750.054L-1194.325,750.054c-0.392-0.805-2.697,0.11-5.15,2.043l-14.273,11.25
			c-2.452,1.933-4.123,4.152-3.731,4.957l0,0c0.392,0.805,2.698-0.11,5.15-2.043l14.273-11.25
			C-1195.604,753.078-1193.934,750.859-1194.325,750.054z"/>
	</g>
	<g shape-rendering="auto" image-rendering="auto" color-rendering="auto" color-interpolation="sRGB">
		<path style="fill:#4BA8D8;" d="M-1179.015,697.951l-21.066,17.553l1.063,0.191l59.393,10.697l109.111,21.215l0.314-0.949
			l-71.98-34.297l-25.65-5.16L-1179.015,697.951z"/>
		<path style="fill:#BED9E0;" d="M-1178.732,699.025l50.711,9.166l25.52,5.133l68.287,32.537l-105.227-20.459l-58.338-10.506
			L-1178.732,699.025z"/>
	</g>
	<g>
		<polygon style="fill:#4BA8D8;" points="-1147.551,704.206 -1146.5,704.63 -1153.753,723.673 -1154.803,723.249 		"/>
		<polygon style="fill:#4BA8D8;" points="-1103.1,712.972 -1102.235,713.35 -1108.703,731.842 -1109.568,731.464 		"/>
	</g>
	<g transform="translate(0 540.36)">
		<path style="fill:#F73C3C;" d="M-1178.855,144.508c-2.22-0.048-3.407,0.158-3.502,0.609c-0.074,0.373,0.597,0.907,1.988,1.584
			c-0.983,0.573-1.737,1.42-2.039,2.461c-0.647,2.232,0.997,4.421,3.688,4.908l72.891,13.205c1.972,0.357,3.933-0.308,5.1-1.564
			c8.713,1.206,13.696,1.352,13.896,0.408c0.197-1.008-5.037-3.163-14.461-5.953c-0.605-0.448-1.34-0.792-2.199-0.947l-3.076-0.557
			c-6.996-1.933-15.232-3.976-23.822-5.91c-0.449-0.101-0.899-0.202-1.35-0.303c-0.577-0.13-1.156-0.26-1.734-0.389
			c-0.101-0.022-0.202-0.044-0.303-0.066c-0.13-0.029-0.26-0.057-0.391-0.086C-1153.721,147.609-1171.466,144.67-1178.855,144.508
			L-1178.855,144.508z"/>
		<path style="fill:#F8F8F8;" d="M-1044.105,279.289c-2.593,0.071-5.133,1.167-7.387,3.188c-1.778,1.605-3.336,3.751-4.584,6.313
			c-2.606-0.705-5.311-0.109-7.621,1.68c-2.469,1.917-4.302,5.055-5.121,8.764c-2.928,0.903-4.537,2.049-4.539,3.234
			c-0.001,2.759,8.525,4.996,19.043,4.996c0.001,0,0.001,0,0.002,0c3.382-0.002,6.702-0.24,9.617-0.689
			c3.359,1.58,9.712,2.56,16.609,2.563c8.408-0.001,15.819-1.448,18.234-3.561c3.607,1.071,8.789,1.685,14.236,1.688
			c6.585-0.003,12.697-0.897,16.164-2.365c2.038,0.726,4.46,1.116,6.941,1.117c6.725,0,12.176-2.796,12.176-6.245
			c0,0,0-0.001,0-0.001c0-3.448-5.451-6.244-12.176-6.244c-1.101,0-2.197,0.077-3.258,0.229c-0.037,0.006-0.074,0.013-0.111,0.02
			c-0.233-0.316-0.478-0.62-0.732-0.912c-0.789-0.89-1.673-1.661-2.629-2.293c-3.566-2.348-7.878-2.605-11.633-0.693
			c-1.809-3.118-4.214-5.708-7.027-7.568c-6.567-4.336-14.633-4.246-21.127,0.236c-1.975,1.372-3.743,3.112-5.232,5.15
			c-0.327-0.28-0.663-0.533-1.006-0.758c-2.39-1.57-5.04-1.728-7.494-0.449c-0.221-0.371-0.449-0.731-0.684-1.08
			c-0.765-1.093-1.597-2.063-2.484-2.895C-1038.398,280.395-1041.23,279.21-1044.105,279.289L-1044.105,279.289z"/>
	</g>
	
		<g transform="translate(-20.819 -1.928)" shape-rendering="auto" image-rendering="auto" color-rendering="auto" color-interpolation="sRGB">
		<path style="fill:#F3F3C7;" d="M-1195.548,765.411c-6.262,0-11.38,5.116-11.38,11.377s5.118,11.38,11.38,11.38
			s11.377-5.118,11.377-11.38S-1189.286,765.411-1195.548,765.411z"/>
		<path style="fill:#303030;" d="M-1195.548,768.904c4.378,0,7.884,3.506,7.884,7.884s-3.506,7.887-7.884,7.887
			c-4.379,0-7.887-3.508-7.887-7.887S-1199.926,768.904-1195.548,768.904z"/>
		<path style="fill:#F3F3C7;" d="M-1195.548,773.466c1.846,0,3.324,1.478,3.324,3.324s-1.478,3.325-3.324,3.325
			s-3.325-1.479-3.325-3.325S-1197.394,773.466-1195.548,773.466z"/>
	</g>
</g>
<g>
</g>
<g>
</g>
<g>
</g>
<g>
</g>
<g>
</g>
<g>
</g>
<g>
</g>
<g>
</g>
<g>
</g>
<g>
</g>
<g>
</g>
<g>
</g>
<g>
</g>
<g>
</g>
<g>
</g>
</svg>
