<?xml version="1.0" encoding="iso-8859-1"?>
<!-- Generator: Adobe Illustrator 19.0.0, SVG Export Plug-In . SVG Version: 6.00 Build 0)  -->
<svg version="1.1" id="Layer_1" xmlns="http://www.w3.org/2000/svg" xmlns:xlink="http://www.w3.org/1999/xlink" x="0px" y="0px"
	 viewBox="0 0 515.563 515.563" style="enable-background:new 0 0 515.563 515.563;" xml:space="preserve">
<g transform="translate(1926.89 -540.36)">
	<path shape-rendering="auto" image-rendering="auto" color-rendering="auto" color-interpolation="sRGB" style="fill:#FFFFFF;" d="
		M-1669.109,555.922c-138.065,0-250,111.935-250,250s111.935,250,250,250s250-111.935,250-250S-1531.044,555.922-1669.109,555.922z"
		/>
	<path style="fill:#1B4468;" d="M-1429.109,805.925c0,132.548-107.452,240-240,240s-240-107.452-240-240s107.452-240,240-240
		S-1429.109,673.376-1429.109,805.925z"/>
	<g transform="translate(0 540.36)">
		<path style="fill:#19A1C2;" d="M-1659.894,345.178c-80.683,0.005-158.203,14.821-216.18,41.318
			c42.95,73.625,121.728,118.946,206.965,119.066c87.908-0.009,168.777-48.077,210.791-125.295
			C-1514.545,357.632-1586.007,345.192-1659.894,345.178z"/>
		<path style="fill:#00B2DE;" d="M-1668.515,0c-0.598,0-1.063,1.828-1.063,4.094v26.375c0,0.066-0.001,0.122,0,0.188
			c-2.116,0.524-3.719,2.556-3.719,4.969c0,0.838,0.225,1.615,0.563,2.313c-2.359,0.716-3.938,1.982-3.938,3.469V65.75
			c-3.271,2.816-5.406,7.258-5.406,12.281c0,1.731,0.262,3.391,0.725,4.945c-9.046,2.118-14.71,6.287-14.717,10.83
			c0,6.766,12.343,12.25,27.568,12.25c15.225,0,27.568-5.484,27.568-12.25c-0.008-4.543-5.672-8.71-14.717-10.828
			c0.465-1.555,0.729-3.215,0.729-4.947c0-5.023-2.135-9.465-5.406-12.281V41.406c0-1.485-1.582-2.753-3.938-3.469
			c0.337-0.697,0.531-1.474,0.531-2.313c0-2.412-1.571-4.445-3.688-4.969c0.001-0.066,0-0.121,0-0.188V4.094
			C-1667.421,1.828-1667.917,0-1668.515,0z"/>
		<path style="fill:#148AAB;" d="M-1621.171,348.172l-108.176,62.813l54.363,94.283c1.957,0.122,3.916,0.221,5.875,0.295
			c68.976-0.077,134.584-29.827,180.09-81.662L-1621.171,348.172z"/>
	</g>
	<path style="fill:#00B2DE;" d="M-1722.789,946.295l27.017-237.939h55.985l24.358,239.371L-1722.789,946.295z"/>
	<path style="fill:#E96F37;" d="M-1669.109,905.729c-10.447,0-18.857,5.063-18.857,11.352v23.975h37.713v-23.975
		C-1650.253,910.792-1658.662,905.729-1669.109,905.729z"/>
	<g>
		<path style="fill:#427CB7;" d="M-1727.861,941.057h117.503c2.129,0,3.842,2.147,3.842,4.814v4.56c0,2.667-1.714,4.814-3.842,4.814
			h-117.503c-2.129,0-3.842-2.147-3.842-4.814v-4.56C-1731.703,943.204-1729.989,941.057-1727.861,941.057z"/>
		<path style="fill:#427CB7;" d="M-1716.154,886.103l5.107-44.055l84.854,0.109l4.452,43.946H-1716.154z"/>
		<path style="fill:#427CB7;" d="M-1700.991,753.011l5.07-44.655h56.11l4.541,44.655H-1700.991z"/>
	</g>
	<path style="fill:#BFDFF0;" d="M-1696.25,668.008h55.522v40.348h-55.522V668.008z"/>
	<path style="fill:#00B2DE;" d="M-1707.476,684.581c-1.036,0-1.869,0.833-1.869,1.869v1.496c0,1.036,0.833,1.869,1.869,1.869h1.738
		l2.141,17.736c0.288,2.383,2.397,3.42,4.361,3.42h62.279c1.841,0,3.646-1.533,3.834-3.092l2.18-18.064h0.916
		c1.036,0,1.871-0.833,1.871-1.869v-1.496c0-1.036-0.835-1.869-1.871-1.869H-1707.476z M-1699.64,689.815h10.461v12.65h-8.936
		L-1699.64,689.815z M-1684.988,689.815h14.404v12.65h-14.404V689.815z M-1666.394,689.815h14.666v12.65h-14.666V689.815z
		 M-1647.536,689.815h10.496l-1.525,12.65h-8.971V689.815z"/>
	<path style="fill:#DCEFEB;" d="M-1695.417,637.62h53.855v29.791h-53.855V637.62z"/>
	<path style="fill:#00B2DE;" d="M-1695.536,632.987h54.095c0.403,0,0.728,0.445,0.728,0.997v3.24c0,0.552-0.325,0.997-0.728,0.997
		h-54.095c-0.404,0-0.728-0.445-0.728-0.997v-3.24C-1696.265,633.432-1695.94,632.987-1695.536,632.987z"/>
	<path style="fill:#427CB7;" d="M-1696.607,664.082h56.236c1.036,0,1.869,0.834,1.869,1.869v1.495c0,1.036-0.834,1.869-1.869,1.869
		h-56.236c-1.036,0-1.869-0.834-1.869-1.869v-1.495C-1698.476,664.916-1697.642,664.082-1696.607,664.082z"/>
	<path style="fill:#1B4468;" d="M-1668.685,637.864c-0.94,0-1.697,0.757-1.697,1.697v2.553c-3.697,0.561-6.424,2.685-6.73,5.24
		c-0.056,0.087-0.096,0.219-0.096,0.377v1.549c0,0.264,0.104,0.477,0.23,0.477h0.037v13.951h16.904v-13.951h0.037
		c0.127,0,0.229-0.213,0.229-0.477v-1.549c0-0.163-0.04-0.299-0.1-0.385c-0.322-2.652-3.246-4.824-7.119-5.287v-2.498
		C-1666.99,638.621-1667.746,637.864-1668.685,637.864L-1668.685,637.864z"/>
	<path style="fill:#FEC228;" d="M-1673.588,647.428h10.198c0.764,0,1.378,0.615,1.378,1.378v5.263c0,0.764-0.615,1.378-1.378,1.378
		h-10.198c-0.764,0-1.378-0.615-1.378-1.378v-5.263C-1674.966,648.043-1674.351,647.428-1673.588,647.428z"/>
	<g transform="translate(0 540.36)">
		<path style="fill:#ABBCC8;" d="M-1674.263,107.271l-190.855,20.053c-11.267,16.041-20.526,33.402-27.57,51.695l218.371-64.113
			L-1674.263,107.271L-1674.263,107.271z"/>
		<path style="fill:#ABBCC8;" d="M-1663.951,107.143l0.055,7.633l220.488,69.873c-7.506-20.861-17.866-40.582-30.785-58.6
			L-1663.951,107.143L-1663.951,107.143z"/>
	</g>
	<g>
		<path style="fill:#FEC228;stroke:#427CB7;stroke-width:4.118;" d="M-1666.535,768.026c5.439,0,9.819,2.557,9.819,5.734v12.327
			c0,3.176-4.379,5.734-9.819,5.734s-9.819-2.557-9.819-5.734V773.76C-1676.354,770.583-1671.975,768.026-1666.535,768.026z"/>
		<path style="fill:#FEC228;stroke:#427CB7;stroke-width:4.118;" d="M-1666.535,807.283c5.439,0,9.819,2.557,9.819,5.733v12.327
			c0,3.176-4.379,5.734-9.819,5.734s-9.819-2.557-9.819-5.734v-12.327C-1676.354,809.841-1671.975,807.283-1666.535,807.283
			L-1666.535,807.283z"/>
	</g>
	<path style="fill:#E96F37;" d="M-1724.632,586.789c-5.708,2.364-9.688,7.608-9.688,13.717c0,8.319,7.364,15.06,16.45,15.06
		c6.009,0,11.253-2.959,14.124-7.362c-2.064,0.854-4.35,1.343-6.762,1.343c-9.087,0-16.45-6.741-16.45-15.06
		C-1726.958,591.676-1726.096,589.041-1724.632,586.789L-1724.632,586.789z"/>
	<g>
		<g transform="matrix(0.65508 0.75556 -0.75556 0.65508 0 0)">
			<path style="fill:none;stroke:#E96F37;stroke-width:3;" d="M-591.16,1598.457h2.732c2.013,0,3.634,0.591,3.634,1.326v7.349
				c0,0.734-1.621,1.326-3.634,1.326h-2.732c-2.013,0-3.634-0.591-3.634-1.326v-7.349
				C-594.794,1599.048-593.173,1598.457-591.16,1598.457z"/>
			<path style="fill:none;stroke:#E96F37;stroke-width:2.046;" d="M-626.783,1799.837h1.863c1.373,0,2.478,0.403,2.478,0.904v5.011
				c0,0.501-1.105,0.904-2.478,0.904h-1.863c-1.373,0-2.478-0.403-2.478-0.904v-5.011
				C-629.261,1800.24-628.156,1799.837-626.783,1799.837z"/>
		</g>
		<g>
			<path style="fill:none;stroke:#E96F37;stroke-width:3;" d="M-1536.483,638.992c0,3.407-2.762,6.169-6.169,6.169
				s-6.169-2.762-6.169-6.169s2.762-6.169,6.169-6.169l0,0C-1539.244,632.823-1536.483,635.585-1536.483,638.992L-1536.483,638.992z
				"/>
			<path style="fill:none;stroke:#E96F37;stroke-width:3;" d="M-1791.249,633.44c0,3.407-2.762,6.169-6.169,6.169
				c-3.407,0-6.169-2.762-6.169-6.169c0-3.407,2.762-6.169,6.169-6.169C-1794.011,627.271-1791.249,630.033-1791.249,633.44
				L-1791.249,633.44z"/>
		</g>
		<g>
			<path style="fill:none;stroke:#E96F37;stroke-width:2.235;" d="M-1590.872,709.826l-3.506-0.75l-4.425,2.007l-0.37-3.566
				l-3.276-3.588l3.277-1.454l2.401-4.224l2.395,2.668l4.759,0.978l-1.797,3.103L-1590.872,709.826z"/>
			<path style="fill:none;stroke:#E96F37;stroke-width:2.235;" d="M-1861.06,765.344l-3.506-0.75l-4.425,2.006l-0.37-3.566
				l-3.276-3.588l3.277-1.454l2.401-4.224l2.395,2.668l4.759,0.978l-1.797,3.103L-1861.06,765.344z"/>
		</g>
		<path style="fill:none;stroke:#E96F37;stroke-width:3;" d="M-1485.801,752.826l1.79,2.064c1.319,1.521,1.934,3.133,1.379,3.614
			l-5.552,4.814c-0.555,0.481-2.063-0.356-3.382-1.877l-1.79-2.064c-1.319-1.521-1.934-3.133-1.379-3.614l5.552-4.814
			C-1488.629,750.468-1487.12,751.305-1485.801,752.826z"/>
		<path style="fill:none;stroke:#E96F37;stroke-width:2.035;" d="M-1793.851,782.105c0,2.311-1.873,4.184-4.184,4.184h0
			c-2.311,0-4.184-1.873-4.184-4.184s1.873-4.184,4.184-4.184C-1795.724,777.921-1793.851,779.794-1793.851,782.105
			C-1793.851,782.105-1793.851,782.105-1793.851,782.105z"/>
		<path style="fill:none;stroke:#E96F37;stroke-width:2.235;" d="M-1550.159,810.993l-3.506-0.75l-4.425,2.007l-0.37-3.566
			l-3.276-3.588l3.277-1.454l2.401-4.224l2.395,2.668l4.759,0.978l-1.797,3.103L-1550.159,810.993z"/>
	</g>
</g>
<g>
</g>
<g>
</g>
<g>
</g>
<g>
</g>
<g>
</g>
<g>
</g>
<g>
</g>
<g>
</g>
<g>
</g>
<g>
</g>
<g>
</g>
<g>
</g>
<g>
</g>
<g>
</g>
<g>
</g>
</svg>
