<?xml version="1.0" encoding="iso-8859-1"?>
<!-- Generator: Adobe Illustrator 19.0.0, SVG Export Plug-In . SVG Version: 6.00 Build 0)  -->
<svg version="1.1" id="Layer_1" xmlns="http://www.w3.org/2000/svg" xmlns:xlink="http://www.w3.org/1999/xlink" x="0px" y="0px"
	 viewBox="0 0 500 500" style="enable-background:new 0 0 500 500;" xml:space="preserve">
<g transform="translate(1347.92 -540.36)">
	<path style="fill:#FFFFFF;" d="M-1097.92,540.36c-138.1,0-250,111.9-250,250s111.9,250,250,250s250-111.9,250-250
		S-959.92,540.36-1097.92,540.36z"/>
	<path style="fill:#EDD490;" d="M-857.92,790.36c0,132.5-107.5,240-240,240s-240-107.5-240-240s107.5-240,240-240l0,0
		C-965.42,550.36-857.92,657.76-857.92,790.36L-857.92,790.36z"/>
	<g>
		<g>
			<path style="fill:#0AAEB8;" d="M-909.12,938.46c-3.6,4.5-7.3,8.9-11.2,13.2C-916.42,947.46-912.72,943.06-909.12,938.46z"/>
			<path style="fill:#0AAEB8;" d="M-885.62,902.26c-0.8,1.6-1.7,3.1-2.5,4.7C-887.32,905.46-886.42,903.86-885.62,902.26z"/>
			<path style="fill:#0AAEB8;" d="M-894.62,917.86c-0.7,1.2-1.5,2.3-2.2,3.5C-896.12,920.16-895.32,918.96-894.62,917.86z"/>
			<path style="fill:#0AAEB8;" d="M-940.92,971.76c-4.4,3.8-8.8,7.4-13.5,10.8C-949.72,979.16-945.22,975.56-940.92,971.76z"/>
			<path style="fill:#0AAEB8;" d="M-997.52,1008.36c-1.1,0.5-2.2,1-3.3,1.5C-999.72,1009.36-998.62,1008.86-997.52,1008.36z"/>
			<path style="fill:#0AAEB8;" d="M-973.52,995.56c-3.3,2-6.6,3.9-10.1,5.8C-980.12,999.46-976.82,997.56-973.52,995.56z"/>
			<path style="fill:#0AAEB8;" d="M-1337.52,776.96c0,0.6-0.1,1.2-0.1,1.7c0-0.4,0-0.8,0.1-1.1
				C-1337.62,777.36-1337.62,777.16-1337.52,776.96z"/>
			<path style="fill:#0AAEB8;" d="M-1054.52,1026.36c-2.3,0.4-4.6,0.8-6.9,1.2C-1059.12,1027.16-1056.82,1026.76-1054.52,1026.36z"
				/>
			<path style="fill:#0AAEB8;" d="M-1337.22,772.16c0.2-2.9,0.5-5.7,0.8-8.6c0-0.2,0-0.3,0.1-0.5c0.1-1.2,0.3-2.5,0.5-3.7
				c0-0.3,0.1-0.6,0.1-0.9c0.2-1.2,0.3-2.3,0.5-3.5c0-0.3,0.1-0.5,0.1-0.8c0.2-1.3,0.4-2.5,0.6-3.8c0-0.1,0-0.3,0.1-0.4
				c0.7-4.3,1.6-8.6,2.6-12.9c0-0.1,0.1-0.3,0.1-0.4c0.3-1.3,0.6-2.6,0.9-3.9c0-0.1,0.1-0.3,0.1-0.4c4.9-19.8,12.3-38.9,22.2-57l0,0
				c0,0.1,0.1,0.2,0.1,0.3c9.6-17.6,21.4-34.1,35.2-48.9l0,0c1.8,15.1,3,31.8,3.6,49.2c6-6.7,12.6-10.2,19.2-10.2
				c13.7,0,26.6,14.6,34.8,39.3c7.3-11.7,16.1-18,25.1-18c12.4,0,24.2,11.9,32.4,32.8l6.7-27.5l9.8,41l22.3-90.9l26.4,110.3
				l10.2-41.4l12.5,52.5l29.8,5.1l6.4-24l6.9,25.2l17.9-67.2l15.2,55.3l6.7-24.9l4.6,16.7c5.6-12.7,13.6-19.9,22-19.9
				c6.1,0,12.1,3.8,17.1,11c5.6-15,14.4-23.9,23.7-23.9c4.5,0,9,2.2,13.1,6.2c1.1-27.8,5-51.5,10.4-63.9l0,0
				c23.3,36,36.6,77.5,38.4,120.2c-2.6-60.1-27.2-114.5-66-155.2c-2.6-2.8-5.4-5.5-8.1-8.1c-6.9-6.6-14.3-12.8-22-18.6
				s-15.8-11.1-24.1-15.9c-3.4-1.9-6.8-3.8-10.2-5.5c-32.8-16.8-69.9-26.3-109.3-26.3c-2.1,0-4.1,0-6.2,0.1
				c-4.1,0.1-8.2,0.3-12.3,0.6c-8.1,0.6-16.1,1.6-24,3c-3.9,0.7-7.8,1.5-11.7,2.4c-5.8,1.3-11.5,2.9-17.2,4.6
				c-9.4,2.9-18.5,6.4-27.4,10.4c-3.5,1.6-7,3.3-10.5,5.1s-6.9,3.6-10.2,5.5c-1.7,1-3.3,1.9-5,2.9c-6.6,4-13,8.3-19.1,12.9
				c-3.1,2.3-6.1,4.7-9.1,7.1c-10.4,8.6-20,18-28.8,28.1c-1.3,1.5-2.5,2.9-3.7,4.4c-4.9,5.9-9.5,12.1-13.8,18.5
				c-5.4,8-10.3,16.3-14.7,24.9c-3.5,6.9-6.7,14-9.6,21.3c-0.7,1.8-1.4,3.6-2.1,5.5c-1.3,3.7-2.6,7.4-3.8,11.2
				c-0.6,1.9-1.1,3.8-1.7,5.7c-4.5,15.9-7.4,32.4-8.5,49.4c0-0.3,0-0.6,0.1-0.9C-1337.32,772.76-1337.32,772.46-1337.22,772.16z
				 M-1055.72,610.66c10.2,0.7,19.7,4.2,26.2,9.8c4.4-1.6,9.2-2.6,14.1-2.9l-10.5,6.5c2,2.4,3.4,5,4.2,7.6c2.1-7.2,8.5-13.3,17.1-17
				c-0.6-3.4-0.8-6.9-0.2-10.5c1.7-11.5,9.5-21.2,20.4-25.2c15.2,8.2,29.5,18,42.6,29.2c0,1.7-0.1,3.4-0.3,5
				c-2.5,17.3-18.6,29.3-35.9,26.8c-11.8-1.7-21.1-9.6-25.1-20l-18.7,11.6l0,0l0,0l0,0l0,0l-8.3-5.1l-19.3,12l-33.9-21
				c16.6,1.1,30.6,9.7,33.9,21c1.8-6,6.7-11.5,13.8-15.4L-1055.72,610.66z"/>
			<path style="fill:#0AAEB8;" d="M-858.02,782.86c0,0.7,0,1.4,0.1,2.1C-858.02,784.26-858.02,783.56-858.02,782.86z"/>
			<path style="fill:#0AAEB8;" d="M-1337.92,784.96L-1337.92,784.96c0-0.5,0-1,0-1.5C-1337.82,783.96-1337.82,784.46-1337.92,784.96
				z"/>
			<path style="fill:#0AAEB8;" d="M-1337.92,790.36C-1337.92,790.26-1337.92,790.26-1337.92,790.36
				C-1337.92,790.26-1337.92,790.26-1337.92,790.36c0,30.6,5.7,59.8,16.1,86.7h0.1C-1332.42,849.36-1337.92,819.96-1337.92,790.36z"
				/>
			<path style="fill:#0AAEB8;" d="M-859.42,815.86L-859.42,815.86c-0.1,1.4-0.3,2.8-0.5,4.2c-0.9,6.8-2,13.7-3.4,20.4h-0.1
				c-2.7,12.4-6.3,24.6-10.9,36.5h0.3c10.4-26.9,16.1-56.1,16.1-86.6c0,1.3-0.1,2.7-0.2,4
				C-858.22,801.56-858.72,808.76-859.42,815.86z"/>
			<path style="fill:#0AAEB8;" d="M-1067.42,1028.36c-4,0.5-8,0.9-12.1,1.2C-1075.42,1029.36-1071.42,1028.86-1067.42,1028.36z"/>
		</g>
		<g>
			<path style="fill:#487B74;" d="M-1337.82,781.86c0-0.4,0-0.9,0.1-1.3C-1337.72,780.96-1337.82,781.46-1337.82,781.86z"/>
			<path style="fill:#487B74;" d="M-1335.82,758.56c0,0.3-0.1,0.6-0.1,0.9C-1335.92,759.06-1335.82,758.76-1335.82,758.56z"/>
			<path style="fill:#487B74;" d="M-1337.52,776.36c0,0.2,0,0.4,0,0.7c0,0.2,0,0.4,0,0.6
				C-1337.62,777.16-1337.52,776.76-1337.52,776.36z"/>
			<path style="fill:#487B74;" d="M-1331.92,736.76c0,0.1-0.1,0.3-0.1,0.4C-1331.92,737.06-1331.92,736.86-1331.92,736.76z"/>
			<path style="fill:#487B74;" d="M-1330.82,732.46c0,0.1-0.1,0.3-0.1,0.4C-1330.92,732.76-1330.92,732.56-1330.82,732.46z"/>
			<path style="fill:#487B74;" d="M-1337.92,784.96L-1337.92,784.96c0,0.4,0,0.8,0,1.2
				C-1337.92,785.76-1337.92,785.36-1337.92,784.96z"/>
			<path style="fill:#487B74;" d="M-1335.22,754.26c0,0.3-0.1,0.5-0.1,0.8C-1335.32,754.76-1335.22,754.56-1335.22,754.26z"/>
			<path style="fill:#487B74;" d="M-1337.22,772.16c0,0.3,0,0.6-0.1,0.9C-1337.32,772.76-1337.32,772.46-1337.22,772.16z"/>
			<path style="fill:#487B74;" d="M-1336.42,763.06c0,0.2,0,0.3-0.1,0.5C-1336.42,763.46-1336.42,763.26-1336.42,763.06z"/>
			<path style="fill:#487B74;" d="M-1203.32,771.76c0.7,1.3,1.3,2.6,1.9,3.9l4.6-16.7l6.7,24.9l15.2-55.3l17.3,64.8h1.3l6.3-22.9
				l6,22.4l101.6-15.7l2.1-8l-29.8-5.1l-12.5-52.5l-10.2,41.4l-26.4-110.3l-22.3,90.9l-9.8-41l-6.7,27.5
				c-8.3-20.8-20.1-32.7-32.4-32.8c-9,0-17.8,6.3-25.1,18c-8.2-24.7-21.1-39.2-34.8-39.3c-6.7,0-13.2,3.5-19.2,10.2
				c-0.6-17.4-1.9-34.1-3.6-49.2l0,0c-13.8,14.8-25.6,31.2-35.2,48.9c1.2,3.5,2.3,7.2,3.3,11.1c2.8-7.3,6-11.1,9.3-11.1
				c9.2,0,17.1,30.8,18.8,73.2c4.1-4.1,8.5-6.2,13.1-6.2c9.3,0,18.1,8.9,23.7,23.9c5-7.1,11-10.9,17.1-11c6.2,0,12.1,3.9,17,11
				l0.7-1.8L-1203.32,771.76z"/>
			<path style="fill:#487B74;" d="M-1334.52,750.06c0,0.1,0,0.3-0.1,0.4C-1334.62,750.36-1334.52,750.16-1334.52,750.06z"/>
			<polygon style="fill:#487B74;" points="-1130.22,793.36 -1144.12,793.26 -1144.12,793.36 			"/>
		</g>
		<path style="fill:#83A6A4;" d="M-896.62,659.76c-5.4,12.4-9.3,36.1-10.4,63.9c-4.1-4.1-8.5-6.2-13.1-6.2
			c-9.3,0-18.1,8.9-23.7,23.9c-5-7.1-11-10.9-17.1-11c-8.4,0-16.4,7.3-22,19.9l-4.6-16.7l-6.7,24.9l-15.2-55.3l-17.9,67.2l-6.9-25.2
			l-6.4,24l-2.1,8l-101.6,15.7l0.1,0.4l13.9,0.1h272.1c0,0.3,0,0.7,0,1c0.1-1.3,0.1-2.7,0.2-4l0,0c0-1.8,0-3.5-0.1-5.3
			c0-0.7,0-1.4-0.1-2.1c0-1-0.1-1.9-0.1-2.9C-860.02,737.26-873.32,695.76-896.62,659.76L-896.62,659.76z"/>
		<g>
			<path style="fill:#193D3A;" d="M-861.82,831.56L-861.82,831.56c-0.4,3-1,5.9-1.7,8.9h0.1c1.4-6.8,2.6-13.6,3.4-20.4
				c-0.5,3.8-1.2,7.6-1.9,11.3C-861.82,831.46-861.82,831.56-861.82,831.56z"/>
			<path style="fill:#193D3A;" d="M-1156.42,793.36h-1.3l-17.3-64.8l-15.2,55.3l-6.7-24.9l-4.6,16.7c-0.6-1.4-1.3-2.7-1.9-3.9
				l17.7,50.3l7.7-21.5l10.9,31h136.7l11.9-14.5l-0.1-0.1h0.1l0.1-0.1l0.1,0.1l88,0.7l1.7-2.4l-0.1-0.1l0,0h0.2l0,0l0,0l68.9,0.7
				c0.8-7.1,1.2-14.3,1.3-21.5c0-0.3,0-0.7,0-1h-272.1h-13.9v-0.1l-0.1-0.4l-6-22.4L-1156.42,793.36z"/>
			<path style="fill:#193D3A;" d="M-1337.92,786.16c0,1.4,0,2.7,0,4.1v0.1c0.1-14.8,1.5-29.6,4.3-44.2l0,0l0,0l0,0
				c11.2,0.4,21.6,8.6,27.9,21.8c2.8-2.9,5.8-4.4,8.8-4.4c10.3,0,19.1,16.8,21,39.8c4.1-2.2,8.6-3.4,13.1-3.4
				c9.7,0,18.8,5.2,24.3,14l8.4-23.3l7.5,21.2l16.3-45.3c-4.9-7-10.9-10.9-17-11c-6.1,0-12.1,3.8-17.1,11
				c-5.6-15-14.4-23.9-23.7-23.9c-4.5,0-9,2.2-13.1,6.2c-1.7-42.4-9.6-73.2-18.8-73.2c-3.2,0-6.4,3.8-9.3,11.1
				c-1-3.9-2.1-7.6-3.3-11.1c0-0.1-0.1-0.2-0.1-0.3l0,0c-9.8,18-17.3,37.2-22.2,57c0,0.1-0.1,0.3-0.1,0.4c-0.3,1.3-0.6,2.6-0.9,3.9
				c0,0.1-0.1,0.3-0.1,0.4c-1,4.3-1.8,8.6-2.6,12.9c0,0.1,0,0.3-0.1,0.4c-0.2,1.3-0.4,2.5-0.6,3.8c0,0.3-0.1,0.5-0.1,0.8
				c-0.2,1.2-0.3,2.3-0.5,3.5c0,0.3-0.1,0.6-0.1,0.9c-0.2,1.2-0.3,2.5-0.5,3.7c0,0.2,0,0.3-0.1,0.5c-0.3,2.8-0.6,5.7-0.8,8.6
				c0,0.3,0,0.6-0.1,0.9c0,0.3,0,0.6-0.1,0.9c-0.1,0.8-0.1,1.5-0.1,2.3c0,0.4,0,0.9-0.1,1.3c0,0.4,0,0.8-0.1,1.1
				c0,0.6-0.1,1.2-0.1,1.8c0,0.4,0,0.9-0.1,1.3c0,0.5,0,1.1-0.1,1.6c0,0.5,0,1,0,1.4C-1337.92,785.36-1337.92,785.76-1337.92,786.16
				z"/>
		</g>
		<g>
			<path style="fill:#21663C;" d="M-1321.02,878.76h348.2l0,0l-95.7-0.8l38.2-46.3h-136.7l-10.9-31l-7.7,21.5l-17.7-50.3l-2.4-6.9
				l-0.7,1.8l-16.3,45.3l-7.5-21.2l-8.4,23.3c-5.5-8.8-14.6-14-24.3-14c-4.5,0-9,1.2-13.1,3.4c-1.9-23.1-10.7-39.8-21-39.8
				c-3.1,0-6.1,1.5-8.8,4.4c-6.3-13.3-16.7-21.4-27.9-21.8c-2.8,14.6-4.2,29.3-4.3,44.2c0,29.6,5.6,59,16.3,86.7
				C-1321.42,877.56-1321.22,878.16-1321.02,878.76z"/>
			<path style="fill:#21663C;" d="M-861.82,831.56c-0.6,2.9-1.2,5.8-1.9,8.7c-0.7,3.8-1.5,7.5-2.4,11.2l-0.2,0.4
				c-2.3,8.9-5.1,17.7-8.4,26.3c0.2-0.4,0.3-0.8,0.5-1.2c4.6-11.9,8.2-24.1,10.9-36.5C-862.82,837.56-862.32,834.56-861.82,831.56
				L-861.82,831.56z"/>
			<polygon style="fill:#21663C;" points="-1000.62,839.36 -971.42,876.66 -971.22,876.46 			"/>
			<path style="fill:#21663C;" d="M-1333.72,746.16L-1333.72,746.16L-1333.72,746.16z"/>
		</g>
		<g>
			<polygon style="fill:#3D527E;" points="-1018.32,817.06 -1018.32,817.16 -1018.22,817.06 			"/>
			<polygon style="fill:#3D527E;" points="-1000.62,839.36 -971.22,876.46 -930.12,817.76 -1018.12,817.06 			"/>
		</g>
		<path style="fill:#446095;" d="M-971.42,876.66l-29.3-37.4l-17.4-22.3l-0.1-0.1l-0.1,0.1l-0.1,0.1l-11.9,14.5l-38.2,46.3l95.7,0.8
			L-971.42,876.66z M-1029.62,876.96c0-0.3-0.1-0.5-0.1-0.8v-15.6c0-4,4.7-7.3,10.5-7.3l0,0l0,0l0,0c5.8,0,10.5,3.2,10.5,7.3v15.6
			c0,0.3,0,0.5-0.1,0.8H-1029.62z"/>
		<g>
			<polygon style="fill:#F73E3E;" points="-885.62,879.56 -885.72,879.46 -885.82,879.56 			"/>
			<path style="fill:#F73E3E;" d="M-928.32,815.26L-928.32,815.26L-928.32,815.26z"/>
			<path style="fill:#F73E3E;" d="M-928.42,815.36l-1.7,2.4l-41.1,58.7l-0.2,0.3l-1.4,2l0,0l0,0l87,0.8L-928.42,815.36z
				 M-918.72,876.96h-20.9c0-0.3-0.1-0.5-0.1-0.8v-15.6c0-4,4.7-7.3,10.5-7.3l0,0c5.8,0,10.5,3.2,10.5,7.3v15.6
				C-918.72,876.46-918.72,876.66-918.72,876.96z"/>
		</g>
		<g>
			<path style="fill:#2E0907;" d="M-918.72,860.56c0-4-4.7-7.3-10.5-7.3l0,0c-5.8,0-10.5,3.2-10.5,7.3v15.6c0,0.3,0,0.5,0.1,0.8
				h20.9c0-0.3,0.1-0.5,0.1-0.8v-15.6H-918.72z"/>
			<path style="fill:#2E0907;" d="M-1008.62,876.16v-15.6c0-4-4.7-7.3-10.5-7.3c-5.8,0-10.5,3.2-10.5,7.3v15.6c0,0.3,0,0.5,0.1,0.8
				h20.9C-1008.62,876.66-1008.62,876.46-1008.62,876.16z"/>
			<path style="fill:#2E0907;" d="M-1019.12,853.26L-1019.12,853.26L-1019.12,853.26z"/>
		</g>
		<path style="fill:#CB393B;" d="M-928.32,815.26L-928.32,815.26h-0.2l0,0l0.1,0.1l42.6,64.2l0,0l0,0l0.1-0.1l0.4-0.5l-0.1,0.5
			l10.1-0.1c0.2-0.4,0.3-0.8,0.4-1.2c3.3-8.6,6.1-17.4,8.4-26.3l0.2-0.4c0.9-3.7,1.7-7.5,2.4-11.2c0.7-2.9,1.3-5.8,1.9-8.7
			c0-0.1,0-0.2,0-0.2c0.7-3.8,1.3-7.5,1.9-11.3c0.2-1.4,0.4-2.8,0.5-4.2h-0.1L-928.32,815.26z"/>
		<path style="fill:#FED401;" d="M-1003.02,620.06c4,10.3,13.3,18.3,25.1,20c17.3,2.5,33.4-9.5,35.9-26.8c0.2-1.7,0.3-3.4,0.3-5
			c-13.1-11.2-27.4-21-42.6-29.2c-10.9,4-18.8,13.7-20.4,25.2c-0.5,3.6-0.4,7.1,0.2,10.5c5-2.2,10.7-3.6,16.8-4L-1003.02,620.06z"/>
		<g>
			<path style="fill:#FFFFFF;" d="M-1049.32,638.56l19.3-12l8.3,5.1l0,0l0,0l0,0l0,0l18.7-11.6l15.2-9.4c-6.1,0.4-11.8,1.8-16.8,4
				c-8.6,3.8-15,9.9-17.1,17c-0.8-2.7-2.2-5.2-4.2-7.6l10.5-6.5c-4.9,0.3-9.7,1.3-14.1,2.9c-6.5-5.6-16-9.1-26.2-9.8l20.2,12.5
				C-1042.62,627.06-1047.52,632.46-1049.32,638.56z"/>
			<path style="fill:#FFFFFF;" d="M-1083.32,617.46l33.9,21C-1052.72,627.26-1066.62,618.56-1083.32,617.46z"/>
		</g>
	</g>
</g>
<g>
</g>
<g>
</g>
<g>
</g>
<g>
</g>
<g>
</g>
<g>
</g>
<g>
</g>
<g>
</g>
<g>
</g>
<g>
</g>
<g>
</g>
<g>
</g>
<g>
</g>
<g>
</g>
<g>
</g>
</svg>
