<?xml version="1.0" encoding="iso-8859-1"?>
<!-- Generator: Adobe Illustrator 19.0.0, SVG Export Plug-In . SVG Version: 6.00 Build 0)  -->
<svg version="1.1" id="Layer_1" xmlns="http://www.w3.org/2000/svg" xmlns:xlink="http://www.w3.org/1999/xlink" x="0px" y="0px"
	 viewBox="0 0 500 500" style="enable-background:new 0 0 500 500;" xml:space="preserve">
<g transform="translate(2275.01 -557.63)">
	<path style="fill:#FFFFFF;" d="M-1775.01,807.63c0,138.071-111.929,250-250,250s-250-111.929-250-250s111.929-250,250-250
		S-1775.01,669.559-1775.01,807.63L-1775.01,807.63z"/>
	<path style="fill:#21B8D0;" d="M-1785.164,807.925c0,132.548-107.452,240-240,240s-240-107.452-240-240s107.452-240,240-240
		S-1785.164,675.377-1785.164,807.925L-1785.164,807.925z"/>
	<path style="fill:#86D0EF;" d="M-2260.509,852.782c-18.192-94.273,21.552-190.316,101.04-244.168s183.421-55.149,264.227-3.297
		c80.806,51.852,122.934,146.873,107.1,241.571l-236.714-39.58L-2260.509,852.782z"/>
	<path style="fill:#19A1C2;" d="M-1993.793,849.174l-2.219,0.031l-58.594,0.719l-2.156,0.031l-1.563,1.5l-84.352,165.588
		c4.289,2.344,8.648,4.556,13.072,6.633l77.279-162.877l54.25-0.656l78.588,163.098c3.776-1.904,7.501-3.907,11.172-6.008
		l-83.854-166.527L-1993.793,849.174L-1993.793,849.174z"/>
	<path style="fill:#86D0EF;" d="M-2260.907,763.719c-2.782,14.572-4.208,29.37-4.258,44.205c0.098,17.067,2.017,34.075,5.723,50.734
		c0.348,0.383,2.502,2.768,2.502,2.768h465.506c4.091-17.542,6.194-35.489,6.27-53.502c-0.05-14.835-1.475-29.633-4.258-44.205
		H-2260.907z"/>
	<path style="fill:#21B8D0;" d="M-1847.577,829.848c-2.427,0-4.383,3.903-4.383,8.75v15.922c-0.362-0.305-0.893-0.55-1.535-0.703
		c0.105-0.469,0.176-0.962,0.176-1.484v-9.795c0-2.616-1.426-4.723-3.197-4.723s-3.197,2.106-3.197,4.723v9.795
		c0,2.498,1.304,4.508,2.963,4.688c0.51,0.139,1.087,0.225,1.711,0.225c1.318,0,2.454-0.357,3.08-0.885v0.385
		c0,4.847,1.955,8.748,4.383,8.748c2.428,0,4.381-3.901,4.381-8.748v-3.664c0.575,0.643,1.575,1.07,2.725,1.07
		c0.598,0,1.151-0.123,1.631-0.324c1.562-0.225,2.762-1.619,2.762-3.334v-7.012c0-1.873-1.426-3.379-3.197-3.379
		s-3.197,1.506-3.197,3.379v6.537c-0.282,0.159-0.528,0.347-0.723,0.564v-11.984
		C-1843.196,833.751-1845.149,829.848-1847.577,829.848z"/>
	<path style="fill:#FFFFFF;" d="M-2105.659,605.581l20.889,12.939c-7.37,4.023-12.463,9.693-14.314,15.934l20.016-12.4l8.553,5.299
		c-0.825-2.758-2.291-5.429-4.342-7.906l10.914-6.762c-5.056,0.332-10.013,1.359-14.572,3.021
		C-2085.279,609.932-2095.129,606.257-2105.659,605.581z M-2070.516,627.352l35.141-21.771
		C-2052.586,606.684-2067.075,615.66-2070.516,627.352z M-2099.084,634.454c-3.443-11.692-17.932-20.667-35.143-21.77
		L-2099.084,634.454z"/>
	<g>
		<path style="fill:#FED401;" d="M-2035.37,1012.34v35.072c3.398,0.243,6.8,0.414,10.205,0.512c3.61-0.046,7.218-0.174,10.822-0.383
			v-35.201L-2035.37,1012.34L-2035.37,1012.34z"/>
		<path style="fill:#FED401;" d="M-2034.663,1000.254h19.685l-1.141-44.887l-17.287,0.223L-2034.663,1000.254z"/>
		<path style="fill:#FED401;" d="M-2017.827,897.315l-13.169,0.31l-1.82,45.197l17.287-0.223L-2017.827,897.315z"/>
		<path style="fill:#FED401;" d="M-2017.473,889.565l-13.169-0.31l2.221-27.365l8.316-0.032L-2017.473,889.565z"/>
		<path style="fill:#FED401;" d="M-1999.344,568.69c-7.145,6.596-11.214,15.874-11.226,25.598
			c-0.001,19.272,15.622,34.896,34.894,34.896c0,0,0,0,0,0c19.272,0,34.895-15.624,34.895-34.896c0,0,0,0,0,0
			c-0.005-4.198-0.768-8.36-2.252-12.287C-1961.198,575.309-1980.106,570.84-1999.344,568.69L-1999.344,568.69z"/>
	</g>
	<path style="fill:#21B8D0;" d="M-2188.088,829.848c-2.427,0-4.381,3.903-4.381,8.75v15.922c-0.362-0.305-0.894-0.549-1.537-0.703
		c0.105-0.469,0.178-0.962,0.178-1.484v-9.795c0-2.616-1.426-4.723-3.197-4.723s-3.197,2.106-3.197,4.723v9.795
		c0,2.497,1.303,4.507,2.961,4.688c0.51,0.139,1.087,0.225,1.711,0.225c1.319,0,2.456-0.357,3.082-0.885v0.385
		c0,4.847,1.953,8.748,4.381,8.748s4.383-3.901,4.383-8.748v-3.662c0.575,0.642,1.574,1.068,2.723,1.068
		c2.223-0.121,4.344-1.763,4.395-3.658v-7.012c0-1.873-1.426-3.379-3.197-3.379s-3.197,1.506-3.197,3.379v6.537
		c-0.281,0.159-0.529,0.346-0.723,0.563v-11.982C-2183.706,833.751-2185.661,829.848-2188.088,829.848z"/>
	<path style="fill:#456196;" d="M-2025.178,761.893c-28.622,0-51.654,23.035-51.654,51.656v48.125h103.335v-48.125
		C-1973.497,784.928-1996.556,761.893-2025.178,761.893L-2025.178,761.893z"/>
	<g>
		<path style="fill:#F29F4A;" d="M-2038.758,778.221c-9.364,0-16.906,6.818-16.906,15.279v53.767
			c0,8.461,7.541,15.279,16.906,15.279h27.188c9.364,0,16.906-6.818,16.906-15.279V793.5c0-8.461-7.541-15.279-16.906-15.279
			L-2038.758,778.221L-2038.758,778.221z M-2031.148,781.445h11.968c2.53,0,4.56,1.729,4.56,3.863s-2.03,3.863-4.56,3.863h-11.968
			c-2.53,0-4.561-1.729-4.561-3.863S-2033.678,781.445-2031.148,781.445z M-2038.991,792.018h27.653
			c6.124,0,11.067,4.466,11.067,9.992v10.806c0,5.526-4.943,9.963-11.067,9.963h-27.653c-6.124,0-11.038-4.437-11.038-9.963v-10.806
			C-2050.029,796.485-2045.115,792.018-2038.991,792.018z M-2042.999,843.49c3.359,0,6.071,2.529,6.071,5.664
			s-2.712,5.693-6.071,5.693c-3.359,0-6.071-2.558-6.071-5.693C-2049.07,846.02-2046.358,843.49-2042.999,843.49z M-2007.329,843.49
			c3.359,0,6.1,2.529,6.1,5.664s-2.741,5.693-6.1,5.693s-6.071-2.558-6.071-5.693C-2013.4,846.02-2010.688,843.49-2007.329,843.49z"
			/>
		<path style="fill:#F29F4A;" d="M-2026.786,773.956c0,1.903-1.543,3.446-3.446,3.446h0c-1.903,0-3.446-1.543-3.446-3.446
			s1.543-3.446,3.446-3.446C-2028.329,770.509-2026.786,772.052-2026.786,773.956
			C-2026.786,773.956-2026.786,773.956-2026.786,773.956z"/>
		<path style="fill:#F29F4A;" d="M-2016.65,773.956c0,1.903-1.543,3.446-3.446,3.446c-1.903,0-3.446-1.543-3.446-3.446
			s1.543-3.446,3.446-3.446C-2018.193,770.51-2016.65,772.052-2016.65,773.956z"/>
	</g>
</g>
<g>
</g>
<g>
</g>
<g>
</g>
<g>
</g>
<g>
</g>
<g>
</g>
<g>
</g>
<g>
</g>
<g>
</g>
<g>
</g>
<g>
</g>
<g>
</g>
<g>
</g>
<g>
</g>
<g>
</g>
</svg>
