<?xml version="1.0" encoding="iso-8859-1"?>
<!-- Generator: Adobe Illustrator 19.0.0, SVG Export Plug-In . SVG Version: 6.00 Build 0)  -->
<svg version="1.1" id="Layer_1" xmlns="http://www.w3.org/2000/svg" xmlns:xlink="http://www.w3.org/1999/xlink" x="0px" y="0px"
	 viewBox="0 0 500 500" style="enable-background:new 0 0 500 500;" xml:space="preserve">
<g transform="translate(835.39 -454.99)">
	<path style="fill:#FFFFFF;stroke:#FFFFFF;stroke-width:1.835;" d="M-336.308,704.99c0,137.564-111.518,249.082-249.082,249.082
		S-834.473,842.554-834.473,704.99s111.518-249.082,249.082-249.082C-447.826,455.908-336.308,567.425-336.308,704.99
		L-336.308,704.99z"/>
	<path style="fill:#86D0EF;" d="M-345.39,704.99c0,132.548-107.452,240-240,240s-240-107.452-240-240s107.452-240,240-240
		S-345.39,572.441-345.39,704.99z"/>
	<path style="fill:#479951;" d="M-575.277,750.057c-85.772,0.062-168.354,17.01-231.309,47.469
		c37.288,89.229,124.488,147.362,221.195,147.461c99.743-0.126,189.011-61.93,224.234-155.246
		C-421.767,764.115-497.33,750.111-575.277,750.057z"/>
	<path style="fill:#F3F3F3;stroke:#EAEAEA;stroke-width:1.866;" d="M-637.27,627.629h103.76c4.001,0,7.222,1.414,7.222,3.171v22.112
		c0,1.757-3.221,3.171-7.222,3.171h-103.76c-4.001,0-7.222-1.414-7.222-3.171V630.8
		C-644.493,629.044-641.271,627.629-637.27,627.629z"/>
	<g shape-rendering="auto" image-rendering="auto" color-rendering="auto" color-interpolation="sRGB">
		<path style="fill:#EAEAEA;" d="M-585.39,576.047c-7.664,0-14.045,5.265-15.393,12.219c-22.385,7.547-38.658,31.114-38.658,58.912
			c0,33.854,24.13,61.453,54.051,61.453s54.051-27.599,54.051-61.453c0-27.798-16.273-51.365-38.658-58.912
			C-571.345,581.313-577.726,576.047-585.39,576.047z"/>
		<path style="fill:#FFFFFF;" d="M-585.39,587.91c28.576,0,51.867,26.45,51.867,59.27s-23.291,59.27-51.867,59.27
			s-51.867-26.45-51.867-59.27S-613.966,587.91-585.39,587.91z"/>
	</g>
	<g>
		<g transform="translate(0 540.36)">
			<path style="fill:#D39B57;" d="M-596.474,102.394l-38.711,2.469l-35.941,203.49l57.139,8.768
				c1.353,0.208,2.561,0.621,3.563,1.152c8.636-0.961,18.728-1.473,29.045-1.475c2.917,0.003,5.827,0.047,8.701,0.131
				L-596.474,102.394z"/>
			<path style="fill:#D39B57;" d="M-574.308,102.394l-23.83,214.875c5.402-0.309,11.06-0.468,16.758-0.471
				c11.674,0.004,23.015,0.662,32.273,1.873c0.254-0.063,0.503-0.133,0.77-0.178l49.908-8.35c0.087-0.014,0.17-0.015,0.256-0.027
				l-37.422-205.254L-574.308,102.394L-574.308,102.394z"/>
		</g>
		
			<ellipse transform="matrix(0.1358 -0.9907 0.9907 0.1358 -1391.5259 122.0038)" style="fill:#D39B57;" cx="-625.83" cy="858.63" rx="10.687" ry="46.533"/>
	</g>
	<g transform="translate(0 540.36)">
		<path style="fill:#C7924C;" d="M-605.962,102.394l-25.375,212.064l17.35,2.662c1.353,0.208,2.561,0.621,3.563,1.152
			c8.636-0.961,18.728-1.473,29.045-1.475c11.674,0.004,23.015,0.662,32.273,1.873c0.254-0.063,0.503-0.133,0.77-0.178l9.238-1.545
			l-24.449-213.266L-605.962,102.394z"/>
		<path style="fill:#665C51;" d="M-583.536,285.242c-10.024,0-18.094,5.063-18.094,11.352v20.895c6.42-0.453,13.3-0.687,20.25-0.689
			c5.411,0.006,10.786,0.152,15.938,0.434v-20.639C-565.443,290.305-573.513,285.242-583.536,285.242z"/>
		<path style="fill:#D39B57;" d="M-672.886,308.164c-3.259-0.129-5.933,1.068-6.277,2.953l-1.395,7.646
			c-0.393,2.155,2.411,4.368,6.287,4.963l54.098,8.303c10.042,1.829,24.086,2.869,38.793,2.871
			c11.595-0.003,22.867-0.651,32.098-1.846c1.01,0.212,2.172,0.245,3.389,0.041l49.908-8.35c3.366-0.563,5.8-2.657,5.459-4.697
			l-1.211-7.238c-0.341-2.04-3.326-3.229-6.691-2.666l-49.908,8.35c-0.267,0.045-0.516,0.115-0.77,0.178
			c-9.258-1.211-20.599-1.869-32.273-1.873c-10.317,0.001-20.409,0.514-29.045,1.475c-1.001-0.531-2.209-0.945-3.563-1.152
			l-57.471-8.818C-671.943,308.228-672.42,308.182-672.886,308.164L-672.886,308.164z"/>
	</g>
	<g>
		<path style="fill:#665C51;" d="M-585.39,679.442c5.44,0,9.819,2.557,9.819,5.733v12.327c0,3.176-4.379,5.734-9.819,5.734
			s-9.819-2.557-9.819-5.734v-12.327C-595.209,681.999-590.83,679.442-585.39,679.442L-585.39,679.442z"/>
		<path style="fill:#665C51;" d="M-585.39,718.699c5.44,0,9.819,2.557,9.819,5.734v12.327c0,3.176-4.379,5.734-9.819,5.734
			s-9.819-2.557-9.819-5.734v-12.327C-595.209,721.257-590.83,718.699-585.39,718.699z"/>
	</g>
	<g transform="translate(0 540.36)">
		<path style="fill:#D1CFCF;" d="M-649.197,83.311c-1.036,0-1.869,0.833-1.869,1.869v1.494c0,1.036,0.833,1.871,1.869,1.871h3.969
			c0,0,2.309,11.824,3.463,17.736c0.521,2.666,2.979,3.418,5.178,3.418c34.837,0,104.512,0,104.512,0
			c1.952,0,4.008-1.473,4.324-3.092l3.527-18.063h2.639c1.036,0,1.869-0.835,1.869-1.871V85.18c0-1.036-0.833-1.869-1.869-1.869
			H-649.197z M-635.365,88.545h9.697c-0.002,0.041-0.01,0.08-0.01,0.121v12.527h-7.217L-635.365,88.545z M-622.833,88.545h16.35
			v12.648h-16.34V88.666C-622.823,88.625-622.831,88.586-622.833,88.545L-622.833,88.545z M-603.63,88.545h15.902v12.648h-15.902
			V88.545z M-584.874,88.545h16.992v12.648h-16.992V88.545z M-565.029,88.545h15.902v12.648h-15.902V88.545z M-546.271,88.545
			h12.182l-2.469,12.648h-9.713V88.545z"/>
		<path style="fill:#51473A;" d="M-491.739-24.07c-0.217,0.001-0.434,0.087-0.602,0.254l-91.908,91.643
			c-0.862-0.3-1.781-0.395-2.686-0.277c-0.532,0.07-1.052,0.213-1.545,0.424l-13.428-10.469c0.349-0.219,0.67-0.5,0.945-0.854
			l4.559-5.846c1.505-1.93,0.681-4.625-1.223-6.109l-82.176-64.09c-1.903-1.484-4.72-1.627-6.225,0.303l-4.559,5.846l-1.289,1.652
			l-0.096,0.123l-1.439,1.846l-0.002,0.004c-0.287,0.368-0.219,0.899,0.154,1.189l101.758,79.361
			c-0.463,1.004-0.633,2.118-0.49,3.215c0.082,0.604,0.257,1.191,0.52,1.74l-12.945,12.908c-0.174-0.374-0.414-0.726-0.73-1.043
			l-5.232-5.248c-1.728-1.733-4.506-1.251-6.215,0.453l-73.797,73.584c-1.709,1.704-2.2,4.48-0.473,6.213l5.234,5.25
			c0.374,0.375,0.799,0.639,1.25,0.816c-0.022,0.239,0.048,0.483,0.23,0.666l1.766,1.773c0.33,0.331,0.866,0.326,1.201-0.008
			l92.736-92.467c0.962,0.407,2.015,0.551,3.051,0.416c1.074-0.144,2.087-0.582,2.928-1.266l13.592,10.6
			c-0.35,0.218-0.67,0.5-0.945,0.854l-4.557,5.846c-1.505,1.93-0.681,4.627,1.223,6.111l82.176,64.088
			c1.903,1.484,4.718,1.627,6.223-0.303l4.201-5.387l0.357-0.459l1.289-1.652l1.535-1.967l0.004-0.006
			c0.287-0.368,0.219-0.899-0.154-1.189l-102.838-80.201c0.086-0.551,0.094-1.112,0.021-1.666c-0.097-0.729-0.33-1.433-0.688-2.076
			l11.92-11.883c0.174,0.373,0.413,0.725,0.729,1.041l5.234,5.248c1.728,1.733,4.506,1.249,6.215-0.455l73.795-73.582
			c1.709-1.704,2.2-4.48,0.473-6.213l-4.822-4.838l-0.412-0.412l-1.479-1.482l-0.115-0.115l-1.648-1.652l-0.004-0.006
			C-491.307-23.99-491.523-24.072-491.739-24.07L-491.739-24.07z M-490.804-18.49c0.32-0.048,0.573,0.028,0.686,0.141l1.91,1.914
			l-3.102,3.094l-2.564-2.572l1.98-1.975C-491.512-18.27-491.124-18.442-490.804-18.49z M-682.888-17.383
			c0.323,0.009,0.729,0.133,1.154,0.465l2.207,1.721l-2.512,3.221l-3.453-2.693l1.941-2.49
			C-683.452-17.286-683.211-17.392-682.888-17.383z M-487.114-15.336l2.229,2.234c0.225,0.226,0.297,1.011-0.467,1.773l-1.98,1.975
			l-2.883-2.891L-487.114-15.336z M-494.97-14.82l2.563,2.572l-3.018,3.01l-2.564-2.572L-494.97-14.82z M-678.304-14.244
			l3.359,2.621l-2.512,3.221l-3.359-2.621L-678.304-14.244z M-686.447-13.447l3.455,2.693l-2.232,2.863l-2.207-1.721
			c-0.851-0.664-0.874-1.454-0.678-1.705L-686.447-13.447z M-491.312-11.15l2.881,2.891l-3.018,3.01l-2.881-2.891L-491.312-11.15z
			 M-499.085-10.717l2.563,2.572l-4.115,4.104l-2.563-2.572L-499.085-10.717z M-673.722-10.67l4.582,3.574l-2.512,3.219
			l-4.582-3.574L-673.722-10.67z M-681.769-9.801l3.359,2.621l-2.232,2.863l-3.361-2.621L-681.769-9.801z M-495.427-7.047
			l2.881,2.891l-4.115,4.104l-2.881-2.891L-495.427-7.047z M-677.187-6.229l4.582,3.574l-2.234,2.863l-4.582-3.574
			C-679.421-3.365-677.187-6.229-677.187-6.229z M-667.919-6.145l3.514,2.74l-2.512,3.221l-3.512-2.74
			C-670.429-2.924-667.919-6.145-667.919-6.145z M-504.298-5.52l2.564,2.572l-3.154,3.146l-2.564-2.574
			C-507.452-2.375-504.298-5.52-504.298-5.52z M-663.183-2.451l3.359,2.621l-2.512,3.221l-3.359-2.621L-663.183-2.451z
			 M-500.64-1.85l2.883,2.891l-3.156,3.146l-2.881-2.891L-500.64-1.85z M-671.384-1.703l3.516,2.74l-2.234,2.865l-3.514-2.74
			L-671.384-1.703z M-508.55-1.279l2.564,2.572l-3.018,3.008l-2.564-2.572C-511.568,1.728-508.55-1.279-508.55-1.279z
			 M-658.601,1.123l3.512,2.74l-2.51,3.219l-3.514-2.74C-661.113,4.342-658.601,1.123-658.601,1.123z M-666.648,1.99l3.361,2.621
			l-2.234,2.865l-3.361-2.621C-668.882,4.855-666.648,1.99-666.648,1.99z M-504.892,2.391l2.883,2.891l-3.018,3.008l-2.883-2.891
			L-504.892,2.391z M-512.665,2.824l2.564,2.572l-3.154,3.145l-2.564-2.572L-512.665,2.824z M-653.866,4.816l3.512,2.738
			l-2.51,3.219l-3.512-2.738C-656.376,8.035-653.866,4.816-653.866,4.816z M-662.066,5.564l3.514,2.74l-2.234,2.863l-3.514-2.74
			C-664.3,8.428-662.066,5.564-662.066,5.564z M-509.005,6.492l2.881,2.891l-3.154,3.146l-2.883-2.891
			C-512.161,9.639-509.005,6.492-509.005,6.492z M-516.917,7.062l2.564,2.572l-3.156,3.146l-2.564-2.57L-516.917,7.062z
			 M-649.132,8.508l3.361,2.621l-2.51,3.219l-3.361-2.621L-649.132,8.508z M-657.329,9.258l3.512,2.738l-2.234,2.865l-3.512-2.74
			L-657.329,9.258z M-513.259,10.732l2.883,2.891l-3.154,3.146l-2.883-2.891L-513.259,10.732z M-521.169,11.303l2.564,2.572
			l-3.018,3.01l-2.564-2.572L-521.169,11.303z M-644.55,12.082l3.666,2.859l-2.51,3.219l-3.666-2.859L-644.55,12.082z
			 M-652.595,12.949l3.359,2.621l-2.234,2.865l-3.359-2.621L-652.595,12.949z M-517.511,14.973l2.883,2.891l-3.018,3.01
			l-2.883-2.893L-517.511,14.973z M-525.284,15.406l2.564,2.572l-3.291,3.281l-2.564-2.572L-525.284,15.406z M-639.661,15.894
			l3.514,2.74l-2.512,3.219l-3.514-2.74L-639.661,15.894z M-648.013,16.523l3.666,2.859l-2.234,2.865l-3.666-2.859L-648.013,16.523z
			 M-521.626,19.076l2.883,2.891l-3.291,3.281l-2.883-2.891L-521.626,19.076z M-634.927,19.586l3.361,2.621l-2.512,3.221
			l-3.361-2.621L-634.927,19.586z M-529.673,19.783l2.564,2.572l-3.154,3.145l-2.564-2.572L-529.673,19.783z M-643.126,20.334
			l3.514,2.74l-2.234,2.865l-3.514-2.74L-643.126,20.334z M-630.345,23.16l3.666,2.859l-2.512,3.221l-3.666-2.859L-630.345,23.16z
			 M-526.015,23.453l2.883,2.891l-3.154,3.145l-2.883-2.891L-526.015,23.453z M-533.925,24.021l2.564,2.574l-3.018,3.01
			l-2.564-2.574L-533.925,24.021z M-638.39,24.027l3.359,2.621l-2.234,2.865l-3.359-2.621
			C-640.624,26.893-638.39,24.027-638.39,24.027z M-625.456,26.973l3.512,2.74l-2.512,3.219l-3.512-2.738L-625.456,26.973z
			 M-633.808,27.602l3.666,2.859l-2.234,2.865l-3.666-2.859L-633.808,27.602z M-530.267,27.691l2.883,2.893l-3.018,3.008
			l-2.883-2.891L-530.267,27.691z M-538.04,28.125l2.564,2.574l-3.291,3.281l-2.566-2.572L-538.04,28.125z M-620.722,30.666
			l3.359,2.619l-2.512,3.221l-3.359-2.619L-620.722,30.666z M-628.921,31.412l3.514,2.74l-2.234,2.865l-3.514-2.74L-628.921,31.412z
			 M-534.382,31.795l2.883,2.891l-3.293,3.283l-2.883-2.891L-534.382,31.795z M-542.429,32.502l2.564,2.574l-3.154,3.145
			l-2.564-2.574L-542.429,32.502z M-616.14,34.238l3.514,2.74l-2.512,3.221l-3.514-2.74L-616.14,34.238z M-624.185,35.105
			l3.359,2.621l-2.234,2.865l-3.359-2.619L-624.185,35.105z M-538.771,36.172l2.883,2.891l-3.156,3.146l-2.881-2.891
			L-538.771,36.172z M-546.681,36.742l2.564,2.574l-3.018,3.008l-2.564-2.574L-546.681,36.742z M-611.406,37.932l3.514,2.74
			l-2.512,3.221l-3.514-2.74L-611.406,37.932z M-619.603,38.68l3.512,2.74l-2.234,2.865l-3.512-2.74L-619.603,38.68z
			 M-543.023,40.412l2.883,2.891l-3.018,3.01l-2.883-2.893L-543.023,40.412z M-550.796,40.846l2.564,2.572l-3.154,3.145
			l-2.564-2.572L-550.796,40.846z M-606.669,41.625l3.359,2.619l-2.512,3.221l-3.359-2.619L-606.669,41.625z M-614.868,42.371
			l3.514,2.74l-2.236,2.867l-3.514-2.74L-614.868,42.371z M-547.138,44.516l2.883,2.891l-3.154,3.145l-2.883-2.891L-547.138,44.516z
			 M-555.048,45.084l2.564,2.574l-3.154,3.145l-2.566-2.57L-555.048,45.084z M-602.089,45.199l2.531,1.973
			c0.851,0.664,0.874,1.452,0.678,1.703l-1.941,2.488l-3.777-2.945L-602.089,45.199z M-610.132,46.064l3.359,2.621l-2.234,2.865
			l-3.361-2.621L-610.132,46.064z M-551.39,48.754l2.883,2.893l-3.154,3.145l-2.885-2.891L-551.39,48.754z M-559.3,49.324
			l2.564,2.572l-3.02,3.01l-2.564-2.57L-559.3,49.324z M-605.552,49.639l3.779,2.947l-1.664,2.133
			c-0.196,0.251-0.967,0.423-1.818-0.24l-2.531-1.975L-605.552,49.639z M-555.642,52.994l2.883,2.893l-3.018,3.008l-2.883-2.891
			C-558.659,56.004-555.642,52.994-555.642,52.994z M-563.415,53.428l2.564,2.572l-3.393,3.383l-1.91-1.916
			c-0.225-0.226-0.297-1.011,0.467-1.773C-565.687,55.693-563.415,53.428-563.415,53.428z M-559.757,57.098l2.883,2.893
			l-2.271,2.264c-0.764,0.762-1.55,0.687-1.775,0.461l-2.229-2.234C-563.15,60.48-559.757,57.098-559.757,57.098z M-613.286,84.578
			c0.32-0.048,0.573,0.028,0.686,0.141l2.229,2.234l-3.393,3.383l-2.883-2.891l2.271-2.266
			C-613.994,84.799-613.606,84.626-613.286,84.578z M-609.279,88.051l1.91,1.916c0.225,0.226,0.299,1.011-0.465,1.773l-2.271,2.266
			l-2.566-2.572L-609.279,88.051z M-617.745,88.539l2.883,2.893l-3.018,3.008l-2.883-2.891L-617.745,88.539z M-566.679,91.098
			c0.323,0.009,0.729,0.133,1.154,0.465l2.529,1.973l-2.232,2.863l-3.779-2.947l1.664-2.133
			C-567.245,91.193-567.002,91.088-566.679,91.098z M-613.769,92.527l2.566,2.572l-3.02,3.01l-2.564-2.572L-613.769,92.527z
			 M-621.861,92.643l2.883,2.891l-3.154,3.146l-2.883-2.891L-621.861,92.643z M-561.773,94.488l3.359,2.619l-2.232,2.863
			l-3.359-2.619L-561.773,94.488z M-569.958,94.674l3.777,2.947l-2.512,3.219l-2.529-1.973c-0.851-0.664-0.874-1.452-0.678-1.703
			C-571.9,97.164-569.958,94.674-569.958,94.674z M-617.884,96.631l2.566,2.572l-3.156,3.146l-2.564-2.572L-617.884,96.631z
			 M-626.113,96.883l2.883,2.891l-3.154,3.146l-2.883-2.893L-626.113,96.883z M-557.191,98.063l3.512,2.738l-2.232,2.863
			l-3.512-2.74L-557.191,98.063z M-564.958,98.574l3.359,2.619l-2.512,3.221l-3.359-2.621
			C-567.47,101.793-564.958,98.574-564.958,98.574z M-622.136,100.871l2.566,2.572l-3.156,3.146l-2.564-2.574L-622.136,100.871z
			 M-630.365,101.123l2.883,2.891l-3.018,3.008l-2.883-2.891C-633.382,104.131-630.365,101.123-630.365,101.123z M-552.456,101.754
			l3.514,2.74l-2.232,2.863l-3.514-2.74L-552.456,101.754z M-560.376,102.146l3.514,2.74l-2.512,3.221l-3.514-2.74
			C-562.888,105.367-560.376,102.146-560.376,102.146z M-626.388,105.111l2.564,2.572l-3.016,3.008l-2.566-2.572
			C-629.406,108.119-626.388,105.111-626.388,105.111z M-634.478,105.225l2.883,2.891l-3.156,3.146l-2.883-2.891L-634.478,105.225z
			 M-547.72,105.447l3.359,2.621l-2.232,2.861l-3.359-2.621L-547.72,105.447z M-555.642,105.838l3.514,2.74l-2.512,3.221
			l-3.514-2.74L-555.642,105.838z M-543.138,109.021l3.512,2.738l-2.232,2.861l-3.512-2.738L-543.138,109.021z M-630.501,109.213
			l2.564,2.572l-3.154,3.146l-2.566-2.572L-630.501,109.213z M-638.732,109.465l2.883,2.893l-3.291,3.281l-2.883-2.891
			C-642.023,112.748-638.732,109.465-638.732,109.465z M-550.907,109.531l3.361,2.621l-2.512,3.221l-3.361-2.621
			C-553.419,112.752-550.907,109.531-550.907,109.531z M-538.404,112.713l3.666,2.859l-2.232,2.861l-3.666-2.857
			C-540.636,115.576-538.404,112.713-538.404,112.713z M-546.325,113.105l3.514,2.74l-2.512,3.221l-3.514-2.74L-546.325,113.105z
			 M-634.755,113.453l2.566,2.572l-3.293,3.283l-2.564-2.572L-634.755,113.453z M-643.12,113.842l2.883,2.891l-3.018,3.01
			l-2.885-2.891L-643.12,113.842z M-533.517,116.525l3.361,2.621l-2.232,2.861l-3.361-2.621
			C-535.749,119.387-533.517,116.525-533.517,116.525z M-541.591,116.799l3.666,2.859l-2.512,3.219l-3.664-2.857
			C-544.101,120.02-541.591,116.799-541.591,116.799z M-639.144,117.83l2.566,2.572l-3.02,3.01l-2.564-2.572L-639.144,117.83z
			 M-647.236,117.945l2.883,2.891l-3.154,3.146l-2.883-2.893C-650.39,121.09-647.236,117.945-647.236,117.945z M-528.933,120.1
			l3.512,2.738l-2.232,2.861l-3.512-2.738L-528.933,120.1L-528.933,120.1z M-536.702,120.609l3.359,2.621l-2.512,3.221l-3.359-2.621
			L-536.702,120.609z M-643.259,121.934l2.566,2.572l-3.154,3.145l-2.566-2.572L-643.259,121.934z M-651.488,122.186l2.883,2.891
			l-3.291,3.283l-2.883-2.893L-651.488,122.186z M-524.198,123.791l3.666,2.859l-2.232,2.861l-3.666-2.859L-524.198,123.791
			L-524.198,123.791z M-532.12,124.184l3.514,2.74l-2.512,3.221l-3.514-2.74L-532.12,124.184z M-647.511,126.174l2.566,2.572
			l-3.291,3.281l-2.566-2.572L-647.511,126.174z M-655.876,126.561l2.883,2.891l-3.018,3.01l-2.883-2.891L-655.876,126.561z
			 M-519.312,127.603l3.361,2.621l-2.232,2.861l-3.361-2.621L-519.312,127.603L-519.312,127.603z M-527.386,127.877l3.666,2.859
			l-2.51,3.219l-3.666-2.859L-527.386,127.877z M-651.9,130.549l2.566,2.572l-3.018,3.01l-2.566-2.572L-651.9,130.549z
			 M-659.991,130.664l2.883,2.891l-3.154,3.146l-2.885-2.891L-659.991,130.664z M-514.73,131.178l3.514,2.738l-2.232,2.863
			l-3.514-2.74L-514.73,131.178z M-522.499,131.689l3.361,2.621l-2.512,3.219l-3.359-2.621L-522.499,131.689z M-656.015,134.652
			l2.566,2.572l-3.156,3.146l-2.564-2.572L-656.015,134.652z M-509.995,134.869l3.514,2.74l-2.232,2.863l-3.514-2.74
			L-509.995,134.869z M-664.243,134.904l2.883,2.891l-3.154,3.146l-2.883-2.893L-664.243,134.904z M-517.917,135.264l3.514,2.74
			l-2.51,3.219l-3.514-2.74L-517.917,135.264z M-505.259,138.562l3.359,2.621l-2.232,2.863l-3.359-2.621L-505.259,138.562z
			 M-660.267,138.892l2.566,2.572l-3.156,3.146l-2.564-2.572L-660.267,138.892z M-513.183,138.957l3.514,2.74l-2.51,3.217
			l-3.514-2.74L-513.183,138.957z M-668.497,139.144l2.885,2.891l-3.018,3.008l-2.883-2.891L-668.497,139.144z M-500.677,142.137
			l3.514,2.74l-2.232,2.863l-3.514-2.74L-500.677,142.137L-500.677,142.137z M-508.447,142.65l3.359,2.619l-2.51,3.219l-3.359-2.619
			L-508.447,142.65z M-664.519,143.133l2.566,2.572l-3.018,3.01l-2.566-2.574L-664.519,143.133z M-672.611,143.246l2.883,2.893
			l-3.154,3.145l-2.883-2.891L-672.611,143.246z M-495.943,145.828l4.582,3.574l-2.232,2.863l-4.582-3.574L-495.943,145.828z
			 M-503.864,146.225l3.512,2.738l-2.51,3.217l-3.512-2.738L-503.864,146.225z M-668.634,147.236l2.566,2.572l-3.154,3.145
			l-2.566-2.572L-668.634,147.236L-668.634,147.236z M-676.863,147.486l2.883,2.891l-4.115,4.104l-2.883-2.891L-676.863,147.486z
			 M-499.13,149.916l4.582,3.574l-2.508,3.217l-4.584-3.572L-499.13,149.916z M-490.138,150.355l3.359,2.621l-2.232,2.863
			l-3.359-2.621L-490.138,150.355z M-672.886,151.475l2.566,2.574l-4.115,4.104l-2.566-2.574L-672.886,151.475L-672.886,151.475z
			 M-682.075,152.684l2.883,2.891l-3.018,3.01l-2.883-2.891L-682.075,152.684z M-485.556,153.93l2.207,1.721
			c0.851,0.664,0.874,1.452,0.678,1.703l-1.664,2.135l-3.455-2.695L-485.556,153.93L-485.556,153.93z M-493.325,154.443l3.359,2.619
			l-2.51,3.219l-3.359-2.621L-493.325,154.443z M-678.099,156.672l2.568,2.572l-3.02,3.012l-2.566-2.574L-678.099,156.672z
			 M-686.191,156.787l2.885,2.891l-3.102,3.094l-2.23-2.236c-0.225-0.226-0.297-1.011,0.467-1.773L-686.191,156.787
			L-686.191,156.787z M-488.743,158.016l3.455,2.695l-1.941,2.488c-0.196,0.251-0.965,0.419-1.816-0.244l-2.207-1.721
			L-488.743,158.016z M-682.212,160.775l2.566,2.572l-1.982,1.977c-0.764,0.762-1.55,0.685-1.775,0.459l-1.91-1.916
			L-682.212,160.775z"/>
	</g>
	<g>
		
			<path shape-rendering="auto" image-rendering="auto" color-rendering="auto" color-interpolation="sRGB" style="fill:#51473A;" d="
			M-680.568,709.804l-0.895-0.898l-2.758-2.766l-1.817,1.812l3.653,3.664L-680.568,709.804L-680.568,709.804z"/>
		<path style="fill:#51473A;" d="M-681.678,707.991l-1.097,1.094l-8.48-8.504l1.097-1.094L-681.678,707.991z"/>
	</g>
</g>
<g>
</g>
<g>
</g>
<g>
</g>
<g>
</g>
<g>
</g>
<g>
</g>
<g>
</g>
<g>
</g>
<g>
</g>
<g>
</g>
<g>
</g>
<g>
</g>
<g>
</g>
<g>
</g>
<g>
</g>
</svg>
