<?xml version="1.0" encoding="iso-8859-1"?>
<!-- Generator: Adobe Illustrator 19.0.0, SVG Export Plug-In . SVG Version: 6.00 Build 0)  -->
<svg version="1.1" id="Layer_1" xmlns="http://www.w3.org/2000/svg" xmlns:xlink="http://www.w3.org/1999/xlink" x="0px" y="0px"
	 viewBox="0 0 500 500" style="enable-background:new 0 0 500 500;" xml:space="preserve">
<g transform="translate(1046.21 -431.79)">
	<path style="fill:#FFFFFF;" d="M-546.21,681.79c0,138.071-111.929,250-250,250c0,0,0,0,0,0c-138.071,0-250-111.929-250-250
		s111.929-250,250-250C-658.139,431.79-546.21,543.719-546.21,681.79L-546.21,681.79z"/>
	<path style="fill:#002F51;" d="M-1032.827,682.429c0,131.69,107.373,238.446,239.824,238.446h0
		c132.451,0,239.824-106.756,239.824-238.446s-107.373-238.446-239.824-238.446C-925.454,443.983-1032.827,550.739-1032.827,682.429
		L-1032.827,682.429z"/>
	<g>
		<path style="fill:#1B4468;" d="M-557.216,724.543c18.178-93.662-21.536-189.083-100.965-242.586s-183.286-54.792-264.033-3.275
			s-122.844,145.922-107.021,240.006l236.54-39.324L-557.216,724.543z"/>
		<path style="fill:#1B4468;" d="M-1028.018,636.056c-3.122,15.264-4.733,30.795-4.809,46.371
			c0.036,16.693,1.835,33.335,5.367,49.654l1.168,1.049l467.718-0.15c0,0,0.427-2.256,0.535-2.726
			c3.593-15.748,4.771-31.679,4.858-47.827c-0.016-15.57-1.566-31.101-4.627-46.371H-1028.018z"/>
	</g>
	<g>
		<path style="fill:#E96F37;" d="M-726.69,511.661l12.543,7.727c-4.425,2.402-7.484,5.788-8.596,9.514l12.021-7.404l5.137,3.164
			c-0.495-1.648-1.375-3.243-2.605-4.723l6.553-4.035c-3.037,0.198-6.014,0.812-8.752,1.805
			C-714.451,514.26-720.366,512.066-726.69,511.661z M-705.585,524.661l21.104-13C-694.817,512.32-703.518,517.68-705.585,524.661z
			 M-722.743,528.901c-2.068-6.98-10.768-12.339-21.104-12.998C-743.847,515.903-722.743,528.901-722.743,528.901z"/>
	</g>
	<g transform="translate(0 540.36)">
		<path style="fill:#002F51;" d="M-871.895,35.819c-11.679,0-21.082,3.771-21.082,8.455v34.352h-17.119l-22.227-28.807
			l-35.869,46.363h-27.4c-2.645,0-4.773,5.412-4.773,12.135c0,2.126,0.213,4.119,0.588,5.854h-31.102
			c-1.197,9.253-1.848,18.568-1.947,27.896c0.101,20.222,2.788,40.349,7.998,59.896h365.096c6.039,0,10.9-5.412,10.9-12.135
			s-4.862-12.135-10.9-12.135h-40.332c0.044-0.443,0.07-0.893,0.07-1.35c0-6.722-4.862-12.133-10.9-12.133h-17.324l-28.426-36.742
			v-1.164c0-6.722-4.862-12.135-10.9-12.135h-34.713v-25.76c0-5.421-2.252-9.785-5.049-9.785h-14.439V44.274
			c0-4.684-9.403-8.455-21.082-8.455L-871.895,35.819L-871.895,35.819z"/>
		<path style="fill:#1B4468;" d="M-869.052,107.579c-8.198,0-14.799,1.984-14.799,4.449v18.076h-12.018l-15.602-15.158
			l-25.182,24.398h-19.232c-1.857,0-3.35,2.847-3.35,6.385c0,1.125,0.164,2.164,0.43,3.08h-56.219c-4.239,0-7.652,2.849-7.652,6.387
			v17.223c0,1.178,0.387,2.275,1.049,3.221c-2.593,0.909-4.44,2.974-4.648,5.43h-3.045c0.786,4.794,1.718,9.563,2.797,14.301h69.779
			c1.197,0,2.344-0.13,3.42-0.361h233.203c4.239,0,7.65-2.849,7.65-6.387c0-3.538-3.411-6.385-7.65-6.385h-28.313
			c0.031-0.233,0.049-0.469,0.049-0.709c0-3.537-3.413-6.387-7.652-6.387h-12.162l-19.951-19.332v-0.613
			c0-3.537-3.413-6.387-7.652-6.387h-24.367v-13.555c0-2.853-1.582-5.15-3.545-5.15h-10.137v-18.076
			c0-2.465-6.599-4.449-14.797-4.449H-869.052L-869.052,107.579z"/>
		<g>
			<path style="fill:#002F51;" d="M-609.186,164.514c-1.361,0-2.457,3.654-2.457,8.191v14.02c-0.336-0.077-0.707-0.121-1.098-0.121
				c-0.17,0-0.334,0.01-0.496,0.025c0.117-0.637,0.189-1.362,0.189-2.146v-9.17c0-2.449-0.652-4.42-1.459-4.42
				s-1.457,1.971-1.457,4.42v7.451c-0.14-0.106-0.308-0.196-0.512-0.256c0.045-0.242,0.074-0.497,0.074-0.768v-5.027
				c0-1.343-0.599-2.424-1.344-2.424s-1.346,1.081-1.346,2.424v5.027c0,1.308,0.571,2.36,1.289,2.414
				c0.206,0.064,0.429,0.107,0.676,0.107c0.477,0,0.885-0.141,1.162-0.352v0.572c0,1.344,0.2,2.53,0.51,3.34
				c-0.025,0.08-0.047,0.162-0.047,0.246c0,0.811,1.231,1.465,2.76,1.465c0.391,0,0.761-0.044,1.098-0.121v0.281
				c0,4.538,1.096,8.191,2.457,8.191s2.457-3.654,2.457-8.191v-2.779c0.658,0.274,1.47,0.441,2.361,0.441
				c1.842,0,3.366-0.695,3.797-1.637c0.939-0.212,1.672-2.104,1.672-4.449v-1.914c0.239,0.343,0.651,0.584,1.146,0.584
				c0.239,0,0.452-0.067,0.646-0.16c0.677-0.092,1.201-0.82,1.201-1.719v-3.598c0-0.961-0.599-1.736-1.344-1.736
				s-1.346,0.775-1.346,1.736v3.371c-0.123,0.087-0.222,0.188-0.305,0.307v-6.186c0-2.488-0.821-4.49-1.842-4.49
				s-1.844,2.002-1.844,4.49v8.195c-0.151-0.163-0.369-0.295-0.646-0.377c0.045-0.242,0.074-0.497,0.074-0.768v-5.029
				c0-1.343-0.601-2.424-1.346-2.424s-1.344,1.081-1.344,2.424v5.029c0,1.31,0.571,2.363,1.291,2.414
				c0.205,0.063,0.428,0.107,0.674,0.107c0.565,0,1.037-0.197,1.297-0.477v0.219c0,0.744,0.081,1.434,0.211,2.051
				c-0.586-0.191-1.262-0.309-1.994-0.309c-0.891,0-1.703,0.169-2.361,0.443v-10.75
				C-606.729,168.168-607.825,164.514-609.186,164.514L-609.186,164.514z"/>
			<path style="fill:#002F51;" d="M-575.27,177.082c-0.725,0-1.309,1.945-1.309,4.361v7.465c-0.179-0.041-0.375-0.064-0.584-0.064
				c-0.098,0-0.185,0.02-0.277,0.029c0.066-0.347,0.113-0.727,0.113-1.158v-4.883c0-1.304-0.345-2.354-0.775-2.354
				s-0.777,1.049-0.777,2.354v3.967c-0.076-0.057-0.167-0.105-0.277-0.137c0.024-0.13,0.045-0.263,0.045-0.408v-2.678
				c0-0.715-0.32-1.289-0.717-1.289s-0.715,0.574-0.715,1.289v2.678c0,0.425,0.12,0.783,0.295,1.018
				c0.014,0.024,0.034,0.046,0.055,0.068c0.101,0.111,0.212,0.193,0.338,0.201c0.109,0.034,0.226,0.057,0.357,0.057
				c0.254,0,0.472-0.076,0.619-0.188v0.305c0,0.715,0.11,1.333,0.275,1.764c-0.017,0.047-0.027,0.095-0.027,0.145
				c0,0.432,0.655,0.779,1.469,0.779c0.209,0,0.405-0.023,0.584-0.064v0.15c0,2.416,0.584,4.361,1.309,4.361
				c0.725,0,1.307-1.945,1.307-4.361v-1.498c0.353,0.15,0.776,0.254,1.258,0.254c0.981,0,1.794-0.37,2.023-0.871
				c0.5-0.113,0.891-1.121,0.891-2.369v-1.02c0.127,0.183,0.346,0.311,0.609,0.311c0.142,0,0.266-0.045,0.377-0.105
				c0.342-0.07,0.607-0.433,0.607-0.895v-1.916c0-0.512-0.32-0.924-0.717-0.924s-0.717,0.412-0.717,0.924v1.795
				c-0.065,0.046-0.116,0.101-0.16,0.164v-3.293c0-1.325-0.439-2.393-0.982-2.393s-0.982,1.068-0.982,2.393v4.361
				c-0.081-0.087-0.198-0.158-0.348-0.201c0.024-0.13,0.045-0.262,0.045-0.406v-2.678c0-0.715-0.32-1.291-0.717-1.291
				s-0.717,0.576-0.717,1.291v2.678c0,0.427,0.121,0.785,0.297,1.02c0.013,0.021,0.032,0.039,0.049,0.059
				c0.101,0.113,0.213,0.195,0.34,0.205c0.11,0.034,0.229,0.059,0.361,0.059c0.3,0,0.551-0.104,0.689-0.252v0.115
				c0,0.411,0.055,0.778,0.129,1.115c-0.319-0.109-0.674-0.188-1.078-0.188c-0.482,0-0.905,0.104-1.258,0.254v-5.742
				C-573.964,179.028-574.546,177.082-575.27,177.082L-575.27,177.082z"/>
		</g>
		<path style="fill:#1B4468;" d="M-905.688,251.297c-1.76-0.145-7.322,7.088-13.512,17.791l-0.439,0.762
			c-0.052-0.868-0.173-1.712-0.373-2.479c-0.781-2.995-2.429-3.646-3.693-1.459c-0.131,0.227-0.247,0.486-0.359,0.752
			c-1.421,1.575-3.371,4.379-5.467,8.002l-0.871,1.506c0.178-1.096,0.174-2.265-0.066-3.188c-0.126-0.483-0.304-0.826-0.508-1.057
			c-0.455-1.251-2.391,0.483-4.428,4.004l-7.84,13.555c-2.094,3.62-3.473,7.71-3.092,9.17c0.381,1.46,2.373-0.28,4.467-3.9
			l7.84-13.555c0.418-0.723,0.796-1.462,1.148-2.197c0.193,0.234,0.413,0.345,0.645,0.34l-11.592,20.041
			c-3.819,6.603-6.559,13.193-6.146,14.775s3.818-2.46,7.637-9.063l14.297-24.719c1.223-2.115,2.316-4.212,3.25-6.16
			c0.058,0.359,0.126,0.712,0.213,1.047c0.2,0.767,0.457,1.375,0.75,1.826l-21.857,37.789c-1.436,2.483-2.762,4.933-4.006,7.32
			c1.708,1.535,3.438,3.046,5.189,4.531c0.443-0.741,0.877-1.445,1.328-2.225l16.76-28.979c-0.091,2.029,0.062,4.073,0.518,5.82
			c0.373,1.429,0.892,2.462,1.486,3.096c-1.024,1.404-2.138,3.099-3.293,5.096l-0.305,0.525c0.287-1.245,0.326-2.673,0.043-3.758
			c-0.127-0.485-0.305-0.83-0.51-1.061c-0.458-1.243-2.391,0.49-4.426,4.008l-7.84,13.553c-0.993,1.718-1.817,3.534-2.377,5.133
			c0.85,0.67,1.705,1.334,2.564,1.992c0.386-0.55,0.783-1.154,1.188-1.854l7.84-13.555c0.418-0.723,0.798-1.462,1.15-2.197
			c0.26,0.316,0.57,0.415,0.891,0.293l-10.32,17.846c1.421,1.033,2.853,2.051,4.297,3.053l4.756-8.223
			c-0.131,0.458-0.226,0.919-0.293,1.369l-4.109,7.105c1.039,0.751,2.084,1.494,3.135,2.229l2.729-4.719
			c1.375-2.378,2.234-5.304,2.074-6.9c0.057-0.67,0.038-1.292-0.09-1.783c-0.247-0.947-0.803-1.181-1.441-0.766l2.93-5.066
			c3.675-6.354,6.29-12.972,6.111-15.354c1.222-3.379,1.516-8.191,0.582-11.771c-0.454-1.741-1.126-2.898-1.887-3.451l4.322-7.475
			c7.074-12.232,12.211-24.226,11.516-26.893C-905.262,251.489-905.437,251.318-905.688,251.297z"/>
	</g>
	<g>
		<path style="fill:#1B4468;stroke:#002F51;stroke-width:0.641;" d="M-999.801,703.457L-999.801,703.457
			c1.487,0,2.692,4.018,2.692,8.975v18.615c0,4.957-1.205,8.975-2.692,8.975h0c-1.487,0-2.692-4.018-2.692-8.975v-18.615
			C-1002.493,707.475-1001.288,703.457-999.801,703.457z"/>
		<path style="fill:#1B4468;stroke:#002F51;stroke-width:0.641;" d="M-994.514,723.727L-994.514,723.727
			c2.381,0,4.31,1.066,4.31,2.38l0,0c0,1.314-1.929,2.38-4.309,2.38h-0.001c-2.38,0-4.309-1.066-4.309-2.38l0,0
			C-998.823,724.792-996.894,723.727-994.514,723.727z"/>
		<path style="fill:#1B4468;stroke:#002F51;stroke-width:0.641;" d="M-1003.693,727.656h0.01c1.668,0,3.02,0.718,3.02,1.604l0,0
			c0,0.886-1.352,1.604-3.02,1.604h-0.01c-1.668,0-3.02-0.718-3.02-1.604l0,0C-1006.713,728.375-1005.361,727.656-1003.693,727.656z
			"/>
		<path style="fill:#1B4468;stroke:#002F51;stroke-width:0.641;" d="M-1005.626,710.447L-1005.626,710.447
			c0.882,0,1.597,2.169,1.597,4.845v10.048c0,2.676-0.715,4.845-1.597,4.845l0,0c-0.882,0-1.597-2.169-1.597-4.845v-10.048
			C-1007.223,712.616-1006.508,710.447-1005.626,710.447z"/>
		<path style="fill:#1B4468;stroke:#002F51;stroke-width:0.641;" d="M-990.543,706.687L-990.543,706.687
			c1.116,0,2.02,2.203,2.02,4.921v10.208c0,2.718-0.904,4.921-2.02,4.921h0c-1.116,0-2.02-2.203-2.02-4.921v-10.208
			C-992.563,708.89-991.658,706.687-990.543,706.687z"/>
		<path style="fill:#1B4468;stroke:#002F51;stroke-width:0.641;" d="M-987.27,717.747L-987.27,717.747
			c0.825,0,1.493,0.584,1.493,1.305l0,0c0,0.721-0.668,1.305-1.493,1.305h0c-0.825,0-1.493-0.584-1.493-1.305l0,0
			C-988.763,718.331-988.094,717.747-987.27,717.747z"/>
		<path style="fill:#1B4468;stroke:#002F51;stroke-width:0.641;" d="M-993.985,720.067L-993.985,720.067
			c0.916,0,1.658,0.454,1.658,1.015l0,0c0,0.561-0.742,1.015-1.658,1.015h0c-0.916,0-1.658-0.454-1.658-1.015l0,0
			C-995.643,720.521-994.901,720.067-993.985,720.067z"/>
		<path style="fill:#1B4468;stroke:#002F51;stroke-width:0.641;" d="M-986.719,712.457L-986.719,712.457
			c0.814,0,1.474,0.852,1.474,1.902v3.943c0,1.05-0.66,1.902-1.474,1.902l0,0c-0.814,0-1.474-0.852-1.474-1.902v-3.943
			C-988.193,713.308-987.533,712.457-986.719,712.457z"/>
		<path style="fill:#1B4468;stroke:#002F51;stroke-width:0.641;" d="M-994.659,711.167L-994.659,711.167
			c0.814,0,1.474,1.189,1.474,2.656v5.511c0,1.467-0.66,2.656-1.474,2.656l0,0c-0.814,0-1.474-1.189-1.474-2.656v-5.511
			C-996.133,712.356-995.473,711.167-994.659,711.167z"/>
		<path style="fill:#1B4468;stroke:#002F51;stroke-width:0.641;" d="M-1008.495,723.067L-1008.495,723.067
			c0.916,0,1.658,0.454,1.658,1.015l0,0c0,0.561-0.742,1.015-1.658,1.015h0c-0.916,0-1.658-0.454-1.658-1.015l0,0
			C-1010.153,723.521-1009.411,723.067-1008.495,723.067z"/>
		<path style="fill:#1B4468;stroke:#002F51;stroke-width:0.641;" d="M-1009.179,714.167L-1009.179,714.167
			c0.814,0,1.474,1.189,1.474,2.656v5.511c0,1.467-0.66,2.656-1.474,2.656l0,0c-0.814,0-1.474-1.189-1.474-2.656v-5.511
			C-1010.653,715.356-1009.993,714.167-1009.179,714.167z"/>
	</g>
	<path style="fill:#002F51;" d="M-796.474,711.958c-1.078,0-1.945,2.893-1.945,6.488v11.107c-0.267-0.061-0.559-0.098-0.869-0.098
		c-0.141,0-0.265,0.029-0.398,0.043c0.095-0.51,0.154-1.092,0.154-1.723v-7.264c0-1.94-0.517-3.504-1.156-3.504
		s-1.154,1.563-1.154,3.504v5.9c-0.113-0.086-0.249-0.158-0.414-0.205c0.036-0.192,0.068-0.389,0.068-0.604v-3.984
		c0-1.064-0.476-1.92-1.066-1.92s-1.064,0.856-1.064,1.92v3.984c0,1.04,0.454,1.874,1.025,1.912c0.162,0.05,0.337,0.086,0.531,0.086
		c0.378,0,0.701-0.113,0.92-0.279v0.453c0,1.064,0.159,2.003,0.404,2.645c-0.02,0.064-0.037,0.128-0.037,0.195
		c0,0.643,0.976,1.16,2.188,1.16c0.31,0,0.602-0.034,0.869-0.096v0.223c0,3.595,0.867,6.49,1.945,6.49s1.947-2.895,1.947-6.49
		v-2.201c0.521,0.217,1.163,0.352,1.869,0.352c1.459,0,2.668-0.551,3.01-1.297c0.743-0.169,1.324-1.668,1.324-3.525v-1.516
		c0.189,0.272,0.516,0.461,0.908,0.461c0.189,0,0.357-0.053,0.512-0.127c0.536-0.074,0.951-0.65,0.951-1.361v-2.85
		c0-0.762-0.474-1.375-1.064-1.375c-0.59,0-1.066,0.613-1.066,1.375v2.67c-0.097,0.068-0.175,0.151-0.24,0.244v-4.9
		c0-1.971-0.652-3.559-1.461-3.559s-1.459,1.587-1.459,3.559v6.492c-0.122-0.131-0.297-0.24-0.521-0.305
		c0.036-0.192,0.068-0.389,0.068-0.604v-3.982c0-1.064-0.476-1.92-1.066-1.92c-0.59,0-1.064,0.856-1.064,1.92v3.982
		c0,1.04,0.454,1.876,1.025,1.914c0.162,0.05,0.337,0.084,0.531,0.084c0.448,0,0.822-0.155,1.027-0.377v0.174
		c0,0.59,0.063,1.136,0.166,1.625c-0.464-0.151-1-0.244-1.58-0.244c-0.706,0-1.348,0.133-1.869,0.35v-8.516
		C-794.526,714.852-795.395,711.958-796.474,711.958L-796.474,711.958z"/>
	<path style="fill:#E96F37;" d="M-660.725,509.084c5.704,2.348,9.681,7.559,9.681,13.628c0,8.265-7.358,14.962-16.438,14.962
		c-6.004,0-11.245-2.94-14.114-7.314c2.062,0.848,4.347,1.334,6.757,1.334c9.08,0,16.438-6.697,16.438-14.962
		C-658.401,513.939-659.262,511.321-660.725,509.084z"/>
	<g>
		<path style="fill:#427CB7;" d="M-908.77,682.064c4.636,0,8.368,12.443,8.368,27.9v57.866c0,15.456-3.732,27.9-8.368,27.9
			s-8.368-12.443-8.368-27.9v-57.866C-917.139,694.507-913.406,682.064-908.77,682.064z"/>
		<path style="fill:#427CB7;" d="M-892.36,745.073c7.421,0,13.396,3.299,13.396,7.398s-5.975,7.398-13.396,7.398
			c-7.421,0-13.396-3.299-13.396-7.398S-899.781,745.073-892.36,745.073z"/>
		<path style="fill:#427CB7;" d="M-920.876,757.306c5.207,0,9.399,2.224,9.399,4.988s-4.192,4.988-9.399,4.988
			s-9.399-2.224-9.399-4.988S-926.083,757.306-920.876,757.306z"/>
		<path style="fill:#427CB7;" d="M-926.889,703.787c2.75,0,4.964,6.717,4.964,15.06v31.235c0,8.343-2.214,15.06-4.964,15.06
			s-4.964-6.717-4.964-15.06v-31.235C-931.854,710.504-929.64,703.787-926.889,703.787z"/>
		<path style="fill:#427CB7;" d="M-880.005,692.111c3.478,0,6.278,6.823,6.278,15.298v31.729c0,8.475-2.8,15.298-6.278,15.298
			s-6.278-6.823-6.278-15.298v-31.729C-886.284,698.934-883.483,692.111-880.005,692.111z"/>
		<path style="fill:#427CB7;" d="M-869.824,726.492c2.571,0,4.641,1.809,4.641,4.056s-2.07,4.056-4.641,4.056
			s-4.641-1.809-4.641-4.056S-872.395,726.492-869.824,726.492z"/>
		<path style="fill:#427CB7;" d="M-890.699,733.704c2.855,0,5.154,1.407,5.154,3.155c0,1.748-2.299,3.155-5.154,3.155
			s-5.154-1.407-5.154-3.155C-895.853,735.111-893.554,733.704-890.699,733.704z"/>
		<path style="fill:#427CB7;" d="M-868.11,710.037c2.538,0,4.581,2.636,4.581,5.911v12.26c0,3.275-2.043,5.911-4.581,5.911
			s-4.581-2.636-4.581-5.911v-12.26C-872.691,712.674-870.648,710.037-868.11,710.037z"/>
		<path style="fill:#427CB7;" d="M-892.813,706.039c2.538,0,4.581,3.683,4.581,8.258v17.127c0,4.575-2.043,8.258-4.581,8.258
			s-4.581-3.683-4.581-8.258v-17.127C-897.394,709.721-895.351,706.039-892.813,706.039z"/>
		<path style="fill:#427CB7;" d="M-935.811,743.021c2.855,0,5.154,1.407,5.154,3.155s-2.299,3.155-5.154,3.155
			s-5.154-1.407-5.154-3.155S-938.667,743.021-935.811,743.021z"/>
		<path style="fill:#427CB7;" d="M-937.926,715.356c2.538,0,4.581,3.683,4.581,8.258v17.127c0,4.575-2.043,8.258-4.581,8.258
			s-4.581-3.683-4.581-8.258v-17.127C-942.507,719.039-940.464,715.356-937.926,715.356z"/>
	</g>
	<g shape-rendering="auto" image-rendering="auto" color-rendering="auto" color-interpolation="sRGB">
		<path style="fill:#E96F37;" d="M-862.927,465.746l-1.961,3.431l-2.864,1.263l2.676,2.914l0.323,3.098l3.616-1.63l3.063,0.652
			l-0.114-1.007l-0.328-2.914l1.569-2.695l-3.888-0.794L-862.927,465.746L-862.927,465.746z M-862.658,468.229l1.055,1.168
			l2.365,0.483l-0.79,1.358l0.269,2.386l-1.544-0.329l-2.199,0.992l-0.162-1.561l-1.628-1.773l1.442-0.636L-862.658,468.229
			L-862.658,468.229z"/>
		<path style="fill:#E96F37;" d="M-758.732,450.617l-1.961,3.431l-2.864,1.263l2.676,2.914l0.323,3.098l3.616-1.63l3.063,0.652
			l-0.114-1.007l-0.328-2.914l1.569-2.695l-3.888-0.794L-758.732,450.617L-758.732,450.617z M-758.464,453.1l1.055,1.168
			l2.365,0.483l-0.79,1.358l0.269,2.386l-1.544-0.329l-2.199,0.992l-0.162-1.561l-1.628-1.773l1.442-0.636L-758.464,453.1
			L-758.464,453.1z"/>
		<path style="fill:#E96F37;" d="M-656.69,560.504l-1.961,3.431l-2.864,1.263l2.676,2.914l0.323,3.098l3.616-1.63l3.063,0.652
			l-0.114-1.007l-0.328-2.914l1.569-2.695l-3.888-0.794L-656.69,560.504L-656.69,560.504z M-656.421,562.987l1.055,1.168
			l2.365,0.483l-0.79,1.358l0.269,2.386l-1.544-0.329l-2.199,0.992l-0.162-1.561l-1.628-1.773l1.442-0.636L-656.421,562.987
			L-656.421,562.987z"/>
		<path style="fill:#E96F37;" d="M-811.075,548.324l-1.961,3.431l-2.864,1.263l2.676,2.914l0.323,3.098l3.616-1.63l3.063,0.652
			l-0.114-1.007l-0.328-2.914l1.569-2.695l-3.888-0.794L-811.075,548.324L-811.075,548.324z M-810.807,550.807l1.055,1.168
			l2.365,0.483l-0.79,1.358l0.269,2.386l-1.544-0.329l-2.199,0.992l-0.162-1.561l-1.628-1.773l1.442-0.636L-810.807,550.807
			L-810.807,550.807z"/>
		<path style="fill:#E96F37;" d="M-922.74,536.111l-1.961,3.431l-2.864,1.263l2.676,2.914l0.323,3.098l3.616-1.63l3.063,0.652
			l-0.114-1.007l-0.328-2.914l1.569-2.695l-3.888-0.794L-922.74,536.111L-922.74,536.111z M-922.471,538.594l1.055,1.168
			l2.365,0.483l-0.79,1.358l0.269,2.386l-1.544-0.329l-2.199,0.992l-0.162-1.561l-1.628-1.773l1.442-0.636L-922.471,538.594
			L-922.471,538.594z"/>
		<path style="fill:#E96F37;" d="M-729.071,602.412l-1.961,3.431l-2.864,1.263l2.676,2.914l0.323,3.098l3.616-1.63l3.063,0.652
			l-0.114-1.007l-0.328-2.914l1.569-2.695l-3.888-0.794L-729.071,602.412L-729.071,602.412z M-728.803,604.895l1.055,1.168
			l2.365,0.483l-0.79,1.358l0.269,2.386l-1.544-0.329l-2.199,0.992l-0.162-1.561l-1.628-1.773l1.442-0.636L-728.803,604.895
			L-728.803,604.895z"/>
		<path style="fill:#E96F37;" d="M-579.021,594.56l-1.961,3.431l-2.864,1.263l2.676,2.914l0.323,3.098l3.616-1.63l3.063,0.652
			l-0.114-1.007l-0.328-2.914l1.569-2.695l-3.888-0.794L-579.021,594.56L-579.021,594.56z M-578.753,597.043l1.055,1.168
			l2.365,0.483l-0.79,1.358l0.269,2.386l-1.544-0.329l-2.199,0.992l-0.162-1.561l-1.628-1.773l1.442-0.636L-578.753,597.043
			L-578.753,597.043z"/>
		<path style="fill:#E96F37;" d="M-991.658,576.24l-1.961,3.431l-2.864,1.263l2.676,2.914l0.323,3.098l3.616-1.63l3.063,0.652
			l-0.114-1.007l-0.328-2.914l1.569-2.695l-3.888-0.794L-991.658,576.24L-991.658,576.24z M-991.39,578.723l1.055,1.168l2.365,0.483
			l-0.79,1.358l0.269,2.386l-1.544-0.329l-2.199,0.992l-0.162-1.561l-1.628-1.773l1.442-0.636L-991.39,578.723L-991.39,578.723z"/>
	</g>
</g>
<g>
</g>
<g>
</g>
<g>
</g>
<g>
</g>
<g>
</g>
<g>
</g>
<g>
</g>
<g>
</g>
<g>
</g>
<g>
</g>
<g>
</g>
<g>
</g>
<g>
</g>
<g>
</g>
<g>
</g>
</svg>
