<?xml version="1.0" encoding="iso-8859-1"?>
<!-- Generator: Adobe Illustrator 19.0.0, SVG Export Plug-In . SVG Version: 6.00 Build 0)  -->
<svg version="1.1" id="Layer_1" xmlns="http://www.w3.org/2000/svg" xmlns:xlink="http://www.w3.org/1999/xlink" x="0px" y="0px"
	 viewBox="0 0 500 500" style="enable-background:new 0 0 500 500;" xml:space="preserve">
<g transform="translate(1021.53 -426.86)">
	<path style="fill:#FFFFFF;" d="M-521.53,676.86c0,138.071-111.929,250-250,250c-138.071,0-250-111.929-250-250s111.929-250,250-250
		S-521.53,538.789-521.53,676.86L-521.53,676.86L-521.53,676.86z"/>
	<path style="fill:#1B4468;" d="M-532.53,676.86c0,131.996-107.004,239-239,239c-131.996,0-239-107.004-239-239s107.004-239,239-239
		C-639.534,437.86-532.53,544.864-532.53,676.86z"/>
	<g transform="translate(0 540.36)">
		<path style="fill:#E96F37;" d="M-770.513,74.572l-8.969,42.014l14.639,3.125l-7.715,40.613l28.744-43.402l-16.443-6.688
			l6.834-32.014C-753.423,78.22-770.513,74.572-770.513,74.572z"/>
		<g>
			<path style="fill:#FFFFFF;" d="M-771.531-103.503c-63.844,0.065-125.031,25.565-170.025,70.859
				c11.671,20.487,33.704,34.305,58.969,34.305c6.686,0,13.145-0.967,19.246-2.77c3.578,5.773,7.767,11.128,12.473,15.979
				c9.975,41.151,47.05,71.711,91.268,71.711c33.74,0,63.326-17.793,79.883-44.508c6.101,1.802,12.56,2.77,19.246,2.77
				c29.056,0,53.845-18.27,63.504-43.949c6.292-1.72,12.181-4.408,17.518-7.877C-624.684-67.635-695.869-103.405-771.531-103.503z"
				/>
			<path style="fill:#E9E9E9;" d="M-771.531-103.503c-57.942,0.11-113.888,21.178-157.51,59.314
				c11.452,15.909,30.924,26.383,53.025,26.383c6.29,0,12.367-0.848,18.107-2.428c3.367,5.063,7.308,9.76,11.736,14.014
				c9.386,36.077,44.265,62.869,85.863,62.869c31.743,0,59.577-15.601,75.154-39.023c5.74,1.58,11.817,2.428,18.107,2.428
				c27.336,0,50.659-16.019,59.746-38.533c4.926-1.255,9.589-3.099,13.91-5.432C-638.82-74.47-703.559-103.395-771.531-103.503z"/>
		</g>
	</g>
	<g transform="matrix(0.51616 0.85649 -0.29967 0.95404 0 0)">
		<path style="fill:#F8F8F8;" d="M-957.472,1471.666h4.346v68.234h-4.346V1471.666z"/>
		<path style="fill:#F8F8F8;" d="M-830.257,1428.781h4.346v68.234h-4.346V1428.781z"/>
		<path style="fill:#F8F8F8;" d="M-702.087,1375.896h4.346v68.234h-4.346V1375.896z"/>
		<path style="fill:#F8F8F8;" d="M-593.603,1216.325h4.346v68.234h-4.346V1216.325z"/>
		<path style="fill:#F8F8F8;" d="M-505.21,1062.903h4.346v68.234h-4.346V1062.903z"/>
		<path style="fill:#F8F8F8;" d="M-906.52,1559.427h4.346v68.234h-4.346V1559.427z"/>
		<path style="fill:#F8F8F8;" d="M-788.378,1500.914h4.346v68.234h-4.346V1500.914z"/>
		<path style="fill:#F8F8F8;" d="M-660.208,1448.028h4.346v68.234h-4.346V1448.028z"/>
		<path style="fill:#F8F8F8;" d="M-551.724,1288.457h4.346v68.234h-4.346V1288.457z"/>
		<path style="fill:#F8F8F8;" d="M-453.211,1152.467h4.346v68.234h-4.346V1152.467z"/>
	</g>
</g>
<g>
</g>
<g>
</g>
<g>
</g>
<g>
</g>
<g>
</g>
<g>
</g>
<g>
</g>
<g>
</g>
<g>
</g>
<g>
</g>
<g>
</g>
<g>
</g>
<g>
</g>
<g>
</g>
<g>
</g>
</svg>
