<?xml version="1.0" encoding="iso-8859-1"?>
<!-- Generator: Adobe Illustrator 19.0.0, SVG Export Plug-In . SVG Version: 6.00 Build 0)  -->
<svg version="1.1" id="Layer_1" xmlns="http://www.w3.org/2000/svg" xmlns:xlink="http://www.w3.org/1999/xlink" x="0px" y="0px"
	 viewBox="0 0 500 500" style="enable-background:new 0 0 500 500;" xml:space="preserve">
<g transform="translate(0 -540.36)">
	<path style="fill:#FFFFFF;" d="M250,540.36c-138.1,0-250,111.9-250,250s111.9,250,250,250s250-111.9,250-250
		S388.1,540.36,250,540.36L250,540.36z"/>
	<path style="fill:#86D0EF;" d="M248.8,550.16c-45.6,0.2-90.1,13.4-128.4,38c-80.8,51.8-122.9,146.8-107.1,241.4l0.6-0.1
		c2.1,13.3,5.4,26.5,9.8,39.3h453c13.1-39.3,16.6-82.2,9.1-122.3h-0.3c-11.6-63.1-48-118.9-101.1-155
		C344.4,564.36,297.1,549.96,248.8,550.16z"/>
	<path style="fill:#F3F3F3;" d="M375.8,840.36c-22.4,0-40.5,10.7-40.5,24c0,1.5,0.3,3,0.7,4.4H146.3c-3.9-11.1-20.5-19-39.7-19
		c-10.2,0-20,2.3-27.5,6.4c-2.5-0.3-5-0.4-7.6-0.4c-15.2,0-29.2,5.1-36.1,13.1H23.7c33.3,96.7,124.2,161.6,226.5,161.7
		c102.2-0.1,193.2-65.1,226.5-161.7h-12.3c-4.7-10.5-20.8-17.9-39.2-17.9c-4.9,0-9.7,0.5-14.2,1.6
		C403.7,844.96,390.3,840.36,375.8,840.36z"/>
	<g>
		<circle style="fill:#FFFFFF;" cx="405.3" cy="672.96" r="4.4"/>
		<circle style="fill:#FFFFFF;" cx="308" cy="624.36" r="4.4"/>
		<circle style="fill:#FFFFFF;" cx="374.5" cy="615.86" r="4.4"/>
		<circle style="fill:#FFFFFF;" cx="217.3" cy="646.46" r="4.4"/>
		<circle style="fill:#FFFFFF;" cx="203.5" cy="711.06" r="4.4"/>
		<circle style="fill:#FFFFFF;" cx="125.1" cy="723.76" r="4.4"/>
		<circle style="fill:#FFFFFF;" cx="44.8" cy="710.56" r="4.4"/>
		<circle style="fill:#FFFFFF;" cx="119" cy="627.86" r="4.4"/>
		<circle style="fill:#FFFFFF;" cx="364.5" cy="716.06" r="4.4"/>
		<circle style="fill:#FFFFFF;" cx="453.5" cy="741.96" r="4.4"/>
		<circle style="fill:#FFFFFF;" cx="396.8" cy="779.46" r="4.4"/>
		<circle style="fill:#FFFFFF;" cx="476.1" cy="803.86" r="4.4"/>
		<circle style="fill:#FFFFFF;" cx="56.8" cy="833.46" r="4.4"/>
		<circle style="fill:#FFFFFF;" cx="99.7" cy="781.26" r="4.4"/>
		<circle style="fill:#FFFFFF;" cx="28.9" cy="757.66" r="4.4"/>
		<circle style="fill:#FFFFFF;" cx="85.6" cy="674.76" r="4.4"/>
		<circle style="fill:#FFFFFF;" cx="158.8" cy="668.66" r="4.4"/>
		<circle style="fill:#FFFFFF;" cx="197.2" cy="580.66" r="4.4"/>
		<circle style="fill:#FFFFFF;" cx="269.5" cy="582.36" r="4.4"/>
		<path style="fill:#FFFFFF;" d="M319.9,560.66c-2,0.5-3.4,2.3-3.4,4.3c0,2.4,2,4.4,4.4,4.4s4.4-2,4.4-4.4c0-0.9-0.3-1.9-0.9-2.6
			C323,561.76,321.4,561.16,319.9,560.66z"/>
		<path style="fill:#FFFFFF;" d="M151.3,571.56c-2.5,1.2-4.9,2.4-7.4,3.6c0.1,1.6,1,2.9,2.4,3.6c2.2,1.1,4.8,0.2,5.9-2l0,0
			C153.1,575.06,152.7,572.96,151.3,571.56z"/>
		<circle style="fill:#FFFFFF;" cx="306.6" cy="687.46" r="4.4"/>
		<circle style="fill:#FFFFFF;" cx="245.1" cy="776.76" r="4.4"/>
	</g>
	<path style="fill:#E9E9E9;" d="M253.6,720.36c1.8,0,3.2,1.5,3.2,3.3v37.1c0,1.8-1.4,3.3-3.2,3.3s-3.2-1.5-3.2-3.3v-37.1
		C250.4,721.76,251.8,720.36,253.6,720.36z"/>
	<path style="fill:#E74C3C;" d="M258.6,721.16v14.4l22.2-6.1L258.6,721.16z"/>
	<g>
		<path style="fill:#FFFFFF;" d="M254,742.96c-20.3,0.7-40,7-57.1,18c-37.6,24.4-58.1,69.1-52.7,115.1h1.7c0.1,1.4,0.2,2.8,0.3,4.2
			l228.6,1.2c0.1-1.4,0.1-2.8,0.2-4.3h1.7c4.2-46-17.4-90.9-55.7-115.7C300.8,748.56,277.5,742.06,254,742.96z"/>
		<path style="fill:#FFFFFF;" d="M145.3,880.16c25.5,11,71.9,18.1,120.1,18.5c48.2,0.3,90.3-6.1,109-16.8"/>
		<rect x="172.7" y="877.06" style="fill:#FFFFFF;" width="201.9" height="5"/>
	</g>
	<g>
		<path style="fill:#E9E9E9;" d="M179.9,812.36l-29.7,2.5l5.8,0.8l6.4,2.3l1.3,0.9c-1.7,1.4-3.4,3-5,4.9
			c-12.9,15.1-19.9,42.8-18.1,71.3l79.8,0.8c1.5-28.5-6-56.3-19.1-71.7c-6.5-7.5-13.9-11.5-21.5-11.5L179.9,812.36L179.9,812.36z"/>
		<path style="fill:#E9E9E9;" d="M374.2,865.26c-0.3,0-0.5,0.1-0.6,0.1c-18.6,10.6-60.4,17.1-108.2,16.7c-15.4-0.1-30.6-0.9-45-2.3
			c0,0.3,0,0.5,0.1,0.8c14.8,1.5,30.3,2.3,46.1,2.4c48.6,0.4,90.9-6.2,109.7-17c0.3-0.2,0-0.4-0.7-0.6
			C375.1,865.36,374.6,865.26,374.2,865.26z"/>
		<path style="fill:#E9E9E9;" d="M372.3,844.96c-0.3,0-0.5,0-0.7,0.1c-18,10.3-58.6,16.5-105,16.2c-17.1-0.1-33.9-1.1-49.5-2.9
			c0.1,0.3,0.1,0.5,0.2,0.8c16,1.8,33.1,2.8,50.4,2.9c47.2,0.3,88.2-6,106.5-16.5c0.3-0.2-0.1-0.4-0.8-0.6
			C373.1,844.96,372.7,844.96,372.3,844.96z"/>
		<path style="fill:#E9E9E9;" d="M366.3,824.66c-0.3,0-0.5,0-0.7,0.1c-17.5,9.1-57.1,14.7-102.3,14.4c-18.9-0.1-37.3-1.3-54.2-3.2
			c0.1,0.3,0.3,0.5,0.4,0.8c17.2,2,36,3.1,55,3.3c46,0.3,86-5.3,103.8-14.7c0.3-0.2-0.1-0.4-0.8-0.6
			C367.1,824.66,366.6,824.66,366.3,824.66z"/>
		<path style="fill:#E9E9E9;" d="M160.5,802.16c0.6-0.1,1.4,0.1,1.9,0.3c21.3,10.2,60.3,16.9,101.3,17.2
			c40.9,0.3,76.7-5.8,92.6-15.8c0.3-0.2,1.1-0.2,1.8,0c0.7,0.2,1,0.5,0.8,0.6c-16.2,10.2-52.4,16.4-94,16.1
			c-41.6-0.3-82-7.2-104.3-17.8c-0.9-0.1-1.6-0.3-1.6-0.5c0-0.3,0.8-0.4,1.7-0.2C160.5,802.06,160.5,802.06,160.5,802.16
			L160.5,802.16z"/>
		<path style="fill:#E9E9E9;" d="M171.9,783.86c0.5-0.1,1.3,0.1,1.8,0.3c19,10.7,53.7,17.6,90,18c36.4,0.3,68.2-6.1,82.3-16.5
			c0.3-0.2,1-0.2,1.6,0s1,0.5,0.7,0.7l0,0c-14.4,10.7-46.6,17.2-83.7,16.8s-72.9-7.5-92.8-18.6
			C171.5,784.26,171.6,784.06,171.9,783.86L171.9,783.86z"/>
		<path style="fill:#E9E9E9;" d="M191,765.76c0.6-0.1,1.5,0.1,2,0.3c14.3,6,40.5,9.9,68.2,10.1c27.7,0.2,52-3.4,62.7-9.3
			c0.3-0.2,1.1-0.2,1.9,0s1.1,0.4,0.9,0.6l0,0c-11.1,6.1-35.8,9.8-64.2,9.6c-28.4-0.2-56.1-4.3-71.5-10.7
			C190.4,766.16,190.4,765.86,191,765.76L191,765.76L191,765.76z"/>
		<path style="fill:#E9E9E9;" d="M340.8,894.16c-0.3-0.5-0.6-1.3-0.6-1.9c-0.2-18.8-9.1-49.9-23.2-80.8
			c-14.1-30.9-30.8-55-43.5-64.1c-0.7-0.4-1.2-3.1-0.5-2.6c13,9.3,29.9,33.8,44.3,65.3s23.8,64,24,84
			C341.4,894.56,341.1,894.66,340.8,894.16L340.8,894.16z"/>
		<path style="fill:#E9E9E9;" d="M235.1,745.56c-0.1-0.1-0.3,0-0.5,0.2c-14.3,12.8-31.2,39-45.1,69.1c0.3,0.1,0.5,0.2,0.8,0.3
			c13.6-29.8,30.1-55.2,43.7-67.4c0.4-0.4,0,0,1.1-1.7C235.2,745.86,235.2,745.66,235.1,745.56L235.1,745.56z M167.3,895.36
			c0,0.2,0,0.5,0.1,0.7c0,0.5,0.6,0,1.1-0.7H167.3L167.3,895.36z"/>
		<path style="fill:#E9E9E9;" d="M255.2,898.36c-0.1-0.6,0-1.6,0.2-2.1c5.4-16.3,8.1-46,6.9-77.7s-5.6-58.4-12.3-72
			c-0.4-0.8,0.1-3.6,0.5-2.8c6.8,13.9,11.3,41.1,12.5,73.5s-1.6,63.7-7.4,81.2C255.6,899.06,255.3,899.06,255.2,898.36z"/>
	</g>
	<path style="fill:#FFFFFF;" d="M191.9,895.96c1.5-27.7-6-54.8-19.4-69.7s-30.1-15.1-43.1-0.4s-20.2,41.6-18.3,69.4"/>
	<path style="fill:#E9E9E9;" d="M147,841.16c-4.7,0.3-9.3,2.8-13.3,7.3c-5.9,6.7-10.1,17.3-11.7,29.6c3.9-0.7,8-1.1,12.2-1.1
		c18.8,0,35.1,7.7,39.4,18.5h2c1-18.6-4.1-36.7-13-46.7C158,843.46,152.5,840.86,147,841.16L147,841.16z"/>
	<ellipse style="fill:#F3F3F3;" cx="137.5" cy="899.06" rx="36.6" ry="22.6"/>
</g>
<g>
</g>
<g>
</g>
<g>
</g>
<g>
</g>
<g>
</g>
<g>
</g>
<g>
</g>
<g>
</g>
<g>
</g>
<g>
</g>
<g>
</g>
<g>
</g>
<g>
</g>
<g>
</g>
<g>
</g>
</svg>
