<?xml version="1.0" encoding="iso-8859-1"?>
<!-- Generator: Adobe Illustrator 19.0.0, SVG Export Plug-In . SVG Version: 6.00 Build 0)  -->
<svg version="1.1" id="Layer_1" xmlns="http://www.w3.org/2000/svg" xmlns:xlink="http://www.w3.org/1999/xlink" x="0px" y="0px"
	 viewBox="0 0 500 500" style="enable-background:new 0 0 500 500;" xml:space="preserve">
<g transform="translate(0 -540.36)">
	<path style="fill:#FFFFFF;" d="M500,790.36c0,138.071-111.929,250-250,250S0,928.431,0,790.36s111.929-250,250-250
		S500,652.289,500,790.36L500,790.36z"/>
	<path style="fill:#38B4AF;" d="M489.182,790.69c0,132.322-107.268,239.591-239.591,239.591c0,0,0,0,0,0
		C117.269,1030.281,10,923.013,10,790.69c0,0,0,0,0,0c0-132.322,107.269-239.591,239.591-239.591S489.182,658.368,489.182,790.69z"
		/>
	<path style="fill:#0AAEB8;" d="M14.648,835.47c-18.161-94.112,21.515-189.991,100.867-243.752s183.108-55.055,263.777-3.291
		s122.724,146.623,106.917,241.159l-236.31-39.513L14.648,835.47z"/>
	<path style="fill:#FEC228;" d="M180.454,698.645c-4.357-21.21,5.162-42.818,24.199-54.933s43.929-12.407,63.281-0.742
		s29.442,33.044,25.65,54.349l-56.692-8.905L180.454,698.645z"/>
	<g>
		<path style="fill:#487B74;" d="M185.822,625.983l-40,52.018l-17.568-23.443l-12.08,15.707
			c-14.836-11.904-35.985-18.715-58.191-18.738c-1.093,0.024-2.186,0.064-3.277,0.121C33.027,682.109,18.778,717.223,13.1,754.178
			c13.147,6.656,28.815,10.239,44.883,10.264c35.648-0.018,66.787-17.369,75.775-42.223l45.346,0.191l-8.037-10.725l9.668-0.029
			l34.932,0.15l-3.688,4.795l77.979,0.33l-3.842-5.125l35.326-0.15l9.658,0.029l-8.037,10.725l45.344-0.191
			c8.989,24.854,40.129,42.205,75.777,42.223c14.962-0.031,29.598-3.147,42.18-8.98c-5.617-37.488-20.049-73.108-42.109-103.934
			c-0.023-0.001-0.047-0.001-0.07-0.002c-22.207,0.024-43.357,6.835-58.193,18.74l-12.08-15.709L356.344,678l-40.002-52.018
			l-47.27,63.08l-17.727-23.654l-18.221,23.695L185.822,625.983L185.822,625.983z"/>
		<path style="fill:#487B74;" d="M250.82,665.405l-38.612,51.524l77.979-0.331L250.82,665.405z"/>
	</g>
	<path style="fill:#83A6A4;" d="M118.875,660.682l-27.182,31.666l-11.938-14.271l-8.209,9.563
		c-8.465-6.081-20.011-10.014-32.564-11.096c-11.318,20.856-19.475,43.278-24.203,66.531c5.54,1.241,11.359,1.883,17.223,1.9
		c24.225-0.01,45.386-10.574,51.494-25.705l30.813,0.117l-5.461-6.529l6.711-0.018l23.596,0.09l-2.506,2.92l52.99,0.201
		l-2.848-3.404l178.396-0.482l-186.488-9.191l-15.299-18.289l-12.383,14.426L118.875,660.682L118.875,660.682z"/>
	<path style="fill:#193D3A;" d="M416.305,675.158l-31.021,37.086h-2.271l-11.232-13.086l-10.945,13.086H23.49
		c-3.098,8.827-5.676,17.827-7.721,26.955h438.93c6.155,8.783,17.742,15.494,31.934,18.496c-2.843-20.48-8.326-40.506-16.311-59.578
		c-2.403,1.207-4.641,2.544-6.689,3.998l-8.209-9.563l-11.938,14.271L416.305,675.158z"/>
	<path style="fill:#21663C;" d="M470.553,696.721l-35.195,31.93l-13.893-12.283l-19.578,17.762H17.172
		c-2.171,8.883-3.832,17.883-4.975,26.955h475.33C484.892,738.944,479.178,717.281,470.553,696.721z"/>
	<path style="fill:#0B8480;" d="M20.322,721.369c-6.82,22.476-10.298,45.833-10.322,69.32c0.103,33.417,7.195,66.442,20.82,96.955
		h437.684c13.577-30.523,20.62-63.549,20.678-96.955c-0.1-17.789-2.181-35.512-6.205-52.84h-11.768
		c-7.289-4.221-21.394-6.854-36.742-6.859c-10.713,0.002-21.015,1.289-28.779,3.596c-1.719-0.071-3.451-0.108-5.186-0.111
		c-10.338,0.005-20.303,1.208-27.971,3.375h-20.492c-7.906-2.701-19.076-4.241-30.789-4.246c-11.71,0.006-22.875,1.546-30.779,4.246
		H164.596c-7.668-2.167-17.635-3.37-27.975-3.375c-10.339,0.005-20.305,1.208-27.973,3.375h-10.24
		c-7.669-2.168-17.636-3.37-27.977-3.375c-5.398,0.003-10.743,0.333-15.74,0.971c-6.814-5.157-18.43-10.113-31.299-13.354
		C22.371,721.839,21.347,721.598,20.322,721.369z"/>
	<path style="fill:#FFFFFF;" d="M296.586,570.932l22.486,13.93c-7.934,4.332-13.418,10.436-15.41,17.154l21.549-13.35l9.207,5.703
		c-0.887-2.97-2.465-5.846-4.672-8.514l11.748-7.277c-5.443,0.357-10.779,1.463-15.688,3.252
		C318.526,575.615,307.922,571.66,296.586,570.932z M334.418,594.369l26.465-16.395c-2.061-1.044-4.138-2.059-6.229-3.043
		C344.215,579.191,336.813,586.301,334.418,594.369z M303.662,602.016c-3.705-12.587-19.302-22.25-37.83-23.438L303.662,602.016z"/>
	<path style="fill:#38B4AF;" d="M221.264,736.11c-2.788,0-5.031,2.949-5.031,6.611v86.572l-4.207,43.275
		c-1.418-0.19-2.858-0.288-4.301-0.293c-8.165,0.007-15.765,2.992-20.178,7.924c-2.431-0.187-4.91-0.305-7.408-0.354
		c0.524-0.798-2.565-4.345-6.947-7.979c-4.444-3.683-8.544-6.069-9.158-5.328c0,0,0,0,0,0c-0.616,0.739,2.488,4.325,6.931,8.008
		c0.001,0.001,0.003,0.002,0.004,0.004c3.154,2.613,6.269,4.676,7.969,5.277c-0.451-0.009-0.902-0.017-1.354-0.021
		c-23.086,0-41.801,5.848-41.803,13.063c-0.002,7.215,18.713,13.064,41.8,13.064c0.001,0,0.002,0,0.003,0
		c6.407-0.003,12.726-0.466,18.469-1.354c3.569,1.428,7.586,2.179,11.672,2.182c2.907-0.002,5.79-0.383,8.508-1.125v31.133
		c0,3.663,2.243,6.611,5.031,6.611h49.158h14.162c2.788,0,5.033-2.949,5.033-6.611v-40.416h4.125l-0.043-0.451
		c6.683,3.22,15.064,6.02,23.887,7.98c10.143,2.241,20.179,3.221,28.15,2.748c4.256,5.401,12.226,8.743,20.869,8.752
		c13.264,0,24.017-7.719,24.018-17.242c0.001-9.523-10.751-17.243-24.015-17.244c-0.001,0-0.002,0-0.003,0
		c-7.025,0.002-13.697,2.212-18.258,6.049c-6.861-3.464-15.729-6.491-25.111-8.572c-7.194-1.587-14.386-2.552-20.85-2.795
		c0.535-1.12,1.063-2.332,1.557-3.572c2.133-5.363,3.137-9.999,2.244-10.355c-0.894-0.355-3.348,3.705-5.48,9.068
		c-0.656,1.65-1.231,3.3-1.67,4.795c-2.634,0.002-5.076,0.138-7.281,0.404l-2.139-21.994V742.721c0-3.663-2.245-6.611-5.033-6.611
		h-14.162H221.264L221.264,736.11z M63.623,877.203c-13.263,0-24.015,7.72-24.016,17.242c0.001,9.522,10.752,17.242,24.016,17.242
		c7.29-0.006,14.181-2.389,18.732-6.477c2.884,7.467,12.352,12.635,23.145,12.635c13.263,0,24.015-7.72,24.016-17.242
		c-0.001-9.522-10.752-17.242-24.016-17.242c-7.29,0.006-14.181,2.389-18.732,6.477C83.883,882.371,74.416,877.203,63.623,877.203z"
		/>
	<g>
		<g shape-rendering="auto" image-rendering="auto" color-rendering="auto" color-interpolation="sRGB">
			<path style="fill:#0B8480;" d="M415.065,908.327l-8.299,2.309c0.697,2.507-0.415,5.131-4.268,7.137s-9.511,2.102-13.506,0.197
				s-5.279-4.596-4.725-7.086l-8.406-1.869c-1.527,6.863,2.764,13.553,9.424,16.729s14.669,3.064,21.189-0.33
				C412.995,922.02,416.949,915.103,415.065,908.327z"/>
			<path style="fill:#0B8480;" d="M381.809,934.193l-8.297,2.307c0.697,2.507-0.415,5.133-4.268,7.139s-9.511,2.1-13.506,0.195
				s-5.279-4.594-4.725-7.084l-8.406-1.871c-1.527,6.863,2.764,13.553,9.424,16.729s14.669,3.064,21.189-0.33
				S383.693,940.968,381.809,934.193z"/>
			<path style="fill:#0B8480;" d="M346.092,962.521l-8.297,2.307c0.697,2.507-0.415,5.133-4.268,7.139s-9.513,2.1-13.508,0.195
				s-5.277-4.596-4.723-7.086l-8.406-1.869c-1.527,6.863,2.764,13.553,9.424,16.729s14.669,3.064,21.189-0.33
				S347.976,969.297,346.092,962.521z"/>
			<path style="fill:#0B8480;" d="M331.313,914.486l-8.297,2.309c0.697,2.507-0.415,5.131-4.268,7.137s-9.513,2.102-13.508,0.197
				s-5.277-4.596-4.723-7.086l-8.406-1.869c-1.527,6.863,2.764,13.553,9.424,16.729s14.667,3.064,21.188-0.33
				S333.197,921.261,331.313,914.486z"/>
			<path style="fill:#0B8480;" d="M285.742,939.118l-8.297,2.309c0.697,2.507-0.415,5.131-4.268,7.137s-9.513,2.102-13.508,0.197
				s-5.277-4.596-4.723-7.086l-8.406-1.871c-1.527,6.863,2.762,13.555,9.422,16.73s14.669,3.064,21.189-0.33
				S287.626,945.894,285.742,939.118z"/>
			<path style="fill:#0B8480;" d="M285.742,980.993l-8.297,2.309c0.697,2.507-0.415,5.133-4.268,7.139s-9.513,2.1-13.508,0.195
				s-5.277-4.596-4.723-7.086l-8.406-1.869c-1.527,6.863,2.762,13.553,9.422,16.729s14.669,3.064,21.189-0.33
				S287.626,987.769,285.742,980.993z"/>
			<path style="fill:#0B8480;" d="M101.383,913.255l8.297,2.307c-0.697,2.507,0.415,5.133,4.268,7.139
				c3.853,2.005,9.513,2.1,13.508,0.195c3.995-1.905,5.277-4.594,4.723-7.084l8.406-1.871c1.527,6.863-2.764,13.553-9.424,16.729
				c-6.66,3.175-14.667,3.064-21.188-0.33C103.452,926.945,99.499,920.031,101.383,913.255L101.383,913.255z"/>
			<path style="fill:#0B8480;" d="M134.637,939.118l8.297,2.309c-0.697,2.507,0.415,5.131,4.268,7.137
				c3.853,2.005,9.513,2.102,13.508,0.197c3.995-1.905,5.277-4.596,4.723-7.086l8.406-1.871c1.527,6.863-2.762,13.555-9.422,16.73
				c-6.66,3.175-14.669,3.064-21.189-0.33S132.753,945.894,134.637,939.118z"/>
			<path style="fill:#0B8480;" d="M170.354,967.447l8.299,2.307c-0.697,2.507,0.415,5.133,4.268,7.139
				c3.853,2.005,9.511,2.1,13.506,0.195s5.277-4.594,4.723-7.084l8.408-1.871c1.527,6.863-2.764,13.553-9.424,16.729
				s-14.669,3.064-21.189-0.33S168.469,974.222,170.354,967.447z"/>
			<path style="fill:#0B8480;" d="M185.135,919.413l8.297,2.307c-0.697,2.507,0.415,5.133,4.268,7.139s9.511,2.1,13.506,0.195
				c3.995-1.905,5.279-4.594,4.725-7.084l8.406-1.871c1.527,6.863-2.764,13.553-9.424,16.729c-6.66,3.175-14.669,3.064-21.189-0.33
				C187.202,933.104,183.251,926.189,185.135,919.413L185.135,919.413z"/>
		</g>
		<path style="fill:#0B8480;" d="M225.584,754.039c1.365,0,2.463,1.831,2.463,4.106V822.6c0,2.275-1.099,4.106-2.463,4.106
			c-1.365,0-2.463-1.831-2.463-4.106v-64.454C223.12,755.871,224.219,754.039,225.584,754.039z"/>
		<path style="fill:#0B8480;" d="M241.894,785.016c1.365,0,2.463,1.304,2.463,2.923v45.883c0,1.619-1.099,2.923-2.463,2.923
			c-1.365,0-2.463-1.304-2.463-2.923v-45.883C239.431,786.32,240.529,785.016,241.894,785.016z"/>
		<path style="fill:#0B8480;" d="M252.381,826.731c1.365,0,2.463,1.304,2.463,2.923v45.883c0,1.619-1.099,2.923-2.463,2.923
			c-1.365,0-2.463-1.304-2.463-2.923v-45.883C249.918,828.035,251.016,826.731,252.381,826.731z"/>
		<path style="fill:#0B8480;" d="M256.859,744.186c1.365,0,2.463,1.831,2.463,4.106v64.454c0,2.275-1.099,4.106-2.463,4.106
			c-1.365,0-2.463-1.831-2.463-4.106v-64.454C254.396,746.018,255.494,744.186,256.859,744.186z"/>
		<path style="fill:#0B8480;" d="M275.941,812.657c0,10.383-1.08,18.8-2.411,18.8l0,0c-1.332,0-2.411-8.417-2.411-18.8
			s1.08-18.8,2.411-18.8S275.941,802.274,275.941,812.657L275.941,812.657z"/>
		<path style="fill:#0B8480;" d="M268.928,839.795c1.365,0,2.463,1.018,2.463,2.283v35.84c0,1.265-1.099,2.283-2.463,2.283
			c-1.365,0-2.463-1.018-2.463-2.283v-35.84C266.465,840.813,267.563,839.795,268.928,839.795z"/>
		<path style="fill:#0B8480;" d="M224.512,841.536c1.365,0,2.463,1.018,2.463,2.283v35.84c0,1.265-1.099,2.283-2.463,2.283
			s-2.463-1.018-2.463-2.283v-35.84C222.049,842.555,223.148,841.536,224.512,841.536z"/>
		<path style="fill:#0B8480;" d="M269.799,747.48c1.365,0,2.463,1.018,2.463,2.283v35.84c0,1.265-1.099,2.283-2.463,2.283
			c-1.365,0-2.463-1.018-2.463-2.283v-35.84C267.335,748.498,268.434,747.48,269.799,747.48z"/>
	</g>
	<g>
		<path style="fill:#38B4AF;" d="M175.696,865.231c2.133,5.363,4.586,9.423,5.48,9.067s-0.111-4.991-2.243-10.355
			c-2.133-5.363-4.586-9.423-5.48-9.067C172.558,855.232,173.563,859.868,175.696,865.231z"/>
		<path style="fill:#38B4AF;" d="M311.729,863.205c-1.521,5.568-2.002,10.287-1.074,10.54l0,0c0.928,0.253,2.913-4.055,4.434-9.622
			c1.521-5.568,2.002-10.287,1.074-10.54l0,0C315.236,853.329,313.25,857.637,311.729,863.205z"/>
	</g>
</g>
<g>
</g>
<g>
</g>
<g>
</g>
<g>
</g>
<g>
</g>
<g>
</g>
<g>
</g>
<g>
</g>
<g>
</g>
<g>
</g>
<g>
</g>
<g>
</g>
<g>
</g>
<g>
</g>
<g>
</g>
</svg>
