<?xml version="1.0" encoding="iso-8859-1"?>
<!-- Generator: Adobe Illustrator 19.0.0, SVG Export Plug-In . SVG Version: 6.00 Build 0)  -->
<svg version="1.1" id="Layer_1" xmlns="http://www.w3.org/2000/svg" xmlns:xlink="http://www.w3.org/1999/xlink" x="0px" y="0px"
	 viewBox="0 0 500 500" style="enable-background:new 0 0 500 500;" xml:space="preserve">
<g transform="translate(1060.82 -407.76)">
	<path style="fill:#FFFFFF;" d="M-560.82,657.76c0,138.071-111.929,250-250,250s-250-111.929-250-250s111.929-250,250-250
		S-560.82,519.689-560.82,657.76z"/>
	<g>
		<path style="fill:#86D0EF;" d="M-1050.82,657.76c0,132.548,107.452,240,240,240s240-107.452,240-240s-107.452-240-240-240
			S-1050.82,525.212-1050.82,657.76z"/>
		<g>
			<circle style="fill:#86D0EF;" cx="-810.819" cy="657.761" r="239.996"/>
		</g>
	</g>
	<g transform="translate(0 540.36)">
		<g shape-rendering="auto" image-rendering="auto" color-rendering="auto" color-interpolation="sRGB">
			<path style="fill:#F11A22;" d="M-708.989-99.639c-48.849,15.696-91.279,47.116-119.328,90.941
				c-48.147,75.226-44.838,173.042,8.273,249.748l9.822-6.863c-50.404-72.796-53.434-164.991-7.934-236.082
				c28.751-44.921,73.598-76.169,124.973-89.564C-698.349-94.38-703.621-97.109-708.989-99.639z"/>
			<path style="fill:#F09523;" d="M-693.31-91.531c-51.746,13.488-97.021,44.875-126.137,90.146
				c-46.143,71.746-42.969,165.044,7.924,238.189l9.389-6.588c-48.301-69.421-51.2-157.32-7.605-225.104
				c29.614-46.045,77.055-77.029,130.938-87.99C-683.535-85.931-688.374-88.818-693.31-91.531z"/>
			<path style="fill:#FFCB05;" d="M-678.523-82.678c-54.111,10.763-101.924,41.689-131.801,87.971
				c-43.769,67.801-40.756,155.973,7.512,225.088l8.891-6.256c-45.812-65.598-48.561-148.64-7.219-212.682
				c30.096-46.621,79.615-76.909,135.266-85.076C-669.992-76.784-674.21-79.8-678.523-82.678z"/>
			<path style="fill:#92278F;" d="M-635.026-45.555c-58.457,0.289-112.585,27.487-143.516,74.084
				c-36.189,54.518-33.682,125.449,6.188,180.969l7.236-5.211c-37.854-52.714-40.106-119.346-5.98-170.756
				c30.602-46.101,85.584-72.354,144.428-69.975C-629.378-39.552-632.164-42.59-635.026-45.555z"/>
			<path style="fill:#C8D027;" d="M-666.046-73.754c-55.612,8.146-105.258,38.406-135.523,85.25
				c-41.563,64.329-38.701,147.989,7.133,213.563l8.438-5.943c-43.502-62.238-46.11-141.022-6.854-201.781
				c30.307-46.908,81.358-76.387,138.1-81.889C-658.423-67.735-662.19-70.803-666.046-73.754z"/>
			<path style="fill:#0095DA;" d="M-654.325-64.18c-57.19,5.511-108.828,35.097-139.588,82.475
				c-39.833,61.353-37.089,141.15,6.83,203.68l8.063-5.703c-41.687-59.353-44.182-134.466-6.57-192.398
				c30.72-47.316,83.69-76.042,141.836-78.768C-647.187-58.092-650.712-61.189-654.325-64.18z"/>
			<path style="fill:#2D3192;" d="M-644.042-55.147c-57.907,2.748-110.858,31.284-141.695,78.604
				c-37.784,57.98-35.177,133.391,6.477,192.475l7.633-5.414c-39.539-56.084-41.905-127.047-6.236-181.781
				c30.535-46.856,84.26-74.423,142.523-74.627C-638.159-49.052-641.061-52.139-644.042-55.147z"/>
		</g>
		<path style="fill:#487B74;" d="M-578.95,56.613c-8.453,21.566-14.348,57.876-16.174,99.625
			c-7.21-6.676-15.14-10.169-23.182-10.211c-16.499,0.048-32.033,14.585-41.965,39.273c-8.861-11.691-19.431-17.975-30.268-17.994
			c-14.922,0.041-29.134,11.944-39.104,32.75l-8.117-27.451l-11.805,40.971l-26.879-90.908l-31.785,110.313l-12.244-41.412
			l-15.129,52.506l-162.357,23.23c0.839,1.124,1.687,2.241,2.545,3.35l151.813,1.189l-2.816,9.773l52.398-0.58l-2.479-8.379
			l23.479-0.26l6.49,0.051l-5.4,18.742l30.471-0.338c2.734,19.592,8.619,37.133,16.855,50.242
			c92.558-35.628,153.667-124.519,153.783-223.697C-570.919,96.872-573.652,76.444-578.95,56.613L-578.95,56.613z"/>
		<path style="fill:#83A6A4;" d="M-1050.048,132.803c4.794,74.289,43.79,142.148,105.563,183.693
			c5.664-8.007,9.709-18.768,11.576-30.797l20.707,0.205l-3.67-11.41l4.385-0.031l15.98,0.158l-1.684,5.102l35.605,0.354
			l-1.914-5.949l119.879-0.844l-125.316-16.064l-10.279-31.963l-8.318,25.209l-21.6-67.156l-18.266,55.344l-8.021-24.941
			l-5.516,16.711c-6.775-12.666-16.432-19.913-26.572-19.938c-7.364,0.011-14.547,3.837-20.568,10.955
			c-6.749-15.031-17.305-23.881-28.518-23.91c-5.465,0.026-10.853,2.152-15.752,6.217
			C-1034.066,168.501-1041.025,140.607-1050.048,132.803L-1050.048,132.803z"/>
	</g>
	<path style="fill:#193D3A;" d="M-709.273,748.967l-20.846,64.814h-1.527l-7.547-22.867l-7.354,22.867h-246.52
		c15.732,18.366,34.15,34.248,54.629,47.109h254.891c37.634-23.529,68.007-57.032,87.742-96.787
		c-1.984-0.589-3.995-0.895-6.01-0.916c-11.213,0.029-21.768,8.881-28.518,23.912c-6.021-7.118-13.203-10.944-20.566-10.957
		c-10.14,0.025-19.798,7.272-26.572,19.939l-5.516-16.713l-8.021,24.941L-709.273,748.967z"/>
	<g transform="translate(0 540.36)">
		<path style="fill:#FED401;" d="M-935.253-87.477c-17.172,10.333-32.982,22.776-47.061,37.039c0.082,1.754,0.29,3.5,0.623,5.225
			c3.972,19.842,23.277,32.706,43.119,28.734c19.842-3.971,32.708-23.276,28.736-43.118c0,0,0,0,0-0.001
			C-912.505-72.874-922.279-83.595-935.253-87.477z"/>
		<path style="fill:#FFFFFF;" d="M-948.622-33.449l30.986,19.197C-920.671-24.562-933.446-32.476-948.622-33.449z M-917.636-14.252
			l7.541-4.672l17.65,10.934c-1.632-5.502-6.123-10.501-12.621-14.049l18.418-11.41c-9.285,0.597-17.97,3.837-23.934,8.928
			c-4.021-1.465-8.391-2.372-12.85-2.664l9.623,5.961C-915.616-19.04-916.909-16.685-917.636-14.252z M-892.444-7.99l30.986-19.195
			C-876.633-26.213-889.409-18.299-892.444-7.99z"/>
		<path style="fill:#21663C;" d="M-672.234,244.912l-24.234,57.182l-9.336-21.467l-13.156,31.041h-232.277
			c40.836,29.623,89.969,45.624,140.418,45.73c65.529-0.034,128.194-26.861,173.449-74.254l-5.369-12.348l-9.002,21.238
			L-672.234,244.912z"/>
	</g>
</g>
<g>
</g>
<g>
</g>
<g>
</g>
<g>
</g>
<g>
</g>
<g>
</g>
<g>
</g>
<g>
</g>
<g>
</g>
<g>
</g>
<g>
</g>
<g>
</g>
<g>
</g>
<g>
</g>
<g>
</g>
</svg>
