<svg xmlns="http://www.w3.org/2000/svg" viewBox="0 0 90 90"><defs><style>.cls-1{fill:#bdc3c7;}.cls-2{fill:#93cfef;}.cls-3{fill:#464c63;}</style></defs><title>artboard</title><g id="artboard"><g id="label"><circle class="cls-1" cx="45" cy="45" r="45"/></g><g id="icon"><rect class="cls-2" x="31.56" y="31.56" width="26.89" height="26.89"/><path class="cls-3" d="M58.44,59.44H31.56a1,1,0,0,1-1-1V31.56a1,1,0,0,1,1-1H58.44a1,1,0,0,1,1,1V58.44A1,1,0,0,1,58.44,59.44Zm-25.89-2H57.44V32.56H32.56Z"/><path class="cls-3" d="M58.44,28.89a1,1,0,0,1-1-1V23a1,1,0,0,1,2,0v4.89A1,1,0,0,1,58.44,28.89Z"/><path class="cls-3" d="M67,32.56H62.11a1,1,0,0,1,0-2H67a1,1,0,1,1,0,2Z"/><path class="cls-3" d="M31.56,28.89a1,1,0,0,1-1-1V23a1,1,0,1,1,2,0v4.89A1,1,0,0,1,31.56,28.89Z"/><path class="cls-3" d="M27.89,32.56H23a1,1,0,1,1,0-2h4.89a1,1,0,1,1,0,2Z"/><path class="cls-3" d="M58.44,68a1,1,0,0,1-1-1V62.11a1,1,0,0,1,2,0V67A1,1,0,0,1,58.44,68Z"/><path class="cls-3" d="M67,59.44H62.11a1,1,0,1,1,0-2H67a1,1,0,0,1,0,2Z"/><path class="cls-3" d="M31.56,68a1,1,0,0,1-1-1V62.11a1,1,0,1,1,2,0V67A1,1,0,0,1,31.56,68Z"/><path class="cls-3" d="M27.89,59.44H23a1,1,0,0,1,0-2h4.89a1,1,0,1,1,0,2Z"/></g></g></svg>