<svg xmlns="http://www.w3.org/2000/svg" viewBox="0 0 90 90"><defs><style>.cls-1{fill:#bdc3c7;}.cls-2{fill:#f67742;}.cls-3{fill:#e1e1e6;}.cls-4{fill:#fabd6b;}.cls-5{fill:#464c63;}.cls-6{fill:#ccc;}.cls-7{fill:#d87070;}.cls-8{fill:#6b7082;}.cls-9{fill:#93cfef;}</style></defs><title>color-swatches</title><g id="color-swatches"><g id="label"><circle class="cls-1" cx="45" cy="45" r="45"/></g><g id="icon"><polyline class="cls-2" points="59.94 66.06 47.17 66.06 47.17 47.17 66.06 47.17 66.06 60.04"/><rect class="cls-3" x="46.22" y="46.22" width="20.78" height="20.78"/><polygon class="cls-4" points="49.07 49.07 64.15 49.07 64.15 60.48 60.41 64.15 49.07 64.15 49.07 49.07"/><path class="cls-5" d="M60.41,65.15H49.07a1,1,0,0,1-1-1V49.07a1,1,0,0,1,1-1H64.15a1,1,0,0,1,1,1V60.48a1,1,0,0,1-.3.71l-3.74,3.68A1,1,0,0,1,60.41,65.15Zm-10.34-2H60l3.15-3.1v-10H50.07Z"/><circle class="cls-6" cx="64.66" cy="64.71" r="0.48"/><path class="cls-5" d="M64.66,66.19a1.48,1.48,0,1,1,1.48-1.48A1.48,1.48,0,0,1,64.66,66.19Zm0-2a.52.52,0,1,0,.52.52A.52.52,0,0,0,64.66,64.19Z"/><polyline class="cls-2" points="36.71 66.06 23.94 66.06 23.94 47.17 42.83 47.17 42.83 60.04"/><rect class="cls-3" x="23" y="46.22" width="20.78" height="20.78"/><polygon class="cls-7" points="25.85 49.07 40.93 49.07 40.93 60.48 37.19 64.15 25.85 64.15 25.85 49.07"/><path class="cls-5" d="M37.19,65.15H25.85a1,1,0,0,1-1-1V49.07a1,1,0,0,1,1-1H40.93a1,1,0,0,1,1,1V60.48a1,1,0,0,1-.3.71l-3.74,3.68A1,1,0,0,1,37.19,65.15Zm-10.34-2h9.94l3.15-3.1v-10H26.85Z"/><circle class="cls-6" cx="41.44" cy="64.71" r="0.48"/><path class="cls-5" d="M41.44,66.19a1.48,1.48,0,1,1,1.48-1.48A1.48,1.48,0,0,1,41.44,66.19Zm0-2a.52.52,0,1,0,.52.52A.52.52,0,0,0,41.44,64.19Z"/><polyline class="cls-2" points="59.94 42.83 47.17 42.83 47.17 23.95 66.06 23.95 66.06 36.82"/><rect class="cls-3" x="46.22" y="23" width="20.78" height="20.78"/><polygon class="cls-8" points="49.07 25.84 64.15 25.84 64.15 37.25 60.41 40.93 49.07 40.93 49.07 25.84"/><path class="cls-5" d="M60.82,41.93H48.07V24.85H65.15V37.67Zm-10.75-2H60l3.15-3.1v-10H50.07Z"/><circle class="cls-6" cx="64.66" cy="41.49" r="0.48"/><path class="cls-5" d="M64.66,43a1.48,1.48,0,1,1,1.48-1.48A1.48,1.48,0,0,1,64.66,43Zm0-2a.52.52,0,1,0,.52.52A.52.52,0,0,0,64.66,41Z"/><polyline class="cls-2" points="36.71 42.83 23.94 42.83 23.94 23.95 42.83 23.95 42.83 36.82"/><rect class="cls-3" x="23" y="23" width="20.78" height="20.78"/><polygon class="cls-9" points="25.85 25.84 40.93 25.84 40.93 37.25 37.19 40.93 25.85 40.93 25.85 25.84"/><path class="cls-5" d="M37.19,41.93H25.85a1,1,0,0,1-1-1V25.85a1,1,0,0,1,1-1H40.93a1,1,0,0,1,1,1V37.25a1,1,0,0,1-.3.71l-3.74,3.68A1,1,0,0,1,37.19,41.93Zm-10.34-2h9.94l3.15-3.1v-10H26.85Z"/><circle class="cls-6" cx="41.44" cy="41.49" r="0.48"/><path class="cls-5" d="M41.44,43a1.48,1.48,0,1,1,1.48-1.48A1.48,1.48,0,0,1,41.44,43Zm0-2a.52.52,0,1,0,.52.52A.52.52,0,0,0,41.44,41Z"/></g></g></svg>