<svg xmlns="http://www.w3.org/2000/svg" viewBox="0 0 90 90"><defs><style>.cls-1{fill:#bdc3c7;}.cls-2{fill:#d87070;}.cls-3{fill:#464c63;}.cls-4{fill:#93cfef;}.cls-5{fill:#fabd6b;}.cls-6{fill:#fff;}</style></defs><title>color-palette</title><g id="color-palette"><g id="label"><circle class="cls-1" cx="45" cy="45" r="45"/></g><g id="icon"><path class="cls-2" d="M67.75,36.24,53.63,64.12a.77.77,0,0,1-1.37-.69l3.06-6-.71-.25,5.7-25.66a5.67,5.67,0,0,0-.45-3.71l-.39-.8-2-.88a.77.77,0,1,1,.6-1.41l6.65,2.85A6.53,6.53,0,0,1,67.75,36.24Z"/><path class="cls-3" d="M52.94,65.54A1.77,1.77,0,0,1,51.37,63l2.58-5.09a1,1,0,0,1-.31-1l5.7-25.66A4.67,4.67,0,0,0,59,28.2l-.23-.46L57,27a1.77,1.77,0,0,1-.93-2.32,1.79,1.79,0,0,1,2.31-.93l6.65,2.86a7.55,7.55,0,0,1,3.57,10.05v0L54.52,64.57a1.77,1.77,0,0,1-1.58,1Zm2.83-9a1,1,0,0,1,.4.37L66.85,35.8a5.54,5.54,0,0,0-2.6-7.36l-3.73-1.6.24.49a6.66,6.66,0,0,1,.53,4.36Zm12-20.26h0Z"/><path class="cls-4" d="M61.06,31.64l-6.89,31a.77.77,0,0,1-1.5-.33l1.32-6-.75-.08V28.51a5.7,5.7,0,0,0-1.09-3.35l-.51-.71L50,24.08a.77.77,0,0,1,.17-1.51l.17,0,5.71,1.31a6.53,6.53,0,0,1,5,7.75Z"/><path class="cls-3" d="M53.42,64.27a1.77,1.77,0,0,1-.38,0,1.76,1.76,0,0,1-1.34-2.11l1.09-4.93a1,1,0,0,1-.54-.89V28.51a4.71,4.71,0,0,0-.9-2.77l-.29-.4-1.27-.29a1.74,1.74,0,0,1-1.1-.78,1.77,1.77,0,0,1-.23-1.33,1.79,1.79,0,0,1,2.07-1.34l5.76,1.32A7.52,7.52,0,0,1,62,31.85h0l-6.89,31A1.78,1.78,0,0,1,53.42,64.27Zm.83-8.86a1,1,0,0,1,.45.26l5.38-24.24a5.52,5.52,0,0,0-4.23-6.56l-3.2-.73.32.44a6.69,6.69,0,0,1,1.28,3.94Zm6.81-23.77h0ZM50.23,23.1h0Z"/><path class="cls-5" d="M42.13,22H47.5A6.52,6.52,0,0,1,54,28.52v33A6.51,6.51,0,0,1,47.5,68H42.13a6.52,6.52,0,0,1-6.52-6.52v-33A6.52,6.52,0,0,1,42.13,22Z"/><path class="cls-3" d="M47.5,69H42.13a7.52,7.52,0,0,1-7.52-7.52v-33A7.52,7.52,0,0,1,42.13,21H47.5A7.52,7.52,0,0,1,55,28.51v33A7.52,7.52,0,0,1,47.5,69ZM42.13,23a5.52,5.52,0,0,0-5.52,5.51v33A5.52,5.52,0,0,0,42.13,67H47.5A5.52,5.52,0,0,0,53,61.48v-33A5.52,5.52,0,0,0,47.5,23Z"/><path class="cls-6" d="M35.61,56.18v5.3A6.53,6.53,0,0,0,42.13,68H47.5A6.52,6.52,0,0,0,54,61.48v-5.3Z"/><path class="cls-3" d="M47.5,69H42.13a7.52,7.52,0,0,1-7.52-7.52v-6.3H55v6.3A7.52,7.52,0,0,1,47.5,69ZM36.61,57.18v4.3A5.52,5.52,0,0,0,42.13,67H47.5A5.52,5.52,0,0,0,53,61.48v-4.3Z"/><circle class="cls-1" cx="44.8" cy="62.09" r="2"/></g></g></svg>