<svg xmlns="http://www.w3.org/2000/svg" viewBox="0 0 90 90"><defs><style>.cls-1{fill:#bdc3c7;}.cls-2{fill:#464c63;}.cls-3{fill:#e1e1e6;}.cls-4{fill:#93cfef;}.cls-5{fill:#6b7082;}.cls-6{fill:#fff;}</style></defs><title>copy-image</title><g id="copy-image"><g id="label"><circle class="cls-1" cx="45" cy="45" r="45"/></g><g id="icon"><rect class="cls-2" x="24.93" y="33.41" width="3.93" height="2"/><path class="cls-2" d="M22,36.76H20V34.41a1,1,0,0,1,1-1h2.36v2H22Z"/><rect class="cls-2" x="20" y="38.34" width="2" height="3.14"/><rect class="cls-2" x="20" y="43.05" width="2" height="3.15"/><rect class="cls-2" x="20" y="47.77" width="2" height="3.15"/><rect class="cls-2" x="20" y="52.49" width="2" height="3.14"/><rect class="cls-2" x="20" y="57.21" width="2" height="3.14"/><path class="cls-2" d="M23.36,65.28H21a1,1,0,0,1-1-1V61.92h2v1.36h1.36Z"/><rect class="cls-2" x="24.93" y="63.28" width="3.14" height="2"/><rect class="cls-2" x="29.65" y="63.28" width="3.14" height="2"/><rect class="cls-2" x="34.36" y="63.28" width="3.15" height="2"/><rect class="cls-2" x="39.08" y="63.28" width="3.14" height="2"/><rect class="cls-2" x="43.8" y="63.28" width="3.14" height="2"/><rect class="cls-2" x="48.52" y="63.28" width="3.14" height="2"/><rect class="cls-2" x="53.23" y="63.28" width="3.15" height="2"/><path class="cls-2" d="M60.31,65.28H58v-2h1.36V61.92h2v2.36A1,1,0,0,1,60.31,65.28Z"/><rect class="cls-2" x="59.31" y="56.42" width="2" height="3.93"/><rect class="cls-3" x="28.86" y="26.54" width="39.31" height="29.88"/><rect class="cls-4" x="31.22" y="28.9" width="34.59" height="25.16"/><polygon class="cls-5" points="50.88 54.06 31.22 54.06 31.22 46.99 37.51 40.7 50.88 54.06"/><polygon class="cls-5" points="50.88 54.06 44.59 47.77 58.74 33.62 65.81 40.7 65.81 54.06 50.88 54.06"/><circle class="cls-6" cx="44.59" cy="35.19" r="3.14"/><path class="cls-2" d="M69,58.25H28a1,1,0,0,1-1-1V25.72a1,1,0,0,1,1-1H69a1,1,0,0,1,1,1V57.25A1,1,0,0,1,69,58.25Zm-40-2H68V26.72H29Z"/><path class="cls-2" d="M65.81,55.06H31.22a1,1,0,0,1-1-1V28.9a1,1,0,0,1,1-1H65.81a1,1,0,0,1,1,1V54.06A1,1,0,0,1,65.81,55.06Zm-33.59-2H64.81V29.9H32.22Z"/><path class="cls-2" d="M50.88,55.06a1,1,0,0,1-.71-.29L37.51,42.11l-5.14,5.1A1,1,0,1,1,31,45.79L36.81,40a1,1,0,0,1,1.41,0L51.58,53.36a1,1,0,0,1-.71,1.71Z"/><path class="cls-2" d="M44.59,48.77a1,1,0,0,1-.71-1.71L58,32.91a1,1,0,0,1,1.41,0L66.52,40a1,1,0,0,1-1.41,1.41L58.74,35,45.29,48.48A1,1,0,0,1,44.59,48.77Z"/></g></g></svg>