<svg xmlns="http://www.w3.org/2000/svg" viewBox="0 0 90 90"><defs><style>.cls-1{fill:#bdc3c7;}.cls-2{fill:#464c63;}.cls-3{fill:#64a5da;}.cls-4{fill:#93cfef;}</style></defs><title>crop-tool</title><g id="crop-tool"><g id="label"><circle class="cls-1" cx="45" cy="45" r="45"/></g><g id="icon"><path class="cls-2" d="M33.1,57.9a1,1,0,0,1-.71-1.71l19-19a1,1,0,0,1,1.41,1.41l-19,19A1,1,0,0,1,33.1,57.9Z"/><path class="cls-2" d="M58.48,32.52a1,1,0,0,1-.71-1.71l9.52-9.52a1,1,0,0,1,1.41,1.41l-9.52,9.52A1,1,0,0,1,58.48,32.52Z"/><polygon class="cls-3" points="33.1 37.86 52.14 37.86 52.14 56.9 58.48 56.9 58.48 37.86 58.48 31.52 52.14 31.52 33.1 31.52 33.1 37.86"/><path class="cls-2" d="M58.48,57.9H52.14a1,1,0,0,1-1-1v-18h-18a1,1,0,0,1-1-1V31.52a1,1,0,0,1,1-1H58.48a1,1,0,0,1,1,1V56.9A1,1,0,0,1,58.48,57.9Zm-5.34-2h4.34V32.52H34.1v4.34h18a1,1,0,0,1,1,1Z"/><rect class="cls-3" x="22" y="31.52" width="4.76" height="6.35"/><path class="cls-2" d="M26.76,38.86H22a1,1,0,0,1-1-1V31.52a1,1,0,0,1,1-1h4.76a1,1,0,0,1,1,1v6.34A1,1,0,0,1,26.76,38.86Zm-3.76-2h2.76V32.52H23Z"/><rect class="cls-3" x="52.14" y="63.24" width="6.34" height="4.76"/><path class="cls-2" d="M58.48,69H52.14a1,1,0,0,1-1-1V63.24a1,1,0,0,1,1-1h6.34a1,1,0,0,1,1,1V68A1,1,0,0,1,58.48,69Zm-5.34-2h4.34V64.24H53.14Z"/><polygon class="cls-4" points="33.1 56.9 33.1 26.76 26.76 26.76 26.76 56.9 26.76 63.24 33.1 63.24 63.24 63.24 63.24 56.9 33.1 56.9"/><path class="cls-2" d="M63.24,64.24H26.76a1,1,0,0,1-1-1V26.76a1,1,0,0,1,1-1H33.1a1,1,0,0,1,1,1V55.9H63.24a1,1,0,0,1,1,1v6.34A1,1,0,0,1,63.24,64.24Zm-35.48-2H62.24V57.9H33.1a1,1,0,0,1-1-1V27.76H27.76Z"/></g></g></svg>