<svg xmlns="http://www.w3.org/2000/svg" viewBox="0 0 90 90"><defs><style>.cls-1{fill:#bdc3c7;}.cls-2{fill:#93cfef;}.cls-3{fill:#d87070;}.cls-4{fill:#464c63;}.cls-5{fill:#fabd6b;}</style></defs><title>cube</title><g id="cube"><g id="label"><circle class="cls-1" cx="45" cy="45" r="45"/></g><g id="icon"><polyline class="cls-2" points="45.2 42.52 45.2 69 66.72 58.24 66.72 31.76"/><polyline class="cls-3" points="44.8 42.52 44.8 69 23.29 58.24 23.29 31.76"/><path class="cls-4" d="M44.8,70a1,1,0,0,1-.45-.11L22.84,59.14a1,1,0,0,1-.55-.89V31.76a1,1,0,1,1,2,0V57.62L43.8,67.38V42.52a1,1,0,0,1,2,0V69a1,1,0,0,1-1,1Z"/><polyline class="cls-3" points="44.8 42.52 44.8 69 23.29 58.24 23.29 31.76"/><path class="cls-4" d="M44.8,70a1,1,0,0,1-.45-.11L22.84,59.14a1,1,0,0,1-.55-.89V31.76a1,1,0,1,1,2,0V57.62L43.8,67.38V42.52a1,1,0,0,1,2,0V69a1,1,0,0,1-1,1Z"/><polyline class="cls-5" points="44.8 42.52 23.29 31.76 43.98 21 66.32 31.76 44.8 42.52"/><path class="cls-4" d="M44.8,43.52a1,1,0,0,1-.45-.11L22.84,32.65a1,1,0,0,1,0-1.78L43.51,20.11a1,1,0,0,1,.9,0L66.75,30.86a1,1,0,0,1,0,1.8L45.25,43.41A1,1,0,0,1,44.8,43.52ZM25.49,31.74,44.8,41.4l19.25-9.62L44,22.12Z"/><path class="cls-4" d="M44.8,70a1,1,0,0,1-.45-1.89l21-10.48V31.76a1,1,0,1,1,2,0V58.24a1,1,0,0,1-.55.89L45.25,69.89A1,1,0,0,1,44.8,70Z"/></g></g></svg>