<svg xmlns="http://www.w3.org/2000/svg" viewBox="0 0 90 90"><defs><style>.cls-1{fill:#bdc3c7;}.cls-2{fill:#6b7082;}.cls-3{fill:#464c63;}.cls-4{fill:#e1e1e6;}.cls-5{fill:#fabd6b;}</style></defs><title>drawing-tablet</title><g id="drawing-tablet"><g id="label"><circle class="cls-1" cx="45" cy="45" r="45"/></g><g id="icon"><polyline class="cls-2" points="61.92 34.78 68 34.78 68 68 22 68 22 34.78 48.52 34.78"/><polygon class="cls-3" points="69 69 21 69 21 33.78 49.52 33.78 49.52 35.78 23 35.78 23 67 67 67 67 35.78 60.92 35.78 60.92 33.78 69 33.78 69 69"/><polygon class="cls-4" points="43.41 39.89 35.2 39.89 35.2 62.89 63.32 62.89 63.32 39.89 56.81 39.89 43.41 39.89"/><path class="cls-3" d="M63.32,63.89H35.21a1,1,0,0,1-1-1v-23a1,1,0,0,1,1-1H63.32a1,1,0,0,1,1,1v23A1,1,0,0,1,63.32,63.89Zm-27.11-2H62.32v-21H36.21Z"/><path class="cls-3" d="M28.39,53.67a2.28,2.28,0,1,1,2.28-2.28A2.28,2.28,0,0,1,28.39,53.67Zm0-2.56a.28.28,0,1,0,.28.28A.28.28,0,0,0,28.39,51.11Z"/><rect class="cls-3" x="27.39" y="38.89" width="2" height="7.11"/><rect class="cls-3" x="27.39" y="56.78" width="2" height="7.11"/><polyline class="cls-1" points="45.33 39.1 43.72 40.72 43.72 46.28 49.28 46.28 50.78 44.79"/><polygon class="cls-3" points="42.72 47.28 42.72 40.3 45.33 37.69 46.75 39.1 44.72 41.13 44.72 45.28 48.87 45.28 50.78 43.37 52.19 44.79 49.7 47.28 42.72 47.28"/><polyline class="cls-5" points="50.78 44.79 68 27.57 62.43 22 45.33 39.1"/><path class="cls-3" d="M50.78,45.79a1,1,0,0,1-.71-1.71L66.59,27.57l-4.15-4.15L46,39.81a1,1,0,0,1-1.41-1.41l17.1-17.1a1,1,0,0,1,1.41,0l5.57,5.57a1,1,0,0,1,0,1.41L51.48,45.5A1,1,0,0,1,50.78,45.79Z"/><rect class="cls-3" x="46.89" y="37.83" width="2" height="8.56" transform="translate(-15.75 46.18) rotate(-44.99)"/><path class="cls-3" d="M42.44,48.55a1,1,0,0,1-.71-1.71l.93-.93a1,1,0,1,1,1.41,1.42l-.93.93A1,1,0,0,1,42.44,48.55Z"/></g></g></svg>