<svg xmlns="http://www.w3.org/2000/svg" viewBox="0 0 90 90"><defs><style>.cls-1{fill:#bdc3c7;}.cls-2{fill:#e1e1e6;}.cls-3{fill:#fabd6b;}.cls-4{fill:#464c63;}.cls-5{fill:#fff;}</style></defs><title>eraser</title><g id="eraser"><g id="label"><circle class="cls-1" cx="45" cy="45" r="45"/></g><g id="icon"><path class="cls-2" d="M34.37,64.94,24.6,56a3.83,3.83,0,0,1,0-5.4l27-27a3.83,3.83,0,0,1,5.4,0l9.89,9.89a3.82,3.82,0,0,1,0,5.4l-26.76,26Z"/><polyline class="cls-3" points="46.63 59.16 31.34 43.87 44.86 30.35 60.15 45.64"/><path class="cls-4" d="M40.12,65.94H34.37a1,1,0,0,1-.68-.26l-9.77-8.94a4.84,4.84,0,0,1,0-6.85l27-27a4.83,4.83,0,0,1,6.81,0l9.89,9.89a4.82,4.82,0,0,1,0,6.81l-26.77,26A1,1,0,0,1,40.12,65.94Zm-5.36-2h5L66.19,38.19a2.83,2.83,0,0,0,0-4l-9.89-9.89a2.82,2.82,0,0,0-4,0l-27,27a2.83,2.83,0,0,0,0,4Z"/><rect class="cls-4" x="51.51" y="27.18" width="2" height="21.62" transform="translate(-11.49 48.26) rotate(-45)"/><rect class="cls-4" x="37.98" y="40.7" width="2" height="21.63" transform="translate(-25.01 42.66) rotate(-45)"/><path class="cls-4" d="M40,68.5H22a1,1,0,0,1,0-2H40a1,1,0,0,1,0,2Z"/><path class="cls-5" d="M37.4,44.72A1,1,0,0,1,36.69,43l6.64-6.64a1,1,0,0,1,1.41,1.41l-6.64,6.64A1,1,0,0,1,37.4,44.72Z"/></g></g></svg>