<svg xmlns="http://www.w3.org/2000/svg" viewBox="0 0 90 90"><defs><style>.cls-1{fill:#bdc3c7;}.cls-2{fill:#93cfef;}.cls-3{fill:#464c63;}.cls-4{fill:#e1e1e6;}.cls-5{fill:#6b7082;}</style></defs><title>eyedropper</title><g id="eyedropper"><g id="label"><circle class="cls-1" cx="45" cy="45" r="45"/></g><g id="icon"><path class="cls-2" d="M32.7,65.12c0-1.59-2.88-5.19-2.88-5.19s-2.89,3.6-2.89,5.19a2.89,2.89,0,0,0,5.77,0Z"/><path class="cls-3" d="M29.81,69a3.89,3.89,0,0,1-3.89-3.88c0-1.8,2.38-4.91,3.1-5.82a1,1,0,0,1,.78-.37h0a1,1,0,0,1,.78.38c.73.91,3.1,4,3.1,5.82A3.89,3.89,0,0,1,29.81,69Zm0-7.42a10,10,0,0,0-1.89,3.54,1.89,1.89,0,0,0,3.77,0A10,10,0,0,0,29.81,61.58Z"/><path class="cls-4" d="M46.73,30.79,31.86,45.65a5.33,5.33,0,0,0-1,6.12l-1.69,1.69a1.73,1.73,0,1,0,2.45,2.45l1.69-1.69a5.33,5.33,0,0,0,6.12-1L54.29,38.34"/><path class="cls-2" d="M39.17,38.34l-7.31,7.31a5.33,5.33,0,0,0-1,6.12l-1.69,1.69a1.73,1.73,0,1,0,2.45,2.45l1.69-1.69a5.33,5.33,0,0,0,6.12-1L54.29,38.34Z"/><path class="cls-3" d="M30.39,57.41a2.73,2.73,0,0,1-1.93-4.66l1.22-1.22a6.33,6.33,0,0,1,1.48-6.59L46,30.08a1,1,0,0,1,1.41,1.41L32.57,46.36a4.33,4.33,0,0,0-.81,5,1,1,0,0,1-.19,1.15l-1.69,1.69a.73.73,0,1,0,1,1l1.69-1.69a1,1,0,0,1,1.15-.19,4.34,4.34,0,0,0,5-.81L53.58,37.64A1,1,0,0,1,55,39.05L40.13,53.92a6.34,6.34,0,0,1-6.59,1.48l-1.21,1.22A2.73,2.73,0,0,1,30.39,57.41Z"/><path class="cls-5" d="M61.51,23.57a5.34,5.34,0,0,0-7.56,0l-4,4,7.56,7.56L52,29.49l-2-2-1.63-1.63a2.31,2.31,0,0,0-3.26,3.26L55.92,40a2.31,2.31,0,1,0,3.27-3.26l-1.63-1.63,4-4A5.34,5.34,0,0,0,61.51,23.57Z"/><path class="cls-3" d="M57.55,41.65a3.3,3.3,0,0,1-2.34-1L44.39,29.86a3.31,3.31,0,1,1,4.68-4.68l.93.92,3.25-3.25a6.35,6.35,0,1,1,9,9L59,35.08l.93.92a3.31,3.31,0,0,1-2.34,5.64ZM46.73,26.21a1.31,1.31,0,0,0-.93,2.23L56.62,39.27a1.31,1.31,0,1,0,1.85-1.85l-2.34-2.34h0L47.65,26.6A1.3,1.3,0,0,0,46.73,26.21Zm4.68,1.31,6.15,6.15,3.25-3.25a4.35,4.35,0,0,0,0-6.15h0a4.34,4.34,0,0,0-6.15,0Z"/></g></g></svg>