<svg xmlns="http://www.w3.org/2000/svg" viewBox="0 0 90 90"><defs><style>.cls-1{fill:#bdc3c7;}.cls-2{fill:#e1e1e6;}.cls-3{fill:#464c63;}</style></defs><title>grid-layout</title><g id="grid-layout"><g id="label"><circle class="cls-1" cx="45" cy="45" r="45"/></g><g id="icon"><rect class="cls-2" x="23" y="23" width="10.54" height="10.54"/><path class="cls-3" d="M33.54,34.54H23a1,1,0,0,1-1-1V23a1,1,0,0,1,1-1H33.54a1,1,0,0,1,1,1V33.54A1,1,0,0,1,33.54,34.54Zm-9.54-2h8.54V24H24Z"/><rect class="cls-2" x="39.73" y="23" width="10.54" height="10.54"/><path class="cls-3" d="M50.27,34.54H39.73a1,1,0,0,1-1-1V23a1,1,0,0,1,1-1H50.27a1,1,0,0,1,1,1V33.54A1,1,0,0,1,50.27,34.54Zm-9.54-2h8.54V24H40.73Z"/><rect class="cls-2" x="56.46" y="23" width="10.54" height="10.54"/><path class="cls-3" d="M67,34.54H56.46a1,1,0,0,1-1-1V23a1,1,0,0,1,1-1H67a1,1,0,0,1,1,1V33.54A1,1,0,0,1,67,34.54Zm-9.54-2H66V24H57.46Z"/><rect class="cls-2" x="23" y="39.73" width="10.54" height="10.54"/><path class="cls-3" d="M33.54,51.27H23a1,1,0,0,1-1-1V39.73a1,1,0,0,1,1-1H33.54a1,1,0,0,1,1,1V50.27A1,1,0,0,1,33.54,51.27Zm-9.54-2h8.54V40.73H24Z"/><rect class="cls-2" x="39.73" y="39.73" width="10.54" height="10.54"/><path class="cls-3" d="M50.27,51.27H39.73a1,1,0,0,1-1-1V39.73a1,1,0,0,1,1-1H50.27a1,1,0,0,1,1,1V50.27A1,1,0,0,1,50.27,51.27Zm-9.54-2h8.54V40.73H40.73Z"/><rect class="cls-2" x="56.46" y="39.73" width="10.54" height="10.54"/><path class="cls-3" d="M67,51.27H56.46a1,1,0,0,1-1-1V39.73a1,1,0,0,1,1-1H67a1,1,0,0,1,1,1V50.27A1,1,0,0,1,67,51.27Zm-9.54-2H66V40.73H57.46Z"/><rect class="cls-2" x="23" y="56.46" width="10.54" height="10.54"/><path class="cls-3" d="M33.54,68H23a1,1,0,0,1-1-1V56.46a1,1,0,0,1,1-1H33.54a1,1,0,0,1,1,1V67A1,1,0,0,1,33.54,68ZM24,66h8.54V57.46H24Z"/><rect class="cls-2" x="39.73" y="56.46" width="10.54" height="10.54"/><path class="cls-3" d="M50.27,68H39.73a1,1,0,0,1-1-1V56.46a1,1,0,0,1,1-1H50.27a1,1,0,0,1,1,1V67A1,1,0,0,1,50.27,68Zm-9.54-2h8.54V57.46H40.73Z"/><rect class="cls-2" x="56.46" y="56.46" width="10.54" height="10.54"/><path class="cls-3" d="M67,68H56.46a1,1,0,0,1-1-1V56.46a1,1,0,0,1,1-1H67a1,1,0,0,1,1,1V67A1,1,0,0,1,67,68Zm-9.54-2H66V57.46H57.46Z"/></g></g></svg>