<svg xmlns="http://www.w3.org/2000/svg" viewBox="0 0 90 90"><defs><style>.cls-1{fill:#bdc3c7;}.cls-2{fill:#6b7082;}.cls-3{fill:#464c63;}.cls-4{fill:#fabd6b;}.cls-5{fill:#93cfef;}.cls-6{fill:#d87070;}</style></defs><title>group-layers</title><g id="group-layers"><g id="label"><circle class="cls-1" cx="45" cy="45" r="45"/></g><g id="icon"><rect class="cls-2" x="23" y="23" width="4.89" height="4.89"/><path class="cls-3" d="M28.89,28.89H22V22h6.89Zm-4.89-2h2.89V24H24Z"/><rect class="cls-2" x="62.11" y="23" width="4.89" height="4.89"/><path class="cls-3" d="M68,28.89H61.11V22H68Zm-4.89-2H66V24H63.11Z"/><rect class="cls-2" x="23" y="62.11" width="4.89" height="4.89"/><path class="cls-3" d="M28.89,68H22V61.11h6.89ZM24,66h2.89V63.11H24Z"/><rect class="cls-2" x="62.11" y="62.11" width="4.89" height="4.89"/><path class="cls-3" d="M68,68H61.11V61.11H68Zm-4.89-2H66V63.11H63.11Z"/><rect class="cls-3" x="30.81" y="24.44" width="2.84" height="2"/><rect class="cls-3" x="35.92" y="24.44" width="2.84" height="2"/><rect class="cls-3" x="41.03" y="24.44" width="2.84" height="2"/><rect class="cls-3" x="46.14" y="24.44" width="2.84" height="2"/><rect class="cls-3" x="51.25" y="24.44" width="2.84" height="2"/><rect class="cls-3" x="56.36" y="24.44" width="2.84" height="2"/><rect class="cls-3" x="30.81" y="63.56" width="2.84" height="2"/><rect class="cls-3" x="35.92" y="63.56" width="2.84" height="2"/><rect class="cls-3" x="41.03" y="63.56" width="2.84" height="2"/><rect class="cls-3" x="46.14" y="63.56" width="2.84" height="2"/><rect class="cls-3" x="51.25" y="63.56" width="2.84" height="2"/><rect class="cls-3" x="56.36" y="63.56" width="2.84" height="2"/><rect class="cls-3" x="63.56" y="30.81" width="2" height="2.84"/><rect class="cls-3" x="63.56" y="35.92" width="2" height="2.84"/><rect class="cls-3" x="63.56" y="41.03" width="2" height="2.84"/><rect class="cls-3" x="63.56" y="46.14" width="2" height="2.84"/><rect class="cls-3" x="63.56" y="51.25" width="2" height="2.84"/><rect class="cls-3" x="63.56" y="56.36" width="2" height="2.84"/><rect class="cls-3" x="24.45" y="30.81" width="2" height="2.84"/><rect class="cls-3" x="24.45" y="35.92" width="2" height="2.84"/><rect class="cls-3" x="24.45" y="41.03" width="2" height="2.84"/><rect class="cls-3" x="24.45" y="46.14" width="2" height="2.84"/><rect class="cls-3" x="24.45" y="51.25" width="2" height="2.84"/><rect class="cls-3" x="24.45" y="56.36" width="2" height="2.84"/><polyline class="cls-4" points="39.42 48.75 31.61 52.5 45 58.93 58.39 52.5 50.58 48.75"/><path class="cls-3" d="M45,59.93a1,1,0,0,1-.43-.1L31.18,53.4a1,1,0,0,1,0-1.8L39,47.85a1,1,0,0,1,.87,1.8L33.92,52.5,45,57.82,56.08,52.5l-5.93-2.85a1,1,0,0,1,.87-1.8l7.81,3.75a1,1,0,0,1,0,1.8L45.43,59.83A1,1,0,0,1,45,59.93Z"/><polyline class="cls-5" points="39.42 41.25 31.61 45 45 51.43 58.39 45 50.58 41.25"/><path class="cls-3" d="M45,52.43a1,1,0,0,1-.43-.1L31.18,45.9a1,1,0,0,1,0-1.8L39,40.35a1,1,0,0,1,.87,1.8L33.92,45,45,50.32,56.08,45l-5.93-2.85a1,1,0,0,1,.87-1.8l7.81,3.75a1,1,0,0,1,0,1.8L45.43,52.33A1,1,0,0,1,45,52.43Z"/><polygon class="cls-6" points="45 43.93 58.39 37.5 45 31.07 31.61 37.5 45 43.93"/><path class="cls-3" d="M45,44.93a1,1,0,0,1-.43-.1L31.18,38.4a1,1,0,0,1,0-1.8l13.39-6.43a1,1,0,0,1,.87,0L58.82,36.6a1,1,0,0,1,0,1.8L45.43,44.83A1,1,0,0,1,45,44.93ZM33.92,37.5,45,42.82,56.08,37.5,45,32.18Z"/></g></g></svg>