<svg xmlns="http://www.w3.org/2000/svg" viewBox="0 0 90 90"><defs><style>.cls-1{fill:#bdc3c7;}.cls-2{fill:#6b7082;}.cls-3{fill:#414e5c;}.cls-4{fill:#e1e1e6;}.cls-5{fill:#464c63;}.cls-6{fill:#fabd6b;}.cls-7{fill:#fff;}</style></defs><title>idea-bulb</title><g id="idea-bulb"><g id="label"><circle class="cls-1" cx="45" cy="45" r="45"/></g><g id="icon"><path class="cls-2" d="M50.46,62.71A5.1,5.1,0,0,1,45,68c-3.18,0-5.62-2.11-5.62-5.29"/><path class="cls-3" d="M45,69c-3.84,0-6.62-2.65-6.62-6.29a1,1,0,0,1,2,0c0,2.53,1.9,4.29,4.62,4.29a4.08,4.08,0,0,0,4.42-4.29,1,1,0,0,1,2,0A6.08,6.08,0,0,1,45,69Z"/><polyline class="cls-4" points="50.46 52.59 50.46 62.71 39.42 62.71 39.42 52.59"/><path class="cls-3" d="M50.46,63.71h-11a1,1,0,0,1-1-1V52.59a1,1,0,0,1,2,0v9.12h9V52.59a1,1,0,0,1,2,0V62.71A1,1,0,0,1,50.46,63.71Z"/><path class="cls-5" d="M33.88,25.3a1,1,0,0,1-.71-.29l-2.3-2.3a1,1,0,0,1,1.41-1.41l2.3,2.3a1,1,0,0,1-.71,1.71Z"/><path class="cls-5" d="M56.88,25.3a1,1,0,0,1-.71-1.71l2.3-2.3a1,1,0,0,1,1.41,1.41L57.58,25A1,1,0,0,1,56.88,25.3Z"/><path class="cls-5" d="M31.57,52.9a1,1,0,0,1-.71-1.71l2.3-2.3a1,1,0,0,1,1.41,1.41l-2.3,2.3A1,1,0,0,1,31.57,52.9Z"/><path class="cls-5" d="M59.17,52.9a1,1,0,0,1-.71-.29l-2.3-2.3a1,1,0,0,1,1.41-1.41l2.3,2.3a1,1,0,0,1-.71,1.71Z"/><path class="cls-5" d="M27.46,37.95H23.78a1,1,0,0,1,0-2h3.68a1,1,0,1,1,0,2Z"/><path class="cls-5" d="M66.22,37.95H62.54a1,1,0,0,1,0-2h3.68a1,1,0,0,1,0,2Z"/><path class="cls-6" d="M55.13,27.19A13.84,13.84,0,0,0,35.51,46.71a9.59,9.59,0,0,0,3.9,2.74v4.06h11V49.45a11.24,11.24,0,0,0,4.34-2.74A13.8,13.8,0,0,0,55.13,27.19Z"/><path class="cls-5" d="M50.46,54.51h-11a1,1,0,0,1-1-1V50.12a11,11,0,0,1-3.56-2.66,14.59,14.59,0,0,1-4.33-10.52A14.85,14.85,0,0,1,55.84,26.49h0A14.21,14.21,0,0,1,60,37a15.23,15.23,0,0,1-4.5,10.44,12.07,12.07,0,0,1-4,2.72v3.38A1,1,0,0,1,50.46,54.51Zm-10-2h9V49.45a1,1,0,0,1,.66-.94,10.3,10.3,0,0,0,4-2.51A13.23,13.23,0,0,0,58,36.93a12.23,12.23,0,0,0-3.58-9h0A12.85,12.85,0,0,0,32.52,37a12.56,12.56,0,0,0,3.7,9,8.66,8.66,0,0,0,3.54,2.51,1,1,0,0,1,.66.94Z"/><path class="cls-7" d="M38.87,44.46a1,1,0,0,1-.71-.29,10.2,10.2,0,0,1,0-14.42,1,1,0,1,1,1.42,1.41,8.19,8.19,0,0,0,0,11.6,1,1,0,0,1-.71,1.71Z"/><path class="cls-5" d="M49.65,60.76H40.22a1,1,0,0,1,0-2h9.44a1,1,0,1,1,0,2Z"/><path class="cls-5" d="M49.65,57.59H40.22a1,1,0,0,1,0-2h9.44a1,1,0,1,1,0,2Z"/></g></g></svg>