<svg xmlns="http://www.w3.org/2000/svg" viewBox="0 0 90 90"><defs><style>.cls-1{fill:#bdc3c7;}.cls-2{fill:#fff;}.cls-3{fill:#a2a5b1;}.cls-4{fill:#6b7082;}.cls-5{fill:#464c63;}.cls-6{fill:#d87070;}.cls-7{fill:#e1e1e6;}.cls-8{fill:#fabd6b;}</style></defs><title>jpg-image</title><g id="jpg-image"><g id="label"><circle class="cls-1" cx="45" cy="45" r="45"/></g><g id="icon"><path class="cls-2" d="M52.38,22H28.54c-.66,0-1.2.54-1.2,1.58v43.6a1.24,1.24,0,0,0,1.2.82H61.46a1.24,1.24,0,0,0,1.2-.82V32.66c0-.57-.08-.76-.21-.89l-9.56-9.56A.72.72,0,0,0,52.38,22Z"/><path class="cls-3" d="M28.16,53.42C31.45,51,40.89,42.95,40.89,42.95l9.45,10.88Z"/><polyline class="cls-4" points="54.45 37.4 45.82 46.85 51.16 53.83 62.66 53.83 62.66 47.26"/><path class="cls-5" d="M61.46,69H28.54a2.15,2.15,0,0,1-2.2-1.82V23.58A2.3,2.3,0,0,1,28.54,21H52.38a1.71,1.71,0,0,1,1.22.5l9.56,9.56a2.06,2.06,0,0,1,.51,1.6V67.18A2.15,2.15,0,0,1,61.46,69ZM28.34,66.93a.39.39,0,0,0,.2.07H61.46a.39.39,0,0,0,.2-.07V32.66c0-.13,0-.22,0-.27L52.27,23H28.54c-.13,0-.2.3-.2.58Zm33.4-34.45h0Z"/><path class="cls-6" d="M61.46,68H28.54a1.2,1.2,0,0,1-1.2-1.2V54H62.66V66.8A1.2,1.2,0,0,1,61.46,68Z"/><path class="cls-5" d="M61.46,69H28.54a2.2,2.2,0,0,1-2.2-2.2V53H63.66V66.8A2.2,2.2,0,0,1,61.46,69ZM28.34,55V66.8a.2.2,0,0,0,.2.2H61.46a.2.2,0,0,0,.2-.2V55Z"/><path class="cls-5" d="M62.66,48.46a1,1,0,0,1-.78-.37L54.4,38.74l-7.84,8.58A1,1,0,1,1,45.08,46l8.62-9.45a.92.92,0,0,1,.77-.33,1,1,0,0,1,.75.37l8.21,10.27a1,1,0,0,1-.78,1.63Z"/><path class="cls-5" d="M27.34,55a1,1,0,0,1-.65-1.76l14-11.9a1,1,0,0,1,.75-.23h.69l9,11.47a1,1,0,0,1-1.57,1.23L41.19,43.59,29.64,53.76a1,1,0,0,1-.73.25L28,54.8A1,1,0,0,1,27.34,55Z"/><path class="cls-7" d="M52.8,23.14v8.71h8.71a.42.42,0,0,0,.3-.72l-8.29-8.29A.42.42,0,0,0,52.8,23.14Z"/><path class="cls-5" d="M61.52,32.86H51.8V23.14a1.42,1.42,0,0,1,2.43-1l8.29,8.29a1.42,1.42,0,0,1-1,2.43Zm-7.71-2h6.32L53.8,24.54Z"/><circle class="cls-8" cx="37.83" cy="32.27" r="3.75"/><path class="cls-5" d="M37.83,37a4.75,4.75,0,1,1,4.75-4.75A4.76,4.76,0,0,1,37.83,37Zm0-7.51a2.75,2.75,0,1,0,2.75,2.75A2.76,2.76,0,0,0,37.83,29.51Z"/><path class="cls-2" d="M40,62.72A2,2,0,0,1,37.8,64.9a2.55,2.55,0,0,1-2-1l.55-.89a2.11,2.11,0,0,0,1.47.76c.62,0,1-.38,1-1.09V59H36.4V58H40Z"/><path class="cls-2" d="M44.47,58c1.73,0,2.73.86,2.73,2.35s-1,2.46-2.73,2.46H42.88v2.08H41.72V58Zm-1.58,3.77h1.54c1.06,0,1.66-.45,1.66-1.39S45.48,59,44.42,59H42.88Z"/><path class="cls-2" d="M54.19,61.46V64a4.68,4.68,0,0,1-2.68.9,3.49,3.49,0,1,1,.07-7,4.14,4.14,0,0,1,2.65,1l-.66.86a3,3,0,0,0-2-.79,2.45,2.45,0,1,0,0,4.9,3.22,3.22,0,0,0,1.59-.47V61.46Z"/></g></g></svg>