<svg xmlns="http://www.w3.org/2000/svg" viewBox="0 0 90 90"><defs><style>.cls-1{fill:#bdc3c7;}.cls-2{fill:#fabd6b;}.cls-3{fill:#464c63;}.cls-4{fill:#93cfef;}.cls-5{fill:#e1e1e6;}</style></defs><title>layers</title><g id="layers"><g id="label"><circle class="cls-1" cx="45" cy="45" r="45"/></g><g id="icon"><polyline class="cls-2" points="35.78 51.19 22.89 57.38 45 68 67.11 57.38 54.21 51.19"/><path class="cls-3" d="M45,69a1,1,0,0,1-.43-.1L22.45,58.29a1,1,0,0,1,0-1.8l12.9-6.19a1,1,0,0,1,.87,1.8l-11,5.29L45,66.89l19.8-9.51-11-5.29a1,1,0,1,1,.87-1.8l12.9,6.19a1,1,0,0,1,0,1.8L45.43,68.9A1,1,0,0,1,45,69Z"/><polyline class="cls-4" points="35.78 38.81 22.89 45 45 55.62 67.11 45 54.21 38.81"/><path class="cls-3" d="M45,56.62a1,1,0,0,1-.43-.1L22.45,45.9a1,1,0,0,1,0-1.8l12.9-6.19a1,1,0,0,1,.87,1.8L25.2,45,45,54.51,64.8,45l-11-5.29a1,1,0,0,1,.87-1.8l12.9,6.19a1,1,0,0,1,0,1.8L45.43,56.52A1,1,0,0,1,45,56.62Z"/><polygon class="cls-5" points="45 43.23 67.11 32.62 45 22 22.89 32.62 45 43.23"/><path class="cls-3" d="M45,44.23a1,1,0,0,1-.43-.1L22.45,33.52a1,1,0,0,1,0-1.8L44.57,21.1a1,1,0,0,1,.87,0L67.55,31.71a1,1,0,0,1,0,1.8L45.43,44.13A1,1,0,0,1,45,44.23ZM25.2,32.62,45,42.12l19.8-9.51L45,23.11Z"/></g></g></svg>