<svg xmlns="http://www.w3.org/2000/svg" viewBox="0 0 90 90"><defs><style>.cls-1{fill:#bdc3c7;}.cls-2{fill:#93cfef;}.cls-3{fill:#6b7082;}.cls-4{fill:#d87070;}.cls-5{fill:#fabd6b;}.cls-6{fill:#464c63;}</style></defs><title>layout</title><g id="layout"><g id="label"><circle class="cls-1" cx="45" cy="45" r="45"/></g><g id="icon"><rect class="cls-2" x="22" y="22" width="46" height="9.58"/><rect class="cls-3" x="22" y="57.78" width="46" height="10.22"/><rect class="cls-4" x="22" y="31.58" width="23" height="26.19"/><rect class="cls-5" x="45" y="31.58" width="23" height="26.19"/><path class="cls-6" d="M68,69H22a1,1,0,0,1-1-1V22a1,1,0,0,1,1-1H68a1,1,0,0,1,1,1V68A1,1,0,0,1,68,69ZM23,67H67V23H23Z"/><rect class="cls-6" x="22" y="56.78" width="46" height="2"/><rect class="cls-6" x="22" y="29.94" width="46" height="2"/><rect class="cls-6" x="44" y="31.58" width="2" height="26.83"/></g></g></svg>