<svg xmlns="http://www.w3.org/2000/svg" viewBox="0 0 90 90"><defs><style>.cls-1{fill:#bdc3c7;}.cls-2{fill:#fabd6b;}.cls-3{fill:#e1e1e6;}.cls-4{fill:#464c63;}</style></defs><title>magic-wand-tool</title><g id="magic-wand-tool"><g id="label"><circle class="cls-1" cx="45" cy="45" r="45"/></g><g id="icon"><rect class="cls-2" x="48.25" y="36.6" width="8.76" height="1.7" transform="translate(-11.06 48.18) rotate(-45)"/><rect class="cls-3" x="18.81" y="53.12" width="34.58" height="1.7" transform="translate(-27.59 41.36) rotate(-45.02)"/><path class="cls-4" d="M24.48,69a1,1,0,0,1-.71-.29l-2.4-2.4a1,1,0,0,1,0-1.41l33-33a1,1,0,0,1,1.41,0l2.4,2.4a1,1,0,0,1,0,1.41l-33,33A1,1,0,0,1,24.48,69Zm-1-3.4,1,1L56.11,35l-1-1Z"/><path class="cls-4" d="M50.13,43.34a1,1,0,0,1-.71-.29L47,40.65a1,1,0,0,1,1.41-1.41l2.4,2.4a1,1,0,0,1-.71,1.71Z"/><path class="cls-4" d="M55.19,28.94a1,1,0,0,1-1-1V22a1,1,0,0,1,2,0v5.94A1,1,0,0,1,55.19,28.94Z"/><path class="cls-4" d="M55.19,48.47a1,1,0,0,1-1-1V41.53a1,1,0,0,1,2,0v5.94A1,1,0,0,1,55.19,48.47Z"/><path class="cls-4" d="M67.92,35.73H62a1,1,0,0,1,0-2h5.94a1,1,0,0,1,0,2Z"/><path class="cls-4" d="M48.4,35.73H42.45a1,1,0,0,1,0-2H48.4a1,1,0,1,1,0,2Z"/><path class="cls-4" d="M60.28,30.64a1,1,0,0,1-.71-1.71l4.2-4.2a1,1,0,0,1,1.41,1.41L61,30.35A1,1,0,0,1,60.28,30.64Z"/><path class="cls-4" d="M64.48,45a1,1,0,0,1-.71-.29l-4.2-4.2A1,1,0,0,1,61,39.12l4.2,4.2A1,1,0,0,1,64.48,45Z"/><path class="cls-4" d="M50.09,30.64a1,1,0,0,1-.71-.29l-4.2-4.2a1,1,0,0,1,1.41-1.41l4.2,4.2a1,1,0,0,1-.71,1.71Z"/></g></g></svg>