<svg xmlns="http://www.w3.org/2000/svg" viewBox="0 0 90 90"><defs><style>.cls-1{fill:#bdc3c7;}.cls-2{fill:#fabd6b;}.cls-3{fill:#464c63;}.cls-4{fill:#6b7082;}.cls-5{fill:#e1e1e6;}</style></defs><title>marker-pen</title><g id="marker-pen"><g id="label"><circle class="cls-1" cx="45" cy="45" r="45"/></g><g id="icon"><path class="cls-2" d="M35.46,59.82l-4.22-4.22a1.06,1.06,0,0,0-1.49,0L21.31,64a1.05,1.05,0,0,0,.41,1.75L28,67.89a1.08,1.08,0,0,0,.33.05,1.06,1.06,0,0,0,.75-.31l6.33-6.33a1.06,1.06,0,0,0,0-1.49"/><path class="cls-3" d="M28.38,68.95a2.06,2.06,0,0,1-.65-.1l-6.33-2.11a2.05,2.05,0,0,1-.8-3.41L29,54.89a2.06,2.06,0,0,1,2.91,0l4.22,4.22a2.06,2.06,0,0,1,0,2.9l-6.33,6.33A2,2,0,0,1,28.38,68.95ZM30.53,56.3,22,64.74l6.35,2.2,6.39-6.34v-.08Z"/><path class="cls-4" d="M68.69,34l-11.6-11.6a1.05,1.05,0,0,0-1.49,0L26.06,51.9a1.05,1.05,0,0,0,0,1.49L37.66,65a1.05,1.05,0,0,0,.75.31,1,1,0,0,0,.75-.31L68.69,35.46a1.05,1.05,0,0,0,0-1.49"/><path class="cls-5" d="M60,25.31l-14.2,14.2a1.06,1.06,0,0,0,0,1.49l4.22,4.22a1.06,1.06,0,0,0,1.49,0L65.74,31"/><path class="cls-3" d="M50.8,46.52a2.06,2.06,0,0,1-1.45-.59l-4.22-4.22a2.06,2.06,0,0,1,0-2.91l14.2-14.2A1,1,0,0,1,60.74,26l-14.2,14.2,4.22,4.3L65,30.32a1,1,0,0,1,1.41,1.41l-14.2,14.2A2.05,2.05,0,0,1,50.8,46.52Z"/><path class="cls-3" d="M38.41,66.31a2,2,0,0,1-1.45-.6L25.35,54.1a2.05,2.05,0,0,1,0-2.9L54.89,21.66a2,2,0,0,1,1.45-.6h0a2,2,0,0,1,1.45.6l11.6,11.6a2.05,2.05,0,0,1,0,2.91L39.86,65.71A2,2,0,0,1,38.41,66.31Zm18-43.24L26.76,52.61,38.37,64.29,68,34.75v-.08Z"/></g></g></svg>