<svg xmlns="http://www.w3.org/2000/svg" viewBox="0 0 90 90"><defs><style>.cls-1{fill:#bdc3c7;}.cls-2{fill:#e1e1e6;}.cls-3{fill:#464c63;}</style></defs><title>mesh-tool</title><g id="mesh-tool"><g id="label"><circle class="cls-1" cx="45" cy="45" r="45"/></g><g id="icon"><rect class="cls-2" x="23" y="23" width="44" height="44"/><path class="cls-3" d="M67,68H23a1,1,0,0,1-1-1V23a1,1,0,0,1,1-1H67a1,1,0,0,1,1,1V67A1,1,0,0,1,67,68ZM24,66H66V24H24Z"/><path class="cls-2" d="M52.33,67c-11.1-14.67,8.15-24.34,0-44"/><path class="cls-3" d="M52.34,68a1,1,0,0,1-.8-.4c-6-7.9-3.62-14.48-1.12-21.44,2.38-6.63,4.84-13.49,1-22.78a1,1,0,0,1,1.85-.77c4.15,10,1.43,17.56-1,24.22s-4.5,12.52.83,19.56a1,1,0,0,1-.8,1.6Z"/><path class="cls-2" d="M37.67,67c-11.1-14.67,8.15-24.34,0-44"/><path class="cls-3" d="M37.67,68a1,1,0,0,1-.8-.4c-6-7.9-3.62-14.48-1.12-21.44,2.38-6.63,4.84-13.49,1-22.78a1,1,0,0,1,1.85-.77c4.15,10,1.44,17.56-1,24.22s-4.5,12.52.83,19.56a1,1,0,0,1-.8,1.6Z"/><path class="cls-2" d="M67,37.67c-16.7-12.9-30.42,8.83-44,0"/><path class="cls-3" d="M30.28,40.83a14,14,0,0,1-7.83-2.33,1,1,0,0,1,1.09-1.68c5.82,3.79,11.84,1.48,18.21-1,7.69-2.95,16.39-6.29,25.85,1a1,1,0,0,1-1.22,1.58c-8.57-6.62-16.37-3.63-23.92-.73C38.47,39.26,34.38,40.83,30.28,40.83Z"/><path class="cls-2" d="M67,52.33c-16.7-12.9-30.42,8.83-44,0"/><path class="cls-3" d="M30.28,55.5a14,14,0,0,1-7.83-2.33,1,1,0,0,1,1.09-1.68c5.82,3.79,11.84,1.48,18.21-1,7.68-2.95,16.39-6.29,25.85,1a1,1,0,0,1-1.22,1.58C57.82,46.51,50,49.5,42.47,52.39,38.47,53.93,34.38,55.5,30.28,55.5Z"/></g></g></svg>