<svg xmlns="http://www.w3.org/2000/svg" viewBox="0 0 90 90"><defs><style>.cls-1{fill:#bdc3c7;}.cls-2{fill:#e1e1e6;}.cls-3{fill:#d87070;}.cls-4{fill:#464c63;}.cls-5{fill:#93cfef;}.cls-6{fill:#a2a5b1;}.cls-7{fill:#fabd6b;}</style></defs><title>mobile-design</title><g id="mobile-design"><g id="label"><circle class="cls-1" cx="45" cy="45" r="45"/></g><g id="icon"><path class="cls-2" d="M55,22H34.39a3,3,0,0,0-3.1,3V65a3,3,0,0,0,3.1,3H55a3,3,0,0,0,3.1-3V25A3,3,0,0,0,55,22Z"/><rect class="cls-3" x="31.29" y="28.89" width="26.83" height="28.39"/><path class="cls-4" d="M58.07,29.89H31.35a1,1,0,0,1,0-2H58.07a1,1,0,0,1,0,2Z"/><path class="cls-4" d="M58.07,58.28H31.35a1,1,0,0,1,0-2H58.07a1,1,0,0,1,0,2Z"/><path class="cls-4" d="M55,69H34.39a4.05,4.05,0,0,1-4.1-4V25a4.05,4.05,0,0,1,4.1-4H55a4.05,4.05,0,0,1,4.1,4V65A4.05,4.05,0,0,1,55,69ZM34.39,23a2.05,2.05,0,0,0-2.1,2V65a2.05,2.05,0,0,0,2.1,2H55a2.05,2.05,0,0,0,2.1-2V25A2.05,2.05,0,0,0,55,23Z"/><path class="cls-4" d="M47.21,63.75h-5a1,1,0,0,1,0-2h5a1,1,0,0,1,0,2Z"/><path class="cls-4" d="M46,26.5h-2.5a1,1,0,0,1,0-2H46a1,1,0,0,1,0,2Z"/><path class="cls-5" d="M67.94,22.77a2.62,2.62,0,0,0-3.7,0l-11.7,11.7a4.61,4.61,0,0,1,3.7,3.71l11.7-11.7a2.62,2.62,0,0,0,0-3.7"/><path class="cls-4" d="M56.24,39.17a1,1,0,0,1-1-.82,3.61,3.61,0,0,0-2.9-2.9,1,1,0,0,1-.52-1.69l11.7-11.7a3.71,3.71,0,0,1,5.12,0h0a3.62,3.62,0,0,1,0,5.12l-11.7,11.7A1,1,0,0,1,56.24,39.17Zm-1.88-5.11a5.63,5.63,0,0,1,2.29,2.29L67.23,25.76a1.62,1.62,0,0,0,0-2.29h0a1.66,1.66,0,0,0-2.29,0Z"/><path class="cls-6" d="M52.54,34.47l-5.13,5.13,3.7,3.7,5.13-5.12a4.61,4.61,0,0,0-3.7-3.71"/><path class="cls-4" d="M51.12,44.71,46,39.59l6.21-6.21.52.1A5.61,5.61,0,0,1,57.22,38l.09.52Zm-2.29-5.12,2.29,2.29,4-4a3.56,3.56,0,0,0-.87-1.42,3.6,3.6,0,0,0-1.42-.87Z"/><path class="cls-7" d="M51.84,38.87a4.63,4.63,0,0,0-6.55,0c-1.65,1.64-1.61,6.31-1.58,7.23l0,.88.88,0h.53c1.54,0,5.27-.16,6.7-1.59a4.63,4.63,0,0,0,0-6.55"/><path class="cls-4" d="M45.14,48l-1.43,0a1,1,0,0,1-1-1l0-.88c0-1.78,0-6.13,1.87-8a5.63,5.63,0,0,1,8,0h0a5.63,5.63,0,0,1,0,8C50.91,47.76,47.21,48,45.14,48Zm-.43-2h.43c2.9,0,5.19-.5,6-1.29a3.63,3.63,0,0,0,0-5.13,3.72,3.72,0,0,0-5.13,0C45,40.55,44.65,43.49,44.71,46Z"/></g></g></svg>