<svg xmlns="http://www.w3.org/2000/svg" viewBox="0 0 90 90"><defs><style>.cls-1{fill:#bdc3c7;}.cls-2{fill:#6b7082;}.cls-3{fill:#fabd6b;}.cls-4{fill:#464c63;}.cls-5{fill:#e1e1e6;}</style></defs><title>notebook</title><g id="notebook"><g id="label"><circle class="cls-1" cx="45" cy="45" r="45"/></g><g id="icon"><path class="cls-2" d="M61.37,68H25.83V22H61.37a2.73,2.73,0,0,1,2.8,2.65v40.7A2.73,2.73,0,0,1,61.37,68Z"/><rect class="cls-3" x="26.47" y="38.59" width="37.05" height="12.81"/><rect class="cls-4" x="56.5" y="50.41" width="7.03" height="2"/><rect class="cls-4" x="26.47" y="50.41" width="24.92" height="2"/><rect class="cls-4" x="26.47" y="37.59" width="24.92" height="2"/><rect class="cls-4" x="56.5" y="37.59" width="7.03" height="2"/><polyline class="cls-5" points="56.5 22 56.5 68 51.39 68 51.39 22"/><path class="cls-4" d="M56.5,69H51.39a1,1,0,0,1-1-1V22a1,1,0,0,1,2,0V67H55.5V22a1,1,0,0,1,2,0V68A1,1,0,0,1,56.5,69Z"/><path class="cls-4" d="M61.37,69H25.83a1,1,0,0,1-1-1V22a1,1,0,0,1,1-1H61.37a3.73,3.73,0,0,1,3.8,3.65v40.7A3.73,3.73,0,0,1,61.37,69ZM26.83,67H61.37a1.73,1.73,0,0,0,1.8-1.65V24.65A1.73,1.73,0,0,0,61.37,23H26.83Z"/></g></g></svg>