<svg xmlns="http://www.w3.org/2000/svg" viewBox="0 0 90 90"><defs><style>.cls-1{fill:#bdc3c7;}.cls-2{fill:#c96868;}.cls-3{fill:#464c63;}.cls-4{fill:#e1e1e6;}.cls-5{fill:#d87070;}.cls-6{opacity:0.1;}</style></defs><title>painting-roller</title><g id="painting-roller"><g id="label"><circle class="cls-1" cx="45" cy="45" r="45"/></g><g id="icon"><path class="cls-2" d="M30.45,30.93V44.17a1.66,1.66,0,0,0,3.31,0V41.69a2.48,2.48,0,1,1,5,0h0a2.48,2.48,0,1,0,5,0V39.21a1.66,1.66,0,0,1,3.31,0h0a2.48,2.48,0,1,0,5,0h0a1.65,1.65,0,1,1,3.31,0v2.48a2.48,2.48,0,0,0,5,0V30.93Z"/><path class="cls-3" d="M46.34,67.73h-2V46.66a1,1,0,0,1,.47-.85L64.21,33.69V27.62a.66.66,0,0,0-.66-.65H61.9V25h1.66a2.66,2.66,0,0,1,2.66,2.65v6.62a1,1,0,0,1-.47.85L46.34,47.21Z"/><polygon class="cls-4" points="48.66 50.79 42.03 50.79 42.03 52.45 43.69 54.1 42.03 56.59 42.03 69 48.66 69 48.66 56.59 47 54.1 48.66 52.45 48.66 50.79"/><path class="cls-5" d="M30.45,21H60.24a1.65,1.65,0,0,1,1.65,1.65v6.62a1.65,1.65,0,0,1-1.65,1.65H30.45a1.65,1.65,0,0,1-1.65-1.65V22.66A1.66,1.66,0,0,1,30.45,21Z"/><path class="cls-3" d="M48.65,70H42a1,1,0,0,1-1-1V56.59A1,1,0,0,1,41.2,56l1.2-1.8-1.08-1.08a1,1,0,0,1-.29-.71V50.79a1,1,0,0,1,1-1h6.62a1,1,0,0,1,1,1v1.66a1,1,0,0,1-.29.71l-1.07,1.08,1.2,1.8a1,1,0,0,1,.17.55V69A1,1,0,0,1,48.65,70ZM43,68h4.62V56.89l-1.49-2.23a1,1,0,0,1,.12-1.26L47.65,52v-.24H43V52L44.4,53.4a1,1,0,0,1,.13,1.26L43,56.89Z"/><g class="cls-6"><rect x="30.45" y="30.97" width="29.8" height="2"/></g><path class="cls-3" d="M60.24,31.93H30.45a2.66,2.66,0,0,1-2.65-2.66V22.66A2.66,2.66,0,0,1,30.45,20h29.8a2.66,2.66,0,0,1,2.65,2.66v6.62A2.66,2.66,0,0,1,60.24,31.93ZM30.45,22a.66.66,0,0,0-.65.66v6.62a.66.66,0,0,0,.65.66h29.8a.66.66,0,0,0,.65-.66V22.66a.65.65,0,0,0-.65-.66Z"/></g></g></svg>