<svg xmlns="http://www.w3.org/2000/svg" viewBox="0 0 90 90"><defs><style>.cls-1{fill:#bdc3c7;}.cls-2{fill:#e1e1e6;}.cls-3{fill:#464c63;}.cls-4{fill:#64a5da;}.cls-5{fill:#bd5858;}.cls-6{fill:#e0a45c;}.cls-7{fill:#93cfef;}.cls-8{fill:#d87070;}.cls-9{fill:#fabd6b;}.cls-10{fill:#fff;}.cls-11{fill:#6b7082;}</style></defs><title>paintbox</title><g id="paintbox"><g id="label"><circle class="cls-1" cx="45" cy="45" r="45"/></g><g id="icon"><path class="cls-2" d="M22.94,22.87A3.5,3.5,0,0,0,22,25.29V64.71A3.1,3.1,0,0,0,24.88,68H65.13A3.1,3.1,0,0,0,68,64.71V25.29A3.1,3.1,0,0,0,65.13,22H24.88A2.68,2.68,0,0,0,22.94,22.87Z"/><path class="cls-3" d="M65.13,69H24.88A4.1,4.1,0,0,1,21,64.71V25.29a4.48,4.48,0,0,1,1.21-3.1h0A3.67,3.67,0,0,1,24.88,21H65.13A4.1,4.1,0,0,1,69,25.29V64.71A4.1,4.1,0,0,1,65.13,69ZM23.66,23.56A2.49,2.49,0,0,0,23,25.29V64.71A2.11,2.11,0,0,0,24.88,67H65.13A2.11,2.11,0,0,0,67,64.71V25.29A2.11,2.11,0,0,0,65.13,23H24.88A1.69,1.69,0,0,0,23.66,23.56Z"/><path class="cls-4" d="M26.33,40.58a.73.73,0,0,0-.33.6v7.5a.75.75,0,0,0,.75.75h7.5a.73.73,0,0,0,.6-.33.72.72,0,0,0,.15-.42v-7.5a.75.75,0,0,0-.75-.75h-7.5A.72.72,0,0,0,26.33,40.58Z"/><path class="cls-3" d="M34.25,50.43h-7.5A1.75,1.75,0,0,1,25,48.68v-7.5a1.74,1.74,0,0,1,.75-1.41,1.71,1.71,0,0,1,1-.34h7.5A1.75,1.75,0,0,1,36,41.18v7.5a1.79,1.79,0,0,1-1.75,1.75Zm-7.25-2h7v-7H27Zm-.67-7.85h0Z"/><rect class="cls-5" x="40.5" y="40.43" width="9" height="9" rx="0.75" ry="0.75"/><path class="cls-3" d="M48.75,50.43h-7.5a1.75,1.75,0,0,1-1.75-1.75v-7.5a1.75,1.75,0,0,1,1.75-1.75h7.5a1.75,1.75,0,0,1,1.75,1.75v7.5A1.75,1.75,0,0,1,48.75,50.43Zm-7.25-2h7v-7h-7Zm7.25-7h0Z"/><rect class="cls-6" x="55" y="40.43" width="9" height="9" rx="0.75" ry="0.75"/><path class="cls-3" d="M63.25,50.43h-7.5A1.75,1.75,0,0,1,54,48.68v-7.5a1.75,1.75,0,0,1,1.75-1.75h7.5A1.75,1.75,0,0,1,65,41.18v7.5A1.75,1.75,0,0,1,63.25,50.43Zm-7.25-2h7v-7H56Zm7.25-7h0Z"/><path class="cls-7" d="M26.33,26.58a.73.73,0,0,0-.33.6v7.5a.75.75,0,0,0,.75.75h7.5a.73.73,0,0,0,.6-.33.71.71,0,0,0,.15-.42v-7.5a.75.75,0,0,0-.75-.75h-7.5A.72.72,0,0,0,26.33,26.58Z"/><path class="cls-3" d="M34.25,36.43h-7.5A1.75,1.75,0,0,1,25,34.68v-7.5a1.74,1.74,0,0,1,.75-1.41,1.71,1.71,0,0,1,1-.34h7.5A1.75,1.75,0,0,1,36,27.18v7.5a1.79,1.79,0,0,1-1.75,1.75Zm-7.25-2h7v-7H27Zm-.67-7.85h0Z"/><rect class="cls-8" x="40.5" y="26.43" width="9" height="9" rx="0.75" ry="0.75"/><path class="cls-3" d="M48.75,36.43h-7.5a1.75,1.75,0,0,1-1.75-1.75v-7.5a1.75,1.75,0,0,1,1.75-1.75h7.5a1.75,1.75,0,0,1,1.75,1.75v7.5A1.75,1.75,0,0,1,48.75,36.43Zm-7.25-2h7v-7h-7Zm7.25-7h0Z"/><rect class="cls-9" x="55" y="26.43" width="9" height="9" rx="0.75" ry="0.75"/><path class="cls-3" d="M63.25,36.43h-7.5A1.75,1.75,0,0,1,54,34.68v-7.5a1.75,1.75,0,0,1,1.75-1.75h7.5A1.75,1.75,0,0,1,65,27.18v7.5A1.75,1.75,0,0,1,63.25,36.43Zm-7.25-2h7v-7H56Zm7.25-7h0Z"/><path class="cls-10" d="M64,58.43a2.91,2.91,0,0,0-2.91-2.91H42.73a5.11,5.11,0,0,1,0,5.81H61.09A2.91,2.91,0,0,0,64,58.43"/><path class="cls-3" d="M42.72,62.34a1,1,0,0,1-.82-1.57,4.11,4.11,0,0,0,0-4.68,1,1,0,0,1,.82-1.57H61.1A3.91,3.91,0,0,1,65,58.43h0a3.91,3.91,0,0,1-3.91,3.91H42.72Zm1.6-5.81a6.12,6.12,0,0,1,0,3.81H61.09a1.91,1.91,0,0,0,0-3.81H44.33ZM64,58.43h0Z"/><path class="cls-9" d="M42.73,55.52h-8v5.81h8a5.11,5.11,0,0,0,0-5.81"/><path class="cls-3" d="M43.25,62.34H33.68V54.52h9.57l.3.43a6.11,6.11,0,0,1,0,7Zm-7.57-2h6.48a4.11,4.11,0,0,0,0-3.81H35.68Z"/><path class="cls-11" d="M38.73,58.43a5.14,5.14,0,0,0-5.14-5.14c-2.58,0-6.21,3.69-6.91,4.43l-.67.71.67.71.41.42c1.21,1.21,4.26,4,6.5,4a5.14,5.14,0,0,0,5.14-5.14"/><path class="cls-3" d="M33.59,64.57c-2.53,0-5.61-2.7-7.21-4.31l-1.1-1.15a1,1,0,0,1,0-1.38l.67-.71c1.35-1.43,4.81-4.74,7.64-4.74h0a6.14,6.14,0,0,1,6.14,6.14h0a6.14,6.14,0,0,1-6.14,6.14Zm-6.21-6.14.41.42c2.29,2.3,4.52,3.72,5.8,3.72a4.14,4.14,0,0,0,0-8.28h0c-1.58,0-4.24,2.07-6.19,4.12Z"/></g></g></svg>