<svg xmlns="http://www.w3.org/2000/svg" viewBox="0 0 90 90"><defs><style>.cls-1{fill:#bdc3c7;}.cls-2{fill:#d87070;}.cls-3{fill:#464c63;}.cls-4{fill:#fabd6b;}</style></defs><title>paragraph-text</title><g id="paragraph-text"><g id="label"><circle class="cls-1" cx="45" cy="45" r="45"/></g><g id="icon"><rect class="cls-2" x="23" y="23" width="4.89" height="4.89"/><path class="cls-3" d="M28.89,28.89H22V22h6.89Zm-4.89-2h2.89V24H24Z"/><rect class="cls-2" x="62.11" y="23" width="4.89" height="4.89"/><path class="cls-3" d="M68,28.89H61.11V22H68Zm-4.89-2H66V24H63.11Z"/><rect class="cls-2" x="23" y="62.11" width="4.89" height="4.89"/><path class="cls-3" d="M28.89,68H22V61.11h6.89ZM24,66h2.89V63.11H24Z"/><rect class="cls-2" x="62.11" y="62.11" width="4.89" height="4.89"/><path class="cls-3" d="M68,68H61.11V61.11H68Zm-4.89-2H66V63.11H63.11Z"/><rect class="cls-3" x="30.81" y="24.44" width="2.84" height="2"/><rect class="cls-3" x="35.92" y="24.44" width="2.84" height="2"/><rect class="cls-3" x="41.03" y="24.44" width="2.84" height="2"/><rect class="cls-3" x="46.14" y="24.44" width="2.84" height="2"/><rect class="cls-3" x="51.24" y="24.44" width="2.84" height="2"/><rect class="cls-3" x="56.35" y="24.44" width="2.84" height="2"/><rect class="cls-3" x="30.81" y="63.56" width="2.84" height="2"/><rect class="cls-3" x="35.92" y="63.56" width="2.84" height="2"/><rect class="cls-3" x="41.03" y="63.56" width="2.84" height="2"/><rect class="cls-3" x="46.14" y="63.56" width="2.84" height="2"/><rect class="cls-3" x="51.24" y="63.56" width="2.84" height="2"/><rect class="cls-3" x="56.35" y="63.56" width="2.84" height="2"/><rect class="cls-3" x="63.56" y="30.81" width="2" height="2.84"/><rect class="cls-3" x="63.56" y="35.92" width="2" height="2.84"/><rect class="cls-3" x="63.56" y="41.03" width="2" height="2.84"/><rect class="cls-3" x="63.56" y="46.14" width="2" height="2.84"/><rect class="cls-3" x="63.56" y="51.25" width="2" height="2.84"/><rect class="cls-3" x="63.56" y="56.35" width="2" height="2.84"/><rect class="cls-3" x="24.44" y="30.81" width="2" height="2.84"/><rect class="cls-3" x="24.44" y="35.92" width="2" height="2.84"/><rect class="cls-3" x="24.44" y="41.03" width="2" height="2.84"/><rect class="cls-3" x="24.44" y="46.14" width="2" height="2.84"/><rect class="cls-3" x="24.44" y="51.25" width="2" height="2.84"/><rect class="cls-3" x="24.44" y="56.35" width="2" height="2.84"/><path class="cls-4" d="M32.57,32.57V38h2.94l2.85-2.55h5V53.11c0,1.19-3.24,2.16-3.24,2.16v2.16h9.73V55.27s-3.24-1-3.24-2.16V35.42h5L54.49,38h2.94V32.57Z"/><path class="cls-3" d="M49.87,58.43H40.13a1,1,0,0,1-1-1V55.27a1,1,0,0,1,.71-1A6.45,6.45,0,0,0,42.38,53V36.42H38.75l-2.57,2.3a1,1,0,0,1-.67.25H32.57a1,1,0,0,1-1-1V32.57a1,1,0,0,1,1-1H57.43a1,1,0,0,1,1,1V38a1,1,0,0,1-1,1H54.49a1,1,0,0,1-.67-.25l-2.57-2.3H47.62V53a6.45,6.45,0,0,0,2.53,1.28,1,1,0,0,1,.71,1v2.16A1,1,0,0,1,49.87,58.43Zm-8.73-2h7.73V56c-1.33-.48-3.24-1.43-3.24-2.88V35.42a1,1,0,0,1,1-1h5a1,1,0,0,1,.67.25L54.88,37h1.56V33.57H33.57V37h1.56l2.57-2.3a1,1,0,0,1,.67-.25h5a1,1,0,0,1,1,1V53.11c0,1.46-1.91,2.4-3.24,2.88Z"/></g></g></svg>