<svg xmlns="http://www.w3.org/2000/svg" viewBox="0 0 90 90"><defs><style>.cls-1{fill:#bdc3c7;}.cls-2{fill:#e1e1e6;}.cls-3{fill:#464c63;}.cls-4{fill:#414e5c;}.cls-5{fill:#fabd6b;}</style></defs><title>pen-tool</title><g id="pen-tool"><g id="label"><circle class="cls-1" cx="45" cy="45" r="45"/></g><g id="icon"><path class="cls-2" d="M45,21h0S41.63,35.57,32.67,39.65L40.34,58.3h9.32l7.67-18.65C47.72,35.64,45,21,45,21Z"/><path class="cls-3" d="M49.66,59.3H40.34a1,1,0,0,1-.92-.62L31.74,40a1,1,0,0,1,.51-1.29C40.66,34.92,44,20.92,44,20.77A1,1,0,0,1,45,20h0a1,1,0,0,1,1,.82C46,21,48.72,35,57.72,38.73a1,1,0,0,1,.54,1.3L50.59,58.68A1,1,0,0,1,49.66,59.3ZM41,57.3h8l7-17.14c-6.45-3.23-9.7-10.88-11.11-15.42-1.55,4.51-5,12.11-11,15.39Z"/><path class="cls-3" d="M45,40.48h0a1,1,0,0,1-1-1V21a1,1,0,0,1,1-1h0a1,1,0,0,1,1,1V39.48A1,1,0,0,1,45,40.48Z"/><circle class="cls-1" cx="45" cy="42.5" r="3.02"/><path class="cls-4" d="M45,46.53a4,4,0,1,1,4-4A4,4,0,0,1,45,46.53Zm0-6a2,2,0,1,0,2,2A2,2,0,0,0,45,40.48Z"/><rect class="cls-5" x="37.62" y="58.3" width="14.76" height="10.7"/><path class="cls-3" d="M52.38,70H37.62a1,1,0,0,1-1-1V58.3a1,1,0,0,1,1-1H52.38a1,1,0,0,1,1,1V69A1,1,0,0,1,52.38,70ZM38.62,68H51.38V59.3H38.62Z"/></g></g></svg>