<svg xmlns="http://www.w3.org/2000/svg" viewBox="0 0 90 90"><defs><style>.cls-1{fill:#bdc3c7;}.cls-2{fill:#fabd6b;}.cls-3{fill:#464c63;}.cls-4{fill:#d87070;}.cls-5{fill:#e1e1e6;}.cls-6{fill:#93cfef;}</style></defs><title>pencil-ruler</title><g id="pencil-ruler"><g id="pencil-ruler-2" data-name="pencil-ruler"><g id="label"><circle class="cls-1" cx="45" cy="45" r="45"/></g><g id="icon"><path class="cls-2" d="M23,32.93,32.93,23,67,57.07,57.07,67Zm9.61,0a2.17,2.17,0,1,0-2.17,2.17A2.17,2.17,0,0,0,32.61,32.88Z"/><path class="cls-3" d="M57.07,68a1,1,0,0,1-.71-.29L22.29,33.64a1,1,0,0,1,0-1.41l9.93-9.93a1,1,0,0,1,1.41,0L67.71,56.36a1,1,0,0,1,0,1.41l-9.93,9.93A1,1,0,0,1,57.07,68ZM24.42,32.93,57.07,65.58l8.51-8.52L32.93,24.42Zm6,3.12a3.17,3.17,0,1,1,3.17-3.17A3.18,3.18,0,0,1,30.44,36.05Zm0-4.35a1.17,1.17,0,1,0,1.17,1.17A1.17,1.17,0,0,0,30.44,31.71Z"/><path class="cls-3" d="M43.19,33.13a.82.82,0,0,0-1.15,0l-1.29,1.29a.82.82,0,1,0,1.15,1.15l1.29-1.29A.82.82,0,0,0,43.19,33.13Z"/><path class="cls-3" d="M36.43,26.36a.81.81,0,0,0-1.15,0L34,27.66a.82.82,0,0,0,1.15,1.15l1.29-1.29A.81.81,0,0,0,36.43,26.36Z"/><path class="cls-3" d="M50,39.9a.82.82,0,0,0-1.15,0l-1.29,1.29a.81.81,0,1,0,1.15,1.15L50,41.05A.82.82,0,0,0,50,39.9Z"/><path class="cls-3" d="M56.73,46.67a.82.82,0,0,0-1.15,0L54.29,48a.82.82,0,0,0,1.15,1.15l1.29-1.29A.81.81,0,0,0,56.73,46.67Z"/><path class="cls-3" d="M45.43,36.52l-2.07,2.06A.81.81,0,0,0,43.94,40a.8.8,0,0,0,.58-.24l2.07-2.06a.81.81,0,0,0-1.15-1.15Z"/><path class="cls-3" d="M38.66,29.75l-2.06,2.07a.81.81,0,0,0,0,1.15.8.8,0,0,0,.58.24.81.81,0,0,0,.58-.24l2.07-2.06a.82.82,0,0,0-1.15-1.15Z"/><path class="cls-3" d="M52.19,43.29l-2.07,2.06a.82.82,0,0,0,1.15,1.15l2.07-2.07a.81.81,0,0,0-1.15-1.15Z"/><path class="cls-3" d="M59,50.06,56.9,52.12a.81.81,0,0,0,0,1.15.8.8,0,0,0,.57.24.82.82,0,0,0,.58-.24l2.07-2.06A.82.82,0,0,0,59,50.06Z"/><path class="cls-3" d="M63.5,53.44a.81.81,0,0,0-1.15,0l-1.29,1.29a.82.82,0,1,0,1.15,1.15l1.29-1.29A.81.81,0,0,0,63.5,53.44Z"/><polyline class="cls-4" points="52.4 26.32 23 55.72 34.28 67 63.68 37.6"/><path class="cls-3" d="M34.29,68h0a1,1,0,0,1-.71-.29L22.29,56.42a1,1,0,0,1,0-1.41l29.4-29.4A1,1,0,0,1,53.1,27L24.42,55.72l9.87,9.87L63,36.9a1,1,0,0,1,1.41,1.41L35,67.71A1,1,0,0,1,34.29,68Z"/><polyline class="cls-5" points="61.13 24.34 52.4 26.32 63.68 37.6 65.67 28.87"/><path class="cls-3" d="M63.68,38.6a1,1,0,0,1-.71-.29L51.69,27a1,1,0,0,1,.49-1.68l8.73-2a1,1,0,1,1,.44,2l-7,1.58,8.72,8.72,1.58-7a1,1,0,0,1,2,.44l-2,8.74a1,1,0,0,1-1,.78Z"/><path class="cls-6" d="M61.13,24.33a6,6,0,0,0,4.54,4.53L67,23Z"/><path class="cls-3" d="M65.67,29.87l-.22,0a7,7,0,0,1-5.29-5.29,1,1,0,0,1,.75-1.2L66.78,22a1,1,0,0,1,1.2,1.2l-1.33,5.87A1,1,0,0,1,65.67,29.87Zm-3.24-4.8a5,5,0,0,0,2.51,2.51l.74-3.25Z"/></g></g></g></svg>