<svg xmlns="http://www.w3.org/2000/svg" viewBox="0 0 90 90"><defs><style>.cls-1{fill:#bdc3c7;}.cls-2{fill:#fff;}.cls-3{fill:#a2a5b1;}.cls-4{fill:#6b7082;}.cls-5{fill:#93cfef;}.cls-6{fill:#464c63;}.cls-7{fill:#e1e1e6;}.cls-8{fill:#fabd6b;}</style></defs><title>png-image</title><g id="png-image"><g id="label"><circle class="cls-1" cx="45" cy="45" r="45"/></g><g id="icon"><path class="cls-2" d="M52.38,22H28.54c-.66,0-1.2.54-1.2,1.58v43.6a1.24,1.24,0,0,0,1.2.82H61.46a1.24,1.24,0,0,0,1.2-.82V32.66c0-.57-.08-.76-.21-.89l-9.56-9.56A.72.72,0,0,0,52.38,22Z"/><path class="cls-3" d="M28.16,53.42C31.45,51,40.89,42.95,40.89,42.95l9.45,10.88Z"/><polyline class="cls-4" points="54.45 37.4 45.82 46.85 51.16 53.83 62.66 53.83 62.66 47.26"/><rect class="cls-5" x="27.34" y="53.83" width="35.32" height="14.17"/><rect class="cls-6" x="27.34" y="53.04" width="35.32" height="2"/><path class="cls-6" d="M62.66,48.46a1,1,0,0,1-.78-.37L54.4,38.74l-7.84,8.58A1,1,0,1,1,45.08,46l8.62-9.45a.92.92,0,0,1,.77-.33,1,1,0,0,1,.75.37l8.21,10.27a1,1,0,0,1-.78,1.63Z"/><path class="cls-6" d="M27.34,55a1,1,0,0,1-.65-1.76l14-11.9h0s0,0,0,0h0l.18-.11h.16a1,1,0,0,1,.36,0,1,1,0,0,1,.26.06h.09a1,1,0,0,1,.34.28l9,11.47a1,1,0,0,1-1.57,1.23L41.19,43.59,29.64,53.76a1,1,0,0,1-.73.25L28,54.8A1,1,0,0,1,27.34,55Z"/><path class="cls-7" d="M52.8,23.14v8.71h8.71a.42.42,0,0,0,.3-.72l-8.29-8.29A.42.42,0,0,0,52.8,23.14Z"/><path class="cls-6" d="M61.52,32.86H51.8V23.14a1.42,1.42,0,0,1,2.43-1l8.29,8.29a1.42,1.42,0,0,1-1,2.43Zm-7.72-2h6.32L53.8,24.54Z"/><circle class="cls-8" cx="37.53" cy="31.86" r="3.75"/><path class="cls-6" d="M37.53,36.61a4.75,4.75,0,1,1,4.75-4.75A4.76,4.76,0,0,1,37.53,36.61Zm0-7.51a2.75,2.75,0,1,0,2.75,2.75A2.76,2.76,0,0,0,37.53,29.1Z"/><path class="cls-2" d="M37.54,58c1.73,0,2.73.86,2.73,2.36s-1,2.46-2.73,2.46H36v2.08H34.79V58ZM36,61.73h1.54c1.06,0,1.66-.45,1.66-1.39S38.56,59,37.49,59H36Z"/><path class="cls-2" d="M46.36,64.85l-3.67-4.95v4.95H41.53V58h1.14l3.69,5V58h1.14v6.9Z"/><path class="cls-2" d="M55.17,61.46V64a4.67,4.67,0,0,1-2.68.9,3.49,3.49,0,1,1,.07-7,4.13,4.13,0,0,1,2.65,1l-.66.86a3,3,0,0,0-2-.79,2.45,2.45,0,1,0,0,4.9,3.21,3.21,0,0,0,1.59-.47V61.46Z"/><path class="cls-6" d="M61.46,69H28.54a2.15,2.15,0,0,1-2.2-1.82V23.58A2.3,2.3,0,0,1,28.54,21H52.38a1.71,1.71,0,0,1,1.22.5l9.56,9.56a2.06,2.06,0,0,1,.51,1.6V67.18A2.15,2.15,0,0,1,61.46,69ZM28.34,66.93a.39.39,0,0,0,.2.07H61.46a.39.39,0,0,0,.2-.07V32.66c0-.13,0-.22,0-.28L52.27,23H28.54c-.13,0-.2.3-.2.58Zm33.4-34.45h0Z"/></g></g></svg>