<svg xmlns="http://www.w3.org/2000/svg" viewBox="0 0 90 90"><defs><style>.cls-1{fill:#bdc3c7;}.cls-2{fill:#fff;}.cls-3{fill:#464c63;}.cls-4{fill:#6b7082;}.cls-5{fill:#e1e1e6;}.cls-6{fill:#fabd6b;}.cls-7{fill:#93cfef;}.cls-8{fill:#d87070;}</style></defs><title>printer</title><g id="printer"><g id="label"><circle class="cls-1" cx="45" cy="45" r="45"/></g><g id="icon"><polyline class="cls-2" points="30.95 32.35 30.95 22.13 59.06 22.13 59.06 32.35"/><polygon class="cls-3" points="60.06 33.35 58.06 33.35 58.06 23.13 31.95 23.13 31.95 33.35 29.95 33.35 29.95 21.13 60.06 21.13 60.06 33.35"/><polyline class="cls-4" points="29.92 56.37 22 56.37 22 33.37 68 33.37 68 56.37 60.08 56.37"/><polygon class="cls-3" points="69 57.37 59.08 57.37 59.08 55.37 67 55.37 67 34.37 23 34.37 23 55.37 30.92 55.37 30.92 57.37 21 57.37 21 32.37 69 32.37 69 57.37"/><rect class="cls-2" x="30.95" y="44.87" width="28.11" height="23"/><path class="cls-3" d="M60.06,68.87H29.95v-25H60.06Zm-28.11-2H58.06v-21H31.95Z"/><path class="cls-5" d="M45,56.37h5.69l-.34,1.26a5.66,5.66,0,0,1-4.16,4.21l-1.2.24Z"/><path class="cls-6" d="M43.74,61.73a5.7,5.7,0,0,1-4.22-4.16l-.24-1.2H45v5.7Z"/><path class="cls-7" d="M45,56.37V50.69l1.25.32a5.62,5.62,0,0,1,4.13,4.12l.31,1.25Z"/><path class="cls-8" d="M39.31,56.37l.34-1.26a5.66,5.66,0,0,1,4.15-4.2l1.2-.24v5.7Z"/><path class="cls-3" d="M45.28,62.95h-.33c-3.29-.18-6.72-2.76-6.51-6.62.18-3.29,2.73-6.71,6.62-6.51a6.72,6.72,0,0,1,6.51,6.51s0,.07,0,.11C51.39,59.63,49,62.95,45.28,62.95ZM44.74,51.8c-2.44,0-4.18,2.35-4.31,4.63-.14,2.54,2.28,4.39,4.62,4.51s4.36-2.24,4.51-4.57a4.71,4.71,0,0,0-4.62-4.57Z"/><rect class="cls-3" x="44" y="47.43" width="2" height="17.89"/><rect class="cls-3" x="36.06" y="55.37" width="17.89" height="2"/><rect class="cls-3" x="55.5" y="37.48" width="7.11" height="2"/></g></g></svg>