<svg xmlns="http://www.w3.org/2000/svg" viewBox="0 0 90 90"><defs><style>.cls-1{fill:#bdc3c7;}.cls-2{fill:#e1e1e6;}.cls-3{fill:#464c63;}.cls-4{fill:#93cfef;}.cls-5{fill:#64a5da;}.cls-6{fill:#e0a45c;}.cls-7{fill:#bd5858;}.cls-8{fill:#fff;}</style></defs><title>retina-ready-design</title><g id="retina-ready-design"><g id="label"><circle class="cls-1" cx="45" cy="45" r="45"/></g><g id="icon"><path class="cls-2" d="M66.85,22H23.15A1.17,1.17,0,0,0,22,23.19V68H68V23.19A1.17,1.17,0,0,0,66.85,22Z"/><path class="cls-3" d="M68,69H22a1,1,0,0,1-1-1V23.19A2.17,2.17,0,0,1,23.15,21h43.7A2.17,2.17,0,0,1,69,23.19V68A1,1,0,0,1,68,69ZM23,67H67V23.19a.17.17,0,0,0-.15-.19H23.15a.17.17,0,0,0-.15.19Z"/><rect class="cls-4" x="26.5" y="30.23" width="37" height="33.24"/><path class="cls-3" d="M63.5,64.47h-37a1,1,0,0,1-1-1V30.23a1,1,0,0,1,1-1h37a1,1,0,0,1,1,1V63.47A1,1,0,0,1,63.5,64.47Zm-36-2h35V31.23h-35Z"/><ellipse class="cls-5" cx="34.68" cy="25.71" rx="1.26" ry="1.3"/><ellipse class="cls-6" cx="30.63" cy="25.71" rx="1.26" ry="1.3"/><ellipse class="cls-7" cx="26.57" cy="25.71" rx="1.26" ry="1.3"/><path class="cls-8" d="M57.58,46.56a14.53,14.53,0,0,1-25.16,0v-.25a14.53,14.53,0,0,1,25.16,0Z"/><path class="cls-3" d="M45,54.82a15.62,15.62,0,0,1-13.44-7.74,1,1,0,0,1-.14-.51v-.25a1,1,0,0,1,.14-.51A15.62,15.62,0,0,1,45,38.06h0A15.61,15.61,0,0,1,58.44,45.8a1,1,0,0,1,.14.51v.25a1,1,0,0,1-.14.51A15.61,15.61,0,0,1,45,54.82ZM33.52,46.44A13.6,13.6,0,0,0,45,52.82h0a13.6,13.6,0,0,0,11.48-6.38A13.6,13.6,0,0,0,45,40.06h0A13.6,13.6,0,0,0,33.52,46.44Zm24.06.13h0Z"/><path class="cls-3" d="M39.46,46.43A5.54,5.54,0,1,0,45,40.9,5.54,5.54,0,0,0,39.46,46.43Zm2.43-1.73a1.62,1.62,0,1,1,1.62,1.62A1.62,1.62,0,0,1,41.9,44.71Z"/></g></g></svg>