<svg xmlns="http://www.w3.org/2000/svg" viewBox="0 0 90 90"><defs><style>.cls-1{fill:#bdc3c7;}.cls-2{fill:#e1e1e6;}.cls-3{fill:#464c63;}.cls-4{opacity:0.2;}.cls-5{fill:#f0f0f2;}.cls-6{fill:#d87070;}</style></defs><title>scissor</title><g id="scissor"><g id="label"><circle class="cls-1" cx="45" cy="45" r="45"/></g><g id="icon"><path class="cls-2" d="M50.08,57.16l4.61-4L27.58,22a11.82,11.82,0,0,0,1.78,14.44Z"/><path class="cls-3" d="M50.08,58.16a1,1,0,0,1-.71-.29L28.66,37.15a12.81,12.81,0,0,1-1.93-15.67,1,1,0,0,1,1.61-.14l27.1,31.13a1,1,0,0,1-.1,1.41l-4.61,4A1,1,0,0,1,50.08,58.16ZM27.8,23.77a10.81,10.81,0,0,0,2.27,12L50.12,55.79,53.28,53Z"/><g class="cls-4"><polygon points="47.88 44.25 42.13 50.63 46.5 54.94 52.19 49.31 47.88 44.25"/></g><path class="cls-5" d="M60.64,36.44A11.82,11.82,0,0,0,62.42,22l-27,31.12,4.55,4Z"/><path class="cls-3" d="M39.92,58.16a1,1,0,0,1-.66-.25l-4.55-4a1,1,0,0,1-.09-1.4l27-31.12A1,1,0,0,1,62.5,21a1,1,0,0,1,.77.48,12.81,12.81,0,0,1-1.93,15.67h0L40.63,57.87A1,1,0,0,1,39.92,58.16ZM36.78,53l3.1,2.75,20-20a10.81,10.81,0,0,0,2.27-12ZM60.64,36.45h0Z"/><circle class="cls-3" cx="45" cy="46.96" r="2"/><circle class="cls-6" cx="34" cy="60" r="8"/><path class="cls-3" d="M34,69a9,9,0,1,1,9-9A9,9,0,0,1,34,69Zm0-16a7,7,0,1,0,7,7A7,7,0,0,0,34,53Z"/><circle class="cls-1" cx="34" cy="60" r="4"/><path class="cls-3" d="M34,65a5,5,0,1,1,5-5A5,5,0,0,1,34,65Zm0-8a3,3,0,1,0,3,3A3,3,0,0,0,34,57Z"/><circle class="cls-6" cx="56" cy="60" r="8"/><path class="cls-3" d="M56,69a9,9,0,1,1,9-9A9,9,0,0,1,56,69Zm0-16a7,7,0,1,0,7,7A7,7,0,0,0,56,53Z"/><circle class="cls-1" cx="56" cy="60" r="4"/><path class="cls-3" d="M56,65a5,5,0,1,1,5-5A5,5,0,0,1,56,65Zm0-8a3,3,0,1,0,3,3A3,3,0,0,0,56,57Z"/></g></g></svg>