<svg xmlns="http://www.w3.org/2000/svg" viewBox="0 0 90 90"><defs><style>.cls-1{fill:#bdc3c7;}.cls-2{fill:#464c63;}.cls-3{fill:#6b7082;}.cls-4{fill:#e1e1e6;}.cls-5{fill:#fabd6b;}</style></defs><title>screen-infinity</title><g id="screen-infinity"><g id="label"><circle class="cls-1" cx="45" cy="45" r="45"/></g><g id="icon"><g id="screen"><rect class="cls-1" x="40.2" y="59.67" width="9.6" height="8"/><path class="cls-2" d="M49.8,68.67a1,1,0,0,1-1-1v-8a1,1,0,0,1,2,0v8A1,1,0,0,1,49.8,68.67Z"/><path class="cls-2" d="M40.2,68.67a1,1,0,0,1-1-1v-8a1,1,0,0,1,2,0v8A1,1,0,0,1,40.2,68.67Z"/><path class="cls-2" d="M56.2,68.67H33.8a1,1,0,0,1,0-2H56.2a1,1,0,0,1,0,2Z"/><rect class="cls-3" x="21" y="22.33" width="48" height="37.33" rx="3.2" ry="3.2"/><rect class="cls-4" x="21" y="54.33" width="47.09" height="4.36"/><path class="cls-2" d="M65.8,60.67H24.2a4.21,4.21,0,0,1-4.2-4.2V25.53a4.21,4.21,0,0,1,4.2-4.2H65.8a4.2,4.2,0,0,1,4.2,4.2V56.47A4.21,4.21,0,0,1,65.8,60.67ZM24.2,23.33a2.2,2.2,0,0,0-2.2,2.2V56.47a2.2,2.2,0,0,0,2.2,2.2H65.8a2.2,2.2,0,0,0,2.2-2.2V25.53a2.2,2.2,0,0,0-2.2-2.2Z"/><path class="cls-2" d="M69,55.33H21a1,1,0,0,1,0-2H69a1,1,0,0,1,0,2Z"/></g><g id="infinity"><path class="cls-5" d="M54.79,47.55c-4.11,0-7-3.1-9.79-6.36-2.75,3.26-5.67,6.36-9.78,6.36a7.88,7.88,0,1,1,0-15.77c4.12,0,7,3.06,9.78,6.3,2.74-3.24,5.67-6.3,9.79-6.3a7.88,7.88,0,0,1,0,15.77ZM46.3,39.64c2.62,3.12,5.15,5.91,8.48,5.91a5.88,5.88,0,0,0,0-11.77C51.44,33.78,48.91,36.54,46.3,39.64ZM35.22,33.78a5.88,5.88,0,1,0,0,11.77c3.33,0,5.86-2.8,8.48-5.91C41.09,36.54,38.56,33.78,35.22,33.78Z"/></g></g></g></svg>