<svg xmlns="http://www.w3.org/2000/svg" viewBox="0 0 90 90"><defs><style>.cls-1{fill:#bdc3c7;}.cls-2{fill:#e1e1e6;}.cls-3{fill:#464c63;}.cls-4{fill:#fff;}.cls-5{fill:#d87070;}.cls-6{fill:#fabd6b;}.cls-7{fill:#93cfef;}</style></defs><title>shapes</title><g id="shapes"><g id="label"><circle class="cls-1" cx="45" cy="45" r="45"/></g><g id="icon"><rect class="cls-2" x="23" y="23" width="44" height="44"/><path class="cls-3" d="M67,68H23a1,1,0,0,1-1-1V23a1,1,0,0,1,1-1H67a1,1,0,0,1,1,1V67A1,1,0,0,1,67,68ZM24,66H66V24H24Z"/><polygon class="cls-4" points="48.57 60.89 60.89 60.89 54.73 48.57 48.57 60.89"/><path class="cls-3" d="M60.89,61.89H48.57a1,1,0,0,1-.89-1.45l6.16-12.32a1,1,0,0,1,.89-.55h0a1,1,0,0,1,.89.55l6.16,12.32a1,1,0,0,1-.89,1.45Zm-10.7-2h9.08l-4.54-9.08Z"/><polygon class="cls-5" points="31.25 60.89 39.05 60.89 41.43 54.07 35.27 48.57 29.11 54.12 31.25 60.89"/><path class="cls-3" d="M39,61.89h-7.8a1,1,0,0,1-1-.7l-2.14-6.77a1,1,0,0,1,.28-1l6.16-5.55a1,1,0,0,1,1.34,0l6.16,5.5a1,1,0,0,1,.28,1.08L40,61.22A1,1,0,0,1,39,61.89Zm-7.06-2h6.35l1.93-5.52-5-4.46-5,4.52Z"/><path class="cls-6" d="M48.57,35.27a6.16,6.16,0,1,0,6.16-6.16,6.16,6.16,0,0,0-6.16,6.16"/><path class="cls-3" d="M54.73,42.43a7.16,7.16,0,1,1,7.16-7.16A7.17,7.17,0,0,1,54.73,42.43Zm0-12.32a5.16,5.16,0,1,0,5.16,5.16A5.17,5.17,0,0,0,54.73,30.11Z"/><rect class="cls-7" x="29.11" y="29.11" width="12.32" height="12.32"/><path class="cls-3" d="M41.43,42.43H29.11a1,1,0,0,1-1-1V29.11a1,1,0,0,1,1-1H41.43a1,1,0,0,1,1,1V41.43A1,1,0,0,1,41.43,42.43Zm-11.32-2H40.43V30.11H30.11Z"/></g></g></svg>