<svg xmlns="http://www.w3.org/2000/svg" viewBox="0 0 90 90"><defs><style>.cls-1{fill:#bdc3c7;}.cls-2{fill:#d87070;}.cls-3{fill:#464c63;}.cls-4{fill:#e1e1e6;}.cls-5{fill:#6b7082;}.cls-6{fill:#93cfef;}.cls-7{fill:#fabd6b;}</style></defs><title>smartphone-design</title><g id="smartphone-design"><g id="label"><circle class="cls-1" cx="45" cy="45" r="45"/></g><g id="icon"><path class="cls-2" d="M55.35,58.57H34.48a1,1,0,0,0-.82.4,1.06,1.06,0,0,0-.19.89l2.09,8.35a1,1,0,0,0,1,.79h16.7a1,1,0,0,0,1-.79l2.09-8.35a1.05,1.05,0,0,0-.19-.89,1,1,0,0,0-.82-.4"/><path class="cls-3" d="M53.26,70H36.57a2,2,0,0,1-2-1.55L32.49,60.1a2,2,0,0,1,2-2.54H55.35a2,2,0,0,1,2,2.54l-2.09,8.35A2,2,0,0,1,53.26,70ZM34.48,59.57l2,8.4,16.74,0,2.13-8.38,0-.05Z"/><rect class="cls-4" x="57.96" y="40.83" width="4.17" height="8.35"/><path class="cls-3" d="M62.13,50.17H58a1,1,0,0,1-1-1V40.83a1,1,0,0,1,1-1h4.17a1,1,0,0,1,1,1v8.35A1,1,0,0,1,62.13,50.17Zm-3.17-2h2.17V41.83H59Z"/><path class="cls-2" d="M34.48,31.43H55.35a1,1,0,0,0,.82-.4,1,1,0,0,0,.19-.9l-2.09-8.35a1,1,0,0,0-1-.79H36.57a1,1,0,0,0-1,.79l-2.09,8.35a1,1,0,0,0,.19.9,1,1,0,0,0,.82.4"/><path class="cls-3" d="M55.35,32.43H34.48a2,2,0,0,1-2-2.53l2.09-8.35a2,2,0,0,1,2-1.55h16.7a2,2,0,0,1,2,1.54l2.09,8.35a2,2,0,0,1-2,2.54ZM36.57,22l-2.13,8.38,0,.05H55.35l-2-8.4Z"/><rect class="cls-5" x="31.87" y="30.91" width="26.09" height="28.17"/><path class="cls-3" d="M58,60.09H31.87a1,1,0,0,1-1-1V30.91a1,1,0,0,1,1-1H58a1,1,0,0,1,1,1V59.09A1,1,0,0,1,58,60.09Zm-25.09-2H57V31.91H32.87Z"/><path class="cls-6" d="M50.54,36.88c-1.88,0-5,5.62-5,5.62l-1.88,3.12,2.5,2.5,3.12-1.88s5.62-3.13,5.62-5C54.91,40.63,51.16,36.88,50.54,36.88Z"/><path class="cls-3" d="M46.17,49.13a1,1,0,0,1-.71-.29L43,46.33a1,1,0,0,1-.15-1.22L44.68,42c1-1.82,3.63-6.11,5.85-6.11,1.16,0,5.38,4.22,5.38,5.37,0,2.22-4.29,4.85-6.14,5.87L46.68,49A1,1,0,0,1,46.17,49.13Zm-1.24-3.66,1.4,1.4,2.45-1.47c2.51-1.4,4.82-3.23,5.11-4a20.55,20.55,0,0,0-3.47-3.47c-.79.28-2.62,2.59-4,5.08Zm9-4Zm-3.68-3.67Z"/><path class="cls-7" d="M43,45c-3.81,0-3.26,4.37-6.25,4.37a2.91,2.91,0,0,1-1.88-.63,5.74,5.74,0,0,0,5.62,4.37c3.47,0,6.25-1.43,6.25-4.37A3.72,3.72,0,0,0,43,45"/><path class="cls-3" d="M40.54,54.12A6.69,6.69,0,0,1,33.94,49a1,1,0,0,1,1.65-1,2,2,0,0,0,1.2.36c.78,0,1.13-.42,1.85-1.53S40.47,44,43,44a4.7,4.7,0,0,1,4.75,4.75C47.79,52,44.94,54.12,40.54,54.12Zm-3.73-3.75a4.5,4.5,0,0,0,3.73,1.75c2.54,0,5.25-.89,5.25-3.37A2.72,2.72,0,0,0,43,46c-1.41,0-1.92.7-2.72,1.93S38.74,50.37,36.81,50.38Z"/></g></g></svg>