<svg xmlns="http://www.w3.org/2000/svg" viewBox="0 0 90 90"><defs><style>.cls-1{fill:#bdc3c7;}.cls-2{fill:#e1e1e6;}.cls-3{fill:#464c63;}.cls-4{fill:#93cfef;}.cls-5{fill:#fff;}.cls-6{fill:#6b7082;}</style></defs><title>spray-paint</title><g id="spray-paint"><g id="label"><circle class="cls-1" cx="45" cy="45" r="45"/></g><g id="icon"><path class="cls-2" d="M64.21,30.13H59.07a1,1,0,0,1,0-2h5.14a1,1,0,0,1,0,2Z"/><path class="cls-2" d="M56.65,25.84a1,1,0,0,1-.71-1.71l4.84-4.84a1,1,0,0,1,1.41,1.41l-4.84,4.84A1,1,0,0,1,56.65,25.84Z"/><path class="cls-2" d="M61.49,39.25a1,1,0,0,1-.71-.29l-4.84-4.84a1,1,0,0,1,1.41-1.41l4.84,4.84a1,1,0,0,1-.71,1.71Z"/><path class="cls-2" d="M33.79,41.81c0-4.71,4.21-8.52,9.4-8.52h1.88c5.2,0,9.4,3.81,9.4,8.52"/><path class="cls-3" d="M54.48,42.81a1,1,0,0,1-1-1c0-4.15-3.77-7.52-8.41-7.52H43.19c-4.63,0-8.4,3.37-8.4,7.52a1,1,0,0,1-2,0c0-5.25,4.67-9.52,10.4-9.52h1.88c5.74,0,10.41,4.27,10.41,9.52A1,1,0,0,1,54.48,42.81Z"/><rect class="cls-4" x="33.79" y="42.01" width="20.69" height="27.99"/><polyline class="cls-5" points="54.27 63.92 42.1 63.92 42.1 48.09 54.27 48.09"/><path class="cls-3" d="M54.27,64.92H42.1a1,1,0,0,1-1-1V48.09a1,1,0,0,1,1-1H54.27a1,1,0,0,1,0,2H43.1V62.92H54.27a1,1,0,0,1,0,2Z"/><path class="cls-3" d="M54.07,59H46a1,1,0,0,1,0-2h8.11a1,1,0,1,1,0,2Z"/><path class="cls-3" d="M54.07,55H49.2a1,1,0,0,1,0-2h4.87a1,1,0,0,1,0,2Z"/><path class="cls-3" d="M54.48,71H33.79a1,1,0,0,1-1-1V42a1,1,0,0,1,1-1H54.48a1,1,0,0,1,1,1V70A1,1,0,0,1,54.48,71ZM34.79,69H53.48V43H34.79Z"/><polyline class="cls-6" points="41.09 32.27 41.09 26.19 47.17 26.19 47.17 32.27"/><path class="cls-3" d="M47.17,33.28a1,1,0,0,1-1-1V27.19H42.09v5.08a1,1,0,0,1-2,0V26.19a1,1,0,0,1,1-1h6.08a1,1,0,0,1,1,1v6.08A1,1,0,0,1,47.17,33.28Z"/></g></g></svg>