<svg id="transform" xmlns="http://www.w3.org/2000/svg" viewBox="0 0 90 90"><defs><style>.cls-1{fill:#bdc3c7;}.cls-2{fill:#93cfef;}.cls-3{fill:#464c63;}.cls-4{fill:#e1e1e6;}.cls-5{fill:#d87070;}</style></defs><title>transform</title><g id="label"><circle class="cls-1" cx="45" cy="45" r="45"/></g><g id="icon"><rect class="cls-2" x="23" y="23" width="6.77" height="6.77"/><path class="cls-3" d="M29.77,30.77H23a1,1,0,0,1-1-1V23a1,1,0,0,1,1-1h6.77a1,1,0,0,1,1,1v6.77A1,1,0,0,1,29.77,30.77Zm-5.77-2h4.77V24H24Z"/><rect class="cls-4" x="41.62" y="23" width="6.77" height="6.77"/><path class="cls-3" d="M48.38,30.77H41.62a1,1,0,0,1-1-1V23a1,1,0,0,1,1-1h6.77a1,1,0,0,1,1,1v6.77A1,1,0,0,1,48.38,30.77Zm-5.77-2h4.77V24H42.62Z"/><rect class="cls-5" x="60.23" y="23" width="6.77" height="6.77"/><path class="cls-3" d="M67,30.77H60.23a1,1,0,0,1-1-1V23a1,1,0,0,1,1-1H67a1,1,0,0,1,1,1v6.77A1,1,0,0,1,67,30.77Zm-5.77-2H66V24H61.23Z"/><rect class="cls-5" x="23" y="60.23" width="6.77" height="6.77"/><path class="cls-3" d="M29.77,68H23a1,1,0,0,1-1-1V60.23a1,1,0,0,1,1-1h6.77a1,1,0,0,1,1,1V67A1,1,0,0,1,29.77,68ZM24,66h4.77V61.23H24Z"/><rect class="cls-4" x="41.62" y="60.23" width="6.77" height="6.77"/><path class="cls-3" d="M48.38,68H41.62a1,1,0,0,1-1-1V60.23a1,1,0,0,1,1-1h6.77a1,1,0,0,1,1,1V67A1,1,0,0,1,48.38,68Zm-5.77-2h4.77V61.23H42.62Z"/><rect class="cls-4" x="23" y="41.62" width="6.77" height="6.77"/><path class="cls-3" d="M29.77,49.39H23a1,1,0,0,1-1-1V41.62a1,1,0,0,1,1-1h6.77a1,1,0,0,1,1,1v6.77A1,1,0,0,1,29.77,49.39Zm-5.77-2h4.77V42.62H24Z"/><rect class="cls-4" x="60.23" y="41.62" width="6.77" height="6.77"/><path class="cls-3" d="M67,49.39H60.23a1,1,0,0,1-1-1V41.62a1,1,0,0,1,1-1H67a1,1,0,0,1,1,1v6.77A1,1,0,0,1,67,49.39Zm-5.77-2H66V42.62H61.23Z"/><rect class="cls-2" x="60.23" y="60.23" width="6.77" height="6.77"/><path class="cls-3" d="M67,68H60.23a1,1,0,0,1-1-1V60.23a1,1,0,0,1,1-1H67a1,1,0,0,1,1,1V67A1,1,0,0,1,67,68Zm-5.77-2H66V61.23H61.23Z"/><path class="cls-3" d="M26.38,42.62a1,1,0,0,1-1-1V29.77a1,1,0,0,1,2,0V41.62A1,1,0,0,1,26.38,42.62Z"/><path class="cls-3" d="M26.38,61.23a1,1,0,0,1-1-1v-11a1,1,0,0,1,2,0v11A1,1,0,0,1,26.38,61.23Z"/><path class="cls-3" d="M41.62,64.62H29.77a1,1,0,1,1,0-2H41.62a1,1,0,0,1,0,2Z"/><path class="cls-3" d="M60.23,64.62H48.38a1,1,0,0,1,0-2H60.23a1,1,0,0,1,0,2Z"/><path class="cls-3" d="M60.23,27.38H48.38a1,1,0,0,1,0-2H60.23a1,1,0,0,1,0,2Z"/><path class="cls-3" d="M41.62,27.38H29.77a1,1,0,0,1,0-2H41.62a1,1,0,0,1,0,2Z"/><path class="cls-3" d="M63.62,61.23a1,1,0,0,1-1-1v-11a1,1,0,0,1,2,0v11A1,1,0,0,1,63.62,61.23Z"/><path class="cls-3" d="M63.62,42.62a1,1,0,0,1-1-1V29.77a1,1,0,0,1,2,0V41.62A1,1,0,0,1,63.62,42.62Z"/></g></svg>