<svg xmlns="http://www.w3.org/2000/svg" viewBox="0 0 90 90"><defs><style>.cls-1{fill:#bdc3c7;}.cls-2{fill:#464c63;}.cls-3{fill:#93cfef;}</style></defs><title>transform-tool-round</title><g id="transform-tool-round"><g id="label"><circle class="cls-1" cx="45" cy="45" r="45"/></g><g id="icon"><path class="cls-2" d="M45,64.9A19.9,19.9,0,1,1,64.9,45,19.92,19.92,0,0,1,45,64.9Zm0-37.8A17.9,17.9,0,1,0,62.9,45,17.92,17.92,0,0,0,45,27.1Z"/><rect class="cls-3" x="40.4" y="22" width="9.2" height="9.2"/><path class="cls-2" d="M49.6,32.2H40.4a1,1,0,0,1-1-1V22a1,1,0,0,1,1-1h9.2a1,1,0,0,1,1,1v9.2A1,1,0,0,1,49.6,32.2Zm-8.2-2h7.2V23H41.4Z"/><rect class="cls-3" x="22" y="40.4" width="9.2" height="9.2"/><path class="cls-2" d="M31.2,50.6H22a1,1,0,0,1-1-1V40.4a1,1,0,0,1,1-1h9.2a1,1,0,0,1,1,1v9.2A1,1,0,0,1,31.2,50.6Zm-8.2-2h7.2V41.4H23Z"/><rect class="cls-3" x="58.8" y="40.4" width="9.2" height="9.2"/><path class="cls-2" d="M68,50.6H58.8a1,1,0,0,1-1-1V40.4a1,1,0,0,1,1-1H68a1,1,0,0,1,1,1v9.2A1,1,0,0,1,68,50.6Zm-8.2-2H67V41.4H59.8Z"/><rect class="cls-3" x="40.4" y="58.8" width="9.2" height="9.2"/><path class="cls-2" d="M49.6,69H40.4a1,1,0,0,1-1-1V58.8a1,1,0,0,1,1-1h9.2a1,1,0,0,1,1,1V68A1,1,0,0,1,49.6,69Zm-8.2-2h7.2V59.8H41.4Z"/></g></g></svg>