<svg xmlns="http://www.w3.org/2000/svg" viewBox="0 0 90 90"><defs><style>.cls-1{fill:#bdc3c7;}.cls-2{fill:#e1e1e6;}.cls-3{fill:#fabd6b;}.cls-4{fill:#464c63;}</style></defs><title>transform-tool-triangle</title><g id="transform-tool-triangle"><g id="label"><circle class="cls-1" cx="45" cy="45" r="45"/></g><g id="icon"><path class="cls-2" d="M62,60.63H28a1,1,0,0,1-.86-1.51l17-28.28a1,1,0,0,1,1.71,0l17,28.28A1,1,0,0,1,62,60.63Zm-32.18-2H60.21L45,33.3Z"/><rect class="cls-3" x="40.82" y="25.14" width="8.36" height="8.36"/><path class="cls-4" d="M49.18,34.5H40.82a1,1,0,0,1-1-1V25.14a1,1,0,0,1,1-1h8.36a1,1,0,0,1,1,1V33.5A1,1,0,0,1,49.18,34.5Zm-7.36-2h6.36V26.14H41.82Z"/><rect class="cls-3" x="59.63" y="56.5" width="8.37" height="8.36"/><path class="cls-4" d="M68,65.86H59.63a1,1,0,0,1-1-1V56.5a1,1,0,0,1,1-1H68a1,1,0,0,1,1,1v8.36A1,1,0,0,1,68,65.86Zm-7.37-2H67V57.5H60.63Z"/><rect class="cls-3" x="22" y="56.5" width="8.36" height="8.36"/><path class="cls-4" d="M30.36,65.86H22a1,1,0,0,1-1-1V56.5a1,1,0,0,1,1-1h8.36a1,1,0,0,1,1,1v8.36A1,1,0,0,1,30.36,65.86Zm-7.36-2h6.36V57.5H23Z"/></g></g></svg>