<svg xmlns="http://www.w3.org/2000/svg" viewBox="0 0 90 90"><defs><style>.cls-1{fill:#bdc3c7;}.cls-2{fill:#464c63;}.cls-3{fill:#93cfef;}.cls-4{fill:#d87070;}.cls-5{fill:#fff;}</style></defs><title>vector-direct-selection</title><g id="vector-direct-selection"><g id="label"><circle class="cls-1" cx="45" cy="45" r="45"/></g><g id="icon"><path class="cls-2" d="M63.6,54.31h-2v-1.6a16.39,16.39,0,0,0-12.07-16l.53-1.93A18.37,18.37,0,0,1,63.6,52.71Z"/><path class="cls-2" d="M28.4,54.31h-2v-1.6A18.68,18.68,0,0,1,39.93,34.79l.54,1.92a16.67,16.67,0,0,0-12.07,16Z"/><rect class="cls-2" x="29.6" y="32.51" width="11.6" height="2"/><rect class="cls-2" x="48.8" y="32.51" width="11.6" height="2"/><circle class="cls-3" cx="25.8" cy="33.51" r="4.8"/><path class="cls-2" d="M25.8,39.31a5.8,5.8,0,1,1,5.8-5.8A5.81,5.81,0,0,1,25.8,39.31Zm0-9.6a3.8,3.8,0,1,0,3.8,3.8A3.8,3.8,0,0,0,25.8,29.71Z"/><circle class="cls-3" cx="64.2" cy="33.51" r="4.8"/><path class="cls-2" d="M64.2,39.31a5.8,5.8,0,1,1,5.8-5.8A5.81,5.81,0,0,1,64.2,39.31Zm0-9.6a3.8,3.8,0,1,0,3.8,3.8A3.81,3.81,0,0,0,64.2,29.71Z"/><rect class="cls-4" x="40.33" y="28.84" width="9.33" height="9.33"/><path class="cls-2" d="M50.67,39.18H39.33V27.84H50.67Zm-9.33-2h7.33V29.84H41.33Z"/><polygon class="cls-5" points="45 58.54 51.67 61.29 45 45.2 38.33 61.29 45 58.54"/><path class="cls-2" d="M51.67,62.29a1,1,0,0,1-.38-.08L45,59.62l-6.29,2.59a1,1,0,0,1-1.31-1.31l6.67-16.08a1,1,0,0,1,1.85,0l6.67,16.08a1,1,0,0,1-.92,1.38ZM45,57.54a1,1,0,0,1,.38.08l4.44,1.83L45,47.82,40.18,59.45l4.44-1.83A1,1,0,0,1,45,57.54Z"/></g></g></svg>