<svg xmlns="http://www.w3.org/2000/svg" viewBox="0 0 90 90"><defs><style>.cls-1{fill:#bdc3c7;}.cls-2{fill:#464c63;}.cls-3{fill:#6b7082;}.cls-4{fill:#e1e1e6;}.cls-5{fill:#93cfef;}.cls-6{fill:#a2a5b1;}.cls-7{fill:#fabd6b;}</style></defs><title>web-design</title><g id="web-design"><g id="label"><circle class="cls-1" cx="45" cy="45" r="45"/></g><g id="icon"><g id="screen"><rect class="cls-1" x="39.32" y="60.78" width="8.66" height="7.22"/><rect class="cls-2" x="46.98" y="59.78" width="2" height="9.22"/><rect class="cls-2" x="38.32" y="59.78" width="2" height="9.22"/><rect class="cls-2" x="32.55" y="67" width="22.2" height="2"/><rect class="cls-3" x="22" y="27.11" width="43.29" height="33.67" rx="2.89" ry="2.89"/><rect class="cls-4" x="22" y="55.97" width="42.47" height="3.93"/><path class="cls-2" d="M62.41,61.78H24.89A3.89,3.89,0,0,1,21,57.9V30a3.89,3.89,0,0,1,3.89-3.89H62.41A3.89,3.89,0,0,1,66.29,30V57.9A3.89,3.89,0,0,1,62.41,61.78ZM24.89,28.11A1.89,1.89,0,0,0,23,30V57.9a1.89,1.89,0,0,0,1.89,1.89H62.41a1.89,1.89,0,0,0,1.89-1.89V30a1.89,1.89,0,0,0-1.89-1.89Z"/><rect class="cls-2" x="21" y="54.97" width="45.29" height="2"/></g><path class="cls-5" d="M67.23,22.77a2.62,2.62,0,0,0-3.7,0l-11.7,11.7a4.61,4.61,0,0,1,3.7,3.71l11.7-11.7a2.62,2.62,0,0,0,0-3.7"/><path class="cls-2" d="M55.53,39.17a1,1,0,0,1-.3,0,1,1,0,0,1-.69-.77,3.61,3.61,0,0,0-2.9-2.9,1,1,0,0,1-.52-1.69l11.7-11.7a3.71,3.71,0,0,1,5.12,0h0a3.62,3.62,0,0,1,0,5.12l-11.7,11.7A1,1,0,0,1,55.53,39.17Zm-1.88-5.11a5.61,5.61,0,0,1,2.29,2.29L66.53,25.76a1.62,1.62,0,0,0,0-2.29h0a1.66,1.66,0,0,0-2.29,0Z"/><path class="cls-6" d="M51.83,34.47,46.7,39.59l3.7,3.7,5.13-5.12a4.61,4.61,0,0,0-3.7-3.71"/><path class="cls-2" d="M50.41,44.71l-5.12-5.12,6.21-6.21.52.1A5.6,5.6,0,0,1,56.52,38l.09.52Zm-2.29-5.12,2.29,2.29,4-4a3.6,3.6,0,0,0-2.29-2.29Z"/><path class="cls-7" d="M51.13,38.87a4.63,4.63,0,0,0-6.55,0C42.94,40.51,43,45.17,43,46.09L43,47l.88,0h.53c1.54,0,5.27-.16,6.7-1.59a4.63,4.63,0,0,0,0-6.55"/><path class="cls-2" d="M44.44,48,43,48a1,1,0,0,1-1-1l0-.88c0-1.39,0-6.07,1.87-8a5.63,5.63,0,0,1,8,0h0a5.63,5.63,0,0,1,0,8C50.21,47.76,46.5,48,44.44,48ZM44,46h.43c2.9,0,5.19-.5,6-1.29a3.63,3.63,0,0,0,0-5.13,3.72,3.72,0,0,0-5.13,0C44.32,40.54,43.94,43.57,44,46Z"/></g></g></svg>