<?xml version="1.0" encoding="iso-8859-1"?>
<!-- Generator: Adobe Illustrator 19.0.0, SVG Export Plug-In . SVG Version: 6.00 Build 0)  -->
<svg version="1.1" id="Capa_1" xmlns="http://www.w3.org/2000/svg" xmlns:xlink="http://www.w3.org/1999/xlink" x="0px" y="0px"
	 viewBox="0 0 512 512" style="enable-background:new 0 0 512 512;" xml:space="preserve">
<path style="fill:#00D0FF;" d="M271,256v61c0,8.399-6.599,15-15,15s-15-6.601-15-15v-61c0-8.401,6.599-15,15-15S271,247.599,271,256
	z"/>
<g>
	<path style="fill:#00BBFF;" d="M271,256v61c0,8.399-6.599,15-15,15v-91C264.401,241,271,247.599,271,256z"/>
	<path style="fill:#00BBFF;" d="M497,422c-8.291,0-15-6.709-15-15V166c0-8.291,6.709-15,15-15s15,6.709,15,15v241
		C512,415.291,505.291,422,497,422z"/>
</g>
<path style="fill:#00D0FF;" d="M15,422c-8.291,0-15-6.709-15-15V166c0-8.291,6.709-15,15-15s15,6.709,15,15v241
	C30,415.291,23.291,422,15,422z"/>
<path style="fill:#00BBFF;" d="M376,377c-8.291,0-15-6.709-15-15V211c0-8.291,6.709-15,15-15s15,6.709,15,15v151
	C391,370.291,384.291,377,376,377z"/>
<path style="fill:#00D0FF;" d="M136,377c-8.291,0-15-6.709-15-15V211c0-8.291,6.709-15,15-15s15,6.709,15,15v151
	C151,370.291,144.291,377,136,377z"/>
<path style="fill:#00E3FF;" d="M502.4,91.899l-241-91C259.6,0.3,257.8,0,256,0s-3.6,0.3-5.4,0.899l-241,91
	C3.9,93.999,0,99.699,0,106c0,6.299,3.9,11.999,9.6,14.099l241,90c1.8,0.601,3.6,0.901,5.4,0.901s3.6-0.3,5.4-0.901l241-90
	c5.7-2.1,9.6-7.8,9.6-14.099C512,99.699,508.1,93.999,502.4,91.899z"/>
<g>
	<path style="fill:#00D0FF;" d="M512,106c0,6.299-3.9,11.999-9.6,14.099l-241,90C259.6,210.7,257.8,211,256,211V0
		c1.8,0,3.6,0.3,5.4,0.899l241,91C508.1,93.999,512,99.699,512,106z"/>
	<path style="fill:#00D0FF;" d="M256,31.899L57.599,106L256,180.099L453.401,106L256,31.899z"/>
</g>
<polygon style="fill:#00BBFF;" points="453.401,106 256,180.099 256,31.899 "/>
<path style="fill:#00E3FF;" d="M421.3,121.899L378.701,106L421.3,90.099c7.8-2.999,11.7-11.7,8.699-19.499
	c-2.999-7.5-11.4-11.4-19.2-8.701l-74.7,28.2L298.599,76L341.2,60.099c7.798-2.999,11.699-11.7,8.699-19.499
	c-2.701-7.5-11.4-11.4-19.2-8.701l-74.7,28.2l-74.7-28.2c-7.8-2.699-16.5,1.201-19.2,8.701c-2.999,7.798,0.901,16.5,8.699,19.499
	L213.401,76l-37.5,14.099l-74.7-28.2C93.401,58.9,84.699,63.1,82,70.6c-3.001,7.798,0.899,16.5,8.699,19.499l42.6,15.901
	L90.7,121.899c-7.8,3.001-11.7,11.7-8.699,19.501c2.999,7.5,11.4,11.4,19.2,8.699l74.7-28.2l37.5,14.101L170.8,151.899
	c-7.798,3.001-11.699,11.7-8.699,19.501c2.701,7.5,11.4,11.4,19.2,8.699l74.7-28.2l74.7,28.2c1.8,0.601,3.6,0.901,5.4,0.901
	c6,0,11.7-3.6,13.801-9.6c2.999-7.8-0.901-16.5-8.699-19.501L298.599,136l37.5-14.101l74.7,28.2c1.8,0.601,3.301,0.901,5.101,0.901
	c6.299,0,11.999-3.6,14.099-9.6C433.001,133.599,429.101,124.9,421.3,121.899z M256,120.099L218.8,106L256,91.899L293.2,106
	L256,120.099z"/>
<path style="fill:#00D0FF;" d="M430,141.4c-2.1,6-7.8,9.6-14.099,9.6c-1.8,0-3.301-0.3-5.101-0.901l-74.7-28.2L298.599,136
	l42.601,15.899c7.798,3.001,11.699,11.7,8.699,19.501c-2.1,6-7.8,9.6-13.801,9.6c-1.8,0-3.6-0.3-5.4-0.901l-74.7-28.2v-31.8
	L293.2,106L256,91.899v-31.8l74.7-28.2c7.8-2.699,16.5,1.201,19.2,8.701c2.999,7.798-0.901,16.5-8.699,19.499L298.599,76
	l37.5,14.099l74.7-28.2C418.599,59.2,427,63.1,430,70.6c3.001,7.798-0.899,16.5-8.699,19.499L378.701,106l42.599,15.899
	C429.101,124.9,433.001,133.599,430,141.4z"/>
<path style="fill:#00E3FF;" d="M502.4,392.899l-241-90C259.6,302.3,257.8,302,256,302s-3.6,0.3-5.4,0.899l-241,90
	c-5.7,2.1-9.6,7.8-9.6,14.101c0,6.299,3.9,11.999,9.6,14.099l241,90c1.8,0.601,3.6,0.901,5.4,0.901s3.6-0.3,5.4-0.901l241-90
	c5.7-2.1,9.6-7.8,9.6-14.099C512,400.699,508.1,394.999,502.4,392.899z"/>
<g>
	<path style="fill:#00D0FF;" d="M512,407c0,6.299-3.9,11.999-9.6,14.099l-241,90C259.6,511.7,257.8,512,256,512V302
		c1.8,0,3.6,0.3,5.4,0.899l241,90C508.1,394.999,512,400.699,512,407z"/>
	<path style="fill:#00D0FF;" d="M256,332.899L57.599,407L256,481.099L453.401,407L256,332.899z"/>
</g>
<polygon style="fill:#00BBFF;" points="453.401,407 256,481.099 256,332.899 "/>
<path style="fill:#00E3FF;" d="M421.3,422.899L378.701,407l42.599-15.901c7.8-2.999,11.7-11.7,8.699-19.499
	c-2.999-7.5-11.4-11.4-19.2-8.701l-74.7,28.2L298.599,377l42.601-15.901c7.798-2.999,11.699-11.7,8.699-19.499
	c-2.701-7.5-11.4-11.4-19.2-8.701l-74.7,28.2l-74.7-28.2c-7.8-2.699-16.5,1.201-19.2,8.701c-2.999,7.798,0.901,16.5,8.699,19.499
	L213.401,377l-37.5,14.099l-74.7-28.2c-7.8-2.999-16.501,1.201-19.2,8.701C79,379.398,82.9,388.1,90.7,391.099L133.299,407
	L90.7,422.899c-7.8,3.001-11.7,11.7-8.699,19.501c2.999,7.5,11.4,11.4,19.2,8.699l74.7-28.2l37.5,14.101L170.8,452.899
	c-7.798,3.001-11.699,11.7-8.699,19.501c2.701,7.5,11.4,11.4,19.2,8.699l74.7-28.2l74.7,28.2c1.8,0.601,3.6,0.901,5.4,0.901
	c6,0,11.7-3.6,13.801-9.6c2.999-7.8-0.901-16.5-8.699-19.501L298.599,437l37.5-14.101l74.7,28.2c1.8,0.601,3.301,0.901,5.101,0.901
	c6.299,0,11.999-3.6,14.099-9.6C433.001,434.599,429.101,425.9,421.3,422.899z M256,421.099L218.8,407l37.2-14.101L293.2,407
	L256,421.099z"/>
<path style="fill:#00D0FF;" d="M430,442.4c-2.1,6-7.8,9.6-14.099,9.6c-1.8,0-3.301-0.3-5.101-0.901l-74.7-28.2L298.599,437
	l42.601,15.899c7.798,3.001,11.699,11.7,8.699,19.501c-2.1,6-7.8,9.6-13.801,9.6c-1.8,0-3.6-0.3-5.4-0.901l-74.7-28.2v-31.8
	L293.2,407L256,392.899v-31.8l74.7-28.2c7.8-2.699,16.5,1.201,19.2,8.701c2.999,7.798-0.901,16.5-8.699,19.499L298.599,377
	l37.5,14.099l74.7-28.2c7.8-2.699,16.201,1.201,19.2,8.701c3.001,7.798-0.899,16.5-8.699,19.499L378.701,407l42.599,15.899
	C429.101,425.9,433.001,434.599,430,442.4z"/>
<g>
</g>
<g>
</g>
<g>
</g>
<g>
</g>
<g>
</g>
<g>
</g>
<g>
</g>
<g>
</g>
<g>
</g>
<g>
</g>
<g>
</g>
<g>
</g>
<g>
</g>
<g>
</g>
<g>
</g>
</svg>
