<?xml version="1.0" encoding="iso-8859-1"?>
<!-- Generator: Adobe Illustrator 19.0.0, SVG Export Plug-In . SVG Version: 6.00 Build 0)  -->
<svg version="1.1" id="Capa_1" xmlns="http://www.w3.org/2000/svg" xmlns:xlink="http://www.w3.org/1999/xlink" x="0px" y="0px"
	 viewBox="0 0 512 512" style="enable-background:new 0 0 512 512;" xml:space="preserve">
<rect x="30" y="30" style="fill:#0050C7;" width="210" height="422"/>
<rect x="30" y="256" style="fill:#004597;" width="210" height="196"/>
<path style="fill:#007BFF;" d="M225,120h-30c-41.4,0-75,34.6-75,76v121c0,41.4,33.6,75,75,75h30c8.401,0,15-6.601,15-15V135
	C240,126.599,233.401,120,225,120z"/>
<path style="fill:#FEA832;" d="M437,150c-3.838,0-7.676-1.465-10.605-4.395c-5.859-5.859-5.859-15.352,0-21.211l60-60
	c5.859-5.859,15.352-5.859,21.211,0c5.859,5.859,5.859,15.352,0,21.211l-60,60C444.676,148.535,440.838,150,437,150z"/>
<path style="fill:#FE9923;" d="M497,452c-3.838,0-7.676-1.465-10.605-4.395l-60-60c-5.859-5.859-5.859-15.352,0-21.211
	s15.352-5.859,21.211,0l60,60c5.859,5.859,5.859,15.352,0,21.211C504.676,450.535,500.838,452,497,452z"/>
<path style="fill:#FEA832;" d="M512,256c0,8.399-6.599,15-15,15h-60c-8.401,0-15-6.601-15-15c0-8.401,6.599-15,15-15h60
	C505.401,241,512,247.599,512,256z"/>
<path style="fill:#007BFF;" d="M392,45v422c0,24.899-20.099,45-45,45h-15l-60-30V30l60-30h15C371.901,0,392,20.099,392,45z"/>
<g>
	<path style="fill:#0050C7;" d="M120,256h120v121c0,8.399-6.599,15-15,15h-30c-41.4,0-75-33.6-75-75V256z"/>
	<path style="fill:#0050C7;" d="M272,256h120v211c0,24.899-20.099,45-45,45h-15l-60-30V256z"/>
</g>
<path style="fill:#FE9923;" d="M512,256c0,8.399-6.599,15-15,15h-60c-8.401,0-15-6.601-15-15H512z"/>
<path style="fill:#FEA832;" d="M302,132.299c0-7.8,2.999-15.3,8.699-21L323.3,98.7c5.4-5.4,8.699-13.2,8.699-21V0H30
	C13.5,0,0,13.5,0,30v8.399c0,12.9,8.101,24.3,21.301,28.5L210,120.599V391.4L20.4,445.099C8.101,449.299,0,460.7,0,473.599V482
	c0,16.5,13.5,30,30,30h302v-77.701c0-7.8-3.3-15.599-8.699-21L310.7,400.7c-5.7-5.7-8.699-13.2-8.699-21L302,132.299L302,132.299z"
	/>
<path style="fill:#FE9923;" d="M332,434.299V512H30c-16.5,0-30-13.5-30-30v-8.401c0-12.9,8.101-24.3,20.4-28.5l189.6-53.7V256h92
	v123.699c0,7.8,2.999,15.3,8.699,21l12.601,12.599C328.7,418.7,332,426.499,332,434.299z"/>
<g>
</g>
<g>
</g>
<g>
</g>
<g>
</g>
<g>
</g>
<g>
</g>
<g>
</g>
<g>
</g>
<g>
</g>
<g>
</g>
<g>
</g>
<g>
</g>
<g>
</g>
<g>
</g>
<g>
</g>
</svg>
