<?xml version="1.0" encoding="iso-8859-1"?>
<!-- Generator: Adobe Illustrator 19.0.0, SVG Export Plug-In . SVG Version: 6.00 Build 0)  -->
<svg version="1.1" id="Capa_1" xmlns="http://www.w3.org/2000/svg" xmlns:xlink="http://www.w3.org/1999/xlink" x="0px" y="0px"
	 viewBox="0 0 512 512" style="enable-background:new 0 0 512 512;" xml:space="preserve">
<path style="fill:#00D0FF;" d="M15,422c-8.291,0-15-6.709-15-15v-60c0-8.291,6.709-15,15-15s15,6.709,15,15v60
	C30,415.291,23.291,422,15,422z"/>
<path style="fill:#00BBFF;" d="M497,422c-8.291,0-15-6.709-15-15v-60c0-8.291,6.709-15,15-15s15,6.709,15,15v60
	C512,415.291,505.291,422,497,422z"/>
<path style="fill:#00E3FF;" d="M502.4,392.899l-241-90C259.6,302.3,257.8,302,256,302s-3.6,0.3-5.4,0.899l-241,90
	c-5.7,2.1-9.6,7.8-9.6,14.101c0,6.299,3.9,11.999,9.6,14.099l241,90c1.8,0.601,3.6,0.901,5.4,0.901s3.6-0.3,5.4-0.901l241-90
	c5.7-2.1,9.6-7.8,9.6-14.099C512,400.699,508.1,394.999,502.4,392.899z"/>
<g>
	<path style="fill:#00D0FF;" d="M512,407c0,6.299-3.9,11.999-9.6,14.099l-241,90C259.6,511.7,257.8,512,256,512V302
		c1.8,0,3.6,0.3,5.4,0.899l241,90C508.1,394.999,512,400.699,512,407z"/>
	<path style="fill:#00D0FF;" d="M256,332.899L57.599,407L256,481.099L454.401,407L256,332.899z"/>
</g>
<polygon style="fill:#00BBFF;" points="454.401,407 256,481.099 256,332.899 "/>
<path style="fill:#9E0A48;" d="M353.8,65.9l-79.3,30.807L256,137l-30,15v75l30,42.9c2.401,0,4.799-0.601,7.2-1.8l121-66.899
	c4.801-2.701,7.8-7.5,7.8-12.902V69.5L353.8,65.9z"/>
<path style="fill:#DD025B;" d="M158.2,65.9L120,69.5v118.799c0,5.402,2.999,10.201,7.8,12.902l121,66.899
	c2.401,1.199,4.799,1.8,7.2,1.8V137l-14.718-40.7L158.2,65.9z"/>
<path style="fill:#00E3FF;" d="M422.3,422.899L379.701,407l42.599-15.901c7.8-2.999,11.7-11.7,8.699-19.499
	c-2.999-7.5-11.4-11.4-19.2-8.701l-75.7,28.2L298.599,377l42.601-15.901c7.798-2.999,11.699-11.7,8.699-19.499
	c-2.701-7.5-11.4-11.4-19.2-8.701l-74.7,28.2l-74.7-28.2c-7.8-2.699-16.5,1.201-19.2,8.701c-2.999,7.798,0.901,16.5,8.699,19.499
	L213.401,377l-37.5,14.099l-75.7-28.2c-7.8-2.999-16.501,1.201-19.2,8.701C78,379.398,81.9,388.1,89.7,391.099L132.299,407
	L89.7,422.899c-7.8,3.001-11.7,11.7-8.699,19.501c2.999,7.5,11.4,11.4,19.2,8.699l75.7-28.2l37.5,14.101L170.8,452.899
	c-7.798,3.001-11.699,11.7-8.699,19.501c2.701,7.5,11.4,11.4,19.2,8.699l74.7-28.2l74.7,28.2c1.8,0.601,3.6,0.901,5.4,0.901
	c6,0,11.7-3.6,13.801-9.6c2.999-7.8-0.901-16.5-8.699-19.501L298.599,437l37.5-14.101l75.7,28.2c1.8,0.601,3.301,0.901,5.101,0.901
	c6.299,0,11.999-3.6,14.099-9.6C434.001,434.599,430.101,425.9,422.3,422.899z M256,421.099L218.8,407l37.2-14.101L293.2,407
	L256,421.099z"/>
<g>
	<path style="fill:#00D0FF;" d="M15,212c-8.291,0-15-6.709-15-15v-30c0-8.291,6.709-15,15-15s15,6.709,15,15v30
		C30,205.291,23.291,212,15,212z"/>
	<path style="fill:#00D0FF;" d="M15,302c-8.291,0-15-6.709-15-15v-30c0-8.291,6.709-15,15-15s15,6.709,15,15v30
		C30,295.291,23.291,302,15,302z"/>
	<path style="fill:#00D0FF;" d="M15,122c-8.291,0-15-6.709-15-15V77c0-8.291,6.709-15,15-15s15,6.709,15,15v30
		C30,115.291,23.291,122,15,122z"/>
</g>
<g>
	<path style="fill:#00BBFF;" d="M497,212c-8.291,0-15-6.709-15-15v-30c0-8.291,6.709-15,15-15s15,6.709,15,15v30
		C512,205.291,505.291,212,497,212z"/>
	<path style="fill:#00BBFF;" d="M497,302c-8.291,0-15-6.709-15-15v-30c0-8.291,6.709-15,15-15s15,6.709,15,15v30
		C512,295.291,505.291,302,497,302z"/>
	<path style="fill:#00BBFF;" d="M497,122c-8.291,0-15-6.709-15-15V77c0-8.291,6.709-15,15-15s15,6.709,15,15v30
		C512,115.291,505.291,122,497,122z"/>
</g>
<g>
	<path style="fill:#00D0FF;" d="M75,152c-8.291,0-15-6.709-15-15v-30c0-8.291,6.709-15,15-15s15,6.709,15,15v30
		C90,145.291,83.291,152,75,152z"/>
	<path style="fill:#00D0FF;" d="M75,242c-8.291,0-15-6.709-15-15v-30c0-8.291,6.709-15,15-15s15,6.709,15,15v30
		C90,235.291,83.291,242,75,242z"/>
	<path style="fill:#00D0FF;" d="M75,332c-8.291,0-15-6.709-15-15v-30c0-8.291,6.709-15,15-15s15,6.709,15,15v30
		C90,325.291,83.291,332,75,332z"/>
	<path style="fill:#00D0FF;" d="M75,62c-8.291,0-15-6.709-15-15V15c0-8.291,6.709-15,15-15s15,6.709,15,15v32
		C90,55.291,83.291,62,75,62z"/>
</g>
<g>
	<path style="fill:#00BBFF;" d="M437,152c-8.291,0-15-6.709-15-15v-30c0-8.291,6.709-15,15-15s15,6.709,15,15v30
		C452,145.291,445.291,152,437,152z"/>
	<path style="fill:#00BBFF;" d="M437,242c-8.291,0-15-6.709-15-15v-30c0-8.291,6.709-15,15-15s15,6.709,15,15v30
		C452,235.291,445.291,242,437,242z"/>
	<path style="fill:#00BBFF;" d="M437,332c-8.291,0-15-6.709-15-15v-30c0-8.291,6.709-15,15-15s15,6.709,15,15v30
		C452,325.291,445.291,332,437,332z"/>
	<path style="fill:#00BBFF;" d="M437,62c-8.291,0-15-6.709-15-15V15c0-8.291,6.709-15,15-15s15,6.709,15,15v32
		C452,55.291,445.291,62,437,62z"/>
</g>
<polygon style="fill:#FF0B69;" points="392,69.5 256,137 120,69.5 256,0 "/>
<path style="fill:#00D0FF;" d="M431,442.4c-2.1,6-7.8,9.6-14.099,9.6c-1.8,0-3.301-0.3-5.101-0.901l-75.7-28.2L298.599,437
	l42.601,15.899c7.798,3.001,11.699,11.7,8.699,19.501c-2.1,6-7.8,9.6-13.801,9.6c-1.8,0-3.6-0.3-5.4-0.901l-74.7-28.2v-31.8
	L293.2,407L256,392.899v-31.8l74.7-28.2c7.8-2.699,16.5,1.201,19.2,8.701c2.999,7.798-0.901,16.5-8.699,19.499L298.599,377
	l37.5,14.099l75.7-28.2c7.8-2.699,16.201,1.201,19.2,8.701c3.001,7.798-0.899,16.5-8.699,19.499L379.701,407l42.599,15.899
	C430.101,425.9,434.001,434.599,431,442.4z"/>
<g>
</g>
<g>
</g>
<g>
</g>
<g>
</g>
<g>
</g>
<g>
</g>
<g>
</g>
<g>
</g>
<g>
</g>
<g>
</g>
<g>
</g>
<g>
</g>
<g>
</g>
<g>
</g>
<g>
</g>
</svg>
