<?xml version="1.0" encoding="iso-8859-1"?>
<!-- Generator: Adobe Illustrator 19.0.0, SVG Export Plug-In . SVG Version: 6.00 Build 0)  -->
<svg version="1.1" id="Capa_1" xmlns="http://www.w3.org/2000/svg" xmlns:xlink="http://www.w3.org/1999/xlink" x="0px" y="0px"
	 viewBox="0 0 512 512" style="enable-background:new 0 0 512 512;" xml:space="preserve">
<path style="fill:#0050C7;" d="M512,241v196c0,8.399-6.599,15-15,15H256c-8.401,0-15-6.601-15-15V241l22.5-30H482L512,241z"/>
<path style="fill:#004597;" d="M512,241v196c0,8.399-6.599,15-15,15H377V211h105L512,241z"/>
<rect x="271" y="211" style="fill:#E1E4FB;" width="211" height="241"/>
<rect x="377" y="211" style="fill:#C5C9F7;" width="105" height="241"/>
<path style="fill:#FEA832;" d="M271,15v61c0,8.399-6.599,15-15,15s-15-6.601-15-15V15c0-8.401,6.599-15,15-15S271,6.599,271,15z"/>
<path style="fill:#FE9923;" d="M271,15v61c0,8.399-6.599,15-15,15V0C264.401,0,271,6.599,271,15z"/>
<path style="fill:#FEDB41;" d="M256,61c-32.999,0-61,26.999-61,60c0,6.899,1.199,13.5,3.3,20.099c2.1,6,7.8,9.901,14.401,9.901
	h85.598c6.601,0,12.301-3.9,14.401-9.901c2.1-6.599,3.3-13.2,3.3-20.099C316,87.999,288.999,61,256,61z"/>
<path style="fill:#FCBF29;" d="M316,121c0,6.899-1.199,13.5-3.3,20.099c-2.1,6-7.8,9.901-14.401,9.901H256V61
	C288.999,61,316,87.999,316,121z"/>
<path style="fill:#FEA832;" d="M452,15v61c0,8.399-6.599,15-15,15s-15-6.601-15-15V15c0-8.401,6.599-15,15-15S452,6.599,452,15z"/>
<path style="fill:#FE9923;" d="M452,15v61c0,8.399-6.599,15-15,15V0C445.401,0,452,6.599,452,15z"/>
<path style="fill:#FEDB41;" d="M437,61c-32.999,0-60,26.999-60,60c0,6.899,1.199,13.5,3.3,20.099c2.1,6,7.8,9.901,14.401,9.901
	h84.598c6.601,0,12.301-3.9,14.401-9.901c2.1-6.599,3.3-13.2,3.3-20.099C497,87.999,469.999,61,437,61z"/>
<path style="fill:#FCBF29;" d="M497,121c0,6.899-1.199,13.5-3.3,20.099c-2.1,6-7.8,9.901-14.401,9.901H437V61
	C469.999,61,497,87.999,497,121z"/>
<path style="fill:#FEA832;" d="M90,15v61c0,8.399-6.599,15-15,15s-15-6.601-15-15V15c0-8.401,6.599-15,15-15S90,6.599,90,15z"/>
<path style="fill:#FE9923;" d="M90,15v61c0,8.399-6.599,15-15,15V0C83.401,0,90,6.599,90,15z"/>
<path style="fill:#0050C7;" d="M150,434.9c0.601,4.2-0.901,8.699-3.6,11.999C143.401,450.2,139.501,452,135,452H75
	c-4.501,0-8.401-1.8-11.4-5.101c-2.699-3.3-4.2-7.798-3.6-11.999l8.699-60c1.201-8.101,8.701-13.801,17.1-12.9H124.2
	c8.399-0.901,15.899,4.799,17.1,12.9L150,434.9z"/>
<path style="fill:#004597;" d="M150,434.9c0.601,4.2-0.901,8.699-3.6,11.999C143.401,450.2,139.501,452,135,452h-30v-90h19.2
	c8.399-0.901,15.899,4.799,17.1,12.9L150,434.9z"/>
<path style="fill:#0050C7;" d="M482,467v30c0,8.399-6.599,15-15,15H45c-8.401,0-15-6.601-15-15v-30H482z"/>
<g>
	<path style="fill:#007BFF;" d="M180,437c0,8.399-6.599,15-15,15H45c-8.401,0-15-6.601-15-15c0-8.401,6.599-15,15-15h120
		C173.401,422,180,428.599,180,437z"/>
	<path style="fill:#007BFF;" d="M512,15c0,8.399-6.599,15-15,15H15C6.599,30,0,23.399,0,15C0,6.599,6.599,0,15,0h482
		C505.401,0,512,6.599,512,15z"/>
</g>
<path style="fill:#FEDB41;" d="M75,61c-32.999,0-60,26.999-60,60c0,6.899,1.199,13.5,3.3,20.099c2.1,6,7.8,9.901,14.401,9.901
	h84.598c6.601,0,12.301-3.9,14.401-9.901c2.1-6.599,3.3-13.2,3.3-20.099C135,87.999,107.999,61,75,61z"/>
<path style="fill:#007BFF;" d="M195,241H15c-8.401,0-15,6.599-15,15v121c0,8.399,6.599,15,15,15h180c8.401,0,15-6.601,15-15V256
	C210,247.599,203.401,241,195,241z"/>
<g>
	<path style="fill:#FF0B69;" d="M422,226v60c0,3.9-1.5,7.8-4.501,10.499l-30,30C384.8,329.5,380.9,332,377,332
		s-7.8-2.5-10.499-5.501l-30-30C333.5,293.8,332,289.9,332,286v-60c0-8.401,6.599-15,15-15h60C415.401,211,422,217.599,422,226z"/>
	<path style="fill:#FF0B69;" d="M377,362c-24.901,0-45,20.099-45,45c0,24.899,20.099,45,45,45s45-20.101,45-45
		C422,382.099,401.901,362,377,362z"/>
</g>
<path style="fill:#FCBF29;" d="M135,121c0,6.899-1.199,13.5-3.3,20.099c-2.1,6-7.8,9.901-14.401,9.901H75V61
	C107.999,61,135,87.999,135,121z"/>
<path style="fill:#007BFF;" d="M512,467c0,8.399-6.599,15-15,15H15c-8.401,0-15-6.601-15-15c0-8.401,6.599-15,15-15h482
	C505.401,452,512,458.599,512,467z"/>
<g>
	<path style="fill:#0050C7;" d="M210,256v121c0,8.399-6.599,15-15,15h-90V241h90C203.401,241,210,247.599,210,256z"/>
	<path style="fill:#0050C7;" d="M180,437c0,8.399-6.599,15-15,15h-60v-30h60C173.401,422,180,428.599,180,437z"/>
</g>
<path style="fill:#00E3FF;" d="M30,271v91h150v-91H30z"/>
<rect x="105" y="271" style="fill:#00D0FF;" width="75" height="91"/>
<path style="fill:#DD025B;" d="M422,226v60c0,3.9-1.5,7.8-4.501,10.499l-30,30C384.8,329.5,380.9,332,377,332V211h30
	C415.401,211,422,217.599,422,226z"/>
<path style="fill:#007BFF;" d="M512,196v45H241v-45c0-8.401,6.599-15,15-15h241C505.401,181,512,187.599,512,196z"/>
<path style="fill:#0050C7;" d="M512,196v45H377v-60h120C505.401,181,512,187.599,512,196z"/>
<path style="fill:#DD025B;" d="M422,407c0,24.899-20.099,45-45,45v-90C401.901,362,422,382.099,422,407z"/>
<path style="fill:#004597;" d="M482,467v30c0,8.399-6.599,15-15,15H256v-45H482z"/>
<g>
	<path style="fill:#0050C7;" d="M512,467c0,8.399-6.599,15-15,15H256v-30h241C505.401,452,512,458.599,512,467z"/>
	<path style="fill:#0050C7;" d="M497,30H256V0h241c8.401,0,15,6.599,15,15C512,23.399,505.401,30,497,30z"/>
</g>
<g>
</g>
<g>
</g>
<g>
</g>
<g>
</g>
<g>
</g>
<g>
</g>
<g>
</g>
<g>
</g>
<g>
</g>
<g>
</g>
<g>
</g>
<g>
</g>
<g>
</g>
<g>
</g>
<g>
</g>
</svg>
