<?xml version="1.0" encoding="iso-8859-1"?>
<!-- Generator: Adobe Illustrator 19.0.0, SVG Export Plug-In . SVG Version: 6.00 Build 0)  -->
<svg version="1.1" id="Capa_1" xmlns="http://www.w3.org/2000/svg" xmlns:xlink="http://www.w3.org/1999/xlink" x="0px" y="0px"
	 viewBox="0 0 512 512" style="enable-background:new 0 0 512 512;" xml:space="preserve">
<path style="fill:#FEA832;" d="M249.355,334.237l160.264,160.264c23.332,23.332,61.515,23.332,84.847,0
	c23.332-23.332,23.332-61.515,0-84.847L334.203,249.39L249.355,334.237z"/>
<rect x="60.137" y="165.874" transform="matrix(0.7071 0.7071 -0.7071 0.7071 195.8595 -81.1041)" style="fill:#E1E4FB;" width="271.388" height="59.995"/>
<rect x="49.525" y="191.475" transform="matrix(0.7071 0.7071 -0.7071 0.7071 200.2483 -70.4952)" style="fill:#C5C9F7;" width="271.388" height="29.998"/>
<path style="fill:#FE9923;" d="M249.355,334.237l160.264,160.264c23.332,23.332,61.515,23.332,84.847,0L291.779,291.813
	L249.355,334.237z"/>
<path style="fill:#007BFF;" d="M217.538,366.054c11.666,11.666,30.757,11.666,42.423,0l106.059-106.059
	c11.666-11.666,11.666-30.757,0-42.423c-11.666-11.666-30.757-11.666-42.423,0L217.538,323.631
	C205.872,335.297,205.872,354.388,217.538,366.054z"/>
<path style="fill:#0050C7;" d="M217.538,366.054c11.666,11.666,30.757,11.666,42.423,0l53.029-53.029l-42.423-42.423l-53.029,53.029
	C205.872,335.297,205.872,354.388,217.538,366.054z"/>
<path style="fill:#C5C9F7;" d="M57.45,135.967l42.423,6.365l42.423-42.423l-6.365-42.423c0.212-5.728-3.181-10.819-8.272-13.363
	L42.813,1.698C37.298-1.271,30.298-0.21,25.632,4.455L4.421,25.667c-4.666,4.666-5.727,11.666-2.758,17.18l42.423,84.847
	C46.631,132.786,51.722,136.179,57.45,135.967z"/>
<path style="fill:#A8AFF1;" d="M99.873,142.332l21.212-21.212L15.027,15.061L4.421,25.667c-4.666,4.666-5.727,11.666-2.758,17.18
	l42.423,84.847c2.544,5.092,7.635,8.485,13.363,8.272L99.873,142.332z"/>
<path style="fill:#C5C9F7;" d="M485.867,153.624c-27.299,27.297-68.396,33.298-102.294,17.099
	c-9.299,9.299-207.184,207.184-212.283,212.584c16.198,33.898,9.599,74.995-17.4,101.994
	c-26.098,26.098-64.195,32.997-96.594,19.798c-9.898-3.898-12.298-16.799-4.799-24.298c0-0.298,46.196-46.196,48.297-48.297
	l-10.498-10.799l-10.799-10.498c0,0-45.898,46.196-48.298,48.297c-7.499,7.499-20.399,5.099-24.298-4.801
	c-13.199-32.397-6.299-70.494,19.8-96.592c26.996-27.299,68.093-33.297,101.991-17.399c9.299-9.299,207.186-206.885,212.586-212.285
	c-16.198-34.197-9.9-74.995,17.099-102.292c26.098-25.798,64.195-32.699,96.892-19.8c9.9,3.9,12,17.099,4.501,24.598
	c0,0.3-46.198,46.198-48.297,48.298l10.498,10.799l10.799,10.498c0,0,46.198-46.196,48.297-48.297
	c7.499-7.499,20.699-5.4,24.598,4.501C518.564,89.428,511.664,127.527,485.867,153.624z"/>
<path style="fill:#A8AFF1;" d="M485.867,153.624c-27.299,27.297-68.396,33.298-102.294,17.099
	c-9.299,9.299-207.184,207.184-212.283,212.584c16.198,33.898,9.599,74.995-17.4,101.994
	c-26.098,26.098-64.195,32.997-96.594,19.798c-9.898-3.898-12.298-16.799-4.799-24.298c0-0.298,46.196-46.196,48.297-48.297
	l-10.498-10.799L421.972,90.027l10.799,10.498c0,0,46.198-46.196,48.297-48.297c7.499-7.499,20.699-5.4,24.598,4.501
	C518.564,89.428,511.664,127.527,485.867,153.624z"/>
<g>
</g>
<g>
</g>
<g>
</g>
<g>
</g>
<g>
</g>
<g>
</g>
<g>
</g>
<g>
</g>
<g>
</g>
<g>
</g>
<g>
</g>
<g>
</g>
<g>
</g>
<g>
</g>
<g>
</g>
</svg>
