<?xml version="1.0" encoding="iso-8859-1"?>
<!-- Generator: Adobe Illustrator 19.0.0, SVG Export Plug-In . SVG Version: 6.00 Build 0)  -->
<svg version="1.1" id="Capa_1" xmlns="http://www.w3.org/2000/svg" xmlns:xlink="http://www.w3.org/1999/xlink" x="0px" y="0px"
	 viewBox="0 0 512 512" style="enable-background:new 0 0 512 512;" xml:space="preserve">
<g>
	<path style="fill:#DD025B;" d="M421,452v15c0,24.899-20.099,45-45,45H136c-24.901,0-45-20.101-45-45v-15l30-31h270L421,452z"/>
	<path style="fill:#DD025B;" d="M421,166v15l-21.301,30H121l-30-30v-15c0-36.301,25.8-66.599,60-73.5V46c0-8.401,6.599-16,15-16h180
		c8.401,0,15,7.599,15,16v46.5C395.2,99.401,421,129.699,421,166z"/>
</g>
<g>
	<path style="fill:#9E0A48;" d="M421,166v15l-21.301,30H256V30h90c8.401,0,15,7.599,15,16v46.5C395.2,99.401,421,129.699,421,166z"
		/>
	<path style="fill:#9E0A48;" d="M391,421l30,31v15c0,24.899-20.099,45-45,45H256v-91H391z"/>
</g>
<rect x="91" y="181" style="fill:#E1E4FB;" width="330" height="271"/>
<rect x="256" y="181" style="fill:#C5C9F7;" width="165" height="271"/>
<g>
	<circle style="fill:#00D0FF;" cx="346" cy="256" r="15"/>
	<circle style="fill:#00D0FF;" cx="346" cy="316" r="15"/>
	<circle style="fill:#00D0FF;" cx="346" cy="376" r="15"/>
</g>
<path style="fill:#DD025B;" d="M286,241H166c-8.401,0-15,6.599-15,15v60c0,8.399,6.599,15,15,15h120c8.401,0,15-6.601,15-15v-60
	C301,247.599,294.401,241,286,241z"/>
<path style="fill:#007BFF;" d="M301,376c0,8.399-6.599,15-15,15H166c-8.401,0-15-6.601-15-15c0-8.401,6.599-15,15-15h120
	C294.401,361,301,367.599,301,376z"/>
<path style="fill:#9E0A48;" d="M301,256v60c0,8.399-6.599,15-15,15h-30v-90h30C294.401,241,301,247.599,301,256z"/>
<path style="fill:#0050C7;" d="M301,376c0,8.399-6.599,15-15,15h-30v-30h30C294.401,361,301,367.599,301,376z"/>
<path style="fill:#007BFF;" d="M391,15v31c0,8.401-6.599,15-15,15h-45l-16.199-15L301,61h-30l-15-15l-15,15h-30l-16.199-15L181,61
	h-45c-8.401,0-15-6.599-15-15V15c0-8.401,6.599-15,15-15h45l14.399,15L211,0h30l15,15l15-15h30l13.801,15L331,0h45
	C384.401,0,391,6.599,391,15z"/>
<g>
	<path style="fill:#0050C7;" d="M271,61l-15-15V15l15-15h30l13.801,15L331,0h45c8.401,0,15,6.599,15,15v31c0,8.401-6.599,15-15,15
		h-45l-16.199-15L301,61H271z"/>
	<rect x="181" style="fill:#0050C7;" width="30" height="61"/>
</g>
<rect x="301" style="fill:#004597;" width="30" height="61"/>
<rect x="241" style="fill:#0050C7;" width="30" height="61"/>
<rect x="256" style="fill:#004597;" width="15" height="61"/>
<g>
</g>
<g>
</g>
<g>
</g>
<g>
</g>
<g>
</g>
<g>
</g>
<g>
</g>
<g>
</g>
<g>
</g>
<g>
</g>
<g>
</g>
<g>
</g>
<g>
</g>
<g>
</g>
<g>
</g>
</svg>
