<?xml version="1.0" encoding="iso-8859-1"?>
<!-- Generator: Adobe Illustrator 19.0.0, SVG Export Plug-In . SVG Version: 6.00 Build 0)  -->
<svg version="1.1" id="Capa_1" xmlns="http://www.w3.org/2000/svg" xmlns:xlink="http://www.w3.org/1999/xlink" x="0px" y="0px"
	 viewBox="0 0 512 512" style="enable-background:new 0 0 512 512;" xml:space="preserve">
<polygon style="fill:#0050C7;" points="451,91 451,422 421,452 91,452 61,422 61,91 91,60 421,60 "/>
<polygon style="fill:#004597;" points="451,91 451,422 421,452 256,452 256,60 421,60 "/>
<rect x="91" y="60" style="fill:#00E3FF;" width="330" height="392"/>
<rect x="256" y="60" style="fill:#00D0FF;" width="165" height="392"/>
<path style="fill:#007BFF;" d="M451,45v46H61V45c0-24.901,20.099-45,45-45h300C430.901,0,451,20.099,451,45z"/>
<path style="fill:#0050C7;" d="M451,45v46H256V0h150C430.901,0,451,20.099,451,45z"/>
<path style="fill:#007BFF;" d="M451,422v45c0,24.901-20.099,45-45,45H106c-24.901,0-45-20.099-45-45v-45H451z"/>
<path style="fill:#0050C7;" d="M256,422h195v45c0,24.901-20.099,45-45,45H256V422z"/>
<path style="fill:#9E0A48;" d="M353.442,320.319L256,376l-30-53.125V278.5l30-22.5l19.183-40.962l40.673-10.385L361,196v111.295
	C361,312.678,358.116,317.648,353.442,320.319z"/>
<path style="fill:#DD025B;" d="M256,376l-97.442-55.681c-4.674-2.671-7.558-7.641-7.558-13.024V196l48.443,10.539l45.654,13.231
	L256,256V376z"/>
<path style="fill:#FF0B69;" d="M248.558,137.976L151,196l105,60l105-60l-97.558-58.024
	C258.831,135.341,253.169,135.341,248.558,137.976z"/>
<g>
</g>
<g>
</g>
<g>
</g>
<g>
</g>
<g>
</g>
<g>
</g>
<g>
</g>
<g>
</g>
<g>
</g>
<g>
</g>
<g>
</g>
<g>
</g>
<g>
</g>
<g>
</g>
<g>
</g>
</svg>
