<?xml version="1.0" encoding="iso-8859-1"?>
<!-- Generator: Adobe Illustrator 19.0.0, SVG Export Plug-In . SVG Version: 6.00 Build 0)  -->
<svg version="1.1" id="Capa_1" xmlns="http://www.w3.org/2000/svg" xmlns:xlink="http://www.w3.org/1999/xlink" x="0px" y="0px"
	 viewBox="0 0 512 512" style="enable-background:new 0 0 512 512;" xml:space="preserve">
<path style="fill:#00D0FF;" d="M315.969,60.02H59.994L0,451.981v29.997c0,16.498,13.499,29.997,29.997,29.997
	c5.614,0,285.971,0,285.971,0c8.283,0,14.999-6.715,14.999-14.999V75.018C330.967,66.733,324.252,60.02,315.969,60.02z"/>
<path style="fill:#00E3FF;" d="M59.994,15.024v436.956H29.997C13.499,451.981,0,465.479,0,481.978V30.023
	C0,13.524,13.499,0.026,29.997,0.026h14.999C53.396,0.026,59.994,6.624,59.994,15.024z"/>
<g>
	<path style="fill:#C5C9F7;" d="M466.953,211.005h-300.97c-8.4,0-14.999,6.598-14.999,14.999v210.979
		c0,8.398,6.598,14.999,14.999,14.999h300.97c8.4,0,14.999-6.6,14.999-14.999V226.003
		C481.952,217.603,475.354,211.005,466.953,211.005z"/>
	<path style="fill:#C5C9F7;" d="M481.952,226.003v210.979c0,8.398-6.598,14.999-14.999,14.999H315.969V211.005h150.985
		C475.354,211.005,481.952,217.603,481.952,226.003z"/>
</g>
<path style="fill:#007BFF;" d="M391.961,285.997v165.983H240.976V285.997c0-8.4,6.598-14.999,14.999-14.999h120.988
	C385.363,270.999,391.961,277.597,391.961,285.997z"/>
<path style="fill:#0050C7;" d="M391.961,285.997v165.983h-75.992V270.999h60.994C385.363,270.999,391.961,277.597,391.961,285.997z"
	/>
<path style="fill:#FF0B69;" d="M509.548,217.603l-59.994-89.991c-2.999-4.2-7.499-6.598-12.598-6.598H195.98
	c-5.098,0-9.599,2.399-12.598,6.598l-59.994,89.991c-3.001,4.801-3.301,10.5-0.601,15.599c2.701,4.799,7.799,7.799,13.199,7.799
	H496.95c5.399,0,10.498-3.001,13.199-7.799C512.85,228.103,512.55,222.404,509.548,217.603z"/>
<path style="fill:#DD025B;" d="M510.149,233.201c-2.701,4.799-7.799,7.799-13.199,7.799H315.969V121.013h120.988
	c5.098,0,9.599,2.399,12.598,6.598l59.994,89.991C512.55,222.404,512.85,228.103,510.149,233.201z"/>
<g>
</g>
<g>
</g>
<g>
</g>
<g>
</g>
<g>
</g>
<g>
</g>
<g>
</g>
<g>
</g>
<g>
</g>
<g>
</g>
<g>
</g>
<g>
</g>
<g>
</g>
<g>
</g>
<g>
</g>
</svg>
