<?xml version="1.0" encoding="iso-8859-1"?>
<!-- Generator: Adobe Illustrator 19.0.0, SVG Export Plug-In . SVG Version: 6.00 Build 0)  -->
<svg version="1.1" id="Capa_1" xmlns="http://www.w3.org/2000/svg" xmlns:xlink="http://www.w3.org/1999/xlink" x="0px" y="0px"
	 viewBox="0 0 512 512" style="enable-background:new 0 0 512 512;" xml:space="preserve">
<path style="fill:#C5C9F7;" d="M286,226v61c0,8.399-6.599,15-15,15s-15-6.601-15-15v-61c0-8.401,6.599-15,15-15S286,217.599,286,226
	z"/>
<path style="fill:#A8AFF1;" d="M286,226v61c0,8.399-6.599,15-15,15v-91C279.401,211,286,217.599,286,226z"/>
<path style="fill:#DD025B;" d="M391,362v30H151v-30c0-49.801,40.201-90,90-90h60C350.799,272,391,312.199,391,362z"/>
<path style="fill:#9E0A48;" d="M391,362v30H271V272h30C350.799,272,391,312.199,391,362z"/>
<path style="fill:#E1E4FB;" d="M361,362v30H181v-30c0-33.001,27.001-60,60-60h60C333.999,302,361,328.999,361,362z"/>
<path style="fill:#C5C9F7;" d="M361,362v30h-90v-90h30C333.999,302,361,328.999,361,362z"/>
<rect x="256" y="272" style="fill:#DD025B;" width="30" height="120"/>
<rect x="271" y="272" style="fill:#9E0A48;" width="15" height="120"/>
<path style="fill:#FF0B69;" d="M451,422v45c0,8.399-6.599,15-15,15H61c-8.401,0-15-6.601-15-15v-15c0-57.9,47.1-105,105-105h225
	C417.4,347,451,380.6,451,422z"/>
<path style="fill:#DD025B;" d="M451,422v45c0,8.399-6.599,15-15,15H271V347h105C417.4,347,451,380.6,451,422z"/>
<path style="fill:#C5C9F7;" d="M346,151l-63.6,76.199c-2.999,3.6-7.2,5.4-11.4,5.4s-8.401-1.8-11.4-5.4L196,151l15-30h106.8L346,151
	z"/>
<path style="fill:#A8AFF1;" d="M282.4,227.199c-2.999,3.6-7.2,5.4-11.4,5.4V121h46.8l28.2,30L282.4,227.199z"/>
<rect x="196" y="60" style="fill:#E1E4FB;" width="150" height="91"/>
<rect x="271" y="60" style="fill:#C5C9F7;" width="75" height="91"/>
<path style="fill:#7986E8;" d="M361,0H181c-8.401,0-15,6.599-15,15v30c0,24.901,20.099,45,45,45h120c24.901,0,45-20.099,45-45V15
	C376,6.599,369.401,0,361,0z"/>
<path style="fill:#6E77E5;" d="M331,90h-60V0h90c8.401,0,15,6.599,15,15v30C376,69.901,355.901,90,331,90z"/>
<g>
	<path style="fill:#007BFF;" d="M466,15c0,8.399-6.599,15-15,15H91c-8.401,0-15-6.601-15-15c0-8.401,6.599-15,15-15h360
		C459.401,0,466,6.599,466,15z"/>
	<path style="fill:#007BFF;" d="M151,422c-24.901,0-45,20.099-45,45c0,24.899,20.099,45,45,45s45-20.101,45-45
		C196,442.099,175.901,422,151,422z"/>
</g>
<path style="fill:#E1E4FB;" d="M151,452c-8.401,0-15,6.599-15,15c0,8.399,6.599,15,15,15s15-6.601,15-15
	C166,458.599,159.401,452,151,452z"/>
<path style="fill:#0050C7;" d="M346,422c-24.901,0-45,20.099-45,45c0,24.899,20.099,45,45,45s45-20.101,45-45
	C391,442.099,370.901,422,346,422z"/>
<path style="fill:#C5C9F7;" d="M346,452c-8.401,0-15,6.599-15,15c0,8.399,6.599,15,15,15s15-6.601,15-15
	C361,458.599,354.401,452,346,452z"/>
<path style="fill:#0050C7;" d="M466,15c0,8.399-6.599,15-15,15H271V0h180C459.401,0,466,6.599,466,15z"/>
<g>
</g>
<g>
</g>
<g>
</g>
<g>
</g>
<g>
</g>
<g>
</g>
<g>
</g>
<g>
</g>
<g>
</g>
<g>
</g>
<g>
</g>
<g>
</g>
<g>
</g>
<g>
</g>
<g>
</g>
</svg>
