<?xml version="1.0" encoding="iso-8859-1"?>
<!-- Generator: Adobe Illustrator 19.0.0, SVG Export Plug-In . SVG Version: 6.00 Build 0)  -->
<svg version="1.1" id="Capa_1" xmlns="http://www.w3.org/2000/svg" xmlns:xlink="http://www.w3.org/1999/xlink" x="0px" y="0px"
	 viewBox="0 0 512 512" style="enable-background:new 0 0 512 512;" xml:space="preserve">
<path style="fill:#7986E8;" d="M482,45v90c0,8.399-6.599,15-15,15s-15-6.601-15-15V45c0-8.401-6.599-15-15-15H241
	c-8.401,0-15,6.599-15,15v30c0,8.399-6.599,15-15,15s-15-6.601-15-15V45c0-13.2,5.7-25.201,15-33.3C218.8,4.499,229.3,0,241,0h196
	C461.901,0,482,20.099,482,45z"/>
<path style="fill:#6E77E5;" d="M482,45v90c0,8.399-6.599,15-15,15s-15-6.601-15-15V45c0-8.401-6.599-15-15-15H241
	c-8.401,0-15,6.599-15,15v30c0,8.399-6.599,15-15,15V11.7C218.8,4.499,229.3,0,241,0h196C461.901,0,482,20.099,482,45z"/>
<rect x="15" y="90" style="fill:#0050C7;" width="391" height="362"/>
<rect x="211" y="90" style="fill:#004597;" width="195" height="362"/>
<rect x="15" y="120" style="fill:#00E3FF;" width="391" height="271"/>
<rect x="211" y="120" style="fill:#00D0FF;" width="195" height="271"/>
<path style="fill:#C5C9F7;" d="M105,421c-8.291,0-15-6.709-15-15v-60c0-8.291,6.709-15,15-15s16,6.709,16,15v60
	C121,414.291,113.291,421,105,421z"/>
<path style="fill:#A8AFF1;" d="M316,421c-8.291,0-15-6.709-15-15v-60c0-8.291,6.709-15,15-15s15,6.709,15,15v60
	C331,414.291,324.291,421,316,421z"/>
<path style="fill:#004597;" d="M497,391h-91c-8.291,0-15-6.709-15-15V135c0-8.291,6.709-15,15-15h91c8.291,0,15,6.709,15,15v241
	C512,384.291,505.291,391,497,391z"/>
<path style="fill:#C5C9F7;" d="M226,165v61c0,8.399-6.599,15-15,15s-15-6.601-15-15v-61c0-8.401,6.599-15,15-15S226,156.599,226,165
	z"/>
<path style="fill:#007BFF;" d="M361,346c0,8.399-6.599,15-15,15H75c-8.401,0-15-6.601-15-15c0-8.401,6.599-15,15-15h271
	C354.401,331,361,337.599,361,346z"/>
<path style="fill:#0050C7;" d="M361,346c0,8.399-6.599,15-15,15H211v-30h135C354.401,331,361,337.599,361,346z"/>
<path style="fill:#A8AFF1;" d="M226,165v61c0,8.399-6.599,15-15,15v-91C219.401,150,226,156.599,226,165z"/>
<path style="fill:#7986E8;" d="M211,211c-32.999,0-60,26.999-60,60c0,32.999,27.001,60,60,60s60-27.001,60-60
	C271,237.999,243.999,211,211,211z"/>
<path style="fill:#6E77E5;" d="M271,271c0,32.999-27.001,60-60,60V211C243.999,211,271,237.999,271,271z"/>
<rect x="15" y="391" style="fill:#0050C7;" width="391" height="91"/>
<rect x="211" y="391" style="fill:#004597;" width="195" height="91"/>
<path style="fill:#007BFF;" d="M15,512c-8.291,0-15-6.709-15-15V75c0-8.291,6.709-15,15-15s15,6.709,15,15v422
	C30,505.291,23.291,512,15,512z"/>
<path style="fill:#0050C7;" d="M406,512c-8.291,0-15-6.709-15-15V75c0-8.291,6.709-15,15-15s15,6.709,15,15v422
	C421,505.291,414.291,512,406,512z"/>
<path style="fill:#C5C9F7;" d="M256,105v30c0,3.9-1.5,7.8-4.501,10.499l-30,30C218.8,178.5,214.9,180,211,180s-7.8-1.5-10.499-4.501
	l-30-30C167.5,142.8,166,138.9,166,135v-30c0-8.401,6.599-15,15-15h60C249.401,90,256,96.599,256,105z"/>
<path style="fill:#A8AFF1;" d="M256,105v30c0,3.9-1.5,7.8-4.501,10.499l-30,30C218.8,178.5,214.9,180,211,180V90h30
	C249.401,90,256,96.599,256,105z"/>
<path style="fill:#E1E4FB;" d="M286,75v30c0,8.284-6.716,15-15,15H151c-8.284,0-15-6.716-15-15V75c0-8.284,6.716-15,15-15h120
	C279.284,60,286,66.716,286,75z"/>
<path style="fill:#C5C9F7;" d="M271,120h-60V60h60c8.284,0,15,6.716,15,15v30C286,113.284,279.284,120,271,120z"/>
<g>
</g>
<g>
</g>
<g>
</g>
<g>
</g>
<g>
</g>
<g>
</g>
<g>
</g>
<g>
</g>
<g>
</g>
<g>
</g>
<g>
</g>
<g>
</g>
<g>
</g>
<g>
</g>
<g>
</g>
</svg>
