<?xml version="1.0" encoding="iso-8859-1"?>
<!-- Generator: Adobe Illustrator 19.0.0, SVG Export Plug-In . SVG Version: 6.00 Build 0)  -->
<svg version="1.1" id="Capa_1" xmlns="http://www.w3.org/2000/svg" xmlns:xlink="http://www.w3.org/1999/xlink" x="0px" y="0px"
	 viewBox="0 0 512 512" style="enable-background:new 0 0 512 512;" xml:space="preserve">
<path style="fill:#E1E4FB;" d="M496,45v347L376,512H61c-24.901,0-45-20.101-45-45V45C16,20.099,36.099,0,61,0h390
	C475.901,0,496,20.099,496,45z"/>
<path style="fill:#C5C9F7;" d="M496,45v347L376,512H256V0h195C475.901,0,496,20.099,496,45z"/>
<g>
	<path style="fill:#007BFF;" d="M406,150c0,32.999-27.001,60-60,60h-15c-8.401,0-15-6.601-15-15c0-8.401,6.599-15,15-15h15
		c16.5,0,30-13.5,30-30s-13.5-30-30-30H181c-8.401,0-15-6.601-15-15c0-8.401,6.599-15,15-15h165C378.999,90,406,116.999,406,150z"/>
	<path style="fill:#007BFF;" d="M286,195c0,8.399-6.599,15-15,15H166c-16.5,0-30,13.5-30,30s13.5,30,30,30h15
		c8.401,0,15,6.599,15,15c0,8.399-6.599,15-15,15h-15c-32.999,0-60-27.001-60-60c0-33.001,27.001-60,60-60h105
		C279.401,180,286,186.599,286,195z"/>
</g>
<path style="fill:#0050C7;" d="M401.587,274.376l-29.982-29.982c-5.859-5.859-15.352-5.859-21.211,0s-5.859,15.352,0,21.211
	l4.395,4.395H241c-8.291,0-15,6.709-15,15s6.709,15,15,15h113.789l-4.395,4.395c-5.859,5.859-5.859,15.352,0,21.211
	c2.93,2.93,6.768,4.395,10.605,4.395s7.676-1.465,10.605-4.395l29.982-29.982C407.423,289.804,407.459,280.233,401.587,274.376z"/>
<g>
	<path style="fill:#DD025B;" d="M181,392h-60c-8.291,0-15-6.709-15-15s6.709-15,15-15h60c8.291,0,15,6.709,15,15
		S189.291,392,181,392z"/>
	<path style="fill:#DD025B;" d="M241,452H121c-8.291,0-15-6.709-15-15s6.709-15,15-15h120c8.291,0,15,6.709,15,15
		S249.291,452,241,452z"/>
</g>
<g>
	<path style="fill:#0050C7;" d="M286,195c0,8.399-6.599,15-15,15h-15v-30h15C279.401,180,286,186.599,286,195z"/>
	<path style="fill:#0050C7;" d="M406,150c0,32.999-27.001,60-60,60h-15c-8.401,0-15-6.601-15-15c0-8.401,6.599-15,15-15h15
		c16.5,0,30-13.5,30-30s-13.5-30-30-30h-90V90h90C378.999,90,406,116.999,406,150z"/>
</g>
<path style="fill:#A8AFF1;" d="M391,392c-8.284,0-15,6.714-15,15v105h15c8.581,0,11.996-6.407,15-8.789L487.211,422
	c2.614-3.069,8.789-6.736,8.789-15v-15H391z"/>
<path style="fill:#9E0A48;" d="M301,240c-24.814,0-45-20.186-45-45s20.186-45,45-45s45,20.186,45,45S325.814,240,301,240z"/>
<g>
	<path style="fill:#DD025B;" d="M211,330c-24.814,0-45-20.186-45-45s20.186-45,45-45s45,20.186,45,45S235.814,330,211,330z"/>
	<path style="fill:#DD025B;" d="M151,150c-24.814,0-45-20.186-45-45s20.186-45,45-45s45,20.186,45,45S175.814,150,151,150z"/>
</g>
<g>
</g>
<g>
</g>
<g>
</g>
<g>
</g>
<g>
</g>
<g>
</g>
<g>
</g>
<g>
</g>
<g>
</g>
<g>
</g>
<g>
</g>
<g>
</g>
<g>
</g>
<g>
</g>
<g>
</g>
</svg>
