<?xml version="1.0" encoding="iso-8859-1"?>
<!-- Generator: Adobe Illustrator 19.0.0, SVG Export Plug-In . SVG Version: 6.00 Build 0)  -->
<svg version="1.1" id="Capa_1" xmlns="http://www.w3.org/2000/svg" xmlns:xlink="http://www.w3.org/1999/xlink" x="0px" y="0px"
	 viewBox="0 0 512 512" style="enable-background:new 0 0 512 512;" xml:space="preserve">
<path style="fill:#00E3FF;" d="M301,91v15H151V91c0-41.4,33.6-75,75-75c20.7,0,39.6,8.401,53.101,21.899
	C292.599,51.4,301,70.3,301,91z"/>
<path style="fill:#00D0FF;" d="M301,106h-75V16c20.7,0,39.6,8.401,53.101,21.899C292.599,51.4,301,70.3,301,91V106z"/>
<path style="fill:#00E3FF;" d="M301,346v15c0,41.4-33.6,75-75,75s-75-33.6-75-75v-15H301z"/>
<path style="fill:#00D0FF;" d="M226,346h75v15c0,41.4-33.6,75-75,75V346z"/>
<path style="fill:#007BFF;" d="M451,331v15c0,16.5-13.5,30-30,30H30c-16.5,0-30-13.5-30-30v-15c0-8.401,6.599-15,15-15h421
	C444.401,316,451,322.599,451,331z"/>
<path style="fill:#0050C7;" d="M451,331v15c0,16.5-13.5,30-30,30H226v-60h210C444.401,316,451,322.599,451,331z"/>
<path style="fill:#007BFF;" d="M451,106v15c0,8.401-6.599,15-15,15H15c-8.401,0-15-6.599-15-15v-15c0-16.5,13.5-30,30-30h391
	C437.5,76,451,89.5,451,106z"/>
<path style="fill:#0050C7;" d="M451,106v15c0,8.401-6.599,15-15,15H226V76h195C437.5,76,451,89.5,451,106z"/>
<path style="fill:#00E3FF;" d="M406,286c0,16.5-13.5,30-30,30H196c-16.5,0-30-13.5-30-30s13.5-30,30-30h180
	C392.5,256,406,269.5,406,286z"/>
<path style="fill:#A8AFF1;" d="M406,286c0,16.5-13.5,30-30,30H226v-60h150C392.5,256,406,269.5,406,286z"/>
<path style="fill:#A8AFF1;" d="M406,226c0,16.5-13.5,30-30,30H76c-16.5,0-30-13.5-30-30s13.5-30,30-30h300
	C392.5,196,406,209.5,406,226z"/>
<path style="fill:#C5C9F7;" d="M406,166c0,16.5-13.5,30-30,30H76c-16.5,0-30-13.5-30-30s13.5-30,30-30h300
	C392.5,136,406,149.5,406,166z"/>
<path style="fill:#98A1EC;" d="M376,256H226v-60h150c16.5,0,30,13.5,30,30S392.5,256,376,256z"/>
<path style="fill:#A8AFF1;" d="M376,196H226v-60h150c16.5,0,30,13.5,30,30S392.5,196,376,196z"/>
<path style="fill:#E1E4FB;" d="M512,466c0,16.5-13.5,30-30,30h-76c-66.301,0-120-53.699-120-120c0-32.999-27.001-60-60-60H76
	c-16.5,0-30-13.5-30-30s13.5-30,30-30h150c66.301,0,120,53.699,120,120c0,32.999,27.001,60,60,60h76C498.5,436,512,449.5,512,466z"
	/>
<path style="fill:#C5C9F7;" d="M512,466c0,16.5-13.5,30-30,30h-76c-66.301,0-120-53.699-120-120c0-32.999-27.001-60-60-60v-60
	c66.301,0,120,53.699,120,120c0,32.999,27.001,60,60,60h76C498.5,436,512,449.5,512,466z"/>
<g>
</g>
<g>
</g>
<g>
</g>
<g>
</g>
<g>
</g>
<g>
</g>
<g>
</g>
<g>
</g>
<g>
</g>
<g>
</g>
<g>
</g>
<g>
</g>
<g>
</g>
<g>
</g>
<g>
</g>
</svg>
