<?xml version="1.0" encoding="iso-8859-1"?>
<!-- Generator: Adobe Illustrator 19.0.0, SVG Export Plug-In . SVG Version: 6.00 Build 0)  -->
<svg version="1.1" id="Capa_1" xmlns="http://www.w3.org/2000/svg" xmlns:xlink="http://www.w3.org/1999/xlink" x="0px" y="0px"
	 viewBox="0 0 512 512" style="enable-background:new 0 0 512 512;" xml:space="preserve">
<path style="fill:#007BFF;" d="M144.921,260.146c-15.996,0-31.992-1.948-47.637-5.874l-24.917-6.226
	c-8.042-2.007-12.935-10.151-10.913-18.179c1.992-8.057,10.151-12.949,18.179-10.913l24.917,6.226
	c29.385,7.31,60.22,6.548,89.18-2.373c7.895-2.49,16.289,2.036,18.75,9.932c2.432,7.925-2.007,16.318-9.932,18.75
	C183.798,257.245,164.359,260.146,144.921,260.146z"/>
<path style="fill:#0050C7;" d="M437,241H256c-8.291,0-15-6.709-15-15s6.709-15,15-15h181c8.291,0,15,6.709,15,15
	S445.291,241,437,241z"/>
<path style="fill:#007BFF;" d="M241,256v181c0,8.399-6.599,15-15,15s-15-6.601-15-15V256c0-8.401,6.599-15,15-15
	S241,247.599,241,256z"/>
<path style="fill:#0050C7;" d="M241,256v181c0,8.399-6.599,15-15,15V241C234.401,241,241,247.599,241,256z"/>
<path style="fill:#007BFF;" d="M251.499,202.599c-2.098,6.301-7.798,10.501-14.399,10.501c-1.5,0-2.999-0.3-4.501-0.601
	c-2.699-0.901-4.799-2.401-6.599-4.501c-3.6-3.6-4.799-9-3.3-14.399c1.199-3.9,2.399-8.101,3.3-12.001c5.4-24,5.7-48.898,0-72.9
	c-0.3-1.5-0.601-2.699-0.901-4.199L219.101,79.6c-1.8-6.601,1.199-13.5,6.899-16.5c1.199-0.601,2.401-1.201,3.9-1.501
	c8.101-2.098,16.199,2.701,17.999,10.801l6.301,24.899C262.899,132.1,262,168.399,251.499,202.599z"/>
<path style="fill:#0050C7;" d="M251.499,202.599c-2.098,6.301-7.798,10.501-14.399,10.501c-1.5,0-2.999-0.3-4.501-0.601
	c-2.699-0.901-4.799-2.401-6.599-4.501v-26.4c5.4-24,5.7-48.898,0-72.9V63.1c1.199-0.601,2.401-1.201,3.9-1.501
	c8.101-2.098,16.199,2.701,17.999,10.801l6.301,24.899C262.899,132.1,262,168.399,251.499,202.599z"/>
<g>
	<path style="fill:#FF0B69;" d="M256,0h-60c-8.401,0-15,6.599-15,15v61c0,8.399,6.599,15,15,15h60c8.401,0,15-6.601,15-15V15
		C271,6.599,264.401,0,256,0z"/>
	<path style="fill:#FF0B69;" d="M76,271H15c-8.291,0-15-6.709-15-15v-60c0-8.291,6.709-15,15-15h61c8.291,0,15,6.709,15,15v60
		C91,264.291,84.291,271,76,271z"/>
	<path style="fill:#FF0B69;" d="M256,422h-60c-8.401,0-15,6.599-15,15v60c0,8.399,6.599,15,15,15h60c8.401,0,15-6.601,15-15v-60
		C271,428.599,264.401,422,256,422z"/>
</g>
<path style="fill:#DD025B;" d="M497,271h-60c-8.291,0-15-6.709-15-15v-60c0-8.291,6.709-15,15-15h60c8.291,0,15,6.709,15,15v60
	C512,264.291,505.291,271,497,271z"/>
<path style="fill:#7986E8;" d="M472,367.299l-148.5-63.6C317.8,301.3,311.201,302.5,307,307c-4.501,4.199-5.7,10.8-3.3,16.5
	L367.3,472c2.399,5.4,7.798,9,13.799,9c0.3,0,0.601,0,0.601,0c6.301-0.3,11.7-4.501,13.801-10.201l18.6-56.7l56.699-18.6
	c5.7-2.1,9.901-7.5,10.201-13.799C481.3,375.399,477.7,369.699,472,367.299z"/>
<path style="fill:#6E77E5;" d="M414.101,414.099l-18.6,56.7c-2.1,5.7-7.5,9.901-13.801,10.201c0,0-0.3,0-0.601,0
	c-6,0-11.4-3.6-13.799-9l-63.6-148.5c-2.401-5.7-1.201-12.301,3.3-16.5L414.101,414.099z"/>
<g>
	<path style="fill:#DD025B;" d="M271,15v61c0,8.399-6.599,15-15,15h-30V0h30C264.401,0,271,6.599,271,15z"/>
	<path style="fill:#DD025B;" d="M271,437v60c0,8.399-6.599,15-15,15h-30v-90h30C264.401,422,271,428.599,271,437z"/>
</g>
<path style="fill:#00E3FF;" d="M226,181c-24.901,0-45,20.099-45,45c0,24.899,20.099,45,45,45s45-20.101,45-45
	C271,201.099,250.901,181,226,181z"/>
<path style="fill:#00D0FF;" d="M271,226c0,24.899-20.099,45-45,45v-90C250.901,181,271,201.099,271,226z"/>
<g>
</g>
<g>
</g>
<g>
</g>
<g>
</g>
<g>
</g>
<g>
</g>
<g>
</g>
<g>
</g>
<g>
</g>
<g>
</g>
<g>
</g>
<g>
</g>
<g>
</g>
<g>
</g>
<g>
</g>
</svg>
