<?xml version="1.0" encoding="iso-8859-1"?>
<!-- Generator: Adobe Illustrator 19.0.0, SVG Export Plug-In . SVG Version: 6.00 Build 0)  -->
<svg version="1.1" id="Capa_1" xmlns="http://www.w3.org/2000/svg" xmlns:xlink="http://www.w3.org/1999/xlink" x="0px" y="0px"
	 viewBox="0 0 512 512" style="enable-background:new 0 0 512 512;" xml:space="preserve">
<path style="fill:#7986E8;" d="M512,451v46c0,8.399-6.599,15-15,15H15c-8.401,0-15-6.601-15-15v-46l31-30h435L512,451z"/>
<g>
	<path style="fill:#6E77E5;" d="M512,451v46c0,8.399-6.599,15-15,15H256v-91h210L512,451z"/>
	<path style="fill:#6E77E5;" d="M512,451H0l29.5-226.8c0.899-7.5,7.2-13.2,14.7-13.2h423.6c7.5,0,13.801,5.7,14.7,13.2L512,451z"/>
</g>
<path style="fill:#4C5CE1;" d="M512,451H256V211h211.8c7.5,0,13.801,5.7,14.7,13.2L512,451z"/>
<path style="fill:#007BFF;" d="M451,331c0,21.299-36,39.899-90,50.7H151c-54-10.801-90-29.401-90-50.7c0-15.601,19.799-30,52.2-40.8
	C148.9,278.5,199.6,271,256,271s107.1,7.5,142.8,19.2C431.201,301,451,315.399,451,331z"/>
<path style="fill:#0050C7;" d="M451,331c0,21.299-36,39.899-90,50.7H256V271c56.4,0,107.1,7.5,142.8,19.2
	C431.201,301,451,315.399,451,331z"/>
<g>
	<path style="fill:#FEC478;" d="M259.6,181c-1.199,0-2.401,0-3.6-0.3V0.3c1.199-0.3,2.401-0.3,3.6-0.3h0.3c18.6,0,33.6,15,33.6,33.6
		v113.8c0,18.6-15,33.6-33.6,33.6H259.6z"/>
	<path style="fill:#FEC478;" d="M421,45v181c0,23.699-8.101,46.199-22.2,64.2c-9.6,12.9-22.8,23.399-37.8,30.599V381.7
		c-30.3,6-66.301,9.3-105,9.3s-74.7-3.3-105-9.3v-60.901c-15-7.2-28.2-17.699-37.8-30.599C99.101,272.199,91,249.699,91,226v-60
		c0-8.401,6.599-15,15-15l225-46c0-41.4,33.6-75,75-75C414.401,30,421,36.599,421,45z"/>
</g>
<path style="fill:#FEB756;" d="M421,45v181c0,23.699-8.101,46.199-22.2,64.2c-9.6,12.9-22.8,23.399-37.8,30.599V381.7
	c-30.3,6-66.301,9.3-105,9.3V120l75-15c0-41.4,33.6-75,75-75C414.401,30,421,36.599,421,45z"/>
<path style="fill:#FEDBAB;" d="M360.099,230.799c-2.399,7.8-10.8,12.001-18.898,9.3C309.699,229.6,276.4,239.799,256,263.5
	c-6.899,7.5-12.001,16.5-15.601,26.7c-1.8,5.999-7.2,10.8-13.799,11.1c0,0-0.3,0-0.601,0c-8.101,0-14.7-6-15-14.101v-0.601
	c0-1.8,0.3-3.6,0.901-5.4c8.099-24.3,24-44.099,44.099-56.999c27.001-17.701,61.8-23.401,94.799-12.301
	C358.599,214.3,362.8,222.999,360.099,230.799z"/>
<path style="fill:#FEC478;" d="M256,263.5v-39.3c27.001-17.701,61.8-23.401,94.799-12.301c7.8,2.401,12.001,11.1,9.3,18.9
	c-2.399,7.8-10.8,12.001-18.898,9.3C309.699,229.6,276.4,239.799,256,263.5z"/>
<g>
	<path style="fill:#FEDBAB;" d="M124.75,181L124.75,181C106.11,181,91,165.89,91,147.25v-83.5C91,45.11,106.11,30,124.75,30l0,0
		c18.64,0,33.75,15.11,33.75,33.75v83.5C158.5,165.89,143.39,181,124.75,181z"/>
	<path style="fill:#FEDBAB;" d="M192.25,181L192.25,181c-18.64,0-33.75-15.11-33.75-33.75V33.75C158.5,15.11,173.61,0,192.25,0l0,0
		C210.89,0,226,15.11,226,33.75v113.5C226,165.89,210.89,181,192.25,181z"/>
	<path style="fill:#FEDBAB;" d="M293.5,33.6v113.8c0,18.6-15,33.6-33.6,33.6h-0.3c-1.199,0-2.401,0-3.6-0.3
		c-16.8-1.8-30-15.901-30-33.3V33.6c0-17.401,13.2-31.5,30-33.3c1.199-0.3,2.401-0.3,3.6-0.3h0.3C278.5,0,293.5,15,293.5,33.6z"/>
</g>
<g>
	<path style="fill:#FEC478;" d="M327.25,181L327.25,181c-18.64,0-33.75-15.11-33.75-33.75V33.75C293.5,15.11,308.61,0,327.25,0l0,0
		C345.89,0,361,15.11,361,33.75v113.5C361,165.89,345.89,181,327.25,181z"/>
	<path style="fill:#FEC478;" d="M259.9,181c18.6,0,33.6-15,33.6-33.6V33.6c0-18.6-15-33.6-33.6-33.6h-0.3c-1.199,0-2.401,0-3.6,0.3
		v180.4c1.199,0.3,2.401,0.3,3.6,0.3H259.9z"/>
</g>
<g>
</g>
<g>
</g>
<g>
</g>
<g>
</g>
<g>
</g>
<g>
</g>
<g>
</g>
<g>
</g>
<g>
</g>
<g>
</g>
<g>
</g>
<g>
</g>
<g>
</g>
<g>
</g>
<g>
</g>
</svg>
