<?xml version="1.0" encoding="iso-8859-1"?>
<!-- Generator: Adobe Illustrator 19.0.0, SVG Export Plug-In . SVG Version: 6.00 Build 0)  -->
<svg version="1.1" id="Capa_1" xmlns="http://www.w3.org/2000/svg" xmlns:xlink="http://www.w3.org/1999/xlink" x="0px" y="0px"
	 viewBox="0 0 512 512" style="enable-background:new 0 0 512 512;" xml:space="preserve">
<path style="fill:#0050C7;" d="M437,61H75c-24.901,0-45,20.099-45,45v300c0,8.399,6.599,15,15,15h422c8.401,0,15-6.601,15-15V106
	C482,81.099,461.901,61,437,61z"/>
<path style="fill:#004597;" d="M482,106v300c0,8.399-6.599,15-15,15H256V61h181C461.901,61,482,81.099,482,106z"/>
<path style="fill:#00E3FF;" d="M452,106v315H60V106c0-8.401,6.599-15,15-15h362C445.401,91,452,97.599,452,106z"/>
<path style="fill:#00D0FF;" d="M452,106v315H256V91h181C445.401,91,452,97.599,452,106z"/>
<path style="fill:#DD025B;" d="M271,166v120c0,30.899-46.8,45-90,45s-90-14.101-90-45V166c0-8.401,6.599-15,15-15h150
	C264.401,151,271,157.599,271,166z"/>
<g>
	<path style="fill:#0050C7;" d="M407,181h-61c-8.291,0-15-6.709-15-15s6.709-15,15-15h61c8.291,0,15,6.709,15,15
		S415.291,181,407,181z"/>
	<path style="fill:#0050C7;" d="M407,241h-61c-8.291,0-15-6.709-15-15s6.709-15,15-15h61c8.291,0,15,6.709,15,15
		S415.291,241,407,241z"/>
	<path style="fill:#0050C7;" d="M407,301h-61c-8.291,0-15-6.709-15-15s6.709-15,15-15h61c8.291,0,15,6.709,15,15
		S415.291,301,407,301z"/>
</g>
<path style="fill:#9E0A48;" d="M271,166v120c0,30.899-46.8,45-90,45V151h75C264.401,151,271,157.599,271,166z"/>
<path style="fill:#FF0B69;" d="M181,121c-43.2,0-90,14.099-90,45c0,30.899,46.8,45,90,45s90-14.101,90-45
	C271,135.099,224.2,121,181,121z"/>
<path style="fill:#DD025B;" d="M271,166c0,30.899-46.8,45-90,45v-90C224.2,121,271,135.099,271,166z"/>
<path style="fill:#007BFF;" d="M512,406v15c0,16.5-13.5,30-30,30H30c-16.5,0-30-13.5-30-30v-15c0-8.401,6.599-15,15-15h482
	C505.401,391,512,397.599,512,406z"/>
<path style="fill:#0050C7;" d="M512,406v15c0,16.5-13.5,30-30,30H256v-60h241C505.401,391,512,397.599,512,406z"/>
<g>
</g>
<g>
</g>
<g>
</g>
<g>
</g>
<g>
</g>
<g>
</g>
<g>
</g>
<g>
</g>
<g>
</g>
<g>
</g>
<g>
</g>
<g>
</g>
<g>
</g>
<g>
</g>
<g>
</g>
</svg>
