<?xml version="1.0" encoding="iso-8859-1"?>
<!-- Generator: Adobe Illustrator 19.0.0, SVG Export Plug-In . SVG Version: 6.00 Build 0)  -->
<svg version="1.1" id="Capa_1" xmlns="http://www.w3.org/2000/svg" xmlns:xlink="http://www.w3.org/1999/xlink" x="0px" y="0px"
	 viewBox="0 0 512 512" style="enable-background:new 0 0 512 512;" xml:space="preserve">
<polygon style="fill:#0050C7;" points="482,60 482,512 30,512 30,60 181,60 211,105 301,105 331,60 "/>
<polygon style="fill:#004597;" points="482,60 482,512 256,512 256,105 301,105 331,60 "/>
<rect x="30" y="90" style="fill:#00E3FF;" width="452" height="392"/>
<rect x="256" y="90" style="fill:#00D0FF;" width="226" height="392"/>
<path style="fill:#7986E8;" d="M497,15c0,8.399-6.599,15-15,15H316c-24.901,0-45,20.099-45,45c0,8.399-6.599,15-15,15
	s-15-6.601-15-15c0-16.8,5.4-32.401,15-44.7C269.5,11.999,291.4,0,316,0h166C490.401,0,497,6.599,497,15z"/>
<path style="fill:#6E77E5;" d="M497,15c0,8.399-6.599,15-15,15H316c-24.901,0-45,20.099-45,45c0,8.399-6.599,15-15,15V30.3
	C269.5,11.999,291.4,0,316,0h166C490.401,0,497,6.599,497,15z"/>
<path style="fill:#007BFF;" d="M60,512H15c-8.284,0-15-6.716-15-15V30C0,13.431,13.431,0,30,0l0,0c16.569,0,30,13.431,30,30V512z"/>
<path style="fill:#0050C7;" d="M512,497c0,8.284-6.716,15-15,15h-45V30c0-16.569,13.431-30,30-30l0,0c16.569,0,30,13.431,30,30V497z
	"/>
<path style="fill:#7986E8;" d="M286,90h-60c-8.401,0-15,6.599-15,15v30c0,3.9,1.5,7.8,4.501,10.499l25.499,25.5V287
	c0,8.399,6.599,15,15,15s15-6.601,15-15V170.999l25.499-25.499C299.5,142.8,301,138.9,301,135v-30C301,96.599,294.401,90,286,90z"/>
<path style="fill:#6E77E5;" d="M286,90h-30v212c8.401,0,15-6.601,15-15V170.999l25.499-25.499C299.5,142.8,301,138.9,301,135v-30
	C301,96.599,294.401,90,286,90z"/>
<path style="fill:#E1E4FB;" d="M331,60v45c0,8.399-6.599,15-15,15H196c-8.401,0-15-6.601-15-15V60H331z"/>
<path style="fill:#C5C9F7;" d="M316,120h-60V60h75v45C331,113.399,324.401,120,316,120z"/>
<path style="fill:#E1E4FB;" d="M323.8,367.4l6-8.699C340.3,343.7,346,320.6,346,302c0-25.8-10.499-33.9-32.1-33.9
	c-7.5,0-15.601,0.899-24.3,1.8c-10.199,0.899-21.899,1.5-33.6,1.5s-23.401-0.601-33.9-1.5c-8.399-0.901-16.5-1.8-24-1.8
	c-21.899,0-32.1,8.399-32.1,33.9c0,18.6,5.7,41.7,16.199,56.7l6,8.699l-6,8.699C171.7,391.099,166,408.8,166,427.4
	c0,8.699,4.501,40.199,39.6,53.399c4.799,1.8,9.901,1.201,14.099-1.8c3.9-2.699,6.301-7.2,6.301-12.299v-39.3c0-16.5,13.5-30,30-30
	s30,13.5,30,30v39.3c0,5.099,2.401,9.6,6.301,12.299c4.199,3.001,9.3,3.6,14.099,1.8c35.099-13.2,39.6-44.7,39.6-53.399
	c0-18.6-5.7-36.301-16.199-51.301L323.8,367.4z"/>
<path style="fill:#C5C9F7;" d="M329.801,376.099C340.3,391.099,346,408.8,346,427.4c0,8.699-4.501,40.199-39.6,53.399
	c-4.799,1.8-9.901,1.201-14.099-1.8c-3.9-2.699-6.301-7.2-6.301-12.299v-39.3c0-16.5-13.5-30-30-30v-126
	c11.7,0,23.401-0.601,33.6-1.5c8.699-0.901,16.8-1.8,24.3-1.8c21.601,0,32.1,8.101,32.1,33.9c0,18.6-5.7,41.7-16.199,56.7l-6,8.699
	L329.801,376.099z"/>
<g>
</g>
<g>
</g>
<g>
</g>
<g>
</g>
<g>
</g>
<g>
</g>
<g>
</g>
<g>
</g>
<g>
</g>
<g>
</g>
<g>
</g>
<g>
</g>
<g>
</g>
<g>
</g>
<g>
</g>
</svg>
