<?xml version="1.0" encoding="iso-8859-1"?>
<!-- Generator: Adobe Illustrator 19.0.0, SVG Export Plug-In . SVG Version: 6.00 Build 0)  -->
<svg version="1.1" id="Capa_1" xmlns="http://www.w3.org/2000/svg" xmlns:xlink="http://www.w3.org/1999/xlink" x="0px" y="0px"
	 viewBox="0 0 512 512" style="enable-background:new 0 0 512 512;" xml:space="preserve">
<polygon style="fill:#0050C7;" points="482,60 482,422 30,422 30,60 181,60 211,105 301,105 331,60 "/>
<polygon style="fill:#004597;" points="482,60 482,422 256,422 256,105 301,105 331,60 "/>
<rect x="30" y="392" style="fill:#0050C7;" width="452" height="120"/>
<rect x="256" y="392" style="fill:#004597;" width="226" height="120"/>
<rect x="30" y="90" style="fill:#00E3FF;" width="452" height="302"/>
<rect x="256" y="90" style="fill:#00D0FF;" width="226" height="302"/>
<g>
	<circle style="fill:#E1E4FB;" cx="136" cy="437" r="15"/>
	<circle style="fill:#E1E4FB;" cx="196" cy="437" r="15"/>
</g>
<path style="fill:#7986E8;" d="M391,437c0,8.399-6.599,15-15,15H256c-8.401,0-15-6.601-15-15c0-8.401,6.599-15,15-15h120
	C384.401,422,391,428.599,391,437z"/>
<path style="fill:#6E77E5;" d="M391,437c0,8.399-6.599,15-15,15H256v-30h120C384.401,422,391,428.599,391,437z"/>
<path style="fill:#FF0B69;" d="M256,242c-41.4,0-75,33.6-75,75s33.6,75,75,75s75-33.6,75-75S297.4,242,256,242z"/>
<g>
	<path style="fill:#7986E8;" d="M301,105v30c0,3.9-1.5,7.8-4.501,10.499l-30,30C263.8,178.5,259.9,180,256,180
		s-7.8-1.5-10.499-4.501l-30-30C212.5,142.8,211,138.9,211,135v-30c0-8.401,6.599-15,15-15h60C294.401,90,301,96.599,301,105z"/>
	<path style="fill:#7986E8;" d="M497,15c0,8.399-6.599,15-15,15H316c-24.901,0-45,20.099-45,45c0,8.399-6.599,15-15,15
		s-15-6.601-15-15c0-16.8,5.4-32.401,15-44.7C269.5,11.999,291.4,0,316,0h166C490.401,0,497,6.599,497,15z"/>
</g>
<path style="fill:#DD025B;" d="M331,317c0,41.4-33.6,75-75,75V242C297.4,242,331,275.6,331,317z"/>
<g>
	<path style="fill:#6E77E5;" d="M497,15c0,8.399-6.599,15-15,15H316c-24.901,0-45,20.099-45,45c0,8.399-6.599,15-15,15V30.3
		C269.5,11.999,291.4,0,316,0h166C490.401,0,497,6.599,497,15z"/>
	<path style="fill:#6E77E5;" d="M301,105v30c0,3.9-1.5,7.8-4.501,10.499l-30,30C263.8,178.5,259.9,180,256,180V90h30
		C294.401,90,301,96.599,301,105z"/>
</g>
<path style="fill:#007BFF;" d="M60,512H15c-8.284,0-15-6.716-15-15V30C0,13.431,13.431,0,30,0l0,0c16.569,0,30,13.431,30,30V512z"/>
<path style="fill:#0050C7;" d="M497,512h-45V30c0-16.569,13.431-30,30-30l0,0c16.569,0,30,13.431,30,30v467
	C512,505.284,505.284,512,497,512z"/>
<path style="fill:#C5C9F7;" d="M331,60v45c0,8.399-6.599,15-15,15H196c-8.401,0-15-6.601-15-15V60H331z"/>
<path style="fill:#A8AFF1;" d="M316,120h-60V60h75v45C331,113.399,324.401,120,316,120z"/>
<g>
</g>
<g>
</g>
<g>
</g>
<g>
</g>
<g>
</g>
<g>
</g>
<g>
</g>
<g>
</g>
<g>
</g>
<g>
</g>
<g>
</g>
<g>
</g>
<g>
</g>
<g>
</g>
<g>
</g>
</svg>
