<?xml version="1.0" encoding="iso-8859-1"?>
<!-- Generator: Adobe Illustrator 19.0.0, SVG Export Plug-In . SVG Version: 6.00 Build 0)  -->
<svg version="1.1" id="Capa_1" xmlns="http://www.w3.org/2000/svg" xmlns:xlink="http://www.w3.org/1999/xlink" x="0px" y="0px"
	 viewBox="0 0 512 512" style="enable-background:new 0 0 512 512;" xml:space="preserve">
<path style="fill:#FF0B69;" d="M505.101,333.401l-241-150c-2.701-1.8-5.4-2.401-8.101-2.401s-5.4,0.601-8.101,2.401l-241,150
	C2.701,336.099,0,340.901,0,346s2.701,9.901,6.899,12.599l241,151c2.701,1.5,5.4,2.401,8.101,2.401c2.701,0,5.4-0.901,8.101-2.401
	l241-151C509.3,355.9,512,351.099,512,346S509.299,336.099,505.101,333.401z"/>
<path style="fill:#DD025B;" d="M512,346c0,5.099-2.701,9.901-6.899,12.599l-241,151c-2.701,1.5-5.4,2.401-8.101,2.401V181
	c2.701,0,5.4,0.601,8.101,2.401l241,150C509.299,336.099,512,340.901,512,346z"/>
<path style="fill:#7986E8;" d="M505.101,243.401l-241-150C261.4,91.601,258.701,91,256,91s-5.4,0.601-8.101,2.401l-241,150
	C2.701,246.099,0,250.901,0,256s2.701,9.901,6.899,12.599l241,150c2.701,1.5,5.4,2.401,8.101,2.401c2.701,0,5.4-0.901,8.101-2.401
	l241-150C509.3,265.9,512,261.099,512,256S509.299,246.099,505.101,243.401z"/>
<path style="fill:#6E77E5;" d="M512,256c0,5.099-2.701,9.901-6.899,12.599l-241,150c-2.701,1.5-5.4,2.401-8.101,2.401V91
	c2.701,0,5.4,0.601,8.101,2.401l241,150C509.299,246.099,512,250.901,512,256z"/>
<path style="fill:#FEDB41;" d="M505.101,153.401l-241-151C261.4,0.601,258.701,0,256,0s-5.4,0.601-8.101,2.401l-241,151
	C2.701,156.099,0,160.901,0,166s2.701,9.901,6.899,12.599l241,150c2.701,1.5,5.4,2.401,8.101,2.401c2.701,0,5.4-0.901,8.101-2.401
	l241-150C509.3,175.9,512,171.099,512,166S509.299,156.099,505.101,153.401z"/>
<path style="fill:#FCBF29;" d="M512,166c0,5.099-2.701,9.901-6.899,12.599l-241,150c-2.701,1.5-5.4,2.401-8.101,2.401V0
	c2.701,0,5.4,0.601,8.101,2.401l241,151C509.299,156.099,512,160.901,512,166z"/>
<g>
</g>
<g>
</g>
<g>
</g>
<g>
</g>
<g>
</g>
<g>
</g>
<g>
</g>
<g>
</g>
<g>
</g>
<g>
</g>
<g>
</g>
<g>
</g>
<g>
</g>
<g>
</g>
<g>
</g>
</svg>
