<?xml version="1.0" encoding="iso-8859-1"?>
<!-- Generator: Adobe Illustrator 19.0.0, SVG Export Plug-In . SVG Version: 6.00 Build 0)  -->
<svg version="1.1" id="Capa_1" xmlns="http://www.w3.org/2000/svg" xmlns:xlink="http://www.w3.org/1999/xlink" x="0px" y="0px"
	 viewBox="0 0 512 512" style="enable-background:new 0 0 512 512;" xml:space="preserve">
<path style="fill:#FEDB41;" d="M512,377c0,24.901-20.099,45-45,45h-91c-8.401,0-15-6.599-15-15s6.599-15,15-15h91
	c8.401,0,15-6.599,15-15s-6.599-15-15-15H286c-11.7,0-22.2-4.501-30-11.7c-9.3-8.099-15-20.099-15-33.3v-60c0-8.401,6.599-15,15-15
	s15,6.599,15,15v60c0,8.401,6.599,15,15,15h181C491.901,332,512,352.099,512,377z"/>
<path style="fill:#FCBF29;" d="M286,362c-11.7,0-22.2-4.501-30-11.7V242c8.401,0,15,6.599,15,15v60c0,8.401,6.599,15,15,15h181
	c24.901,0,45,20.099,45,45s-20.099,45-45,45h-91c-8.401,0-15-6.599-15-15s6.599-15,15-15h91c8.401,0,15-6.599,15-15s-6.599-15-15-15
	H286z"/>
<path style="fill:#C5C9F7;" d="M331,182l-63.6,76.199c-2.999,3.6-7.2,5.4-11.4,5.4s-8.401-1.8-11.4-5.4L181,182l15-31h106.8L331,182
	z"/>
<path style="fill:#A8AFF1;" d="M267.4,258.199c-2.999,3.6-7.2,5.4-11.4,5.4V151h46.8l28.2,31L267.4,258.199z"/>
<rect x="181" y="91" style="fill:#E1E4FB;" width="150" height="91"/>
<rect x="256" y="91" style="fill:#C5C9F7;" width="75" height="91"/>
<path style="fill:#7986E8;" d="M346,0H166c-8.401,0-15,6.599-15,15v61c0,24.901,20.099,45,45,45h120c24.901,0,45-20.099,45-45V15
	C361,6.599,354.401,0,346,0z"/>
<path style="fill:#007BFF;" d="M451,15c0,8.401-6.599,15-15,15H76c-8.401,0-15-6.599-15-15S67.599,0,76,0h360
	C444.401,0,451,6.599,451,15z"/>
<path style="fill:#FEA832;" d="M512,422c0,16.5-13.5,30-30,30H30c-16.5,0-30-13.5-30-30s13.5-30,30-30h452
	C498.5,392,512,405.5,512,422z"/>
<path style="fill:#FEDB41;" d="M512,482c0,16.5-13.5,30-30,30H30c-16.5,0-30-13.5-30-30s13.5-30,30-30h452
	C498.5,452,512,465.5,512,482z"/>
<path style="fill:#6E77E5;" d="M316,121h-60V0h90c8.401,0,15,6.599,15,15v61C361,100.901,340.901,121,316,121z"/>
<path style="fill:#FE9923;" d="M512,422c0,16.5-13.5,30-30,30H256v-60h226C498.5,392,512,405.5,512,422z"/>
<path style="fill:#0050C7;" d="M436,30H256V0h180c8.401,0,15,6.599,15,15S444.401,30,436,30z"/>
<path style="fill:#FCBF29;" d="M512,482c0,16.5-13.5,30-30,30H256v-60h226C498.5,452,512,465.5,512,482z"/>
<g>
</g>
<g>
</g>
<g>
</g>
<g>
</g>
<g>
</g>
<g>
</g>
<g>
</g>
<g>
</g>
<g>
</g>
<g>
</g>
<g>
</g>
<g>
</g>
<g>
</g>
<g>
</g>
<g>
</g>
</svg>
