<?xml version="1.0" encoding="iso-8859-1"?>
<!-- Generator: Adobe Illustrator 19.0.0, SVG Export Plug-In . SVG Version: 6.00 Build 0)  -->
<svg version="1.1" id="Capa_1" xmlns="http://www.w3.org/2000/svg" xmlns:xlink="http://www.w3.org/1999/xlink" x="0px" y="0px"
	 viewBox="0 0 512 512" style="enable-background:new 0 0 512 512;" xml:space="preserve">
<polygon style="fill:#00BBFF;" points="181,512 61,512 91,422 151,392 181,422 211,481.063 "/>
<polygon style="fill:#059DE0;" points="451,512 331,512 301,484.812 331,422 361,392 421,422 "/>
<path style="fill:#C5C9F7;" d="M271,226v61c0,8.399-6.599,15-15,15s-15-6.601-15-15v-61c0-8.401,6.599-15,15-15S271,217.599,271,226
	z"/>
<path style="fill:#A8AFF1;" d="M271,226v61c0,8.399-6.599,15-15,15v-91C264.401,211,271,217.599,271,226z"/>
<path style="fill:#C5C9F7;" d="M331,151l-63.6,76.199c-2.999,3.6-7.2,5.4-11.4,5.4s-8.401-1.8-11.4-5.4L181,151l15-30h106.8L331,151
	z"/>
<path style="fill:#A8AFF1;" d="M267.4,227.199c-2.999,3.6-7.2,5.4-11.4,5.4V121h46.8l28.2,30L267.4,227.199z"/>
<rect x="181" y="60" style="fill:#E1E4FB;" width="150" height="91"/>
<rect x="256" y="60" style="fill:#C5C9F7;" width="75" height="91"/>
<path style="fill:#7986E8;" d="M346,0H166c-8.401,0-15,6.599-15,15v30c0,24.901,20.099,45,45,45h120c24.901,0,45-20.099,45-45V15
	C361,6.599,354.401,0,346,0z"/>
<path style="fill:#6E77E5;" d="M316,90h-60V0h90c8.401,0,15,6.599,15,15v30C361,69.901,340.901,90,316,90z"/>
<path style="fill:#007BFF;" d="M451,15c0,8.399-6.599,15-15,15H76c-8.401,0-15-6.601-15-15c0-8.401,6.599-15,15-15h360
	C444.401,0,451,6.599,451,15z"/>
<path style="fill:#0050C7;" d="M451,15c0,8.399-6.599,15-15,15H256V0h180C444.401,0,451,6.599,451,15z"/>
<polygon style="fill:#00D0FF;" points="331,422 331,512 181,512 181,422 241,392 283.299,392 "/>
<g>
	<polygon style="fill:#00BBFF;" points="331,422 331,512 256,512 256,392 283.299,392 	"/>
	<polygon style="fill:#00BBFF;" points="256,272 279.25,378.5 331,422 421,422 	"/>
</g>
<polygon style="fill:#00D0FF;" points="91,422 181,422 241,362 256,272 "/>
<polygon style="fill:#00E3FF;" points="331,422 181,422 256,272 "/>
<polygon style="fill:#00D0FF;" points="331,422 256,422 256,272 "/>
<path style="fill:#007BFF;" d="M512,497c0,8.399-6.599,15-15,15H15c-8.401,0-15-6.601-15-15c0-8.401,6.599-15,15-15h482
	C505.401,482,512,488.599,512,497z"/>
<path style="fill:#0050C7;" d="M512,497c0,8.399-6.599,15-15,15H256v-30h241C505.401,482,512,488.599,512,497z"/>
<g>
</g>
<g>
</g>
<g>
</g>
<g>
</g>
<g>
</g>
<g>
</g>
<g>
</g>
<g>
</g>
<g>
</g>
<g>
</g>
<g>
</g>
<g>
</g>
<g>
</g>
<g>
</g>
<g>
</g>
</svg>
