<?xml version="1.0" encoding="iso-8859-1"?>
<!-- Generator: Adobe Illustrator 19.0.0, SVG Export Plug-In . SVG Version: 6.00 Build 0)  -->
<svg version="1.1" id="Capa_1" xmlns="http://www.w3.org/2000/svg" xmlns:xlink="http://www.w3.org/1999/xlink" x="0px" y="0px"
	 viewBox="0 0 512 512" style="enable-background:new 0 0 512 512;" xml:space="preserve">
<path style="fill:#0050C7;" d="M482,45v437H30V45c0-8.401,6.599-15,15-15h422C475.401,30,482,36.599,482,45z"/>
<path style="fill:#004597;" d="M482,45v437H256V30h211C475.401,30,482,36.599,482,45z"/>
<rect x="60" y="60" style="fill:#00E3FF;" width="392" height="422"/>
<rect x="256" y="60" style="fill:#00D0FF;" width="196" height="422"/>
<path style="fill:#A8AFF1;" d="M331,391h-20.127c-8.291,0-15-6.709-15-15s6.709-15,15-15H331c16.538,0,30-13.462,30-30
	s-13.462-30-30-30h-45c-8.291,0-15-6.709-15-15s6.709-15,15-15h45c33.091,0,60,26.909,60,60S364.091,391,331,391z"/>
<path style="fill:#C5C9F7;" d="M301,105v30c0,3.9-1.5,7.8-4.501,10.499l-30,30C263.8,178.5,259.9,181,256,181s-7.8-2.5-10.499-5.501
	l-30-30C212.5,142.8,211,138.9,211,135v-30c0-8.401,6.599-15,15-15h60C294.401,90,301,96.599,301,105z"/>
<path style="fill:#A8AFF1;" d="M301,105v30c0,3.9-1.5,7.8-4.501,10.499l-30,30C263.8,178.5,259.9,181,256,181V90h30
	C294.401,90,301,96.599,301,105z"/>
<path style="fill:#E1E4FB;" d="M331,30v75c0,8.399-6.599,15-15,15H196c-8.401,0-15-6.601-15-15V30H331z"/>
<path style="fill:#C5C9F7;" d="M316,120h-60V30h75v75C331,113.399,324.401,120,316,120z"/>
<path style="fill:#7986E8;" d="M361,30c0,16.5-13.5,30-30,30H181c-16.5,0-30-13.5-30-30s13.5-30,30-30h150C347.5,0,361,13.5,361,30z
	"/>
<path style="fill:#C5C9F7;" d="M271,135v61c0,13.2-5.7,25.199-15,33.3c-7.8,7.2-18.3,11.7-30,11.7h-30
	c-19.501,0-36.301,12.599-42.299,30L151,301h-15c-8.401,0-15-6.601-15-15c0-41.4,33.6-75,75-75h30c8.401,0,15-6.601,15-15v-61H271z"
	/>
<path style="fill:#A8AFF1;" d="M271,196c0,13.2-5.7,25.199-15,33.3V135h15V196z"/>
<path style="fill:#6E77E5;" d="M331,60h-75V0h75c16.5,0,30,13.5,30,30S347.5,60,331,60z"/>
<path style="fill:#0050C7;" d="M512,451l-30,31l-30-31V120c0-16.569,13.431-30,30-30l0,0c16.569,0,30,13.431,30,30V451z"/>
<path style="fill:#007BFF;" d="M60,451l-30,31L0,451V120c0-16.569,13.431-30,30-30l0,0c16.569,0,30,13.431,30,30V451z"/>
<path style="fill:#7986E8;" d="M512,451v46c0,8.399-6.599,15-15,15H15c-8.401,0-15-6.601-15-15v-46H512z"/>
<path style="fill:#6E77E5;" d="M512,451v46c0,8.399-6.599,15-15,15H256v-61H512z"/>
<path style="fill:#E1E4FB;" d="M316,271H136c-8.401,0-15,6.599-15,15v60c0,57.9,47.1,105,105,105c10.499,0,20.4-1.5,30-4.501
	c43.2-12.9,75-53.101,75-100.499v-60C331,277.599,324.401,271,316,271z"/>
<path style="fill:#C5C9F7;" d="M331,286v60c0,47.399-31.8,87.599-75,100.499V271h60C324.401,271,331,277.599,331,286z"/>
<g>
</g>
<g>
</g>
<g>
</g>
<g>
</g>
<g>
</g>
<g>
</g>
<g>
</g>
<g>
</g>
<g>
</g>
<g>
</g>
<g>
</g>
<g>
</g>
<g>
</g>
<g>
</g>
<g>
</g>
</svg>
