<?xml version="1.0" encoding="iso-8859-1"?>
<!-- Generator: Adobe Illustrator 19.0.0, SVG Export Plug-In . SVG Version: 6.00 Build 0)  -->
<svg version="1.1" id="Capa_1" xmlns="http://www.w3.org/2000/svg" xmlns:xlink="http://www.w3.org/1999/xlink" x="0px" y="0px"
	 viewBox="0 0 512 512" style="enable-background:new 0 0 512 512;" xml:space="preserve">
<path style="fill:#A8AFF1;" d="M405,301c-8.291,0-15-6.709-15-15V180.615l-11.543-4.028c-7.822-2.725-11.953-11.279-9.229-19.102
	c2.725-7.808,11.25-11.968,19.102-9.229l21.606,7.529c6.021,2.095,10.063,7.778,10.063,14.165V286C420,294.291,413.291,301,405,301z
	"/>
<path style="fill:#FF0B69;" d="M401.791,152.19c0,5.4-0.901,10.8-2.701,16.199c-6.899,19.501-24.901,32.1-44.7,32.1
	c-10.8,0-6-0.599-174-42.599l-29.101-37.5l21.301-30.899l21.299-31.201l27.301-17.699l152.4,68.399
	C391.29,116.79,401.791,133.891,401.791,152.19z"/>
<path style="fill:#DD025B;" d="M399.09,168.39c-6.899,19.501-24.901,32.1-44.7,32.1c-10.8,0-6-0.599-174-42.599l-29.101-37.5
	l21.301-30.899L399.09,168.39z"/>
<path style="fill:#E1E4FB;" d="M221.19,40.591l-20.4,58.799l-20.4,58.5c-3.001-0.899-55.201-14.099-58.5-14.7l-28.801-38.1
	l22.8-35.4l22.8-35.7l27.599-17.999C166.29,15.991,217.29,38.791,221.19,40.591z"/>
<path style="fill:#C5C9F7;" d="M200.79,99.39l-20.4,58.5c-3.001-0.899-55.201-14.099-58.5-14.7l-28.801-38.1l22.8-35.4L200.79,99.39
	z"/>
<path style="fill:#007BFF;" d="M101.791,33.091l-9.6,28.2L82.29,89.79c-2.401,6-8.101,9.901-14.399,9.901
	c-1.501,0-3.301-0.3-4.801-0.899l-32.999-11.4C6.689,79.29-5.61,53.491,2.491,30.09C10.589,6.691,36.389-5.61,59.79,2.491
	l32.999,11.4C100.589,16.59,104.79,25.291,101.791,33.091z"/>
<path style="fill:#0050C7;" d="M2.491,30.09l89.7,31.201L82.29,89.79c-2.401,6-8.101,9.901-14.399,9.901
	c-1.501,0-3.301-0.3-4.801-0.899l-32.999-11.4C6.689,79.29-5.61,53.491,2.491,30.09z"/>
<path style="fill:#00D0FF;" d="M330,512l-83.321-55.547c-4.173-2.782-6.68-7.465-6.68-12.481V271l90,60L330,512L330,512z"/>
<path style="fill:#00BBFF;" d="M497,512H330V331h182v166C512,505.284,505.284,512,497,512z"/>
<polygon style="fill:#00E3FF;" points="512,331 330,331 240,271 420,271 "/>
<path style="fill:#FF0B69;" d="M166.29,15.991l-44.399,127.2c-20.099-5.4-17.701-4.2-28.801-8.101
	c-32.1-11.1-47.699-45.3-37.2-75.899l3.3-9.3l3.301-9.3c10.499-30,43.198-48.001,76.199-36.601
	C149.49,7.89,153.39,10.291,166.29,15.991z"/>
<path style="fill:#DD025B;" d="M144.09,79.591l-22.2,63.6c-20.099-5.4-17.701-4.2-28.801-8.101c-32.1-11.1-47.699-45.3-37.2-75.899
	l3.3-9.3L144.09,79.591z"/>
<g>
</g>
<g>
</g>
<g>
</g>
<g>
</g>
<g>
</g>
<g>
</g>
<g>
</g>
<g>
</g>
<g>
</g>
<g>
</g>
<g>
</g>
<g>
</g>
<g>
</g>
<g>
</g>
<g>
</g>
</svg>
