<?xml version="1.0" encoding="iso-8859-1"?>
<!-- Generator: Adobe Illustrator 19.0.0, SVG Export Plug-In . SVG Version: 6.00 Build 0)  -->
<svg version="1.1" id="Capa_1" xmlns="http://www.w3.org/2000/svg" xmlns:xlink="http://www.w3.org/1999/xlink" x="0px" y="0px"
	 viewBox="0 0 512 512" style="enable-background:new 0 0 512 512;" xml:space="preserve">
<path style="fill:#7986E8;" d="M256,30C131.8,30,30,131.8,30,256s101.8,226,226,226s226-101.8,226-226S380.2,30,256,30z"/>
<path style="fill:#6E77E5;" d="M482,256c0,124.2-101.8,226-226,226V30C380.2,30,482,131.8,482,256z"/>
<path style="fill:#E1E4FB;" d="M478.4,246.099C475.1,242.199,393.999,151,256,151S36.899,242.199,33.6,246.099
	c-4.799,5.7-4.799,14.101,0,19.799c3.3,3.9,84.401,95.101,222.4,95.101s219.101-91.201,222.4-95.101
	C483.199,260.2,483.199,251.8,478.4,246.099z"/>
<path style="fill:#C5C9F7;" d="M478.4,265.899C475.1,269.799,393.999,361,256,361V151c137.999,0,219.101,91.199,222.4,95.099
	C483.199,251.8,483.199,260.2,478.4,265.899z"/>
<path style="fill:#00E3FF;" d="M256,151c-57.9,0-105,47.1-105,105s47.1,105,105,105s105-47.1,105-105S313.9,151,256,151z"/>
<path style="fill:#00D0FF;" d="M361,256c0,57.9-47.1,105-105,105V151C313.9,151,361,198.1,361,256z"/>
<path style="fill:#007BFF;" d="M256,211c-24.901,0-45,20.099-45,45c0,24.899,20.099,45,45,45s45-20.101,45-45
	C301,231.099,280.901,211,256,211z"/>
<g>
	<path style="fill:#00E3FF;" d="M15,61C6.709,61,0,54.291,0,46V15C0,6.709,6.709,0,15,0h30c8.291,0,15,6.709,15,15s-6.709,15-15,15
		H30v16C30,54.291,23.291,61,15,61z"/>
	<path style="fill:#00E3FF;" d="M15,151c-8.291,0-15-6.709-15-15v-30c0-8.291,6.709-15,15-15s15,6.709,15,15v30
		C30,144.291,23.291,151,15,151z"/>
	<path style="fill:#00E3FF;" d="M15,421c-8.291,0-15-6.709-15-15v-30c0-8.291,6.709-15,15-15s15,6.709,15,15v30
		C30,414.291,23.291,421,15,421z"/>
</g>
<g>
	<path style="fill:#00D0FF;" d="M497,421c-8.291,0-15-6.709-15-15v-30c0-8.291,6.709-15,15-15s15,6.709,15,15v30
		C512,414.291,505.291,421,497,421z"/>
	<path style="fill:#00D0FF;" d="M497,151c-8.291,0-15-6.709-15-15v-30c0-8.291,6.709-15,15-15s15,6.709,15,15v30
		C512,144.291,505.291,151,497,151z"/>
</g>
<g>
	<path style="fill:#00E3FF;" d="M136,30h-31c-8.291,0-15-6.709-15-15s6.709-15,15-15h31c8.291,0,15,6.709,15,15S144.291,30,136,30z"
		/>
	<path style="fill:#00E3FF;" d="M136,512h-31c-8.291,0-15-6.709-15-15s6.709-15,15-15h31c8.291,0,15,6.709,15,15
		S144.291,512,136,512z"/>
</g>
<g>
	<path style="fill:#00D0FF;" d="M407,30h-31c-8.291,0-15-6.709-15-15s6.709-15,15-15h31c8.291,0,15,6.709,15,15S415.291,30,407,30z"
		/>
	<path style="fill:#00D0FF;" d="M407,512h-31c-8.291,0-15-6.709-15-15s6.709-15,15-15h31c8.291,0,15,6.709,15,15
		S415.291,512,407,512z"/>
	<path style="fill:#00D0FF;" d="M497,61c-8.291,0-15-6.709-15-15V30h-15c-8.291,0-15-6.709-15-15s6.709-15,15-15h30
		c8.291,0,15,6.709,15,15v31C512,54.291,505.291,61,497,61z"/>
</g>
<path style="fill:#00E3FF;" d="M45,512H15c-8.291,0-15-6.709-15-15v-31c0-8.291,6.709-15,15-15s15,6.709,15,15v16h15
	c8.291,0,15,6.709,15,15S53.291,512,45,512z"/>
<path style="fill:#00D0FF;" d="M497,512h-30c-8.291,0-15-6.709-15-15s6.709-15,15-15h15v-16c0-8.291,6.709-15,15-15s15,6.709,15,15
	v31C512,505.291,505.291,512,497,512z"/>
<path style="fill:#0050C7;" d="M301,256c0,24.899-20.099,45-45,45v-90C280.901,211,301,231.099,301,256z"/>
<g>
</g>
<g>
</g>
<g>
</g>
<g>
</g>
<g>
</g>
<g>
</g>
<g>
</g>
<g>
</g>
<g>
</g>
<g>
</g>
<g>
</g>
<g>
</g>
<g>
</g>
<g>
</g>
<g>
</g>
</svg>
