<?xml version="1.0" encoding="iso-8859-1"?>
<!-- Generator: Adobe Illustrator 19.0.0, SVG Export Plug-In . SVG Version: 6.00 Build 0)  -->
<svg version="1.1" id="Capa_1" xmlns="http://www.w3.org/2000/svg" xmlns:xlink="http://www.w3.org/1999/xlink" x="0px" y="0px"
	 viewBox="0 0 512 512" style="enable-background:new 0 0 512 512;" xml:space="preserve">
<path style="fill:#004597;" d="M437,512h-61c-5.684,0-10.869-3.208-13.418-8.291l-30-61c-2.329-4.644-2.08-10.166,0.659-14.59
	S340.8,421,346,421h121c5.2,0,10.02,2.695,12.759,7.119s2.988,9.946,0.659,14.59l-30,61C447.869,508.792,442.684,512,437,512z"/>
<path style="fill:#0050C7;" d="M135,512H75c-5.684,0-10.869-3.208-13.418-8.291l-30-61c-2.329-4.644-2.08-10.166,0.659-14.59
	S39.8,421,45,421h120c5.2,0,10.02,2.695,12.759,7.119s2.988,9.946,0.659,14.59l-30,61C145.869,508.792,140.684,512,135,512z"/>
<path style="fill:#007BFF;" d="M467,60H268.299c-3.898,0-8.798-1.5-11.499-4.501L214.501,13.2C205.8,4.799,194.7,0,182.701,0H45
	C20.099,0,0,20.099,0,45v361c0,24.899,20.099,45,45,45h422c24.901,0,45-20.101,45-45V105C512,80.099,491.901,60,467,60z"/>
<path style="fill:#0050C7;" d="M512,105v301c0,24.899-20.099,45-45,45H331V60h136C491.901,60,512,80.099,512,105z"/>
<path style="fill:#00E3FF;" d="M437,120H225c-8.401,0-15,6.599-15,15v241c0,8.399,6.599,15,15,15h212c8.401,0,15-6.601,15-15V135
	C452,126.599,445.401,120,437,120z"/>
<path style="fill:#00D0FF;" d="M452,135v241c0,8.399-6.599,15-15,15H331V120h106C445.401,120,452,126.599,452,135z"/>
<g>
	<circle style="fill:#FF0B69;" cx="75" cy="286" r="15"/>
	<circle style="fill:#FF0B69;" cx="165" cy="286" r="15"/>
	<circle style="fill:#FF0B69;" cx="75" cy="346" r="15"/>
	<circle style="fill:#FF0B69;" cx="165" cy="346" r="15"/>
	<path style="fill:#FF0B69;" d="M331,271c-32.999,0-60,26.999-60,60c0,32.999,27.001,60,60,60s60-27.001,60-60
		C391,297.999,363.999,271,331,271z"/>
</g>
<g>
	<path style="fill:#E1E4FB;" d="M286,120v46c0,3.9,1.5,7.8,4.501,10.499l25.499,25.5V226c0,8.399,6.599,15,15,15s15-6.601,15-15
		v-24.001l25.499-25.499C374.5,173.8,376,169.9,376,166v-46H286z"/>
	<path style="fill:#E1E4FB;" d="M165,241H75c-8.291,0-15-6.709-15-15v-91c0-8.291,6.709-15,15-15h90c8.291,0,15,6.709,15,15v91
		C180,234.291,173.291,241,165,241z"/>
</g>
<path style="fill:#DD025B;" d="M391,331c0,32.999-27.001,60-60,60V271C363.999,271,391,297.999,391,331z"/>
<path style="fill:#C5C9F7;" d="M331,120v121c8.401,0,15-6.601,15-15v-24.001l25.499-25.499C374.5,173.8,376,169.9,376,166v-46H331z"
	/>
<g>
</g>
<g>
</g>
<g>
</g>
<g>
</g>
<g>
</g>
<g>
</g>
<g>
</g>
<g>
</g>
<g>
</g>
<g>
</g>
<g>
</g>
<g>
</g>
<g>
</g>
<g>
</g>
<g>
</g>
</svg>
