<?xml version="1.0" encoding="iso-8859-1"?>
<!-- Generator: Adobe Illustrator 19.0.0, SVG Export Plug-In . SVG Version: 6.00 Build 0)  -->
<svg version="1.1" id="Capa_1" xmlns="http://www.w3.org/2000/svg" xmlns:xlink="http://www.w3.org/1999/xlink" x="0px" y="0px"
	 viewBox="0 0 512 512" style="enable-background:new 0 0 512 512;" xml:space="preserve">
<path style="fill:#FEDB41;" d="M512,407v90c0,8.401-6.599,15-15,15H15c-3.9,0-7.8-1.5-10.499-4.501C1.5,504.8,0,500.9,0,497V15
	C0,6.599,6.599,0,15,0h90c8.401,0,15,6.599,15,15v47L90,77l30,15v30l-30,15l30,15v30l-30,15l30,15v30l-30,15l30,15v30l-30,15l30,15
	v30l-30,15l30,15l15,30l15-30h30l15,30l15-30h30l15,30l15-30h30l15,30l15-30h30l15,30l15-30h30l15,30l15-30h47
	C505.401,392,512,398.599,512,407z"/>
<path style="fill:#FCBF29;" d="M512,407v90c0,8.401-6.599,15-15,15H15c-3.9,0-7.8-1.5-10.499-4.501L120,392l15,30l15-30h30l15,30
	l15-30h30l15,30l15-30h30l15,30l15-30h30l15,30l15-30h30l15,30l15-30h47C505.401,392,512,398.599,512,407z"/>
<polygon style="fill:#FF0B69;" points="240,0 150,92 205.625,122 240,92 270,38.125 "/>
<path d="M1.154,502.728c1.52,3.673,4.446,6.599,8.119,8.119c-1.771-0.732-3.439-1.802-4.878-3.241S1.886,504.498,1.154,502.728z"/>
<g>
	<path style="fill:#FE9923;" d="M255,452c8.291,0,15-6.709,15-15v-45h-30v45C240,445.291,246.709,452,255,452z"/>
	<path style="fill:#FE9923;" d="M195,452c8.291,0,15-6.709,15-15v-45h-30v45C180,445.291,186.709,452,195,452z"/>
	<path style="fill:#FE9923;" d="M120,392v15v30c0,8.291,6.709,15,15,15s15-6.709,15-15v-45h-15H120z"/>
	<path style="fill:#FE9923;" d="M315,452c8.291,0,15-6.709,15-15v-45h-30v45C300,445.291,306.709,452,315,452z"/>
	<path style="fill:#FE9923;" d="M375,452c8.291,0,15-6.709,15-15v-45h-30v45C360,445.291,366.709,452,375,452z"/>
	<path style="fill:#FE9923;" d="M435,452c8.291,0,15-6.709,15-15v-45h-30v45C420,445.291,426.709,452,435,452z"/>
</g>
<path d="M1.154,502.728C0.423,500.961,0,499.032,0,497C0,498.952,0.396,500.895,1.154,502.728z"/>
<path d="M15,512c-2.032,0-3.961-0.423-5.728-1.154C11.105,511.604,13.048,512,15,512z"/>
<g>
	<path style="fill:#FEA832;" d="M60,77c0,8.291,6.709,15,15,15h45V62H75C66.709,62,60,68.709,60,77z"/>
	<path style="fill:#FEA832;" d="M60,137c0,8.291,6.709,15,15,15h45v-30H75C66.709,122,60,128.709,60,137z"/>
	<path style="fill:#FEA832;" d="M60,197c0,8.291,6.709,15,15,15h45v-30H75C66.709,182,60,188.709,60,197z"/>
	<path style="fill:#FEA832;" d="M60,257c0,8.291,6.709,15,15,15h45v-30H75C66.709,242,60,248.709,60,257z"/>
	<path style="fill:#FEA832;" d="M60,317c0,8.291,6.709,15,15,15h45v-30H75C66.709,302,60,308.709,60,317z"/>
	<path style="fill:#FEA832;" d="M60,377c0,8.291,6.709,15,15,15h30h15v-15v-15H75C66.709,362,60,368.709,60,377z"/>
</g>
<polygon style="fill:#DD025B;" points="420,362 512,272 465,242 420,272 390,317 "/>
<polygon style="fill:#9E0A48;" points="240,272 171.875,310.125 150,362 420,362 420,272 335,255 "/>
<polygon style="fill:#DD025B;" points="420,92 390,109.5 390,257 420,272 512,272 512,0 435,47 "/>
<polygon style="fill:#FF4394;" points="420,92 512,0 240,0 240,92 337,118 "/>
<polygon style="fill:#DD025B;" points="240,92 150,92 150,362 240,272 270,252.625 270,111.375 "/>
<rect x="240" y="92" style="fill:#FF0B69;" width="180" height="180"/>
<g>
</g>
<g>
</g>
<g>
</g>
<g>
</g>
<g>
</g>
<g>
</g>
<g>
</g>
<g>
</g>
<g>
</g>
<g>
</g>
<g>
</g>
<g>
</g>
<g>
</g>
<g>
</g>
<g>
</g>
</svg>
