<?xml version="1.0" encoding="iso-8859-1"?>
<!-- Generator: Adobe Illustrator 19.0.0, SVG Export Plug-In . SVG Version: 6.00 Build 0)  -->
<svg version="1.1" id="Capa_1" xmlns="http://www.w3.org/2000/svg" xmlns:xlink="http://www.w3.org/1999/xlink" x="0px" y="0px"
	 viewBox="0 0 512 512" style="enable-background:new 0 0 512 512;" xml:space="preserve">
<path style="fill:#007BFF;" d="M361,436c0,8.399-6.599,15-15,15H166c-8.401,0-15-6.601-15-15c0-8.401,6.599-15,15-15h180
	C354.401,421,361,427.599,361,436z"/>
<path style="fill:#0050C7;" d="M361,436c0,8.399-6.599,15-15,15H226v-30h120C354.401,421,361,427.599,361,436z"/>
<path style="fill:#007BFF;" d="M361,76c0,8.399-6.599,15-15,15H166c-8.401,0-15-6.601-15-15c0-8.401,6.599-15,15-15h180
	C354.401,61,361,67.599,361,76z"/>
<g>
	<path style="fill:#0050C7;" d="M452.597,244.164c-5.508,0-10.796-3.032-13.433-8.291L376,109.545
		c-3.706-7.412-0.703-16.421,6.709-20.127c7.397-3.691,16.421-0.718,20.127,6.709L466,222.455
		c3.706,7.412,0.703,16.421-6.709,20.127C457.138,243.651,454.853,244.164,452.597,244.164z"/>
	<path style="fill:#0050C7;" d="M389.403,424.164c-2.256,0-4.541-0.513-6.694-1.582c-5.259-2.622-8.291-7.925-8.291-13.418
		c0-2.256,0.513-4.556,1.582-6.709l63.164-126.328c3.721-7.412,12.7-10.386,20.127-6.709c5.259,2.622,8.291,7.925,8.291,13.418
		c0,2.256-0.513,4.556-1.582,6.709l-63.164,126.328C400.199,421.132,394.911,424.164,389.403,424.164z"/>
</g>
<g>
	<path style="fill:#007BFF;" d="M59.403,244.164c-2.256,0-4.541-0.513-6.694-1.582c-7.412-3.706-10.415-12.715-6.709-20.127
		l63.164-126.328c3.721-7.427,12.7-10.4,20.127-6.709c7.412,3.706,10.415,12.715,6.709,20.127L72.836,235.873
		C70.199,241.132,64.911,244.164,59.403,244.164z"/>
	<path style="fill:#007BFF;" d="M122.597,424.164c-5.508,0-10.796-3.032-13.433-8.291L46,289.545
		c-3.706-7.412-0.703-16.421,6.709-20.127c7.397-3.677,16.421-0.703,20.127,6.709L136,402.455
		c3.706,7.412,0.703,16.421-6.709,20.127C127.138,423.651,124.853,424.164,122.597,424.164z"/>
</g>
<g>
	<path style="fill:#0050C7;" d="M439.164,257.582c-1.626,0-3.267-0.264-4.878-0.82l-96.328-33.164
		c-7.837-2.695-11.997-11.235-9.302-19.058c2.695-7.837,11.25-11.982,19.058-9.302l96.328,33.164
		c7.837,2.695,11.997,11.235,9.302,19.058C451.205,253.686,445.39,257.582,439.164,257.582z"/>
	<path style="fill:#0050C7;" d="M323.266,181.894c-3.076,0-6.196-0.952-8.877-2.915c-6.665-4.907-8.101-14.297-3.193-20.977
		l45.439-61.787c4.907-6.665,14.268-8.086,20.977-3.193c6.665,4.907,8.101,14.297,3.193,20.977l-45.439,61.787
		C332.421,179.784,327.88,181.894,323.266,181.894z"/>
</g>
<path style="fill:#007BFF;" d="M303.401,187.599c-2.701,4.501-7.5,6.901-12.301,6.901c-2.999,0-5.7-0.901-8.399-2.701l-56.7-37.8
	l-73.5-48.9c-6.899-4.499-8.699-13.799-3.9-20.7C153.1,77.5,162.4,75.7,169.3,80.2l56.7,37.798l73.5,48.9
	C306.4,171.4,308.2,180.7,303.401,187.599z"/>
<path style="fill:#0050C7;" d="M243.988,307.006c-3.135,0-6.284-0.981-8.979-3.003c-6.636-4.966-7.983-14.37-3.003-20.991L286,211
	c4.98-6.636,14.385-7.954,20.991-3.003c6.636,4.966,7.983,14.37,3.003,20.991L256,301
	C253.056,304.94,248.559,307.006,243.988,307.006z"/>
<path style="fill:#007BFF;" d="M197.538,321.508c-1.567,0-3.164-0.249-4.746-0.776L69.716,279.716
	c-7.852-2.607-12.1-11.104-9.478-18.97c2.607-7.837,11.045-12.144,18.97-9.478l123.076,41.016c7.852,2.607,12.1,11.104,9.478,18.97
	C209.667,317.538,203.822,321.508,197.538,321.508z"/>
<path style="fill:#0050C7;" d="M352.563,432.265c-3.281,0-6.592-1.069-9.36-3.281l-103.154-82.529
	c-6.46-5.186-7.515-14.619-2.344-21.094c5.2-6.445,14.619-7.529,21.094-2.344l103.154,82.529c6.46,5.186,7.515,14.619,2.344,21.094
	C361.322,430.331,356.972,432.265,352.563,432.265z"/>
<g>
	<path style="fill:#007BFF;" d="M153.988,427.006c-3.135,0-6.284-0.981-8.979-3.003c-6.636-4.966-7.983-14.37-3.003-20.991L196,331
		c4.995-6.636,14.37-7.954,20.991-3.003c6.636,4.966,7.983,14.37,3.003,20.991L166,421
		C163.056,424.94,158.559,427.006,153.988,427.006z"/>
	<path style="fill:#007BFF;" d="M215.468,302.904c-6.064,0-11.792-3.706-14.048-9.727l-68.936-183.809
		c-2.9-7.764,1.025-16.406,8.774-19.321c7.734-2.9,16.406,1.011,19.321,8.774l68.936,183.809c2.9,7.764-1.025,16.406-8.774,19.321
		C218.998,302.597,217.226,302.904,215.468,302.904z"/>
</g>
<g>
	<path style="fill:#0050C7;" d="M255.092,323.72c-6.724,0-12.832-4.541-14.531-11.367c-2.021-8.027,2.871-16.172,10.913-18.179
		l181.787-45.439c8.013-2.036,16.172,2.856,18.179,10.913c2.021,8.027-2.871,16.172-10.913,18.179L258.74,323.266
		C257.523,323.573,256.293,323.72,255.092,323.72z"/>
	<path style="fill:#0050C7;" d="M346,91H226V61h120c8.401,0,15,6.599,15,15C361,84.399,354.401,91,346,91z"/>
	<path style="fill:#0050C7;" d="M303.401,187.599c-2.701,4.501-7.5,6.901-12.301,6.901c-2.999,0-5.7-0.901-8.399-2.701l-56.7-37.8
		v-36l73.5,48.9C306.4,171.4,308.2,180.7,303.401,187.599z"/>
</g>
<path style="fill:#FF0B69;" d="M226,271c-24.901,0-45,20.099-45,45c0,24.899,20.099,45,45,45s45-20.101,45-45
	C271,291.099,250.901,271,226,271z"/>
<g>
	<path style="fill:#DD025B;" d="M271,316c0,24.899-20.099,45-45,45v-90C250.901,271,271,291.099,271,316z"/>
	<path style="fill:#DD025B;" d="M466,301c-24.814,0-45-20.186-45-45s20.186-45,45-45s46,20.186,46,45S490.814,301,466,301z"/>
	<path style="fill:#DD025B;" d="M376,121c-24.814,0-45-20.186-45-45s20.186-45,45-45s45,20.186,45,45S400.814,121,376,121z"/>
	<path style="fill:#DD025B;" d="M316,241c-24.814,0-45-20.186-45-45s20.186-45,45-45s45,20.186,45,45S340.814,241,316,241z"/>
	<path style="fill:#DD025B;" d="M376,481c-24.814,0-45-20.186-45-45s20.186-45,45-45s45,20.186,45,45S400.814,481,376,481z"/>
</g>
<g>
	<path style="fill:#FF0B69;" d="M46,301c-24.814,0-46-20.186-46-45s21.186-45,46-45s45,20.186,45,45S70.814,301,46,301z"/>
	<path style="fill:#FF0B69;" d="M136,121c-24.814,0-45-20.186-45-45s20.186-45,45-45s45,20.186,45,45S160.814,121,136,121z"/>
	<path style="fill:#FF0B69;" d="M136,481c-24.814,0-45-20.186-45-45s20.186-45,45-45s45,20.186,45,45S160.814,481,136,481z"/>
</g>
<g>
</g>
<g>
</g>
<g>
</g>
<g>
</g>
<g>
</g>
<g>
</g>
<g>
</g>
<g>
</g>
<g>
</g>
<g>
</g>
<g>
</g>
<g>
</g>
<g>
</g>
<g>
</g>
<g>
</g>
</svg>
