<?xml version="1.0" encoding="iso-8859-1"?>
<!-- Generator: Adobe Illustrator 19.0.0, SVG Export Plug-In . SVG Version: 6.00 Build 0)  -->
<svg version="1.1" id="Capa_1" xmlns="http://www.w3.org/2000/svg" xmlns:xlink="http://www.w3.org/1999/xlink" x="0px" y="0px"
	 viewBox="0 0 512 512" style="enable-background:new 0 0 512 512;" xml:space="preserve">
<path style="fill:#FF0B69;" d="M503.25,51.177l-63.64,63.64L397.184,72.39l63.64-63.64c11.667-11.667,30.759-11.667,42.426,0
	C514.917,20.417,514.917,39.51,503.25,51.177z"/>
<path style="fill:#DD025B;" d="M439.61,114.816l-21.213-21.213L503.25,8.75c11.667,11.667,11.667,30.759,0,42.426L439.61,114.816z"
	/>
<path style="fill:#FF0B69;" d="M57.772,475.441l-32.183,32.183c-5.728,5.728-15.273,5.94-21.213,0s-5.728-15.485,0-21.213
	l32.183-32.183c5.94-5.94,15.273-5.94,21.213,0C63.713,460.168,63.713,469.5,57.772,475.441z"/>
<path style="fill:#DD025B;" d="M57.772,475.441l-32.183,32.183c-5.728,5.728-15.273,5.94-21.213,0l53.396-53.396
	C63.713,460.168,63.713,469.5,57.772,475.441z"/>
<path style="fill:#007BFF;" d="M121.412,475.441l-54.729,18.243c-5.517,1.697-11.456,0.425-15.487-3.606l-29.274-29.274
	c-4.031-4.031-5.303-9.97-3.606-15.487l18.243-54.729l34.365-8.061l57.701,57.701L121.412,475.441z"/>
<path style="fill:#0050C7;" d="M128.625,440.227l-7.213,35.213l-54.729,18.243c-5.517,1.697-11.456,0.425-15.487-3.606
	L36.559,475.44l63.64-63.64L128.625,440.227z"/>
<path style="fill:#007BFF;" d="M450.217,210.276l-53.033-10.607l-79.549-79.55l-15.91-58.336l86.549-28.85
	c5.517-1.697,11.456-0.425,15.487,3.606l71.701,71.701c4.031,4.031,5.303,9.97,3.606,15.487L450.217,210.276z"/>
<path style="fill:#0050C7;" d="M450.217,210.276l-53.033-10.607l-42.426-42.426L439.61,72.39l35.85,35.85
	c4.031,4.031,5.303,9.97,3.606,15.487L450.217,210.276z"/>
<polygon style="fill:#00E3FF;" points="450.217,210.276 121.412,475.441 36.559,390.588 74.53,343.706 100.199,326.948 
	227.478,199.669 225.993,155.758 301.724,61.783 "/>
<polygon style="fill:#00D0FF;" points="450.217,210.276 121.412,475.441 78.986,433.014 375.971,136.029 "/>
<circle style="fill:#FF0B69;" cx="301.73" cy="167.85" r="15"/>
<path style="fill:#E1E4FB;" d="M291.118,242.095L142.625,390.588c-5.939,5.939-15.273,5.94-21.213,0L74.53,343.706l151.463-187.949
	l65.125,65.125C297.058,226.823,297.058,236.155,291.118,242.095z"/>
<path style="fill:#C5C9F7;" d="M291.118,242.095L142.625,390.588c-5.939,5.939-15.273,5.94-21.213,0l169.706-169.706
	C297.058,226.823,297.058,236.155,291.118,242.095z"/>
<g>
	<path style="fill:#00E3FF;" d="M15,150c8.291,0,15-6.709,15-15v-30c0-8.291-6.709-15-15-15S0,96.709,0,105v30
		C0,143.291,6.709,150,15,150z"/>
	<path style="fill:#00E3FF;" d="M45,0H15C6.709,0,0,6.709,0,15v30c0,8.291,6.709,15,15,15s15-6.709,15-15V30h15
		c8.291,0,15-6.709,15-15S53.291,0,45,0z"/>
	<path style="fill:#00E3FF;" d="M135,0h-30c-8.291,0-15,6.709-15,15s6.709,15,15,15h30c8.291,0,15-6.709,15-15S143.291,0,135,0z"/>
	<path style="fill:#00E3FF;" d="M15,179.989c-8.291,0-15,6.709-15,15v30c0,8.291,6.709,15,15,15s15-6.709,15-15v-30
		C30,186.698,23.291,179.989,15,179.989z"/>
	<path style="fill:#00E3FF;" d="M15,269.989c-8.291,0-15,6.709-15,15v30c0,8.291,6.709,15,15,15s15-6.709,15-15v-30
		C30,276.698,23.291,269.989,15,269.989z"/>
	<path style="fill:#00E3FF;" d="M228.563,0h-30c-8.291,0-15,6.709-15,15s6.709,15,15,15h30c8.291,0,15-6.709,15-15
		S236.854,0,228.563,0z"/>
	<path style="fill:#00E3FF;" d="M318.563,0h-30c-8.291,0-15,6.709-15,15s6.709,15,15,15h30c8.291,0,15-6.709,15-15
		S326.854,0,318.563,0z"/>
</g>
<g>
</g>
<g>
</g>
<g>
</g>
<g>
</g>
<g>
</g>
<g>
</g>
<g>
</g>
<g>
</g>
<g>
</g>
<g>
</g>
<g>
</g>
<g>
</g>
<g>
</g>
<g>
</g>
<g>
</g>
</svg>
