<?xml version="1.0" encoding="iso-8859-1"?>
<!-- Generator: Adobe Illustrator 19.0.0, SVG Export Plug-In . SVG Version: 6.00 Build 0)  -->
<svg version="1.1" id="Capa_1" xmlns="http://www.w3.org/2000/svg" xmlns:xlink="http://www.w3.org/1999/xlink" x="0px" y="0px"
	 viewBox="0 0 512 512" style="enable-background:new 0 0 512 512;" xml:space="preserve">
<path style="fill:#C5C9F7;" d="M512,45v422c0,19.499-12.599,36.299-30,42.299c-4.799,1.8-9.6,2.701-15,2.701h-90l-91-12.9L60,467V45
	l226-29.401L407,0h60c5.4,0,10.201,0.899,15,2.699C499.401,8.699,512,25.499,512,45z"/>
<path style="fill:#A8AFF1;" d="M512,45v422c0,19.499-12.599,36.299-30,42.299c-4.799,1.8-9.6,2.701-15,2.701h-90l-91-12.9V15.599
	L407,0h60c5.4,0,10.201,0.899,15,2.699C499.401,8.699,512,25.499,512,45z"/>
<g>
	<path style="fill:#007BFF;" d="M166,361h-30c-8.291,0-15-6.709-15-15v-30c0-8.291,6.709-15,15-15s15,6.709,15,15v15h15
		c8.291,0,15,6.709,15,15S174.291,361,166,361z"/>
	<path style="fill:#007BFF;" d="M136,211c-8.291,0-15-6.709-15-15v-30c0-8.291,6.709-15,15-15h30c8.291,0,15,6.709,15,15
		s-6.709,15-15,15h-15v15C151,204.291,144.291,211,136,211z"/>
</g>
<g>
	<path style="fill:#0050C7;" d="M437,361h-30c-8.291,0-15-6.709-15-15s6.709-15,15-15h15v-15c0-8.291,6.709-15,15-15s15,6.709,15,15
		v30C452,354.291,445.291,361,437,361z"/>
	<path style="fill:#0050C7;" d="M437,211c-8.291,0-15-6.709-15-15v-15h-15c-8.291,0-15-6.709-15-15s6.709-15,15-15h30
		c8.291,0,15,6.709,15,15v30C452,204.291,445.291,211,437,211z"/>
</g>
<g>
	<path style="fill:#E1E4FB;" d="M467,512H45c-24.901,0-45-20.101-45-45c0-24.901,20.099-45,45-45h422c-24.901,0-45,20.099-45,45
		C422,491.899,442.099,512,467,512z"/>
	<path style="fill:#E1E4FB;" d="M467,90H45C20.099,90,0,69.899,0,45C0,20.099,20.099,0,45,0h422c-24.901,0-45,20.099-45,45
		C422,69.899,442.099,90,467,90z"/>
</g>
<path style="fill:#9E0A48;" d="M384.442,320.319L286,376l-30-53.125V278.5l30-22.5l19.183-40.962l40.673-10.385L392,196v111.295
	C392,312.678,389.116,317.648,384.442,320.319z"/>
<path style="fill:#DD025B;" d="M286,376l-97.442-55.681c-4.674-2.671-7.558-7.641-7.558-13.024V196l48.443,10.539l45.654,13.231
	L286,256V376z"/>
<path style="fill:#FF0B69;" d="M278.558,137.976L181,196l105,60l106-60l-98.558-58.024
	C288.831,135.341,283.169,135.341,278.558,137.976z"/>
<g>
	<path style="fill:#C5C9F7;" d="M422,467c0,24.899,20.099,45,45,45H286v-90h181C442.099,422,422,442.099,422,467z"/>
	<path style="fill:#C5C9F7;" d="M467,90H286V0h181c-24.901,0-45,20.099-45,45C422,69.899,442.099,90,467,90z"/>
</g>
<g>
</g>
<g>
</g>
<g>
</g>
<g>
</g>
<g>
</g>
<g>
</g>
<g>
</g>
<g>
</g>
<g>
</g>
<g>
</g>
<g>
</g>
<g>
</g>
<g>
</g>
<g>
</g>
<g>
</g>
</svg>
