<?xml version="1.0" encoding="iso-8859-1"?>
<!-- Generator: Adobe Illustrator 19.0.0, SVG Export Plug-In . SVG Version: 6.00 Build 0)  -->
<svg version="1.1" id="Capa_1" xmlns="http://www.w3.org/2000/svg" xmlns:xlink="http://www.w3.org/1999/xlink" x="0px" y="0px"
	 viewBox="0 0 512 512" style="enable-background:new 0 0 512 512;" xml:space="preserve">
<path style="fill:#0050C7;" d="M316,467c0,24.899-27.001,45-60,45s-60-20.101-60-45c0-10.501,4.799-20.7,13.801-28.801L221.8,271
	h68.4l11.999,167.199C311.201,446.3,316,456.499,316,467z"/>
<path style="fill:#004597;" d="M302.199,438.199C311.201,446.3,316,456.499,316,467c0,24.899-27.001,45-60,45V271h34.2
	L302.199,438.199z"/>
<path style="fill:#0050C7;" d="M474.699,151.899l-76.5,80.4L256,231.4l-141-0.901l-77.699-78.6l9.3-66.698
	C52.301,57.001,68.8,33.9,91,18.6h33.6C137.199,44.099,163.001,60,191.499,60H323.5c28.5,0,54.3-15.901,66.899-41.4l32.701,1.5
	c21,15,36.599,37.5,41.999,64.2L474.699,151.899z"/>
<path style="fill:#004597;" d="M474.699,151.899l-76.5,80.4L256,231.4V60h67.5c28.5,0,54.3-15.901,66.899-41.4l32.701,1.5
	c21,15,36.599,37.5,41.999,64.2L474.699,151.899z"/>
<path style="fill:#00E3FF;" d="M398.2,232.299l-21,22.202l-41.1,43.2c-5.4,0-35.4-13.2-80.099-13.2
	c-22.2,0-47.401,2.999-75.3,12.299l-44.1-44.4L115,230.499l59.7-89.399c8.4-12.6,22.201-20.1,37.499-20.1H299.8
	c15.298,0,29.099,7.5,37.5,20.099L398.2,232.299z"/>
<path style="fill:#00D0FF;" d="M337.301,141.099l60.899,91.199l-21,22.202l-41.1,43.2c-5.4,0-35.4-13.2-80.099-13.2V121h43.801
	C315.099,121,328.9,128.5,337.301,141.099z"/>
<path style="fill:#007BFF;" d="M106,331C48.109,331,0,283.891,0,226s48.109-105,106-105s105,47.109,105,105S163.891,331,106,331z"/>
<path style="fill:#00E3FF;" d="M106,151c-41.353,0-75,33.647-75,75s33.647,75,75,75s75-33.647,75-75S147.353,151,106,151z"/>
<path style="fill:#007BFF;" d="M106,271c-24.814,0-45-20.186-45-45s20.186-45,45-45s45,20.186,45,45S130.814,271,106,271z"/>
<path style="fill:#00E3FF;" d="M106,211c-8.276,0-15,6.724-15,15s6.724,15,15,15s15-6.724,15-15S114.276,211,106,211z"/>
<path style="fill:#0050C7;" d="M406,331c-57.891,0-105-47.109-105-105s47.109-105,105-105s106,47.109,106,105S463.891,331,406,331z"
	/>
<path style="fill:#00D0FF;" d="M406,151c-41.353,0-75,33.647-75,75s33.647,75,75,75s75-33.647,75-75S447.353,151,406,151z"/>
<path style="fill:#0050C7;" d="M406,271c-24.814,0-45-20.186-45-45s20.186-45,45-45s45,20.186,45,45S430.814,271,406,271z"/>
<path style="fill:#00D0FF;" d="M406,211c-8.276,0-15,6.724-15,15s6.724,15,15,15s15-6.724,15-15S414.276,211,406,211z"/>
<path style="fill:#E1E4FB;" d="M266.499,206.499C263.8,209.5,259.9,211,256,211s-7.8-1.5-10.499-4.501c-6-5.7-6-15.3,0-21
	C248.2,182.5,252.1,181,256,181s7.8,1.5,10.499,4.499C272.5,191.199,272.5,200.799,266.499,206.499z"/>
<path style="fill:#FEA832;" d="M266.499,447.499C263.8,450.5,259.9,452,256,452s-7.8-1.5-10.499-4.501c-6-5.7-6-15.3,0-21
	C248.2,423.5,252.1,422,256,422s7.8,1.5,10.499,4.499C272.5,432.199,272.5,441.799,266.499,447.499z"/>
<path style="fill:#00E3FF;" d="M423.1,20.099L417.4,32.1c-17.999,35.7-54,57.9-93.9,57.9H191.499c-39.899,0-75.899-22.2-93.9-57.9
	L91,18.6c8.401-5.7,17.401-10.199,27.001-13.2c9.899-3.3,20.7-5.4,31.8-5.4H362.2c12,0,23.701,2.1,34.5,6
	C406.3,9.3,415,14.099,423.1,20.099z"/>
<path style="fill:#FE9923;" d="M266.499,426.499c6,5.7,6,15.3,0,21C263.8,450.5,259.9,452,256,452v-30
	C259.9,422,263.8,423.5,266.499,426.499z"/>
<path style="fill:#C5C9F7;" d="M266.499,206.499C263.8,209.5,259.9,211,256,211v-30c3.9,0,7.8,1.5,10.499,4.499
	C272.5,191.199,272.5,200.799,266.499,206.499z"/>
<path style="fill:#00D0FF;" d="M423.1,20.099L417.4,32.1c-17.999,35.7-54,57.9-93.9,57.9H256V0h106.199C374.2,0,385.901,2.1,396.7,6
	C406.3,9.3,415,14.099,423.1,20.099z"/>
<g>
</g>
<g>
</g>
<g>
</g>
<g>
</g>
<g>
</g>
<g>
</g>
<g>
</g>
<g>
</g>
<g>
</g>
<g>
</g>
<g>
</g>
<g>
</g>
<g>
</g>
<g>
</g>
<g>
</g>
</svg>
