<?xml version="1.0" encoding="iso-8859-1"?>
<!-- Generator: Adobe Illustrator 19.0.0, SVG Export Plug-In . SVG Version: 6.00 Build 0)  -->
<svg version="1.1" id="Capa_1" xmlns="http://www.w3.org/2000/svg" xmlns:xlink="http://www.w3.org/1999/xlink" x="0px" y="0px"
	 viewBox="0 0 512 512" style="enable-background:new 0 0 512 512;" xml:space="preserve">
<path style="fill:#007BFF;" d="M512,45v76l-30,30H30L0,121V45C0,20.099,20.099,0,45,0h422C491.901,0,512,20.099,512,45z"/>
<path style="fill:#0050C7;" d="M512,45v76l-30,30H256V0h211C491.901,0,512,20.099,512,45z"/>
<path style="fill:#00E3FF;" d="M512,121v346c0,24.901-20.099,45-45,45H45c-24.901,0-45-20.099-45-45V121H512z"/>
<path style="fill:#00D0FF;" d="M512,121v346c0,24.901-20.099,45-45,45H256V121H512z"/>
<g>
	<circle style="fill:#FEA832;" cx="75" cy="75" r="15"/>
	<circle style="fill:#FEA832;" cx="135" cy="75" r="15"/>
	<circle style="fill:#FEA832;" cx="195" cy="75" r="15"/>
</g>
<g>
	<path style="fill:#C5C9F7;" d="M437,241h-61c-8.291,0-15-6.709-15-15s6.709-15,15-15h61c8.291,0,15,6.709,15,15
		S445.291,241,437,241z"/>
	<path style="fill:#C5C9F7;" d="M437,301H316c-8.291,0-15-6.709-15-15s6.709-15,15-15h121c8.291,0,15,6.709,15,15
		S445.291,301,437,301z"/>
	<path style="fill:#C5C9F7;" d="M437,361H316c-8.291,0-15-6.709-15-15s6.709-15,15-15h121c8.291,0,15,6.709,15,15
		S445.291,361,437,361z"/>
	<path style="fill:#C5C9F7;" d="M437,421H316c-8.291,0-15-6.709-15-15s6.709-15,15-15h121c8.291,0,15,6.709,15,15
		S445.291,421,437,421z"/>
</g>
<path style="fill:#9E0A48;" d="M232.442,380.319L135,436l-30-53.125V338.5l30-22.5l19.183-40.962l40.673-10.385L240,256v111.295
	C240,372.678,237.116,377.648,232.442,380.319z"/>
<path style="fill:#DD025B;" d="M135,436l-97.442-55.681C32.884,377.648,30,372.678,30,367.295V256l48.443,10.539l45.654,13.231
	L135,316V436z"/>
<path style="fill:#FF0B69;" d="M127.558,197.976L30,256l105,60l105-60l-97.558-58.024
	C137.831,195.341,132.169,195.341,127.558,197.976z"/>
<g>
</g>
<g>
</g>
<g>
</g>
<g>
</g>
<g>
</g>
<g>
</g>
<g>
</g>
<g>
</g>
<g>
</g>
<g>
</g>
<g>
</g>
<g>
</g>
<g>
</g>
<g>
</g>
<g>
</g>
</svg>
